<?xml version="1.0" encoding="UTF-8"?>
<!DOCTYPE svg PUBLIC "-//W3C//DTD SVG 1.1//EN" "http://www.w3.org/Graphics/SVG/1.1/DTD/svg11.dtd">
<!-- Creator: CorelDRAW -->
<svg xmlns="http://www.w3.org/2000/svg" xml:space="preserve" width="800px" height="96px" version="1.1" style="shape-rendering:geometricPrecision; text-rendering:geometricPrecision; image-rendering:optimizeQuality; fill-rule:evenodd; clip-rule:evenodd"
viewBox="0 0 284.205 34.105"
 xmlns:xlink="http://www.w3.org/1999/xlink"
 xmlns:xodm="http://www.corel.com/coreldraw/odm/2003">
 <defs>
  <style type="text/css">
   <![CDATA[
    .fil0 {fill:none}
    .fil1 {fill:black}
    .fil3 {fill:#101010}
    .fil4 {fill:black;fill-rule:nonzero}
    .fil2 {fill:black;fill-rule:nonzero}
   ]]>
  </style>
 </defs>
 <g id="Layer_x0020_1">
  <metadata id="CorelCorpID_0Corel-Layer"/>
  <g id="_1967757408256">
   <rect class="fil0" width="284.205" height="34.105"/>
   <g>
    <path class="fil1" d="M57.252 7.222l0 -3.043 2.201 0 0 0.359 -1.798 0 0 0.932 1.683 0 0 0.357 -1.683 0 0 1.036 1.868 0 0 0.359 -2.271 0zm2.669 -0.868l0.337 -0.029c0.016,0.135 0.053,0.246 0.111,0.333 0.059,0.086 0.15,0.156 0.272,0.209 0.123,0.054 0.261,0.08 0.415,0.08 0.136,0 0.256,-0.02 0.361,-0.06 0.104,-0.041 0.182,-0.096 0.233,-0.167 0.051,-0.071 0.077,-0.147 0.077,-0.231 0,-0.085 -0.025,-0.158 -0.074,-0.222 -0.05,-0.064 -0.131,-0.116 -0.243,-0.159 -0.073,-0.028 -0.233,-0.073 -0.481,-0.132 -0.248,-0.06 -0.422,-0.116 -0.522,-0.169 -0.129,-0.067 -0.225,-0.151 -0.288,-0.251 -0.063,-0.1 -0.095,-0.212 -0.095,-0.337 0,-0.135 0.039,-0.263 0.116,-0.382 0.077,-0.118 0.191,-0.208 0.339,-0.27 0.149,-0.061 0.314,-0.092 0.496,-0.092 0.2,0 0.376,0.032 0.53,0.097 0.153,0.064 0.27,0.159 0.352,0.284 0.082,0.125 0.127,0.268 0.133,0.426l-0.342 0.026c-0.019,-0.17 -0.082,-0.3 -0.188,-0.387 -0.106,-0.087 -0.263,-0.131 -0.47,-0.131 -0.217,0 -0.374,0.04 -0.473,0.119 -0.099,0.079 -0.149,0.175 -0.149,0.286 0,0.098 0.036,0.178 0.105,0.24 0.07,0.063 0.249,0.127 0.539,0.192 0.291,0.066 0.49,0.124 0.598,0.173 0.158,0.073 0.274,0.164 0.349,0.275 0.075,0.111 0.112,0.24 0.112,0.384 0,0.144 -0.041,0.28 -0.124,0.407 -0.082,0.127 -0.2,0.225 -0.354,0.296 -0.154,0.071 -0.328,0.106 -0.52,0.106 -0.245,0 -0.45,-0.035 -0.615,-0.107 -0.165,-0.071 -0.295,-0.178 -0.389,-0.321 -0.094,-0.143 -0.143,-0.305 -0.148,-0.486zm4.565 -0.079l0.358 0.091c-0.075,0.293 -0.21,0.516 -0.404,0.671 -0.195,0.154 -0.433,0.231 -0.715,0.231 -0.291,0 -0.527,-0.059 -0.71,-0.177 -0.182,-0.119 -0.321,-0.291 -0.416,-0.515 -0.095,-0.225 -0.143,-0.467 -0.143,-0.725 0,-0.281 0.054,-0.526 0.161,-0.736 0.108,-0.209 0.261,-0.368 0.459,-0.477 0.198,-0.109 0.417,-0.163 0.655,-0.163 0.27,0 0.497,0.069 0.682,0.207 0.184,0.137 0.312,0.33 0.384,0.58l-0.351 0.083c-0.063,-0.197 -0.154,-0.34 -0.273,-0.43 -0.119,-0.089 -0.269,-0.134 -0.45,-0.134 -0.207,0 -0.38,0.05 -0.52,0.149 -0.139,0.1 -0.237,0.233 -0.293,0.401 -0.057,0.167 -0.085,0.341 -0.085,0.518 0,0.231 0.033,0.43 0.1,0.602 0.067,0.171 0.171,0.299 0.312,0.384 0.142,0.085 0.295,0.127 0.459,0.127 0.2,0 0.37,-0.057 0.508,-0.172 0.139,-0.116 0.233,-0.288 0.282,-0.515zm2.57 -1.754l0.358 0 0 1.561c0,0.271 -0.031,0.487 -0.092,0.647 -0.062,0.159 -0.173,0.289 -0.333,0.389 -0.16,0.1 -0.37,0.15 -0.631,0.15 -0.252,0 -0.46,-0.043 -0.62,-0.131 -0.161,-0.086 -0.276,-0.213 -0.345,-0.378 -0.069,-0.166 -0.103,-0.391 -0.103,-0.677l0 -1.561 0.357 0 0 1.559c0,0.235 0.022,0.408 0.066,0.518 0.043,0.112 0.118,0.197 0.224,0.258 0.106,0.06 0.236,0.09 0.39,0.09 0.263,0 0.45,-0.06 0.562,-0.179 0.111,-0.119 0.167,-0.348 0.167,-0.687l0 -1.559zm0.961 2.701l0 -2.701 1.952 0 0 0.319 -1.595 0 0 0.827 1.494 0 0 0.317 -1.494 0 0 0.919 1.658 0 0 0.319 -2.015 0zm2.494 0l0 -2.701 0.358 0 0 2.382 1.33 0 0 0.319 -1.688 0zm1.817 0l1.037 -2.701 0.385 0 1.106 2.701 -0.408 0 -0.315 -0.818 -1.13 0 -0.296 0.818 -0.379 0zm0.779 -1.109l0.916 0 -0.282 -0.748c-0.086,-0.227 -0.15,-0.414 -0.192,-0.56 -0.034,0.173 -0.083,0.345 -0.146,0.516l-0.296 0.792zm-13.692 4.791l0.403 0.102c-0.084,0.33 -0.237,0.583 -0.456,0.757 -0.219,0.173 -0.487,0.26 -0.804,0.26 -0.328,0 -0.595,-0.067 -0.8,-0.2 -0.206,-0.134 -0.362,-0.327 -0.469,-0.58 -0.107,-0.254 -0.161,-0.526 -0.161,-0.816 0,-0.317 0.06,-0.593 0.181,-0.829 0.121,-0.236 0.294,-0.415 0.517,-0.538 0.224,-0.123 0.47,-0.184 0.738,-0.184 0.305,0 0.56,0.078 0.768,0.233 0.208,0.155 0.352,0.372 0.434,0.654l-0.397 0.093c-0.07,-0.222 -0.172,-0.382 -0.307,-0.484 -0.134,-0.101 -0.302,-0.151 -0.507,-0.151 -0.233,0 -0.428,0.056 -0.585,0.168 -0.158,0.112 -0.268,0.262 -0.331,0.452 -0.064,0.188 -0.096,0.383 -0.096,0.583 0,0.26 0.038,0.485 0.113,0.678 0.076,0.193 0.193,0.338 0.352,0.433 0.159,0.096 0.331,0.143 0.517,0.143 0.225,0 0.416,-0.065 0.573,-0.194 0.156,-0.131 0.262,-0.324 0.317,-0.58zm0.753 -0.249c0,-0.448 0.12,-0.799 0.361,-1.052 0.241,-0.254 0.552,-0.381 0.933,-0.381 0.249,0 0.474,0.06 0.674,0.179 0.2,0.119 0.353,0.285 0.458,0.499 0.105,0.212 0.157,0.454 0.157,0.724 0,0.274 -0.055,0.52 -0.165,0.735 -0.111,0.216 -0.268,0.38 -0.47,0.491 -0.203,0.112 -0.421,0.167 -0.656,0.167 -0.255,0 -0.482,-0.061 -0.682,-0.184 -0.2,-0.123 -0.352,-0.291 -0.455,-0.503 -0.103,-0.212 -0.155,-0.437 -0.155,-0.675zm0.369 0.006c0,0.326 0.087,0.582 0.262,0.769 0.176,0.188 0.395,0.281 0.659,0.281 0.269,0 0.491,-0.094 0.664,-0.283 0.174,-0.19 0.261,-0.458 0.261,-0.806 0,-0.219 -0.037,-0.411 -0.112,-0.575 -0.074,-0.164 -0.183,-0.291 -0.326,-0.382 -0.143,-0.09 -0.303,-0.135 -0.481,-0.135 -0.254,0 -0.471,0.087 -0.654,0.261 -0.182,0.174 -0.273,0.464 -0.273,0.87zm2.66 1.31l0 -2.701 0.358 0 0 2.382 1.33 0 0 0.319 -1.688 0zm2.005 -1.316c0,-0.448 0.12,-0.799 0.361,-1.052 0.241,-0.254 0.551,-0.381 0.932,-0.381 0.25,0 0.474,0.06 0.674,0.179 0.2,0.119 0.353,0.285 0.458,0.499 0.105,0.212 0.158,0.454 0.158,0.724 0,0.274 -0.055,0.52 -0.166,0.735 -0.111,0.216 -0.267,0.38 -0.47,0.491 -0.203,0.112 -0.421,0.167 -0.655,0.167 -0.255,0 -0.482,-0.061 -0.682,-0.184 -0.201,-0.123 -0.352,-0.291 -0.455,-0.503 -0.104,-0.212 -0.155,-0.437 -0.155,-0.675zm0.368 0.006c0,0.326 0.088,0.582 0.263,0.769 0.175,0.188 0.395,0.281 0.659,0.281 0.269,0 0.49,-0.094 0.664,-0.283 0.173,-0.19 0.261,-0.458 0.261,-0.806 0,-0.219 -0.038,-0.411 -0.112,-0.575 -0.075,-0.164 -0.183,-0.291 -0.326,-0.382 -0.143,-0.09 -0.304,-0.135 -0.482,-0.135 -0.253,0 -0.471,0.087 -0.653,0.261 -0.183,0.174 -0.274,0.464 -0.274,0.87zm2.664 1.31l0 -2.701 0.539 0 0.638 1.912c0.059,0.178 0.103,0.312 0.129,0.4 0.031,-0.098 0.079,-0.242 0.144,-0.433l0.647 -1.879 0.481 0 0 2.701 -0.345 0 0 -2.261 -0.784 2.261 -0.323 0 -0.781 -2.299 0 2.299 -0.345 0zm3.139 0l0 -2.701 1.014 0c0.206,0 0.372,0.028 0.496,0.082 0.126,0.055 0.223,0.139 0.294,0.253 0.07,0.113 0.106,0.232 0.106,0.356 0,0.115 -0.032,0.224 -0.095,0.326 -0.062,0.102 -0.157,0.184 -0.283,0.247 0.163,0.048 0.288,0.13 0.377,0.245 0.088,0.116 0.132,0.252 0.132,0.409 0,0.126 -0.028,0.244 -0.081,0.353 -0.053,0.109 -0.119,0.193 -0.198,0.252 -0.079,0.059 -0.177,0.103 -0.295,0.133 -0.119,0.03 -0.264,0.045 -0.436,0.045l-1.031 0zm0.358 -1.566l0.585 0c0.157,0 0.271,-0.011 0.34,-0.031 0.091,-0.027 0.159,-0.072 0.205,-0.135 0.046,-0.063 0.07,-0.141 0.07,-0.236 0,-0.089 -0.022,-0.168 -0.065,-0.236 -0.043,-0.069 -0.104,-0.115 -0.184,-0.14 -0.08,-0.026 -0.217,-0.038 -0.411,-0.038l-0.54 0 0 0.816zm0 1.247l0.673 0c0.115,0 0.196,-0.004 0.243,-0.012 0.082,-0.015 0.151,-0.04 0.206,-0.075 0.056,-0.033 0.101,-0.084 0.137,-0.149 0.035,-0.066 0.053,-0.142 0.053,-0.228 0,-0.1 -0.026,-0.188 -0.077,-0.263 -0.052,-0.074 -0.123,-0.126 -0.215,-0.156 -0.091,-0.03 -0.224,-0.045 -0.395,-0.045l-0.625 0 0 0.928zm2.235 0.319l0 -2.701 0.358 0 0 2.701 -0.358 0zm0.691 0l1.037 -2.701 0.385 0 1.106 2.701 -0.408 0 -0.315 -0.818 -1.129 0 -0.296 0.818 -0.38 0zm0.779 -1.109l0.916 0 -0.282 -0.748c-0.086,-0.227 -0.15,-0.414 -0.191,-0.56 -0.035,0.173 -0.083,0.345 -0.146,0.516l-0.297 0.792zm2.031 1.109l0 -2.701 0.366 0 1.419 2.121 0 -2.121 0.343 0 0 2.701 -0.367 0 -1.419 -2.122 0 2.122 -0.342 0zm2.432 0l1.037 -2.701 0.385 0 1.105 2.701 -0.407 0 -0.315 -0.818 -1.129 0 -0.297 0.818 -0.379 0zm0.779 -1.109l0.916 0 -0.283 -0.748c-0.085,-0.227 -0.149,-0.414 -0.191,-0.56 -0.034,0.173 -0.083,0.345 -0.146,0.516l-0.296 0.792zm-23.471 5.858l0 -2.701 0.93 0c0.21,0 0.371,0.013 0.481,0.039 0.155,0.035 0.287,0.1 0.397,0.193 0.142,0.121 0.249,0.274 0.319,0.462 0.071,0.187 0.106,0.401 0.106,0.642 0,0.205 -0.024,0.386 -0.072,0.545 -0.048,0.158 -0.109,0.29 -0.184,0.394 -0.075,0.103 -0.157,0.185 -0.246,0.244 -0.089,0.06 -0.196,0.105 -0.322,0.136 -0.127,0.031 -0.271,0.046 -0.434,0.046l-0.975 0zm0.357 -0.319l0.577 0c0.178,0 0.318,-0.016 0.419,-0.049 0.102,-0.034 0.182,-0.08 0.243,-0.141 0.084,-0.084 0.151,-0.198 0.198,-0.341 0.047,-0.144 0.071,-0.316 0.071,-0.521 0,-0.282 -0.047,-0.499 -0.139,-0.651 -0.093,-0.152 -0.206,-0.253 -0.338,-0.305 -0.096,-0.037 -0.251,-0.055 -0.463,-0.055l-0.568 0 0 2.063zm2.376 0.319l0 -2.701 1.952 0 0 0.319 -1.595 0 0 0.827 1.494 0 0 0.317 -1.494 0 0 0.919 1.658 0 0 0.319 -2.015 0zm3.795 0l0 -3.043 0.403 0 0 3.043 -0.403 0zm1.072 0l0 -2.701 0.367 0 1.419 2.121 0 -2.121 0.342 0 0 2.701 -0.366 0 -1.419 -2.122 0 2.122 -0.343 0zm3.993 -1.06l0 -0.316 1.144 -0.002 0 1.002c-0.176,0.14 -0.357,0.245 -0.544,0.316 -0.186,0.071 -0.378,0.106 -0.574,0.106 -0.266,0 -0.507,-0.057 -0.724,-0.171 -0.216,-0.113 -0.38,-0.277 -0.491,-0.492 -0.11,-0.215 -0.166,-0.455 -0.166,-0.72 0,-0.263 0.056,-0.509 0.166,-0.736 0.109,-0.229 0.268,-0.398 0.474,-0.508 0.206,-0.111 0.444,-0.166 0.713,-0.166 0.195,0 0.371,0.032 0.53,0.095 0.157,0.063 0.281,0.151 0.37,0.264 0.091,0.113 0.158,0.261 0.206,0.442l-0.323 0.089c-0.041,-0.138 -0.091,-0.246 -0.151,-0.324 -0.06,-0.079 -0.147,-0.142 -0.259,-0.189 -0.111,-0.047 -0.235,-0.071 -0.371,-0.071 -0.164,0 -0.305,0.025 -0.424,0.075 -0.12,0.049 -0.215,0.115 -0.289,0.196 -0.073,0.081 -0.129,0.17 -0.17,0.267 -0.069,0.167 -0.103,0.348 -0.103,0.543 0,0.241 0.041,0.442 0.124,0.605 0.083,0.162 0.204,0.282 0.363,0.361 0.158,0.078 0.326,0.118 0.504,0.118 0.155,0 0.306,-0.03 0.453,-0.09 0.148,-0.059 0.259,-0.122 0.336,-0.19l0 -0.504 -0.794 0zm1.678 1.06l0 -2.701 1.953 0 0 0.319 -1.595 0 0 0.827 1.494 0 0 0.317 -1.494 0 0 0.919 1.658 0 0 0.319 -2.016 0zm2.506 0l0 -2.701 0.366 0 1.419 2.121 0 -2.121 0.343 0 0 2.701 -0.367 0 -1.418 -2.122 0 2.122 -0.343 0zm2.789 0l0 -2.701 0.358 0 0 2.701 -0.358 0zm0.995 0l0 -2.701 1.953 0 0 0.319 -1.595 0 0 0.827 1.494 0 0 0.317 -1.494 0 0 0.919 1.658 0 0 0.319 -2.016 0zm2.515 0l0 -2.701 1.197 0c0.241,0 0.424,0.025 0.549,0.073 0.125,0.049 0.226,0.134 0.301,0.257 0.075,0.123 0.112,0.259 0.112,0.407 0,0.192 -0.062,0.353 -0.186,0.484 -0.124,0.132 -0.316,0.215 -0.575,0.251 0.095,0.045 0.167,0.09 0.216,0.135 0.104,0.095 0.203,0.216 0.297,0.359l0.469 0.735 -0.449 0 -0.357 -0.562c-0.105,-0.162 -0.191,-0.286 -0.259,-0.372 -0.067,-0.086 -0.128,-0.146 -0.181,-0.18 -0.054,-0.035 -0.108,-0.059 -0.163,-0.073 -0.041,-0.008 -0.107,-0.012 -0.199,-0.012l-0.415 0 0 1.199 -0.357 0zm0.357 -1.509l0.769 0c0.163,0 0.291,-0.017 0.383,-0.051 0.092,-0.033 0.162,-0.088 0.21,-0.162 0.048,-0.074 0.071,-0.154 0.071,-0.242 0,-0.128 -0.045,-0.232 -0.139,-0.315 -0.092,-0.082 -0.239,-0.123 -0.439,-0.123l-0.855 0 0 0.893zm2.423 1.509l0 -2.701 0.358 0 0 2.701 -0.358 0zm-0.092 -2.867l0.245 -0.516 0.435 0 -0.405 0.516 -0.275 0zm0.783 2.867l1.038 -2.701 0.384 0 1.106 2.701 -0.408 0 -0.315 -0.818 -1.129 0 -0.296 0.818 -0.38 0zm0.779 -1.109l0.916 0 -0.282 -0.748c-0.086,-0.227 -0.15,-0.414 -0.191,-0.56 -0.035,0.173 -0.083,0.345 -0.146,0.516l-0.297 0.792zm-26.494 4.994l0.363 -0.049c0.009,0.232 0.053,0.392 0.13,0.477 0.079,0.086 0.185,0.129 0.322,0.129 0.101,0 0.189,-0.023 0.261,-0.07 0.074,-0.046 0.125,-0.109 0.152,-0.188 0.028,-0.08 0.042,-0.207 0.042,-0.381l0 -2.097 0.403 0 0 2.074c0,0.254 -0.031,0.452 -0.093,0.592 -0.061,0.139 -0.159,0.245 -0.292,0.319 -0.134,0.073 -0.291,0.11 -0.471,0.11 -0.267,0 -0.471,-0.077 -0.613,-0.231 -0.142,-0.153 -0.21,-0.381 -0.204,-0.685zm4.066 -1.837l0.358 0 0 1.561c0,0.271 -0.031,0.487 -0.093,0.646 -0.061,0.16 -0.172,0.29 -0.333,0.39 -0.16,0.1 -0.37,0.15 -0.63,0.15 -0.253,0 -0.46,-0.044 -0.621,-0.131 -0.161,-0.087 -0.276,-0.213 -0.344,-0.378 -0.07,-0.166 -0.104,-0.391 -0.104,-0.677l0 -1.561 0.358 0 0 1.559c0,0.235 0.022,0.408 0.065,0.518 0.043,0.111 0.119,0.197 0.224,0.257 0.107,0.061 0.237,0.091 0.39,0.091 0.263,0 0.451,-0.06 0.563,-0.179 0.111,-0.119 0.167,-0.348 0.167,-0.687l0 -1.559zm0.938 2.701l0 -2.701 0.357 0 0 2.382 1.33 0 0 0.319 -1.687 0zm2.174 0l0 -2.701 0.357 0 0 2.701 -0.357 0zm0.879 -1.316c0,-0.448 0.12,-0.799 0.361,-1.052 0.24,-0.254 0.551,-0.381 0.932,-0.381 0.249,0 0.474,0.06 0.674,0.179 0.2,0.119 0.353,0.285 0.458,0.499 0.105,0.212 0.158,0.454 0.158,0.724 0,0.274 -0.055,0.52 -0.166,0.735 -0.111,0.216 -0.267,0.38 -0.47,0.491 -0.203,0.112 -0.421,0.167 -0.656,0.167 -0.254,0 -0.481,-0.061 -0.681,-0.184 -0.201,-0.123 -0.353,-0.291 -0.456,-0.503 -0.103,-0.212 -0.154,-0.437 -0.154,-0.675zm0.368 0.006c0,0.326 0.087,0.582 0.262,0.769 0.176,0.188 0.395,0.281 0.659,0.281 0.27,0 0.491,-0.094 0.664,-0.283 0.174,-0.19 0.261,-0.458 0.261,-0.806 0,-0.219 -0.037,-0.411 -0.111,-0.575 -0.075,-0.165 -0.183,-0.292 -0.326,-0.382 -0.144,-0.09 -0.304,-0.135 -0.482,-0.135 -0.253,0 -0.471,0.086 -0.653,0.261 -0.183,0.173 -0.274,0.464 -0.274,0.87zm5.317 0.116l0 -0.356 1.289 -0.002 0 1.128c-0.198,0.158 -0.402,0.277 -0.612,0.357 -0.21,0.079 -0.427,0.119 -0.648,0.119 -0.299,0 -0.571,-0.064 -0.814,-0.192 -0.245,-0.128 -0.429,-0.313 -0.554,-0.555 -0.125,-0.242 -0.187,-0.513 -0.187,-0.812 0,-0.296 0.062,-0.572 0.187,-0.829 0.123,-0.257 0.302,-0.448 0.534,-0.572 0.232,-0.124 0.5,-0.187 0.803,-0.187 0.22,0 0.419,0.036 0.597,0.107 0.178,0.071 0.317,0.171 0.418,0.298 0.101,0.127 0.178,0.293 0.231,0.498l-0.364 0.1c-0.046,-0.155 -0.102,-0.277 -0.17,-0.366 -0.068,-0.088 -0.165,-0.159 -0.291,-0.212 -0.125,-0.054 -0.266,-0.08 -0.419,-0.08 -0.184,0 -0.343,0.028 -0.477,0.084 -0.135,0.056 -0.242,0.13 -0.326,0.221 -0.081,0.092 -0.145,0.191 -0.191,0.301 -0.078,0.188 -0.117,0.392 -0.117,0.612 0,0.272 0.047,0.498 0.141,0.681 0.093,0.183 0.229,0.318 0.408,0.407 0.178,0.088 0.368,0.133 0.568,0.133 0.175,0 0.345,-0.034 0.511,-0.101 0.166,-0.067 0.292,-0.138 0.377,-0.215l0 -0.567 -0.894 0zm1.549 1.194l1.038 -2.701 0.385 0 1.105 2.701 -0.407 0 -0.315 -0.818 -1.13 0 -0.296 0.818 -0.38 0zm0.779 -1.109l0.917 0 -0.283 -0.748c-0.086,-0.227 -0.15,-0.414 -0.191,-0.56 -0.035,0.173 -0.083,0.345 -0.146,0.516l-0.297 0.792zm2.04 1.109l0 -2.701 1.198 0c0.24,0 0.424,0.024 0.549,0.073 0.125,0.049 0.225,0.134 0.3,0.257 0.075,0.123 0.112,0.259 0.112,0.407 0,0.192 -0.062,0.353 -0.186,0.484 -0.124,0.132 -0.316,0.215 -0.575,0.251 0.095,0.045 0.167,0.09 0.216,0.135 0.104,0.095 0.203,0.216 0.297,0.359l0.469 0.735 -0.449 0 -0.357 -0.562c-0.105,-0.162 -0.191,-0.286 -0.259,-0.372 -0.067,-0.086 -0.128,-0.146 -0.181,-0.18 -0.053,-0.035 -0.107,-0.059 -0.163,-0.073 -0.041,-0.008 -0.107,-0.012 -0.199,-0.012l-0.415 0 0 1.199 -0.357 0zm0.357 -1.509l0.769 0c0.163,0 0.291,-0.017 0.383,-0.051 0.092,-0.033 0.162,-0.088 0.21,-0.162 0.048,-0.074 0.072,-0.154 0.072,-0.242 0,-0.128 -0.046,-0.232 -0.139,-0.315 -0.093,-0.082 -0.239,-0.123 -0.44,-0.123l-0.855 0 0 0.893zm2.066 1.509l1.037 -2.701 0.385 0 1.106 2.701 -0.408 0 -0.315 -0.818 -1.129 0 -0.296 0.818 -0.38 0zm0.779 -1.109l0.916 0 -0.282 -0.748c-0.086,-0.227 -0.15,-0.414 -0.191,-0.56 -0.035,0.173 -0.083,0.345 -0.146,0.516l-0.297 0.792zm2.526 1.109l-1.046 -2.701 0.387 0 0.702 1.962c0.056,0.157 0.104,0.305 0.141,0.442 0.042,-0.147 0.091,-0.294 0.146,-0.442l0.73 -1.962 0.364 0 -1.057 2.701 -0.367 0zm1.806 0l0 -2.701 0.357 0 0 2.701 -0.357 0zm1.675 0l0 -2.382 -0.89 0 0 -0.319 2.141 0 0 0.319 -0.894 0 0 2.382 -0.357 0zm1.441 -1.316c0,-0.448 0.12,-0.799 0.36,-1.052 0.241,-0.254 0.552,-0.381 0.933,-0.381 0.249,0 0.474,0.06 0.674,0.179 0.2,0.119 0.353,0.285 0.458,0.499 0.105,0.212 0.157,0.454 0.157,0.724 0,0.274 -0.055,0.52 -0.165,0.735 -0.111,0.216 -0.267,0.38 -0.47,0.491 -0.203,0.112 -0.421,0.167 -0.656,0.167 -0.254,0 -0.482,-0.061 -0.682,-0.184 -0.2,-0.123 -0.352,-0.291 -0.455,-0.503 -0.103,-0.212 -0.154,-0.437 -0.154,-0.675zm0.368 0.006c0,0.326 0.088,0.582 0.262,0.769 0.176,0.188 0.395,0.281 0.659,0.281 0.269,0 0.491,-0.094 0.664,-0.283 0.174,-0.19 0.261,-0.458 0.261,-0.806 0,-0.219 -0.037,-0.411 -0.111,-0.575 -0.075,-0.165 -0.184,-0.292 -0.326,-0.382 -0.144,-0.09 -0.304,-0.135 -0.482,-0.135 -0.253,0 -0.471,0.086 -0.653,0.261 -0.183,0.173 -0.274,0.464 -0.274,0.87z"/>
    <g>
     <g>
      <g>
       <path class="fil2" d="M42.856 22.679c-0.043,0.044 -0.114,0.044 -0.157,0.001 -0.044,-0.044 -0.044,-0.115 -0.001,-0.158l0.158 0.157zm10.676 -10.727l-10.676 10.727 -0.158 -0.157 10.675 -10.727 0.159 0.157zm-0.159 -0.157c0.044,-0.044 0.114,-0.044 0.158,-0.001 0.044,0.043 0.044,0.114 0.001,0.158l-0.159 -0.157z"/>
      </g>
      <g>
       <path class="fil2" d="M50.007 22.622c-0.012,0.06 -0.071,0.1 -0.131,0.088 -0.06,-0.012 -0.099,-0.071 -0.087,-0.131l0.218 0.043zm3.55 -17.901l-3.55 17.901 -0.218 -0.043 3.549 -17.901 0.219 0.043zm-0.219 -0.043c0.012,-0.061 0.071,-0.1 0.131,-0.088 0.061,0.012 0.1,0.071 0.088,0.131l-0.219 -0.043z"/>
      </g>
      <g>
       <path class="fil2" d="M46.476 22.591c-0.027,0.055 -0.094,0.077 -0.149,0.05 -0.055,-0.027 -0.078,-0.094 -0.051,-0.149l0.2 0.099zm7.076 -14.298l-7.076 14.298 -0.2 -0.099 7.076 -14.298 0.2 0.099zm-0.2 -0.099c0.028,-0.055 0.095,-0.077 0.15,-0.05 0.055,0.027 0.077,0.094 0.05,0.149l-0.2 -0.099z"/>
      </g>
      <g>
       <path class="fil2" d="M39.235 22.7c-0.055,0.027 -0.123,0.005 -0.15,-0.049 -0.028,-0.055 -0.005,-0.123 0.049,-0.15l0.101 0.199zm14.267 -7.176l-14.267 7.176 -0.101 -0.199 14.268 -7.176 0.1 0.199zm-0.1 -0.199c0.055,-0.027 0.123,-0.005 0.15,0.049 0.027,0.055 0.005,0.123 -0.05,0.15l-0.1 -0.199z"/>
      </g>
      <g>
       <path class="fil2" d="M35.648 22.682c-0.06,0.012 -0.119,-0.027 -0.131,-0.087 -0.012,-0.061 0.027,-0.12 0.087,-0.132l0.044 0.219zm17.826 -3.549l-17.826 3.549 -0.044 -0.219 17.827 -3.549 0.043 0.219zm-0.043 -0.219c0.06,-0.012 0.119,0.028 0.131,0.088 0.012,0.06 -0.028,0.119 -0.088,0.131l-0.043 -0.219z"/>
      </g>
     </g>
     <g>
      <path class="fil2" d="M42.777 22.712c-0.061,0 -0.111,-0.05 -0.111,-0.112 0,-0.061 0.05,-0.111 0.111,-0.111l0 0.223zm1.763 0l-1.763 0 0 -0.223 1.763 0 0.091 0.176 -0.091 0.047zm0 -0.223c0.062,0 0.112,0.05 0.112,0.111 0,0.062 -0.05,0.112 -0.112,0.112l0 -0.223zm9.003 -12.337l-8.912 12.513 -0.181 -0.129 8.911 -12.513 0.203 0.065 -0.021 0.064zm-0.182 -0.129c0.036,-0.05 0.106,-0.062 0.156,-0.026 0.05,0.035 0.062,0.105 0.026,0.155l-0.182 -0.129zm0.203 -1.779l0 1.844 -0.223 0 0 -1.844 0.223 0zm-0.223 0c0,-0.062 0.05,-0.112 0.111,-0.112 0.062,0 0.112,0.05 0.112,0.112l-0.223 0z"/>
     </g>
     <g>
      <path class="fil2" d="M53.341 19.024c0,-0.062 0.05,-0.112 0.111,-0.112 0.062,0 0.112,0.05 0.112,0.112l-0.223 0zm0 1.79l0 -1.79 0.223 0 0 1.79 -0.1 0.111 -0.123 -0.111zm0.223 0c0,0.062 -0.05,0.112 -0.112,0.112 -0.061,0 -0.111,-0.05 -0.111,-0.112l0.223 0zm-17.949 1.675l17.826 -1.786 0.023 0.222 -17.827 1.786 -0.011 0.001 -0.011 -0.223zm0.022 0.222c-0.061,0.007 -0.116,-0.038 -0.122,-0.099 -0.006,-0.062 0.039,-0.116 0.1,-0.123l0.022 0.222zm1.817 0.001l-1.828 0 0 -0.223 1.828 0 0.036 0.217 -0.036 0.006zm0 -0.223c0.062,0 0.112,0.05 0.112,0.111 0,0.062 -0.05,0.112 -0.112,0.112l0 -0.223zm16.034 -5.169l-15.998 5.386 -0.071 -0.211 15.998 -5.386 0.147 0.105 -0.076 0.106zm-0.071 -0.211c0.058,-0.02 0.122,0.012 0.141,0.07 0.02,0.058 -0.012,0.121 -0.07,0.141l-0.071 -0.211zm0.147 -1.684l0 1.789 -0.223 0 0 -1.789 0.223 0zm-0.223 0c0,-0.062 0.05,-0.112 0.111,-0.112 0.062,0 0.112,0.05 0.112,0.112l-0.223 0z"/>
     </g>
     <g>
      <path class="fil2" d="M53.341 11.873c0,-0.061 0.05,-0.112 0.111,-0.112 0.062,0 0.112,0.051 0.112,0.112l-0.223 0zm0 1.76l0 -1.76 0.223 0 0 1.76 -0.047 0.09 -0.176 -0.09zm0.223 0c0,0.061 -0.05,0.111 -0.112,0.111 -0.061,0 -0.111,-0.05 -0.111,-0.111l0.223 0zm-12.67 8.877l12.493 -8.968 0.13 0.181 -12.494 8.968 -0.064 0.021 -0.065 -0.202zm0.129 0.181c-0.049,0.036 -0.119,0.024 -0.155,-0.026 -0.036,-0.049 -0.024,-0.119 0.026,-0.155l0.129 0.181zm-1.839 -0.202l1.775 0 0 0.223 -1.775 0 0 -0.223zm0 0.223c-0.061,0 -0.111,-0.05 -0.111,-0.112 0,-0.061 0.05,-0.111 0.111,-0.111l0 0.223z"/>
     </g>
     <g>
      <path class="fil2" d="M54.549 20.833c0,0.061 -0.045,0.111 -0.101,0.111 -0.055,0 -0.1,-0.05 -0.1,-0.111l0.201 0zm0 -17.991l0 17.991 -0.201 0 0 -17.991 0.201 0zm-0.201 0c0,-0.061 0.045,-0.112 0.1,-0.112 0.056,0 0.101,0.051 0.101,0.112l-0.201 0z"/>
     </g>
     <g>
      <path class="fil2" d="M55.428 23.316c0.061,0 0.111,0.047 0.111,0.104 0,0.057 -0.05,0.104 -0.111,0.104l0 -0.208zm-21.648 0l21.648 0 0 0.208 -21.648 0 0 -0.208zm0 0.208c-0.062,0 -0.112,-0.047 -0.112,-0.104 0,-0.057 0.05,-0.104 0.112,-0.104l0 0.208z"/>
     </g>
     <g>
      <path class="fil2" d="M49.898 22.712c-0.061,0 -0.112,-0.05 -0.112,-0.112 0,-0.061 0.051,-0.111 0.112,-0.111l0 0.223zm1.797 0l-1.797 0 0 -0.223 1.797 0 0.111 0.122 -0.111 0.101zm0 -0.223c0.061,0 0.111,0.05 0.111,0.111 0,0.062 -0.05,0.112 -0.111,0.112l0 -0.223zm1.868 -17.806l-1.757 17.928 -0.222 -0.021 1.757 -17.929 0.223 0.011 -0.001 0.011zm-0.222 -0.022c0.006,-0.061 0.061,-0.106 0.122,-0.1 0.062,0.006 0.106,0.061 0.1,0.122l-0.222 -0.022zm0 1.86l0 -1.849 0.223 0 0 1.849 -0.006 0.035 -0.217 -0.035zm0.223 0c0,0.062 -0.05,0.112 -0.112,0.112 -0.061,0 -0.111,-0.05 -0.111,-0.112l0.223 0zm-5.517 16.044l5.299 -16.079 0.212 0.07 -5.299 16.079 -0.106 0.077 -0.106 -0.147zm0.212 0.07c-0.019,0.059 -0.083,0.091 -0.141,0.071 -0.059,-0.019 -0.09,-0.082 -0.071,-0.141l0.212 0.07zm-1.887 -0.146l1.781 0 0 0.223 -1.781 0 0 -0.223zm0 0.223c-0.061,0 -0.111,-0.05 -0.111,-0.112 0,-0.061 0.05,-0.111 0.111,-0.111l0 0.223z"/>
     </g>
    </g>
    <path class="fil2" d="M50.559 28.609l0.346 0 0 1.507c0,0.263 -0.03,0.471 -0.088,0.625 -0.06,0.154 -0.167,0.28 -0.321,0.376 -0.155,0.097 -0.357,0.146 -0.609,0.146 -0.243,0 -0.443,-0.042 -0.598,-0.127 -0.156,-0.084 -0.267,-0.206 -0.333,-0.365 -0.066,-0.161 -0.099,-0.378 -0.099,-0.655l0 -1.507 0.346 0 0 1.506c0,0.227 0.021,0.395 0.063,0.502 0.042,0.107 0.114,0.19 0.216,0.248 0.103,0.059 0.228,0.088 0.375,0.088 0.253,0 0.433,-0.058 0.541,-0.173 0.108,-0.116 0.161,-0.337 0.161,-0.665l0 -1.506zm0.919 2.61l0 -2.61 0.355 0 1.37 2.048 0 -2.048 0.331 0 0 2.61 -0.355 0 -1.369 -2.049 0 2.049 -0.332 0zm2.695 0l0 -2.61 0.346 0 0 2.61 -0.346 0zm1.698 0l-1.009 -2.61 0.374 0 0.679 1.897c0.054,0.151 0.1,0.294 0.136,0.427 0.041,-0.143 0.087,-0.285 0.141,-0.427l0.703 -1.897 0.353 0 -1.018 2.61 -0.359 0zm1.695 0l0 -2.61 1.885 0 0 0.306 -1.539 0 0 0.802 1.44 0 0 0.306 -1.44 0 0 0.89 1.6 0 0 0.306 -1.946 0zm2.431 0l0 -2.61 1.157 0c0.233,0 0.409,0.023 0.53,0.07 0.121,0.047 0.218,0.129 0.29,0.248 0.072,0.119 0.108,0.25 0.108,0.393 0,0.186 -0.06,0.342 -0.179,0.469 -0.12,0.126 -0.305,0.207 -0.555,0.241 0.091,0.044 0.161,0.088 0.208,0.13 0.101,0.093 0.196,0.209 0.286,0.348l0.451 0.711 -0.431 0 -0.345 -0.543c-0.1,-0.158 -0.184,-0.278 -0.249,-0.361 -0.065,-0.083 -0.124,-0.141 -0.175,-0.174 -0.051,-0.033 -0.104,-0.056 -0.158,-0.069 -0.038,-0.008 -0.102,-0.013 -0.192,-0.013l-0.4 0 0 1.16 -0.346 0zm0.346 -1.458l0.742 0c0.158,0 0.281,-0.017 0.369,-0.05 0.089,-0.032 0.156,-0.084 0.202,-0.156 0.046,-0.072 0.069,-0.15 0.069,-0.234 0,-0.123 -0.044,-0.226 -0.133,-0.305 -0.09,-0.08 -0.231,-0.119 -0.423,-0.119l-0.826 0 0 0.864zm2.166 0.619l0.325 -0.029c0.015,0.131 0.051,0.239 0.108,0.323 0.056,0.084 0.143,0.152 0.262,0.204 0.118,0.052 0.252,0.078 0.4,0.078 0.132,0 0.248,-0.019 0.349,-0.059 0.101,-0.039 0.176,-0.093 0.225,-0.162 0.049,-0.069 0.074,-0.143 0.074,-0.224 0,-0.081 -0.024,-0.152 -0.071,-0.213 -0.047,-0.061 -0.126,-0.112 -0.235,-0.154 -0.07,-0.027 -0.225,-0.069 -0.465,-0.127 -0.24,-0.058 -0.408,-0.112 -0.504,-0.163 -0.124,-0.065 -0.217,-0.147 -0.277,-0.244 -0.062,-0.096 -0.092,-0.205 -0.092,-0.325 0,-0.132 0.038,-0.255 0.112,-0.369 0.075,-0.115 0.184,-0.202 0.328,-0.262 0.143,-0.059 0.303,-0.089 0.479,-0.089 0.193,0 0.363,0.031 0.511,0.094 0.148,0.062 0.261,0.153 0.341,0.275 0.08,0.121 0.122,0.258 0.128,0.411l-0.332 0.026c-0.017,-0.165 -0.077,-0.29 -0.18,-0.373 -0.103,-0.085 -0.254,-0.127 -0.455,-0.127 -0.209,0 -0.362,0.038 -0.457,0.115 -0.095,0.077 -0.143,0.169 -0.143,0.277 0,0.094 0.034,0.171 0.101,0.231 0.067,0.061 0.24,0.123 0.521,0.186 0.28,0.064 0.473,0.12 0.578,0.167 0.151,0.07 0.263,0.158 0.335,0.265 0.073,0.107 0.109,0.231 0.109,0.37 0,0.14 -0.04,0.27 -0.119,0.392 -0.08,0.123 -0.194,0.218 -0.342,0.286 -0.149,0.068 -0.316,0.103 -0.503,0.103 -0.236,0 -0.433,-0.035 -0.592,-0.104 -0.16,-0.068 -0.285,-0.172 -0.375,-0.31 -0.091,-0.138 -0.139,-0.294 -0.144,-0.469zm2.603 0.839l0 -2.61 0.347 0 0 2.61 -0.347 0zm0.954 0l0 -2.61 0.9 0c0.203,0 0.358,0.012 0.464,0.037 0.15,0.034 0.278,0.097 0.383,0.187 0.138,0.117 0.241,0.265 0.309,0.446 0.068,0.181 0.103,0.388 0.103,0.621 0,0.198 -0.023,0.373 -0.07,0.527 -0.046,0.153 -0.105,0.28 -0.178,0.38 -0.072,0.1 -0.151,0.179 -0.238,0.236 -0.086,0.058 -0.189,0.102 -0.311,0.131 -0.122,0.03 -0.262,0.045 -0.42,0.045l-0.942 0zm0.347 -0.306l0.556 0c0.172,0 0.307,-0.016 0.405,-0.048 0.098,-0.033 0.176,-0.077 0.234,-0.136 0.081,-0.082 0.145,-0.193 0.191,-0.331 0.045,-0.139 0.068,-0.306 0.068,-0.504 0,-0.273 -0.045,-0.483 -0.134,-0.63 -0.089,-0.147 -0.198,-0.246 -0.326,-0.296 -0.093,-0.035 -0.241,-0.053 -0.447,-0.053l-0.547 0 0 1.998zm2 0.306l1.001 -2.61 0.38 0 1.063 2.61 -0.393 0 -0.303 -0.791 -1.098 0 -0.284 0.791 -0.366 0zm0.751 -1.072l0.889 0 -0.272 -0.723c-0.082,-0.221 -0.144,-0.402 -0.187,-0.546 -0.036,0.171 -0.084,0.338 -0.144,0.503l-0.286 0.766zm1.966 1.072l0 -2.61 0.9 0c0.203,0 0.358,0.012 0.464,0.037 0.15,0.034 0.278,0.097 0.383,0.187 0.138,0.117 0.241,0.265 0.309,0.446 0.068,0.181 0.103,0.388 0.103,0.621 0,0.198 -0.023,0.373 -0.07,0.527 -0.046,0.153 -0.106,0.28 -0.178,0.38 -0.073,0.1 -0.152,0.179 -0.238,0.236 -0.086,0.058 -0.189,0.102 -0.311,0.131 -0.122,0.03 -0.262,0.045 -0.42,0.045l-0.942 0zm0.347 -0.306l0.556 0c0.172,0 0.307,-0.016 0.405,-0.048 0.098,-0.033 0.176,-0.077 0.234,-0.136 0.081,-0.082 0.145,-0.193 0.191,-0.331 0.045,-0.139 0.068,-0.306 0.068,-0.504 0,-0.273 -0.045,-0.483 -0.134,-0.63 -0.089,-0.147 -0.198,-0.246 -0.326,-0.296 -0.093,-0.035 -0.242,-0.053 -0.447,-0.053l-0.547 0 0 1.998z"/>
    <rect class="fil3" x="33.634" y="25.221" width="54.877" height="1.066"/>
   </g>
   <g>
    <path class="fil3" d="M136.734 12.236c-0.246,0.131 -0.553,0.196 -0.921,0.196 -0.475,0 -0.855,-0.153 -1.14,-0.459 -0.286,-0.305 -0.429,-0.707 -0.429,-1.203 0,-0.533 0.161,-0.964 0.483,-1.293 0.32,-0.33 0.728,-0.494 1.221,-0.494 0.317,0 0.578,0.046 0.786,0.137l0 0.417c-0.238,-0.133 -0.502,-0.2 -0.791,-0.2 -0.382,0 -0.693,0.128 -0.931,0.384 -0.239,0.256 -0.358,0.598 -0.358,1.026 0,0.407 0.111,0.731 0.334,0.971 0.223,0.242 0.515,0.363 0.877,0.363 0.334,0 0.625,-0.075 0.869,-0.224l0 0.379zm2.544 -0.956l-1.682 0c0.006,0.265 0.078,0.47 0.214,0.615 0.137,0.143 0.324,0.216 0.563,0.216 0.269,0 0.515,-0.088 0.741,-0.266l0 0.359c-0.21,0.152 -0.487,0.228 -0.831,0.228 -0.337,0 -0.602,-0.108 -0.794,-0.324 -0.193,-0.217 -0.289,-0.521 -0.289,-0.914 0,-0.371 0.106,-0.673 0.315,-0.906 0.211,-0.234 0.472,-0.35 0.784,-0.35 0.312,0 0.552,0.1 0.723,0.302 0.171,0.201 0.256,0.481 0.256,0.84l0 0.2zm-0.391 -0.323c-0.001,-0.22 -0.055,-0.392 -0.159,-0.515 -0.105,-0.122 -0.25,-0.183 -0.437,-0.183 -0.179,0 -0.332,0.064 -0.458,0.193 -0.125,0.128 -0.203,0.297 -0.232,0.505l1.286 0zm2.947 1.419l-0.382 0 0 -1.359c0,-0.506 -0.184,-0.758 -0.553,-0.758 -0.191,0 -0.349,0.071 -0.474,0.215 -0.125,0.143 -0.187,0.325 -0.187,0.543l0 1.359 -0.382 0 0 -2.383 0.382 0 0 0.396 0.009 0c0.18,-0.301 0.44,-0.451 0.782,-0.451 0.26,0 0.46,0.084 0.598,0.252 0.138,0.168 0.207,0.412 0.207,0.729l0 1.457zm1.825 -0.023c-0.09,0.049 -0.209,0.074 -0.356,0.074 -0.418,0 -0.626,-0.233 -0.626,-0.698l0 -1.41 -0.41 0 0 -0.326 0.41 0 0 -0.581 0.381 -0.124 0 0.705 0.601 0 0 0.326 -0.601 0 0 1.343c0,0.16 0.027,0.273 0.082,0.341 0.054,0.069 0.144,0.103 0.27,0.103 0.096,0 0.179,-0.026 0.249,-0.079l0 0.326zm1.752 -1.974c-0.067,-0.051 -0.163,-0.076 -0.288,-0.076 -0.164,0 -0.3,0.076 -0.409,0.23 -0.109,0.153 -0.164,0.363 -0.164,0.628l0 1.215 -0.382 0 0 -2.383 0.382 0 0 0.491 0.01 0c0.054,-0.168 0.136,-0.298 0.248,-0.392 0.112,-0.094 0.237,-0.141 0.375,-0.141 0.099,0 0.175,0.011 0.228,0.033l0 0.395zm1.41 2.053c-0.352,0 -0.633,-0.112 -0.844,-0.334 -0.209,-0.222 -0.315,-0.518 -0.315,-0.886 0,-0.4 0.11,-0.712 0.328,-0.938 0.219,-0.224 0.515,-0.336 0.887,-0.336 0.355,0 0.633,0.108 0.832,0.328 0.2,0.218 0.299,0.521 0.299,0.909 0,0.381 -0.108,0.685 -0.322,0.914 -0.215,0.228 -0.504,0.343 -0.865,0.343zm0.028 -2.173c-0.245,0 -0.439,0.083 -0.582,0.25 -0.143,0.167 -0.214,0.396 -0.214,0.69 0,0.282 0.072,0.504 0.217,0.667 0.144,0.163 0.337,0.245 0.579,0.245 0.247,0 0.437,-0.08 0.569,-0.24 0.133,-0.16 0.199,-0.387 0.199,-0.682 0,-0.297 -0.066,-0.527 -0.199,-0.688 -0.132,-0.162 -0.322,-0.242 -0.569,-0.242zm5.109 2.117l-0.382 0 0 -0.405 -0.009 0c-0.177,0.307 -0.45,0.461 -0.82,0.461 -0.298,0 -0.538,-0.107 -0.717,-0.32 -0.179,-0.213 -0.269,-0.504 -0.269,-0.872 0,-0.394 0.099,-0.709 0.298,-0.947 0.198,-0.237 0.463,-0.355 0.793,-0.355 0.327,0 0.566,0.128 0.715,0.385l0.009 0 0 -1.475 0.382 0 0 3.528zm-0.382 -1.077l0 -0.352c0,-0.192 -0.064,-0.355 -0.191,-0.488 -0.127,-0.134 -0.288,-0.2 -0.484,-0.2 -0.232,0 -0.416,0.085 -0.549,0.255 -0.134,0.171 -0.2,0.407 -0.2,0.708 0,0.275 0.064,0.491 0.192,0.651 0.128,0.158 0.3,0.238 0.515,0.238 0.213,0 0.386,-0.077 0.518,-0.231 0.133,-0.153 0.199,-0.348 0.199,-0.581zm3.069 -0.019l-1.682 0c0.006,0.265 0.078,0.47 0.214,0.615 0.137,0.143 0.324,0.216 0.563,0.216 0.269,0 0.515,-0.088 0.741,-0.266l0 0.359c-0.21,0.152 -0.487,0.228 -0.831,0.228 -0.337,0 -0.601,-0.108 -0.794,-0.324 -0.193,-0.217 -0.289,-0.521 -0.289,-0.914 0,-0.371 0.106,-0.673 0.316,-0.906 0.21,-0.234 0.471,-0.35 0.783,-0.35 0.312,0 0.553,0.1 0.723,0.302 0.171,0.201 0.256,0.481 0.256,0.84l0 0.2zm-0.391 -0.323c-0.001,-0.22 -0.054,-0.392 -0.158,-0.515 -0.105,-0.122 -0.251,-0.183 -0.437,-0.183 -0.18,0 -0.333,0.064 -0.459,0.193 -0.125,0.128 -0.203,0.297 -0.233,0.505l1.287 0z"/>
    <path class="fil3" d="M137.469 19.821l-3.18 0 0 -5.302 3.058 0 0 0.972 -1.863 0 0 1.18 1.734 0 0 0.968 -1.734 0 0 1.213 1.985 0 0 0.969zm0.487 -0.1l0 -0.946c0.193,0.116 0.385,0.202 0.576,0.258 0.191,0.057 0.371,0.085 0.541,0.085 0.207,0 0.371,-0.028 0.49,-0.085 0.12,-0.056 0.179,-0.142 0.179,-0.258 0,-0.075 -0.026,-0.137 -0.081,-0.186 -0.054,-0.049 -0.123,-0.092 -0.209,-0.129 -0.085,-0.036 -0.178,-0.07 -0.279,-0.099 -0.101,-0.031 -0.198,-0.063 -0.292,-0.1 -0.15,-0.057 -0.282,-0.119 -0.397,-0.183 -0.115,-0.066 -0.211,-0.141 -0.289,-0.228 -0.077,-0.086 -0.137,-0.186 -0.177,-0.3 -0.04,-0.113 -0.062,-0.247 -0.062,-0.402 0,-0.212 0.047,-0.395 0.139,-0.548 0.092,-0.153 0.216,-0.278 0.37,-0.375 0.154,-0.097 0.331,-0.169 0.529,-0.214 0.198,-0.046 0.405,-0.068 0.619,-0.068 0.168,0 0.338,0.012 0.51,0.039 0.173,0.025 0.344,0.063 0.511,0.112l0 0.902c-0.148,-0.087 -0.306,-0.151 -0.475,-0.194 -0.17,-0.043 -0.335,-0.064 -0.498,-0.064 -0.077,0 -0.149,0.006 -0.215,0.02 -0.069,0.013 -0.129,0.033 -0.181,0.059 -0.052,0.025 -0.092,0.058 -0.121,0.1 -0.03,0.04 -0.044,0.087 -0.044,0.139 0,0.068 0.021,0.127 0.065,0.176 0.046,0.05 0.103,0.092 0.175,0.128 0.071,0.037 0.151,0.068 0.238,0.096 0.087,0.029 0.174,0.058 0.261,0.087 0.156,0.054 0.296,0.114 0.422,0.178 0.125,0.064 0.233,0.139 0.323,0.226 0.09,0.085 0.159,0.186 0.207,0.303 0.048,0.116 0.072,0.253 0.072,0.414 0,0.224 -0.048,0.416 -0.147,0.575 -0.097,0.159 -0.225,0.288 -0.387,0.388 -0.161,0.099 -0.348,0.173 -0.559,0.218 -0.211,0.045 -0.429,0.068 -0.656,0.068 -0.417,0 -0.802,-0.064 -1.158,-0.192zm5.869 0.056c-0.173,0.091 -0.433,0.136 -0.78,0.136 -0.823,0 -1.235,-0.428 -1.235,-1.282l0 -1.734 -0.614 0 0 -0.862 0.614 0 0 -0.817 1.164 -0.333 0 1.15 0.851 0 0 0.862 -0.851 0 0 1.531c0,0.393 0.157,0.59 0.47,0.59 0.123,0 0.251,-0.035 0.381,-0.107l0 0.866zm4.256 0.044l-1.165 0 0 -0.577 -0.018 0c-0.289,0.446 -0.674,0.669 -1.157,0.669 -0.878,0 -1.316,-0.531 -1.316,-1.594l0 -2.284 1.165 0 0 2.18c0,0.536 0.212,0.803 0.635,0.803 0.21,0 0.377,-0.073 0.503,-0.219 0.126,-0.147 0.188,-0.346 0.188,-0.597l0 -2.167 1.165 0 0 3.786zm4.688 0l-1.168 0 0 -0.521 -0.014 0c-0.266,0.409 -0.658,0.613 -1.173,0.613 -0.473,0 -0.854,-0.167 -1.142,-0.501 -0.289,-0.333 -0.433,-0.8 -0.433,-1.4 0,-0.626 0.159,-1.127 0.477,-1.504 0.318,-0.377 0.735,-0.565 1.25,-0.565 0.488,0 0.828,0.174 1.021,0.525l0.014 0 0 -2.252 1.168 0 0 5.605zm-1.145 -1.841l0 -0.286c0,-0.246 -0.072,-0.45 -0.215,-0.613 -0.143,-0.163 -0.329,-0.244 -0.558,-0.244 -0.259,0 -0.462,0.101 -0.607,0.305 -0.145,0.204 -0.218,0.483 -0.218,0.838 0,0.333 0.07,0.589 0.21,0.768 0.142,0.181 0.336,0.27 0.585,0.27 0.237,0 0.43,-0.094 0.579,-0.284 0.149,-0.19 0.224,-0.441 0.224,-0.754zm2.721 -2.545c-0.197,0 -0.359,-0.058 -0.484,-0.175 -0.126,-0.118 -0.189,-0.26 -0.189,-0.431 0,-0.175 0.063,-0.318 0.189,-0.429 0.125,-0.111 0.287,-0.166 0.484,-0.166 0.2,0 0.362,0.055 0.487,0.166 0.123,0.111 0.187,0.254 0.187,0.429 0,0.177 -0.064,0.323 -0.187,0.437 -0.125,0.112 -0.287,0.169 -0.487,0.169zm0.576 4.386l-1.167 0 0 -3.786 1.167 0 0 3.786zm2.788 0.092c-0.631,0 -1.127,-0.177 -1.488,-0.53 -0.361,-0.353 -0.541,-0.834 -0.541,-1.44 0,-0.626 0.187,-1.117 0.561,-1.47 0.375,-0.354 0.883,-0.53 1.52,-0.53 0.628,0 1.122,0.176 1.479,0.53 0.357,0.353 0.537,0.821 0.537,1.403 0,0.629 -0.185,1.126 -0.553,1.49 -0.369,0.365 -0.874,0.547 -1.515,0.547zm0.031 -3.076c-0.277,0 -0.491,0.095 -0.644,0.284 -0.153,0.191 -0.23,0.46 -0.23,0.807 0,0.727 0.294,1.09 0.881,1.09 0.559,0 0.839,-0.373 0.839,-1.119 0,-0.708 -0.282,-1.062 -0.846,-1.062zm2.546 2.884l0 -0.946c0.194,0.116 0.385,0.202 0.576,0.258 0.19,0.057 0.371,0.085 0.541,0.085 0.207,0 0.371,-0.028 0.49,-0.085 0.12,-0.056 0.179,-0.142 0.179,-0.258 0,-0.075 -0.026,-0.137 -0.08,-0.186 -0.055,-0.049 -0.124,-0.092 -0.21,-0.129 -0.084,-0.036 -0.178,-0.07 -0.279,-0.099 -0.101,-0.031 -0.198,-0.063 -0.291,-0.1 -0.151,-0.057 -0.283,-0.119 -0.398,-0.183 -0.115,-0.066 -0.211,-0.141 -0.289,-0.228 -0.077,-0.086 -0.136,-0.186 -0.177,-0.3 -0.04,-0.113 -0.062,-0.247 -0.062,-0.402 0,-0.212 0.047,-0.395 0.139,-0.548 0.092,-0.153 0.216,-0.278 0.37,-0.375 0.154,-0.097 0.331,-0.169 0.529,-0.214 0.198,-0.046 0.405,-0.068 0.619,-0.068 0.169,0 0.337,0.012 0.51,0.039 0.173,0.025 0.344,0.063 0.512,0.112l0 0.902c-0.149,-0.087 -0.307,-0.151 -0.476,-0.194 -0.169,-0.043 -0.335,-0.064 -0.497,-0.064 -0.077,0 -0.149,0.006 -0.216,0.02 -0.068,0.013 -0.129,0.033 -0.181,0.059 -0.052,0.025 -0.092,0.058 -0.121,0.1 -0.03,0.04 -0.044,0.087 -0.044,0.139 0,0.068 0.021,0.127 0.066,0.176 0.045,0.05 0.102,0.092 0.174,0.128 0.072,0.037 0.151,0.068 0.238,0.096 0.087,0.029 0.174,0.058 0.261,0.087 0.156,0.054 0.296,0.114 0.422,0.178 0.125,0.064 0.234,0.139 0.323,0.226 0.09,0.085 0.159,0.186 0.207,0.303 0.048,0.116 0.072,0.253 0.072,0.414 0,0.224 -0.048,0.416 -0.146,0.575 -0.097,0.159 -0.226,0.288 -0.388,0.388 -0.161,0.099 -0.348,0.173 -0.559,0.218 -0.211,0.045 -0.429,0.068 -0.656,0.068 -0.417,0 -0.802,-0.064 -1.158,-0.192z"/>
    <path class="fil3" d="M138.856 26.908l-1.198 0 0 -2.159 -2.196 0 0 2.159 -1.195 0 0 -5.302 1.195 0 0 2.116 2.196 0 0 -2.116 1.198 0 0 5.302zm1.69 -4.385c-0.197,0 -0.359,-0.059 -0.484,-0.176 -0.126,-0.117 -0.189,-0.26 -0.189,-0.43 0,-0.176 0.063,-0.318 0.189,-0.429 0.125,-0.111 0.287,-0.167 0.484,-0.167 0.2,0 0.362,0.056 0.487,0.167 0.123,0.111 0.186,0.253 0.186,0.429 0,0.177 -0.063,0.323 -0.186,0.436 -0.125,0.113 -0.287,0.17 -0.487,0.17zm0.576 4.385l-1.167 0 0 -3.786 1.167 0 0 3.786zm4.689 0l-1.169 0 0 -0.521 -0.014 0c-0.266,0.409 -0.657,0.614 -1.172,0.614 -0.473,0 -0.854,-0.167 -1.142,-0.502 -0.289,-0.333 -0.433,-0.8 -0.433,-1.399 0,-0.626 0.159,-1.127 0.477,-1.505 0.318,-0.377 0.734,-0.565 1.249,-0.565 0.489,0 0.828,0.174 1.021,0.525l0.014 0 0 -2.252 1.169 0 0 5.605zm-1.146 -1.841l0 -0.285c0,-0.246 -0.072,-0.451 -0.215,-0.614 -0.142,-0.162 -0.329,-0.243 -0.558,-0.243 -0.258,0 -0.461,0.101 -0.607,0.304 -0.145,0.205 -0.218,0.483 -0.218,0.838 0,0.333 0.071,0.589 0.211,0.769 0.141,0.18 0.336,0.27 0.584,0.27 0.237,0 0.43,-0.095 0.58,-0.284 0.148,-0.191 0.223,-0.442 0.223,-0.755zm4.6 -0.891c-0.141,-0.077 -0.305,-0.115 -0.492,-0.115 -0.254,0 -0.452,0.093 -0.596,0.279 -0.142,0.187 -0.214,0.439 -0.214,0.76l0 1.808 -1.168 0 0 -3.786 1.168 0 0 0.703 0.015 0c0.185,-0.513 0.517,-0.77 0.998,-0.77 0.124,0 0.22,0.015 0.289,0.044l0 1.077zm3.694 2.732l-1.105 0 0 -0.544 -0.016 0c-0.253,0.425 -0.629,0.637 -1.128,0.637 -0.367,0 -0.656,-0.104 -0.867,-0.312 -0.21,-0.208 -0.315,-0.487 -0.315,-0.834 0,-0.735 0.435,-1.159 1.305,-1.273l1.028 -0.136c0,-0.414 -0.224,-0.621 -0.674,-0.621 -0.45,0 -0.879,0.134 -1.286,0.403l0 -0.88c0.163,-0.085 0.385,-0.158 0.668,-0.222 0.281,-0.065 0.539,-0.096 0.771,-0.096 1.079,0 1.619,0.539 1.619,1.615l0 2.263zm-1.098 -1.538l0 -0.255 -0.687 0.088c-0.38,0.05 -0.57,0.221 -0.57,0.515 0,0.133 0.046,0.243 0.138,0.327 0.093,0.085 0.218,0.128 0.376,0.128 0.219,0 0.397,-0.076 0.536,-0.228 0.138,-0.151 0.207,-0.343 0.207,-0.575zm0.75 -4.041l-1.157 1.194 -0.843 0 0.961 -1.194 1.039 0zm4.87 5.579l-1.164 0 0 -0.577 -0.018 0c-0.289,0.446 -0.674,0.67 -1.158,0.67 -0.878,0 -1.316,-0.532 -1.316,-1.595l0 -2.284 1.165 0 0 2.181c0,0.535 0.212,0.803 0.636,0.803 0.21,0 0.376,-0.074 0.502,-0.22 0.127,-0.146 0.189,-0.346 0.189,-0.597l0 -2.167 1.164 0 0 3.786zm2.152 0l-1.167 0 0 -5.605 1.167 0 0 5.605zm1.575 -4.385c-0.197,0 -0.358,-0.059 -0.483,-0.176 -0.126,-0.117 -0.189,-0.26 -0.189,-0.43 0,-0.176 0.063,-0.318 0.189,-0.429 0.125,-0.111 0.286,-0.167 0.483,-0.167 0.201,0 0.363,0.056 0.488,0.167 0.123,0.111 0.186,0.253 0.186,0.429 0,0.177 -0.063,0.323 -0.186,0.436 -0.125,0.113 -0.287,0.17 -0.488,0.17zm0.577 4.385l-1.167 0 0 -3.786 1.167 0 0 3.786zm3.853 -0.136c-0.263,0.153 -0.645,0.229 -1.142,0.229 -0.582,0 -1.052,-0.176 -1.412,-0.529 -0.36,-0.352 -0.54,-0.807 -0.54,-1.365 0,-0.643 0.193,-1.149 0.578,-1.521 0.386,-0.37 0.902,-0.556 1.548,-0.556 0.446,0 0.769,0.059 0.968,0.177l0 0.992c-0.243,-0.183 -0.516,-0.274 -0.816,-0.274 -0.336,0 -0.601,0.097 -0.798,0.294 -0.196,0.195 -0.294,0.465 -0.294,0.811 0,0.335 0.095,0.599 0.281,0.789 0.187,0.192 0.446,0.287 0.773,0.287 0.291,0 0.575,-0.091 0.854,-0.274l0 0.94zm2.57 0.229c-0.631,0 -1.127,-0.177 -1.488,-0.531 -0.361,-0.353 -0.542,-0.834 -0.542,-1.44 0,-0.626 0.187,-1.117 0.562,-1.47 0.375,-0.353 0.882,-0.53 1.519,-0.53 0.629,0 1.123,0.177 1.48,0.53 0.357,0.353 0.536,0.822 0.536,1.404 0,0.628 -0.184,1.125 -0.553,1.49 -0.368,0.365 -0.873,0.547 -1.514,0.547zm0.03 -3.076c-0.276,0 -0.491,0.095 -0.644,0.284 -0.152,0.19 -0.229,0.459 -0.229,0.806 0,0.727 0.294,1.091 0.881,1.091 0.559,0 0.839,-0.374 0.839,-1.12 0,-0.708 -0.283,-1.061 -0.847,-1.061zm2.547 2.884l0 -0.947c0.193,0.116 0.385,0.202 0.575,0.259 0.191,0.057 0.372,0.084 0.542,0.084 0.207,0 0.371,-0.027 0.49,-0.084 0.12,-0.057 0.179,-0.143 0.179,-0.259 0,-0.074 -0.027,-0.136 -0.081,-0.185 -0.054,-0.05 -0.124,-0.093 -0.209,-0.129 -0.085,-0.037 -0.178,-0.071 -0.279,-0.1 -0.101,-0.03 -0.198,-0.063 -0.292,-0.099 -0.15,-0.057 -0.283,-0.119 -0.397,-0.183 -0.115,-0.066 -0.211,-0.142 -0.29,-0.229 -0.077,-0.086 -0.136,-0.185 -0.176,-0.299 -0.041,-0.114 -0.062,-0.248 -0.062,-0.403 0,-0.212 0.047,-0.395 0.139,-0.548 0.092,-0.152 0.215,-0.277 0.37,-0.374 0.153,-0.097 0.33,-0.17 0.528,-0.215 0.199,-0.045 0.406,-0.068 0.62,-0.068 0.168,0 0.337,0.013 0.51,0.039 0.173,0.025 0.343,0.063 0.511,0.112l0 0.903c-0.149,-0.087 -0.306,-0.152 -0.476,-0.195 -0.169,-0.043 -0.334,-0.064 -0.497,-0.064 -0.077,0 -0.149,0.006 -0.216,0.02 -0.068,0.013 -0.128,0.033 -0.18,0.06 -0.052,0.025 -0.092,0.058 -0.121,0.099 -0.031,0.041 -0.044,0.087 -0.044,0.139 0,0.068 0.021,0.128 0.065,0.177 0.045,0.049 0.102,0.092 0.174,0.127 0.072,0.037 0.152,0.068 0.239,0.096 0.087,0.029 0.174,0.058 0.261,0.087 0.155,0.054 0.295,0.114 0.421,0.178 0.126,0.065 0.234,0.139 0.324,0.226 0.089,0.086 0.159,0.187 0.207,0.303 0.048,0.116 0.071,0.254 0.071,0.414 0,0.225 -0.047,0.417 -0.146,0.575 -0.097,0.16 -0.226,0.288 -0.387,0.388 -0.162,0.1 -0.349,0.173 -0.559,0.218 -0.211,0.046 -0.43,0.069 -0.657,0.069 -0.416,0 -0.801,-0.065 -1.157,-0.192z"/>
    <g>
     <path class="fil3" d="M127.55 26.919c-4.761,-0.023 -14.878,0.247 -13.313,-6.004 0.587,-2.347 2.544,-4.652 3.691,-6.116l2.024 -2.305c0.12,-0.122 0.179,-0.158 0.287,-0.284 0.524,-0.608 2.197,-2.258 2.353,-2.55l-0.193 -0.317c-0.057,-0.116 -0.099,-0.208 -0.167,-0.342 -0.361,-0.714 -0.771,-1.432 -1.067,-2.18 -0.486,-1.23 -0.77,-1.917 -1.08,-3.187 -0.123,-0.505 -0.32,-0.726 -0.514,-0.792l-0.274 0c-0.131,0.042 -0.238,0.136 -0.292,0.229 -0.134,0.233 -0.171,0.535 -0.254,0.828 -0.085,0.299 -0.162,0.525 -0.25,0.833 -0.423,1.472 -1.209,3.19 -1.885,4.546l-0.742 1.423c-0.741,1.379 -1.532,2.729 -2.398,4.032l-1.691 2.638c-0.269,0.498 -0.503,0.848 -0.736,1.429 -0.307,0.763 -0.48,1.613 -0.536,2.478l0 1.286c0.08,1.258 0.388,2.475 0.868,3.431 0.848,1.684 1.626,2.417 2.931,3.499l1.329 0.834c1.063,0.528 2.185,0.836 3.314,0.935l1.595 0c0.766,-0.067 1.524,-0.23 2.257,-0.486 1.273,-0.444 2.375,-1.21 3.338,-2.134l1.405 -1.724z"/>
     <path class="fil3" d="M128.312 25.528l0.311 -0.964c0.171,-0.58 0.278,-1.173 0.325,-1.767l0 -1.442c-0.117,-1.5 -0.596,-2.959 -1.362,-4.212 -0.356,-0.582 -1.665,-2.271 -2.197,-3.022l-1.539 -2.345c-0.096,-0.15 -0.155,-0.243 -0.245,-0.392 -0.077,-0.129 -0.201,-0.276 -0.251,-0.42 -0.467,0.348 -1.473,1.515 -1.871,1.92l-2.348 2.614c-1.114,1.419 -2.741,3.274 -3.459,5.391 -1.031,3.039 1.733,3.773 4.218,4.224 2.4,0.436 5.912,0.518 8.418,0.415z"/>
    </g>
   </g>
   <g>
    <g>
     <path class="fil3" d="M205.635 10.55c-1.941,-0.349 -4.574,0.228 -5.372,1.485 -1.38,2.175 2.482,3.446 3.189,1.717 -0.203,-0.465 -0.94,-1.271 0.27,-2.373 0.511,-0.494 1.76,-0.64 2.139,0.512 0.571,1.734 -0.437,2.596 -1.961,3.024 -1.498,0.666 -4.493,0.859 -4.588,3.439 -0.129,3.556 3.986,3.284 4.687,2.63 0.606,-0.201 1.794,-1.297 1.962,-1.68l0.024 2.089 4.691 -0.012 -0.005 -0.519c-0.018,-0.014 -0.049,-0.054 -0.059,-0.036 -0.002,0.002 -0.687,-0.178 -0.831,-0.816 -0.143,-0.635 0.097,-6.018 -0.106,-6.84 -0.479,-1.932 -2.422,-2.301 -2.488,-2.358 -0.275,-0.24 -0.118,0.021 -0.178,-0.43 1.044,0.236 1.58,0.23 2.124,-0.463 0.736,-0.938 0.081,-1.774 -0.04,-2.065 0.451,-0.72 1.566,-0.562 1.863,0.234 0.205,0.546 0.111,2.152 0.112,2.836 0.004,1.966 0.013,3.932 0.012,5.898 -0.001,1.92 0.405,3.303 1.847,3.912 1.204,0.509 2.981,0.554 3.938,-0.419 0.054,-0.055 0.132,-0.148 0.197,-0.204 0.188,-0.159 0.056,-0.076 0.28,-0.187 -0.006,1.319 -0.092,0.918 0.296,1.433 0.809,-0.286 0.594,-0.94 4.044,-0.93l0.031 -0.534c-0.705,-0.292 -0.865,-0.558 -0.868,-1.616l0.019 -7.342c-0.186,-0.099 -0.298,-0.173 -0.464,-0.275l-0.769 0.464c-1.304,0.632 -2.254,0.32 -3.133,0.502l-0.009 0.483c1.066,0.487 0.846,0.707 0.847,2.774 0,1.205 0.058,2.382 -0.163,3.556 -0.166,0.88 -0.739,2.17 -1.597,2.071 -1.03,-0.12 -0.99,-1.731 -0.989,-2.718 0.002,-2.451 0.009,-4.902 0.009,-7.353 0,-1.702 -0.304,-2.813 -2.019,-3.565 -0.414,-0.181 -1.037,-0.267 -1.413,-0.476 -0.871,0.068 -1.368,-0.117 -2.346,0.13 -0.654,0.165 -1.306,0.426 -1.716,0.789 -1.991,1.765 -0.115,2.668 -0.082,3.411l-1.385 -0.178zm0.364 3.847l-1.113 0.97c-0.412,0.31 -0.785,0.64 -1.115,1.065 -1.848,2.385 -0.165,5.461 2.059,2.141 0.34,-0.506 0.151,-3.284 0.169,-4.176z"/>
     <path class="fil3" d="M194.886 19.029l0.006 2.126 -0.013 0.999 0.186 0.137 0.599 0.264c1.471,0.9 2.764,1.746 4.142,2.661 1.211,0.805 2.942,1.811 4.599,2.223 1.546,0.465 3.675,0.373 5.088,-0.605l0.289 -0.163c0.485,-0.523 1.207,-1.29 0.74,-2.481 -0.302,-0.769 -1.037,-1.367 -2.161,-1.305 -0.119,0.197 -0.022,0.194 -0.164,0.547 -0.195,0.488 -0.737,0.949 -1.261,1.174 -1.053,0.45 -1.72,0.206 -2.813,0.193 -0.486,-0.146 -0.995,-0.216 -1.515,-0.365 -0.488,-0.141 -0.924,-0.282 -1.389,-0.467 -0.826,-0.328 -1.848,-0.84 -2.64,-1.069l0.002 -12.378c0,-2.658 -0.252,-2.664 0.894,-3.151l0.006 -0.669 -5.516 0 0.016 0.669c0.448,0.211 0.76,0.146 0.864,0.747l0.024 4.666c0,2.058 0.074,4.21 0.017,6.247z"/>
     <path class="fil3" d="M228.553 16.846c-0.255,0.642 -0.492,0.732 -0.484,1.675 0.006,0.683 0.196,1.29 0.502,1.764 0.557,0.864 1.976,1.294 3.448,1.004 1.67,-0.378 2.291,-1.668 2.737,-1.964l-0.002 2.064 4.693 0.002 -0.002 -0.529c-0.294,-0.224 -0.798,-0.168 -0.904,-0.996l-0.013 -5.468c0.003,-1.371 -0.191,-2.009 -0.953,-2.714 -0.584,-0.54 -1.523,-0.963 -2.559,-1.079 -6.516,-0.733 -7.208,2.743 -5.372,3.679 0.879,0.448 2.252,0.359 2.588,-0.532 -0.001,-0.098 -0.707,-0.722 -0.212,-1.792 0.503,-1.088 2.245,-1.379 2.628,-0.008 0.653,2.33 -1.165,2.697 -3.178,3.337 -2.529,0.804 -2.137,1.077 -2.917,1.557zm6.198 1.269l-0.001 -3.698 -2.225 1.929c-0.294,0.347 -0.673,1.354 -0.746,1.849 -0.157,1.065 0.264,2.258 1.426,1.737 0.445,-0.2 1.546,-1.259 1.546,-1.817z"/>
     <path class="fil3" d="M226.737 10.921l-0.414 0.927c-0.072,-0.736 0.046,-0.455 -0.429,-0.825 -0.267,0.134 -0.395,0.288 -0.771,0.429 -1.131,0.422 -1.982,0.429 -3.174,0.458l-0.017 0.549c0.762,0.324 0.844,0.145 0.846,1.697l0.01 5.009c0.006,1.231 0.058,1.198 -0.839,1.697l-0.015 0.524 5.206 0.003c-0.02,-1.013 -0.108,-0.273 -0.59,-0.861 -0.444,-0.54 -0.229,-3.325 -0.154,-4.029 0.214,-2.018 0.499,-2.935 1.097,-4.686 0.294,-0.23 0.543,-1.422 1.908,-1.984 0.543,-0.224 0.55,-0.174 1.058,0.007 0.748,0.267 1.538,-0.033 1.893,-0.453 0.643,-0.759 0.305,-1.17 0.207,-1.943 -0.171,-0.128 -0.222,-0.187 -0.404,-0.353 -1.158,-1.059 -2.774,0.123 -3.64,1.042 -0.649,0.69 -1.366,2.129 -1.778,2.792z"/>
    </g>
    <g>
     <path class="fil4" d="M227.621 23.639l0 -1.71 0.227 0 0 1.51 0.841 0 0 0.2 -1.068 0zm2.123 -0.155c-0.079,0.067 -0.154,0.113 -0.226,0.141 -0.072,0.027 -0.149,0.041 -0.232,0.041 -0.136,0 -0.241,-0.033 -0.314,-0.1 -0.073,-0.066 -0.11,-0.151 -0.11,-0.254 0,-0.061 0.014,-0.116 0.041,-0.166 0.028,-0.05 0.064,-0.09 0.109,-0.12 0.045,-0.031 0.095,-0.054 0.151,-0.069 0.042,-0.011 0.104,-0.021 0.187,-0.032 0.17,-0.02 0.295,-0.044 0.375,-0.072 0.001,-0.028 0.002,-0.047 0.002,-0.054 0,-0.086 -0.02,-0.146 -0.06,-0.181 -0.054,-0.047 -0.134,-0.071 -0.24,-0.071 -0.099,0 -0.172,0.018 -0.219,0.052 -0.048,0.035 -0.082,0.096 -0.105,0.185l-0.206 -0.029c0.019,-0.088 0.05,-0.159 0.093,-0.213 0.043,-0.055 0.105,-0.096 0.186,-0.125 0.081,-0.029 0.175,-0.044 0.282,-0.044 0.106,0 0.192,0.012 0.259,0.037 0.066,0.025 0.115,0.056 0.146,0.094 0.031,0.038 0.053,0.086 0.066,0.144 0.007,0.036 0.01,0.1 0.01,0.193l0 0.278c0,0.195 0.005,0.318 0.014,0.37 0.008,0.053 0.025,0.103 0.051,0.15l-0.22 0c-0.021,-0.044 -0.035,-0.096 -0.04,-0.155zm-0.017 -0.466c-0.077,0.031 -0.192,0.057 -0.344,0.079 -0.087,0.012 -0.148,0.026 -0.184,0.042 -0.036,0.015 -0.064,0.038 -0.083,0.067 -0.02,0.03 -0.03,0.063 -0.03,0.1 0,0.055 0.022,0.102 0.064,0.139 0.043,0.037 0.105,0.056 0.187,0.056 0.08,0 0.153,-0.018 0.216,-0.053 0.063,-0.035 0.109,-0.084 0.139,-0.144 0.022,-0.048 0.033,-0.118 0.033,-0.21l0.002 -0.076zm0.729 0.621l-0.196 0 0 -1.71 0.21 0 0 0.61c0.089,-0.111 0.202,-0.166 0.34,-0.166 0.076,0 0.148,0.015 0.217,0.046 0.068,0.03 0.124,0.074 0.168,0.129 0.043,0.056 0.078,0.123 0.103,0.201 0.025,0.078 0.037,0.162 0.037,0.251 0,0.212 -0.052,0.376 -0.157,0.492 -0.105,0.116 -0.231,0.174 -0.378,0.174 -0.146,0 -0.261,-0.061 -0.344,-0.183l0 0.156zm-0.002 -0.629c0,0.148 0.02,0.255 0.06,0.321 0.066,0.108 0.156,0.162 0.268,0.162 0.092,0 0.171,-0.039 0.238,-0.119 0.067,-0.08 0.1,-0.198 0.1,-0.356 0,-0.162 -0.031,-0.281 -0.096,-0.357 -0.064,-0.078 -0.142,-0.116 -0.232,-0.116 -0.092,0 -0.172,0.04 -0.238,0.12 -0.067,0.079 -0.1,0.194 -0.1,0.345zm1.059 0.009c0,-0.229 0.063,-0.398 0.191,-0.509 0.107,-0.091 0.237,-0.137 0.39,-0.137 0.17,0 0.31,0.056 0.418,0.167 0.108,0.111 0.162,0.265 0.162,0.462 0,0.159 -0.024,0.284 -0.072,0.375 -0.047,0.091 -0.117,0.162 -0.209,0.213 -0.091,0.05 -0.191,0.076 -0.299,0.076 -0.174,0 -0.314,-0.056 -0.421,-0.167 -0.107,-0.111 -0.16,-0.271 -0.16,-0.48zm0.215 0.001c0,0.158 0.034,0.277 0.104,0.355 0.069,0.079 0.156,0.118 0.262,0.118 0.104,0 0.191,-0.039 0.261,-0.118 0.069,-0.079 0.104,-0.2 0.104,-0.362 0,-0.153 -0.035,-0.269 -0.105,-0.347 -0.07,-0.079 -0.156,-0.119 -0.26,-0.119 -0.106,0 -0.193,0.039 -0.262,0.118 -0.07,0.078 -0.104,0.196 -0.104,0.355zm1.19 0.619l0 -1.24 0.189 0 0 0.19c0.048,-0.088 0.093,-0.146 0.134,-0.174 0.041,-0.028 0.086,-0.042 0.135,-0.042 0.07,0 0.143,0.022 0.216,0.067l-0.075 0.193c-0.051,-0.028 -0.102,-0.043 -0.153,-0.043 -0.045,0 -0.087,0.014 -0.123,0.042 -0.036,0.027 -0.062,0.066 -0.078,0.114 -0.023,0.075 -0.035,0.157 -0.035,0.246l0 0.647 -0.21 0zm1.608 -0.155c-0.078,0.067 -0.153,0.113 -0.225,0.141 -0.072,0.027 -0.149,0.041 -0.232,0.041 -0.136,0 -0.241,-0.033 -0.314,-0.1 -0.074,-0.066 -0.111,-0.151 -0.111,-0.254 0,-0.061 0.014,-0.116 0.042,-0.166 0.028,-0.05 0.064,-0.09 0.109,-0.12 0.045,-0.031 0.095,-0.054 0.151,-0.069 0.042,-0.011 0.104,-0.021 0.187,-0.032 0.17,-0.02 0.295,-0.044 0.375,-0.072 0.001,-0.028 0.002,-0.047 0.002,-0.054 0,-0.086 -0.02,-0.146 -0.06,-0.181 -0.054,-0.047 -0.134,-0.071 -0.24,-0.071 -0.099,0 -0.172,0.018 -0.22,0.052 -0.047,0.035 -0.081,0.096 -0.104,0.185l-0.206 -0.029c0.019,-0.088 0.05,-0.159 0.093,-0.213 0.043,-0.055 0.105,-0.096 0.186,-0.125 0.081,-0.029 0.175,-0.044 0.282,-0.044 0.106,0 0.192,0.012 0.259,0.037 0.066,0.025 0.115,0.056 0.146,0.094 0.031,0.038 0.053,0.086 0.066,0.144 0.007,0.036 0.01,0.1 0.01,0.193l0 0.278c0,0.195 0.005,0.318 0.013,0.37 0.009,0.053 0.026,0.103 0.052,0.15l-0.22 0c-0.021,-0.044 -0.035,-0.096 -0.041,-0.155zm-0.016 -0.466c-0.077,0.031 -0.192,0.057 -0.344,0.079 -0.087,0.012 -0.149,0.026 -0.184,0.042 -0.036,0.015 -0.064,0.038 -0.084,0.067 -0.019,0.03 -0.029,0.063 -0.029,0.1 0,0.055 0.021,0.102 0.064,0.139 0.043,0.037 0.105,0.056 0.186,0.056 0.081,0 0.153,-0.018 0.217,-0.053 0.063,-0.035 0.109,-0.084 0.139,-0.144 0.022,-0.048 0.033,-0.118 0.033,-0.21l0.002 -0.076zm0.992 0.434l0.028 0.185c-0.059,0.013 -0.112,0.019 -0.158,0.019 -0.076,0 -0.135,-0.012 -0.177,-0.036 -0.042,-0.025 -0.071,-0.056 -0.088,-0.095 -0.017,-0.04 -0.026,-0.123 -0.026,-0.249l0 -0.714 -0.155 0 0 -0.163 0.155 0 0 -0.307 0.21 -0.126 0 0.433 0.211 0 0 0.163 -0.211 0 0 0.726c0,0.06 0.004,0.099 0.011,0.116 0.008,0.017 0.02,0.031 0.036,0.041 0.017,0.01 0.041,0.015 0.072,0.015 0.023,0 0.054,-0.002 0.092,-0.008zm0.128 -0.433c0,-0.229 0.064,-0.398 0.192,-0.509 0.106,-0.091 0.236,-0.137 0.39,-0.137 0.17,0 0.309,0.056 0.417,0.167 0.108,0.111 0.162,0.265 0.162,0.462 0,0.159 -0.023,0.284 -0.071,0.375 -0.048,0.091 -0.118,0.162 -0.209,0.213 -0.091,0.05 -0.191,0.076 -0.299,0.076 -0.174,0 -0.314,-0.056 -0.421,-0.167 -0.107,-0.111 -0.161,-0.271 -0.161,-0.48zm0.215 0.001c0,0.158 0.035,0.277 0.104,0.355 0.07,0.079 0.157,0.118 0.263,0.118 0.104,0 0.191,-0.039 0.261,-0.118 0.069,-0.079 0.104,-0.2 0.104,-0.362 0,-0.153 -0.036,-0.269 -0.105,-0.347 -0.07,-0.079 -0.157,-0.119 -0.26,-0.119 -0.106,0 -0.193,0.039 -0.263,0.118 -0.069,0.078 -0.104,0.196 -0.104,0.355zm1.191 0.619l0 -1.24 0.189 0 0 0.19c0.048,-0.088 0.092,-0.146 0.133,-0.174 0.041,-0.028 0.086,-0.042 0.136,-0.042 0.07,0 0.142,0.022 0.215,0.067l-0.075 0.193c-0.05,-0.028 -0.101,-0.043 -0.152,-0.043 -0.046,0 -0.087,0.014 -0.123,0.042 -0.036,0.027 -0.062,0.066 -0.078,0.114 -0.023,0.075 -0.035,0.157 -0.035,0.246l0 0.647 -0.21 0zm0.798 -1.472l0 -0.238 0.21 0 0 0.238 -0.21 0zm0 1.472l0 -1.24 0.21 0 0 1.24 -0.21 0zm0.452 -0.62c0,-0.229 0.064,-0.398 0.192,-0.509 0.106,-0.091 0.236,-0.137 0.39,-0.137 0.169,0 0.309,0.056 0.417,0.167 0.108,0.111 0.162,0.265 0.162,0.462 0,0.159 -0.024,0.284 -0.071,0.375 -0.048,0.091 -0.118,0.162 -0.209,0.213 -0.092,0.05 -0.191,0.076 -0.299,0.076 -0.174,0 -0.314,-0.056 -0.421,-0.167 -0.108,-0.111 -0.161,-0.271 -0.161,-0.48zm0.215 0.001c0,0.158 0.035,0.277 0.104,0.355 0.07,0.079 0.157,0.118 0.263,0.118 0.104,0 0.191,-0.039 0.26,-0.118 0.07,-0.079 0.104,-0.2 0.104,-0.362 0,-0.153 -0.035,-0.269 -0.105,-0.347 -0.069,-0.079 -0.156,-0.119 -0.259,-0.119 -0.106,0 -0.193,0.039 -0.263,0.118 -0.069,0.078 -0.104,0.196 -0.104,0.355z"/>
     <path class="fil4" d="M228.626 27.528c-0.078,0.067 -0.153,0.113 -0.225,0.141 -0.072,0.027 -0.149,0.041 -0.232,0.041 -0.136,0 -0.241,-0.033 -0.314,-0.1 -0.074,-0.066 -0.11,-0.151 -0.11,-0.254 0,-0.06 0.014,-0.116 0.041,-0.166 0.028,-0.05 0.064,-0.09 0.109,-0.12 0.045,-0.031 0.095,-0.053 0.151,-0.069 0.042,-0.011 0.104,-0.021 0.187,-0.031 0.17,-0.02 0.295,-0.045 0.375,-0.073 0.001,-0.028 0.002,-0.047 0.002,-0.054 0,-0.085 -0.02,-0.146 -0.06,-0.181 -0.054,-0.047 -0.134,-0.07 -0.24,-0.07 -0.099,0 -0.172,0.017 -0.219,0.052 -0.048,0.034 -0.082,0.096 -0.105,0.184l-0.206 -0.029c0.019,-0.088 0.05,-0.159 0.093,-0.213 0.043,-0.054 0.105,-0.096 0.186,-0.125 0.081,-0.029 0.175,-0.044 0.282,-0.044 0.106,0 0.193,0.012 0.259,0.038 0.066,0.024 0.115,0.056 0.146,0.093 0.031,0.038 0.053,0.086 0.066,0.144 0.007,0.036 0.01,0.1 0.01,0.193l0 0.279c0,0.194 0.005,0.317 0.013,0.37 0.009,0.052 0.026,0.102 0.052,0.149l-0.22 0c-0.021,-0.044 -0.034,-0.096 -0.041,-0.155zm-0.016 -0.466c-0.077,0.031 -0.191,0.057 -0.344,0.079 -0.087,0.013 -0.148,0.026 -0.184,0.042 -0.036,0.015 -0.064,0.038 -0.083,0.068 -0.02,0.029 -0.03,0.062 -0.03,0.099 0,0.055 0.021,0.102 0.064,0.139 0.043,0.037 0.105,0.056 0.186,0.056 0.081,0 0.153,-0.018 0.217,-0.053 0.063,-0.035 0.109,-0.083 0.139,-0.144 0.022,-0.048 0.033,-0.117 0.033,-0.209l0.002 -0.077zm1.345 0.621l0 -0.184c-0.096,0.14 -0.226,0.211 -0.392,0.211 -0.073,0 -0.141,-0.014 -0.204,-0.042 -0.064,-0.029 -0.11,-0.063 -0.141,-0.106 -0.031,-0.042 -0.052,-0.094 -0.065,-0.155 -0.008,-0.042 -0.012,-0.107 -0.012,-0.196l0 -0.768 0.21 0 0 0.687c0,0.109 0.004,0.183 0.013,0.221 0.013,0.055 0.041,0.098 0.084,0.13 0.042,0.031 0.095,0.047 0.158,0.047 0.063,0 0.122,-0.016 0.176,-0.048 0.056,-0.032 0.095,-0.076 0.118,-0.132 0.022,-0.055 0.034,-0.136 0.034,-0.242l0 -0.663 0.21 0 0 1.24 -0.189 0zm1.32 0l0 -0.157c-0.078,0.122 -0.194,0.184 -0.346,0.184 -0.099,0 -0.19,-0.027 -0.273,-0.082 -0.082,-0.054 -0.146,-0.13 -0.192,-0.227 -0.046,-0.098 -0.069,-0.21 -0.069,-0.337 0,-0.123 0.021,-0.235 0.062,-0.336 0.042,-0.1 0.103,-0.177 0.186,-0.23 0.082,-0.054 0.174,-0.081 0.276,-0.081 0.075,0 0.141,0.016 0.199,0.047 0.058,0.032 0.106,0.073 0.143,0.124l0 -0.615 0.21 0 0 1.71 -0.196 0zm-0.664 -0.618c0,0.159 0.033,0.277 0.1,0.355 0.067,0.079 0.146,0.118 0.238,0.118 0.092,0 0.17,-0.038 0.234,-0.113 0.064,-0.074 0.097,-0.189 0.097,-0.342 0,-0.169 -0.033,-0.294 -0.099,-0.373 -0.065,-0.079 -0.146,-0.118 -0.242,-0.118 -0.094,0 -0.172,0.037 -0.235,0.113 -0.062,0.076 -0.093,0.196 -0.093,0.36zm1.192 -0.854l0 -0.238 0.211 0 0 0.238 -0.211 0zm0 1.472l0 -1.24 0.211 0 0 1.24 -0.211 0zm0.453 -0.62c0,-0.229 0.063,-0.398 0.191,-0.509 0.106,-0.091 0.237,-0.137 0.39,-0.137 0.17,0 0.31,0.056 0.417,0.167 0.108,0.111 0.163,0.266 0.163,0.462 0,0.159 -0.024,0.284 -0.072,0.375 -0.048,0.092 -0.117,0.163 -0.209,0.213 -0.091,0.051 -0.191,0.076 -0.299,0.076 -0.174,0 -0.314,-0.056 -0.421,-0.167 -0.107,-0.111 -0.16,-0.271 -0.16,-0.48zm0.215 0.001c0,0.158 0.034,0.277 0.103,0.356 0.07,0.078 0.157,0.118 0.263,0.118 0.104,0 0.191,-0.04 0.261,-0.119 0.069,-0.079 0.104,-0.2 0.104,-0.362 0,-0.153 -0.035,-0.269 -0.105,-0.347 -0.07,-0.079 -0.156,-0.118 -0.26,-0.118 -0.106,0 -0.193,0.039 -0.263,0.117 -0.069,0.078 -0.103,0.197 -0.103,0.355zm1.531 0.619l-0.468 -1.24 0.225 0 0.266 0.743c0.028,0.08 0.055,0.163 0.079,0.25 0.019,-0.066 0.045,-0.144 0.079,-0.236l0.275 -0.757 0.216 0 -0.47 1.24 -0.202 0zm0.856 -1.472l0 -0.238 0.21 0 0 0.238 -0.21 0zm0 1.472l0 -1.24 0.21 0 0 1.24 -0.21 0zm0.447 -0.37l0.208 -0.033c0.012,0.083 0.045,0.147 0.098,0.191 0.053,0.044 0.128,0.067 0.223,0.067 0.098,0 0.169,-0.02 0.216,-0.059 0.047,-0.039 0.07,-0.085 0.07,-0.139 0,-0.047 -0.021,-0.084 -0.063,-0.111 -0.029,-0.019 -0.101,-0.042 -0.215,-0.071 -0.154,-0.039 -0.26,-0.073 -0.319,-0.101 -0.06,-0.029 -0.105,-0.068 -0.136,-0.118 -0.03,-0.05 -0.046,-0.105 -0.046,-0.166 0,-0.055 0.013,-0.106 0.038,-0.153 0.025,-0.047 0.06,-0.086 0.103,-0.117 0.033,-0.024 0.077,-0.044 0.134,-0.061 0.056,-0.017 0.116,-0.025 0.181,-0.025 0.097,0 0.182,0.014 0.256,0.042 0.073,0.028 0.127,0.067 0.162,0.114 0.035,0.048 0.059,0.112 0.072,0.193l-0.205 0.028c-0.009,-0.064 -0.036,-0.115 -0.081,-0.151 -0.044,-0.036 -0.108,-0.054 -0.189,-0.054 -0.096,0 -0.165,0.016 -0.206,0.048 -0.041,0.032 -0.062,0.069 -0.062,0.112 0,0.027 0.008,0.052 0.026,0.073 0.017,0.023 0.043,0.042 0.08,0.056 0.021,0.008 0.083,0.026 0.186,0.054 0.148,0.039 0.251,0.072 0.31,0.097 0.059,0.025 0.105,0.062 0.139,0.11 0.034,0.048 0.05,0.108 0.05,0.18 0,0.069 -0.02,0.135 -0.061,0.197 -0.041,0.062 -0.1,0.109 -0.177,0.143 -0.077,0.034 -0.164,0.051 -0.261,0.051 -0.161,0 -0.285,-0.034 -0.369,-0.1 -0.084,-0.067 -0.138,-0.166 -0.162,-0.297zm2.089 0.37l0 -0.184c-0.097,0.14 -0.227,0.211 -0.393,0.211 -0.073,0 -0.141,-0.014 -0.204,-0.042 -0.063,-0.029 -0.11,-0.063 -0.141,-0.106 -0.03,-0.042 -0.052,-0.094 -0.064,-0.155 -0.009,-0.042 -0.013,-0.107 -0.013,-0.196l0 -0.768 0.21 0 0 0.687c0,0.109 0.005,0.183 0.013,0.221 0.013,0.055 0.041,0.098 0.084,0.13 0.042,0.031 0.095,0.047 0.158,0.047 0.063,0 0.122,-0.016 0.177,-0.048 0.055,-0.032 0.094,-0.076 0.117,-0.132 0.023,-0.055 0.034,-0.136 0.034,-0.242l0 -0.663 0.21 0 0 1.24 -0.188 0zm1.329 -0.155c-0.078,0.067 -0.153,0.113 -0.226,0.141 -0.072,0.027 -0.149,0.041 -0.232,0.041 -0.136,0 -0.241,-0.033 -0.314,-0.1 -0.073,-0.066 -0.11,-0.151 -0.11,-0.254 0,-0.06 0.014,-0.116 0.041,-0.166 0.028,-0.05 0.065,-0.09 0.109,-0.12 0.045,-0.031 0.096,-0.053 0.151,-0.069 0.042,-0.011 0.105,-0.021 0.188,-0.031 0.169,-0.02 0.295,-0.045 0.375,-0.073 0.001,-0.028 0.001,-0.047 0.001,-0.054 0,-0.085 -0.02,-0.146 -0.06,-0.181 -0.054,-0.047 -0.133,-0.07 -0.239,-0.07 -0.099,0 -0.173,0.017 -0.22,0.052 -0.047,0.034 -0.082,0.096 -0.105,0.184l-0.205 -0.029c0.018,-0.088 0.049,-0.159 0.092,-0.213 0.043,-0.054 0.106,-0.096 0.187,-0.125 0.08,-0.029 0.175,-0.044 0.282,-0.044 0.106,0 0.192,0.012 0.258,0.038 0.067,0.024 0.116,0.056 0.147,0.093 0.031,0.038 0.053,0.086 0.065,0.144 0.007,0.036 0.011,0.1 0.011,0.193l0 0.279c0,0.194 0.004,0.317 0.013,0.37 0.008,0.052 0.026,0.102 0.051,0.149l-0.22 0c-0.021,-0.044 -0.034,-0.096 -0.04,-0.155zm-0.017 -0.466c-0.077,0.031 -0.191,0.057 -0.344,0.079 -0.087,0.013 -0.148,0.026 -0.184,0.042 -0.036,0.015 -0.063,0.038 -0.083,0.068 -0.019,0.029 -0.029,0.062 -0.029,0.099 0,0.055 0.021,0.102 0.063,0.139 0.043,0.037 0.105,0.056 0.187,0.056 0.081,0 0.153,-0.018 0.216,-0.053 0.063,-0.035 0.11,-0.083 0.139,-0.144 0.023,-0.048 0.034,-0.117 0.034,-0.209l0.001 -0.077zm0.531 0.621l0 -1.71 0.21 0 0 1.71 -0.21 0z"/>
     <path class="fil4" d="M227.621 25.64l0 -0.185c-0.096,0.141 -0.227,0.211 -0.392,0.211 -0.073,0 -0.141,-0.014 -0.204,-0.042 -0.064,-0.028 -0.111,-0.063 -0.141,-0.105 -0.031,-0.043 -0.053,-0.095 -0.065,-0.156 -0.008,-0.042 -0.013,-0.107 -0.013,-0.196l0 -0.767 0.211 0 0 0.686c0,0.109 0.004,0.184 0.012,0.221 0.014,0.056 0.042,0.099 0.084,0.13 0.043,0.032 0.096,0.047 0.159,0.047 0.062,0 0.121,-0.015 0.176,-0.048 0.055,-0.032 0.094,-0.076 0.118,-0.132 0.022,-0.055 0.034,-0.136 0.034,-0.241l0 -0.663 0.21 0 0 1.24 -0.189 0zm0.519 0l0 -1.24 0.189 0 0 0.176c0.091,-0.135 0.222,-0.203 0.394,-0.203 0.075,0 0.143,0.014 0.206,0.041 0.062,0.026 0.109,0.062 0.14,0.105 0.031,0.043 0.053,0.095 0.066,0.155 0.007,0.039 0.011,0.107 0.011,0.204l0 0.762 -0.21 0 0 -0.754c0,-0.085 -0.008,-0.15 -0.024,-0.191 -0.017,-0.043 -0.046,-0.077 -0.087,-0.102 -0.042,-0.025 -0.091,-0.038 -0.146,-0.038 -0.09,0 -0.166,0.028 -0.231,0.085 -0.065,0.057 -0.097,0.165 -0.097,0.323l0 0.677 -0.211 0zm1.329 -1.472l0 -0.239 0.211 0 0 0.239 -0.211 0zm0 1.472l0 -1.24 0.211 0 0 1.24 -0.211 0zm0.87 0l-0.468 -1.24 0.225 0 0.265 0.742c0.029,0.08 0.056,0.163 0.08,0.25 0.019,-0.065 0.045,-0.144 0.078,-0.236l0.276 -0.756 0.216 0 -0.47 1.24 -0.202 0zm1.702 -0.402l0.217 0.029c-0.034,0.126 -0.097,0.225 -0.189,0.294 -0.093,0.07 -0.211,0.105 -0.354,0.105 -0.181,0 -0.325,-0.056 -0.431,-0.167 -0.105,-0.111 -0.158,-0.268 -0.158,-0.469 0,-0.208 0.053,-0.37 0.16,-0.484 0.107,-0.115 0.246,-0.173 0.417,-0.173 0.165,0 0.3,0.057 0.405,0.169 0.105,0.113 0.157,0.271 0.157,0.476 0,0.012 0,0.031 -0.001,0.056l-0.923 0c0.007,0.135 0.046,0.24 0.115,0.312 0.069,0.072 0.156,0.108 0.259,0.108 0.076,0 0.142,-0.02 0.196,-0.061 0.055,-0.041 0.098,-0.105 0.13,-0.195zm-0.688 -0.336l0.69 0c-0.009,-0.105 -0.036,-0.183 -0.079,-0.235 -0.066,-0.081 -0.153,-0.122 -0.26,-0.122 -0.096,0 -0.177,0.033 -0.243,0.097 -0.065,0.065 -0.101,0.151 -0.108,0.26zm1.169 0.738l0 -1.24 0.188 0 0 0.19c0.048,-0.088 0.093,-0.147 0.134,-0.175 0.041,-0.028 0.086,-0.042 0.135,-0.042 0.071,0 0.143,0.022 0.216,0.067l-0.075 0.194c-0.05,-0.029 -0.102,-0.043 -0.153,-0.043 -0.045,0 -0.086,0.014 -0.123,0.041 -0.036,0.028 -0.062,0.066 -0.077,0.115 -0.024,0.074 -0.035,0.156 -0.035,0.245l0 0.648 -0.21 0zm0.714 -0.37l0.208 -0.034c0.012,0.083 0.044,0.147 0.097,0.192 0.054,0.044 0.129,0.066 0.224,0.066 0.097,0 0.169,-0.02 0.216,-0.059 0.046,-0.039 0.07,-0.085 0.07,-0.138 0,-0.048 -0.021,-0.085 -0.063,-0.112 -0.03,-0.019 -0.101,-0.042 -0.215,-0.071 -0.154,-0.039 -0.26,-0.072 -0.32,-0.101 -0.059,-0.028 -0.104,-0.067 -0.135,-0.117 -0.03,-0.05 -0.046,-0.106 -0.046,-0.166 0,-0.056 0.013,-0.107 0.038,-0.154 0.025,-0.047 0.059,-0.086 0.103,-0.117 0.033,-0.024 0.077,-0.044 0.133,-0.061 0.057,-0.016 0.117,-0.025 0.182,-0.025 0.097,0 0.182,0.014 0.255,0.042 0.074,0.028 0.128,0.067 0.163,0.114 0.035,0.049 0.059,0.113 0.072,0.193l-0.205 0.029c-0.009,-0.065 -0.037,-0.115 -0.081,-0.151 -0.045,-0.037 -0.108,-0.055 -0.189,-0.055 -0.096,0 -0.165,0.016 -0.206,0.048 -0.041,0.032 -0.062,0.07 -0.062,0.112 0,0.027 0.008,0.052 0.026,0.074 0.017,0.022 0.043,0.041 0.08,0.055 0.021,0.008 0.082,0.026 0.185,0.054 0.148,0.04 0.252,0.073 0.311,0.097 0.059,0.026 0.105,0.063 0.138,0.11 0.034,0.048 0.051,0.108 0.051,0.18 0,0.07 -0.02,0.136 -0.062,0.197 -0.041,0.062 -0.099,0.11 -0.176,0.143 -0.078,0.034 -0.165,0.051 -0.262,0.051 -0.161,0 -0.284,-0.033 -0.368,-0.1 -0.085,-0.067 -0.138,-0.166 -0.162,-0.296zm1.278 -1.102l0 -0.239 0.211 0 0 0.239 -0.211 0zm0 1.472l0 -1.24 0.211 0 0 1.24 -0.211 0zm0.988 -0.188l0.028 0.186c-0.059,0.012 -0.112,0.018 -0.158,0.018 -0.076,0 -0.135,-0.011 -0.177,-0.036 -0.042,-0.024 -0.071,-0.056 -0.088,-0.095 -0.017,-0.039 -0.026,-0.122 -0.026,-0.248l0 -0.715 -0.155 0 0 -0.162 0.155 0 0 -0.307 0.21 -0.126 0 0.433 0.211 0 0 0.162 -0.211 0 0 0.726c0,0.061 0.004,0.099 0.011,0.116 0.008,0.018 0.02,0.031 0.036,0.041 0.017,0.01 0.041,0.016 0.072,0.016 0.023,0 0.054,-0.003 0.092,-0.009zm1.017 0.032c-0.078,0.067 -0.153,0.113 -0.225,0.141 -0.072,0.028 -0.15,0.041 -0.232,0.041 -0.137,0 -0.241,-0.033 -0.315,-0.1 -0.073,-0.066 -0.109,-0.15 -0.109,-0.254 0,-0.06 0.013,-0.116 0.041,-0.166 0.028,-0.05 0.064,-0.09 0.109,-0.12 0.044,-0.03 0.095,-0.053 0.151,-0.069 0.041,-0.011 0.104,-0.021 0.187,-0.031 0.17,-0.02 0.295,-0.045 0.375,-0.072 0.001,-0.029 0.001,-0.048 0.001,-0.055 0,-0.085 -0.02,-0.145 -0.059,-0.18 -0.054,-0.048 -0.134,-0.071 -0.24,-0.071 -0.099,0 -0.172,0.017 -0.22,0.052 -0.047,0.035 -0.081,0.096 -0.104,0.184l-0.206 -0.028c0.019,-0.088 0.05,-0.16 0.093,-0.214 0.043,-0.054 0.105,-0.095 0.186,-0.125 0.081,-0.029 0.175,-0.044 0.282,-0.044 0.106,0 0.192,0.013 0.259,0.038 0.066,0.025 0.115,0.056 0.146,0.094 0.031,0.038 0.053,0.085 0.066,0.143 0.006,0.036 0.01,0.1 0.01,0.193l0 0.279c0,0.195 0.005,0.318 0.013,0.37 0.009,0.052 0.026,0.102 0.052,0.15l-0.22 0c-0.021,-0.044 -0.035,-0.096 -0.041,-0.156zm-0.017 -0.466c-0.076,0.032 -0.191,0.058 -0.344,0.079 -0.087,0.013 -0.148,0.027 -0.184,0.042 -0.036,0.016 -0.063,0.039 -0.082,0.068 -0.02,0.03 -0.03,0.063 -0.03,0.1 0,0.055 0.021,0.101 0.064,0.138 0.042,0.037 0.105,0.056 0.186,0.056 0.081,0 0.153,-0.017 0.216,-0.053 0.063,-0.035 0.11,-0.083 0.139,-0.144 0.023,-0.048 0.034,-0.117 0.034,-0.209l0.001 -0.077zm0.534 0.622l0 -1.24 0.189 0 0 0.19c0.048,-0.088 0.092,-0.147 0.133,-0.175 0.041,-0.028 0.086,-0.042 0.136,-0.042 0.07,0 0.142,0.022 0.215,0.067l-0.075 0.194c-0.05,-0.029 -0.101,-0.043 -0.152,-0.043 -0.046,0 -0.087,0.014 -0.123,0.041 -0.036,0.028 -0.062,0.066 -0.078,0.115 -0.023,0.074 -0.035,0.156 -0.035,0.245l0 0.648 -0.21 0zm0.798 -1.472l0 -0.239 0.21 0 0 0.239 -0.21 0zm0 1.472l0 -1.24 0.21 0 0 1.24 -0.21 0zm0.452 -0.62c0,-0.229 0.064,-0.399 0.192,-0.509 0.106,-0.092 0.236,-0.138 0.39,-0.138 0.169,0 0.309,0.056 0.417,0.168 0.108,0.111 0.162,0.265 0.162,0.461 0,0.16 -0.024,0.285 -0.071,0.376 -0.048,0.091 -0.118,0.162 -0.209,0.212 -0.092,0.051 -0.191,0.076 -0.299,0.076 -0.174,0 -0.314,-0.055 -0.421,-0.166 -0.108,-0.111 -0.161,-0.272 -0.161,-0.48zm0.215 0c0,0.159 0.035,0.277 0.104,0.356 0.07,0.079 0.157,0.118 0.263,0.118 0.104,0 0.191,-0.039 0.26,-0.119 0.07,-0.079 0.104,-0.2 0.104,-0.362 0,-0.153 -0.035,-0.268 -0.105,-0.347 -0.069,-0.079 -0.156,-0.118 -0.259,-0.118 -0.106,0 -0.193,0.039 -0.263,0.117 -0.069,0.079 -0.104,0.197 -0.104,0.355z"/>
    </g>
   </g>
  </g>
 </g>
</svg>
