<?xml version="1.0" encoding="UTF-8"?>
<!DOCTYPE svg PUBLIC "-//W3C//DTD SVG 1.1//EN" "http://www.w3.org/Graphics/SVG/1.1/DTD/svg11.dtd">
<!-- Creator: CorelDRAW -->
<svg xmlns="http://www.w3.org/2000/svg" xml:space="preserve" width="800px" height="112px" version="1.1" style="shape-rendering:geometricPrecision; text-rendering:geometricPrecision; image-rendering:optimizeQuality; fill-rule:evenodd; clip-rule:evenodd"
viewBox="0 0 284.205 39.789"
 xmlns:xlink="http://www.w3.org/1999/xlink"
 xmlns:xodm="http://www.corel.com/coreldraw/odm/2003">
 <defs>
  <style type="text/css">
   <![CDATA[
    .fil1 {fill:black}
    .fil3 {fill:#101010}
    .fil0 {fill:white}
    .fil4 {fill:black;fill-rule:nonzero}
    .fil2 {fill:black;fill-rule:nonzero}
   ]]>
  </style>
 </defs>
 <g id="Layer_x0020_1">
  <metadata id="CorelCorpID_0Corel-Layer"/>
  <g id="_2603172373712">
   <rect class="fil0" width="284.205" height="39.789"/>
   <g>
    <path class="fil1" d="M35.229 7.597l0 -3.607 2.608 0 0 0.426 -2.131 0 0 1.104 1.996 0 0 0.423 -1.996 0 0 1.228 2.215 0 0 0.426 -2.692 0zm3.164 -1.029l0.399 -0.035c0.019,0.16 0.063,0.292 0.132,0.394 0.069,0.103 0.177,0.186 0.322,0.249 0.145,0.064 0.309,0.095 0.491,0.095 0.162,0 0.304,-0.024 0.428,-0.072 0.124,-0.048 0.216,-0.114 0.277,-0.197 0.06,-0.084 0.09,-0.175 0.09,-0.275 0,-0.1 -0.029,-0.187 -0.087,-0.262 -0.059,-0.076 -0.155,-0.138 -0.288,-0.189 -0.087,-0.034 -0.276,-0.086 -0.57,-0.157 -0.294,-0.07 -0.5,-0.137 -0.618,-0.199 -0.153,-0.08 -0.267,-0.18 -0.343,-0.299 -0.074,-0.118 -0.111,-0.251 -0.111,-0.398 0,-0.161 0.045,-0.313 0.137,-0.453 0.092,-0.141 0.226,-0.247 0.402,-0.32 0.176,-0.073 0.372,-0.109 0.587,-0.109 0.238,0 0.446,0.038 0.629,0.115 0.181,0.076 0.32,0.188 0.418,0.337 0.097,0.148 0.149,0.316 0.157,0.504l-0.406 0.031c-0.023,-0.202 -0.096,-0.356 -0.223,-0.459 -0.125,-0.103 -0.311,-0.155 -0.557,-0.155 -0.256,0 -0.443,0.047 -0.561,0.141 -0.117,0.094 -0.176,0.207 -0.176,0.339 0,0.116 0.042,0.21 0.125,0.284 0.082,0.075 0.294,0.151 0.639,0.228 0.344,0.079 0.58,0.146 0.709,0.205 0.186,0.086 0.324,0.195 0.413,0.326 0.088,0.132 0.132,0.284 0.132,0.456 0,0.17 -0.048,0.33 -0.146,0.481 -0.097,0.151 -0.237,0.268 -0.42,0.352 -0.183,0.083 -0.389,0.125 -0.617,0.125 -0.29,0 -0.533,-0.042 -0.728,-0.127 -0.196,-0.084 -0.349,-0.21 -0.461,-0.381 -0.111,-0.169 -0.17,-0.361 -0.175,-0.575zm5.41 -0.094l0.425 0.107c-0.089,0.348 -0.249,0.613 -0.48,0.797 -0.231,0.182 -0.512,0.273 -0.846,0.273 -0.346,0 -0.626,-0.07 -0.842,-0.21 -0.216,-0.141 -0.381,-0.345 -0.494,-0.611 -0.112,-0.266 -0.169,-0.553 -0.169,-0.858 0,-0.333 0.064,-0.624 0.191,-0.873 0.127,-0.248 0.309,-0.436 0.544,-0.565 0.235,-0.129 0.494,-0.193 0.776,-0.193 0.321,0 0.59,0.081 0.808,0.244 0.219,0.163 0.371,0.392 0.456,0.688l-0.416 0.099c-0.075,-0.234 -0.182,-0.403 -0.324,-0.509 -0.141,-0.107 -0.318,-0.16 -0.533,-0.16 -0.246,0 -0.451,0.059 -0.616,0.177 -0.166,0.118 -0.282,0.276 -0.348,0.475 -0.067,0.198 -0.101,0.404 -0.101,0.614 0,0.273 0.04,0.51 0.119,0.714 0.079,0.203 0.202,0.355 0.37,0.455 0.168,0.101 0.349,0.151 0.544,0.151 0.237,0 0.438,-0.069 0.603,-0.205 0.164,-0.137 0.275,-0.341 0.333,-0.61zm3.047 -2.079l0.424 0 0 1.85c0,0.322 -0.036,0.577 -0.109,0.767 -0.073,0.189 -0.205,0.342 -0.395,0.461 -0.19,0.119 -0.439,0.178 -0.748,0.178 -0.299,0 -0.545,-0.051 -0.735,-0.155 -0.191,-0.103 -0.327,-0.253 -0.409,-0.449 -0.082,-0.196 -0.122,-0.462 -0.122,-0.802l0 -1.85 0.424 0 0 1.848c0,0.278 0.026,0.483 0.077,0.614 0.052,0.132 0.141,0.234 0.266,0.305 0.126,0.072 0.28,0.108 0.462,0.108 0.312,0 0.534,-0.071 0.667,-0.213 0.132,-0.141 0.198,-0.412 0.198,-0.814l0 -1.848zm1.138 3.202l0 -3.202 2.315 0 0 0.378 -1.891 0 0 0.98 1.771 0 0 0.376 -1.771 0 0 1.09 1.965 0 0 0.378 -2.389 0zm2.957 0l0 -3.202 0.424 0 0 2.824 1.576 0 0 0.378 -2 0zm2.153 0l1.23 -3.202 0.456 0 1.311 3.202 -0.483 0 -0.374 -0.97 -1.339 0 -0.351 0.97 -0.45 0zm0.924 -1.315l1.086 0 -0.335 -0.887c-0.101,-0.269 -0.177,-0.49 -0.227,-0.664 -0.04,0.206 -0.098,0.41 -0.173,0.612l-0.351 0.939zm-16.23 5.679l0.478 0.121c-0.1,0.391 -0.28,0.69 -0.54,0.897 -0.26,0.206 -0.577,0.308 -0.954,0.308 -0.389,0 -0.704,-0.079 -0.948,-0.237 -0.243,-0.158 -0.429,-0.388 -0.556,-0.687 -0.127,-0.301 -0.191,-0.624 -0.191,-0.968 0,-0.375 0.072,-0.703 0.216,-0.982 0.143,-0.28 0.347,-0.493 0.613,-0.638 0.264,-0.145 0.556,-0.217 0.874,-0.217 0.361,0 0.664,0.091 0.91,0.275 0.246,0.184 0.417,0.442 0.514,0.775l-0.469 0.111c-0.084,-0.263 -0.205,-0.453 -0.365,-0.573 -0.159,-0.121 -0.359,-0.18 -0.6,-0.18 -0.277,0 -0.508,0.066 -0.695,0.199 -0.186,0.133 -0.317,0.311 -0.392,0.535 -0.076,0.224 -0.113,0.455 -0.113,0.693 0,0.307 0.044,0.574 0.133,0.803 0.09,0.229 0.228,0.4 0.418,0.513 0.188,0.114 0.393,0.17 0.613,0.17 0.267,0 0.493,-0.077 0.678,-0.231 0.186,-0.154 0.311,-0.384 0.376,-0.687zm0.893 -0.295c0,-0.531 0.143,-0.947 0.428,-1.247 0.286,-0.301 0.654,-0.451 1.106,-0.451 0.295,0 0.562,0.07 0.799,0.211 0.237,0.142 0.418,0.339 0.542,0.591 0.125,0.252 0.187,0.539 0.187,0.859 0,0.325 -0.065,0.616 -0.196,0.872 -0.131,0.256 -0.317,0.45 -0.557,0.582 -0.241,0.132 -0.5,0.197 -0.778,0.197 -0.301,0 -0.571,-0.072 -0.807,-0.218 -0.238,-0.146 -0.418,-0.345 -0.54,-0.596 -0.123,-0.252 -0.184,-0.518 -0.184,-0.8zm0.437 0.007c0,0.386 0.104,0.69 0.311,0.912 0.208,0.222 0.468,0.333 0.781,0.333 0.319,0 0.582,-0.112 0.787,-0.336 0.206,-0.225 0.31,-0.543 0.31,-0.955 0,-0.26 -0.045,-0.488 -0.133,-0.682 -0.088,-0.195 -0.217,-0.345 -0.386,-0.453 -0.17,-0.106 -0.36,-0.16 -0.571,-0.16 -0.301,0 -0.558,0.103 -0.774,0.309 -0.217,0.206 -0.325,0.551 -0.325,1.032zm3.153 1.553l0 -3.202 0.425 0 0 2.824 1.576 0 0 0.378 -2.001 0zm2.377 -1.56c0,-0.531 0.142,-0.947 0.427,-1.247 0.286,-0.301 0.654,-0.451 1.106,-0.451 0.295,0 0.562,0.07 0.799,0.211 0.237,0.142 0.418,0.339 0.543,0.591 0.124,0.252 0.186,0.539 0.186,0.859 0,0.325 -0.065,0.616 -0.196,0.872 -0.131,0.256 -0.317,0.45 -0.557,0.582 -0.24,0.132 -0.499,0.197 -0.777,0.197 -0.302,0 -0.571,-0.072 -0.808,-0.218 -0.238,-0.146 -0.418,-0.345 -0.54,-0.596 -0.122,-0.252 -0.183,-0.518 -0.183,-0.8zm0.436 0.007c0,0.386 0.104,0.69 0.312,0.912 0.207,0.222 0.467,0.333 0.781,0.333 0.319,0 0.581,-0.112 0.787,-0.336 0.206,-0.225 0.309,-0.543 0.309,-0.955 0,-0.26 -0.045,-0.488 -0.133,-0.682 -0.088,-0.195 -0.216,-0.345 -0.386,-0.453 -0.17,-0.106 -0.36,-0.16 -0.571,-0.16 -0.3,0 -0.558,0.103 -0.774,0.309 -0.216,0.206 -0.325,0.551 -0.325,1.032zm3.158 1.553l0 -3.202 0.638 0 0.758 2.267c0.07,0.211 0.121,0.369 0.152,0.474 0.037,-0.116 0.093,-0.288 0.171,-0.513l0.766 -2.228 0.571 0 0 3.202 -0.409 0 0 -2.68 -0.93 2.68 -0.383 0 -0.925 -2.726 0 2.726 -0.409 0zm3.721 0l0 -3.202 1.202 0c0.244,0 0.441,0.033 0.588,0.097 0.149,0.065 0.264,0.165 0.347,0.3 0.084,0.134 0.126,0.275 0.126,0.422 0,0.137 -0.037,0.266 -0.111,0.387 -0.074,0.12 -0.187,0.218 -0.337,0.293 0.194,0.056 0.343,0.153 0.447,0.289 0.104,0.138 0.157,0.299 0.157,0.486 0,0.15 -0.033,0.289 -0.096,0.418 -0.063,0.129 -0.142,0.228 -0.235,0.298 -0.093,0.07 -0.21,0.122 -0.35,0.158 -0.14,0.036 -0.313,0.054 -0.517,0.054l-1.221 0zm0.424 -1.856l0.693 0c0.187,0 0.322,-0.013 0.404,-0.038 0.107,-0.031 0.189,-0.084 0.243,-0.159 0.055,-0.074 0.082,-0.168 0.082,-0.28 0,-0.106 -0.025,-0.199 -0.076,-0.28 -0.052,-0.081 -0.125,-0.136 -0.218,-0.166 -0.095,-0.03 -0.258,-0.045 -0.488,-0.045l-0.64 0 0 0.968zm0 1.478l0.797 0c0.137,0 0.234,-0.005 0.289,-0.015 0.097,-0.018 0.179,-0.047 0.244,-0.088 0.066,-0.04 0.12,-0.1 0.162,-0.177 0.042,-0.079 0.063,-0.168 0.063,-0.27 0,-0.119 -0.03,-0.223 -0.091,-0.312 -0.061,-0.088 -0.146,-0.15 -0.255,-0.185 -0.108,-0.035 -0.265,-0.053 -0.469,-0.053l-0.74 0 0 1.1zm2.65 0.378l0 -3.202 0.423 0 0 3.202 -0.423 0zm0.818 0l1.23 -3.202 0.456 0 1.311 3.202 -0.483 0 -0.374 -0.97 -1.338 0 -0.352 0.97 -0.45 0zm0.924 -1.315l1.086 0 -0.335 -0.886c-0.101,-0.269 -0.177,-0.491 -0.226,-0.664 -0.042,0.205 -0.099,0.409 -0.174,0.611l-0.351 0.939zm2.407 1.315l0 -3.202 0.434 0 1.682 2.514 0 -2.514 0.406 0 0 3.202 -0.435 0 -1.681 -2.516 0 2.516 -0.406 0zm2.882 0l1.23 -3.202 0.456 0 1.311 3.202 -0.483 0 -0.374 -0.97 -1.338 0 -0.351 0.97 -0.451 0zm0.924 -1.315l1.086 0 -0.335 -0.886c-0.101,-0.269 -0.177,-0.491 -0.226,-0.664 -0.041,0.205 -0.099,0.409 -0.174,0.611l-0.351 0.939zm-27.821 6.944l0 -3.202 1.103 0c0.249,0 0.439,0.016 0.57,0.047 0.184,0.041 0.34,0.118 0.47,0.228 0.168,0.144 0.295,0.325 0.379,0.547 0.084,0.223 0.125,0.476 0.125,0.762 0,0.243 -0.028,0.458 -0.085,0.646 -0.057,0.188 -0.129,0.344 -0.219,0.467 -0.088,0.122 -0.185,0.22 -0.291,0.289 -0.105,0.071 -0.233,0.125 -0.382,0.162 -0.15,0.036 -0.321,0.054 -0.514,0.054l-1.156 0zm0.424 -0.378l0.684 0c0.21,0 0.377,-0.019 0.497,-0.059 0.12,-0.039 0.215,-0.095 0.287,-0.166 0.1,-0.1 0.179,-0.236 0.235,-0.405 0.055,-0.17 0.084,-0.375 0.084,-0.617 0,-0.335 -0.056,-0.592 -0.165,-0.772 -0.11,-0.18 -0.244,-0.3 -0.401,-0.361 -0.113,-0.044 -0.297,-0.066 -0.548,-0.066l-0.673 0 0 2.446zm2.815 0.378l0 -3.202 2.315 0 0 0.378 -1.891 0 0 0.98 1.771 0 0 0.376 -1.771 0 0 1.09 1.966 0 0 0.378 -2.39 0zm4.5 0l0 -3.607 0.477 0 0 3.607 -0.477 0zm1.27 0l0 -3.202 0.434 0 1.682 2.514 0 -2.514 0.406 0 0 3.202 -0.434 0 -1.682 -2.516 0 2.516 -0.406 0zm4.733 -1.256l0 -0.375 1.356 -0.002 0 1.187c-0.208,0.166 -0.423,0.291 -0.645,0.375 -0.221,0.084 -0.448,0.125 -0.681,0.125 -0.314,0 -0.601,-0.067 -0.857,-0.202 -0.257,-0.134 -0.451,-0.329 -0.582,-0.583 -0.131,-0.255 -0.197,-0.54 -0.197,-0.855 0,-0.311 0.066,-0.602 0.196,-0.872 0.13,-0.27 0.317,-0.471 0.562,-0.602 0.245,-0.13 0.526,-0.196 0.845,-0.196 0.231,0 0.441,0.037 0.628,0.113 0.187,0.074 0.334,0.178 0.44,0.313 0.106,0.134 0.187,0.308 0.243,0.524l-0.383 0.105c-0.048,-0.163 -0.108,-0.292 -0.179,-0.385 -0.071,-0.093 -0.173,-0.168 -0.306,-0.223 -0.132,-0.056 -0.279,-0.085 -0.44,-0.085 -0.194,0 -0.362,0.03 -0.503,0.089 -0.141,0.059 -0.255,0.136 -0.342,0.232 -0.086,0.097 -0.154,0.202 -0.202,0.317 -0.081,0.198 -0.122,0.412 -0.122,0.644 0,0.286 0.049,0.524 0.148,0.717 0.098,0.192 0.241,0.334 0.429,0.427 0.188,0.094 0.386,0.141 0.598,0.141 0.184,0 0.363,-0.036 0.537,-0.107 0.175,-0.07 0.307,-0.145 0.397,-0.226l0 -0.596 -0.94 0zm1.989 1.256l0 -3.202 2.315 0 0 0.378 -1.892 0 0 0.98 1.772 0 0 0.376 -1.772 0 0 1.09 1.966 0 0 0.378 -2.389 0zm2.97 0l0 -3.202 0.435 0 1.681 2.514 0 -2.514 0.406 0 0 3.202 -0.434 0 -1.682 -2.516 0 2.516 -0.406 0zm3.307 0l0 -3.202 0.423 0 0 3.202 -0.423 0zm1.179 0l0 -3.202 2.314 0 0 0.378 -1.891 0 0 0.98 1.771 0 0 0.376 -1.771 0 0 1.09 1.966 0 0 0.378 -2.389 0zm2.981 0l0 -3.202 1.419 0c0.286,0 0.502,0.029 0.651,0.087 0.148,0.057 0.267,0.159 0.356,0.304 0.089,0.146 0.133,0.307 0.133,0.483 0,0.227 -0.073,0.418 -0.221,0.574 -0.147,0.156 -0.374,0.255 -0.681,0.297 0.113,0.054 0.197,0.107 0.255,0.16 0.124,0.113 0.241,0.256 0.352,0.426l0.557 0.871 -0.533 0 -0.423 -0.666c-0.124,-0.192 -0.226,-0.339 -0.307,-0.441 -0.079,-0.102 -0.151,-0.174 -0.214,-0.214 -0.064,-0.041 -0.128,-0.069 -0.193,-0.086 -0.049,-0.009 -0.127,-0.014 -0.237,-0.014l-0.491 0 0 1.421 -0.423 0zm0.423 -1.788l0.911 0c0.193,0 0.345,-0.021 0.454,-0.061 0.11,-0.04 0.192,-0.104 0.249,-0.192 0.057,-0.088 0.085,-0.183 0.085,-0.287 0,-0.151 -0.054,-0.276 -0.165,-0.373 -0.109,-0.098 -0.283,-0.146 -0.521,-0.146l-1.013 0 0 1.059zm2.872 1.788l0 -3.202 0.424 0 0 3.202 -0.424 0zm-0.109 -3.398l0.29 -0.612 0.515 0 -0.48 0.612 -0.325 0zm0.928 3.398l1.23 -3.202 0.456 0 1.31 3.202 -0.483 0 -0.373 -0.97 -1.339 0 -0.351 0.97 -0.45 0zm0.923 -1.315l1.087 0 -0.335 -0.886c-0.102,-0.269 -0.178,-0.491 -0.227,-0.664 -0.041,0.205 -0.098,0.409 -0.173,0.612l-0.352 0.938zm-31.404 5.92l0.43 -0.058c0.011,0.275 0.063,0.464 0.155,0.565 0.092,0.102 0.219,0.153 0.381,0.153 0.12,0 0.224,-0.027 0.31,-0.083 0.088,-0.054 0.147,-0.129 0.18,-0.223 0.033,-0.095 0.049,-0.245 0.049,-0.452l0 -2.485 0.477 0 0 2.458c0,0.302 -0.036,0.536 -0.109,0.702 -0.073,0.165 -0.189,0.291 -0.347,0.378 -0.158,0.087 -0.344,0.13 -0.557,0.13 -0.317,0 -0.559,-0.09 -0.727,-0.273 -0.168,-0.182 -0.249,-0.452 -0.242,-0.812zm4.819 -2.177l0.425 0 0 1.849c0,0.322 -0.037,0.578 -0.11,0.767 -0.073,0.189 -0.204,0.343 -0.394,0.461 -0.19,0.12 -0.439,0.178 -0.748,0.178 -0.3,0 -0.546,-0.051 -0.736,-0.155 -0.19,-0.102 -0.327,-0.252 -0.408,-0.448 -0.082,-0.196 -0.122,-0.463 -0.122,-0.803l0 -1.849 0.423 0 0 1.847c0,0.279 0.026,0.483 0.078,0.615 0.051,0.132 0.14,0.233 0.266,0.304 0.126,0.072 0.28,0.108 0.462,0.108 0.311,0 0.533,-0.071 0.666,-0.212 0.132,-0.141 0.198,-0.413 0.198,-0.815l0 -1.847zm1.112 3.201l0 -3.201 0.424 0 0 2.823 1.577 0 0 0.378 -2.001 0zm2.577 0l0 -3.201 0.424 0 0 3.201 -0.424 0zm1.042 -1.559c0,-0.532 0.142,-0.948 0.428,-1.248 0.285,-0.301 0.654,-0.451 1.105,-0.451 0.295,0 0.562,0.071 0.799,0.212 0.237,0.141 0.418,0.338 0.543,0.591 0.124,0.252 0.186,0.539 0.186,0.858 0,0.325 -0.065,0.616 -0.196,0.872 -0.131,0.256 -0.316,0.45 -0.556,0.582 -0.241,0.132 -0.5,0.197 -0.778,0.197 -0.302,0 -0.571,-0.072 -0.808,-0.218 -0.238,-0.145 -0.417,-0.344 -0.54,-0.596 -0.122,-0.251 -0.183,-0.518 -0.183,-0.799zm0.437 0.006c0,0.386 0.103,0.69 0.311,0.912 0.207,0.222 0.468,0.333 0.781,0.333 0.319,0 0.581,-0.112 0.787,-0.336 0.206,-0.224 0.309,-0.543 0.309,-0.955 0,-0.26 -0.044,-0.487 -0.132,-0.682 -0.088,-0.194 -0.217,-0.345 -0.386,-0.452 -0.171,-0.107 -0.36,-0.161 -0.572,-0.161 -0.3,0 -0.558,0.103 -0.774,0.31 -0.216,0.205 -0.324,0.55 -0.324,1.031zm6.302 0.138l0 -0.422 1.528 -0.003 0 1.338c-0.234,0.187 -0.476,0.327 -0.726,0.422 -0.249,0.094 -0.505,0.141 -0.767,0.141 -0.355,0 -0.677,-0.075 -0.966,-0.227 -0.29,-0.151 -0.508,-0.371 -0.656,-0.658 -0.148,-0.287 -0.222,-0.608 -0.222,-0.962 0,-0.351 0.074,-0.679 0.221,-0.983 0.146,-0.305 0.358,-0.531 0.633,-0.678 0.276,-0.147 0.593,-0.221 0.953,-0.221 0.26,0 0.496,0.042 0.707,0.127 0.211,0.084 0.376,0.201 0.495,0.353 0.12,0.151 0.211,0.347 0.274,0.59l-0.431 0.118c-0.054,-0.184 -0.121,-0.328 -0.201,-0.433 -0.081,-0.105 -0.196,-0.189 -0.345,-0.252 -0.149,-0.063 -0.315,-0.095 -0.497,-0.095 -0.218,0 -0.407,0.033 -0.566,0.1 -0.159,0.066 -0.287,0.154 -0.385,0.262 -0.098,0.108 -0.173,0.227 -0.228,0.357 -0.091,0.222 -0.138,0.464 -0.138,0.725 0,0.322 0.056,0.591 0.167,0.807 0.111,0.217 0.272,0.378 0.484,0.482 0.211,0.106 0.435,0.158 0.673,0.158 0.207,0 0.409,-0.04 0.605,-0.12 0.198,-0.079 0.346,-0.163 0.448,-0.254l0 -0.672 -1.06 0zm1.836 1.415l1.23 -3.201 0.456 0 1.311 3.201 -0.483 0 -0.374 -0.97 -1.339 0 -0.351 0.97 -0.45 0zm0.924 -1.315l1.086 0 -0.335 -0.886c-0.101,-0.269 -0.177,-0.491 -0.227,-0.664 -0.041,0.205 -0.098,0.409 -0.172,0.612l-0.352 0.938zm2.418 1.315l0 -3.201 1.419 0c0.286,0 0.502,0.028 0.651,0.086 0.148,0.057 0.267,0.159 0.356,0.304 0.089,0.146 0.133,0.307 0.133,0.483 0,0.227 -0.073,0.418 -0.221,0.574 -0.147,0.156 -0.374,0.255 -0.681,0.298 0.113,0.053 0.198,0.106 0.255,0.159 0.124,0.113 0.241,0.256 0.352,0.426l0.557 0.871 -0.533 0 -0.423 -0.666c-0.124,-0.192 -0.226,-0.339 -0.306,-0.441 -0.08,-0.102 -0.152,-0.173 -0.215,-0.214 -0.063,-0.041 -0.128,-0.069 -0.193,-0.086 -0.049,-0.009 -0.127,-0.014 -0.237,-0.014l-0.491 0 0 1.421 -0.423 0zm0.423 -1.788l0.911 0c0.193,0 0.345,-0.02 0.454,-0.061 0.11,-0.04 0.192,-0.104 0.249,-0.192 0.057,-0.088 0.085,-0.183 0.085,-0.287 0,-0.151 -0.054,-0.276 -0.165,-0.373 -0.109,-0.098 -0.283,-0.146 -0.521,-0.146l-1.013 0 0 1.059zm2.448 1.788l1.23 -3.201 0.456 0 1.311 3.201 -0.483 0 -0.374 -0.97 -1.338 0 -0.352 0.97 -0.45 0zm0.924 -1.315l1.086 0 -0.335 -0.886c-0.101,-0.269 -0.177,-0.491 -0.226,-0.664 -0.041,0.205 -0.099,0.409 -0.173,0.612l-0.352 0.938zm2.994 1.315l-1.24 -3.201 0.459 0 0.832 2.325c0.067,0.187 0.123,0.362 0.167,0.524 0.051,-0.174 0.108,-0.349 0.174,-0.524l0.864 -2.325 0.432 0 -1.253 3.201 -0.435 0zm2.141 0l0 -3.201 0.423 0 0 3.201 -0.423 0zm1.985 0l0 -2.823 -1.055 0 0 -0.378 2.538 0 0 0.378 -1.06 0 0 2.823 -0.423 0zm1.708 -1.559c0,-0.532 0.142,-0.948 0.428,-1.248 0.285,-0.301 0.653,-0.451 1.105,-0.451 0.295,0 0.562,0.071 0.799,0.212 0.237,0.141 0.418,0.338 0.543,0.591 0.124,0.252 0.186,0.539 0.186,0.858 0,0.325 -0.065,0.616 -0.196,0.872 -0.131,0.256 -0.317,0.45 -0.557,0.582 -0.241,0.132 -0.499,0.197 -0.777,0.197 -0.302,0 -0.571,-0.072 -0.808,-0.218 -0.238,-0.145 -0.418,-0.344 -0.54,-0.596 -0.122,-0.251 -0.183,-0.518 -0.183,-0.799zm0.437 0.006c0,0.386 0.103,0.69 0.31,0.912 0.208,0.222 0.468,0.333 0.782,0.333 0.319,0 0.581,-0.112 0.787,-0.336 0.205,-0.224 0.309,-0.543 0.309,-0.955 0,-0.26 -0.044,-0.487 -0.133,-0.682 -0.087,-0.194 -0.216,-0.345 -0.386,-0.452 -0.17,-0.107 -0.36,-0.161 -0.571,-0.161 -0.3,0 -0.558,0.103 -0.774,0.31 -0.216,0.205 -0.324,0.55 -0.324,1.031z"/>
    <g>
     <g>
      <g>
       <path class="fil2" d="M18.165 25.918c-0.051,0.052 -0.135,0.052 -0.187,0.001 -0.052,-0.051 -0.052,-0.135 -0.001,-0.187l0.188 0.186zm12.653 -12.715l-12.653 12.715 -0.188 -0.186 12.654 -12.715 0.187 0.186zm-0.187 -0.186c0.051,-0.052 0.135,-0.052 0.187,-0.001 0.052,0.051 0.052,0.135 0,0.187l-0.187 -0.186z"/>
      </g>
      <g>
       <path class="fil2" d="M26.641 25.851c-0.014,0.071 -0.084,0.118 -0.155,0.104 -0.071,-0.014 -0.118,-0.084 -0.104,-0.156l0.259 0.052zm4.208 -21.219l-4.208 21.219 -0.259 -0.052 4.208 -21.218 0.259 0.051zm-0.259 -0.051c0.014,-0.072 0.083,-0.118 0.155,-0.104 0.071,0.014 0.118,0.084 0.104,0.155l-0.259 -0.051z"/>
      </g>
      <g>
       <path class="fil2" d="M22.456 25.814c-0.033,0.065 -0.112,0.091 -0.178,0.059 -0.065,-0.032 -0.091,-0.112 -0.059,-0.177l0.237 0.118zm8.387 -16.948l-8.387 16.948 -0.237 -0.118 8.387 -16.947 0.237 0.117zm-0.237 -0.117c0.032,-0.065 0.112,-0.092 0.177,-0.06 0.066,0.032 0.092,0.112 0.06,0.177l-0.237 -0.117z"/>
      </g>
      <g>
       <path class="fil2" d="M13.872 25.943c-0.065,0.033 -0.145,0.007 -0.178,-0.059 -0.032,-0.065 -0.006,-0.144 0.059,-0.177l0.119 0.236zm16.912 -8.506l-16.912 8.506 -0.119 -0.236 16.912 -8.506 0.119 0.236zm-0.119 -0.236c0.065,-0.033 0.145,-0.006 0.178,0.059 0.032,0.065 0.006,0.144 -0.059,0.177l-0.119 -0.236z"/>
      </g>
      <g>
       <path class="fil2" d="M9.62 25.922c-0.071,0.014 -0.141,-0.033 -0.155,-0.104 -0.014,-0.071 0.033,-0.141 0.104,-0.155l0.051 0.259zm21.13 -4.207l-21.13 4.207 -0.051 -0.259 21.13 -4.207 0.051 0.259zm-0.051 -0.259c0.071,-0.014 0.141,0.033 0.155,0.104 0.014,0.071 -0.032,0.141 -0.104,0.155l-0.051 -0.259z"/>
      </g>
     </g>
     <g>
      <path class="fil2" d="M18.071 25.957c-0.073,0 -0.132,-0.059 -0.132,-0.132 0,-0.073 0.059,-0.132 0.132,-0.132l0 0.264zm2.09 0l-2.09 0 0 -0.264 2.09 0 0.108 0.209 -0.108 0.055zm0 -0.264c0.073,0 0.132,0.059 0.132,0.132 0,0.073 -0.059,0.132 -0.132,0.132l0 -0.264zm10.671 -14.623l-10.563 14.832 -0.216 -0.153 10.564 -14.833 0.24 0.077 -0.025 0.077zm-0.215 -0.154c0.042,-0.059 0.125,-0.073 0.184,-0.031 0.06,0.043 0.074,0.125 0.031,0.185l-0.215 -0.154zm0.24 -2.108l0 2.185 -0.264 0 0 -2.185 0.264 0zm-0.264 0c0,-0.073 0.059,-0.132 0.132,-0.132 0.072,0 0.132,0.059 0.132,0.132l-0.264 0z"/>
     </g>
     <g>
      <path class="fil2" d="M30.593 21.586c0,-0.073 0.059,-0.132 0.132,-0.132 0.072,0 0.132,0.059 0.132,0.132l-0.264 0zm0 2.122l0 -2.122 0.264 0 0 2.122 -0.119 0.132 -0.145 -0.132zm0.264 0c0,0.073 -0.06,0.132 -0.132,0.132 -0.073,0 -0.132,-0.059 -0.132,-0.132l0.264 0zm-21.275 1.986l21.129 -2.117 0.027 0.263 -21.13 2.117 -0.013 0 -0.013 -0.263zm0.026 0.263c-0.073,0.007 -0.138,-0.046 -0.145,-0.119 -0.007,-0.072 0.046,-0.137 0.119,-0.144l0.026 0.263zm2.154 0l-2.167 0 0 -0.264 2.167 0 0.042 0.257 -0.042 0.007zm0 -0.264c0.073,0 0.132,0.059 0.132,0.132 0,0.073 -0.059,0.132 -0.132,0.132l0 -0.264zm19.005 -6.127l-18.963 6.384 -0.084 -0.25 18.962 -6.385 0.175 0.126 -0.09 0.125zm-0.085 -0.251c0.069,-0.023 0.145,0.014 0.168,0.083 0.023,0.069 -0.014,0.145 -0.083,0.168l-0.085 -0.251zm0.175 -1.996l0 2.122 -0.264 0 0 -2.122 0.264 0zm-0.264 0c0,-0.073 0.059,-0.132 0.132,-0.132 0.072,0 0.132,0.059 0.132,0.132l-0.264 0z"/>
     </g>
     <g>
      <path class="fil2" d="M30.593 13.11c0,-0.073 0.059,-0.132 0.132,-0.132 0.072,0 0.132,0.059 0.132,0.132l-0.264 0zm0 2.085l0 -2.085 0.264 0 0 2.085 -0.055 0.108 -0.209 -0.108zm0.264 0c0,0.073 -0.06,0.132 -0.132,0.132 -0.073,0 -0.132,-0.059 -0.132,-0.132l0.264 0zm-15.019 10.523l14.809 -10.63 0.155 0.215 -14.809 10.63 -0.078 0.024 -0.077 -0.239zm0.155 0.215c-0.06,0.042 -0.142,0.029 -0.185,-0.031 -0.042,-0.059 -0.029,-0.142 0.03,-0.184l0.155 0.215zm-2.181 -0.24l2.103 0 0 0.264 -2.103 0 0 -0.264zm0 0.264c-0.072,0 -0.132,-0.059 -0.132,-0.132 0,-0.073 0.06,-0.132 0.132,-0.132l0 0.264z"/>
     </g>
     <g>
      <path class="fil2" d="M32.025 23.73c0,0.073 -0.054,0.132 -0.12,0.132 -0.065,0 -0.119,-0.059 -0.119,-0.132l0.239 0zm0 -21.325l0 21.325 -0.239 0 0 -21.325 0.239 0zm-0.239 0c0,-0.073 0.054,-0.132 0.119,-0.132 0.066,0 0.12,0.059 0.12,0.132l-0.239 0z"/>
     </g>
     <g>
      <path class="fil2" d="M33.066 26.673c0.073,0 0.132,0.055 0.132,0.123 0,0.068 -0.059,0.123 -0.132,0.123l0 -0.246zm-25.66 0l25.66 0 0 0.246 -25.66 0 0 -0.246zm0 0.246c-0.073,0 -0.132,-0.055 -0.132,-0.123 0,-0.068 0.059,-0.123 0.132,-0.123l0 0.246z"/>
     </g>
     <g>
      <path class="fil2" d="M26.512 25.957c-0.073,0 -0.132,-0.059 -0.132,-0.132 0,-0.073 0.059,-0.132 0.132,-0.132l0 0.264zm2.129 0l-2.129 0 0 -0.264 2.129 0 0.132 0.145 -0.132 0.119zm0 -0.264c0.073,0 0.133,0.059 0.133,0.132 0,0.073 -0.06,0.132 -0.133,0.132l0 -0.264zm2.215 -21.106l-2.083 21.251 -0.263 -0.026 2.083 -21.25 0.264 0.012 -0.001 0.013zm-0.263 -0.025c0.007,-0.073 0.072,-0.126 0.144,-0.119 0.073,0.007 0.126,0.072 0.119,0.144l-0.263 -0.025zm0 2.204l0 -2.192 0.264 0 0 2.192 -0.007 0.041 -0.257 -0.041zm0.264 0c0,0.072 -0.06,0.132 -0.132,0.132 -0.073,0 -0.132,-0.06 -0.132,-0.132l0.264 0zm-6.539 19.018l6.281 -19.06 0.251 0.083 -6.281 19.06 -0.126 0.09 -0.125 -0.173zm0.251 0.083c-0.023,0.069 -0.098,0.106 -0.167,0.084 -0.069,-0.023 -0.107,-0.098 -0.084,-0.167l0.251 0.083zm-2.236 -0.174l2.11 0 0 0.264 -2.11 0 0 -0.264zm0 0.264c-0.073,0 -0.132,-0.059 -0.132,-0.132 0,-0.073 0.059,-0.132 0.132,-0.132l0 0.264z"/>
     </g>
    </g>
    <path class="fil2" d="M24.046 32.544l0.517 0 0 2.252c0,0.392 -0.044,0.704 -0.132,0.934 -0.089,0.23 -0.249,0.418 -0.479,0.563 -0.232,0.144 -0.534,0.216 -0.91,0.216 -0.364,0 -0.663,-0.063 -0.895,-0.188 -0.232,-0.127 -0.397,-0.308 -0.496,-0.547 -0.099,-0.239 -0.149,-0.565 -0.149,-0.978l0 -2.252 0.517 0 0 2.251c0,0.339 0.032,0.589 0.095,0.749 0.063,0.161 0.17,0.285 0.323,0.372 0.153,0.087 0.34,0.13 0.56,0.13 0.378,0 0.648,-0.086 0.808,-0.257 0.161,-0.173 0.241,-0.504 0.241,-0.994l0 -2.251zm1.374 3.9l0 -3.9 0.53 0 2.046 3.061 0 -3.061 0.496 0 0 3.9 -0.53 0 -2.046 -3.062 0 3.062 -0.496 0zm4.026 0l0 -3.9 0.518 0 0 3.9 -0.518 0zm2.538 0l-1.507 -3.9 0.559 0 1.013 2.834c0.081,0.227 0.15,0.439 0.205,0.639 0.059,-0.214 0.129,-0.426 0.209,-0.639l1.052 -2.834 0.526 0 -1.521 3.9 -0.536 0zm2.533 0l0 -3.9 2.816 0 0 0.457 -2.299 0 0 1.199 2.152 0 0 0.457 -2.152 0 0 1.329 2.392 0 0 0.458 -2.909 0zm3.633 0l0 -3.9 1.729 0c0.347,0 0.612,0.035 0.793,0.105 0.18,0.07 0.324,0.193 0.433,0.371 0.108,0.176 0.161,0.372 0.161,0.587 0,0.277 -0.09,0.51 -0.268,0.7 -0.179,0.189 -0.455,0.309 -0.829,0.361 0.137,0.066 0.24,0.131 0.311,0.194 0.151,0.138 0.293,0.312 0.426,0.52l0.675 1.062 -0.644 0 -0.516 -0.812c-0.15,-0.235 -0.274,-0.414 -0.372,-0.538 -0.098,-0.124 -0.185,-0.211 -0.262,-0.261 -0.076,-0.049 -0.155,-0.083 -0.235,-0.103 -0.058,-0.012 -0.153,-0.018 -0.287,-0.018l-0.597 0 0 1.732 -0.518 0zm0.518 -2.179l1.108 0c0.235,0 0.419,-0.024 0.551,-0.074 0.133,-0.048 0.234,-0.126 0.302,-0.234 0.069,-0.107 0.103,-0.223 0.103,-0.349 0,-0.185 -0.066,-0.337 -0.199,-0.456 -0.134,-0.119 -0.345,-0.178 -0.632,-0.178l-1.233 0 0 1.291zm3.237 0.926l0.484 -0.044c0.023,0.197 0.076,0.357 0.161,0.484 0.084,0.125 0.215,0.226 0.392,0.305 0.177,0.077 0.377,0.116 0.598,0.116 0.198,0 0.371,-0.029 0.522,-0.088 0.15,-0.059 0.262,-0.14 0.336,-0.243 0.073,-0.102 0.11,-0.214 0.11,-0.334 0,-0.122 -0.035,-0.228 -0.106,-0.319 -0.071,-0.091 -0.188,-0.168 -0.351,-0.23 -0.104,-0.04 -0.336,-0.103 -0.695,-0.19 -0.359,-0.086 -0.609,-0.167 -0.752,-0.243 -0.187,-0.098 -0.325,-0.22 -0.416,-0.364 -0.091,-0.145 -0.136,-0.307 -0.136,-0.486 0,-0.198 0.056,-0.382 0.168,-0.553 0.111,-0.171 0.274,-0.301 0.489,-0.39 0.214,-0.089 0.453,-0.133 0.715,-0.133 0.289,0 0.544,0.045 0.765,0.139 0.22,0.093 0.39,0.23 0.509,0.411 0.119,0.181 0.183,0.386 0.192,0.615l-0.496 0.038c-0.026,-0.246 -0.116,-0.432 -0.27,-0.557 -0.153,-0.126 -0.38,-0.189 -0.68,-0.189 -0.312,0 -0.54,0.057 -0.683,0.172 -0.142,0.114 -0.214,0.252 -0.214,0.413 0,0.14 0.051,0.256 0.152,0.346 0.1,0.09 0.359,0.184 0.778,0.278 0.419,0.096 0.707,0.178 0.863,0.249 0.226,0.104 0.394,0.236 0.502,0.397 0.109,0.159 0.162,0.344 0.162,0.553 0,0.208 -0.059,0.402 -0.178,0.585 -0.119,0.184 -0.289,0.326 -0.511,0.428 -0.223,0.102 -0.472,0.152 -0.751,0.152 -0.352,0 -0.647,-0.051 -0.885,-0.154 -0.239,-0.102 -0.425,-0.257 -0.56,-0.464 -0.136,-0.206 -0.207,-0.439 -0.214,-0.7zm3.889 1.253l0 -3.9 0.517 0 0 3.9 -0.517 0zm1.426 0l0 -3.9 1.344 0c0.303,0 0.534,0.018 0.694,0.055 0.224,0.052 0.414,0.145 0.572,0.28 0.206,0.174 0.36,0.395 0.462,0.666 0.102,0.271 0.153,0.58 0.153,0.928 0,0.296 -0.034,0.558 -0.103,0.787 -0.07,0.229 -0.159,0.419 -0.267,0.569 -0.108,0.149 -0.226,0.267 -0.356,0.353 -0.127,0.086 -0.283,0.151 -0.464,0.196 -0.183,0.044 -0.391,0.066 -0.627,0.066l-1.408 0zm0.518 -0.458l0.831 0c0.257,0 0.459,-0.023 0.605,-0.071 0.146,-0.049 0.262,-0.116 0.349,-0.203 0.122,-0.122 0.218,-0.288 0.286,-0.495 0.068,-0.206 0.102,-0.457 0.102,-0.752 0,-0.409 -0.067,-0.723 -0.201,-0.943 -0.133,-0.219 -0.296,-0.367 -0.487,-0.441 -0.138,-0.053 -0.36,-0.08 -0.667,-0.08l-0.818 0 0 2.985zm2.989 0.458l1.496 -3.9 0.567 0 1.588 3.9 -0.587 0 -0.451 -1.182 -1.643 0 -0.423 1.182 -0.547 0zm1.122 -1.601l1.329 0 -0.407 -1.082c-0.122,-0.329 -0.215,-0.6 -0.28,-0.814 -0.053,0.254 -0.125,0.504 -0.215,0.751l-0.427 1.145zm2.938 1.601l0 -3.9 1.344 0c0.304,0 0.535,0.018 0.695,0.055 0.223,0.052 0.414,0.145 0.572,0.28 0.206,0.174 0.359,0.395 0.461,0.666 0.103,0.271 0.153,0.58 0.153,0.928 0,0.296 -0.034,0.558 -0.103,0.787 -0.069,0.229 -0.158,0.419 -0.266,0.569 -0.109,0.149 -0.227,0.267 -0.356,0.353 -0.128,0.086 -0.283,0.151 -0.465,0.196 -0.182,0.044 -0.391,0.066 -0.627,0.066l-1.408 0zm0.518 -0.458l0.832 0c0.257,0 0.458,-0.023 0.604,-0.071 0.146,-0.049 0.263,-0.116 0.35,-0.203 0.121,-0.122 0.217,-0.288 0.285,-0.495 0.068,-0.206 0.103,-0.457 0.103,-0.752 0,-0.409 -0.068,-0.723 -0.201,-0.943 -0.134,-0.219 -0.296,-0.367 -0.488,-0.441 -0.138,-0.053 -0.36,-0.08 -0.667,-0.08l-0.818 0 0 2.985z"/>
    <rect class="fil3" x="7.233" y="28.519" width="65.048" height="2.087"/>
   </g>
   <g>
    <path class="fil3" d="M135.661 14.115c-0.296,0.157 -0.664,0.235 -1.106,0.235 -0.57,0 -1.025,-0.183 -1.367,-0.55 -0.344,-0.367 -0.515,-0.849 -0.515,-1.444 0,-0.64 0.193,-1.158 0.578,-1.552 0.385,-0.396 0.874,-0.593 1.466,-0.593 0.38,0 0.694,0.055 0.944,0.165l0 0.5c-0.287,-0.16 -0.603,-0.24 -0.949,-0.24 -0.46,0 -0.832,0.153 -1.119,0.46 -0.285,0.307 -0.428,0.718 -0.428,1.232 0,0.488 0.133,0.877 0.4,1.166 0.268,0.289 0.617,0.434 1.052,0.434 0.402,0 0.75,-0.089 1.044,-0.267l0 0.454zm3.052 -1.148l-2.019 0c0.008,0.319 0.094,0.565 0.258,0.738 0.163,0.173 0.389,0.26 0.675,0.26 0.323,0 0.618,-0.106 0.889,-0.319l0 0.43c-0.252,0.183 -0.585,0.274 -0.997,0.274 -0.404,0 -0.722,-0.13 -0.952,-0.389 -0.232,-0.26 -0.348,-0.625 -0.348,-1.097 0,-0.445 0.127,-0.807 0.379,-1.087 0.253,-0.28 0.566,-0.42 0.94,-0.42 0.374,0 0.663,0.121 0.868,0.363 0.205,0.241 0.307,0.577 0.307,1.007l0 0.24zm-0.469 -0.387c-0.002,-0.264 -0.066,-0.471 -0.191,-0.618 -0.125,-0.147 -0.3,-0.22 -0.524,-0.22 -0.215,0 -0.399,0.077 -0.55,0.231 -0.15,0.155 -0.244,0.357 -0.279,0.607l1.544 0zm3.537 1.703l-0.459 0 0 -1.631c0,-0.607 -0.221,-0.91 -0.664,-0.91 -0.229,0 -0.419,0.086 -0.568,0.258 -0.151,0.172 -0.225,0.39 -0.225,0.652l0 1.631 -0.459 0 0 -2.86 0.459 0 0 0.475 0.011 0c0.215,-0.361 0.528,-0.541 0.938,-0.541 0.312,0 0.552,0.101 0.718,0.303 0.166,0.201 0.249,0.493 0.249,0.875l0 1.748zm2.189 -0.028c-0.108,0.059 -0.251,0.089 -0.427,0.089 -0.501,0 -0.751,-0.279 -0.751,-0.838l0 -1.692 -0.492 0 0 -0.391 0.492 0 0 -0.697 0.457 -0.149 0 0.846 0.721 0 0 0.391 -0.721 0 0 1.612c0,0.192 0.033,0.328 0.099,0.41 0.064,0.082 0.172,0.123 0.324,0.123 0.115,0 0.214,-0.032 0.298,-0.095l0 0.391zm2.103 -2.368c-0.08,-0.061 -0.196,-0.092 -0.346,-0.092 -0.197,0 -0.36,0.092 -0.491,0.276 -0.131,0.184 -0.196,0.436 -0.196,0.755l0 1.457 -0.459 0 0 -2.86 0.459 0 0 0.589 0.011 0c0.065,-0.201 0.164,-0.357 0.298,-0.47 0.135,-0.113 0.284,-0.169 0.45,-0.169 0.12,0 0.21,0.013 0.274,0.039l0 0.475zm1.692 2.463c-0.423,0 -0.76,-0.134 -1.013,-0.401 -0.251,-0.267 -0.378,-0.621 -0.378,-1.062 0,-0.481 0.131,-0.856 0.394,-1.126 0.263,-0.27 0.617,-0.404 1.064,-0.404 0.426,0 0.759,0.13 0.998,0.393 0.24,0.262 0.359,0.627 0.359,1.092 0,0.456 -0.129,0.821 -0.386,1.096 -0.259,0.274 -0.605,0.412 -1.038,0.412zm0.033 -2.608c-0.294,0 -0.526,0.1 -0.698,0.3 -0.171,0.2 -0.257,0.476 -0.257,0.828 0,0.339 0.087,0.605 0.26,0.801 0.174,0.195 0.405,0.294 0.695,0.294 0.297,0 0.524,-0.097 0.683,-0.288 0.16,-0.192 0.239,-0.465 0.239,-0.818 0,-0.358 -0.079,-0.633 -0.239,-0.826 -0.159,-0.195 -0.386,-0.291 -0.683,-0.291zm6.131 2.541l-0.459 0 0 -0.486 -0.01 0c-0.213,0.369 -0.54,0.553 -0.984,0.553 -0.358,0 -0.646,-0.128 -0.86,-0.385 -0.216,-0.255 -0.324,-0.604 -0.324,-1.045 0,-0.473 0.12,-0.851 0.358,-1.136 0.238,-0.285 0.556,-0.427 0.952,-0.427 0.393,0 0.679,0.154 0.858,0.463l0.01 0 0 -1.77 0.459 0 0 4.233zm-0.459 -1.293l0 -0.422c0,-0.231 -0.076,-0.426 -0.228,-0.586 -0.153,-0.16 -0.346,-0.24 -0.581,-0.24 -0.279,0 -0.499,0.102 -0.659,0.306 -0.16,0.206 -0.241,0.489 -0.241,0.85 0,0.33 0.078,0.589 0.231,0.781 0.154,0.19 0.36,0.286 0.619,0.286 0.255,0 0.462,-0.093 0.621,-0.277 0.16,-0.184 0.238,-0.417 0.238,-0.698zm3.684 -0.023l-2.019 0c0.007,0.319 0.093,0.565 0.257,0.738 0.164,0.173 0.389,0.26 0.676,0.26 0.322,0 0.618,-0.106 0.888,-0.319l0 0.43c-0.251,0.183 -0.584,0.274 -0.997,0.274 -0.404,0 -0.721,-0.13 -0.952,-0.389 -0.231,-0.26 -0.347,-0.625 -0.347,-1.097 0,-0.445 0.127,-0.807 0.379,-1.087 0.252,-0.28 0.566,-0.42 0.939,-0.42 0.375,0 0.664,0.121 0.869,0.363 0.205,0.241 0.307,0.577 0.307,1.007l0 0.24zm-0.469 -0.387c-0.002,-0.264 -0.066,-0.471 -0.191,-0.618 -0.126,-0.147 -0.3,-0.22 -0.524,-0.22 -0.216,0 -0.4,0.077 -0.55,0.231 -0.151,0.155 -0.244,0.357 -0.279,0.607l1.544 0z"/>
    <path class="fil3" d="M136.542 23.217l-3.816 0 0 -6.363 3.67 0 0 1.166 -2.236 0 0 1.416 2.081 0 0 1.162 -2.081 0 0 1.456 2.382 0 0 1.163zm0.585 -0.12l0 -1.136c0.232,0.14 0.462,0.243 0.691,0.31 0.228,0.069 0.445,0.102 0.649,0.102 0.249,0 0.446,-0.033 0.588,-0.102 0.144,-0.067 0.215,-0.17 0.215,-0.31 0,-0.089 -0.032,-0.163 -0.097,-0.222 -0.065,-0.059 -0.148,-0.111 -0.251,-0.155 -0.102,-0.044 -0.214,-0.085 -0.335,-0.12 -0.121,-0.036 -0.238,-0.075 -0.35,-0.119 -0.18,-0.069 -0.339,-0.143 -0.477,-0.22 -0.138,-0.078 -0.253,-0.169 -0.347,-0.274 -0.092,-0.103 -0.163,-0.223 -0.212,-0.359 -0.048,-0.136 -0.074,-0.297 -0.074,-0.483 0,-0.255 0.056,-0.474 0.167,-0.657 0.11,-0.184 0.259,-0.333 0.443,-0.45 0.185,-0.117 0.397,-0.203 0.635,-0.257 0.238,-0.055 0.486,-0.082 0.744,-0.082 0.201,0 0.404,0.015 0.612,0.047 0.207,0.03 0.412,0.075 0.613,0.134l0 1.083c-0.179,-0.104 -0.368,-0.182 -0.571,-0.233 -0.203,-0.052 -0.401,-0.077 -0.597,-0.077 -0.092,0 -0.179,0.007 -0.259,0.024 -0.082,0.015 -0.154,0.039 -0.216,0.071 -0.062,0.031 -0.111,0.07 -0.146,0.12 -0.036,0.048 -0.053,0.104 -0.053,0.167 0,0.081 0.026,0.153 0.079,0.212 0.054,0.059 0.123,0.11 0.209,0.152 0.086,0.045 0.182,0.082 0.286,0.116 0.105,0.034 0.209,0.069 0.314,0.104 0.186,0.065 0.354,0.136 0.506,0.214 0.15,0.077 0.28,0.166 0.387,0.271 0.108,0.103 0.191,0.224 0.249,0.363 0.057,0.14 0.086,0.305 0.086,0.497 0,0.269 -0.057,0.5 -0.176,0.69 -0.116,0.191 -0.271,0.346 -0.465,0.465 -0.194,0.12 -0.418,0.208 -0.67,0.263 -0.254,0.054 -0.515,0.081 -0.788,0.081 -0.5,0 -0.962,-0.077 -1.389,-0.23zm7.042 0.067c-0.207,0.109 -0.519,0.163 -0.936,0.163 -0.987,0 -1.482,-0.513 -1.482,-1.539l0 -2.081 -0.736 0 0 -1.034 0.736 0 0 -0.98 1.398 -0.4 0 1.38 1.02 0 0 1.034 -1.02 0 0 1.838c0,0.472 0.188,0.709 0.563,0.709 0.149,0 0.302,-0.043 0.457,-0.129l0 1.039zm5.107 0.053l-1.397 0 0 -0.692 -0.022 0c-0.346,0.534 -0.808,0.802 -1.389,0.802 -1.054,0 -1.579,-0.637 -1.579,-1.913l0 -2.741 1.398 0 0 2.617c0,0.642 0.254,0.964 0.763,0.964 0.252,0 0.452,-0.088 0.603,-0.264 0.151,-0.176 0.226,-0.415 0.226,-0.716l0 -2.601 1.397 0 0 4.544zm5.627 0l-1.403 0 0 -0.626 -0.016 0c-0.32,0.491 -0.789,0.736 -1.407,0.736 -0.568,0 -1.025,-0.2 -1.371,-0.601 -0.346,-0.4 -0.519,-0.96 -0.519,-1.679 0,-0.752 0.19,-1.353 0.572,-1.806 0.382,-0.453 0.882,-0.678 1.5,-0.678 0.586,0 0.993,0.209 1.225,0.63l0.016 0 0 -2.702 1.403 0 0 6.726zm-1.375 -2.21l0 -0.342c0,-0.296 -0.087,-0.541 -0.258,-0.736 -0.171,-0.196 -0.395,-0.293 -0.669,-0.293 -0.311,0 -0.554,0.122 -0.729,0.365 -0.174,0.246 -0.262,0.58 -0.262,1.006 0,0.4 0.085,0.707 0.253,0.922 0.17,0.217 0.403,0.325 0.702,0.325 0.284,0 0.516,-0.114 0.695,-0.341 0.179,-0.229 0.268,-0.53 0.268,-0.906zm3.265 -3.053c-0.236,0 -0.43,-0.07 -0.58,-0.211 -0.151,-0.14 -0.227,-0.312 -0.227,-0.516 0,-0.211 0.076,-0.382 0.227,-0.515 0.15,-0.133 0.344,-0.2 0.58,-0.2 0.241,0 0.435,0.067 0.585,0.2 0.148,0.133 0.224,0.304 0.224,0.515 0,0.212 -0.076,0.388 -0.224,0.524 -0.15,0.135 -0.344,0.203 -0.585,0.203zm0.692 5.263l-1.401 0 0 -4.544 1.401 0 0 4.544zm3.346 0.11c-0.758,0 -1.353,-0.212 -1.786,-0.636 -0.433,-0.424 -0.65,-1.001 -0.65,-1.728 0,-0.751 0.224,-1.34 0.674,-1.764 0.45,-0.424 1.059,-0.636 1.824,-0.636 0.754,0 1.346,0.212 1.775,0.636 0.428,0.424 0.643,0.986 0.643,1.684 0,0.754 -0.221,1.351 -0.663,1.788 -0.442,0.438 -1.048,0.656 -1.817,0.656zm0.036 -3.691c-0.332,0 -0.589,0.114 -0.772,0.341 -0.184,0.229 -0.276,0.551 -0.276,0.968 0,0.872 0.353,1.309 1.057,1.309 0.671,0 1.007,-0.449 1.007,-1.344 0,-0.849 -0.339,-1.274 -1.016,-1.274zm3.056 3.461l0 -1.136c0.232,0.14 0.462,0.243 0.691,0.31 0.229,0.069 0.445,0.102 0.649,0.102 0.249,0 0.446,-0.033 0.588,-0.102 0.144,-0.067 0.215,-0.17 0.215,-0.31 0,-0.089 -0.032,-0.163 -0.097,-0.222 -0.065,-0.059 -0.148,-0.111 -0.251,-0.155 -0.101,-0.044 -0.214,-0.085 -0.335,-0.12 -0.121,-0.036 -0.238,-0.075 -0.35,-0.119 -0.18,-0.069 -0.339,-0.143 -0.477,-0.22 -0.138,-0.078 -0.253,-0.169 -0.347,-0.274 -0.092,-0.103 -0.163,-0.223 -0.212,-0.359 -0.048,-0.136 -0.074,-0.297 -0.074,-0.483 0,-0.255 0.056,-0.474 0.167,-0.657 0.111,-0.184 0.259,-0.333 0.443,-0.45 0.185,-0.117 0.397,-0.203 0.635,-0.257 0.238,-0.055 0.486,-0.082 0.744,-0.082 0.201,0 0.404,0.015 0.612,0.047 0.207,0.03 0.412,0.075 0.613,0.134l0 1.083c-0.179,-0.104 -0.368,-0.182 -0.571,-0.233 -0.203,-0.052 -0.401,-0.077 -0.597,-0.077 -0.092,0 -0.178,0.007 -0.259,0.024 -0.081,0.015 -0.154,0.039 -0.216,0.071 -0.062,0.031 -0.111,0.07 -0.146,0.12 -0.036,0.048 -0.053,0.104 -0.053,0.167 0,0.081 0.026,0.153 0.079,0.212 0.055,0.059 0.123,0.11 0.209,0.152 0.086,0.045 0.182,0.082 0.286,0.116 0.105,0.034 0.209,0.069 0.314,0.104 0.186,0.065 0.354,0.136 0.506,0.214 0.15,0.077 0.28,0.166 0.387,0.271 0.108,0.103 0.191,0.224 0.249,0.363 0.057,0.14 0.086,0.305 0.086,0.497 0,0.269 -0.057,0.5 -0.175,0.69 -0.117,0.191 -0.272,0.346 -0.465,0.465 -0.194,0.12 -0.419,0.208 -0.671,0.263 -0.253,0.054 -0.515,0.081 -0.788,0.081 -0.5,0 -0.962,-0.077 -1.389,-0.23z"/>
    <path class="fil3" d="M138.206 31.722l-1.437 0 0 -2.592 -2.635 0 0 2.592 -1.435 0 0 -6.363 1.435 0 0 2.538 2.635 0 0 -2.538 1.437 0 0 6.363zm2.028 -5.263c-0.236,0 -0.43,-0.07 -0.58,-0.211 -0.151,-0.141 -0.227,-0.312 -0.227,-0.516 0,-0.211 0.076,-0.382 0.227,-0.515 0.15,-0.133 0.344,-0.2 0.58,-0.2 0.241,0 0.435,0.067 0.585,0.2 0.148,0.133 0.224,0.304 0.224,0.515 0,0.212 -0.076,0.387 -0.224,0.524 -0.15,0.134 -0.344,0.203 -0.585,0.203zm0.692 5.263l-1.401 0 0 -4.544 1.401 0 0 4.544zm5.626 0l-1.402 0 0 -0.626 -0.017 0c-0.319,0.491 -0.788,0.736 -1.406,0.736 -0.568,0 -1.026,-0.2 -1.371,-0.601 -0.347,-0.4 -0.52,-0.96 -0.52,-1.68 0,-0.751 0.191,-1.352 0.573,-1.805 0.382,-0.453 0.881,-0.679 1.499,-0.679 0.586,0 0.994,0.209 1.225,0.631l0.017 0 0 -2.702 1.402 0 0 6.726zm-1.375 -2.21l0 -0.342c0,-0.296 -0.086,-0.541 -0.257,-0.736 -0.171,-0.196 -0.395,-0.293 -0.669,-0.293 -0.311,0 -0.555,0.121 -0.729,0.365 -0.174,0.246 -0.262,0.581 -0.262,1.006 0,0.4 0.085,0.707 0.253,0.922 0.17,0.217 0.403,0.324 0.701,0.324 0.285,0 0.517,-0.113 0.695,-0.34 0.179,-0.229 0.268,-0.53 0.268,-0.906zm5.521 -1.069c-0.17,-0.093 -0.367,-0.138 -0.591,-0.138 -0.304,0 -0.542,0.112 -0.715,0.335 -0.171,0.224 -0.257,0.527 -0.257,0.911l0 2.171 -1.401 0 0 -4.544 1.401 0 0 0.844 0.018 0c0.222,-0.617 0.621,-0.924 1.198,-0.924 0.148,0 0.263,0.018 0.347,0.053l0 1.292zm4.433 3.279l-1.327 0 0 -0.653 -0.018 0c-0.305,0.509 -0.756,0.763 -1.354,0.763 -0.441,0 -0.788,-0.124 -1.041,-0.374 -0.252,-0.25 -0.378,-0.585 -0.378,-1.001 0,-0.882 0.522,-1.39 1.566,-1.527l1.234 -0.163c0,-0.497 -0.27,-0.745 -0.809,-0.745 -0.54,0 -1.055,0.16 -1.543,0.483l0 -1.056c0.195,-0.101 0.462,-0.189 0.801,-0.266 0.338,-0.078 0.647,-0.116 0.926,-0.116 1.294,0 1.943,0.647 1.943,1.939l0 2.716zm-1.318 -1.847l0 -0.305 -0.825 0.106c-0.456,0.059 -0.683,0.265 -0.683,0.617 0,0.159 0.054,0.291 0.165,0.393 0.112,0.101 0.262,0.153 0.451,0.153 0.264,0 0.477,-0.091 0.644,-0.273 0.165,-0.182 0.248,-0.412 0.248,-0.691zm0.9 -4.849l-1.389 1.433 -1.012 0 1.154 -1.433 1.247 0zm5.844 6.696l-1.398 0 0 -0.692 -0.021 0c-0.347,0.534 -0.809,0.802 -1.389,0.802 -1.054,0 -1.579,-0.637 -1.579,-1.913l0 -2.741 1.398 0 0 2.617c0,0.642 0.254,0.963 0.763,0.963 0.251,0 0.451,-0.087 0.603,-0.263 0.151,-0.176 0.225,-0.415 0.225,-0.716l0 -2.601 1.398 0 0 4.544zm2.583 0l-1.401 0 0 -6.726 1.401 0 0 6.726zm1.889 -5.263c-0.236,0 -0.43,-0.07 -0.58,-0.211 -0.151,-0.141 -0.227,-0.312 -0.227,-0.516 0,-0.211 0.076,-0.382 0.227,-0.515 0.15,-0.133 0.344,-0.2 0.58,-0.2 0.241,0 0.435,0.067 0.585,0.2 0.149,0.133 0.224,0.304 0.224,0.515 0,0.212 -0.075,0.387 -0.224,0.524 -0.15,0.134 -0.344,0.203 -0.585,0.203zm0.693 5.263l-1.401 0 0 -4.544 1.401 0 0 4.544zm4.623 -0.164c-0.316,0.183 -0.774,0.274 -1.37,0.274 -0.699,0 -1.263,-0.21 -1.695,-0.634 -0.432,-0.423 -0.648,-0.968 -0.648,-1.638 0,-0.772 0.232,-1.379 0.693,-1.825 0.464,-0.445 1.083,-0.668 1.859,-0.668 0.534,0 0.922,0.072 1.161,0.212l0 1.191c-0.292,-0.22 -0.619,-0.329 -0.98,-0.329 -0.402,0 -0.72,0.117 -0.957,0.353 -0.234,0.235 -0.353,0.559 -0.353,0.974 0,0.401 0.114,0.718 0.338,0.947 0.224,0.23 0.535,0.343 0.927,0.343 0.35,0 0.691,-0.109 1.025,-0.328l0 1.128zm3.084 0.274c-0.757,0 -1.352,-0.212 -1.786,-0.636 -0.433,-0.424 -0.65,-1.001 -0.65,-1.728 0,-0.751 0.225,-1.34 0.674,-1.764 0.45,-0.425 1.059,-0.637 1.824,-0.637 0.754,0 1.347,0.212 1.775,0.637 0.429,0.424 0.644,0.986 0.644,1.684 0,0.754 -0.222,1.351 -0.664,1.788 -0.442,0.438 -1.048,0.656 -1.817,0.656zm0.036 -3.691c-0.331,0 -0.589,0.114 -0.772,0.341 -0.183,0.229 -0.276,0.551 -0.276,0.968 0,0.872 0.353,1.308 1.057,1.308 0.671,0 1.007,-0.448 1.007,-1.343 0,-0.85 -0.339,-1.274 -1.016,-1.274zm3.056 3.461l0 -1.136c0.232,0.139 0.462,0.242 0.691,0.31 0.229,0.069 0.445,0.102 0.65,0.102 0.248,0 0.445,-0.033 0.587,-0.102 0.144,-0.068 0.215,-0.171 0.215,-0.31 0,-0.089 -0.031,-0.163 -0.096,-0.223 -0.065,-0.059 -0.149,-0.11 -0.252,-0.154 -0.101,-0.044 -0.213,-0.085 -0.335,-0.12 -0.121,-0.036 -0.237,-0.075 -0.349,-0.119 -0.181,-0.068 -0.34,-0.143 -0.477,-0.22 -0.138,-0.079 -0.253,-0.169 -0.347,-0.274 -0.093,-0.103 -0.164,-0.223 -0.212,-0.359 -0.049,-0.136 -0.075,-0.297 -0.075,-0.483 0,-0.255 0.056,-0.474 0.167,-0.657 0.111,-0.184 0.259,-0.334 0.444,-0.45 0.184,-0.117 0.397,-0.203 0.634,-0.258 0.238,-0.054 0.486,-0.082 0.744,-0.082 0.201,0 0.404,0.016 0.612,0.047 0.207,0.031 0.412,0.076 0.613,0.135l0 1.083c-0.178,-0.104 -0.368,-0.181 -0.571,-0.233 -0.203,-0.052 -0.401,-0.077 -0.596,-0.077 -0.093,0 -0.179,0.007 -0.259,0.024 -0.082,0.015 -0.155,0.039 -0.217,0.071 -0.062,0.03 -0.111,0.07 -0.145,0.12 -0.037,0.048 -0.053,0.104 -0.053,0.166 0,0.082 0.025,0.153 0.078,0.212 0.055,0.059 0.123,0.111 0.209,0.153 0.087,0.044 0.182,0.082 0.287,0.115 0.104,0.035 0.209,0.07 0.313,0.105 0.186,0.065 0.355,0.136 0.506,0.213 0.15,0.078 0.28,0.167 0.388,0.272 0.107,0.102 0.19,0.224 0.248,0.363 0.058,0.14 0.086,0.305 0.086,0.497 0,0.269 -0.057,0.5 -0.175,0.69 -0.117,0.191 -0.271,0.346 -0.465,0.465 -0.194,0.12 -0.418,0.208 -0.671,0.262 -0.253,0.055 -0.515,0.082 -0.788,0.082 -0.5,0 -0.961,-0.077 -1.389,-0.23z"/>
    <g>
     <path class="fil3" d="M124.639 31.734c-5.712,-0.027 -17.853,0.296 -15.975,-7.205 0.705,-2.815 3.053,-5.581 4.429,-7.339l2.429 -2.766c0.143,-0.145 0.215,-0.19 0.344,-0.34 0.629,-0.73 2.637,-2.71 2.823,-3.06l-0.23 -0.381c-0.069,-0.139 -0.12,-0.249 -0.201,-0.41 -0.434,-0.857 -0.926,-1.719 -1.28,-2.617 -0.584,-1.476 -0.925,-2.3 -1.297,-3.823 -0.147,-0.606 -0.383,-0.872 -0.616,-0.951l-0.33 0c-0.156,0.05 -0.285,0.163 -0.349,0.274 -0.162,0.28 -0.206,0.643 -0.305,0.994 -0.102,0.359 -0.195,0.631 -0.301,0.999 -0.507,1.768 -1.45,3.829 -2.261,5.456l-0.891 1.708c-0.889,1.654 -1.838,3.274 -2.878,4.838l-2.029 3.166c-0.323,0.598 -0.603,1.017 -0.883,1.714 -0.368,0.917 -0.575,1.936 -0.642,2.975l0 1.542c0.095,1.511 0.465,2.971 1.042,4.118 1.016,2.021 1.95,2.9 3.516,4.198l1.595 1.001c1.275,0.634 2.622,1.004 3.976,1.122l1.914 0c0.92,-0.081 1.83,-0.276 2.708,-0.583 1.528,-0.533 2.851,-1.452 4.006,-2.56l1.686 -2.07z"/>
     <path class="fil3" d="M125.555 30.066l0.372 -1.157c0.205,-0.697 0.334,-1.408 0.39,-2.122l0 -1.73c-0.141,-1.8 -0.715,-3.551 -1.634,-5.054 -0.427,-0.699 -1.998,-2.724 -2.637,-3.627l-1.846 -2.814c-0.116,-0.179 -0.187,-0.291 -0.294,-0.47 -0.093,-0.154 -0.242,-0.33 -0.302,-0.503 -0.56,0.417 -1.767,1.817 -2.245,2.304l-2.818 3.136c-1.336,1.704 -3.289,3.929 -4.15,6.469 -1.238,3.647 2.08,4.528 5.062,5.07 2.879,0.522 7.094,0.621 10.102,0.498z"/>
    </g>
   </g>
   <g>
    <g>
     <path class="fil3" d="M229.627 10.791c-2.717,-0.488 -6.404,0.319 -7.521,2.08 -1.932,3.044 3.475,4.823 4.465,2.403 -0.285,-0.651 -1.316,-1.779 0.378,-3.322 0.715,-0.691 2.463,-0.897 2.994,0.717 0.8,2.427 -0.612,3.634 -2.745,4.233 -2.098,0.932 -6.291,1.202 -6.423,4.815 -0.181,4.979 5.579,4.597 6.561,3.682 0.849,-0.281 2.512,-1.816 2.747,-2.353l0.033 2.926 6.569 -0.018 -0.008 -0.726c-0.025,-0.019 -0.068,-0.076 -0.083,-0.051 -0.002,0.003 -0.962,-0.248 -1.163,-1.141 -0.2,-0.889 0.137,-8.426 -0.149,-9.577 -0.67,-2.704 -3.39,-3.221 -3.482,-3.302 -0.385,-0.335 -0.166,0.03 -0.25,-0.601 1.461,0.33 2.213,0.321 2.974,-0.649 1.03,-1.313 0.114,-2.482 -0.055,-2.891 0.63,-1.007 2.191,-0.786 2.608,0.328 0.286,0.765 0.155,3.013 0.157,3.971 0.004,2.752 0.018,5.505 0.016,8.257 -0.002,2.689 0.566,4.624 2.586,5.477 1.686,0.712 4.173,0.775 5.512,-0.586 0.077,-0.078 0.185,-0.207 0.277,-0.285 0.263,-0.224 0.078,-0.108 0.391,-0.263 -0.008,1.847 -0.129,1.286 0.415,2.006 1.133,-0.401 0.831,-1.317 5.662,-1.301l0.044 -0.749c-0.988,-0.408 -1.211,-0.781 -1.216,-2.262l0.027 -10.279c-0.26,-0.138 -0.418,-0.242 -0.65,-0.384l-1.077 0.649c-1.825,0.885 -3.155,0.448 -4.385,0.702l-0.014 0.678c1.493,0.68 1.185,0.989 1.186,3.882 0,1.688 0.082,3.335 -0.228,4.98 -0.233,1.231 -1.034,3.037 -2.235,2.898 -1.442,-0.167 -1.387,-2.423 -1.385,-3.805 0.003,-3.432 0.012,-6.863 0.012,-10.294 0,-2.384 -0.425,-3.938 -2.826,-4.991 -0.58,-0.254 -1.452,-0.374 -1.979,-0.667 -1.218,0.095 -1.914,-0.163 -3.284,0.182 -0.915,0.231 -1.828,0.596 -2.402,1.105 -2.788,2.471 -0.161,3.735 -0.115,4.775l-1.939 -0.249zm0.51 5.387l-1.559 1.357c-0.576,0.433 -1.099,0.896 -1.561,1.491 -2.587,3.34 -0.231,7.645 2.883,2.998 0.475,-0.709 0.211,-4.598 0.237,-5.846z"/>
     <path class="fil3" d="M214.578 22.662l0.008 2.976 -0.018 1.4 0.261 0.191 0.838 0.37c2.06,1.259 3.87,2.443 5.799,3.725 1.695,1.127 4.119,2.535 6.439,3.112 2.164,0.651 5.145,0.523 7.122,-0.846l0.406 -0.229c0.678,-0.733 1.69,-1.806 1.036,-3.474 -0.423,-1.076 -1.452,-1.913 -3.025,-1.826 -0.168,0.275 -0.032,0.271 -0.23,0.765 -0.273,0.683 -1.033,1.329 -1.766,1.643 -1.474,0.632 -2.408,0.289 -3.938,0.271 -0.681,-0.205 -1.393,-0.303 -2.121,-0.512 -0.684,-0.196 -1.294,-0.393 -1.944,-0.652 -1.158,-0.461 -2.588,-1.176 -3.696,-1.497l0.002 -17.33c0,-3.722 -0.353,-3.729 1.252,-4.411l0.009 -0.937 -7.723 0 0.022 0.937c0.628,0.295 1.063,0.204 1.21,1.046l0.033 6.532c-0.001,2.881 0.104,5.893 0.024,8.746z"/>
     <path class="fil3" d="M261.712 19.605c-0.356,0.899 -0.688,1.025 -0.677,2.345 0.008,0.957 0.274,1.807 0.702,2.47 0.78,1.21 2.767,1.811 4.828,1.405 2.337,-0.529 3.208,-2.334 3.832,-2.748l-0.004 2.89 6.571 0.002 -0.003 -0.741c-0.41,-0.313 -1.117,-0.235 -1.266,-1.394l-0.018 -7.655c0.005,-1.92 -0.266,-2.813 -1.334,-3.8 -0.818,-0.755 -2.132,-1.348 -3.583,-1.511 -9.122,-1.025 -10.091,3.841 -7.52,5.151 1.231,0.627 3.153,0.502 3.623,-0.745 -0.001,-0.137 -0.99,-1.01 -0.297,-2.509 0.705,-1.523 3.143,-1.93 3.68,-0.012 0.914,3.264 -1.631,3.777 -4.45,4.673 -3.54,1.125 -2.991,1.508 -4.084,2.179zm8.678 1.777l-0.001 -5.177 -3.116 2.7c-0.411,0.487 -0.941,1.897 -1.044,2.589 -0.22,1.492 0.37,3.162 1.997,2.432 0.622,-0.28 2.164,-1.762 2.164,-2.544z"/>
     <path class="fil3" d="M259.171 11.311l-0.581 1.297c-0.101,-1.03 0.064,-0.637 -0.6,-1.154 -0.374,0.187 -0.553,0.403 -1.079,0.599 -1.585,0.591 -2.775,0.601 -4.445,0.643l-0.023 0.768c1.067,0.453 1.182,0.203 1.184,2.375l0.014 7.013c0.008,1.723 0.082,1.678 -1.174,2.376l-0.021 0.734 7.288 0.004c-0.027,-1.418 -0.151,-0.383 -0.826,-1.205 -0.621,-0.756 -0.32,-4.655 -0.215,-5.641 0.299,-2.825 0.699,-4.109 1.536,-6.56 0.411,-0.322 0.76,-1.992 2.67,-2.779 0.76,-0.313 0.771,-0.243 1.481,0.01 1.048,0.374 2.154,-0.046 2.652,-0.633 0.9,-1.063 0.427,-1.639 0.289,-2.721 -0.239,-0.179 -0.311,-0.261 -0.565,-0.494 -1.621,-1.483 -3.884,0.172 -5.096,1.459 -0.909,0.965 -1.913,2.98 -2.489,3.909z"/>
    </g>
    <g>
     <path class="fil4" d="M260.408 29.116l0 -2.395 0.318 0 0 2.115 1.177 0 0 0.28 -1.495 0zm2.971 -0.217c-0.109,0.093 -0.214,0.158 -0.315,0.197 -0.101,0.038 -0.209,0.057 -0.325,0.057 -0.191,0 -0.338,-0.046 -0.44,-0.139 -0.103,-0.093 -0.154,-0.211 -0.154,-0.356 0,-0.084 0.019,-0.162 0.058,-0.232 0.039,-0.071 0.09,-0.126 0.152,-0.169 0.063,-0.042 0.133,-0.075 0.211,-0.096 0.059,-0.015 0.146,-0.03 0.263,-0.044 0.237,-0.028 0.413,-0.062 0.525,-0.101 0.001,-0.04 0.002,-0.066 0.002,-0.077 0,-0.119 -0.028,-0.203 -0.084,-0.252 -0.075,-0.067 -0.187,-0.099 -0.335,-0.099 -0.139,0 -0.242,0.024 -0.308,0.072 -0.066,0.049 -0.115,0.135 -0.146,0.259l-0.288 -0.04c0.026,-0.124 0.069,-0.223 0.129,-0.299 0.06,-0.076 0.147,-0.134 0.261,-0.175 0.113,-0.041 0.245,-0.061 0.395,-0.061 0.148,0 0.269,0.017 0.362,0.052 0.093,0.035 0.161,0.078 0.205,0.131 0.044,0.053 0.074,0.12 0.092,0.201 0.009,0.05 0.015,0.141 0.015,0.27l0 0.391c0,0.272 0.006,0.445 0.018,0.518 0.012,0.073 0.036,0.142 0.072,0.209l-0.308 0c-0.03,-0.061 -0.049,-0.134 -0.057,-0.217zm-0.023 -0.652c-0.107,0.043 -0.268,0.08 -0.482,0.11 -0.122,0.017 -0.207,0.037 -0.257,0.058 -0.051,0.022 -0.089,0.054 -0.117,0.095 -0.027,0.042 -0.041,0.088 -0.041,0.14 0,0.077 0.03,0.143 0.09,0.194 0.059,0.052 0.146,0.078 0.26,0.078 0.114,0 0.215,-0.024 0.303,-0.074 0.088,-0.049 0.153,-0.116 0.195,-0.201 0.031,-0.067 0.047,-0.165 0.047,-0.293l0.002 -0.107zm1.021 0.869l-0.275 0 0 -2.395 0.295 0 0 0.855c0.124,-0.155 0.282,-0.232 0.475,-0.232 0.107,0 0.208,0.021 0.304,0.064 0.095,0.042 0.173,0.103 0.235,0.181 0.061,0.078 0.11,0.172 0.144,0.281 0.036,0.11 0.053,0.227 0.053,0.352 0,0.297 -0.074,0.526 -0.221,0.688 -0.147,0.162 -0.323,0.243 -0.529,0.243 -0.204,0 -0.365,-0.085 -0.481,-0.255l0 0.218zm-0.004 -0.88c0,0.207 0.029,0.357 0.085,0.449 0.093,0.151 0.217,0.227 0.375,0.227 0.129,0 0.24,-0.055 0.333,-0.167 0.094,-0.111 0.141,-0.278 0.141,-0.498 0,-0.227 -0.045,-0.394 -0.135,-0.501 -0.089,-0.108 -0.198,-0.162 -0.325,-0.162 -0.129,0 -0.24,0.056 -0.333,0.167 -0.094,0.112 -0.141,0.273 -0.141,0.485zm1.483 0.012c0,-0.32 0.089,-0.558 0.268,-0.712 0.149,-0.128 0.331,-0.192 0.546,-0.192 0.238,0 0.433,0.077 0.585,0.234 0.151,0.155 0.227,0.371 0.227,0.646 0,0.223 -0.034,0.398 -0.101,0.525 -0.066,0.128 -0.164,0.228 -0.292,0.298 -0.128,0.071 -0.268,0.106 -0.419,0.106 -0.243,0 -0.439,-0.077 -0.589,-0.233 -0.15,-0.155 -0.225,-0.38 -0.225,-0.672zm0.301 0.001c0,0.222 0.048,0.388 0.146,0.498 0.097,0.11 0.219,0.165 0.367,0.165 0.146,0 0.268,-0.055 0.365,-0.166 0.097,-0.111 0.146,-0.28 0.146,-0.506 0,-0.215 -0.05,-0.377 -0.147,-0.487 -0.098,-0.11 -0.219,-0.165 -0.364,-0.165 -0.148,0 -0.27,0.054 -0.367,0.164 -0.098,0.11 -0.146,0.275 -0.146,0.497zm1.667 0.867l0 -1.736 0.264 0 0 0.266c0.067,-0.123 0.13,-0.205 0.187,-0.244 0.058,-0.039 0.121,-0.058 0.189,-0.058 0.099,0 0.2,0.031 0.303,0.093l-0.105 0.271c-0.071,-0.04 -0.143,-0.06 -0.214,-0.06 -0.064,0 -0.122,0.019 -0.172,0.058 -0.051,0.038 -0.087,0.092 -0.109,0.16 -0.033,0.104 -0.049,0.219 -0.049,0.343l0 0.907 -0.294 0zm2.251 -0.217c-0.109,0.093 -0.214,0.158 -0.315,0.197 -0.101,0.038 -0.209,0.057 -0.326,0.057 -0.19,0 -0.337,-0.046 -0.439,-0.139 -0.103,-0.093 -0.154,-0.211 -0.154,-0.356 0,-0.084 0.019,-0.162 0.058,-0.232 0.039,-0.071 0.09,-0.126 0.152,-0.169 0.063,-0.042 0.133,-0.075 0.212,-0.096 0.058,-0.015 0.145,-0.03 0.262,-0.044 0.237,-0.028 0.413,-0.062 0.525,-0.101 0.001,-0.04 0.002,-0.066 0.002,-0.077 0,-0.119 -0.028,-0.203 -0.084,-0.252 -0.075,-0.067 -0.187,-0.099 -0.336,-0.099 -0.138,0 -0.241,0.024 -0.307,0.072 -0.066,0.049 -0.114,0.135 -0.147,0.259l-0.287 -0.04c0.026,-0.124 0.069,-0.223 0.129,-0.299 0.061,-0.076 0.148,-0.134 0.261,-0.175 0.113,-0.041 0.245,-0.061 0.395,-0.061 0.148,0 0.269,0.017 0.362,0.052 0.093,0.035 0.161,0.078 0.205,0.131 0.043,0.053 0.074,0.12 0.092,0.201 0.009,0.05 0.015,0.141 0.015,0.27l0 0.391c0,0.272 0.006,0.445 0.018,0.518 0.012,0.073 0.036,0.142 0.072,0.209l-0.308 0c-0.03,-0.061 -0.048,-0.134 -0.057,-0.217zm-0.023 -0.652c-0.107,0.043 -0.268,0.08 -0.482,0.11 -0.122,0.017 -0.207,0.037 -0.258,0.058 -0.05,0.022 -0.088,0.054 -0.116,0.095 -0.027,0.042 -0.041,0.088 -0.041,0.14 0,0.077 0.03,0.143 0.089,0.194 0.06,0.052 0.147,0.078 0.261,0.078 0.114,0 0.214,-0.024 0.303,-0.074 0.088,-0.049 0.153,-0.116 0.195,-0.201 0.031,-0.067 0.047,-0.165 0.047,-0.293l0.002 -0.107zm1.389 0.607l0.04 0.259c-0.083,0.018 -0.157,0.027 -0.221,0.027 -0.107,0 -0.189,-0.017 -0.249,-0.051 -0.058,-0.034 -0.099,-0.078 -0.123,-0.133 -0.024,-0.055 -0.036,-0.171 -0.036,-0.348l0 -1 -0.218 0 0 -0.228 0.218 0 0 -0.429 0.294 -0.177 0 0.606 0.295 0 0 0.228 -0.295 0 0 1.016c0,0.085 0.005,0.139 0.016,0.163 0.01,0.024 0.027,0.043 0.05,0.057 0.024,0.014 0.057,0.022 0.101,0.022 0.032,0 0.075,-0.004 0.128,-0.012zm0.18 -0.606c0,-0.32 0.089,-0.558 0.268,-0.712 0.149,-0.128 0.331,-0.192 0.546,-0.192 0.238,0 0.433,0.077 0.584,0.234 0.152,0.155 0.227,0.371 0.227,0.646 0,0.223 -0.033,0.398 -0.1,0.525 -0.067,0.128 -0.164,0.228 -0.292,0.298 -0.128,0.071 -0.268,0.106 -0.419,0.106 -0.243,0 -0.44,-0.077 -0.589,-0.233 -0.151,-0.155 -0.225,-0.38 -0.225,-0.672zm0.301 0.001c0,0.222 0.048,0.388 0.145,0.498 0.098,0.11 0.22,0.165 0.368,0.165 0.146,0 0.267,-0.055 0.365,-0.166 0.097,-0.111 0.146,-0.28 0.146,-0.506 0,-0.215 -0.05,-0.377 -0.147,-0.487 -0.098,-0.11 -0.219,-0.165 -0.364,-0.165 -0.148,0 -0.27,0.054 -0.368,0.164 -0.097,0.11 -0.145,0.275 -0.145,0.497zm1.666 0.867l0 -1.736 0.265 0 0 0.266c0.067,-0.123 0.13,-0.205 0.187,-0.244 0.057,-0.039 0.12,-0.058 0.189,-0.058 0.099,0 0.2,0.031 0.303,0.093l-0.105 0.271c-0.071,-0.04 -0.143,-0.06 -0.214,-0.06 -0.064,0 -0.122,0.019 -0.173,0.058 -0.05,0.038 -0.086,0.092 -0.108,0.16 -0.033,0.104 -0.049,0.219 -0.049,0.343l0 0.907 -0.295 0zm1.118 -2.06l0 -0.335 0.294 0 0 0.335 -0.294 0zm0 2.06l0 -1.736 0.294 0 0 1.736 -0.294 0zm0.633 -0.868c0,-0.32 0.089,-0.558 0.268,-0.712 0.149,-0.128 0.331,-0.192 0.546,-0.192 0.238,0 0.433,0.077 0.585,0.234 0.151,0.155 0.226,0.371 0.226,0.646 0,0.223 -0.033,0.398 -0.1,0.525 -0.067,0.128 -0.164,0.228 -0.292,0.298 -0.128,0.071 -0.268,0.106 -0.419,0.106 -0.243,0 -0.44,-0.077 -0.589,-0.233 -0.151,-0.155 -0.225,-0.38 -0.225,-0.672zm0.301 0.001c0,0.222 0.048,0.388 0.145,0.498 0.098,0.11 0.22,0.165 0.368,0.165 0.146,0 0.267,-0.055 0.365,-0.166 0.097,-0.111 0.145,-0.28 0.145,-0.506 0,-0.215 -0.049,-0.377 -0.146,-0.487 -0.098,-0.11 -0.219,-0.165 -0.364,-0.165 -0.148,0 -0.27,0.054 -0.368,0.164 -0.097,0.11 -0.145,0.275 -0.145,0.497z"/>
     <path class="fil4" d="M261.815 34.561c-0.109,0.093 -0.214,0.158 -0.315,0.196 -0.101,0.039 -0.209,0.058 -0.325,0.058 -0.191,0 -0.338,-0.046 -0.44,-0.139 -0.103,-0.093 -0.154,-0.212 -0.154,-0.356 0,-0.085 0.019,-0.163 0.058,-0.233 0.039,-0.07 0.09,-0.126 0.152,-0.168 0.063,-0.042 0.133,-0.075 0.212,-0.096 0.058,-0.015 0.145,-0.03 0.262,-0.044 0.237,-0.028 0.413,-0.062 0.525,-0.101 0.001,-0.041 0.002,-0.066 0.002,-0.077 0,-0.119 -0.028,-0.203 -0.084,-0.253 -0.075,-0.066 -0.187,-0.099 -0.335,-0.099 -0.139,0 -0.242,0.025 -0.308,0.073 -0.066,0.049 -0.115,0.135 -0.146,0.259l-0.288 -0.041c0.026,-0.123 0.069,-0.223 0.129,-0.299 0.06,-0.075 0.148,-0.133 0.261,-0.174 0.113,-0.041 0.245,-0.062 0.395,-0.062 0.148,0 0.269,0.017 0.362,0.053 0.093,0.035 0.162,0.078 0.205,0.131 0.044,0.053 0.074,0.12 0.092,0.201 0.01,0.05 0.015,0.141 0.015,0.27l0 0.39c0,0.273 0.006,0.445 0.018,0.519 0.012,0.073 0.036,0.142 0.072,0.209l-0.308 0c-0.03,-0.062 -0.048,-0.134 -0.057,-0.217zm-0.023 -0.652c-0.107,0.043 -0.268,0.08 -0.482,0.11 -0.121,0.017 -0.207,0.037 -0.257,0.058 -0.051,0.022 -0.089,0.054 -0.117,0.095 -0.027,0.042 -0.041,0.088 -0.041,0.14 0,0.077 0.03,0.142 0.09,0.194 0.059,0.052 0.146,0.078 0.26,0.078 0.114,0 0.215,-0.024 0.303,-0.074 0.088,-0.049 0.153,-0.116 0.195,-0.202 0.032,-0.066 0.047,-0.164 0.047,-0.292l0.002 -0.107zm1.884 0.869l0 -0.258c-0.135,0.197 -0.318,0.295 -0.549,0.295 -0.103,0 -0.198,-0.02 -0.286,-0.058 -0.089,-0.04 -0.155,-0.089 -0.198,-0.148 -0.043,-0.06 -0.073,-0.132 -0.09,-0.218 -0.012,-0.058 -0.018,-0.15 -0.018,-0.275l0 -1.074 0.294 0 0 0.96c0,0.154 0.007,0.258 0.019,0.31 0.018,0.078 0.057,0.138 0.117,0.183 0.059,0.043 0.133,0.066 0.221,0.066 0.088,0 0.171,-0.023 0.248,-0.068 0.077,-0.045 0.131,-0.107 0.164,-0.184 0.031,-0.078 0.048,-0.191 0.048,-0.339l0 -0.928 0.294 0 0 1.736 -0.264 0zm1.847 0l0 -0.22c-0.11,0.171 -0.272,0.257 -0.485,0.257 -0.138,0 -0.266,-0.038 -0.381,-0.114 -0.116,-0.076 -0.205,-0.183 -0.269,-0.319 -0.064,-0.136 -0.096,-0.293 -0.096,-0.47 0,-0.173 0.029,-0.33 0.086,-0.471 0.058,-0.14 0.145,-0.248 0.26,-0.323 0.115,-0.076 0.245,-0.113 0.386,-0.113 0.105,0 0.199,0.023 0.28,0.067 0.081,0.043 0.148,0.102 0.199,0.172l0 -0.861 0.294 0 0 2.395 -0.274 0zm-0.93 -0.866c0,0.222 0.047,0.388 0.141,0.498 0.094,0.11 0.205,0.164 0.332,0.164 0.129,0 0.238,-0.052 0.329,-0.157 0.09,-0.105 0.135,-0.265 0.135,-0.48 0,-0.237 -0.046,-0.41 -0.138,-0.521 -0.091,-0.111 -0.205,-0.167 -0.339,-0.167 -0.131,0 -0.24,0.053 -0.328,0.16 -0.088,0.106 -0.132,0.274 -0.132,0.503zm1.67 -1.194l0 -0.335 0.294 0 0 0.335 -0.294 0zm0 2.06l0 -1.736 0.294 0 0 1.736 -0.294 0zm0.633 -0.868c0,-0.32 0.089,-0.558 0.268,-0.713 0.149,-0.128 0.331,-0.192 0.546,-0.192 0.238,0 0.433,0.078 0.585,0.235 0.151,0.155 0.227,0.371 0.227,0.646 0,0.223 -0.034,0.398 -0.101,0.525 -0.066,0.128 -0.164,0.227 -0.292,0.298 -0.128,0.071 -0.268,0.106 -0.419,0.106 -0.243,0 -0.439,-0.078 -0.589,-0.233 -0.15,-0.155 -0.225,-0.38 -0.225,-0.672zm0.301 0.001c0,0.222 0.049,0.388 0.146,0.498 0.097,0.11 0.219,0.165 0.367,0.165 0.146,0 0.268,-0.055 0.365,-0.166 0.097,-0.111 0.146,-0.28 0.146,-0.507 0,-0.214 -0.05,-0.376 -0.147,-0.486 -0.098,-0.11 -0.219,-0.166 -0.364,-0.166 -0.148,0 -0.27,0.055 -0.367,0.165 -0.097,0.11 -0.146,0.275 -0.146,0.497zm2.145 0.867l-0.656 -1.736 0.316 0 0.371 1.04c0.04,0.112 0.077,0.228 0.111,0.349 0.026,-0.091 0.063,-0.201 0.11,-0.33l0.386 -1.059 0.302 0 -0.657 1.736 -0.283 0zm1.198 -2.06l0 -0.335 0.294 0 0 0.335 -0.294 0zm0 2.06l0 -1.736 0.294 0 0 1.736 -0.294 0zm0.626 -0.518l0.291 -0.047c0.016,0.116 0.062,0.206 0.136,0.268 0.075,0.062 0.18,0.093 0.314,0.093 0.135,0 0.236,-0.027 0.301,-0.083 0.066,-0.054 0.099,-0.119 0.099,-0.193 0,-0.066 -0.03,-0.119 -0.088,-0.156 -0.042,-0.027 -0.142,-0.06 -0.302,-0.1 -0.215,-0.054 -0.364,-0.101 -0.447,-0.141 -0.083,-0.04 -0.146,-0.095 -0.189,-0.165 -0.043,-0.07 -0.065,-0.147 -0.065,-0.232 0,-0.077 0.018,-0.149 0.053,-0.214 0.036,-0.066 0.084,-0.121 0.144,-0.164 0.046,-0.034 0.109,-0.062 0.187,-0.086 0.079,-0.023 0.164,-0.035 0.254,-0.035 0.136,0 0.255,0.02 0.358,0.059 0.103,0.039 0.179,0.093 0.228,0.16 0.048,0.067 0.083,0.157 0.101,0.27l-0.288 0.04c-0.013,-0.091 -0.05,-0.161 -0.113,-0.212 -0.062,-0.051 -0.151,-0.076 -0.265,-0.076 -0.134,0 -0.231,0.022 -0.288,0.067 -0.058,0.045 -0.087,0.097 -0.087,0.157 0,0.037 0.012,0.072 0.036,0.103 0.024,0.031 0.061,0.057 0.113,0.078 0.029,0.011 0.115,0.036 0.259,0.075 0.207,0.055 0.353,0.101 0.435,0.136 0.083,0.035 0.147,0.087 0.194,0.154 0.047,0.067 0.071,0.151 0.071,0.252 0,0.097 -0.029,0.189 -0.086,0.275 -0.058,0.087 -0.14,0.154 -0.248,0.201 -0.108,0.048 -0.23,0.071 -0.366,0.071 -0.225,0 -0.398,-0.047 -0.516,-0.14 -0.118,-0.093 -0.193,-0.232 -0.226,-0.415zm2.924 0.518l0 -0.258c-0.135,0.197 -0.318,0.295 -0.549,0.295 -0.103,0 -0.198,-0.02 -0.287,-0.058 -0.088,-0.04 -0.154,-0.089 -0.197,-0.148 -0.043,-0.06 -0.073,-0.132 -0.09,-0.218 -0.012,-0.058 -0.018,-0.15 -0.018,-0.275l0 -1.074 0.294 0 0 0.96c0,0.154 0.006,0.258 0.018,0.31 0.018,0.078 0.057,0.138 0.118,0.183 0.059,0.043 0.133,0.066 0.221,0.066 0.088,0 0.17,-0.023 0.248,-0.068 0.077,-0.045 0.131,-0.107 0.164,-0.184 0.032,-0.078 0.047,-0.191 0.047,-0.339l0 -0.928 0.295 0 0 1.736 -0.264 0zm1.86 -0.217c-0.109,0.093 -0.214,0.158 -0.315,0.196 -0.101,0.039 -0.209,0.058 -0.325,0.058 -0.191,0 -0.338,-0.046 -0.44,-0.139 -0.103,-0.093 -0.154,-0.212 -0.154,-0.356 0,-0.085 0.019,-0.163 0.058,-0.233 0.039,-0.07 0.09,-0.126 0.152,-0.168 0.063,-0.042 0.133,-0.075 0.212,-0.096 0.058,-0.015 0.145,-0.03 0.262,-0.044 0.237,-0.028 0.413,-0.062 0.525,-0.101 0.001,-0.041 0.002,-0.066 0.002,-0.077 0,-0.119 -0.028,-0.203 -0.084,-0.253 -0.075,-0.066 -0.187,-0.099 -0.335,-0.099 -0.139,0 -0.242,0.025 -0.308,0.073 -0.066,0.049 -0.114,0.135 -0.146,0.259l-0.288 -0.041c0.026,-0.123 0.069,-0.223 0.129,-0.299 0.061,-0.075 0.148,-0.133 0.261,-0.174 0.114,-0.041 0.246,-0.062 0.395,-0.062 0.148,0 0.269,0.017 0.362,0.053 0.093,0.035 0.162,0.078 0.205,0.131 0.044,0.053 0.074,0.12 0.092,0.201 0.01,0.05 0.015,0.141 0.015,0.27l0 0.39c0,0.273 0.006,0.445 0.018,0.519 0.012,0.073 0.036,0.142 0.072,0.209l-0.308 0c-0.029,-0.062 -0.048,-0.134 -0.057,-0.217zm-0.023 -0.652c-0.107,0.043 -0.268,0.08 -0.482,0.11 -0.121,0.017 -0.207,0.037 -0.257,0.058 -0.05,0.022 -0.089,0.054 -0.116,0.095 -0.028,0.042 -0.042,0.088 -0.042,0.14 0,0.077 0.03,0.142 0.09,0.194 0.059,0.052 0.146,0.078 0.26,0.078 0.114,0 0.215,-0.024 0.303,-0.074 0.088,-0.049 0.153,-0.116 0.195,-0.202 0.032,-0.066 0.047,-0.164 0.047,-0.292l0.002 -0.107zm0.743 0.869l0 -2.395 0.294 0 0 2.395 -0.294 0z"/>
     <path class="fil4" d="M260.408 31.917l0 -0.258c-0.135,0.197 -0.318,0.295 -0.549,0.295 -0.102,0 -0.198,-0.02 -0.286,-0.059 -0.089,-0.039 -0.155,-0.088 -0.198,-0.147 -0.043,-0.06 -0.073,-0.132 -0.09,-0.218 -0.011,-0.058 -0.018,-0.15 -0.018,-0.275l0 -1.074 0.294 0 0 0.96c0,0.154 0.007,0.258 0.019,0.31 0.018,0.078 0.057,0.138 0.117,0.182 0.06,0.044 0.133,0.066 0.221,0.066 0.088,0 0.171,-0.022 0.248,-0.067 0.077,-0.045 0.132,-0.107 0.164,-0.185 0.032,-0.077 0.048,-0.19 0.048,-0.338l0 -0.928 0.294 0 0 1.736 -0.264 0zm0.726 0l0 -1.736 0.265 0 0 0.246c0.127,-0.189 0.311,-0.283 0.551,-0.283 0.105,0 0.201,0.019 0.288,0.056 0.088,0.038 0.154,0.087 0.197,0.148 0.044,0.061 0.074,0.133 0.092,0.217 0.01,0.055 0.016,0.15 0.016,0.286l0 1.066 -0.295 0 0 -1.055c0,-0.119 -0.011,-0.21 -0.033,-0.269 -0.023,-0.059 -0.064,-0.106 -0.122,-0.142 -0.058,-0.035 -0.127,-0.053 -0.205,-0.053 -0.125,0 -0.232,0.04 -0.323,0.12 -0.091,0.079 -0.136,0.23 -0.136,0.452l0 0.947 -0.295 0zm1.861 -2.061l0 -0.334 0.295 0 0 0.334 -0.295 0zm0 2.061l0 -1.736 0.295 0 0 1.736 -0.295 0zm1.218 0l-0.655 -1.736 0.315 0 0.371 1.04c0.04,0.112 0.078,0.228 0.112,0.349 0.026,-0.091 0.062,-0.201 0.11,-0.33l0.385 -1.059 0.302 0 -0.657 1.736 -0.283 0zm2.382 -0.562l0.305 0.04c-0.048,0.177 -0.136,0.315 -0.265,0.412 -0.13,0.098 -0.295,0.147 -0.496,0.147 -0.253,0 -0.454,-0.078 -0.602,-0.234 -0.149,-0.156 -0.223,-0.375 -0.223,-0.657 0,-0.291 0.075,-0.517 0.225,-0.677 0.15,-0.162 0.345,-0.242 0.583,-0.242 0.232,0 0.421,0.079 0.567,0.236 0.147,0.158 0.221,0.38 0.221,0.666 0,0.017 -0.001,0.044 -0.002,0.078l-1.293 0c0.011,0.19 0.065,0.336 0.162,0.437 0.096,0.101 0.217,0.152 0.362,0.152 0.107,0 0.199,-0.028 0.275,-0.085 0.077,-0.057 0.137,-0.148 0.181,-0.273zm-0.963 -0.471l0.967 0c-0.013,-0.147 -0.051,-0.256 -0.112,-0.329 -0.092,-0.113 -0.214,-0.17 -0.363,-0.17 -0.135,0 -0.248,0.045 -0.34,0.135 -0.092,0.091 -0.142,0.212 -0.152,0.364zm1.636 1.033l0 -1.736 0.265 0 0 0.266c0.067,-0.123 0.13,-0.205 0.187,-0.244 0.057,-0.04 0.121,-0.059 0.189,-0.059 0.099,0 0.2,0.031 0.303,0.093l-0.105 0.272c-0.072,-0.04 -0.143,-0.06 -0.214,-0.06 -0.064,0 -0.122,0.019 -0.172,0.057 -0.051,0.039 -0.087,0.092 -0.109,0.161 -0.033,0.104 -0.049,0.218 -0.049,0.343l0 0.907 -0.295 0zm1 -0.518l0.292 -0.047c0.016,0.116 0.062,0.206 0.136,0.268 0.075,0.062 0.18,0.093 0.313,0.093 0.136,0 0.237,-0.027 0.302,-0.083 0.065,-0.054 0.099,-0.119 0.099,-0.193 0,-0.066 -0.03,-0.119 -0.088,-0.157 -0.042,-0.026 -0.142,-0.059 -0.302,-0.099 -0.215,-0.054 -0.364,-0.101 -0.447,-0.141 -0.084,-0.04 -0.146,-0.095 -0.19,-0.165 -0.042,-0.07 -0.064,-0.147 -0.064,-0.232 0,-0.078 0.018,-0.149 0.053,-0.215 0.036,-0.066 0.084,-0.12 0.144,-0.164 0.046,-0.033 0.109,-0.061 0.187,-0.085 0.079,-0.023 0.164,-0.035 0.254,-0.035 0.136,0 0.255,0.019 0.358,0.059 0.103,0.039 0.179,0.093 0.228,0.159 0.048,0.068 0.082,0.158 0.101,0.27l-0.288 0.041c-0.013,-0.091 -0.051,-0.162 -0.113,-0.212 -0.063,-0.051 -0.151,-0.076 -0.265,-0.076 -0.134,0 -0.231,0.022 -0.289,0.067 -0.057,0.044 -0.086,0.097 -0.086,0.157 0,0.037 0.012,0.072 0.036,0.103 0.024,0.031 0.061,0.057 0.113,0.078 0.029,0.011 0.115,0.036 0.259,0.075 0.207,0.055 0.352,0.101 0.435,0.136 0.082,0.035 0.147,0.087 0.194,0.154 0.047,0.067 0.07,0.151 0.07,0.251 0,0.098 -0.028,0.19 -0.085,0.276 -0.058,0.087 -0.14,0.153 -0.248,0.201 -0.108,0.047 -0.23,0.071 -0.366,0.071 -0.225,0 -0.398,-0.047 -0.516,-0.14 -0.118,-0.094 -0.194,-0.232 -0.227,-0.415zm1.79 -1.543l0 -0.334 0.295 0 0 0.334 -0.295 0zm0 2.061l0 -1.736 0.295 0 0 1.736 -0.295 0zm1.383 -0.263l0.04 0.26c-0.083,0.018 -0.157,0.026 -0.221,0.026 -0.107,0 -0.189,-0.016 -0.249,-0.05 -0.058,-0.034 -0.099,-0.078 -0.123,-0.133 -0.024,-0.056 -0.036,-0.172 -0.036,-0.348l0 -1 -0.218 0 0 -0.228 0.218 0 0 -0.43 0.294 -0.176 0 0.606 0.295 0 0 0.228 -0.295 0 0 1.016c0,0.084 0.005,0.139 0.016,0.163 0.01,0.024 0.027,0.042 0.05,0.057 0.024,0.014 0.057,0.021 0.101,0.021 0.032,0 0.075,-0.004 0.128,-0.012zm1.424 0.045c-0.109,0.094 -0.214,0.159 -0.315,0.197 -0.101,0.039 -0.209,0.058 -0.326,0.058 -0.19,0 -0.337,-0.046 -0.439,-0.14 -0.103,-0.092 -0.154,-0.211 -0.154,-0.355 0,-0.085 0.019,-0.163 0.058,-0.233 0.039,-0.07 0.09,-0.126 0.152,-0.168 0.063,-0.042 0.133,-0.075 0.212,-0.096 0.058,-0.016 0.145,-0.03 0.262,-0.045 0.237,-0.027 0.413,-0.062 0.525,-0.101 0.001,-0.04 0.002,-0.066 0.002,-0.076 0,-0.119 -0.028,-0.203 -0.084,-0.253 -0.075,-0.066 -0.187,-0.099 -0.336,-0.099 -0.138,0 -0.241,0.025 -0.307,0.073 -0.066,0.049 -0.114,0.134 -0.147,0.258l-0.287 -0.04c0.026,-0.123 0.069,-0.223 0.129,-0.299 0.061,-0.076 0.148,-0.133 0.261,-0.175 0.113,-0.04 0.245,-0.061 0.395,-0.061 0.148,0 0.269,0.017 0.362,0.052 0.093,0.035 0.161,0.079 0.205,0.132 0.043,0.053 0.074,0.12 0.092,0.201 0.009,0.05 0.015,0.14 0.015,0.27l0 0.39c0,0.273 0.006,0.445 0.018,0.518 0.012,0.074 0.036,0.143 0.072,0.21l-0.308 0c-0.03,-0.062 -0.048,-0.134 -0.057,-0.218zm-0.023 -0.652c-0.107,0.044 -0.268,0.08 -0.482,0.111 -0.122,0.017 -0.207,0.037 -0.258,0.058 -0.05,0.022 -0.088,0.054 -0.116,0.095 -0.027,0.042 -0.041,0.088 -0.041,0.14 0,0.077 0.03,0.142 0.089,0.194 0.06,0.052 0.147,0.078 0.261,0.078 0.113,0 0.214,-0.024 0.303,-0.074 0.088,-0.049 0.153,-0.117 0.195,-0.202 0.031,-0.066 0.047,-0.164 0.047,-0.293l0.002 -0.107zm0.746 0.87l0 -1.736 0.265 0 0 0.266c0.067,-0.123 0.13,-0.205 0.187,-0.244 0.057,-0.04 0.12,-0.059 0.189,-0.059 0.099,0 0.2,0.031 0.303,0.093l-0.105 0.272c-0.071,-0.04 -0.143,-0.06 -0.214,-0.06 -0.064,0 -0.122,0.019 -0.173,0.057 -0.05,0.039 -0.086,0.092 -0.108,0.161 -0.033,0.104 -0.049,0.218 -0.049,0.343l0 0.907 -0.295 0zm1.118 -2.061l0 -0.334 0.294 0 0 0.334 -0.294 0zm0 2.061l0 -1.736 0.294 0 0 1.736 -0.294 0zm0.633 -0.868c0,-0.32 0.089,-0.558 0.268,-0.713 0.149,-0.128 0.331,-0.192 0.546,-0.192 0.238,0 0.433,0.078 0.585,0.234 0.151,0.156 0.226,0.372 0.226,0.646 0,0.223 -0.033,0.399 -0.1,0.526 -0.067,0.128 -0.164,0.227 -0.292,0.298 -0.128,0.071 -0.268,0.106 -0.419,0.106 -0.243,0 -0.44,-0.078 -0.589,-0.233 -0.151,-0.156 -0.225,-0.38 -0.225,-0.672zm0.301 0c0,0.222 0.048,0.388 0.145,0.499 0.098,0.11 0.22,0.165 0.368,0.165 0.146,0 0.267,-0.055 0.365,-0.166 0.097,-0.111 0.145,-0.28 0.145,-0.507 0,-0.214 -0.049,-0.376 -0.146,-0.486 -0.098,-0.111 -0.219,-0.166 -0.364,-0.166 -0.148,0 -0.27,0.055 -0.368,0.165 -0.097,0.11 -0.145,0.275 -0.145,0.496z"/>
    </g>
   </g>
  </g>
 </g>
</svg>
