<?xml version="1.0" encoding="UTF-8"?>
<!DOCTYPE svg PUBLIC "-//W3C//DTD SVG 1.1//EN" "http://www.w3.org/Graphics/SVG/1.1/DTD/svg11.dtd">
<!-- Creator: CorelDRAW -->
<svg xmlns="http://www.w3.org/2000/svg" xml:space="preserve" width="460px" height="239px" version="1.1" style="shape-rendering:geometricPrecision; text-rendering:geometricPrecision; image-rendering:optimizeQuality; fill-rule:evenodd; clip-rule:evenodd"
viewBox="0 0 42.218 21.95"
 xmlns:xlink="http://www.w3.org/1999/xlink"
 xmlns:xodm="http://www.corel.com/coreldraw/odm/2003">
 <defs>
  <style type="text/css">
   <![CDATA[
    .fil0 {fill:black}
    .fil2 {fill:#101010}
    .fil1 {fill:black;fill-rule:nonzero}
   ]]>
  </style>
 </defs>
 <g id="Layer_x0020_1">
  <metadata id="CorelCorpID_0Corel-Layer"/>
  <g id="_2835754335824">
   <path class="fil0" d="M18.17 3.456l0 -2.341 1.692 0 0 0.276 -1.382 0 0 0.717 1.295 0 0 0.274 -1.295 0 0 0.797 1.437 0 0 0.277 -1.747 0zm2.053 -0.668l0.259 -0.023c0.013,0.104 0.041,0.189 0.086,0.256 0.045,0.067 0.115,0.121 0.209,0.162 0.094,0.041 0.201,0.061 0.319,0.061 0.105,0 0.197,-0.015 0.278,-0.046 0.08,-0.032 0.14,-0.074 0.179,-0.129 0.039,-0.054 0.059,-0.113 0.059,-0.178 0,-0.065 -0.019,-0.122 -0.057,-0.17 -0.038,-0.049 -0.1,-0.09 -0.187,-0.123 -0.056,-0.022 -0.179,-0.055 -0.37,-0.101 -0.191,-0.046 -0.324,-0.089 -0.401,-0.13 -0.099,-0.052 -0.173,-0.117 -0.222,-0.194 -0.048,-0.077 -0.073,-0.163 -0.073,-0.258 0,-0.105 0.03,-0.203 0.089,-0.294 0.06,-0.091 0.147,-0.161 0.261,-0.208 0.115,-0.047 0.242,-0.071 0.381,-0.071 0.155,0 0.29,0.025 0.408,0.075 0.118,0.049 0.208,0.122 0.272,0.218 0.063,0.097 0.097,0.206 0.102,0.328l-0.264 0.02c-0.014,-0.131 -0.062,-0.231 -0.144,-0.298 -0.082,-0.067 -0.202,-0.1 -0.362,-0.1 -0.166,0 -0.287,0.03 -0.364,0.091 -0.076,0.061 -0.114,0.135 -0.114,0.22 0,0.075 0.027,0.137 0.081,0.185 0.053,0.048 0.191,0.097 0.415,0.148 0.223,0.05 0.376,0.094 0.46,0.132 0.121,0.056 0.21,0.127 0.268,0.212 0.057,0.086 0.086,0.184 0.086,0.296 0,0.11 -0.032,0.214 -0.095,0.312 -0.063,0.098 -0.154,0.174 -0.273,0.229 -0.118,0.054 -0.252,0.081 -0.4,0.081 -0.188,0 -0.346,-0.027 -0.473,-0.082 -0.127,-0.055 -0.227,-0.137 -0.299,-0.248 -0.072,-0.109 -0.111,-0.234 -0.114,-0.373zm3.512 -0.061l0.275 0.07c-0.057,0.225 -0.161,0.397 -0.311,0.516 -0.15,0.119 -0.333,0.178 -0.549,0.178 -0.224,0 -0.406,-0.046 -0.547,-0.137 -0.14,-0.091 -0.247,-0.223 -0.32,-0.396 -0.073,-0.173 -0.11,-0.359 -0.11,-0.557 0,-0.216 0.041,-0.405 0.124,-0.566 0.083,-0.161 0.2,-0.284 0.353,-0.367 0.153,-0.084 0.321,-0.126 0.504,-0.126 0.208,0 0.383,0.053 0.524,0.159 0.142,0.106 0.241,0.254 0.296,0.446l-0.27 0.064c-0.048,-0.151 -0.118,-0.261 -0.21,-0.33 -0.091,-0.069 -0.207,-0.104 -0.346,-0.104 -0.16,0 -0.293,0.039 -0.4,0.115 -0.107,0.077 -0.183,0.18 -0.226,0.309 -0.043,0.128 -0.065,0.261 -0.065,0.398 0,0.177 0.025,0.331 0.077,0.463 0.052,0.132 0.131,0.231 0.24,0.296 0.109,0.065 0.227,0.098 0.353,0.098 0.154,0 0.284,-0.045 0.391,-0.133 0.107,-0.089 0.179,-0.221 0.217,-0.396zm1.977 -1.349l0.276 0 0 1.2c0,0.209 -0.024,0.375 -0.072,0.498 -0.047,0.123 -0.132,0.222 -0.256,0.299 -0.123,0.078 -0.284,0.116 -0.485,0.116 -0.194,0 -0.354,-0.034 -0.477,-0.101 -0.124,-0.067 -0.213,-0.164 -0.265,-0.291 -0.054,-0.127 -0.08,-0.301 -0.08,-0.521l0 -1.2 0.275 0 0 1.199c0,0.18 0.017,0.313 0.05,0.399 0.034,0.085 0.092,0.151 0.173,0.197 0.082,0.047 0.182,0.07 0.3,0.07 0.202,0 0.346,-0.046 0.433,-0.138 0.085,-0.091 0.128,-0.267 0.128,-0.528l0 -1.199zm0.739 2.078l0 -2.078 1.502 0 0 0.245 -1.227 0 0 0.636 1.149 0 0 0.244 -1.149 0 0 0.707 1.276 0 0 0.246 -1.551 0zm1.919 0l0 -2.078 0.275 0 0 1.832 1.023 0 0 0.246 -1.298 0zm1.397 0l0.799 -2.078 0.296 0 0.85 2.078 -0.313 0 -0.243 -0.63 -0.868 0 -0.228 0.63 -0.293 0zm0.6 -0.854l0.705 0 -0.217 -0.575c-0.066,-0.175 -0.116,-0.318 -0.148,-0.431 -0.026,0.133 -0.063,0.265 -0.112,0.397l-0.228 0.609zm-10.533 3.686l0.31 0.079c-0.065,0.254 -0.182,0.448 -0.351,0.582 -0.169,0.133 -0.375,0.2 -0.619,0.2 -0.252,0 -0.457,-0.052 -0.615,-0.154 -0.158,-0.103 -0.279,-0.252 -0.361,-0.446 -0.082,-0.195 -0.124,-0.405 -0.124,-0.628 0,-0.244 0.047,-0.456 0.14,-0.638 0.093,-0.181 0.225,-0.319 0.398,-0.414 0.171,-0.094 0.36,-0.141 0.567,-0.141 0.234,0 0.431,0.06 0.591,0.179 0.16,0.119 0.271,0.287 0.333,0.503l-0.304 0.072c-0.055,-0.171 -0.133,-0.294 -0.237,-0.372 -0.103,-0.078 -0.233,-0.117 -0.39,-0.117 -0.179,0 -0.329,0.043 -0.45,0.129 -0.121,0.087 -0.206,0.202 -0.255,0.348 -0.049,0.145 -0.073,0.295 -0.073,0.449 0,0.2 0.029,0.373 0.086,0.522 0.059,0.148 0.148,0.259 0.271,0.333 0.123,0.073 0.255,0.11 0.398,0.11 0.173,0 0.32,-0.05 0.44,-0.15 0.121,-0.1 0.202,-0.249 0.245,-0.446zm0.579 -0.191c0,-0.345 0.093,-0.615 0.278,-0.81 0.185,-0.195 0.424,-0.293 0.717,-0.293 0.192,0 0.365,0.046 0.519,0.138 0.154,0.092 0.271,0.219 0.352,0.383 0.081,0.164 0.121,0.35 0.121,0.558 0,0.211 -0.042,0.399 -0.127,0.565 -0.085,0.167 -0.206,0.292 -0.361,0.378 -0.157,0.086 -0.325,0.128 -0.505,0.128 -0.196,0 -0.371,-0.047 -0.524,-0.141 -0.155,-0.095 -0.271,-0.224 -0.351,-0.388 -0.079,-0.163 -0.119,-0.336 -0.119,-0.518zm0.284 0.004c0,0.251 0.067,0.448 0.201,0.592 0.135,0.144 0.304,0.216 0.507,0.216 0.208,0 0.378,-0.072 0.511,-0.218 0.134,-0.146 0.201,-0.352 0.201,-0.62 0,-0.169 -0.029,-0.316 -0.086,-0.442 -0.057,-0.127 -0.141,-0.224 -0.251,-0.294 -0.11,-0.069 -0.233,-0.104 -0.37,-0.104 -0.195,0 -0.363,0.067 -0.503,0.201 -0.14,0.133 -0.21,0.357 -0.21,0.669zm2.046 1.008l0 -2.078 0.275 0 0 1.833 1.024 0 0 0.245 -1.299 0zm1.542 -1.012c0,-0.345 0.093,-0.615 0.278,-0.81 0.186,-0.195 0.425,-0.293 0.718,-0.293 0.191,0 0.364,0.046 0.518,0.138 0.154,0.092 0.272,0.219 0.353,0.383 0.08,0.164 0.121,0.35 0.121,0.558 0,0.211 -0.043,0.399 -0.128,0.565 -0.085,0.167 -0.205,0.292 -0.361,0.378 -0.156,0.086 -0.324,0.128 -0.505,0.128 -0.196,0 -0.37,-0.047 -0.524,-0.141 -0.155,-0.095 -0.271,-0.224 -0.35,-0.388 -0.08,-0.163 -0.12,-0.336 -0.12,-0.518zm0.284 0.004c0,0.251 0.067,0.448 0.202,0.592 0.135,0.144 0.304,0.216 0.507,0.216 0.207,0 0.377,-0.072 0.511,-0.218 0.133,-0.146 0.2,-0.352 0.2,-0.62 0,-0.169 -0.029,-0.316 -0.086,-0.442 -0.057,-0.127 -0.14,-0.224 -0.25,-0.294 -0.111,-0.069 -0.234,-0.104 -0.371,-0.104 -0.195,0 -0.362,0.067 -0.503,0.201 -0.14,0.133 -0.21,0.357 -0.21,0.669zm2.049 1.008l0 -2.078 0.415 0 0.491 1.471c0.046,0.137 0.079,0.24 0.099,0.308 0.024,-0.076 0.061,-0.187 0.111,-0.333l0.497 -1.446 0.37 0 0 2.078 -0.265 0 0 -1.739 -0.603 1.739 -0.249 0 -0.6 -1.769 0 1.769 -0.266 0zm2.416 0l0 -2.078 0.779 0c0.159,0 0.286,0.021 0.382,0.063 0.096,0.042 0.171,0.107 0.226,0.194 0.054,0.088 0.081,0.179 0.081,0.275 0,0.088 -0.024,0.172 -0.072,0.25 -0.048,0.079 -0.121,0.142 -0.218,0.19 0.125,0.037 0.222,0.1 0.289,0.189 0.068,0.089 0.102,0.194 0.102,0.315 0,0.097 -0.021,0.187 -0.062,0.271 -0.041,0.084 -0.092,0.148 -0.152,0.194 -0.061,0.045 -0.137,0.079 -0.228,0.102 -0.091,0.023 -0.202,0.035 -0.335,0.035l-0.792 0zm0.275 -1.205l0.449 0c0.122,0 0.209,-0.008 0.262,-0.024 0.07,-0.021 0.123,-0.055 0.158,-0.103 0.036,-0.049 0.053,-0.109 0.053,-0.182 0,-0.069 -0.016,-0.13 -0.049,-0.182 -0.033,-0.052 -0.081,-0.088 -0.142,-0.108 -0.061,-0.019 -0.167,-0.029 -0.316,-0.029l-0.415 0 0 0.628zm0 0.96l0.517 0c0.089,0 0.151,-0.004 0.187,-0.01 0.064,-0.012 0.116,-0.03 0.159,-0.057 0.042,-0.026 0.077,-0.065 0.105,-0.115 0.027,-0.051 0.041,-0.109 0.041,-0.175 0,-0.078 -0.02,-0.145 -0.06,-0.203 -0.039,-0.057 -0.094,-0.097 -0.165,-0.12 -0.07,-0.023 -0.172,-0.034 -0.304,-0.034l-0.48 0 0 0.714zm1.719 0.245l0 -2.078 0.275 0 0 2.078 -0.275 0zm0.531 0l0.799 -2.078 0.296 0 0.85 2.078 -0.313 0 -0.243 -0.629 -0.869 0 -0.227 0.629 -0.293 0zm0.6 -0.853l0.705 0 -0.218 -0.576c-0.065,-0.174 -0.115,-0.318 -0.147,-0.431 -0.026,0.134 -0.063,0.266 -0.112,0.397l-0.228 0.61zm1.562 0.853l0 -2.078 0.282 0 1.091 1.631 0 -1.631 0.264 0 0 2.078 -0.282 0 -1.091 -1.633 0 1.633 -0.264 0zm1.871 0l0.798 -2.078 0.296 0 0.851 2.078 -0.314 0 -0.242 -0.629 -0.869 0 -0.228 0.629 -0.292 0zm0.599 -0.853l0.705 0 -0.217 -0.576c-0.066,-0.174 -0.115,-0.318 -0.147,-0.431 -0.027,0.134 -0.064,0.266 -0.112,0.397l-0.229 0.61zm-18.056 4.506l0 -2.077 0.716 0c0.161,0 0.285,0.01 0.37,0.03 0.119,0.027 0.22,0.076 0.305,0.148 0.109,0.093 0.191,0.211 0.245,0.355 0.055,0.144 0.082,0.309 0.082,0.494 0,0.158 -0.018,0.298 -0.055,0.42 -0.037,0.121 -0.084,0.223 -0.142,0.302 -0.058,0.08 -0.121,0.143 -0.189,0.189 -0.069,0.045 -0.151,0.08 -0.248,0.104 -0.097,0.024 -0.209,0.035 -0.334,0.035l-0.75 0zm0.275 -0.245l0.444 0c0.137,0 0.244,-0.012 0.322,-0.038 0.078,-0.026 0.14,-0.062 0.187,-0.108 0.065,-0.065 0.116,-0.153 0.152,-0.263 0.036,-0.11 0.055,-0.243 0.055,-0.4 0,-0.218 -0.036,-0.384 -0.107,-0.501 -0.072,-0.117 -0.158,-0.195 -0.261,-0.235 -0.073,-0.028 -0.192,-0.042 -0.355,-0.042l-0.437 0 0 1.587zm1.827 0.245l0 -2.077 1.503 0 0 0.245 -1.228 0 0 0.636 1.15 0 0 0.244 -1.15 0 0 0.707 1.276 0 0 0.245 -1.551 0zm2.92 0l0 -2.341 0.31 0 0 2.341 -0.31 0zm0.825 0l0 -2.077 0.282 0 1.091 1.631 0 -1.631 0.264 0 0 2.077 -0.282 0 -1.091 -1.632 0 1.632 -0.264 0zm3.072 -0.815l0 -0.243 0.88 -0.002 0 0.771c-0.135,0.108 -0.275,0.189 -0.418,0.243 -0.144,0.055 -0.292,0.082 -0.443,0.082 -0.204,0 -0.39,-0.044 -0.556,-0.131 -0.167,-0.087 -0.293,-0.214 -0.378,-0.379 -0.085,-0.166 -0.128,-0.35 -0.128,-0.555 0,-0.202 0.043,-0.391 0.128,-0.566 0.084,-0.175 0.206,-0.305 0.364,-0.391 0.159,-0.084 0.342,-0.127 0.549,-0.127 0.15,0 0.286,0.024 0.407,0.073 0.122,0.049 0.217,0.116 0.286,0.203 0.069,0.088 0.121,0.201 0.158,0.341l-0.249 0.068c-0.031,-0.106 -0.07,-0.189 -0.116,-0.25 -0.046,-0.06 -0.112,-0.109 -0.198,-0.145 -0.086,-0.036 -0.182,-0.055 -0.286,-0.055 -0.126,0 -0.235,0.02 -0.327,0.058 -0.091,0.038 -0.165,0.088 -0.222,0.151 -0.056,0.062 -0.099,0.13 -0.131,0.205 -0.052,0.129 -0.079,0.268 -0.079,0.418 0,0.186 0.032,0.341 0.096,0.465 0.064,0.125 0.157,0.218 0.278,0.278 0.122,0.061 0.252,0.091 0.388,0.091 0.12,0 0.236,-0.023 0.349,-0.069 0.114,-0.046 0.2,-0.094 0.258,-0.147l0 -0.387 -0.61 0zm1.291 0.815l0 -2.077 1.502 0 0 0.245 -1.227 0 0 0.636 1.149 0 0 0.244 -1.149 0 0 0.707 1.275 0 0 0.245 -1.55 0zm1.927 0l0 -2.077 0.282 0 1.092 1.631 0 -1.631 0.263 0 0 2.077 -0.282 0 -1.091 -1.632 0 1.632 -0.264 0zm2.146 0l0 -2.077 0.275 0 0 2.077 -0.275 0zm0.766 0l0 -2.077 1.502 0 0 0.245 -1.227 0 0 0.636 1.149 0 0 0.244 -1.149 0 0 0.707 1.275 0 0 0.245 -1.55 0zm1.934 0l0 -2.077 0.922 0c0.185,0 0.326,0.018 0.422,0.056 0.096,0.037 0.173,0.103 0.231,0.197 0.058,0.095 0.086,0.199 0.086,0.314 0,0.147 -0.047,0.271 -0.143,0.372 -0.095,0.101 -0.243,0.165 -0.442,0.193 0.073,0.035 0.128,0.069 0.166,0.104 0.08,0.073 0.156,0.166 0.228,0.276l0.362 0.565 -0.346 0 -0.275 -0.432c-0.08,-0.124 -0.147,-0.22 -0.199,-0.286 -0.052,-0.066 -0.098,-0.113 -0.139,-0.139 -0.041,-0.027 -0.083,-0.045 -0.126,-0.056 -0.031,-0.006 -0.082,-0.009 -0.153,-0.009l-0.319 0 0 0.922 -0.275 0zm0.275 -1.16l0.591 0c0.126,0 0.224,-0.013 0.295,-0.039 0.071,-0.027 0.125,-0.068 0.162,-0.125 0.036,-0.057 0.055,-0.119 0.055,-0.186 0,-0.099 -0.036,-0.179 -0.107,-0.243 -0.071,-0.063 -0.184,-0.095 -0.338,-0.095l-0.658 0 0 0.688zm1.864 1.16l0 -2.077 0.275 0 0 2.077 -0.275 0zm-0.071 -2.205l0.189 -0.397 0.334 0 -0.311 0.397 -0.212 0zm0.603 2.205l0.798 -2.077 0.296 0 0.85 2.077 -0.313 0 -0.243 -0.629 -0.868 0 -0.228 0.629 -0.292 0zm0.599 -0.853l0.705 0 -0.217 -0.575c-0.066,-0.175 -0.116,-0.319 -0.147,-0.431 -0.027,0.133 -0.064,0.265 -0.113,0.397l-0.228 0.609zm-20.382 3.842l0.279 -0.038c0.007,0.179 0.041,0.302 0.1,0.368 0.06,0.066 0.143,0.098 0.248,0.098 0.078,0 0.145,-0.017 0.201,-0.053 0.057,-0.036 0.095,-0.084 0.117,-0.145 0.021,-0.062 0.032,-0.159 0.032,-0.293l0 -1.613 0.309 0 0 1.595c0,0.196 -0.023,0.348 -0.071,0.455 -0.047,0.108 -0.122,0.189 -0.225,0.246 -0.103,0.056 -0.223,0.085 -0.362,0.085 -0.205,0 -0.362,-0.059 -0.471,-0.177 -0.11,-0.119 -0.162,-0.294 -0.157,-0.528zm3.128 -1.413l0.275 0 0 1.201c0,0.208 -0.024,0.374 -0.071,0.497 -0.048,0.123 -0.133,0.223 -0.256,0.3 -0.123,0.077 -0.285,0.115 -0.485,0.115 -0.195,0 -0.354,-0.033 -0.478,-0.1 -0.124,-0.067 -0.212,-0.164 -0.265,-0.292 -0.053,-0.127 -0.079,-0.3 -0.079,-0.52l0 -1.201 0.274 0 0 1.199c0,0.181 0.017,0.314 0.051,0.399 0.033,0.086 0.091,0.151 0.173,0.198 0.081,0.046 0.181,0.069 0.299,0.069 0.203,0 0.347,-0.045 0.433,-0.137 0.086,-0.092 0.129,-0.268 0.129,-0.529l0 -1.199zm0.721 2.078l0 -2.078 0.275 0 0 1.833 1.024 0 0 0.245 -1.299 0zm1.673 0l0 -2.078 0.275 0 0 2.078 -0.275 0zm0.676 -1.012c0,-0.345 0.092,-0.615 0.278,-0.81 0.185,-0.195 0.424,-0.293 0.717,-0.293 0.192,0 0.365,0.046 0.519,0.138 0.154,0.091 0.271,0.219 0.352,0.383 0.081,0.164 0.121,0.35 0.121,0.558 0,0.21 -0.042,0.399 -0.127,0.565 -0.086,0.167 -0.206,0.292 -0.362,0.378 -0.156,0.086 -0.324,0.128 -0.504,0.128 -0.196,0 -0.371,-0.047 -0.525,-0.142 -0.154,-0.094 -0.271,-0.223 -0.35,-0.387 -0.079,-0.163 -0.119,-0.336 -0.119,-0.518zm0.283 0.004c0,0.251 0.068,0.448 0.202,0.592 0.135,0.144 0.304,0.216 0.507,0.216 0.207,0 0.377,-0.073 0.511,-0.218 0.133,-0.146 0.201,-0.352 0.201,-0.62 0,-0.169 -0.029,-0.316 -0.086,-0.443 -0.057,-0.126 -0.141,-0.224 -0.251,-0.293 -0.11,-0.069 -0.234,-0.104 -0.371,-0.104 -0.195,0 -0.362,0.066 -0.502,0.201 -0.14,0.133 -0.211,0.357 -0.211,0.669zm4.091 0.089l0 -0.274 0.991 -0.001 0 0.868c-0.152,0.121 -0.309,0.212 -0.471,0.274 -0.161,0.061 -0.328,0.092 -0.498,0.092 -0.23,0 -0.439,-0.049 -0.627,-0.148 -0.188,-0.098 -0.329,-0.241 -0.425,-0.427 -0.096,-0.186 -0.144,-0.394 -0.144,-0.624 0,-0.228 0.048,-0.441 0.143,-0.638 0.095,-0.198 0.232,-0.345 0.411,-0.441 0.179,-0.095 0.385,-0.143 0.618,-0.143 0.169,0 0.322,0.027 0.459,0.082 0.137,0.055 0.244,0.131 0.322,0.229 0.078,0.098 0.137,0.226 0.177,0.384l-0.279 0.076c-0.036,-0.119 -0.079,-0.213 -0.131,-0.281 -0.052,-0.068 -0.127,-0.123 -0.224,-0.163 -0.096,-0.041 -0.204,-0.062 -0.322,-0.062 -0.142,0 -0.264,0.022 -0.367,0.065 -0.104,0.043 -0.187,0.1 -0.251,0.17 -0.063,0.07 -0.112,0.147 -0.147,0.232 -0.06,0.144 -0.09,0.301 -0.09,0.47 0,0.209 0.036,0.384 0.108,0.524 0.072,0.141 0.177,0.245 0.314,0.313 0.137,0.068 0.283,0.103 0.437,0.103 0.135,0 0.266,-0.027 0.393,-0.078 0.128,-0.052 0.225,-0.107 0.291,-0.165l0 -0.437 -0.688 0zm1.191 0.919l0.799 -2.078 0.296 0 0.85 2.078 -0.313 0 -0.243 -0.63 -0.869 0 -0.227 0.63 -0.293 0zm0.6 -0.854l0.705 0 -0.218 -0.575c-0.065,-0.174 -0.115,-0.318 -0.147,-0.431 -0.026,0.134 -0.063,0.266 -0.112,0.397l-0.228 0.609zm1.569 0.854l0 -2.078 0.921 0c0.186,0 0.326,0.019 0.423,0.056 0.096,0.037 0.173,0.103 0.231,0.197 0.058,0.095 0.086,0.2 0.086,0.314 0,0.148 -0.047,0.271 -0.143,0.372 -0.095,0.102 -0.243,0.166 -0.442,0.194 0.073,0.034 0.128,0.069 0.166,0.103 0.08,0.074 0.156,0.166 0.228,0.276l0.361 0.566 -0.346 0 -0.274 -0.433c-0.081,-0.124 -0.147,-0.22 -0.199,-0.286 -0.052,-0.066 -0.098,-0.112 -0.139,-0.138 -0.042,-0.027 -0.083,-0.045 -0.126,-0.056 -0.031,-0.006 -0.082,-0.01 -0.153,-0.01l-0.319 0 0 0.923 -0.275 0zm0.275 -1.161l0.591 0c0.126,0 0.224,-0.013 0.295,-0.039 0.071,-0.026 0.125,-0.068 0.161,-0.125 0.037,-0.057 0.056,-0.119 0.056,-0.186 0,-0.098 -0.036,-0.179 -0.107,-0.242 -0.071,-0.064 -0.184,-0.095 -0.339,-0.095l-0.657 0 0 0.687zm1.589 1.161l0.798 -2.078 0.296 0 0.851 2.078 -0.314 0 -0.242 -0.63 -0.869 0 -0.228 0.63 -0.292 0zm0.599 -0.854l0.705 0 -0.217 -0.575c-0.066,-0.174 -0.115,-0.318 -0.147,-0.431 -0.027,0.134 -0.064,0.266 -0.112,0.397l-0.229 0.609zm1.944 0.854l-0.805 -2.078 0.298 0 0.54 1.509c0.043,0.121 0.079,0.235 0.108,0.341 0.033,-0.114 0.07,-0.227 0.113,-0.341l0.561 -1.509 0.28 0 -0.813 2.078 -0.282 0zm1.389 0l0 -2.078 0.275 0 0 2.078 -0.275 0zm1.288 0l0 -1.833 -0.684 0 0 -0.245 1.647 0 0 0.245 -0.688 0 0 1.833 -0.275 0zm1.109 -1.012c0,-0.345 0.092,-0.615 0.278,-0.81 0.185,-0.195 0.424,-0.293 0.717,-0.293 0.192,0 0.365,0.046 0.519,0.138 0.153,0.091 0.271,0.219 0.352,0.383 0.081,0.164 0.121,0.35 0.121,0.558 0,0.21 -0.042,0.399 -0.127,0.565 -0.086,0.167 -0.206,0.292 -0.362,0.378 -0.156,0.086 -0.324,0.128 -0.504,0.128 -0.196,0 -0.371,-0.047 -0.525,-0.142 -0.154,-0.094 -0.271,-0.223 -0.35,-0.387 -0.08,-0.163 -0.119,-0.336 -0.119,-0.518zm0.283 0.004c0,0.251 0.068,0.448 0.202,0.592 0.135,0.144 0.304,0.216 0.507,0.216 0.207,0 0.377,-0.073 0.511,-0.218 0.134,-0.146 0.201,-0.352 0.201,-0.62 0,-0.169 -0.029,-0.316 -0.086,-0.443 -0.057,-0.126 -0.141,-0.224 -0.251,-0.293 -0.11,-0.069 -0.234,-0.104 -0.371,-0.104 -0.195,0 -0.362,0.066 -0.502,0.201 -0.14,0.133 -0.211,0.357 -0.211,0.669z"/>
   <g>
    <g>
     <g>
      <path class="fil1" d="M7.095 15.347c-0.034,0.033 -0.088,0.033 -0.122,0 -0.033,-0.033 -0.033,-0.088 0,-0.121l0.122 0.121zm8.212 -8.253l-8.212 8.253 -0.122 -0.121 8.213 -8.253 0.121 0.121zm-0.121 -0.121c0.033,-0.033 0.087,-0.034 0.121,0 0.034,0.033 0.034,0.087 0,0.121l-0.121 -0.121z"/>
     </g>
     <g>
      <path class="fil1" d="M12.596 15.303c-0.009,0.046 -0.054,0.076 -0.101,0.067 -0.046,-0.009 -0.076,-0.054 -0.067,-0.101l0.168 0.034zm2.731 -13.772l-2.731 13.772 -0.168 -0.034 2.731 -13.771 0.168 0.033zm-0.168 -0.033c0.009,-0.046 0.054,-0.077 0.101,-0.068 0.046,0.01 0.076,0.055 0.067,0.101l-0.168 -0.033z"/>
     </g>
     <g>
      <path class="fil1" d="M9.88 15.279c-0.021,0.042 -0.073,0.06 -0.115,0.039 -0.043,-0.021 -0.06,-0.073 -0.039,-0.115l0.154 0.076zm5.443 -11l-5.443 11 -0.154 -0.076 5.444 -11 0.153 0.076zm-0.153 -0.076c0.021,-0.042 0.072,-0.06 0.115,-0.039 0.042,0.021 0.059,0.073 0.038,0.115l-0.153 -0.076z"/>
     </g>
     <g>
      <path class="fil1" d="M4.309 15.363c-0.043,0.021 -0.094,0.004 -0.116,-0.038 -0.021,-0.043 -0.004,-0.094 0.039,-0.115l0.077 0.153zm10.976 -5.521l-10.976 5.521 -0.077 -0.153 10.976 -5.521 0.077 0.153zm-0.077 -0.153c0.042,-0.021 0.094,-0.004 0.115,0.038 0.021,0.042 0.004,0.094 -0.038,0.115l-0.077 -0.153z"/>
     </g>
     <g>
      <path class="fil1" d="M1.549 15.349c-0.046,0.009 -0.091,-0.021 -0.101,-0.067 -0.009,-0.047 0.021,-0.092 0.068,-0.101l0.033 0.168zm13.714 -2.73l-13.714 2.73 -0.033 -0.168 13.714 -2.731 0.033 0.169zm-0.033 -0.169c0.046,-0.009 0.091,0.021 0.101,0.068 0.009,0.046 -0.021,0.091 -0.068,0.101l-0.033 -0.169z"/>
     </g>
    </g>
    <g>
     <path class="fil1" d="M7.034 15.372c-0.047,0 -0.086,-0.038 -0.086,-0.086 0,-0.047 0.039,-0.086 0.086,-0.086l0 0.172zm1.356 0l-1.356 0 0 -0.172 1.356 0 0.07 0.136 -0.07 0.036zm0 -0.172c0.048,0 0.086,0.039 0.086,0.086 0,0.048 -0.038,0.086 -0.086,0.086l0 -0.172zm6.926 -9.49l-6.856 9.626 -0.139 -0.1 6.856 -9.626 0.155 0.05 -0.016 0.05zm-0.139 -0.1c0.027,-0.038 0.081,-0.047 0.119,-0.02 0.039,0.027 0.048,0.081 0.02,0.12l-0.139 -0.1zm0.155 -1.369l0 1.419 -0.171 0 0 -1.419 0.171 0zm-0.171 0c0,-0.047 0.038,-0.086 0.086,-0.086 0.047,0 0.085,0.039 0.085,0.086l-0.171 0z"/>
    </g>
    <g>
     <path class="fil1" d="M15.161 12.535c0,-0.048 0.038,-0.086 0.086,-0.086 0.047,0 0.085,0.038 0.085,0.086l-0.171 0zm0 1.377l0 -1.377 0.171 0 0 1.377 -0.077 0.086 -0.094 -0.086zm0.171 0c0,0.048 -0.038,0.086 -0.085,0.086 -0.048,0 -0.086,-0.038 -0.086,-0.086l0.171 0zm-13.808 1.289l13.714 -1.374 0.017 0.171 -13.714 1.374 -0.008 0 -0.009 -0.171zm0.017 0.171c-0.047,0.004 -0.089,-0.03 -0.094,-0.077 -0.004,-0.047 0.03,-0.089 0.077,-0.094l0.017 0.171zm1.398 0l-1.406 0 0 -0.172 1.406 0 0.028 0.167 -0.028 0.005zm0 -0.172c0.048,0 0.086,0.039 0.086,0.086 0,0.048 -0.038,0.086 -0.086,0.086l0 -0.172zm12.335 -3.976l-12.307 4.143 -0.055 -0.162 12.307 -4.144 0.113 0.082 -0.058 0.081zm-0.055 -0.163c0.045,-0.015 0.094,0.009 0.109,0.054 0.015,0.045 -0.009,0.094 -0.054,0.109l-0.055 -0.163zm0.113 -1.295l0 1.377 -0.171 0 0 -1.377 0.171 0zm-0.171 0c0,-0.048 0.038,-0.086 0.086,-0.086 0.047,0 0.085,0.038 0.085,0.086l-0.171 0z"/>
    </g>
    <g>
     <path class="fil1" d="M15.161 7.034c0,-0.048 0.038,-0.086 0.086,-0.086 0.047,0 0.085,0.038 0.085,0.086l-0.171 0zm0 1.353l0 -1.353 0.171 0 0 1.353 -0.035 0.07 -0.136 -0.07zm0.171 0c0,0.047 -0.038,0.086 -0.085,0.086 -0.048,0 -0.086,-0.039 -0.086,-0.086l0.171 0zm-9.747 6.83l9.612 -6.9 0.1 0.14 -9.612 6.899 -0.05 0.016 -0.05 -0.155zm0.1 0.139c-0.039,0.027 -0.092,0.019 -0.12,-0.02 -0.027,-0.038 -0.019,-0.092 0.02,-0.119l0.1 0.139zm-1.415 -0.156l1.365 0 0 0.172 -1.365 0 0 -0.172zm0 0.172c-0.047,0 -0.086,-0.038 -0.086,-0.086 0,-0.047 0.039,-0.086 0.086,-0.086l0 0.172z"/>
    </g>
    <g>
     <path class="fil1" d="M16.09 13.926c0,0.048 -0.034,0.086 -0.077,0.086 -0.043,0 -0.078,-0.038 -0.078,-0.086l0.155 0zm0 -13.84l0 13.84 -0.155 0 0 -13.84 0.155 0zm-0.155 0c0,-0.048 0.035,-0.086 0.078,-0.086 0.043,0 0.077,0.038 0.077,0.086l-0.155 0z"/>
    </g>
    <g>
     <path class="fil1" d="M16.766 15.837c0.047,0 0.086,0.036 0.086,0.08 0,0.044 -0.039,0.079 -0.086,0.079l0 -0.159zm-16.654 0l16.654 0 0 0.159 -16.654 0 0 -0.159zm0 0.159c-0.047,0 -0.086,-0.035 -0.086,-0.079 0,-0.044 0.039,-0.08 0.086,-0.08l0 0.159z"/>
    </g>
    <g>
     <path class="fil1" d="M12.512 15.372c-0.047,0 -0.086,-0.038 -0.086,-0.086 0,-0.047 0.039,-0.086 0.086,-0.086l0 0.172zm1.382 0l-1.382 0 0 -0.172 1.382 0 0.086 0.095 -0.086 0.077zm0 -0.172c0.048,0 0.086,0.039 0.086,0.086 0,0.048 -0.038,0.086 -0.086,0.086l0 -0.172zm1.438 -13.698l-1.352 13.793 -0.171 -0.017 1.352 -13.792 0.171 0.008 0 0.008zm-0.171 -0.016c0.005,-0.048 0.047,-0.082 0.094,-0.077 0.047,0.004 0.081,0.046 0.077,0.093l-0.171 -0.016zm0 1.43l0 -1.422 0.171 0 0 1.422 -0.004 0.027 -0.167 -0.027zm0.171 0c0,0.047 -0.038,0.086 -0.085,0.086 -0.048,0 -0.086,-0.039 -0.086,-0.086l0.171 0zm-4.244 12.343l4.077 -12.37 0.163 0.054 -4.077 12.37 -0.081 0.059 -0.082 -0.113zm0.163 0.054c-0.015,0.045 -0.063,0.069 -0.108,0.055 -0.045,-0.015 -0.07,-0.064 -0.055,-0.109l0.163 0.054zm-1.451 -0.113l1.37 0 0 0.172 -1.37 0 0 -0.172zm0 0.172c-0.047,0 -0.086,-0.038 -0.086,-0.086 0,-0.047 0.039,-0.086 0.086,-0.086l0 0.172z"/>
    </g>
   </g>
   <path class="fil1" d="M13.021 19.908l0.266 0 0 1.16c0,0.202 -0.023,0.362 -0.068,0.481 -0.046,0.118 -0.128,0.215 -0.247,0.289 -0.119,0.075 -0.275,0.112 -0.468,0.112 -0.188,0 -0.341,-0.032 -0.461,-0.097 -0.119,-0.065 -0.204,-0.159 -0.255,-0.281 -0.051,-0.124 -0.077,-0.291 -0.077,-0.504l0 -1.16 0.266 0 0 1.16c0,0.174 0.017,0.303 0.049,0.385 0.032,0.083 0.087,0.147 0.166,0.191 0.079,0.045 0.175,0.068 0.289,0.068 0.194,0 0.333,-0.045 0.416,-0.133 0.083,-0.089 0.124,-0.259 0.124,-0.511l0 -1.16zm0.707 2.008l0 -2.008 0.273 0 1.053 1.577 0 -1.577 0.255 0 0 2.008 -0.272 0 -1.054 -1.576 0 1.576 -0.255 0zm2.073 0l0 -2.008 0.266 0 0 2.008 -0.266 0zm1.306 0l-0.776 -2.008 0.288 0 0.522 1.46c0.041,0.117 0.077,0.226 0.105,0.328 0.031,-0.11 0.067,-0.219 0.108,-0.328l0.541 -1.46 0.271 0 -0.783 2.008 -0.276 0zm1.304 0l0 -2.008 1.45 0 0 0.236 -1.184 0 0 0.617 1.108 0 0 0.236 -1.108 0 0 0.684 1.232 0 0 0.235 -1.498 0zm1.871 0l0 -2.008 0.889 0c0.179,0 0.315,0.019 0.409,0.055 0.093,0.036 0.167,0.099 0.222,0.19 0.056,0.092 0.084,0.192 0.084,0.303 0,0.142 -0.047,0.262 -0.139,0.36 -0.092,0.098 -0.234,0.16 -0.426,0.186 0.07,0.034 0.123,0.067 0.16,0.1 0.077,0.071 0.151,0.161 0.22,0.268l0.347 0.546 -0.332 0 -0.265 -0.417c-0.078,-0.121 -0.142,-0.214 -0.192,-0.278 -0.05,-0.064 -0.095,-0.108 -0.135,-0.134 -0.039,-0.025 -0.08,-0.043 -0.121,-0.053 -0.03,-0.006 -0.079,-0.009 -0.147,-0.009l-0.308 0 0 0.891 -0.266 0zm0.266 -1.121l0.57 0c0.122,0 0.216,-0.013 0.284,-0.038 0.069,-0.025 0.121,-0.065 0.156,-0.121 0.035,-0.055 0.053,-0.115 0.053,-0.18 0,-0.095 -0.034,-0.173 -0.103,-0.234 -0.069,-0.062 -0.177,-0.092 -0.325,-0.092l-0.635 0 0 0.665zm1.666 0.476l0.25 -0.022c0.012,0.101 0.039,0.184 0.083,0.249 0.043,0.064 0.11,0.116 0.202,0.157 0.091,0.039 0.194,0.06 0.307,0.06 0.102,0 0.191,-0.015 0.269,-0.046 0.077,-0.03 0.135,-0.072 0.173,-0.125 0.038,-0.052 0.057,-0.11 0.057,-0.172 0,-0.062 -0.018,-0.117 -0.055,-0.164 -0.036,-0.047 -0.097,-0.086 -0.181,-0.118 -0.053,-0.021 -0.173,-0.054 -0.357,-0.098 -0.185,-0.045 -0.314,-0.086 -0.388,-0.125 -0.096,-0.051 -0.167,-0.113 -0.213,-0.188 -0.048,-0.074 -0.071,-0.158 -0.071,-0.25 0,-0.102 0.029,-0.197 0.087,-0.284 0.057,-0.089 0.141,-0.156 0.251,-0.202 0.111,-0.045 0.234,-0.068 0.369,-0.068 0.148,0 0.28,0.024 0.393,0.072 0.114,0.048 0.201,0.118 0.262,0.212 0.062,0.093 0.094,0.198 0.099,0.316l-0.255 0.02c-0.014,-0.127 -0.06,-0.223 -0.139,-0.287 -0.079,-0.065 -0.196,-0.098 -0.35,-0.098 -0.161,0 -0.278,0.03 -0.351,0.089 -0.074,0.059 -0.111,0.13 -0.111,0.213 0,0.072 0.026,0.131 0.078,0.178 0.052,0.046 0.185,0.094 0.401,0.143 0.216,0.049 0.364,0.092 0.444,0.128 0.117,0.054 0.203,0.122 0.259,0.204 0.055,0.083 0.083,0.177 0.083,0.285 0,0.107 -0.03,0.207 -0.092,0.301 -0.061,0.095 -0.148,0.168 -0.263,0.221 -0.114,0.052 -0.243,0.078 -0.386,0.078 -0.182,0 -0.334,-0.027 -0.456,-0.079 -0.123,-0.053 -0.219,-0.133 -0.288,-0.239 -0.07,-0.106 -0.107,-0.226 -0.111,-0.361zm2.003 0.645l0 -2.008 0.266 0 0 2.008 -0.266 0zm0.734 0l0 -2.008 0.692 0c0.156,0 0.275,0.01 0.357,0.029 0.115,0.027 0.213,0.075 0.295,0.144 0.106,0.09 0.185,0.204 0.237,0.343 0.053,0.139 0.079,0.299 0.079,0.478 0,0.152 -0.018,0.287 -0.053,0.405 -0.036,0.118 -0.082,0.215 -0.137,0.293 -0.056,0.077 -0.117,0.137 -0.183,0.181 -0.066,0.045 -0.146,0.078 -0.24,0.101 -0.094,0.023 -0.201,0.034 -0.323,0.034l-0.724 0zm0.266 -0.235l0.428 0c0.133,0 0.236,-0.012 0.312,-0.037 0.075,-0.025 0.135,-0.059 0.18,-0.104 0.062,-0.063 0.111,-0.148 0.146,-0.255 0.035,-0.106 0.053,-0.235 0.053,-0.387 0,-0.211 -0.034,-0.372 -0.103,-0.486 -0.069,-0.113 -0.153,-0.188 -0.251,-0.227 -0.071,-0.027 -0.186,-0.041 -0.344,-0.041l-0.421 0 0 1.537zm1.539 0.235l0.77 -2.008 0.292 0 0.818 2.008 -0.303 0 -0.232 -0.608 -0.845 0 -0.218 0.608 -0.282 0zm0.578 -0.824l0.684 0 -0.209 -0.557c-0.064,-0.169 -0.111,-0.309 -0.144,-0.419 -0.028,0.131 -0.065,0.259 -0.111,0.387l-0.22 0.589zm1.513 0.824l0 -2.008 0.691 0c0.156,0 0.276,0.01 0.358,0.029 0.115,0.027 0.213,0.075 0.294,0.144 0.106,0.09 0.185,0.204 0.238,0.343 0.053,0.139 0.079,0.299 0.079,0.478 0,0.152 -0.018,0.287 -0.053,0.405 -0.036,0.118 -0.082,0.215 -0.138,0.293 -0.056,0.077 -0.116,0.137 -0.183,0.181 -0.066,0.045 -0.146,0.078 -0.239,0.101 -0.094,0.023 -0.201,0.034 -0.323,0.034l-0.724 0zm0.266 -0.235l0.428 0c0.132,0 0.236,-0.012 0.311,-0.037 0.076,-0.025 0.135,-0.059 0.18,-0.104 0.063,-0.063 0.112,-0.148 0.147,-0.255 0.035,-0.106 0.053,-0.235 0.053,-0.387 0,-0.211 -0.035,-0.372 -0.103,-0.486 -0.069,-0.113 -0.153,-0.188 -0.251,-0.227 -0.071,-0.027 -0.186,-0.041 -0.344,-0.041l-0.421 0 0 1.537z"/>
   <rect class="fil2" y="17.302" width="42.218" height="0.82"/>
  </g>
 </g>
</svg>
