<?xml version="1.0" encoding="UTF-8"?>
<!DOCTYPE svg PUBLIC "-//W3C//DTD SVG 1.1//EN" "http://www.w3.org/Graphics/SVG/1.1/DTD/svg11.dtd">
<!-- Creator: CorelDRAW -->
<svg xmlns="http://www.w3.org/2000/svg" xml:space="preserve" width="460px" height="221px" version="1.1" style="shape-rendering:geometricPrecision; text-rendering:geometricPrecision; image-rendering:optimizeQuality; fill-rule:evenodd; clip-rule:evenodd"
viewBox="0 0 42.218 20.325"
 xmlns:xlink="http://www.w3.org/1999/xlink"
 xmlns:xodm="http://www.corel.com/coreldraw/odm/2003">
 <defs>
  <style type="text/css">
   <![CDATA[
    .fil0 {fill:#101010}
    .fil1 {fill:black;fill-rule:nonzero}
   ]]>
  </style>
 </defs>
 <g id="Layer_x0020_1">
  <metadata id="CorelCorpID_0Corel-Layer"/>
  <g id="_2647286857696">
   <g>
    <path class="fil0" d="M12.184 17.219c-3.405,-0.016 -10.64,0.176 -9.521,-4.294 0.42,-1.678 1.82,-3.326 2.64,-4.374l1.448 -1.648c0.085,-0.087 0.128,-0.114 0.204,-0.203 0.375,-0.435 1.572,-1.615 1.683,-1.824l-0.137 -0.227c-0.041,-0.082 -0.072,-0.148 -0.12,-0.244 -0.259,-0.511 -0.552,-1.025 -0.763,-1.56 -0.348,-0.879 -0.551,-1.371 -0.773,-2.279 -0.088,-0.361 -0.228,-0.519 -0.367,-0.566l-0.196 0c-0.094,0.03 -0.171,0.097 -0.209,0.163 -0.096,0.167 -0.122,0.383 -0.182,0.593 -0.06,0.214 -0.116,0.376 -0.179,0.595 -0.302,1.054 -0.864,2.282 -1.348,3.252l-0.53 1.017c-0.53,0.987 -1.096,1.952 -1.715,2.884l-1.21 1.887c-0.192,0.356 -0.359,0.606 -0.526,1.021 -0.22,0.547 -0.343,1.154 -0.383,1.773l0 0.919c0.057,0.9 0.277,1.771 0.621,2.454 0.606,1.205 1.162,1.729 2.096,2.502l0.95 0.597c0.76,0.378 1.563,0.598 2.37,0.668l1.141 0c0.548,-0.047 1.09,-0.164 1.614,-0.347 0.91,-0.318 1.699,-0.865 2.387,-1.526l1.005 -1.233z"/>
    <path class="fil0" d="M12.729 16.225l0.223 -0.69c0.122,-0.415 0.198,-0.839 0.232,-1.264l0 -1.031c-0.084,-1.073 -0.426,-2.117 -0.974,-3.013 -0.254,-0.416 -1.191,-1.623 -1.572,-2.161l-1.1 -1.677c-0.069,-0.107 -0.111,-0.173 -0.175,-0.28 -0.055,-0.092 -0.144,-0.197 -0.18,-0.3 -0.334,0.249 -1.053,1.083 -1.338,1.373l-1.679 1.869c-0.796,1.015 -1.96,2.342 -2.474,3.855 -0.737,2.174 1.24,2.699 3.017,3.022 1.716,0.311 4.228,0.37 6.02,0.297z"/>
   </g>
   <g>
    <path class="fil1" d="M17.865 7.582c-0.157,0.083 -0.354,0.125 -0.59,0.125 -0.304,0 -0.547,-0.098 -0.729,-0.293 -0.184,-0.196 -0.275,-0.453 -0.275,-0.771 0,-0.341 0.103,-0.618 0.309,-0.828 0.205,-0.211 0.466,-0.317 0.782,-0.317 0.202,0 0.37,0.03 0.503,0.088l0 0.268c-0.153,-0.086 -0.322,-0.129 -0.506,-0.129 -0.245,0 -0.444,0.082 -0.597,0.246 -0.152,0.164 -0.229,0.383 -0.229,0.657 0,0.261 0.072,0.468 0.214,0.622 0.143,0.155 0.33,0.232 0.561,0.232 0.215,0 0.401,-0.048 0.557,-0.143l0 0.243zm1.629 -0.613l-1.077 0c0.004,0.17 0.05,0.301 0.137,0.394 0.088,0.092 0.208,0.138 0.361,0.138 0.172,0 0.329,-0.056 0.474,-0.169l0 0.229c-0.134,0.098 -0.312,0.146 -0.532,0.146 -0.216,0 -0.385,-0.069 -0.508,-0.208 -0.124,-0.138 -0.185,-0.333 -0.185,-0.585 0,-0.237 0.067,-0.43 0.201,-0.58 0.135,-0.149 0.303,-0.224 0.502,-0.224 0.2,0 0.354,0.064 0.463,0.194 0.11,0.128 0.164,0.308 0.164,0.537l0 0.128zm-0.25 -0.207c-0.001,-0.141 -0.035,-0.25 -0.102,-0.329 -0.067,-0.079 -0.16,-0.118 -0.28,-0.118 -0.115,0 -0.213,0.042 -0.293,0.124 -0.08,0.082 -0.13,0.19 -0.149,0.323l0.824 0zm1.887 0.909l-0.245 0 0 -0.87c0,-0.324 -0.118,-0.486 -0.354,-0.486 -0.122,0 -0.224,0.046 -0.303,0.138 -0.081,0.092 -0.12,0.208 -0.12,0.348l0 0.87 -0.245 0 0 -1.526 0.245 0 0 0.254 0.006 0c0.115,-0.193 0.281,-0.289 0.5,-0.289 0.167,0 0.295,0.054 0.383,0.162 0.089,0.107 0.133,0.263 0.133,0.466l0 0.933zm1.168 -0.014c-0.057,0.031 -0.133,0.047 -0.228,0.047 -0.267,0 -0.4,-0.149 -0.4,-0.447l0 -0.903 -0.263 0 0 -0.209 0.263 0 0 -0.372 0.244 -0.079 0 0.451 0.384 0 0 0.209 -0.384 0 0 0.86c0,0.102 0.017,0.175 0.052,0.219 0.035,0.044 0.092,0.065 0.173,0.065 0.062,0 0.114,-0.016 0.159,-0.05l0 0.209zm1.122 -1.264c-0.042,-0.033 -0.104,-0.049 -0.184,-0.049 -0.105,0 -0.192,0.049 -0.262,0.147 -0.07,0.098 -0.105,0.233 -0.105,0.403l0 0.777 -0.245 0 0 -1.526 0.245 0 0 0.315 0.006 0c0.035,-0.108 0.088,-0.191 0.159,-0.252 0.072,-0.06 0.152,-0.089 0.24,-0.089 0.064,0 0.112,0.007 0.146,0.02l0 0.254zm0.903 1.314c-0.225,0 -0.405,-0.071 -0.54,-0.214 -0.134,-0.142 -0.202,-0.331 -0.202,-0.567 0,-0.256 0.07,-0.456 0.21,-0.601 0.141,-0.143 0.33,-0.215 0.568,-0.215 0.228,0 0.405,0.069 0.533,0.21 0.128,0.14 0.191,0.334 0.191,0.582 0,0.244 -0.069,0.439 -0.206,0.585 -0.138,0.147 -0.322,0.22 -0.554,0.22zm0.018 -1.392c-0.157,0 -0.281,0.054 -0.372,0.161 -0.092,0.106 -0.138,0.253 -0.138,0.442 0,0.18 0.047,0.323 0.139,0.427 0.093,0.104 0.216,0.156 0.371,0.156 0.158,0 0.28,-0.051 0.365,-0.153 0.085,-0.102 0.127,-0.248 0.127,-0.437 0,-0.19 -0.042,-0.337 -0.127,-0.441 -0.085,-0.103 -0.207,-0.155 -0.365,-0.155zm3.271 1.356l-0.244 0 0 -0.259 -0.006 0c-0.113,0.197 -0.288,0.295 -0.525,0.295 -0.191,0 -0.345,-0.068 -0.459,-0.205 -0.115,-0.136 -0.172,-0.322 -0.172,-0.558 0,-0.252 0.063,-0.454 0.19,-0.606 0.127,-0.152 0.297,-0.228 0.508,-0.228 0.21,0 0.363,0.082 0.458,0.247l0.006 0 0 -0.944 0.244 0 0 2.258zm-0.244 -0.689l0 -0.226c0,-0.123 -0.041,-0.227 -0.122,-0.313 -0.082,-0.085 -0.185,-0.128 -0.31,-0.128 -0.149,0 -0.267,0.055 -0.352,0.164 -0.085,0.109 -0.128,0.26 -0.128,0.453 0,0.176 0.041,0.315 0.123,0.417 0.082,0.102 0.192,0.152 0.33,0.152 0.136,0 0.247,-0.049 0.332,-0.147 0.085,-0.098 0.127,-0.223 0.127,-0.372zm1.965 -0.013l-1.077 0c0.004,0.17 0.05,0.301 0.137,0.394 0.088,0.092 0.208,0.138 0.361,0.138 0.172,0 0.329,-0.056 0.474,-0.169l0 0.229c-0.134,0.098 -0.312,0.146 -0.532,0.146 -0.216,0 -0.385,-0.069 -0.508,-0.208 -0.124,-0.138 -0.185,-0.333 -0.185,-0.585 0,-0.237 0.067,-0.43 0.202,-0.58 0.134,-0.149 0.302,-0.224 0.501,-0.224 0.2,0 0.354,0.064 0.463,0.194 0.11,0.128 0.164,0.308 0.164,0.537l0 0.128zm-0.25 -0.207c-0.001,-0.141 -0.035,-0.25 -0.102,-0.329 -0.067,-0.079 -0.16,-0.118 -0.279,-0.118 -0.115,0 -0.214,0.042 -0.294,0.124 -0.08,0.082 -0.13,0.19 -0.149,0.323l0.824 0z"/>
    <path class="fil1" d="M18.292 12.193l-2.01 0 0 -3.794 1.926 0 0 0.402 -1.482 0 0 1.262 1.371 0 0 0.399 -1.371 0 0 1.329 1.566 0 0 0.402zm0.509 -0.098l0 -0.466c0.235,0.175 0.496,0.262 0.78,0.262 0.381,0 0.572,-0.127 0.572,-0.381 0,-0.072 -0.017,-0.134 -0.049,-0.183 -0.034,-0.051 -0.077,-0.095 -0.133,-0.134 -0.055,-0.039 -0.121,-0.074 -0.196,-0.105 -0.075,-0.03 -0.155,-0.063 -0.242,-0.096 -0.12,-0.048 -0.225,-0.096 -0.316,-0.145 -0.09,-0.048 -0.166,-0.103 -0.228,-0.163 -0.06,-0.062 -0.106,-0.13 -0.137,-0.208 -0.031,-0.078 -0.046,-0.169 -0.046,-0.273 0,-0.127 0.029,-0.239 0.087,-0.338 0.058,-0.097 0.136,-0.179 0.233,-0.245 0.097,-0.066 0.207,-0.117 0.332,-0.15 0.124,-0.033 0.253,-0.05 0.385,-0.05 0.235,0 0.444,0.041 0.629,0.121l0 0.44c-0.198,-0.131 -0.428,-0.196 -0.687,-0.196 -0.081,0 -0.154,0.009 -0.22,0.028 -0.065,0.018 -0.121,0.044 -0.168,0.078 -0.046,0.033 -0.083,0.074 -0.109,0.12 -0.025,0.047 -0.038,0.098 -0.038,0.155 0,0.071 0.013,0.129 0.038,0.177 0.026,0.048 0.063,0.091 0.113,0.128 0.049,0.037 0.109,0.07 0.18,0.1 0.07,0.03 0.151,0.062 0.241,0.097 0.119,0.046 0.228,0.093 0.322,0.142 0.095,0.049 0.177,0.103 0.244,0.165 0.067,0.06 0.119,0.13 0.155,0.21 0.036,0.079 0.054,0.173 0.054,0.283 0,0.134 -0.03,0.251 -0.089,0.349 -0.059,0.099 -0.138,0.181 -0.236,0.246 -0.1,0.066 -0.213,0.114 -0.342,0.146 -0.129,0.032 -0.263,0.047 -0.405,0.047 -0.278,0 -0.52,-0.053 -0.724,-0.161zm3.72 0.072c-0.102,0.056 -0.238,0.084 -0.405,0.084 -0.475,0 -0.712,-0.265 -0.712,-0.794l0 -1.603 -0.466 0 0 -0.371 0.466 0 0 -0.661 0.434 -0.141 0 0.802 0.683 0 0 0.371 -0.683 0 0 1.527c0,0.181 0.031,0.311 0.093,0.388 0.061,0.078 0.163,0.117 0.307,0.117 0.109,0 0.203,-0.03 0.283,-0.09l0 0.371zm2.77 0.026l-0.434 0 0 -0.429 -0.011 0c-0.179,0.329 -0.459,0.492 -0.836,0.492 -0.646,0 -0.968,-0.384 -0.968,-1.153l0 -1.62 0.431 0 0 1.551c0,0.572 0.219,0.857 0.656,0.857 0.211,0 0.386,-0.077 0.523,-0.234 0.136,-0.156 0.205,-0.36 0.205,-0.613l0 -1.561 0.434 0 0 2.71zm3.189 0l-0.435 0 0 -0.461 -0.01 0c-0.201,0.35 -0.512,0.524 -0.932,0.524 -0.339,0 -0.612,-0.121 -0.815,-0.364 -0.204,-0.242 -0.307,-0.572 -0.307,-0.991 0,-0.448 0.113,-0.806 0.339,-1.076 0.226,-0.27 0.527,-0.405 0.903,-0.405 0.372,0 0.643,0.147 0.812,0.439l0.01 0 0 -1.677 0.435 0 0 4.011zm-0.435 -1.225l0 -0.4c0,-0.218 -0.072,-0.404 -0.217,-0.555 -0.144,-0.152 -0.327,-0.228 -0.549,-0.228 -0.265,0 -0.474,0.097 -0.626,0.291 -0.151,0.194 -0.227,0.462 -0.227,0.805 0,0.312 0.073,0.558 0.218,0.739 0.146,0.181 0.342,0.271 0.587,0.271 0.242,0 0.438,-0.087 0.588,-0.262 0.151,-0.174 0.226,-0.395 0.226,-0.661zm1.535 -2.173c-0.077,0 -0.144,-0.026 -0.198,-0.079 -0.055,-0.053 -0.082,-0.119 -0.082,-0.201 0,-0.081 0.027,-0.149 0.082,-0.202 0.054,-0.054 0.121,-0.081 0.198,-0.081 0.079,0 0.147,0.027 0.203,0.081 0.055,0.053 0.083,0.121 0.083,0.202 0,0.078 -0.028,0.144 -0.083,0.198 -0.056,0.055 -0.124,0.082 -0.203,0.082zm0.212 3.398l-0.434 0 0 -2.71 0.434 0 0 2.71zm2.01 0.063c-0.4,0 -0.72,-0.126 -0.959,-0.379 -0.238,-0.253 -0.358,-0.589 -0.358,-1.007 0,-0.455 0.124,-0.81 0.373,-1.067 0.249,-0.255 0.585,-0.383 1.008,-0.383 0.404,0 0.719,0.124 0.946,0.373 0.227,0.249 0.34,0.594 0.34,1.034 0,0.433 -0.122,0.779 -0.366,1.039 -0.245,0.26 -0.573,0.39 -0.984,0.39zm0.032 -2.471c-0.278,0 -0.499,0.095 -0.661,0.285 -0.163,0.189 -0.244,0.45 -0.244,0.785 0,0.32 0.082,0.573 0.247,0.758 0.164,0.185 0.383,0.278 0.658,0.278 0.281,0 0.497,-0.091 0.648,-0.273 0.15,-0.181 0.225,-0.439 0.225,-0.774 0,-0.339 -0.075,-0.6 -0.225,-0.783 -0.151,-0.185 -0.367,-0.276 -0.648,-0.276zm1.848 2.31l0 -0.466c0.236,0.175 0.496,0.262 0.78,0.262 0.381,0 0.572,-0.127 0.572,-0.381 0,-0.072 -0.016,-0.134 -0.049,-0.183 -0.033,-0.051 -0.077,-0.095 -0.133,-0.134 -0.055,-0.039 -0.121,-0.074 -0.196,-0.105 -0.075,-0.03 -0.155,-0.063 -0.242,-0.096 -0.12,-0.048 -0.225,-0.096 -0.316,-0.145 -0.09,-0.048 -0.166,-0.103 -0.227,-0.163 -0.061,-0.062 -0.107,-0.13 -0.138,-0.208 -0.03,-0.078 -0.046,-0.169 -0.046,-0.273 0,-0.127 0.029,-0.239 0.087,-0.338 0.059,-0.097 0.136,-0.179 0.233,-0.245 0.097,-0.066 0.208,-0.117 0.332,-0.15 0.124,-0.033 0.253,-0.05 0.385,-0.05 0.235,0 0.444,0.041 0.63,0.121l0 0.44c-0.199,-0.131 -0.429,-0.196 -0.688,-0.196 -0.081,0 -0.154,0.009 -0.22,0.028 -0.065,0.018 -0.121,0.044 -0.168,0.078 -0.046,0.033 -0.082,0.074 -0.109,0.12 -0.025,0.047 -0.037,0.098 -0.037,0.155 0,0.071 0.012,0.129 0.037,0.177 0.027,0.048 0.064,0.091 0.113,0.128 0.049,0.037 0.11,0.07 0.18,0.1 0.071,0.03 0.151,0.062 0.241,0.097 0.119,0.046 0.228,0.093 0.323,0.142 0.094,0.049 0.176,0.103 0.243,0.165 0.067,0.06 0.119,0.13 0.155,0.21 0.036,0.079 0.054,0.173 0.054,0.283 0,0.134 -0.03,0.251 -0.088,0.349 -0.06,0.099 -0.139,0.181 -0.237,0.246 -0.099,0.066 -0.213,0.114 -0.341,0.146 -0.13,0.032 -0.264,0.047 -0.406,0.047 -0.278,0 -0.52,-0.053 -0.724,-0.161z"/>
    <path class="fil1" d="M19.134 16.685l-0.444 0 0 -1.73 -1.964 0 0 1.73 -0.444 0 0 -3.794 0.444 0 0 1.665 1.964 0 0 -1.665 0.444 0 0 3.794zm1.159 -3.398c-0.077,0 -0.144,-0.026 -0.198,-0.079 -0.055,-0.052 -0.082,-0.119 -0.082,-0.2 0,-0.082 0.027,-0.15 0.082,-0.203 0.054,-0.054 0.121,-0.081 0.198,-0.081 0.079,0 0.147,0.027 0.203,0.081 0.055,0.053 0.083,0.121 0.083,0.203 0,0.077 -0.028,0.143 -0.083,0.197 -0.056,0.055 -0.124,0.082 -0.203,0.082zm0.212 3.398l-0.435 0 0 -2.709 0.435 0 0 2.709zm3.191 0l-0.435 0 0 -0.46 -0.01 0c-0.201,0.349 -0.512,0.523 -0.932,0.523 -0.339,0 -0.612,-0.121 -0.815,-0.364 -0.204,-0.242 -0.306,-0.572 -0.306,-0.99 0,-0.448 0.112,-0.807 0.338,-1.077 0.226,-0.27 0.527,-0.405 0.903,-0.405 0.372,0 0.643,0.147 0.812,0.439l0.01 0 0 -1.677 0.435 0 0 4.011zm-0.435 -1.225l0 -0.4c0,-0.218 -0.072,-0.403 -0.217,-0.555 -0.144,-0.152 -0.327,-0.228 -0.549,-0.228 -0.265,0 -0.474,0.097 -0.625,0.291 -0.152,0.194 -0.228,0.463 -0.228,0.805 0,0.312 0.073,0.558 0.218,0.74 0.146,0.18 0.342,0.271 0.587,0.271 0.242,0 0.438,-0.088 0.589,-0.262 0.15,-0.175 0.225,-0.396 0.225,-0.662zm2.726 -1.045c-0.076,-0.058 -0.185,-0.087 -0.328,-0.087 -0.186,0 -0.34,0.087 -0.465,0.262 -0.124,0.174 -0.186,0.413 -0.186,0.714l0 1.381 -0.434 0 0 -2.709 0.434 0 0 0.558 0.011 0c0.061,-0.191 0.155,-0.339 0.282,-0.446 0.128,-0.107 0.27,-0.16 0.427,-0.16 0.113,0 0.198,0.012 0.259,0.037l0 0.45zm2.41 2.27l-0.434 0 0 -0.423 -0.01 0c-0.189,0.325 -0.467,0.486 -0.833,0.486 -0.271,0 -0.482,-0.071 -0.635,-0.214 -0.152,-0.142 -0.228,-0.332 -0.228,-0.569 0,-0.505 0.298,-0.801 0.894,-0.883l0.812 -0.114c0,-0.46 -0.186,-0.691 -0.558,-0.691 -0.326,0 -0.621,0.111 -0.883,0.334l0 -0.445c0.266,-0.17 0.572,-0.254 0.92,-0.254 0.637,0 0.955,0.337 0.955,1.011l0 1.762zm-0.434 -1.371l-0.653 0.09c-0.201,0.028 -0.353,0.078 -0.455,0.15 -0.102,0.072 -0.154,0.198 -0.154,0.38 0,0.132 0.047,0.24 0.142,0.324 0.094,0.084 0.22,0.126 0.377,0.126 0.215,0 0.393,-0.076 0.533,-0.226 0.14,-0.151 0.21,-0.343 0.21,-0.574l0 -0.27zm0.06 -2.719l-0.693 0.868 -0.336 0 0.59 -0.868 0.439 0zm3.383 4.09l-0.434 0 0 -0.429 -0.01 0c-0.18,0.329 -0.459,0.492 -0.837,0.492 -0.646,0 -0.968,-0.383 -0.968,-1.153l0 -1.619 0.431 0 0 1.55c0,0.572 0.219,0.858 0.656,0.858 0.212,0 0.386,-0.078 0.523,-0.234 0.137,-0.157 0.205,-0.361 0.205,-0.614l0 -1.56 0.434 0 0 2.709zm1.31 0l-0.434 0 0 -4.011 0.434 0 0 4.011zm1.1 -3.398c-0.076,0 -0.143,-0.026 -0.197,-0.079 -0.055,-0.052 -0.083,-0.119 -0.083,-0.2 0,-0.082 0.028,-0.15 0.083,-0.203 0.054,-0.054 0.121,-0.081 0.197,-0.081 0.08,0 0.148,0.027 0.204,0.081 0.055,0.053 0.083,0.121 0.083,0.203 0,0.077 -0.028,0.143 -0.083,0.197 -0.056,0.055 -0.124,0.082 -0.204,0.082zm0.213 3.398l-0.435 0 0 -2.709 0.435 0 0 2.709zm2.724 -0.124c-0.207,0.125 -0.455,0.187 -0.74,0.187 -0.387,0 -0.698,-0.125 -0.936,-0.376 -0.236,-0.251 -0.356,-0.577 -0.356,-0.978 0,-0.447 0.129,-0.805 0.384,-1.076 0.256,-0.27 0.597,-0.406 1.024,-0.406 0.239,0 0.448,0.044 0.63,0.132l0 0.445c-0.202,-0.141 -0.417,-0.212 -0.646,-0.212 -0.276,0 -0.504,0.1 -0.681,0.298 -0.177,0.198 -0.266,0.459 -0.266,0.782 0,0.317 0.084,0.568 0.25,0.751 0.167,0.183 0.39,0.276 0.671,0.276 0.237,0 0.459,-0.079 0.666,-0.236l0 0.413zm1.789 0.187c-0.4,0 -0.72,-0.126 -0.959,-0.379 -0.239,-0.253 -0.359,-0.589 -0.359,-1.007 0,-0.455 0.125,-0.81 0.373,-1.067 0.249,-0.255 0.585,-0.383 1.009,-0.383 0.404,0 0.719,0.124 0.945,0.373 0.227,0.249 0.34,0.594 0.34,1.035 0,0.432 -0.122,0.778 -0.366,1.038 -0.244,0.26 -0.572,0.39 -0.983,0.39zm0.031 -2.471c-0.278,0 -0.498,0.095 -0.661,0.285 -0.162,0.189 -0.244,0.45 -0.244,0.785 0,0.32 0.083,0.573 0.247,0.758 0.164,0.185 0.384,0.279 0.658,0.279 0.281,0 0.497,-0.092 0.648,-0.273 0.151,-0.182 0.226,-0.44 0.226,-0.775 0,-0.339 -0.075,-0.6 -0.226,-0.783 -0.151,-0.184 -0.367,-0.276 -0.648,-0.276zm1.848 2.311l0 -0.466c0.236,0.174 0.497,0.262 0.78,0.262 0.382,0 0.572,-0.128 0.572,-0.382 0,-0.072 -0.016,-0.133 -0.049,-0.183 -0.033,-0.051 -0.076,-0.095 -0.132,-0.134 -0.055,-0.038 -0.121,-0.074 -0.196,-0.104 -0.075,-0.031 -0.156,-0.064 -0.242,-0.097 -0.12,-0.048 -0.225,-0.096 -0.317,-0.145 -0.09,-0.047 -0.166,-0.103 -0.227,-0.163 -0.061,-0.061 -0.107,-0.13 -0.137,-0.208 -0.031,-0.077 -0.046,-0.169 -0.046,-0.273 0,-0.127 0.028,-0.239 0.086,-0.337 0.059,-0.098 0.137,-0.18 0.233,-0.246 0.098,-0.066 0.208,-0.116 0.333,-0.15 0.123,-0.033 0.253,-0.05 0.384,-0.05 0.235,0 0.445,0.041 0.63,0.121l0 0.44c-0.199,-0.131 -0.428,-0.196 -0.687,-0.196 -0.082,0 -0.155,0.009 -0.221,0.028 -0.065,0.018 -0.121,0.045 -0.168,0.078 -0.046,0.033 -0.082,0.074 -0.108,0.12 -0.025,0.047 -0.038,0.099 -0.038,0.155 0,0.071 0.013,0.13 0.038,0.177 0.026,0.048 0.063,0.091 0.113,0.128 0.049,0.037 0.109,0.07 0.179,0.1 0.071,0.03 0.151,0.062 0.242,0.098 0.119,0.046 0.227,0.093 0.322,0.141 0.095,0.049 0.176,0.103 0.244,0.165 0.067,0.06 0.118,0.131 0.154,0.21 0.037,0.08 0.055,0.174 0.055,0.283 0,0.134 -0.03,0.251 -0.089,0.349 -0.06,0.099 -0.138,0.181 -0.237,0.246 -0.099,0.066 -0.213,0.114 -0.341,0.146 -0.129,0.032 -0.264,0.047 -0.406,0.047 -0.278,0 -0.52,-0.053 -0.724,-0.16z"/>
   </g>
  </g>
 </g>
</svg>
