<?xml version="1.0" encoding="UTF-8"?>
<!DOCTYPE svg PUBLIC "-//W3C//DTD SVG 1.1//EN" "http://www.w3.org/Graphics/SVG/1.1/DTD/svg11.dtd">
<!-- Creator: CorelDRAW -->
<svg xmlns="http://www.w3.org/2000/svg" xml:space="preserve" width="460px" height="216px" version="1.1" style="shape-rendering:geometricPrecision; text-rendering:geometricPrecision; image-rendering:optimizeQuality; fill-rule:evenodd; clip-rule:evenodd"
viewBox="0 0 42.218 19.785"
 xmlns:xlink="http://www.w3.org/1999/xlink"
 xmlns:xodm="http://www.corel.com/coreldraw/odm/2003">
 <defs>
  <style type="text/css">
   <![CDATA[
    .fil0 {fill:#101010}
    .fil1 {fill:black;fill-rule:nonzero}
   ]]>
  </style>
 </defs>
 <g id="Layer_x0020_1">
  <metadata id="CorelCorpID_0Corel-Layer"/>
  <g id="_2835752119856">
   <g>
    <path class="fil0" d="M10.832 3.857c-1.801,-0.324 -4.246,0.212 -4.986,1.379 -1.281,2.018 2.304,3.198 2.96,1.593 -0.189,-0.431 -0.873,-1.179 0.25,-2.202 0.475,-0.459 1.634,-0.595 1.986,0.475 0.53,1.609 -0.406,2.409 -1.82,2.807 -1.391,0.618 -4.171,0.797 -4.259,3.192 -0.12,3.301 3.699,3.048 4.35,2.441 0.563,-0.186 1.666,-1.204 1.821,-1.56l0.023 1.94 4.355 -0.011 -0.005 -0.482c-0.017,-0.013 -0.045,-0.05 -0.055,-0.034 -0.002,0.002 -0.638,-0.164 -0.772,-0.756 -0.132,-0.59 0.091,-5.587 -0.098,-6.35 -0.444,-1.793 -2.248,-2.136 -2.309,-2.189 -0.255,-0.223 -0.11,0.02 -0.166,-0.399 0.969,0.219 1.468,0.213 1.972,-0.43 0.683,-0.87 0.075,-1.646 -0.037,-1.917 0.418,-0.667 1.453,-0.521 1.73,0.218 0.189,0.507 0.103,1.997 0.104,2.632 0.002,1.825 0.011,3.65 0.01,5.475 -0.001,1.783 0.376,3.066 1.715,3.631 1.118,0.472 2.767,0.514 3.655,-0.388 0.05,-0.052 0.122,-0.138 0.183,-0.19 0.174,-0.148 0.052,-0.07 0.26,-0.173 -0.006,1.224 -0.086,0.852 0.274,1.33 0.752,-0.266 0.552,-0.873 3.754,-0.863l0.029 -0.497c-0.654,-0.271 -0.803,-0.518 -0.806,-1.499l0.018 -6.816c-0.172,-0.091 -0.277,-0.16 -0.431,-0.254l-0.714 0.43c-1.21,0.587 -2.092,0.297 -2.907,0.466l-0.009 0.449c0.99,0.451 0.785,0.656 0.786,2.574 0,1.119 0.054,2.211 -0.151,3.301 -0.154,0.817 -0.686,2.014 -1.482,1.922 -0.956,-0.111 -0.919,-1.606 -0.918,-2.523 0.002,-2.275 0.008,-4.55 0.008,-6.825 0,-1.58 -0.282,-2.611 -1.874,-3.309 -0.384,-0.168 -0.963,-0.247 -1.312,-0.442 -0.808,0.063 -1.269,-0.108 -2.177,0.121 -0.607,0.153 -1.212,0.395 -1.593,0.732 -1.848,1.639 -0.107,2.476 -0.076,3.166l-1.286 -0.165zm0.338 3.571l-1.033 0.901c-0.382,0.287 -0.729,0.593 -1.035,0.988 -1.715,2.214 -0.154,5.069 1.911,1.988 0.315,-0.47 0.141,-3.049 0.157,-3.877z"/>
    <path class="fil0" d="M0.854 11.728l0.006 1.973 -0.012 0.928 0.173 0.126 0.556 0.246c1.365,0.835 2.566,1.62 3.845,2.47 1.123,0.747 2.73,1.68 4.269,2.063 1.435,0.432 3.411,0.346 4.722,-0.561l0.269 -0.152c0.449,-0.486 1.12,-1.197 0.686,-2.303 -0.28,-0.713 -0.962,-1.268 -2.005,-1.211 -0.111,0.183 -0.021,0.18 -0.152,0.507 -0.182,0.454 -0.685,0.881 -1.172,1.09 -0.977,0.419 -1.596,0.191 -2.611,0.18 -0.451,-0.136 -0.923,-0.201 -1.406,-0.34 -0.453,-0.13 -0.858,-0.261 -1.289,-0.432 -0.767,-0.306 -1.716,-0.78 -2.45,-0.993l0.001 -11.49c0,-2.467 -0.234,-2.472 0.83,-2.925l0.006 -0.621 -5.12 0 0.014 0.621c0.417,0.196 0.706,0.136 0.803,0.694l0.022 4.331c-0.001,1.91 0.069,3.907 0.015,5.799z"/>
    <path class="fil0" d="M32.105 9.701c-0.236,0.596 -0.456,0.679 -0.449,1.555 0.006,0.634 0.182,1.198 0.466,1.638 0.517,0.802 1.834,1.2 3.201,0.931 1.549,-0.351 2.126,-1.548 2.54,-1.822l-0.002 1.916 4.357 0.001 -0.003 -0.491c-0.272,-0.208 -0.74,-0.156 -0.839,-0.924l-0.012 -5.076c0.003,-1.272 -0.176,-1.865 -0.884,-2.519 -0.543,-0.501 -1.414,-0.894 -2.376,-1.002 -6.048,-0.68 -6.69,2.547 -4.986,3.415 0.816,0.416 2.091,0.333 2.402,-0.494 -0.001,-0.091 -0.656,-0.67 -0.197,-1.663 0.468,-1.01 2.084,-1.28 2.44,-0.008 0.606,2.164 -1.082,2.504 -2.95,3.098 -2.347,0.746 -1.984,1 -2.708,1.445zm5.754 1.178l-0.001 -3.433 -2.066 1.791c-0.273,0.323 -0.624,1.258 -0.692,1.716 -0.146,0.989 0.245,2.096 1.324,1.612 0.412,-0.185 1.435,-1.168 1.435,-1.686z"/>
    <path class="fil0" d="M30.42 4.202l-0.385 0.86c-0.067,-0.683 0.043,-0.422 -0.398,-0.766 -0.248,0.125 -0.367,0.268 -0.715,0.398 -1.051,0.392 -1.84,0.398 -2.947,0.426l-0.016 0.509c0.708,0.301 0.784,0.135 0.785,1.575l0.01 4.65c0.005,1.142 0.054,1.112 -0.779,1.575l-0.014 0.487 4.832 0.003c-0.017,-0.941 -0.1,-0.254 -0.547,-0.8 -0.412,-0.501 -0.212,-3.086 -0.143,-3.74 0.198,-1.873 0.464,-2.724 1.019,-4.349 0.272,-0.214 0.503,-1.321 1.77,-1.843 0.504,-0.207 0.511,-0.161 0.982,0.007 0.695,0.248 1.428,-0.031 1.758,-0.42 0.597,-0.704 0.283,-1.086 0.192,-1.804 -0.159,-0.118 -0.206,-0.173 -0.375,-0.327 -1.075,-0.984 -2.575,0.114 -3.379,0.967 -0.602,0.64 -1.268,1.976 -1.65,2.592z"/>
   </g>
   <g>
    <path class="fil1" d="M31.24 16.007l0 -1.588 0.211 0 0 1.402 0.781 0 0 0.186 -0.992 0zm1.97 -0.144c-0.072,0.062 -0.142,0.105 -0.209,0.13 -0.067,0.026 -0.138,0.038 -0.215,0.038 -0.127,0 -0.224,-0.03 -0.292,-0.092 -0.068,-0.061 -0.102,-0.14 -0.102,-0.236 0,-0.056 0.013,-0.107 0.038,-0.154 0.026,-0.047 0.06,-0.083 0.101,-0.112 0.042,-0.028 0.089,-0.049 0.141,-0.064 0.038,-0.01 0.096,-0.019 0.173,-0.029 0.158,-0.018 0.274,-0.041 0.349,-0.067 0,-0.026 0.001,-0.043 0.001,-0.05 0,-0.079 -0.019,-0.135 -0.056,-0.168 -0.05,-0.044 -0.124,-0.065 -0.222,-0.065 -0.092,0 -0.16,0.016 -0.204,0.048 -0.044,0.032 -0.076,0.089 -0.097,0.171l-0.191 -0.027c0.017,-0.081 0.046,-0.147 0.086,-0.198 0.04,-0.05 0.098,-0.088 0.173,-0.116 0.075,-0.027 0.162,-0.04 0.262,-0.04 0.098,0 0.178,0.011 0.24,0.034 0.061,0.023 0.107,0.052 0.136,0.087 0.028,0.036 0.049,0.08 0.061,0.134 0.006,0.033 0.009,0.093 0.009,0.179l0 0.259c0,0.18 0.004,0.295 0.012,0.343 0.008,0.048 0.024,0.095 0.048,0.139l-0.204 0c-0.02,-0.041 -0.032,-0.089 -0.038,-0.144zm-0.015 -0.433c-0.071,0.029 -0.178,0.054 -0.32,0.073 -0.08,0.012 -0.137,0.025 -0.17,0.039 -0.034,0.015 -0.059,0.036 -0.077,0.063 -0.018,0.028 -0.028,0.059 -0.028,0.093 0,0.051 0.02,0.094 0.06,0.129 0.039,0.034 0.097,0.051 0.172,0.051 0.076,0 0.143,-0.016 0.201,-0.049 0.059,-0.032 0.102,-0.077 0.129,-0.134 0.021,-0.044 0.032,-0.108 0.032,-0.194l0.001 -0.071zm0.677 0.577l-0.182 0 0 -1.588 0.195 0 0 0.567c0.082,-0.103 0.187,-0.154 0.315,-0.154 0.071,0 0.138,0.014 0.201,0.042 0.064,0.029 0.115,0.069 0.156,0.12 0.041,0.052 0.073,0.114 0.096,0.187 0.023,0.072 0.035,0.15 0.035,0.233 0,0.197 -0.049,0.349 -0.146,0.456 -0.098,0.108 -0.215,0.161 -0.351,0.161 -0.136,0 -0.242,-0.056 -0.319,-0.169l0 0.145zm-0.003 -0.584c0,0.138 0.019,0.237 0.057,0.298 0.061,0.1 0.144,0.151 0.248,0.151 0.086,0 0.159,-0.037 0.221,-0.111 0.062,-0.074 0.093,-0.184 0.093,-0.331 0,-0.15 -0.029,-0.26 -0.089,-0.332 -0.059,-0.071 -0.131,-0.107 -0.216,-0.107 -0.085,0 -0.159,0.037 -0.22,0.111 -0.063,0.074 -0.094,0.181 -0.094,0.321zm0.983 0.008c0,-0.212 0.06,-0.369 0.178,-0.472 0.099,-0.085 0.22,-0.127 0.362,-0.127 0.158,0 0.288,0.051 0.388,0.155 0.1,0.103 0.15,0.246 0.15,0.428 0,0.148 -0.022,0.264 -0.066,0.349 -0.044,0.084 -0.109,0.15 -0.194,0.197 -0.085,0.047 -0.178,0.07 -0.278,0.07 -0.161,0 -0.291,-0.051 -0.39,-0.154 -0.1,-0.103 -0.15,-0.252 -0.15,-0.446zm0.2 0.001c0,0.147 0.032,0.257 0.097,0.33 0.064,0.073 0.145,0.11 0.243,0.11 0.097,0 0.178,-0.037 0.242,-0.11 0.065,-0.074 0.097,-0.186 0.097,-0.336 0,-0.142 -0.033,-0.25 -0.097,-0.323 -0.065,-0.073 -0.146,-0.109 -0.242,-0.109 -0.098,0 -0.179,0.036 -0.243,0.108 -0.065,0.073 -0.097,0.183 -0.097,0.33zm1.105 0.575l0 -1.151 0.175 0 0 0.176c0.045,-0.081 0.086,-0.135 0.125,-0.161 0.038,-0.027 0.079,-0.039 0.125,-0.039 0.066,0 0.132,0.02 0.201,0.061l-0.07 0.18c-0.047,-0.026 -0.095,-0.04 -0.142,-0.04 -0.042,0 -0.081,0.013 -0.114,0.039 -0.034,0.025 -0.058,0.061 -0.072,0.106 -0.022,0.069 -0.033,0.145 -0.033,0.228l0 0.601 -0.195 0zm1.493 -0.144c-0.073,0.062 -0.142,0.105 -0.209,0.13 -0.067,0.026 -0.139,0.038 -0.216,0.038 -0.126,0 -0.223,-0.03 -0.291,-0.092 -0.069,-0.061 -0.103,-0.14 -0.103,-0.236 0,-0.056 0.013,-0.107 0.039,-0.154 0.026,-0.047 0.059,-0.083 0.101,-0.112 0.041,-0.028 0.088,-0.049 0.14,-0.064 0.039,-0.01 0.097,-0.019 0.174,-0.029 0.157,-0.018 0.274,-0.041 0.348,-0.067 0.001,-0.026 0.001,-0.043 0.001,-0.05 0,-0.079 -0.018,-0.135 -0.055,-0.168 -0.05,-0.044 -0.124,-0.065 -0.223,-0.065 -0.092,0 -0.16,0.016 -0.203,0.048 -0.044,0.032 -0.076,0.089 -0.098,0.171l-0.19 -0.027c0.017,-0.081 0.046,-0.147 0.085,-0.198 0.04,-0.05 0.098,-0.088 0.173,-0.116 0.075,-0.027 0.163,-0.04 0.262,-0.04 0.099,0 0.179,0.011 0.24,0.034 0.062,0.023 0.107,0.052 0.136,0.087 0.029,0.036 0.049,0.08 0.061,0.134 0.006,0.033 0.01,0.093 0.01,0.179l0 0.259c0,0.18 0.004,0.295 0.012,0.343 0.008,0.048 0.024,0.095 0.048,0.139l-0.204 0c-0.02,-0.041 -0.033,-0.089 -0.038,-0.144zm-0.016 -0.433c-0.071,0.029 -0.177,0.054 -0.319,0.073 -0.081,0.012 -0.138,0.025 -0.171,0.039 -0.033,0.015 -0.059,0.036 -0.077,0.063 -0.018,0.028 -0.027,0.059 -0.027,0.093 0,0.051 0.019,0.094 0.059,0.129 0.04,0.034 0.097,0.051 0.173,0.051 0.075,0 0.142,-0.016 0.201,-0.049 0.058,-0.032 0.101,-0.077 0.129,-0.134 0.021,-0.044 0.031,-0.108 0.031,-0.194l0.001 -0.071zm0.921 0.403l0.027 0.172c-0.055,0.012 -0.104,0.018 -0.147,0.018 -0.07,0 -0.125,-0.011 -0.164,-0.034 -0.039,-0.023 -0.067,-0.052 -0.082,-0.088 -0.016,-0.037 -0.024,-0.114 -0.024,-0.231l0 -0.663 -0.144 0 0 -0.151 0.144 0 0 -0.285 0.195 -0.117 0 0.402 0.195 0 0 0.151 -0.195 0 0 0.674c0,0.056 0.003,0.092 0.01,0.108 0.007,0.015 0.018,0.028 0.034,0.038 0.015,0.009 0.037,0.014 0.066,0.014 0.022,0 0.05,-0.003 0.085,-0.008zm0.12 -0.402c0,-0.212 0.059,-0.369 0.177,-0.472 0.099,-0.085 0.22,-0.127 0.362,-0.127 0.158,0 0.288,0.051 0.388,0.155 0.1,0.103 0.15,0.246 0.15,0.428 0,0.148 -0.022,0.264 -0.066,0.349 -0.044,0.084 -0.109,0.15 -0.194,0.197 -0.085,0.047 -0.177,0.07 -0.278,0.07 -0.161,0 -0.291,-0.051 -0.39,-0.154 -0.1,-0.103 -0.149,-0.252 -0.149,-0.446zm0.199 0.001c0,0.147 0.032,0.257 0.097,0.33 0.064,0.073 0.145,0.11 0.243,0.11 0.097,0 0.178,-0.037 0.242,-0.11 0.065,-0.074 0.097,-0.186 0.097,-0.336 0,-0.142 -0.033,-0.25 -0.097,-0.323 -0.065,-0.073 -0.146,-0.109 -0.242,-0.109 -0.098,0 -0.179,0.036 -0.243,0.108 -0.065,0.073 -0.097,0.183 -0.097,0.33zm1.105 0.575l0 -1.151 0.175 0 0 0.176c0.045,-0.081 0.086,-0.135 0.125,-0.161 0.038,-0.027 0.08,-0.039 0.125,-0.039 0.066,0 0.133,0.02 0.201,0.061l-0.07 0.18c-0.047,-0.026 -0.095,-0.04 -0.142,-0.04 -0.042,0 -0.08,0.013 -0.114,0.039 -0.034,0.025 -0.058,0.061 -0.072,0.106 -0.022,0.069 -0.033,0.145 -0.033,0.228l0 0.601 -0.195 0zm0.741 -1.366l0 -0.222 0.195 0 0 0.222 -0.195 0zm0 1.366l0 -1.151 0.195 0 0 1.151 -0.195 0zm0.42 -0.576c0,-0.212 0.059,-0.369 0.178,-0.472 0.098,-0.085 0.219,-0.127 0.361,-0.127 0.158,0 0.288,0.051 0.388,0.155 0.1,0.103 0.151,0.246 0.151,0.428 0,0.148 -0.023,0.264 -0.067,0.349 -0.044,0.084 -0.109,0.15 -0.194,0.197 -0.085,0.047 -0.177,0.07 -0.278,0.07 -0.161,0 -0.291,-0.051 -0.39,-0.154 -0.1,-0.103 -0.149,-0.252 -0.149,-0.446zm0.199 0.001c0,0.147 0.032,0.257 0.097,0.33 0.065,0.073 0.145,0.11 0.243,0.11 0.097,0 0.178,-0.037 0.242,-0.11 0.065,-0.074 0.097,-0.186 0.097,-0.336 0,-0.142 -0.033,-0.25 -0.097,-0.323 -0.065,-0.073 -0.145,-0.109 -0.242,-0.109 -0.098,0 -0.178,0.036 -0.243,0.108 -0.065,0.073 -0.097,0.183 -0.097,0.33z"/>
    <path class="fil1" d="M32.173 19.617c-0.072,0.062 -0.142,0.105 -0.209,0.13 -0.067,0.026 -0.138,0.038 -0.215,0.038 -0.127,0 -0.224,-0.03 -0.292,-0.092 -0.068,-0.061 -0.102,-0.14 -0.102,-0.236 0,-0.056 0.013,-0.108 0.038,-0.154 0.026,-0.047 0.06,-0.084 0.101,-0.112 0.042,-0.028 0.089,-0.049 0.141,-0.064 0.038,-0.01 0.096,-0.019 0.173,-0.029 0.158,-0.018 0.274,-0.041 0.349,-0.067 0.001,-0.026 0.001,-0.044 0.001,-0.05 0,-0.08 -0.019,-0.135 -0.056,-0.168 -0.05,-0.044 -0.124,-0.066 -0.222,-0.066 -0.092,0 -0.16,0.017 -0.204,0.049 -0.044,0.032 -0.076,0.089 -0.097,0.171l-0.191 -0.027c0.018,-0.081 0.046,-0.147 0.086,-0.198 0.04,-0.05 0.098,-0.089 0.173,-0.116 0.075,-0.027 0.163,-0.041 0.262,-0.041 0.098,0 0.178,0.012 0.24,0.035 0.061,0.023 0.107,0.052 0.136,0.087 0.029,0.036 0.049,0.08 0.061,0.134 0.006,0.033 0.009,0.093 0.009,0.179l0 0.258c0,0.181 0.004,0.295 0.012,0.344 0.008,0.048 0.024,0.094 0.048,0.139l-0.204 0c-0.02,-0.041 -0.032,-0.089 -0.038,-0.144zm-0.015 -0.433c-0.071,0.029 -0.178,0.053 -0.319,0.073 -0.081,0.012 -0.138,0.025 -0.171,0.039 -0.034,0.015 -0.059,0.036 -0.077,0.063 -0.018,0.028 -0.028,0.058 -0.028,0.093 0,0.051 0.02,0.094 0.06,0.128 0.039,0.035 0.097,0.052 0.173,0.052 0.075,0 0.142,-0.016 0.2,-0.049 0.059,-0.032 0.102,-0.077 0.129,-0.134 0.021,-0.044 0.032,-0.108 0.032,-0.194l0.001 -0.071zm1.249 0.577l0 -0.171c-0.089,0.13 -0.211,0.195 -0.364,0.195 -0.068,0 -0.131,-0.013 -0.19,-0.038 -0.058,-0.027 -0.102,-0.059 -0.131,-0.099 -0.028,-0.039 -0.048,-0.087 -0.059,-0.144 -0.008,-0.038 -0.012,-0.099 -0.012,-0.182l0 -0.712 0.195 0 0 0.637c0,0.101 0.004,0.17 0.012,0.205 0.012,0.052 0.038,0.092 0.078,0.121 0.039,0.029 0.088,0.044 0.146,0.044 0.059,0 0.114,-0.015 0.165,-0.045 0.051,-0.03 0.087,-0.071 0.108,-0.122 0.021,-0.052 0.032,-0.127 0.032,-0.225l0 -0.615 0.195 0 0 1.151 -0.175 0zm1.225 0l0 -0.146c-0.073,0.113 -0.18,0.17 -0.322,0.17 -0.092,0 -0.176,-0.025 -0.252,-0.075 -0.077,-0.051 -0.137,-0.121 -0.179,-0.211 -0.042,-0.091 -0.063,-0.195 -0.063,-0.313 0,-0.114 0.019,-0.218 0.057,-0.312 0.038,-0.093 0.095,-0.164 0.172,-0.214 0.076,-0.05 0.162,-0.075 0.256,-0.075 0.07,0 0.132,0.015 0.185,0.044 0.054,0.03 0.098,0.068 0.133,0.115l0 -0.571 0.195 0 0 1.588 -0.182 0zm-0.617 -0.574c0,0.147 0.031,0.257 0.094,0.33 0.062,0.073 0.135,0.109 0.22,0.109 0.085,0 0.158,-0.035 0.218,-0.105 0.059,-0.069 0.089,-0.175 0.089,-0.318 0,-0.157 -0.03,-0.272 -0.091,-0.346 -0.061,-0.073 -0.136,-0.11 -0.225,-0.11 -0.087,0 -0.159,0.035 -0.218,0.106 -0.058,0.071 -0.087,0.182 -0.087,0.334zm1.107 -0.792l0 -0.222 0.196 0 0 0.222 -0.196 0zm0 1.366l0 -1.151 0.196 0 0 1.151 -0.196 0zm0.42 -0.576c0,-0.212 0.059,-0.37 0.178,-0.472 0.099,-0.085 0.219,-0.128 0.362,-0.128 0.157,0 0.287,0.052 0.387,0.156 0.101,0.103 0.151,0.246 0.151,0.428 0,0.148 -0.022,0.264 -0.067,0.349 -0.044,0.084 -0.109,0.15 -0.194,0.197 -0.084,0.047 -0.177,0.07 -0.277,0.07 -0.161,0 -0.292,-0.051 -0.391,-0.154 -0.099,-0.103 -0.149,-0.252 -0.149,-0.446zm0.2 0.001c0,0.147 0.032,0.257 0.096,0.33 0.065,0.073 0.146,0.11 0.244,0.11 0.097,0 0.177,-0.037 0.242,-0.11 0.064,-0.074 0.096,-0.186 0.096,-0.337 0,-0.142 -0.032,-0.249 -0.097,-0.322 -0.065,-0.073 -0.145,-0.11 -0.241,-0.11 -0.098,0 -0.179,0.036 -0.244,0.109 -0.064,0.073 -0.096,0.183 -0.096,0.33zm1.421 0.575l-0.434 -1.151 0.209 0 0.246 0.689c0.027,0.074 0.052,0.152 0.074,0.232 0.018,-0.061 0.042,-0.133 0.073,-0.219l0.256 -0.702 0.2 0 -0.436 1.151 -0.188 0zm0.795 -1.366l0 -0.222 0.195 0 0 0.222 -0.195 0zm0 1.366l0 -1.151 0.195 0 0 1.151 -0.195 0zm0.415 -0.344l0.193 -0.031c0.011,0.077 0.041,0.137 0.091,0.178 0.049,0.041 0.119,0.062 0.207,0.062 0.09,0 0.157,-0.018 0.2,-0.055 0.044,-0.036 0.065,-0.079 0.065,-0.128 0,-0.044 -0.019,-0.079 -0.058,-0.104 -0.027,-0.018 -0.094,-0.039 -0.2,-0.066 -0.142,-0.036 -0.241,-0.067 -0.296,-0.094 -0.056,-0.026 -0.097,-0.062 -0.126,-0.109 -0.028,-0.046 -0.043,-0.097 -0.043,-0.154 0,-0.051 0.012,-0.098 0.035,-0.142 0.024,-0.044 0.056,-0.08 0.096,-0.109 0.03,-0.022 0.072,-0.041 0.124,-0.056 0.052,-0.016 0.108,-0.024 0.168,-0.024 0.09,0 0.17,0.013 0.238,0.039 0.068,0.026 0.118,0.062 0.151,0.106 0.032,0.045 0.054,0.105 0.066,0.179l-0.19 0.027c-0.009,-0.06 -0.034,-0.107 -0.075,-0.141 -0.041,-0.033 -0.1,-0.05 -0.176,-0.05 -0.089,0 -0.153,0.015 -0.191,0.044 -0.038,0.03 -0.057,0.065 -0.057,0.104 0,0.025 0.007,0.048 0.024,0.069 0.015,0.02 0.04,0.038 0.074,0.051 0.02,0.008 0.077,0.024 0.172,0.05 0.138,0.037 0.234,0.067 0.288,0.091 0.055,0.023 0.098,0.057 0.129,0.102 0.031,0.044 0.047,0.1 0.047,0.166 0,0.065 -0.019,0.126 -0.057,0.183 -0.038,0.058 -0.093,0.102 -0.164,0.133 -0.072,0.032 -0.153,0.047 -0.243,0.047 -0.149,0 -0.264,-0.031 -0.342,-0.092 -0.078,-0.062 -0.128,-0.154 -0.15,-0.276zm1.939 0.344l0 -0.171c-0.09,0.13 -0.211,0.195 -0.365,0.195 -0.067,0 -0.13,-0.013 -0.189,-0.038 -0.059,-0.027 -0.103,-0.059 -0.131,-0.099 -0.029,-0.039 -0.049,-0.087 -0.06,-0.144 -0.008,-0.038 -0.012,-0.099 -0.012,-0.182l0 -0.712 0.195 0 0 0.637c0,0.101 0.004,0.17 0.012,0.205 0.012,0.052 0.038,0.092 0.078,0.121 0.04,0.029 0.089,0.044 0.147,0.044 0.058,0 0.113,-0.015 0.164,-0.045 0.051,-0.03 0.087,-0.071 0.109,-0.122 0.021,-0.052 0.032,-0.127 0.032,-0.225l0 -0.615 0.195 0 0 1.151 -0.175 0zm1.233 -0.144c-0.072,0.062 -0.142,0.105 -0.209,0.13 -0.067,0.026 -0.139,0.038 -0.216,0.038 -0.126,0 -0.223,-0.03 -0.291,-0.092 -0.068,-0.061 -0.102,-0.14 -0.102,-0.236 0,-0.056 0.013,-0.108 0.038,-0.154 0.026,-0.047 0.06,-0.084 0.101,-0.112 0.042,-0.028 0.088,-0.049 0.14,-0.064 0.039,-0.01 0.097,-0.019 0.174,-0.029 0.158,-0.018 0.274,-0.041 0.348,-0.067 0.001,-0.026 0.002,-0.044 0.002,-0.05 0,-0.08 -0.019,-0.135 -0.056,-0.168 -0.05,-0.044 -0.124,-0.066 -0.222,-0.066 -0.092,0 -0.16,0.017 -0.204,0.049 -0.044,0.032 -0.076,0.089 -0.097,0.171l-0.191 -0.027c0.017,-0.081 0.046,-0.147 0.086,-0.198 0.04,-0.05 0.097,-0.089 0.173,-0.116 0.075,-0.027 0.162,-0.041 0.261,-0.041 0.099,0 0.179,0.012 0.241,0.035 0.061,0.023 0.107,0.052 0.135,0.087 0.029,0.036 0.05,0.08 0.061,0.134 0.007,0.033 0.01,0.093 0.01,0.179l0 0.258c0,0.181 0.004,0.295 0.012,0.344 0.008,0.048 0.024,0.094 0.048,0.139l-0.204 0c-0.02,-0.041 -0.032,-0.089 -0.038,-0.144zm-0.015 -0.433c-0.071,0.029 -0.178,0.053 -0.32,0.073 -0.08,0.012 -0.137,0.025 -0.171,0.039 -0.033,0.015 -0.058,0.036 -0.077,0.063 -0.018,0.028 -0.027,0.058 -0.027,0.093 0,0.051 0.02,0.094 0.059,0.128 0.04,0.035 0.098,0.052 0.173,0.052 0.075,0 0.142,-0.016 0.201,-0.049 0.059,-0.032 0.102,-0.077 0.129,-0.134 0.021,-0.044 0.031,-0.108 0.031,-0.194l0.002 -0.071zm0.492 0.577l0 -1.588 0.196 0 0 1.588 -0.196 0z"/>
    <path class="fil1" d="M31.24 17.864l0 -0.171c-0.089,0.13 -0.21,0.195 -0.364,0.195 -0.068,0 -0.131,-0.013 -0.189,-0.038 -0.059,-0.027 -0.103,-0.059 -0.131,-0.098 -0.029,-0.04 -0.049,-0.088 -0.06,-0.145 -0.008,-0.039 -0.012,-0.099 -0.012,-0.182l0 -0.712 0.195 0 0 0.637c0,0.101 0.004,0.17 0.012,0.205 0.012,0.052 0.038,0.092 0.078,0.121 0.039,0.029 0.088,0.044 0.147,0.044 0.058,0 0.113,-0.015 0.164,-0.045 0.051,-0.03 0.087,-0.071 0.109,-0.122 0.021,-0.052 0.031,-0.127 0.031,-0.225l0 -0.615 0.196 0 0 1.151 -0.176 0zm0.482 0l0 -1.151 0.175 0 0 0.163c0.085,-0.125 0.206,-0.188 0.366,-0.188 0.069,0 0.133,0.013 0.191,0.038 0.058,0.024 0.102,0.057 0.13,0.098 0.029,0.04 0.05,0.088 0.061,0.144 0.007,0.036 0.011,0.099 0.011,0.189l0 0.707 -0.195 0 0 -0.699c0,-0.08 -0.008,-0.14 -0.023,-0.179 -0.015,-0.039 -0.042,-0.07 -0.081,-0.094 -0.038,-0.023 -0.083,-0.035 -0.135,-0.035 -0.083,0 -0.154,0.026 -0.215,0.079 -0.06,0.053 -0.09,0.153 -0.09,0.3l0 0.628 -0.195 0zm1.234 -1.366l0 -0.222 0.195 0 0 0.222 -0.195 0zm0 1.366l0 -1.151 0.195 0 0 1.151 -0.195 0zm0.807 0l-0.434 -1.151 0.209 0 0.246 0.689c0.026,0.074 0.051,0.152 0.074,0.232 0.017,-0.061 0.041,-0.134 0.073,-0.219l0.255 -0.702 0.201 0 -0.436 1.151 -0.188 0zm1.58 -0.373l0.202 0.027c-0.032,0.117 -0.091,0.208 -0.176,0.273 -0.086,0.065 -0.196,0.097 -0.329,0.097 -0.168,0 -0.301,-0.052 -0.399,-0.155 -0.099,-0.103 -0.148,-0.248 -0.148,-0.435 0,-0.193 0.05,-0.343 0.149,-0.45 0.1,-0.106 0.229,-0.16 0.387,-0.16 0.154,0 0.279,0.053 0.376,0.157 0.097,0.105 0.146,0.252 0.146,0.442 0,0.011 0,0.028 -0.001,0.051l-0.857 0c0.007,0.126 0.043,0.223 0.107,0.29 0.064,0.067 0.144,0.101 0.24,0.101 0.071,0 0.132,-0.019 0.183,-0.057 0.05,-0.038 0.09,-0.098 0.12,-0.181zm-0.639 -0.312l0.641 0c-0.009,-0.097 -0.033,-0.17 -0.074,-0.218 -0.061,-0.075 -0.142,-0.113 -0.241,-0.113 -0.089,0 -0.164,0.03 -0.225,0.09 -0.061,0.06 -0.094,0.14 -0.101,0.241zm1.085 0.685l0 -1.151 0.175 0 0 0.176c0.045,-0.081 0.086,-0.136 0.124,-0.162 0.038,-0.026 0.08,-0.039 0.126,-0.039 0.065,0 0.132,0.021 0.2,0.062l-0.069 0.18c-0.047,-0.026 -0.095,-0.04 -0.142,-0.04 -0.042,0 -0.081,0.013 -0.114,0.039 -0.034,0.025 -0.058,0.061 -0.072,0.106 -0.022,0.069 -0.033,0.145 -0.033,0.228l0 0.601 -0.195 0zm0.663 -0.344l0.193 -0.031c0.011,0.077 0.041,0.137 0.091,0.178 0.049,0.041 0.119,0.062 0.207,0.062 0.09,0 0.157,-0.018 0.2,-0.055 0.044,-0.036 0.066,-0.079 0.066,-0.128 0,-0.044 -0.02,-0.079 -0.059,-0.104 -0.027,-0.018 -0.094,-0.039 -0.2,-0.066 -0.142,-0.036 -0.241,-0.067 -0.296,-0.093 -0.055,-0.027 -0.097,-0.063 -0.126,-0.11 -0.028,-0.046 -0.042,-0.098 -0.042,-0.154 0,-0.051 0.011,-0.098 0.035,-0.142 0.023,-0.044 0.055,-0.08 0.095,-0.109 0.031,-0.022 0.072,-0.041 0.124,-0.056 0.053,-0.016 0.109,-0.024 0.168,-0.024 0.091,0 0.17,0.013 0.238,0.039 0.068,0.026 0.118,0.062 0.151,0.106 0.032,0.045 0.055,0.105 0.067,0.179l-0.191 0.027c-0.008,-0.06 -0.033,-0.107 -0.075,-0.14 -0.041,-0.034 -0.1,-0.051 -0.176,-0.051 -0.089,0 -0.153,0.015 -0.191,0.044 -0.038,0.03 -0.057,0.065 -0.057,0.104 0,0.025 0.008,0.048 0.024,0.069 0.016,0.02 0.04,0.038 0.074,0.051 0.02,0.008 0.077,0.024 0.172,0.05 0.138,0.037 0.234,0.067 0.289,0.091 0.054,0.023 0.097,0.057 0.128,0.102 0.032,0.044 0.047,0.1 0.047,0.166 0,0.065 -0.019,0.126 -0.057,0.183 -0.038,0.058 -0.093,0.102 -0.164,0.133 -0.072,0.032 -0.153,0.047 -0.243,0.047 -0.149,0 -0.263,-0.031 -0.342,-0.093 -0.078,-0.062 -0.128,-0.153 -0.15,-0.275zm1.187 -1.022l0 -0.222 0.195 0 0 0.222 -0.195 0zm0 1.366l0 -1.151 0.195 0 0 1.151 -0.195 0zm0.916 -0.174l0.027 0.172c-0.055,0.012 -0.104,0.017 -0.147,0.017 -0.07,0 -0.125,-0.011 -0.164,-0.033 -0.039,-0.023 -0.067,-0.052 -0.082,-0.088 -0.016,-0.037 -0.024,-0.114 -0.024,-0.231l0 -0.663 -0.144 0 0 -0.151 0.144 0 0 -0.285 0.195 -0.117 0 0.402 0.195 0 0 0.151 -0.195 0 0 0.674c0,0.056 0.003,0.092 0.01,0.108 0.007,0.015 0.018,0.028 0.034,0.038 0.015,0.009 0.037,0.014 0.066,0.014 0.022,0 0.05,-0.003 0.085,-0.008zm0.945 0.03c-0.073,0.062 -0.143,0.105 -0.21,0.13 -0.066,0.026 -0.138,0.038 -0.215,0.038 -0.126,0 -0.224,-0.03 -0.292,-0.092 -0.068,-0.061 -0.102,-0.14 -0.102,-0.236 0,-0.056 0.013,-0.108 0.039,-0.154 0.026,-0.047 0.059,-0.084 0.101,-0.112 0.041,-0.028 0.088,-0.049 0.14,-0.064 0.039,-0.01 0.097,-0.019 0.174,-0.029 0.157,-0.018 0.274,-0.041 0.348,-0.067 0.001,-0.026 0.001,-0.043 0.001,-0.05 0,-0.08 -0.018,-0.135 -0.055,-0.168 -0.05,-0.044 -0.125,-0.066 -0.223,-0.066 -0.092,0 -0.16,0.016 -0.204,0.049 -0.044,0.032 -0.076,0.089 -0.097,0.171l-0.191 -0.027c0.018,-0.081 0.046,-0.148 0.086,-0.198 0.04,-0.05 0.098,-0.089 0.173,-0.116 0.075,-0.027 0.163,-0.041 0.262,-0.041 0.098,0 0.178,0.012 0.24,0.035 0.062,0.023 0.107,0.052 0.136,0.087 0.029,0.035 0.049,0.08 0.061,0.134 0.006,0.033 0.01,0.093 0.01,0.179l0 0.258c0,0.181 0.004,0.295 0.012,0.344 0.008,0.048 0.024,0.095 0.047,0.139l-0.204 0c-0.019,-0.041 -0.032,-0.089 -0.037,-0.144zm-0.016 -0.433c-0.071,0.029 -0.177,0.053 -0.319,0.073 -0.081,0.012 -0.138,0.025 -0.171,0.039 -0.033,0.015 -0.059,0.036 -0.077,0.063 -0.018,0.028 -0.027,0.058 -0.027,0.093 0,0.051 0.019,0.094 0.059,0.129 0.039,0.034 0.097,0.051 0.173,0.051 0.075,0 0.142,-0.016 0.201,-0.049 0.058,-0.032 0.101,-0.077 0.129,-0.134 0.021,-0.044 0.031,-0.108 0.031,-0.194l0.001 -0.071zm0.495 0.577l0 -1.151 0.175 0 0 0.176c0.045,-0.081 0.086,-0.136 0.125,-0.162 0.038,-0.026 0.08,-0.039 0.125,-0.039 0.066,0 0.133,0.021 0.201,0.062l-0.07 0.18c-0.047,-0.026 -0.095,-0.04 -0.142,-0.04 -0.042,0 -0.08,0.013 -0.114,0.039 -0.034,0.025 -0.058,0.061 -0.072,0.106 -0.022,0.069 -0.033,0.145 -0.033,0.228l0 0.601 -0.195 0zm0.741 -1.366l0 -0.222 0.195 0 0 0.222 -0.195 0zm0 1.366l0 -1.151 0.195 0 0 1.151 -0.195 0zm0.42 -0.576c0,-0.212 0.059,-0.37 0.178,-0.472 0.098,-0.085 0.219,-0.128 0.361,-0.128 0.158,0 0.288,0.052 0.388,0.156 0.1,0.103 0.151,0.246 0.151,0.428 0,0.148 -0.023,0.264 -0.067,0.349 -0.044,0.084 -0.109,0.15 -0.194,0.197 -0.085,0.047 -0.177,0.07 -0.278,0.07 -0.161,0 -0.291,-0.051 -0.39,-0.154 -0.1,-0.103 -0.149,-0.252 -0.149,-0.446zm0.199 0.001c0,0.147 0.032,0.257 0.097,0.33 0.065,0.073 0.145,0.11 0.243,0.11 0.097,0 0.178,-0.037 0.242,-0.111 0.065,-0.073 0.097,-0.185 0.097,-0.335 0,-0.143 -0.033,-0.25 -0.097,-0.323 -0.065,-0.073 -0.145,-0.11 -0.242,-0.11 -0.098,0 -0.178,0.036 -0.243,0.109 -0.065,0.073 -0.097,0.183 -0.097,0.33z"/>
   </g>
  </g>
 </g>
</svg>
