<?xml version="1.0" encoding="UTF-8"?>
<!DOCTYPE svg PUBLIC "-//W3C//DTD SVG 1.1//EN" "http://www.w3.org/Graphics/SVG/1.1/DTD/svg11.dtd">
<!-- Creator: CorelDRAW -->
<svg xmlns="http://www.w3.org/2000/svg" xml:space="preserve" width="494px" height="222px" version="1.1" style="shape-rendering:geometricPrecision; text-rendering:geometricPrecision; image-rendering:optimizeQuality; fill-rule:evenodd; clip-rule:evenodd"
viewBox="0 0 49.105 22.09"
 xmlns:xlink="http://www.w3.org/1999/xlink"
 xmlns:xodm="http://www.corel.com/coreldraw/odm/2003">
 <defs>
  <style type="text/css">
   <![CDATA[
    .fil1 {fill:black}
    .fil0 {fill:black;fill-rule:nonzero}
   ]]>
  </style>
 </defs>
 <g id="Layer_x0020_1">
  <metadata id="CorelCorpID_0Corel-Layer"/>
  <g id="_2548924825984">
   <path class="fil0" d="M20.38 7.302c-0.191,0.101 -0.43,0.152 -0.716,0.152 -0.369,0 -0.664,-0.119 -0.886,-0.357 -0.222,-0.237 -0.333,-0.549 -0.333,-0.935 0,-0.414 0.125,-0.75 0.375,-1.005 0.249,-0.256 0.566,-0.384 0.949,-0.384 0.246,0 0.45,0.036 0.611,0.107l0 0.324c-0.185,-0.104 -0.39,-0.156 -0.614,-0.156 -0.298,0 -0.539,0.1 -0.725,0.298 -0.185,0.199 -0.277,0.465 -0.277,0.798 0,0.316 0.086,0.568 0.259,0.755 0.173,0.188 0.4,0.282 0.681,0.282 0.26,0 0.486,-0.058 0.676,-0.174l0 0.295zm1.977 -0.744l-1.307 0c0.005,0.207 0.06,0.366 0.166,0.478 0.107,0.112 0.252,0.168 0.438,0.168 0.209,0 0.4,-0.068 0.576,-0.206l0 0.278c-0.164,0.119 -0.379,0.178 -0.646,0.178 -0.262,0 -0.468,-0.084 -0.617,-0.252 -0.15,-0.169 -0.225,-0.405 -0.225,-0.71 0,-0.289 0.082,-0.523 0.245,-0.705 0.164,-0.181 0.367,-0.272 0.609,-0.272 0.243,0 0.43,0.078 0.563,0.235 0.132,0.156 0.198,0.374 0.198,0.653l0 0.155zm-0.303 -0.251c-0.002,-0.171 -0.043,-0.304 -0.124,-0.4 -0.081,-0.095 -0.194,-0.143 -0.339,-0.143 -0.14,0 -0.259,0.05 -0.357,0.15 -0.097,0.1 -0.158,0.231 -0.181,0.393l1.001 0zm2.29 1.103l-0.297 0 0 -1.056c0,-0.393 -0.143,-0.59 -0.43,-0.59 -0.148,0 -0.271,0.056 -0.368,0.168 -0.098,0.111 -0.146,0.252 -0.146,0.422l0 1.056 -0.297 0 0 -1.852 0.297 0 0 0.308 0.008 0c0.139,-0.234 0.342,-0.351 0.607,-0.351 0.203,0 0.358,0.065 0.465,0.196 0.107,0.131 0.161,0.32 0.161,0.567l0 1.132zm1.418 -0.018c-0.07,0.039 -0.162,0.058 -0.276,0.058 -0.325,0 -0.487,-0.181 -0.487,-0.543l0 -1.096 -0.318 0 0 -0.253 0.318 0 0 -0.452 0.296 -0.096 0 0.548 0.467 0 0 0.253 -0.467 0 0 1.044c0,0.124 0.021,0.213 0.064,0.266 0.042,0.053 0.112,0.079 0.21,0.079 0.075,0 0.139,-0.02 0.193,-0.061l0 0.253zm1.362 -1.534c-0.052,-0.039 -0.126,-0.059 -0.224,-0.059 -0.127,0 -0.233,0.059 -0.318,0.179 -0.084,0.119 -0.127,0.282 -0.127,0.488l0 0.944 -0.297 0 0 -1.852 0.297 0 0 0.382 0.007 0c0.042,-0.13 0.107,-0.232 0.194,-0.305 0.087,-0.073 0.184,-0.11 0.291,-0.11 0.077,0 0.136,0.009 0.177,0.026l0 0.307zm1.096 1.596c-0.273,0 -0.492,-0.087 -0.656,-0.26 -0.163,-0.173 -0.245,-0.402 -0.245,-0.688 0,-0.311 0.085,-0.554 0.255,-0.729 0.171,-0.175 0.4,-0.262 0.69,-0.262 0.276,0 0.491,0.085 0.646,0.255 0.155,0.17 0.233,0.406 0.233,0.707 0,0.296 -0.084,0.532 -0.251,0.71 -0.167,0.178 -0.391,0.267 -0.672,0.267zm0.022 -1.69c-0.191,0 -0.341,0.065 -0.452,0.195 -0.111,0.13 -0.167,0.308 -0.167,0.536 0,0.22 0.056,0.392 0.169,0.519 0.112,0.127 0.262,0.19 0.45,0.19 0.192,0 0.339,-0.062 0.442,-0.186 0.103,-0.124 0.155,-0.301 0.155,-0.53 0,-0.232 -0.052,-0.41 -0.155,-0.535 -0.103,-0.126 -0.25,-0.189 -0.442,-0.189zm3.971 1.646l-0.297 0 0 -0.314 -0.007 0c-0.138,0.238 -0.35,0.358 -0.637,0.358 -0.232,0 -0.419,-0.083 -0.558,-0.249 -0.139,-0.166 -0.209,-0.392 -0.209,-0.677 0,-0.307 0.077,-0.552 0.232,-0.736 0.154,-0.185 0.359,-0.277 0.616,-0.277 0.255,0 0.44,0.1 0.556,0.3l0.007 0 0 -1.146 0.297 0 0 2.741zm-0.297 -0.837l0 -0.273c0,-0.15 -0.05,-0.276 -0.148,-0.38 -0.099,-0.104 -0.225,-0.156 -0.376,-0.156 -0.181,0 -0.324,0.067 -0.428,0.199 -0.103,0.133 -0.155,0.316 -0.155,0.55 0,0.214 0.05,0.382 0.149,0.506 0.1,0.123 0.234,0.185 0.401,0.185 0.165,0 0.299,-0.06 0.402,-0.179 0.104,-0.119 0.155,-0.27 0.155,-0.452zm2.385 -0.015l-1.307 0c0.005,0.207 0.06,0.366 0.166,0.478 0.107,0.112 0.252,0.168 0.438,0.168 0.209,0 0.4,-0.068 0.576,-0.206l0 0.278c-0.163,0.119 -0.379,0.178 -0.646,0.178 -0.262,0 -0.468,-0.084 -0.617,-0.252 -0.15,-0.169 -0.225,-0.405 -0.225,-0.71 0,-0.289 0.082,-0.523 0.245,-0.705 0.164,-0.181 0.367,-0.272 0.609,-0.272 0.243,0 0.43,0.078 0.563,0.235 0.132,0.156 0.198,0.374 0.198,0.653l0 0.155zm-0.303 -0.251c-0.002,-0.171 -0.043,-0.304 -0.124,-0.4 -0.081,-0.095 -0.194,-0.143 -0.339,-0.143 -0.14,0 -0.259,0.05 -0.357,0.15 -0.097,0.1 -0.158,0.231 -0.181,0.393l1.001 0z"/>
   <path class="fil0" d="M20.951 13.197l-2.472 0 0 -4.121 2.377 0 0 0.755 -1.448 0 0 0.917 1.348 0 0 0.753 -1.348 0 0 0.942 1.543 0 0 0.754zm0.379 -0.078l0 -0.735c0.15,0.09 0.299,0.157 0.447,0.201 0.148,0.044 0.289,0.065 0.421,0.065 0.161,0 0.289,-0.021 0.381,-0.065 0.093,-0.044 0.139,-0.111 0.139,-0.201 0,-0.058 -0.021,-0.106 -0.063,-0.145 -0.042,-0.038 -0.096,-0.071 -0.163,-0.1 -0.065,-0.028 -0.138,-0.055 -0.216,-0.077 -0.079,-0.024 -0.154,-0.049 -0.227,-0.078 -0.117,-0.044 -0.22,-0.092 -0.309,-0.142 -0.089,-0.051 -0.164,-0.11 -0.225,-0.177 -0.059,-0.067 -0.106,-0.145 -0.137,-0.233 -0.031,-0.088 -0.048,-0.192 -0.048,-0.313 0,-0.165 0.036,-0.307 0.108,-0.426 0.072,-0.118 0.168,-0.215 0.287,-0.291 0.12,-0.075 0.257,-0.131 0.411,-0.167 0.154,-0.035 0.315,-0.053 0.482,-0.053 0.131,0 0.262,0.01 0.396,0.031 0.135,0.019 0.267,0.049 0.398,0.087l0 0.701c-0.116,-0.067 -0.239,-0.117 -0.37,-0.151 -0.132,-0.033 -0.26,-0.05 -0.387,-0.05 -0.06,0 -0.115,0.005 -0.167,0.016 -0.053,0.01 -0.101,0.026 -0.141,0.046 -0.04,0.02 -0.071,0.045 -0.094,0.078 -0.023,0.031 -0.034,0.067 -0.034,0.108 0,0.053 0.016,0.099 0.051,0.137 0.035,0.038 0.079,0.071 0.135,0.099 0.056,0.028 0.118,0.053 0.186,0.075 0.067,0.022 0.135,0.045 0.203,0.067 0.12,0.042 0.229,0.089 0.327,0.139 0.097,0.05 0.182,0.107 0.251,0.175 0.07,0.067 0.124,0.145 0.161,0.236 0.037,0.09 0.056,0.197 0.056,0.321 0,0.175 -0.037,0.324 -0.114,0.448 -0.075,0.123 -0.175,0.223 -0.301,0.301 -0.125,0.077 -0.271,0.134 -0.434,0.169 -0.164,0.036 -0.334,0.053 -0.51,0.053 -0.324,0 -0.623,-0.05 -0.9,-0.149zm4.561 0.043c-0.134,0.071 -0.336,0.106 -0.606,0.106 -0.639,0 -0.96,-0.332 -0.96,-0.996l0 -1.348 -0.477 0 0 -0.67 0.477 0 0 -0.635 0.905 -0.259 0 0.894 0.661 0 0 0.67 -0.661 0 0 1.19c0,0.306 0.122,0.459 0.365,0.459 0.096,0 0.195,-0.028 0.296,-0.083l0 0.672zm3.308 0.035l-0.905 0 0 -0.448 -0.014 0c-0.225,0.346 -0.524,0.519 -0.899,0.519 -0.683,0 -1.024,-0.412 -1.024,-1.239l0 -1.775 0.906 0 0 1.695c0,0.416 0.165,0.624 0.494,0.624 0.163,0 0.293,-0.057 0.391,-0.171 0.098,-0.114 0.146,-0.269 0.146,-0.464l0 -1.684 0.905 0 0 2.943zm3.644 0l-0.908 0 0 -0.405 -0.011 0c-0.207,0.318 -0.511,0.476 -0.911,0.476 -0.368,0 -0.664,-0.129 -0.888,-0.389 -0.224,-0.259 -0.336,-0.622 -0.336,-1.088 0,-0.486 0.123,-0.876 0.371,-1.169 0.247,-0.293 0.571,-0.44 0.971,-0.44 0.379,0 0.643,0.136 0.793,0.408l0.011 0 0 -1.75 0.908 0 0 4.357zm-0.89 -1.431l0 -0.222c0,-0.191 -0.056,-0.35 -0.167,-0.477 -0.111,-0.126 -0.256,-0.189 -0.434,-0.189 -0.201,0 -0.358,0.078 -0.471,0.236 -0.113,0.159 -0.17,0.376 -0.17,0.652 0,0.259 0.055,0.458 0.164,0.597 0.11,0.14 0.261,0.21 0.454,0.21 0.184,0 0.334,-0.074 0.45,-0.221 0.116,-0.148 0.174,-0.343 0.174,-0.586zm2.115 -1.978c-0.153,0 -0.279,-0.045 -0.376,-0.136 -0.098,-0.092 -0.147,-0.202 -0.147,-0.335 0,-0.136 0.049,-0.247 0.147,-0.333 0.097,-0.087 0.223,-0.13 0.376,-0.13 0.156,0 0.281,0.043 0.378,0.13 0.097,0.086 0.146,0.197 0.146,0.333 0,0.137 -0.049,0.251 -0.146,0.34 -0.097,0.087 -0.222,0.131 -0.378,0.131zm0.448 3.409l-0.907 0 0 -2.943 0.907 0 0 2.943zm2.167 0.071c-0.491,0 -0.876,-0.137 -1.157,-0.412 -0.28,-0.274 -0.42,-0.648 -0.42,-1.119 0,-0.486 0.145,-0.868 0.436,-1.143 0.291,-0.274 0.686,-0.412 1.181,-0.412 0.489,0 0.872,0.138 1.15,0.412 0.277,0.275 0.417,0.639 0.417,1.091 0,0.489 -0.143,0.875 -0.43,1.159 -0.286,0.283 -0.679,0.424 -1.177,0.424zm0.024 -2.39c-0.215,0 -0.382,0.073 -0.501,0.221 -0.119,0.148 -0.178,0.357 -0.178,0.626 0,0.565 0.228,0.848 0.684,0.848 0.435,0 0.653,-0.29 0.653,-0.87 0,-0.55 -0.22,-0.825 -0.658,-0.825zm1.979 2.241l0 -0.735c0.15,0.09 0.299,0.157 0.447,0.201 0.149,0.044 0.289,0.065 0.421,0.065 0.161,0 0.289,-0.021 0.381,-0.065 0.093,-0.044 0.139,-0.111 0.139,-0.201 0,-0.058 -0.021,-0.106 -0.063,-0.145 -0.042,-0.038 -0.096,-0.071 -0.162,-0.1 -0.066,-0.028 -0.139,-0.055 -0.217,-0.077 -0.079,-0.024 -0.154,-0.049 -0.227,-0.078 -0.117,-0.044 -0.22,-0.092 -0.309,-0.142 -0.089,-0.051 -0.164,-0.11 -0.225,-0.177 -0.059,-0.067 -0.105,-0.145 -0.137,-0.233 -0.031,-0.088 -0.048,-0.192 -0.048,-0.313 0,-0.165 0.036,-0.307 0.108,-0.426 0.072,-0.118 0.168,-0.215 0.287,-0.291 0.12,-0.075 0.257,-0.131 0.411,-0.167 0.154,-0.035 0.315,-0.053 0.482,-0.053 0.131,0 0.262,0.01 0.396,0.031 0.135,0.019 0.267,0.049 0.398,0.087l0 0.701c-0.116,-0.067 -0.239,-0.117 -0.37,-0.151 -0.132,-0.033 -0.26,-0.05 -0.387,-0.05 -0.06,0 -0.115,0.005 -0.167,0.016 -0.053,0.01 -0.1,0.026 -0.141,0.046 -0.04,0.02 -0.071,0.045 -0.094,0.078 -0.023,0.031 -0.034,0.067 -0.034,0.108 0,0.053 0.017,0.099 0.051,0.137 0.035,0.038 0.079,0.071 0.135,0.099 0.056,0.028 0.118,0.053 0.186,0.075 0.067,0.022 0.135,0.045 0.203,0.067 0.12,0.042 0.229,0.089 0.327,0.139 0.097,0.05 0.182,0.107 0.251,0.175 0.07,0.067 0.124,0.145 0.161,0.236 0.038,0.09 0.056,0.197 0.056,0.321 0,0.175 -0.037,0.324 -0.114,0.448 -0.075,0.123 -0.175,0.223 -0.301,0.301 -0.125,0.077 -0.271,0.134 -0.434,0.169 -0.164,0.036 -0.334,0.053 -0.51,0.053 -0.324,0 -0.623,-0.05 -0.9,-0.149z"/>
   <path class="fil0" d="M22.029 18.706l-0.931 0 0 -1.679 -1.707 0 0 1.679 -0.929 0 0 -4.122 0.929 0 0 1.645 1.707 0 0 -1.645 0.931 0 0 4.122zm1.313 -3.409c-0.153,0 -0.278,-0.045 -0.375,-0.137 -0.098,-0.091 -0.147,-0.202 -0.147,-0.334 0,-0.137 0.049,-0.247 0.147,-0.334 0.097,-0.086 0.222,-0.129 0.375,-0.129 0.156,0 0.282,0.043 0.379,0.129 0.096,0.087 0.145,0.197 0.145,0.334 0,0.137 -0.049,0.251 -0.145,0.339 -0.097,0.088 -0.223,0.132 -0.379,0.132zm0.449 3.409l-0.908 0 0 -2.943 0.908 0 0 2.943zm3.644 0l-0.908 0 0 -0.406 -0.011 0c-0.207,0.318 -0.511,0.477 -0.912,0.477 -0.367,0 -0.664,-0.129 -0.887,-0.389 -0.225,-0.259 -0.337,-0.622 -0.337,-1.088 0,-0.487 0.124,-0.876 0.371,-1.169 0.247,-0.294 0.571,-0.44 0.971,-0.44 0.38,0 0.644,0.135 0.794,0.408l0.011 0 0 -1.75 0.908 0 0 4.357zm-0.891 -1.432l0 -0.221c0,-0.192 -0.056,-0.351 -0.167,-0.477 -0.11,-0.127 -0.256,-0.19 -0.433,-0.19 -0.201,0 -0.359,0.079 -0.472,0.237 -0.113,0.159 -0.17,0.376 -0.17,0.651 0,0.259 0.055,0.458 0.164,0.598 0.11,0.14 0.261,0.21 0.454,0.21 0.185,0 0.335,-0.074 0.451,-0.221 0.115,-0.148 0.173,-0.343 0.173,-0.587zm3.576 -0.692c-0.11,-0.06 -0.237,-0.09 -0.383,-0.09 -0.197,0 -0.351,0.073 -0.463,0.217 -0.111,0.145 -0.167,0.342 -0.167,0.591l0 1.406 -0.907 0 0 -2.943 0.907 0 0 0.546 0.012 0c0.144,-0.399 0.402,-0.598 0.776,-0.598 0.096,0 0.171,0.011 0.225,0.034l0 0.837zm2.871 2.124l-0.859 0 0 -0.423 -0.012 0c-0.197,0.329 -0.49,0.494 -0.877,0.494 -0.285,0 -0.51,-0.08 -0.674,-0.242 -0.164,-0.162 -0.245,-0.379 -0.245,-0.649 0,-0.571 0.338,-0.9 1.014,-0.988l0.8 -0.106c0,-0.322 -0.175,-0.483 -0.524,-0.483 -0.35,0 -0.684,0.104 -1,0.313l0 -0.684c0.127,-0.065 0.299,-0.122 0.519,-0.172 0.219,-0.05 0.419,-0.075 0.599,-0.075 0.839,0 1.259,0.419 1.259,1.256l0 1.759zm-0.853 -1.196l0 -0.198 -0.535 0.068c-0.295,0.038 -0.442,0.172 -0.442,0.4 0,0.103 0.035,0.189 0.107,0.254 0.072,0.066 0.169,0.1 0.292,0.1 0.171,0 0.309,-0.059 0.417,-0.177 0.107,-0.118 0.161,-0.267 0.161,-0.447zm0.582 -3.141l-0.899 0.928 -0.655 0 0.747 -0.928 0.807 0zm3.786 4.337l-0.906 0 0 -0.449 -0.013 0c-0.225,0.347 -0.524,0.52 -0.9,0.52 -0.683,0 -1.023,-0.413 -1.023,-1.239l0 -1.775 0.905 0 0 1.695c0,0.416 0.165,0.624 0.495,0.624 0.163,0 0.292,-0.057 0.39,-0.171 0.098,-0.114 0.146,-0.269 0.146,-0.464l0 -1.684 0.906 0 0 2.943zm1.672 0l-0.907 0 0 -4.357 0.907 0 0 4.357zm1.225 -3.409c-0.153,0 -0.279,-0.045 -0.376,-0.137 -0.098,-0.091 -0.147,-0.202 -0.147,-0.334 0,-0.137 0.049,-0.247 0.147,-0.334 0.097,-0.086 0.223,-0.129 0.376,-0.129 0.156,0 0.281,0.043 0.378,0.129 0.096,0.087 0.145,0.197 0.145,0.334 0,0.137 -0.049,0.251 -0.145,0.339 -0.097,0.088 -0.222,0.132 -0.378,0.132zm0.448 3.409l-0.907 0 0 -2.943 0.907 0 0 2.943zm2.995 -0.106c-0.205,0.118 -0.502,0.177 -0.888,0.177 -0.452,0 -0.818,-0.136 -1.098,-0.411 -0.279,-0.274 -0.42,-0.627 -0.42,-1.06 0,-0.501 0.15,-0.894 0.45,-1.182 0.3,-0.289 0.701,-0.433 1.203,-0.433 0.347,0 0.598,0.046 0.753,0.137l0 0.771c-0.19,-0.142 -0.401,-0.213 -0.635,-0.213 -0.261,0 -0.467,0.076 -0.62,0.229 -0.152,0.152 -0.228,0.362 -0.228,0.631 0,0.26 0.073,0.465 0.218,0.613 0.145,0.149 0.347,0.223 0.601,0.223 0.226,0 0.447,-0.071 0.664,-0.213l0 0.731zm1.997 0.177c-0.491,0 -0.876,-0.137 -1.157,-0.412 -0.28,-0.275 -0.42,-0.648 -0.42,-1.119 0,-0.487 0.145,-0.868 0.436,-1.143 0.291,-0.275 0.686,-0.412 1.181,-0.412 0.489,0 0.872,0.137 1.15,0.412 0.277,0.275 0.417,0.639 0.417,1.091 0,0.488 -0.143,0.875 -0.43,1.158 -0.286,0.284 -0.679,0.425 -1.177,0.425zm0.024 -2.391c-0.215,0 -0.382,0.074 -0.501,0.221 -0.119,0.148 -0.178,0.357 -0.178,0.627 0,0.565 0.228,0.848 0.684,0.848 0.435,0 0.653,-0.291 0.653,-0.87 0,-0.551 -0.22,-0.826 -0.658,-0.826zm1.979 2.242l0 -0.736c0.15,0.091 0.299,0.157 0.447,0.201 0.148,0.045 0.289,0.066 0.421,0.066 0.161,0 0.289,-0.021 0.381,-0.066 0.093,-0.044 0.139,-0.11 0.139,-0.201 0,-0.058 -0.021,-0.106 -0.063,-0.144 -0.042,-0.038 -0.096,-0.071 -0.162,-0.1 -0.066,-0.028 -0.139,-0.055 -0.217,-0.077 -0.079,-0.024 -0.154,-0.05 -0.227,-0.078 -0.117,-0.044 -0.22,-0.092 -0.309,-0.142 -0.089,-0.051 -0.164,-0.11 -0.225,-0.178 -0.059,-0.066 -0.106,-0.144 -0.137,-0.232 -0.031,-0.089 -0.048,-0.193 -0.048,-0.313 0,-0.165 0.036,-0.307 0.108,-0.426 0.072,-0.119 0.168,-0.216 0.287,-0.291 0.12,-0.076 0.257,-0.132 0.411,-0.167 0.154,-0.035 0.315,-0.053 0.482,-0.053 0.131,0 0.262,0.01 0.396,0.03 0.135,0.02 0.267,0.05 0.398,0.088l0 0.701c-0.116,-0.067 -0.239,-0.118 -0.37,-0.151 -0.132,-0.033 -0.26,-0.05 -0.387,-0.05 -0.06,0 -0.115,0.005 -0.167,0.016 -0.053,0.01 -0.1,0.025 -0.141,0.046 -0.04,0.019 -0.071,0.045 -0.094,0.077 -0.023,0.032 -0.034,0.068 -0.034,0.108 0,0.053 0.016,0.099 0.051,0.138 0.035,0.038 0.079,0.071 0.135,0.099 0.056,0.028 0.118,0.053 0.186,0.074 0.067,0.023 0.135,0.045 0.203,0.068 0.12,0.042 0.229,0.088 0.327,0.138 0.097,0.05 0.182,0.108 0.251,0.176 0.07,0.066 0.124,0.145 0.161,0.235 0.038,0.09 0.056,0.197 0.056,0.322 0,0.175 -0.037,0.324 -0.114,0.447 -0.075,0.124 -0.175,0.224 -0.301,0.301 -0.125,0.078 -0.271,0.135 -0.434,0.17 -0.164,0.035 -0.334,0.053 -0.51,0.053 -0.324,0 -0.623,-0.05 -0.9,-0.149z"/>
   <g>
    <path class="fil1" d="M13.241 18.714c-3.7,-0.018 -11.563,0.191 -10.347,-4.667 0.457,-1.824 1.978,-3.615 2.869,-4.754l1.574 -1.791c0.092,-0.095 0.139,-0.123 0.222,-0.22 0.408,-0.473 1.708,-1.756 1.829,-1.982l-0.15 -0.247c-0.044,-0.09 -0.077,-0.162 -0.13,-0.266 -0.28,-0.555 -0.599,-1.113 -0.829,-1.695 -0.378,-0.956 -0.599,-1.49 -0.84,-2.476 -0.095,-0.393 -0.248,-0.565 -0.399,-0.616l-0.213 0c-0.101,0.033 -0.185,0.106 -0.227,0.178 -0.104,0.181 -0.133,0.416 -0.197,0.644 -0.066,0.232 -0.126,0.408 -0.195,0.647 -0.328,1.144 -0.939,2.479 -1.465,3.533l-0.576 1.106c-0.576,1.072 -1.191,2.121 -1.865,3.134l-1.314 2.051c-0.209,0.387 -0.39,0.659 -0.572,1.11 -0.238,0.594 -0.372,1.254 -0.416,1.927l0 0.999c0.062,0.978 0.301,1.924 0.675,2.667 0.658,1.309 1.263,1.878 2.278,2.719l1.032 0.649c0.827,0.41 1.699,0.649 2.576,0.726l1.24 0c0.596,-0.052 1.185,-0.178 1.754,-0.377 0.989,-0.346 1.846,-0.941 2.595,-1.659l1.091 -1.34z"/>
    <path class="fil1" d="M13.834 17.633l0.242 -0.749c0.133,-0.452 0.216,-0.912 0.252,-1.374l0 -1.121c-0.091,-1.166 -0.463,-2.3 -1.058,-3.274 -0.277,-0.452 -1.294,-1.764 -1.708,-2.349l-1.196 -1.822c-0.075,-0.117 -0.121,-0.189 -0.19,-0.305 -0.06,-0.1 -0.157,-0.214 -0.195,-0.326 -0.363,0.271 -1.145,1.177 -1.455,1.492l-1.825 2.032c-0.865,1.103 -2.13,2.545 -2.688,4.19 -0.802,2.362 1.347,2.933 3.279,3.283 1.864,0.339 4.594,0.403 6.542,0.323z"/>
   </g>
  </g>
 </g>
</svg>
