<?xml version="1.0" encoding="UTF-8"?>
<!DOCTYPE svg PUBLIC "-//W3C//DTD SVG 1.1//EN" "http://www.w3.org/Graphics/SVG/1.1/DTD/svg11.dtd">
<!-- Creator: CorelDRAW -->
<svg xmlns="http://www.w3.org/2000/svg" xml:space="preserve" width="137.696mm" height="164.74mm" version="1.1" style="shape-rendering:geometricPrecision; text-rendering:geometricPrecision; image-rendering:optimizeQuality; fill-rule:evenodd; clip-rule:evenodd"
viewBox="0 0 12246.32 14651.55"
 xmlns:xlink="http://www.w3.org/1999/xlink"
 xmlns:xodm="http://www.corel.com/coreldraw/odm/2003">
 <defs>
  <style type="text/css">
   <![CDATA[
    .fil8 {fill:#159F5C}
    .fil7 {fill:#4A8AF4}
    .fil9 {fill:#DC5246}
    .fil6 {fill:#FEFEFE}
    .fil10 {fill:#FFC10A}
    .fil1 {fill:black;fill-rule:nonzero}
    .fil0 {fill:#FF6600;fill-rule:nonzero}
    .fil5 {fill:white;fill-rule:nonzero}
    .fil3 {fill:black;fill-rule:nonzero;fill-opacity:0.050980}
    .fil4 {fill:black;fill-rule:nonzero;fill-opacity:0.070588}
    .fil2 {fill:url(#id2);fill-rule:nonzero}
   ]]>
  </style>
    <clipPath id="id0">
     <rect x="7539.15" y="6837.92" width="4067.04" height="4611.14"/>
    </clipPath>
    <clipPath id="id1">
     <rect x="6782.19" width="5464.13" height="5464.13"/>
    </clipPath>
  <linearGradient id="id2" gradientUnits="userSpaceOnUse" x1="472.07" y1="2571.46" x2="5178.35" y2="2571.46">
   <stop offset="0" style="stop-opacity:1; stop-color:#4C4C4C"/>
   <stop offset="1" style="stop-opacity:1; stop-color:#343434"/>
  </linearGradient>
 </defs>
 <g id="Layer_x0020_1">
  <metadata id="CorelCorpID_0Corel-Layer"/>
  <g id="_1271800649888">
   <path class="fil0" d="M2086.48 13933.97c0,-285.09 -100.43,-413.05 -155.5,-463.27 -9.72,-9.73 -27.54,-1.63 -25.92,12.96 9.72,160.36 -192.75,200.86 -192.75,451.94l0 0 0 1.62c0,153.88 116.62,278.61 259.16,278.61 142.55,0 259.17,-124.73 259.17,-278.61l0 -1.62 0 0c0,-71.27 -27.54,-139.31 -53.45,-191.14 -6.47,-9.72 -21.06,-6.47 -19.44,3.24 50.21,220.3 -71.27,353.13 -71.27,186.28zm-309.39 600.96c-6.47,0 -12.96,-3.25 -17.81,-8.1l-662.51 -662.51c-9.72,-9.72 -9.72,-25.92 0,-35.64l699.76 -699.77c4.86,-3.24 9.73,-6.47 16.2,-6.47l200.86 0.01c11.34,0 19.44,8.09 22.68,14.58 3.24,8.09 3.24,17.81 -6.48,27.54l-656.03 657.65c-12.96,12.97 -12.96,34.02 0,46.98l519.97 521.59c9.72,9.72 9.72,25.91 0,35.64l-100.43 100.43c-3.24,4.85 -9.71,8.09 -16.2,8.09zm132.83 115.01c-11.34,0 -19.44,-8.09 -22.68,-14.58 -3.24,-8.09 -3.24,-17.81 6.47,-27.54l657.66 -657.65c6.47,-6.48 9.72,-14.58 9.72,-24.31 0,-9.72 -3.24,-17.81 -9.72,-24.3l-521.59 -521.58c-9.72,-9.72 -9.72,-25.92 0,-35.64l100.43 -100.43c4.86,-4.86 9.73,-8.1 17.82,-8.1 8.09,0 11.33,4.86 16.2,9.72l660.89 662.51c4.86,4.86 8.1,9.72 8.1,17.81 0,8.1 -3.24,12.97 -8.1,17.82l-699.76 699.76c-4.86,4.86 -9.72,8.1 -17.81,8.1l-197.62 -1.62 0 0z"/>
   <path class="fil1" d="M3578.34 13600.28c-3.24,6.48 -8.1,9.72 -14.58,9.72 -4.86,0 -9.72,-3.24 -17.81,-9.72 -8.09,-6.48 -17.81,-14.58 -29.16,-22.67 -12.96,-9.73 -27.54,-16.2 -46.98,-22.68 -19.43,-8.1 -43.74,-9.72 -71.27,-9.72 -27.54,0 -51.83,4.86 -74.51,11.34 -21.06,8.09 -38.87,19.43 -53.45,32.39 -14.58,12.97 -25.92,29.16 -32.4,46.98 -8.1,17.81 -11.34,37.26 -11.34,56.7 0,27.54 6.47,46.97 16.2,64.79 9.72,16.2 25.91,30.77 45.35,43.73 17.81,11.34 38.87,22.68 63.17,29.16 24.3,9.72 46.98,16.2 71.27,24.3 24.3,8.1 46.98,16.2 71.27,27.54 24.3,9.73 43.74,22.68 63.18,35.64 19.43,12.97 32.39,32.4 45.35,53.46 9.72,21.06 16.2,46.97 16.2,79.37 0,32.4 -6.48,63.18 -16.2,90.72 -9.72,27.54 -27.54,53.45 -46.98,74.51 -19.43,21.06 -46.98,37.26 -77.75,50.21 -30.78,11.34 -64.79,17.81 -103.67,17.81 -50.21,0 -95.57,-9.72 -131.21,-27.54 -37.25,-17.81 -68.04,-43.74 -97.19,-74.51l9.72 -24.31c4.86,-6.47 9.72,-8.1 14.58,-8.1 3.24,0 8.1,1.63 11.34,6.48 4.86,4.86 11.34,9.72 17.81,16.2 8.1,6.47 16.2,12.96 27.54,21.06 11.34,8.1 22.68,14.58 35.64,21.06 12.96,6.48 27.54,11.34 45.36,16.2 17.81,4.86 37.25,6.48 59.94,6.48 30.77,0 58.31,-4.86 82.61,-12.97 24.3,-9.72 45.35,-22.67 61.55,-37.25 16.2,-14.58 29.15,-35.64 38.87,-56.7 9.72,-22.67 12.96,-45.35 12.96,-69.65 0,-27.54 -6.47,-48.6 -16.2,-66.42 -9.73,-17.81 -25.92,-32.4 -45.36,-45.35 -17.81,-11.34 -38.87,-22.68 -63.17,-29.16 -24.3,-8.1 -46.98,-16.2 -71.27,-24.3 -24.3,-8.1 -46.98,-16.2 -71.27,-25.92 -24.3,-9.72 -43.74,-21.06 -63.18,-35.64 -17.81,-14.58 -32.39,-32.4 -45.35,-55.07 -9.72,-22.68 -16.2,-48.6 -16.2,-82.61 0,-25.92 4.86,-50.21 14.58,-74.51 9.71,-24.31 24.3,-45.36 43.73,-64.79 19.44,-17.82 42.12,-32.4 69.66,-45.36 27.54,-9.72 59.94,-16.2 95.56,-16.2 40.5,0 76.13,6.47 108.53,19.43 30.78,12.97 61.55,32.4 87.48,58.32l-12.96 27.54zm-212.21 696.53c-51.83,0 -98.81,-9.72 -136.07,-27.54 -37.25,-17.82 -71.27,-45.36 -100.43,-76.13l-4.86 -4.86 19.43 -29.16c9.72,-9.72 16.2,-11.33 22.68,-11.33 6.47,0 11.34,3.24 17.81,9.72 4.86,4.86 11.34,9.72 19.44,16.2 8.1,6.47 16.2,12.96 25.92,21.06 9.72,8.1 21.06,12.96 34.01,19.44 12.97,6.47 27.54,11.33 45.36,14.58 16.2,4.86 35.64,6.47 58.31,6.47 29.16,0 56.7,-4.86 79.38,-12.96 22.68,-9.72 42.11,-21.06 58.32,-35.64 14.58,-14.58 27.54,-32.4 35.64,-53.45 9.72,-21.06 11.34,-43.74 11.34,-66.42 0,-25.92 -4.86,-45.35 -14.58,-63.17 -9.72,-17.82 -24.3,-29.16 -42.12,-42.12 -17.81,-11.33 -37.25,-21.05 -59.94,-27.54 -22.67,-8.1 -45.35,-16.2 -71.27,-24.3 -25.92,-8.1 -48.6,-16.2 -71.27,-25.92 -24.3,-9.72 -45.35,-22.68 -64.79,-37.26 -19.43,-14.58 -34.01,-35.64 -45.35,-58.31 -11.34,-24.3 -17.81,-51.84 -17.81,-85.85 0,-27.54 4.86,-53.45 14.58,-79.38 9.71,-25.93 25.92,-46.98 45.35,-66.41 19.44,-19.44 45.36,-34.02 72.89,-45.36 27.54,-11.34 63.17,-17.81 98.81,-17.81 42.11,0 79.38,6.47 111.77,19.44 32.39,12.96 63.17,34.01 90.72,61.54l4.86 4.86 -16.2 30.77c-9.72,16.2 -25.92,21.06 -45.36,1.63 -8.09,-6.47 -16.2,-12.96 -29.15,-21.06 -11.34,-8.1 -27.54,-14.58 -45.36,-22.68 -17.81,-6.47 -40.49,-9.72 -68.04,-9.72 -27.54,0 -50.21,4.86 -71.27,11.34 -19.43,8.1 -37.25,17.81 -50.21,30.77 -12.96,12.97 -24.3,27.54 -30.77,45.36 -6.47,17.81 -9.72,35.64 -9.72,53.45 0,24.3 4.86,45.35 14.58,59.94 9.72,16.2 24.3,29.16 42.11,42.11 17.81,11.34 37.26,21.06 59.94,29.16 22.68,8.1 45.36,16.2 71.27,24.3 24.3,8.1 48.6,16.2 71.27,27.54 24.3,9.73 45.36,22.68 64.79,37.26 19.44,14.58 34.02,34.02 45.36,56.7 11.33,22.67 17.81,50.21 17.81,82.61 0,32.4 -6.48,64.79 -17.81,95.57 -11.34,29.16 -27.54,55.07 -50.21,77.75 -22.68,22.68 -48.6,38.87 -81,51.84 -32.38,4.86 -69.64,12.96 -110.14,12.96zm-215.43 -111.78c25.92,27.54 55.08,50.21 89.09,66.42 35.64,17.81 79.38,27.54 127.97,27.54 37.26,0 71.27,-6.47 100.43,-17.81 29.15,-11.34 53.45,-27.54 74.51,-46.98 19.44,-19.44 35.64,-45.35 45.35,-71.27 9.73,-27.54 16.2,-56.69 16.2,-87.47 0,-29.16 -6.47,-55.08 -14.58,-76.13 -9.72,-19.44 -24.3,-37.26 -42.11,-50.21 -17.82,-12.97 -37.26,-25.92 -59.94,-35.64 -22.67,-9.72 -45.35,-17.82 -69.65,-27.54 -24.3,-8.09 -46.98,-16.2 -71.27,-24.3 -24.3,-9.72 -45.36,-19.43 -64.79,-30.77 -19.44,-11.34 -34.02,-27.54 -45.36,-45.36 -11.34,-17.81 -17.81,-42.11 -17.81,-69.65 0,-21.06 4.86,-42.12 11.34,-61.55 6.47,-19.44 19.44,-37.26 34.02,-50.21 14.58,-14.58 34.01,-27.54 56.69,-34.02 22.68,-9.72 48.6,-11.34 77.75,-11.34 29.15,0 53.45,3.25 74.51,9.73 19.44,8.09 37.26,14.58 48.6,24.3 12.96,9.72 24.3,16.2 30.77,24.3 9.72,8.1 11.34,8.1 11.34,8.1 1.62,0 4.86,0 6.47,-4.86l9.72 -19.44c-24.3,-22.67 -50.21,-40.49 -79.37,-51.83 -30.78,-11.34 -64.79,-17.81 -103.67,-17.81 -34.01,0 -64.79,6.47 -92.33,16.2 -27.54,9.72 -48.6,25.92 -66.41,42.12 -17.81,17.81 -30.78,37.25 -42.12,61.54 -9.72,22.68 -12.96,45.36 -12.96,71.27 0,30.78 6.47,58.32 16.2,79.38 9.72,21.06 24.3,38.87 42.11,51.84 17.81,12.96 37.26,25.91 59.94,34.01 22.68,9.72 45.35,17.81 69.66,25.92 24.3,8.1 46.97,14.58 71.27,24.3 24.3,9.72 45.35,17.81 64.79,30.78 19.43,11.33 35.64,27.54 45.35,46.97 11.34,19.44 17.81,43.74 17.81,72.89 0,27.54 -4.86,50.21 -12.96,74.51 -9.72,24.3 -22.68,43.74 -40.5,59.94 -17.81,16.2 -38.87,29.16 -64.79,40.5 -25.92,9.72 -53.45,14.58 -84.22,14.58 -22.68,0 -43.74,-3.24 -63.18,-8.1 -17.81,-4.86 -34.01,-9.72 -46.97,-16.2 -12.97,-6.47 -27.54,-12.96 -37.26,-22.68 -9.72,-8.1 -19.44,-14.58 -27.54,-21.06 -8.1,-6.47 -12.97,-11.34 -17.82,-16.2 -4.85,-4.86 -8.09,-4.86 -8.09,-4.86 -1.63,0 -4.86,0 -8.1,4.86l-8.1 11.32zm1313.69 -293.18c0,59.94 -9.73,113.39 -27.54,161.98 -17.81,48.6 -43.73,90.71 -76.13,124.73 -32.39,34.02 -71.27,61.55 -116.62,80.99 -45.35,19.44 -95.56,27.54 -150.64,27.54 -53.45,0 -103.67,-9.72 -149.02,-27.54 -45.36,-19.43 -82.61,-45.35 -116.63,-80.99 -32.4,-34.02 -58.31,-76.13 -76.13,-124.73 -17.81,-48.6 -27.54,-102.06 -27.54,-161.98 0,-59.94 9.72,-113.39 27.54,-161.98 17.82,-48.6 43.74,-90.72 76.13,-124.73 32.4,-34.02 71.27,-61.55 116.63,-81 45.35,-19.43 95.56,-27.54 149.02,-27.54 55.08,0 105.29,9.72 150.64,27.54 45.35,19.44 82.61,45.36 116.62,81 32.4,34.01 58.32,76.13 76.13,124.73 17.81,48.6 27.54,102.05 27.54,161.98zm-58.32 0c0,-53.45 -8.1,-102.06 -22.68,-145.79 -14.58,-43.74 -35.64,-79.38 -63.17,-108.53 -27.54,-29.16 -59.94,-51.83 -98.81,-68.04 -38.88,-16.2 -81,-24.3 -126.35,-24.3 -45.35,0 -87.47,8.1 -126.35,24.3 -38.87,16.2 -71.27,38.87 -98.81,68.04 -27.54,29.16 -48.6,64.79 -64.79,108.53 -16.2,43.73 -22.68,90.71 -22.68,145.79 0,53.45 8.1,102.05 22.68,145.79 14.58,43.74 35.64,79.38 64.79,108.53 27.54,29.15 59.94,51.83 98.81,68.04 38.88,16.2 81,24.3 126.35,24.3 45.35,0 89.09,-8.1 126.35,-24.3 38.87,-14.58 71.27,-38.88 98.81,-68.04 27.54,-29.16 46.98,-64.79 63.17,-108.53 16.2,-43.74 22.68,-90.72 22.68,-145.79zm-309.39 403.33c-55.07,0 -106.91,-9.72 -152.26,-27.54 -45.36,-19.43 -85.85,-45.35 -119.87,-82.61 -32.4,-35.64 -59.94,-77.75 -77.75,-127.96 -17.81,-48.6 -27.54,-105.29 -27.54,-165.23 0,-59.94 9.72,-116.62 27.54,-165.22 17.81,-48.6 45.35,-92.34 77.75,-127.97 32.4,-35.64 72.89,-63.17 119.87,-82.61 45.35,-19.43 97.19,-29.15 152.26,-29.15 56.69,0 106.91,9.72 153.88,27.54 45.36,19.44 85.85,45.35 119.87,82.61 34.01,37.26 59.94,79.38 77.75,127.96 17.81,48.6 27.54,103.67 27.54,165.23 0,61.55 -9.72,116.62 -27.54,165.23 -17.81,48.6 -45.35,92.33 -77.75,127.96 -32.4,35.64 -72.89,63.17 -119.87,82.61 -46.98,19.43 -98.81,29.15 -153.88,29.15zm0 -788.85c-51.83,0 -100.43,9.72 -145.79,27.54 -43.74,17.81 -82.61,45.35 -113.39,77.75 -30.78,32.4 -56.7,74.51 -72.89,121.49 -17.81,46.98 -27.54,100.43 -27.54,158.74 0,58.32 9.72,111.77 27.54,158.74 17.81,46.98 42.11,87.47 72.89,121.49 30.77,32.4 69.65,59.94 113.39,77.75 43.74,17.81 92.33,27.54 145.79,27.54 53.45,0 102.06,-9.72 145.79,-27.54 43.74,-17.81 82.61,-45.35 113.4,-77.75 30.77,-32.4 56.69,-74.51 72.88,-119.87 17.81,-46.98 27.54,-100.43 27.54,-158.74 0,-58.31 -9.73,-111.77 -27.54,-158.74 -17.81,-46.98 -42.11,-87.48 -72.88,-121.49 -30.78,-32.4 -69.66,-59.94 -113.4,-77.76 -43.74,-21.06 -92.34,-29.15 -145.79,-29.15zm809.91 732.16c37.26,0 69.66,-6.47 100.43,-19.43 29.16,-12.97 53.45,-30.78 74.51,-53.46 21.06,-22.67 35.64,-50.21 45.36,-80.99 9.72,-30.78 16.2,-64.79 16.2,-100.43l0 -477.85 55.08 0 0 477.84c0,43.74 -8.1,82.61 -21.06,119.87 -12.96,37.26 -32.4,68.04 -58.32,97.19 -25.92,27.54 -56.69,48.6 -92.33,64.79 -35.64,14.58 -77.75,24.3 -121.49,24.3 -45.36,0 -85.85,-8.1 -121.49,-24.3 -35.64,-16.2 -66.42,-37.26 -92.34,-64.79 -25.91,-27.54 -45.35,-59.94 -58.31,-97.19 -12.97,-37.26 -21.06,-77.75 -21.06,-119.87l0 -477.84 56.7 0 0 476.23c0,35.64 6.47,69.66 16.2,100.43 9.72,30.78 27.54,58.32 45.36,81 21.06,22.68 45.35,40.5 74.51,53.45 30.78,14.58 64.79,21.06 102.05,21.06zm0 58.32c-45.35,0 -87.47,-8.1 -124.73,-24.3 -37.26,-16.2 -69.66,-38.87 -95.56,-66.42 -25.92,-27.54 -45.36,-63.17 -59.94,-100.43 -12.96,-37.26 -21.06,-79.37 -21.06,-121.49l0 -485.95 74.52 0 0 485.95c0,34.02 6.48,66.42 14.58,98.81 9.72,29.16 25.92,56.7 45.36,77.76 19.43,22.68 43.73,38.87 71.27,51.83 27.54,11.34 59.94,19.44 95.56,19.44 35.64,0 68.04,-6.48 95.57,-17.81 27.54,-11.34 51.83,-29.16 71.27,-51.84 19.43,-22.68 34.01,-46.98 45.35,-77.75 9.72,-29.16 14.58,-63.17 14.58,-98.81l0 -487.57 74.52 0 0 485.95c0,43.74 -8.1,84.23 -21.06,121.49 -12.96,37.26 -34.02,71.27 -59.94,100.43 -25.92,27.54 -58.32,50.21 -95.57,66.42 -37.25,16.2 -79.37,24.3 -124.73,24.3zm-285.08 -782.38l0 468.13c0,42.12 6.47,81 19.43,116.63 12.96,35.64 30.78,66.41 56.69,93.95 24.31,27.54 53.46,46.98 89.1,63.17 34.01,14.58 74.51,22.68 119.86,22.68 43.74,0 82.61,-8.1 119.87,-22.68 34.01,-14.58 64.79,-35.64 89.09,-63.17 24.3,-27.54 43.74,-58.32 56.69,-93.95 12.97,-35.64 19.44,-74.51 19.44,-116.63l0 -468.13 -37.26 0 0 468.13c0,37.26 -6.47,71.27 -16.2,103.67 -9.72,32.39 -27.54,61.55 -48.6,84.22 -21.06,24.3 -46.97,43.74 -77.75,56.7 -30.77,12.95 -64.79,21.06 -102.05,21.06 -38.87,0 -72.89,-8.1 -102.06,-21.06 -29.15,-12.97 -56.69,-32.4 -77.75,-56.7 -21.06,-24.3 -37.26,-51.83 -46.98,-84.22 -9.72,-30.78 -16.2,-66.42 -16.2,-103.67l0 -468.13 -45.34 0zm897.38 372.56c14.58,0 12.96,0 12.96,0l32.4 0c34.01,0 64.79,-4.86 92.33,-11.34 27.54,-9.72 50.21,-19.43 68.04,-35.64 19.43,-14.58 32.4,-34.01 43.73,-55.07 9.73,-21.06 14.58,-45.36 14.58,-72.89 0,-55.07 -17.81,-95.56 -53.45,-121.49 -35.64,-27.54 -87.47,-40.49 -157.13,-40.49l-140.92 0 0 338.55 0 42.11 0 349.88 -56.7 0 0 -772.65 196 -0.01c89.09,0 155.5,17.81 199.24,51.84 45.36,34.01 64.79,84.22 64.79,152.26 0,29.16 -4.86,56.69 -14.58,81 -9.72,24.3 -25.92,45.35 -45.35,64.79 -19.44,17.81 -42.12,34.01 -68.04,45.35 -27.54,11.34 -58.32,19.44 -90.72,24.3 9.72,6.48 16.2,12.97 24.3,22.68l265.66 333.69 -48.59 0.01c-6.48,0 -9.73,-1.63 -14.58,-3.25 -4.86,-1.61 -9.73,-6.47 -11.34,-9.72l-246.22 -319.11c-6.48,-8.09 -12.97,-12.96 -19.44,-16.2 -8.1,-3.24 -50.21,-4.86 -64.79,-4.86 -0.01,-38.87 4.86,-43.73 17.81,-43.73zm408.2 400.1l-66.41 0c-8.1,0 -12.97,-1.63 -19.44,-4.86 -6.47,-3.24 -9.72,-8.1 -14.58,-12.96l-247.83 -312.63c-6.47,-8.09 -9.72,-11.34 -16.2,-14.58 -6.47,-1.62 -42.11,-4.86 -61.55,-4.86l-9.72 0 0 -38.87c0,-12.96 3.24,-21.06 27.54,-21.06 12.96,0 14.58,0 14.58,0l32.4 0c32.4,0 63.17,-4.86 89.09,-11.34 25.92,-8.09 46.98,-19.43 64.79,-34.01 17.81,-14.58 30.78,-30.78 40.5,-51.84 9.72,-21.06 12.96,-43.73 12.96,-68.04 0,-51.83 -16.2,-89.09 -50.21,-115.01 -34.02,-25.91 -84.23,-38.87 -152.26,-38.87l-132.83 0 0 727.31 -74.51 0 0 -788.86 207.33 0c90.71,0 158.74,17.82 205.71,53.46 45.36,35.64 69.66,89.09 69.66,158.74 0,30.78 -6.47,59.94 -16.2,84.23 -9.73,24.29 -27.54,46.98 -45.36,66.41 -19.43,19.44 -45.35,34.02 -71.27,46.98 -22.68,9.72 -45.35,16.2 -72.89,21.06 3.25,3.24 6.48,6.48 9.73,9.72l276.99 349.89zm-417.92 -367.7c16.2,0 50.21,1.63 59.94,6.47 9.72,4.86 16.2,9.73 24.3,19.44l247.83 312.63c3.24,4.86 6.47,8.09 9.72,9.72 3.25,1.62 6.48,3.24 9.72,3.24l29.15 -0.01 -255.94 -319.11c-6.47,-9.72 -12.96,-14.58 -21.06,-19.43l-22.68 -12.96 27.54 -3.25c32.4,-3.24 63.17,-9.72 87.47,-22.67 25.92,-11.34 46.98,-25.92 66.42,-43.74 17.81,-17.81 32.39,-37.26 42.11,-61.55 9.72,-24.3 14.58,-48.6 14.58,-77.75 0,-64.79 -21.06,-111.77 -63.17,-144.17 -42.12,-32.4 -106.91,-48.6 -192.76,-48.6l-187.9 0 0 751.61 37.26 0 0 -728.93 150.64 0c69.66,0 124.73,12.96 161.98,42.11 38.87,27.54 58.32,71.27 58.32,129.59 0,27.54 -6.47,53.45 -14.58,76.13 -9.72,22.68 -25.92,42.11 -45.36,58.32 -19.43,16.2 -43.73,27.54 -71.27,37.26 -27.54,9.72 -59.94,12.96 -95.56,12.96l-32.4 0c-1.62,0 -3.24,0 -12.96,0 -4.86,0 -9.72,0 -11.34,22.68zm1052.89 228.4c3.24,0 8.1,1.62 9.72,4.86l22.68 24.3c-16.2,16.2 -32.4,32.4 -51.83,45.36 -19.44,12.96 -40.5,25.92 -63.18,34.01 -22.67,9.72 -46.98,16.2 -72.88,22.68 -27.54,6.47 -56.7,8.1 -87.48,8.1 -53.45,0 -102.05,-9.72 -147.41,-27.54 -45.35,-19.43 -82.61,-45.35 -115.01,-80.99 -30.77,-34.02 -56.69,-76.13 -74.51,-124.73 -17.81,-48.6 -27.54,-102.06 -27.54,-161.98 0,-58.32 9.72,-111.77 27.54,-160.36 17.81,-48.6 45.35,-89.09 77.75,-124.73 32.4,-34.02 72.89,-61.55 119.87,-81 45.35,-19.43 98.81,-27.54 153.88,-27.54 27.54,0 53.45,1.62 77.75,6.47 24.31,4.86 45.36,9.72 64.79,17.81 21.06,8.1 38.88,17.81 56.7,29.16 17.81,11.34 35.64,25.92 51.83,40.5l-16.2 24.3c-3.24,4.86 -8.1,6.47 -12.97,6.47 -3.24,0 -8.09,-1.62 -11.33,-6.47 -3.25,-4.86 -11.34,-9.72 -19.44,-14.58 -8.1,-6.48 -17.81,-11.34 -27.54,-17.81 -9.72,-8.1 -24.3,-12.97 -40.5,-17.82 -14.58,-6.47 -32.4,-9.72 -53.45,-14.58 -19.44,-4.86 -43.74,-6.47 -68.04,-6.47 -46.98,0 -90.71,8.1 -129.59,24.3 -38.87,16.2 -72.88,38.87 -100.43,69.66 -27.54,29.16 -50.21,66.41 -66.41,108.53 -16.2,42.11 -24.3,90.71 -24.3,144.16 0,55.08 8.1,102.06 24.3,145.79 16.2,43.74 37.26,79.38 64.79,108.53 27.54,29.15 61.55,51.84 98.81,68.04 37.26,16.2 79.38,24.3 121.49,24.3 27.54,0 51.84,-1.62 74.51,-6.47 22.68,-3.24 42.12,-9.72 59.94,-16.2 17.81,-8.09 35.64,-16.2 50.21,-27.54 16.2,-9.72 30.77,-22.68 45.35,-37.26 1.62,-1.62 3.24,-3.24 4.86,-3.24 -1.61,1.59 1.63,-0.02 3.25,-0.02zm-246.21 149.02c-55.08,0 -105.29,-9.72 -150.64,-27.54 -45.36,-19.44 -84.23,-45.36 -118.25,-82.61 -32.4,-35.64 -58.32,-77.76 -76.13,-127.97 -17.81,-48.6 -27.54,-105.28 -27.54,-165.22 0,-59.94 9.72,-115.01 27.54,-163.61 19.43,-48.6 45.35,-92.33 79.38,-127.96 34.01,-35.64 76.12,-64.79 121.49,-82.61 46.97,-19.43 100.43,-29.16 157.13,-29.16 27.54,0 55.07,1.63 79.37,6.48 24.3,4.86 45.36,9.72 66.42,17.81 21.06,8.1 40.49,17.81 58.31,29.16 17.82,11.33 35.64,25.92 53.46,42.11l6.47 6.47 -21.06 30.78c-3.24,4.86 -9.72,9.72 -21.06,9.72 -6.47,0 -9.72,-3.24 -17.81,-8.1 -4.86,-4.86 -11.34,-9.72 -19.44,-12.96 -8.1,-6.47 -16.2,-11.34 -27.54,-17.81 -9.72,-6.48 -24.3,-11.34 -38.87,-17.82 -14.58,-6.47 -32.4,-9.72 -51.84,-12.96 -19.43,-3.24 -42.11,-6.47 -66.41,-6.47 -45.36,0 -87.48,8.1 -126.35,24.3 -37.25,16.2 -71.27,38.87 -98.81,66.41 -27.54,27.54 -48.6,64.79 -64.79,105.29 -14.58,42.11 -24.3,89.09 -24.3,139.3 0,53.45 8.1,100.43 22.68,142.55 14.58,42.11 35.64,77.75 63.17,105.28 27.54,27.54 58.32,50.21 95.56,64.79 35.64,14.58 76.13,22.68 119.87,22.68 27.54,0 51.83,-1.63 72.89,-6.47 21.06,-3.25 40.49,-9.73 58.31,-16.2 17.82,-8.1 34.02,-16.2 48.6,-25.92 14.58,-9.72 29.15,-22.67 45.35,-35.64 3.24,-3.24 4.86,-3.24 8.1,-4.86 8.1,-4.86 19.43,-3.24 25.92,4.86l27.54 29.16 -6.47 6.47c-16.2,17.81 -34.02,32.4 -53.45,46.98 -19.44,12.96 -40.5,27.54 -64.79,35.64 -22.68,9.72 -46.98,17.81 -76.13,22.68 -22.68,9.72 -53.46,12.97 -85.85,12.97zm16.2 -790.48c-55.08,0 -105.29,9.72 -150.64,27.54 -45.35,17.81 -84.23,45.35 -116.62,79.38 -32.4,34.01 -58.32,74.51 -76.13,121.49 -17.81,46.97 -27.54,100.43 -27.54,157.13 0,56.7 9.73,111.76 27.54,158.74 17.81,46.98 42.11,87.48 72.88,121.49 30.78,32.4 68.04,59.94 111.77,77.76 43.73,17.81 90.72,27.54 142.55,27.54 30.77,0 59.94,-3.24 85.85,-8.1 25.92,-4.86 50.21,-11.34 71.27,-22.68 22.67,-9.72 42.11,-21.06 59.94,-34.01 16.2,-11.34 30.77,-25.92 45.35,-38.87l-16.2 -17.81c-1.63,-1.63 -3.24,-1.63 -4.86,0 -1.62,0 -3.24,1.62 -4.86,3.24 -14.58,12.96 -30.78,27.54 -46.98,37.25 -16.2,9.73 -34.02,21.06 -51.84,27.54 -19.43,8.09 -40.49,12.96 -61.54,16.2 -22.68,3.24 -46.98,6.47 -76.13,6.47 -45.36,0 -87.48,-9.72 -126.35,-24.3 -38.87,-16.2 -72.89,-40.49 -100.43,-69.65 -27.54,-29.16 -50.21,-68.04 -66.41,-111.77 -16.2,-43.73 -24.31,-93.95 -24.31,-149.02 0,-53.46 8.1,-102.06 24.31,-147.41 16.2,-43.74 38.87,-82.61 68.03,-111.77 29.16,-30.78 64.79,-55.08 103.67,-71.27 38.87,-16.2 84.22,-25.92 132.82,-25.92 25.92,0 48.6,1.62 69.66,6.47 21.06,4.86 38.87,9.72 55.08,14.58 16.2,6.48 29.15,11.34 42.11,19.44 11.34,8.1 21.06,12.96 27.54,19.43 8.1,6.48 14.58,9.73 19.44,14.58 4.86,4.86 8.1,4.86 8.1,4.86 4.86,0 6.47,-1.62 6.47,-3.24l11.34 -17.81c-14.58,-12.97 -29.16,-24.3 -45.36,-34.02 -17.81,-11.34 -35.64,-21.06 -55.07,-27.54 -19.44,-8.1 -42.12,-12.96 -64.79,-17.81 -17.82,-4.87 -42.12,-8.11 -69.66,-8.11zm864.99 0l0 45.35 -406.58 0 0 312.63 338.55 0 0 45.35 -338.55 0 0 320.73 406.58 0 0 45.36 -463.28 0 0 -771.05 463.28 0 0 1.63zm9.72 780.76l-481.1 0 0 -790.49 481.1 0 0 64.79 -406.58 0.01 0 293.19 338.54 -0.01 0 64.8 -338.54 0 0 302.91 406.58 0 0 64.79zm-463.28 -17.81l445.45 0 0 -27.54 -406.58 0 0 -340.17 338.55 0 0 -27.54 -338.55 0 0 -330.45 406.58 0 0 -27.54 -445.45 0 0 753.23z"/>
   <path class="fil1" d="M7888.72 13496.61l0 118.25 -349.89 0 0 233.26 294.81 0 0 118.25 -294.81 0 0 320.73 -147.41 0 0 -788.86 497.29 -1.63 0 0zm856.89 395.25c0,58.32 -9.72,111.77 -27.54,160.36 -19.44,48.6 -45.35,92.33 -82.61,127.96 -34.01,35.64 -77.75,64.79 -126.34,84.23 -48.6,21.06 -103.67,29.16 -163.61,29.16 -59.94,0 -115.01,-9.72 -163.6,-29.16 -48.6,-21.06 -90.72,-46.98 -126.35,-84.23 -35.64,-35.64 -63.17,-79.37 -82.61,-127.96 -19.44,-48.6 -27.54,-102.05 -27.54,-160.36 0,-58.32 9.72,-111.77 27.54,-160.36 19.43,-48.6 45.35,-92.34 82.61,-127.97 35.64,-35.64 77.76,-64.79 126.35,-84.22 48.6,-21.06 103.67,-29.16 163.6,-29.16 59.94,0 115.01,9.72 163.61,30.78 48.6,21.06 90.71,48.6 126.34,84.22 34.02,35.64 63.17,79.38 82.61,127.96 16.2,46.98 27.54,100.44 27.54,158.75zm-150.64 0c0,-43.74 -6.47,-82.61 -17.81,-116.63 -11.34,-34.01 -27.54,-64.79 -48.6,-87.47 -21.06,-24.3 -46.98,-42.11 -79.38,-55.08 -30.77,-12.96 -64.79,-19.43 -103.67,-19.43 -38.87,0 -72.89,6.47 -103.67,19.43 -30.78,12.97 -56.69,30.78 -79.38,55.08 -22.68,24.3 -38.87,53.45 -50.21,87.47 -11.34,34.02 -17.81,72.89 -17.81,116.63 0,43.74 6.47,82.61 17.81,116.62 11.34,34.02 27.54,64.79 50.21,87.48 22.68,22.68 46.98,42.11 79.38,55.07 30.77,12.97 64.79,19.44 103.67,19.44 38.87,0 72.89,-6.47 103.67,-19.44 30.78,-12.96 56.69,-30.77 79.38,-55.07 21.06,-24.3 37.26,-53.45 48.6,-87.48 11.35,-34.02 17.81,-74.51 17.81,-116.62zm456.79 -17.82l34.01 0c27.54,0 51.84,-3.24 72.89,-9.72 21.06,-8.1 37.26,-16.2 50.21,-27.54 12.96,-11.34 24.3,-27.54 29.16,-43.74 6.47,-16.2 9.72,-35.64 9.72,-55.08 0,-40.49 -12.96,-71.27 -40.5,-92.33 -27.54,-21.05 -66.41,-32.4 -119.86,-32.4l-95.57 0.01 0 262.41 0 105.29 0 307.77 -147.41 0 0 -788.86 241.35 0c53.46,0 100.43,6.48 137.69,16.2 38.87,9.72 69.65,27.54 93.95,45.35 24.3,19.44 43.73,45.36 53.45,71.27 11.34,27.54 17.81,58.32 17.81,92.33 0,27.54 -4.86,51.84 -11.34,76.13 -6.47,24.3 -19.43,45.36 -34.02,64.79 -14.58,19.44 -32.39,35.64 -55.07,50.21 -22.68,14.58 -45.36,27.54 -74.51,34.02 17.81,9.72 34.01,25.92 46.98,45.35l197.62 291.57 -132.83 0.01c-12.96,0 -24.3,-3.24 -32.4,-8.1 -9.72,-4.86 -16.2,-11.34 -22.67,-22.68l-165.23 -252.69c-4.86,-6.48 -12.96,-19.44 -22.68,-21.06 -17.81,0 -35.64,0 -51.83,0 0,0 0,-89.09 0,-95.57 4.86,-12.96 21.06,-12.96 21.06,-12.96zm840.69 304.53c32.4,0 63.17,-3.24 85.85,-9.72 24.3,-6.47 46.98,-14.58 69.66,-25.92l0 -178.18 -98.82 0c-9.72,0 -16.2,-3.25 -22.67,-8.1 -6.48,-6.47 -9.72,-11.34 -9.72,-19.44l0 -82.61 262.41 0 0 354.75c-19.43,14.58 -40.49,27.54 -63.17,37.26 -22.68,9.72 -45.36,19.44 -69.66,27.54 -25.92,8.1 -50.21,11.34 -79.37,14.58 -27.54,3.25 -58.32,4.86 -90.72,4.86 -58.32,0 -110.15,-9.72 -158.74,-29.16 -48.59,-19.43 -90.71,-46.98 -124.73,-82.61 -35.64,-35.64 -63.17,-79.37 -82.61,-127.96 -19.43,-48.6 -29.15,-103.67 -29.15,-161.98 0,-59.94 9.72,-113.39 27.54,-163.6 19.43,-48.6 45.35,-92.33 82.61,-127.96 35.64,-35.64 79.37,-64.79 129.58,-82.61 50.21,-19.44 106.91,-29.16 170.08,-29.16 64.79,0 119.87,9.72 166.84,27.54 46.98,19.44 85.85,45.36 119.87,74.51l-43.74 66.42c-9.72,12.96 -19.43,21.06 -32.4,21.06 -9.72,0 -17.81,-3.24 -27.54,-9.72 -11.34,-8.1 -24.3,-12.96 -35.64,-21.06 -11.34,-8.1 -25.92,-12.96 -40.49,-17.81 -14.58,-4.86 -30.78,-9.72 -48.6,-11.34 -17.81,-3.24 -40.49,-4.86 -64.79,-4.86 -38.87,0 -74.51,6.48 -105.28,19.44 -30.78,12.96 -58.32,30.77 -81,56.69 -22.67,24.3 -38.87,53.45 -50.21,87.48 -11.34,34.01 -17.81,72.88 -17.81,115.01 0,45.35 6.47,85.85 19.44,121.49 12.96,35.64 30.77,64.79 53.45,89.09 22.68,24.3 50.21,43.73 82.61,56.69 30.79,12.98 69.66,19.45 106.92,19.45zm808.29 -208.96l-239.73 0 0 199.25 348.26 -0.01 0 118.25 -497.29 0 0 -788.86 497.29 0 0 118.25 -349.88 0 0 242.98 275.37 -0.01 0 85.85c0,-1.62 -1.62,24.3 -34.02,24.3z"/>
  </g>
  <g id="_1271800648160">
   <g>
    <path class="fil2" d="M2825.21 335.98c-1299.64,0 -2353.14,1053.5 -2353.14,2353.14 0,1045.62 682.53,1930.87 1626.02,2237.37l1454.24 0c943.5,-306.5 1626.02,-1191.75 1626.02,-2237.37 0,-1299.64 -1053.5,-2353.14 -2353.14,-2353.14z"/>
    <path class="fil3" d="M3532.33 4806.48l-1.17 -682.18c0,-110.48 -25.88,-218.37 -75.53,-316.15 663.71,-133.31 986.67,-525.69 986.67,-1197.39 0,-265.32 -78.24,-499.57 -232.49,-696.53 11.77,-37.3 20.47,-75.89 25.88,-115.42 22.12,-161.07 -2.7,-266.38 -22.71,-351.09l-3.18 -13.65c-21.89,-93.65 -48.12,-160.49 -49.18,-163.31l-13.06 -33.18 -13.06 -33.18 -35.53 -3.76 -35.65 -3.76c0,0 -23.42,-2.47 -58.95,-2.47 -49.3,0 -122.36,4.94 -191.43,28.35l-23.06 7.76c-87.07,29.3 -169.31,57.06 -284.38,125.78 -33.65,20.12 -70.47,43.06 -109.89,68.71 -178.14,-44.1 -369.8,-66.58 -570.41,-66.58 -202.61,0 -395.91,22.59 -575.22,67.18 -39.89,-25.88 -76.95,-49.07 -110.83,-69.3 -115.07,-68.71 -197.31,-96.36 -284.38,-125.78l-23.06 -7.76c-68.83,-23.42 -142.02,-28.35 -191.31,-28.35 -35.53,0 -58.95,2.47 -58.95,2.47l-35.53 3.76 -35.3 3.65 -13.18 33.06 -13.3 33.3c-1.17,3.06 -27.41,69.89 -49.3,163.66l-3.18 13.53c-20,84.6 -44.82,190.02 -22.71,350.97 5.65,40.71 14.71,80.6 27.06,118.95 -151.19,196.02 -227.79,428.98 -227.79,693 0,670.06 323.32,1062.21 987.96,1196.58 -22.82,45.65 -40.59,93.89 -53.18,144.02 -23.18,7.88 -44.48,13.18 -63.3,16.12 -28.01,4.23 -57.3,6.35 -86.95,6.35 -80.71,0 -144.13,-15.77 -168.84,-30.47 -36.83,-21.89 -102.6,-85.54 -166.37,-178.6 -54.47,-79.42 -139.43,-183.31 -234.38,-226.73 -82.13,-37.53 -169.07,-59.06 -238.73,-59.06 -16.24,0 -31.18,1.17 -44.24,3.29 -60.82,9.65 -111.65,43.06 -139.3,91.77 -23.89,42.01 -27.65,90.95 -10.35,134.24 25.77,64.48 100.13,115.89 158.02,147.66 28.47,15.64 90,72.83 125.89,130.48 26.94,43.29 39.42,74.12 56.71,116.71 10.24,25.29 21.53,52.83 36.83,86.13 55.3,120.24 227.9,226.37 247.43,238.02 94.83,56.83 254.25,75.06 371.44,80.36l14.47 0.36c0,0 0.12,0 0.12,0 28.24,0 67.07,-2.7 118.13,-8.35l0 307.44c0.23,62.24 -63.18,76.36 -147.07,75.06l64.36 21.65c246.51,88.11 511.23,138.47 788.32,138.47 277.09,0 541.81,-50.36 788.65,-138.37l82.71 -30.83c-83.65,-2.82 -163.54,-16.46 -164.25,-66.59z"/>
    <path class="fil4" d="M3623.04 4900.72c-47.77,5.53 -150.72,-12.82 -150.72,-93.54l0 -682.88c0,-128.72 -38.59,-253.08 -110.13,-359.09 695.95,-112.6 1021.15,-481.57 1021.15,-1154.46 0,-263.2 -80.71,-493.45 -239.9,-685 16.12,-42.95 27.41,-88.24 33.89,-134.95 20.59,-150.13 -1.89,-245.43 -21.65,-329.56l-3.18 -13.65c-20.94,-89.53 -45.65,-152.6 -46.71,-155.19l-13.06 -33.18 -35.65 -3.76c0,0 -20.94,-2.23 -52.83,-2.23 -44.82,0 -111.07,4.35 -172.49,25.29l-23.06 7.76c-84.01,28.35 -163.42,55.06 -273.08,120.48 -39.06,23.29 -82.6,50.71 -129.54,81.65 -180.37,-47.19 -375.57,-71.19 -580.88,-71.19 -207.31,0 -404.15,24.12 -585.81,71.77 -47.41,-31.18 -91.19,-58.71 -130.48,-82.24 -109.66,-65.41 -189.07,-92.25 -273.08,-120.48l-23.06 -7.76c-61.3,-20.83 -127.66,-25.29 -172.49,-25.29 -31.88,0 -52.83,2.23 -52.83,2.23l-35.53 3.76 -13.3 33.3c-1.06,2.59 -25.77,65.65 -46.71,155.19l-3.18 13.65c-19.89,84.13 -42.36,179.31 -21.65,329.44 6.59,47.88 18.36,94.25 35.06,138.13 -156.13,190.6 -235.2,419.68 -235.2,681.82 0,671 325.44,1039.85 1021.97,1153.74 -46.48,69.42 -78.95,147.66 -95.65,231.08 -38.83,15.3 -74.01,25.42 -104.83,30.12 -30.94,4.7 -63.18,7.06 -95.78,7.06 -81.18,0 -159.19,-15.18 -198.84,-38.71 -51.77,-30.71 -124.36,-107.53 -184.95,-195.9 -41.18,-60.01 -123.19,-166.72 -210.37,-206.49 -74.72,-34.12 -152.71,-53.77 -214.25,-53.77 -12.94,0 -24.71,0.94 -35.06,2.59 -43.06,6.82 -78.59,29.65 -97.42,62.83 -15.06,26.35 -17.53,56.83 -6.95,83.3 21.06,52.71 99.07,100.01 131.65,117.9 39.42,21.65 108.13,87.54 147.54,151.07 29.54,47.54 43.53,82.01 61.3,125.54 10,24.59 20.94,51.41 35.77,83.77 38.95,84.6 159.19,173.19 224.14,212.13 88.72,53.18 253.44,68 343.8,72l13.06 0.23c35.18,0 94.12,-5.29 175.9,-15.88l0 373.8c0,91.66 -116.6,95.31 -145.19,95.31 -3.65,0 59.18,21.65 59.18,21.65 230.96,75.77 476.98,118.13 733.24,118.13 256.26,0 502.28,-42.36 733.12,-118.01 0,0 68.36,-24 64.71,-23.52z"/>
    <path class="fil5" d="M4324.64 2610.76c0,-271.78 -92.01,-497.21 -249.08,-673.94 17.06,-38.23 34.83,-89.53 43.65,-154.01 20.23,-147.07 -3.65,-235.31 -23.89,-321.68 -20.24,-86.37 -44.12,-147.07 -44.12,-147.07 0,0 -108.48,-11.06 -200.37,20.23 -91.89,31.3 -170.96,55.18 -284.97,123.19 -53.3,31.77 -106.95,66.6 -149.42,94.83 -181.55,-50.35 -381.21,-76.24 -591.23,-76.24 -211.9,0 -413.33,26.01 -596.17,76.71 -42.59,-28.35 -96.6,-63.42 -150.25,-95.42 -114.01,-68 -193.07,-91.89 -284.97,-123.19 -91.89,-31.3 -200.37,-20.23 -200.37,-20.23 0,0 -23.89,60.71 -44.12,147.07 -20.23,86.36 -44.12,174.6 -23.89,321.68 9.06,66.13 27.41,118.37 44.95,156.83 -154.13,175.66 -244.49,399.68 -244.49,671.11 0,703.94 380.27,1025.26 1073.15,1110.09 -80.83,85.42 -135.07,194.84 -153.31,316.62 -45.54,20 -98.01,38.83 -148.48,46.35 -129.89,19.65 -267.2,0 -333.32,-39.18 -66.13,-39.18 -144.6,-127.42 -203.43,-213.31 -49.65,-72.48 -121.3,-156.6 -186.25,-186.25 -85.77,-39.18 -169.2,-53.89 -215.66,-46.59 -46.59,7.41 -68.6,41.65 -58.83,66.24 9.77,24.48 56.36,61.3 105.42,88.24 49.07,26.94 125.07,100.48 169.2,171.54 49.18,79.3 58.83,125.07 100.48,215.66 29.3,63.77 129.54,143.42 200.95,186.25 61.3,36.83 183.78,57.77 316.26,63.77 45.77,2.12 153.9,-11.3 245.08,-24.24l0 441.21c0,75.18 -68.83,132.37 -140.13,119.19 228.85,76.96 473.22,116.02 728.19,116.02 254.84,0 499.22,-39.06 728.3,-115.78 -71.19,13.06 -140.01,-44.11 -140.01,-119.3l0 -682.88c0,-156.37 -62.01,-297.67 -161.55,-402.98 687.83,-82.59 1072.69,-396.26 1072.69,-1110.56zm-3000.85 1105.16c-18.12,-9.29 -27.88,-26.48 -21.76,-38.59 6.12,-12.12 25.88,-14.35 44.01,-5.06 18.12,9.29 27.88,26.48 21.76,38.59 -6.12,12.11 -25.89,14.35 -44.01,5.06zm142.59 88.83c-9.53,10.35 -30,7.06 -45.77,-7.29 -15.77,-14.35 -20.83,-34.47 -11.3,-44.82 9.53,-10.35 30,-7.06 45.77,7.29 15.77,14.35 20.83,34.47 11.3,44.82zm88.72 147.07c-12,8.48 -32.36,0.59 -45.41,-17.65 -13.06,-18.23 -13.88,-40 -1.89,-48.47 12,-8.47 32.36,-0.59 45.41,17.65 12.95,18.24 13.89,40 1.89,48.47zm127.42 110.72c-8.12,13.18 -31.18,13.77 -51.41,1.41 -20.23,-12.35 -30.12,-33.06 -22,-46.24 8.12,-13.18 31.18,-13.77 51.41,-1.41 20.23,12.35 30.12,33.06 22,46.24zm120.48 108.36c-25.06,-3.06 -43.65,-18.7 -41.53,-34.94 2,-16.24 24,-26.82 48.94,-23.76 25.06,3.06 43.65,18.7 41.53,34.94 -2,16.12 -23.88,26.82 -48.94,23.76zm194.25 28.12c-26.71,-1.53 -47.54,-16.83 -46.48,-34 1.06,-17.17 23.53,-30 50.24,-28.47 26.71,1.53 47.54,16.83 46.48,34 -1.06,17.29 -23.53,30 -50.24,28.47zm183.31 -18.36c-28.47,0 -51.53,-14.83 -51.53,-33.06 0,-18.23 23.06,-33.06 51.53,-33.06 28.47,0 51.53,14.83 51.53,33.06 0,18.23 -23.17,33.06 -51.53,33.06z"/>
   </g>
   <path class="fil1" d="M2408.02 5649.27c-30.82,17.42 -65.16,26.13 -102.93,26.13 -43.86,0 -79.36,-14.12 -106.45,-42.46 -27.16,-28.26 -40.7,-65.74 -40.7,-112.37 0,-47.59 15.07,-86.69 45.16,-117.21 30.1,-30.53 68.23,-45.83 114.43,-45.83 33.46,0 61.57,5.49 84.27,16.33l0 39.9c-24.82,-15.74 -54.32,-23.58 -88.37,-23.58 -34.4,0 -62.67,11.86 -84.7,35.58 -22.04,23.72 -33.02,54.47 -33.02,92.24 0,38.87 10.25,69.48 30.67,91.66 20.43,22.26 48.17,33.39 83.24,33.39 24.01,0 44.81,-4.83 62.38,-14.35l0 -86.24 -67.35 0 0 -32.58 103.36 0 0 139.39z"/>
   <path id="_1" class="fil1" d="M2492.73 5394.86c-6.22,0 -11.63,-2.13 -16.03,-6.44 -4.46,-4.25 -6.66,-9.67 -6.66,-16.26 0,-6.59 2.2,-12.08 6.66,-16.4 4.39,-4.38 9.81,-6.58 16.03,-6.58 6.45,0 11.94,2.2 16.48,6.58 4.46,4.32 6.73,9.81 6.73,16.4 0,6.3 -2.27,11.64 -6.73,16.04 -4.54,4.46 -10.03,6.66 -16.48,6.66zm17.21 275.41l-35.21 0 0 -219.63 35.21 0 0 219.63z"/>
   <path id="_2" class="fil1" d="M2683 5668.15c-8.27,4.54 -19.26,6.81 -32.8,6.81 -38.51,0 -57.68,-21.45 -57.68,-64.36l0 -129.95 -37.78 0 0 -30.02 37.78 0 0 -53.58 35.14 -11.42 0 65 55.35 0 0 30.02 -55.35 0 0 123.8c0,14.71 2.49,25.19 7.54,31.48 4.97,6.3 13.24,9.45 24.88,9.45 8.86,0 16.47,-2.41 22.92,-7.32l0 30.09z"/>
   <polygon id="_3" class="fil1" points="2965.88,5670.27 2929.86,5670.27 2929.86,5530 2770.7,5530 2770.7,5670.27 2734.69,5670.27 2734.69,5362.72 2770.7,5362.72 2770.7,5497.65 2929.86,5497.65 2929.86,5362.72 2965.88,5362.72 "/>
   <path id="_4" class="fil1" d="M3219.4 5670.27l-35.14 0 0 -34.77 -0.88 0c-14.57,26.65 -37.18,39.9 -67.79,39.9 -52.35,0 -78.48,-31.11 -78.48,-93.48l0 -131.27 34.92 0 0 125.7c0,46.35 17.79,69.48 53.22,69.48 17.14,0 31.26,-6.3 42.39,-18.96 11.05,-12.66 16.62,-29.22 16.62,-49.71l0 -126.51 35.14 0 0 219.63z"/>
   <path id="_5" class="fil1" d="M3326.51 5638.51l-0.88 0 0 31.77 -35.21 0 0 -325.12 35.21 0 0 144.08 0.88 0c17.27,-29.14 42.6,-43.71 75.92,-43.71 28.11,0 50.22,9.81 66.11,29.51 15.96,19.62 23.93,45.97 23.93,78.99 0,36.76 -8.93,66.19 -26.79,88.3 -17.87,22.03 -42.32,33.08 -73.36,33.08 -29.06,0 -50.95,-12.3 -65.81,-36.89zm-0.88 -88.59l0 30.67c0,18.16 5.85,33.61 17.72,46.27 11.78,12.66 26.72,18.96 44.88,18.96 21.3,0 37.99,-8.13 50.07,-24.46 12.08,-16.32 18.16,-38.95 18.16,-68.01 0,-24.45 -5.64,-43.55 -16.99,-57.46 -11.28,-13.84 -26.57,-20.79 -45.83,-20.79 -20.5,0 -36.9,7.1 -49.34,21.3 -12.44,14.27 -18.67,32.07 -18.67,53.51z"/>
  </g>
  <g id="_1271800649408">
   <g>
    <polygon class="fil6" points="-0,11722 6236.68,11722 6236.68,6897.4 -0,6897.4 "/>
    <path class="fil7" d="M1504.99 9322.85l-664.54 -1147.3 -456.25 776.39c-260.52,446.23 -194.3,447.19 39.04,864.1l688.88 1193.82c75.45,134.54 175.28,283.82 230.71,404.84l1347.03 0.95c-73.34,-167.36 -201.34,-362.27 -291.86,-515.25 -148.61,-251.15 -870.74,-1475.5 -893.01,-1577.55z"/>
    <path class="fil8" d="M4614.99 9370.37l666.19 1148.19c62.13,-68.97 171.28,-283.64 224,-375.16 484.01,-840.19 502.15,-723.13 186.6,-1265.69 -149.02,-256.23 -301.36,-521.19 -456.8,-790.43 -145.85,-252.6 -329.49,-549.61 -464.89,-805.82l-1334.97 -0.29c44.33,131.92 211.15,388.25 283.92,510.45 113.37,190.35 865.67,1477.49 895.95,1578.76z"/>
    <path class="fil9" d="M840.44 8175.55l664.54 1147.3c42.54,-39.18 1144.62,-1933.18 1180.21,-2042.94l-1336.2 1.22c-131.36,249.43 -413.63,675.29 -508.55,894.42z"/>
    <path class="fil10" d="M5281.18 10518.55l-666.19 -1148.19 -1184.19 2042.7 1344.6 1.44c109.82,-230.52 424.28,-694.61 505.77,-895.96z"/>
   </g>
   <path class="fil1" d="M2112.8 12127.25c-30.82,17.42 -65.16,26.13 -102.93,26.13 -43.86,0 -79.36,-14.12 -106.45,-42.46 -27.16,-28.26 -40.7,-65.74 -40.7,-112.37 0,-47.59 15.07,-86.69 45.16,-117.21 30.1,-30.53 68.23,-45.83 114.43,-45.83 33.46,0 61.57,5.49 84.27,16.33l0 39.9c-24.82,-15.74 -54.32,-23.58 -88.37,-23.58 -34.4,0 -62.67,11.86 -84.7,35.58 -22.04,23.72 -33.02,54.47 -33.02,92.24 0,38.87 10.25,69.48 30.67,91.66 20.43,22.26 48.17,33.39 83.24,33.39 24.01,0 44.81,-4.83 62.38,-14.35l0 -86.24 -67.35 0 0 -32.58 103.36 0 0 139.39z"/>
   <path id="_1_0" class="fil1" d="M2271.31 12153.38c-32.44,0 -58.35,-10.25 -77.75,-30.75 -19.33,-20.5 -29.06,-47.73 -29.06,-81.63 0,-36.9 10.1,-65.67 30.24,-86.47 20.21,-20.71 47.44,-31.04 81.77,-31.04 32.73,0 58.28,10.03 76.66,30.24 18.37,20.14 27.53,48.1 27.53,83.82 0,35.07 -9.89,63.11 -29.65,84.19 -19.84,21.09 -46.42,31.63 -79.72,31.63zm2.56 -200.3c-22.55,0 -40.41,7.68 -53.59,23.06 -13.17,15.37 -19.76,36.53 -19.76,63.62 0,25.99 6.66,46.49 19.98,61.49 13.32,15.01 31.12,22.55 53.37,22.55 22.77,0 40.26,-7.4 52.49,-22.11 12.23,-14.72 18.3,-35.66 18.3,-62.82 0,-27.46 -6.07,-48.61 -18.3,-63.47 -12.23,-14.93 -29.72,-22.32 -52.49,-22.32z"/>
   <path id="_2_1" class="fil1" d="M2528.71 12153.38c-32.44,0 -58.35,-10.25 -77.75,-30.75 -19.33,-20.5 -29.06,-47.73 -29.06,-81.63 0,-36.9 10.1,-65.67 30.24,-86.47 20.21,-20.71 47.44,-31.04 81.77,-31.04 32.73,0 58.28,10.03 76.66,30.24 18.37,20.14 27.53,48.1 27.53,83.82 0,35.07 -9.89,63.11 -29.65,84.19 -19.84,21.09 -46.42,31.63 -79.72,31.63zm2.56 -200.3c-22.55,0 -40.41,7.68 -53.59,23.06 -13.17,15.37 -19.76,36.53 -19.76,63.62 0,25.99 6.66,46.49 19.98,61.49 13.32,15.01 31.12,22.55 53.37,22.55 22.77,0 40.26,-7.4 52.49,-22.11 12.23,-14.72 18.3,-35.66 18.3,-62.82 0,-27.46 -6.07,-48.61 -18.3,-63.47 -12.23,-14.93 -29.72,-22.32 -52.49,-22.32z"/>
   <path id="_3_2" class="fil1" d="M2881.79 12130.69c0,80.6 -38.58,120.95 -115.81,120.95 -27.16,0 -50.88,-5.12 -71.23,-15.45l0 -35.14c24.74,13.69 48.32,20.57 70.79,20.57 54.03,0 81.04,-28.77 81.04,-86.24l0 -24.01 -0.81 0c-16.76,28.04 -41.94,42.02 -75.54,42.02 -27.31,0 -49.27,-9.74 -65.89,-29.28 -16.69,-19.48 -25.04,-45.69 -25.04,-78.56 0,-37.34 9.01,-66.99 26.94,-89.02 17.94,-22.04 42.54,-33.02 73.65,-33.02 29.65,0 51.54,11.86 65.89,35.58l0.81 0 0 -30.46 35.21 0 0 202.06zm-35.21 -81.7l0 -32.43c0,-17.43 -5.85,-32.36 -17.65,-44.81 -11.78,-12.45 -26.5,-18.67 -44.07,-18.67 -21.75,0 -38.8,7.91 -51.1,23.72 -12.3,15.81 -18.45,37.92 -18.45,66.33 0,24.45 5.93,44 17.72,58.71 11.78,14.65 27.46,21.97 46.85,21.97 19.77,0 35.8,-7.03 48.17,-21.02 12.38,-14.05 18.53,-31.99 18.53,-53.81z"/>
   <polygon id="_4_3" class="fil1" points="2988.17,12148.26 2952.96,12148.26 2952.96,11823.14 2988.17,11823.14 "/>
   <path id="_5_4" class="fil1" d="M3235.84 12047.24l-155.06 0c0.59,24.45 7.18,43.34 19.77,56.66 12.59,13.25 29.87,19.91 51.9,19.91 24.74,0 47.44,-8.13 68.23,-24.46l0 33.02c-19.33,14.05 -44.88,21.01 -76.58,21.01 -31.05,0 -55.43,-9.95 -73.14,-29.87 -17.79,-19.98 -26.65,-48.03 -26.65,-84.19 0,-34.2 9.74,-62.02 29.06,-83.54 19.4,-21.52 43.48,-32.28 72.18,-32.28 28.77,0 50.95,9.3 66.69,27.89 15.74,18.53 23.58,44.37 23.58,77.38l0 18.45zm-36.02 -29.8c-0.15,-20.28 -5.05,-36.09 -14.65,-47.44 -9.66,-11.27 -23.05,-16.91 -40.26,-16.91 -16.54,0 -30.67,5.93 -42.24,17.79 -11.57,11.86 -18.75,27.38 -21.45,46.56l118.6 0z"/>
   <path id="_6" class="fil1" d="M3623.47 12135.37c-22.69,12.01 -51.02,18.01 -84.92,18.01 -43.78,0 -78.77,-14.05 -105.05,-42.24 -26.36,-28.18 -39.53,-65.16 -39.53,-110.91 0,-49.12 14.86,-88.88 44.43,-119.19 29.58,-30.38 67.13,-45.54 112.6,-45.54 29.14,0 53.3,4.24 72.48,12.66l0 38.44c-22.03,-12.3 -46.34,-18.45 -72.91,-18.45 -35.29,0 -63.91,11.79 -85.88,35.36 -21.96,23.58 -32.94,55.12 -32.94,94.59 0,37.49 10.25,67.35 30.75,89.53 20.57,22.26 47.44,33.39 80.83,33.39 30.82,0 57.61,-6.88 80.16,-20.57l0 34.92z"/>
   <path id="_7" class="fil1" d="M3773.19 12153.38c-32.44,0 -58.35,-10.25 -77.75,-30.75 -19.33,-20.5 -29.06,-47.73 -29.06,-81.63 0,-36.9 10.1,-65.67 30.24,-86.47 20.21,-20.71 47.44,-31.04 81.77,-31.04 32.73,0 58.28,10.03 76.66,30.24 18.37,20.14 27.53,48.1 27.53,83.82 0,35.07 -9.89,63.11 -29.65,84.19 -19.84,21.09 -46.42,31.63 -79.72,31.63zm2.56 -200.3c-22.55,0 -40.41,7.68 -53.59,23.06 -13.17,15.37 -19.76,36.53 -19.76,63.62 0,25.99 6.66,46.49 19.98,61.49 13.32,15.01 31.12,22.55 53.37,22.55 22.77,0 40.26,-7.4 52.49,-22.11 12.23,-14.72 18.3,-35.66 18.3,-62.82 0,-27.46 -6.07,-48.61 -18.3,-63.47 -12.23,-14.93 -29.72,-22.32 -52.49,-22.32z"/>
   <path id="_8" class="fil1" d="M4126.27 12148.26l-35.21 0 0 -37.34 -0.81 0c-16.32,28.34 -41.51,42.46 -75.54,42.46 -27.53,0 -49.64,-9.81 -66.11,-29.5 -16.55,-19.62 -24.82,-46.42 -24.82,-80.31 0,-36.31 9.15,-65.38 27.46,-87.27 18.3,-21.89 42.68,-32.8 73.13,-32.8 30.17,0 52.13,11.86 65.89,35.58l0.81 0 0 -135.95 35.21 0 0 325.12zm-35.21 -99.27l0 -32.43c0,-17.72 -5.85,-32.73 -17.57,-45.03 -11.71,-12.3 -26.57,-18.45 -44.58,-18.45 -21.44,0 -38.36,7.84 -50.66,23.57 -12.3,15.74 -18.45,37.49 -18.45,65.24 0,25.33 5.93,45.24 17.72,59.95 11.78,14.65 27.67,21.97 47.51,21.97 19.62,0 35.5,-7.11 47.73,-21.23 12.23,-14.13 18.3,-32.07 18.3,-53.59z"/>
   <path id="_9" class="fil1" d="M4373.95 12047.24l-155.06 0c0.59,24.45 7.18,43.34 19.77,56.66 12.59,13.25 29.87,19.91 51.9,19.91 24.74,0 47.44,-8.13 68.23,-24.46l0 33.02c-19.33,14.05 -44.88,21.01 -76.58,21.01 -31.05,0 -55.43,-9.95 -73.14,-29.87 -17.79,-19.98 -26.65,-48.03 -26.65,-84.19 0,-34.2 9.74,-62.02 29.06,-83.54 19.4,-21.52 43.48,-32.28 72.18,-32.28 28.77,0 50.95,9.3 66.69,27.89 15.74,18.53 23.58,44.37 23.58,77.38l0 18.45zm-36.02 -29.8c-0.15,-20.28 -5.05,-36.09 -14.65,-47.44 -9.66,-11.27 -23.05,-16.91 -40.26,-16.91 -16.54,0 -30.67,5.93 -42.24,17.79 -11.57,11.86 -18.75,27.38 -21.45,46.56l118.6 0z"/>
  </g>
  <g id="_1271800652720">
   <g style="clip-path:url(#id0)">
    <image x="7539.15" y="6837.93" width="4067.03" height="4611.13" xlink:href="CollabTools_Images\CollabTools_ImgID1.png"/>
   </g>
   <path class="fil1" d="M8392.06 12109.83c-30.82,17.42 -65.16,26.13 -102.93,26.13 -43.86,0 -79.36,-14.12 -106.45,-42.46 -27.16,-28.26 -40.7,-65.74 -40.7,-112.37 0,-47.59 15.07,-86.69 45.16,-117.21 30.1,-30.53 68.23,-45.83 114.43,-45.83 33.46,0 61.57,5.49 84.27,16.33l0 39.9c-24.82,-15.74 -54.32,-23.58 -88.37,-23.58 -34.4,0 -62.67,11.86 -84.7,35.58 -22.04,23.72 -33.02,54.47 -33.02,92.24 0,38.87 10.25,69.48 30.67,91.66 20.43,22.26 48.17,33.39 83.24,33.39 24.01,0 44.81,-4.83 62.38,-14.35l0 -86.24 -67.35 0 0 -32.58 103.36 0 0 139.39z"/>
   <path id="_1_5" class="fil1" d="M8711.48 12130.84l-44.22 0 -158.28 -245.17c-4.02,-6.15 -7.32,-12.59 -9.88,-19.26l-1.25 0c1.1,6.59 1.68,20.64 1.68,42.24l0 222.19 -36.01 0 0 -307.56 46.77 0 153.96 241.3c6.45,9.96 10.62,16.84 12.45,20.58l0.87 0c-1.46,-8.86 -2.19,-23.94 -2.19,-45.25l0 -216.63 36.09 0 0 307.56z"/>
   <path id="_2_6" class="fil1" d="M9017.05 12006.46c0,86.31 -38.95,129.5 -116.92,129.5 -74.6,0 -111.94,-41.51 -111.94,-124.6l0 -188.08 36.02 0 0 185.74c0,63.03 26.65,94.59 79.8,94.59 51.32,0 77.01,-30.45 77.01,-91.37l0 -188.96 36.02 0 0 183.18z"/>
   <path id="_3_7" class="fil1" d="M9199.78 12118.4l0 -42.47c4.9,4.32 10.76,8.13 17.49,11.57 6.81,3.44 13.98,6.37 21.45,8.72 7.54,2.34 15.08,4.17 22.63,5.49 7.61,1.25 14.64,1.9 21.01,1.9 22.18,0 38.73,-4.1 49.71,-12.37 10.91,-8.2 16.4,-20.06 16.4,-35.43 0,-8.35 -1.83,-15.52 -5.49,-21.67 -3.66,-6.15 -8.72,-11.78 -15.08,-16.84 -6.44,-5.12 -14.05,-9.96 -22.84,-14.64 -8.86,-4.62 -18.3,-9.52 -28.48,-14.65 -10.69,-5.42 -20.72,-10.97 -30.02,-16.54 -9.3,-5.57 -17.35,-11.71 -24.24,-18.45 -6.88,-6.74 -12.22,-14.35 -16.18,-22.85 -3.95,-8.48 -5.93,-18.45 -5.93,-29.87 0,-14.05 3.08,-26.21 9.23,-36.61 6.15,-10.4 14.27,-18.88 24.23,-25.62 10.03,-6.73 21.45,-11.71 34.26,-15 12.74,-3.3 25.85,-4.98 39.1,-4.98 30.31,0 52.42,3.66 66.33,10.98l0 40.56c-18.16,-12.59 -41.51,-18.89 -69.91,-18.89 -7.91,0 -15.74,0.81 -23.65,2.42 -7.84,1.68 -14.86,4.39 -21.01,8.05 -6.15,3.74 -11.13,8.56 -15.01,14.43 -3.88,5.86 -5.78,12.96 -5.78,21.45 0,7.84 1.46,14.64 4.39,20.35 2.93,5.71 7.25,10.91 12.96,15.67 5.71,4.69 12.74,9.29 20.94,13.69 8.2,4.46 17.72,9.29 28.41,14.57 11.05,5.49 21.45,11.2 31.33,17.2 9.88,6 18.52,12.67 25.92,19.91 7.46,7.33 13.32,15.38 17.72,24.24 4.39,8.86 6.51,19.03 6.51,30.45 0,15.15 -2.93,28.04 -8.86,38.51 -5.92,10.54 -13.98,19.11 -24.01,25.62 -10.1,6.59 -21.74,11.35 -34.85,14.27 -13.17,2.93 -27.01,4.39 -41.66,4.39 -4.83,0 -10.83,-0.36 -18,-1.17 -7.11,-0.81 -14.43,-1.91 -21.9,-3.44 -7.39,-1.47 -14.42,-3.37 -21.08,-5.57 -6.66,-2.2 -12.01,-4.69 -16.04,-7.39z"/>
   <path id="_4_8" class="fil1" d="M9600.09 12130.84l-35.22 0 0 -34.34 -0.8 0c-15.31,26.36 -37.85,39.46 -67.57,39.46 -21.89,0 -39.02,-5.78 -51.39,-17.35 -12.37,-11.56 -18.53,-26.94 -18.53,-46.12 0,-40.99 24.16,-64.93 72.48,-71.59l65.81 -9.22c0,-37.34 -15.07,-56 -45.24,-56 -26.42,0 -50.29,9 -71.59,27.01l0 -36.02c21.59,-13.76 46.42,-20.57 74.6,-20.57 51.61,0 77.46,27.31 77.46,81.92l0 142.83zm-35.22 -111.13l-52.93 7.32c-16.33,2.27 -28.62,6.3 -36.9,12.15 -8.27,5.78 -12.44,16.04 -12.44,30.75 0,10.69 3.81,19.48 11.49,26.29 7.61,6.8 17.8,10.17 30.53,10.17 17.42,0 31.85,-6.15 43.19,-18.3 11.43,-12.23 17.06,-27.75 17.06,-46.49l0 -21.89z"/>
   <path id="_5_9" class="fil1" d="M9839.05 11911.21l-87.56 219.63 -34.48 0 -83.25 -219.63 38.58 0 55.79 159.6c4.17,11.71 6.73,21.89 7.76,30.67l0.81 0c1.47,-11.05 3.74,-21.01 6.88,-29.87l58.34 -160.41 37.12 0z"/>
   <path id="_6_10" class="fil1" d="M10034 12130.84l-35.22 0 0 -34.34 -0.8 0c-15.31,26.36 -37.85,39.46 -67.57,39.46 -21.89,0 -39.02,-5.78 -51.39,-17.35 -12.37,-11.56 -18.53,-26.94 -18.53,-46.12 0,-40.99 24.16,-64.93 72.48,-71.59l65.81 -9.22c0,-37.34 -15.07,-56 -45.24,-56 -26.42,0 -50.29,9 -71.59,27.01l0 -36.02c21.59,-13.76 46.42,-20.57 74.6,-20.57 51.61,0 77.46,27.31 77.46,81.92l0 142.83zm-35.22 -111.13l-52.93 7.32c-16.33,2.27 -28.62,6.3 -36.9,12.15 -8.27,5.78 -12.44,16.04 -12.44,30.75 0,10.69 3.81,19.48 11.49,26.29 7.61,6.8 17.8,10.17 30.53,10.17 17.42,0 31.85,-6.15 43.19,-18.3 11.43,-12.23 17.06,-27.75 17.06,-46.49l0 -21.89z"/>
   <path id="_7_11" class="fil1" d="M10282.62 12130.84l-35.21 0 0 -125.26c0,-46.64 -16.99,-69.91 -51.03,-69.91 -17.57,0 -32.13,6.59 -43.63,19.84 -11.56,13.24 -17.27,29.94 -17.27,50.07l0 125.26 -35.21 0 0 -219.63 35.21 0 0 36.46 0.88 0c16.54,-27.75 40.56,-41.59 72.03,-41.59 24.01,0 42.39,7.76 55.13,23.28 12.74,15.45 19.1,37.92 19.1,67.2l0 134.27z"/>
   <path id="_8_12" class="fil1" d="M10531.23 12130.84l-35.21 0 0 -125.26c0,-46.64 -16.99,-69.91 -51.03,-69.91 -17.57,0 -32.13,6.59 -43.63,19.84 -11.56,13.24 -17.27,29.94 -17.27,50.07l0 125.26 -35.21 0 0 -219.63 35.21 0 0 36.46 0.88 0c16.54,-27.75 40.56,-41.59 72.03,-41.59 24.01,0 42.39,7.76 55.13,23.28 12.74,15.45 19.1,37.92 19.1,67.2l0 134.27z"/>
   <path id="_9_13" class="fil1" d="M10754.74 12130.84l-35.22 0 0 -34.34 -0.8 0c-15.31,26.36 -37.85,39.46 -67.57,39.46 -21.89,0 -39.02,-5.78 -51.39,-17.35 -12.37,-11.56 -18.53,-26.94 -18.53,-46.12 0,-40.99 24.16,-64.93 72.48,-71.59l65.81 -9.22c0,-37.34 -15.07,-56 -45.24,-56 -26.42,0 -50.29,9 -71.59,27.01l0 -36.02c21.59,-13.76 46.42,-20.57 74.6,-20.57 51.61,0 77.46,27.31 77.46,81.92l0 142.83zm-35.22 -111.13l-52.93 7.32c-16.33,2.27 -28.62,6.3 -36.9,12.15 -8.27,5.78 -12.44,16.04 -12.44,30.75 0,10.69 3.81,19.48 11.49,26.29 7.61,6.8 17.8,10.17 30.53,10.17 17.42,0 31.85,-6.15 43.19,-18.3 11.43,-12.23 17.06,-27.75 17.06,-46.49l0 -21.89z"/>
   <path id="_10" class="fil1" d="M11003.36 12130.84l-35.21 0 0 -126.58c0,-45.76 -16.99,-68.6 -51.03,-68.6 -17.13,0 -31.63,6.59 -43.34,19.84 -11.71,13.24 -17.57,30.23 -17.57,50.95l0 124.38 -35.21 0 0 -325.12 35.21 0 0 141.95 0.88 0c16.84,-27.75 40.85,-41.59 72.03,-41.59 49.49,0 74.24,29.8 74.24,89.39l0 135.36z"/>
  </g>
  <g id="_1271800654736">
   <g style="clip-path:url(#id1)">
    <image x="6782.19" y="0.01" width="5464.13" height="5464.13" xlink:href="CollabTools_Images\CollabTools_ImgID2.png"/>
   </g>
   <path class="fil1" d="M9212.38 5707.08c-30.82,17.42 -65.16,26.13 -102.93,26.13 -43.86,0 -79.36,-14.12 -106.45,-42.46 -27.16,-28.26 -40.7,-65.74 -40.7,-112.37 0,-47.59 15.07,-86.69 45.16,-117.21 30.1,-30.53 68.23,-45.83 114.43,-45.83 33.46,0 61.57,5.49 84.27,16.33l0 39.9c-24.82,-15.74 -54.32,-23.58 -88.37,-23.58 -34.4,0 -62.67,11.86 -84.7,35.58 -22.04,23.72 -33.02,54.47 -33.02,92.24 0,38.87 10.25,69.48 30.67,91.66 20.43,22.26 48.17,33.39 83.24,33.39 24.01,0 44.81,-4.83 62.38,-14.35l0 -86.24 -67.35 0 0 -32.58 103.36 0 0 139.39z"/>
   <path id="_1_14" class="fil1" d="M9297.08 5452.67c-6.22,0 -11.63,-2.13 -16.03,-6.44 -4.46,-4.25 -6.66,-9.67 -6.66,-16.26 0,-6.59 2.2,-12.08 6.66,-16.4 4.39,-4.38 9.81,-6.58 16.03,-6.58 6.45,0 11.94,2.2 16.48,6.58 4.46,4.32 6.73,9.81 6.73,16.4 0,6.3 -2.27,11.64 -6.73,16.04 -4.54,4.46 -10.03,6.66 -16.48,6.66zm17.21 275.41l-35.21 0 0 -219.63 35.21 0 0 219.63z"/>
   <path id="_2_15" class="fil1" d="M9487.35 5725.96c-8.27,4.54 -19.26,6.81 -32.8,6.81 -38.51,0 -57.68,-21.45 -57.68,-64.36l0 -129.95 -37.78 0 0 -30.02 37.78 0 0 -53.58 35.14 -11.42 0 65 55.35 0 0 30.02 -55.35 0 0 123.8c0,14.71 2.49,25.19 7.54,31.48 4.97,6.3 13.24,9.45 24.88,9.45 8.86,0 16.47,-2.41 22.92,-7.32l0 30.09z"/>
   <polygon id="_3_16" class="fil1" points="9569.5,5728.08 9534.29,5728.08 9534.29,5402.96 9569.5,5402.96 "/>
   <path id="_4_17" class="fil1" d="M9797.91 5728.08l-35.22 0 0 -34.34 -0.8 0c-15.31,26.36 -37.85,39.46 -67.57,39.46 -21.89,0 -39.02,-5.78 -51.39,-17.35 -12.37,-11.56 -18.53,-26.94 -18.53,-46.12 0,-40.99 24.16,-64.93 72.48,-71.59l65.81 -9.22c0,-37.34 -15.07,-56 -45.24,-56 -26.42,0 -50.29,9 -71.59,27.01l0 -36.02c21.59,-13.76 46.42,-20.57 74.6,-20.57 51.61,0 77.46,27.31 77.46,81.92l0 142.83zm-35.22 -111.13l-52.93 7.32c-16.33,2.27 -28.62,6.3 -36.9,12.15 -8.27,5.78 -12.44,16.04 -12.44,30.75 0,10.69 3.81,19.48 11.49,26.29 7.61,6.8 17.8,10.17 30.53,10.17 17.42,0 31.85,-6.15 43.19,-18.3 11.43,-12.23 17.06,-27.75 17.06,-46.49l0 -21.89z"/>
   <path id="_5_18" class="fil1" d="M9900.26 5696.31l-0.88 0 0 31.77 -35.21 0 0 -325.12 35.21 0 0 144.08 0.88 0c17.27,-29.14 42.6,-43.71 75.92,-43.71 28.11,0 50.22,9.81 66.11,29.51 15.96,19.62 23.93,45.97 23.93,78.99 0,36.76 -8.93,66.19 -26.79,88.3 -17.87,22.03 -42.32,33.08 -73.36,33.08 -29.06,0 -50.95,-12.3 -65.81,-36.89zm-0.88 -88.59l0 30.67c0,18.16 5.85,33.61 17.72,46.27 11.78,12.66 26.72,18.96 44.88,18.96 21.3,0 37.99,-8.13 50.07,-24.46 12.08,-16.32 18.16,-38.95 18.16,-68.01 0,-24.45 -5.64,-43.55 -16.99,-57.46 -11.28,-13.84 -26.57,-20.79 -45.83,-20.79 -20.5,0 -36.9,7.1 -49.34,21.3 -12.44,14.27 -18.67,32.07 -18.67,53.51z"/>
  </g>
 </g>
</svg>
