<?xml version="1.0" encoding="UTF-8"?>
<!DOCTYPE svg PUBLIC "-//W3C//DTD SVG 1.1//EN" "http://www.w3.org/Graphics/SVG/1.1/DTD/svg11.dtd">
<!-- Creator: CorelDRAW -->
<svg xmlns="http://www.w3.org/2000/svg" xml:space="preserve" width="1062px" height="278px" version="1.1" style="shape-rendering:geometricPrecision; text-rendering:geometricPrecision; image-rendering:optimizeQuality; fill-rule:evenodd; clip-rule:evenodd"
viewBox="0 0 814.313 213.504"
 xmlns:xlink="http://www.w3.org/1999/xlink"
 xmlns:xodm="http://www.corel.com/coreldraw/odm/2003">
 <defs>
  <style type="text/css">
   <![CDATA[
    .fil0 {fill:black;fill-rule:nonzero}
   ]]>
  </style>
 </defs>
 <g id="Layer_x0020_1">
  <metadata id="CorelCorpID_0Corel-Layer"/>
  <g id="Python.svg">
   <g id="Layer_4">
    <g>
     <path id="path46" class="fil0" d="M330.854 108.423c0,-26.911 -7.674,-40.729 -23.019,-41.485 -6.108,-0.287 -12.074,0.684 -17.873,2.936 -4.629,1.659 -7.746,3.298 -9.385,4.955l0 64.239c9.818,6.159 18.536,9.027 26.139,8.574 16.086,-1.065 24.138,-14.125 24.138,-39.219zm18.934 1.117c0,13.675 -3.207,25.023 -9.655,34.048 -7.188,10.217 -17.149,15.475 -29.886,15.763 -9.601,0.305 -19.49,-2.701 -29.668,-9.012l0 58.387 -16.466 -5.873 0 -129.593c2.702,-3.313 6.18,-6.159 10.395,-8.573 9.8,-5.71 21.707,-8.646 35.72,-8.79l0.234 0.233c12.809,-0.161 22.68,5.096 29.615,15.763 6.469,9.78 9.711,22.317 9.711,37.647z"/>
     <path id="path48" class="fil0" d="M450.413 147.86c0,18.336 -1.834,31.036 -5.51,38.101 -3.694,7.058 -10.719,12.696 -21.097,16.893 -8.413,3.314 -17.507,5.118 -27.271,5.421l-2.719 -10.372c9.927,-1.351 16.911,-2.702 20.966,-4.057 7.982,-2.698 13.459,-6.842 16.464,-12.394 2.419,-4.518 3.607,-13.149 3.607,-25.919l0 -4.291c-11.262,5.117 -23.058,7.657 -35.399,7.657 -8.107,0 -15.258,-2.54 -21.42,-7.657 -6.915,-5.566 -10.373,-12.628 -10.373,-21.182l0 -68.526 16.464 -5.638 0 68.974c0,7.367 2.377,13.04 7.132,17.021 4.758,3.981 10.919,5.894 18.466,5.749 7.547,-0.166 15.637,-3.08 24.23,-8.794l0 -80.466 16.465 0 0 89.48 -0.005 0z"/>
     <path id="path50" class="fil0" d="M514.687 158.45c-1.965,0.163 -3.766,0.232 -5.425,0.232 -9.311,0 -16.572,-2.212 -21.761,-6.662 -5.167,-4.45 -7.76,-10.594 -7.76,-18.429l0 -64.852 -11.278 0 0 -10.358 11.278 0 0 -27.507 16.445 -5.855 0 33.362 18.501 0 0 10.358 -18.501 0 0 64.398c0,6.181 1.657,10.556 4.97,13.118 2.845,2.106 7.367,3.311 13.531,3.62l0 8.575z"/>
     <path id="path52" class="fil0" d="M614.376 157.099l-16.464 0 0 -63.555c0,-6.466 -1.516,-12.032 -4.522,-16.679 -3.476,-5.262 -8.306,-7.891 -14.5,-7.891 -7.549,0 -16.988,3.981 -28.322,11.942l0 76.183 -16.463 0 0 -151.911 16.464 -5.188 0 69.192c10.522,-7.657 22.017,-11.492 34.496,-11.492 8.722,0 15.784,2.936 21.188,8.79 5.425,5.854 8.123,13.15 8.123,21.869l0 68.74 0 0z"/>
     <path id="path54" class="fil0" d="M701.888 105.83c0,-10.34 -1.964,-18.878 -5.873,-25.633 -4.646,-8.231 -11.871,-12.575 -21.638,-13.024 -18.048,1.046 -27.055,13.978 -27.055,38.764 0,11.367 1.876,20.864 5.658,28.483 4.826,9.71 12.067,14.501 21.725,14.339 18.124,-0.145 27.183,-14.449 27.183,-42.929zm18.032 0.106c0,14.722 -3.765,26.97 -11.278,36.749 -8.269,10.955 -19.686,16.448 -34.265,16.448 -14.444,0 -25.703,-5.493 -33.825,-16.448 -7.37,-9.779 -11.046,-22.027 -11.046,-36.749 0,-13.833 3.981,-25.47 11.945,-34.946 8.414,-10.052 19.472,-15.094 33.145,-15.094 13.673,0 24.804,5.042 33.38,15.094 7.963,9.477 11.944,21.115 11.944,34.946z"/>
     <path id="path56" class="fil0" d="M814.313 157.099l-16.464 0 0 -67.156c0,-7.369 -2.219,-13.114 -6.649,-17.259 -4.431,-4.126 -10.339,-6.124 -17.705,-5.963 -7.821,0.144 -15.259,2.704 -22.324,7.656l0 82.721 -16.465 -0.001 0 -84.757c9.478,-6.899 18.2,-11.402 26.156,-13.509 7.513,-1.964 14.142,-2.936 19.852,-2.936 3.909,0 7.586,0.377 11.043,1.135 6.469,1.495 11.727,4.267 15.78,8.339 4.522,4.502 6.774,9.907 6.774,16.231l0.001 75.499 0.001 0z"/>
     <path id="path1948" class="fil0" d="M101.496 5.794c-8.471,0.04 -16.562,0.762 -23.681,2.021 -20.968,3.705 -24.775,11.459 -24.775,25.759l0 18.886 49.555 0 0 6.295 -49.555 0 -18.596 0c-14.402,0 -27.012,8.656 -30.955,25.123 -4.55,18.875 -4.753,30.656 0,50.363 3.523,14.67 11.933,25.124 26.336,25.124l17.037 0 0 -22.642c0,-16.354 14.151,-30.784 30.955,-30.784l49.495 0c13.779,0 24.777,-11.343 24.777,-25.181l-0.001 -47.184c0,-13.427 -11.329,-23.518 -24.776,-25.759 -8.512,-1.417 -17.346,-2.06 -25.816,-2.021zm-26.798 15.189c5.119,0 9.298,4.248 9.298,9.472 0,5.205 -4.181,9.415 -9.298,9.415 -5.138,0 -9.299,-4.21 -9.299,-9.415 0,-5.224 4.161,-9.472 9.299,-9.472z"/>
     <path id="path1950" class="fil0" d="M158.267 58.755l0 22.002c0,17.062 -14.462,31.418 -30.955,31.418l-49.495 0.001c-13.558,0 -24.777,11.605 -24.777,25.182l0 47.187c0,13.427 11.677,21.329 24.777,25.179 15.686,4.613 30.726,5.448 49.495,0 12.475,-3.611 24.777,-10.882 24.777,-25.179l0 -18.887 -49.496 -0.001 0 -6.293 49.494 0.001 24.775 0c14.403,0 19.771,-10.045 24.778,-25.124 5.173,-15.524 4.955,-30.452 0,-50.363 -3.56,-14.336 -10.356,-25.123 -24.778,-25.123l-18.595 0zm-27.836 119.494c5.136,0 9.299,4.206 9.299,9.412 0,5.224 -4.162,9.474 -9.299,9.474 -5.119,0 -9.298,-4.25 -9.298,-9.474 0,-5.206 4.181,-9.412 9.298,-9.412z"/>
    </g>
   </g>
  </g>
 </g>
</svg>
