<?xml version="1.0" encoding="UTF-8"?>
<!DOCTYPE svg PUBLIC "-//W3C//DTD SVG 1.1//EN" "http://www.w3.org/Graphics/SVG/1.1/DTD/svg11.dtd">
<!-- Creator: CorelDRAW -->
<svg xmlns="http://www.w3.org/2000/svg" xml:space="preserve" width="1074px" height="293px" version="1.1" style="shape-rendering:geometricPrecision; text-rendering:geometricPrecision; image-rendering:optimizeQuality; fill-rule:evenodd; clip-rule:evenodd"
viewBox="0 0 825.683 224.967"
 xmlns:xlink="http://www.w3.org/1999/xlink"
 xmlns:xodm="http://www.corel.com/coreldraw/odm/2003">
 <defs>
  <style type="text/css">
   <![CDATA[
    .fil0 {fill:white}
    .fil1 {fill:black;fill-rule:nonzero}
   ]]>
  </style>
 </defs>
 <g id="Layer_x0020_1">
  <metadata id="CorelCorpID_0Corel-Layer"/>
  <g id="_2505006487600">
   <path class="fil0" d="M53.148 170.694l-18.664 0c-17.45,0 -27.098,-12.967 -30.891,-28.724 -4.802,-19.947 -4.777,-32.778 -0.001,-52.655 4.157,-17.3 17.664,-28.726 35.523,-28.726l14.033 0 0 -20.635c0,-7.128 0.846,-14.271 5.64,-19.891 5.549,-6.506 14.922,-9.05 23.011,-10.479 8.055,-1.424 16.351,-2.058 24.526,-2.097 8.894,-0.042 17.887,0.627 26.664,2.089 15.199,2.531 28.698,14.189 28.698,30.378l0 20.635 20.227 0c17.521,0 25.509,13.359 29.321,28.691 4.558,18.329 5.92,34.971 -0.099,53.067 -4.977,14.959 -11.298,28.347 -29.222,28.347l-20.226 0 0 20.635c0,16.693 -13.732,25.491 -28.171,29.677 -18.173,5.269 -34.193,5.293 -52.214,-0.005 -14.113,-4.149 -28.155,-13.29 -28.155,-29.672l0 -20.635zm709.225 -87.353l0 85.08 -25.734 0 0 -91.945 1.898 -1.382c8.27,-6.02 17.803,-11.654 27.766,-14.276 6.805,-1.791 14.023,-3.096 21.079,-3.096 4.059,0 8.131,0.352 12.094,1.252 6.851,1.555 13.067,4.602 18.063,9.598 5.367,5.366 8.143,11.941 8.143,19.536l0.001 80.314 -25.733 0 0 -71.948c0,-5.265 -1.258,-10.253 -5.202,-13.934 -3.979,-3.715 -9.191,-4.845 -14.512,-4.738 -6.511,0.13 -12.433,2.145 -17.863,5.539zm-31.334 29.168c0,14.371 -3.448,28.077 -12.25,39.642 -9.479,12.452 -22.441,18.311 -38.028,18.311 -15.493,0 -28.303,-5.885 -37.611,-18.344 -8.656,-11.584 -11.994,-25.306 -11.994,-39.609 0,-14.138 3.925,-27.116 13.056,-38.003 9.513,-11.342 22.004,-16.784 36.768,-16.784 14.806,0 27.39,5.432 36.989,16.767 9.19,10.851 13.07,23.89 13.07,38.02zm-169.806 -22.662l0 78.575 -25.733 0 0 -160.314 25.734 -8.108 0 67.263c9.176,-5.063 19.174,-7.732 29.976,-7.732 9.609,0 18.071,3.203 24.631,10.294 6.474,6.999 9.371,15.567 9.371,25.06l0 73.537 -25.734 0 0 -68.337c0,-5.019 -1.004,-9.953 -3.781,-14.199 -2.576,-3.939 -5.969,-5.825 -10.679,-5.825 -7.759,0 -17.086,5.271 -23.785,9.786zm-80.242 -10.021l-11.308 0 0 -19.612 11.308 0 0 -26.221 25.715 -9.156 0 35.377 18.55 0 0 19.612 -18.551 0 0 59.957c0,3.174 0.474,7.402 3.154,9.475 2.678,1.981 7.76,2.537 11.015,2.702l4.382 0.219 0 17.232 -4.232 0.351c-1.935,0.16 -3.877,0.248 -5.82,0.248 -8.88,0 -17.926,-1.865 -24.826,-7.794 -6.617,-5.686 -9.387,-13.395 -9.387,-21.977l0 -60.413zm-45.023 84.985c-9.895,3.61 -20.205,5.416 -30.866,5.416 -9.146,0 -17.32,-2.937 -24.396,-8.718 -7.818,-6.387 -12.095,-14.669 -12.095,-24.811l0 -72.006 25.734 -8.813 0 75.615c0,5.27 1.363,10.067 5.499,13.53 4.361,3.65 9.882,4.804 15.46,4.689 6.998,-0.144 13.832,-3.067 19.777,-6.728l0 -82.771 25.734 -0.001 -0.002 94.332c-0.001,11.66 -0.556,29.808 -6.051,40.338 -4.881,9.353 -13.979,15.27 -23.531,19.088 -9.231,3.69 -18.998,5.454 -28.913,5.762l-3.673 0.114 -4.979 -18.993 5.161 -0.702c4.163,-0.567 8.341,-1.191 12.467,-1.988 2.544,-0.491 5.247,-1.053 7.705,-1.881 5.541,-1.866 11.054,-4.925 13.918,-10.243 2.497,-4.635 2.971,-14.781 3.051,-21.229zm-145.446 0.021l0 57.285 -25.736 -9.179 0 -134.834 1.038 -1.273c3.231,-3.963 7.276,-7.117 11.684,-9.672 11.594,-6.721 24.795,-9.299 38.082,-9.436l1.939 -0.019 0.269 0.269c13.436,0.379 24.116,6.416 31.627,17.873 7.834,11.95 10.491,26.181 10.491,40.277 0,13.134 -2.842,25.957 -10.53,36.806 -8.161,11.516 -19.523,17.376 -33.607,17.75 -8.868,0.236 -17.382,-2.051 -25.257,-5.847zm-155.163 24.797c-2.641,0 -4.71,2.211 -4.71,4.824 0,2.614 2.052,4.886 4.71,4.886 2.668,0 4.711,-2.264 4.711,-4.886 0,-2.623 -2.06,-4.824 -4.711,-4.824zm-55.882 -157.686c-2.668,0 -4.711,2.26 -4.711,4.883 0,2.623 2.058,4.828 4.711,4.828 2.641,0 4.71,-2.215 4.71,-4.828 0,-2.613 -2.053,-4.883 -4.71,-4.883zm601.311 46.32c-18.925,1.234 -22.541,17.906 -22.541,34.248 0,8.903 1.186,18.445 5.191,26.506 3.695,7.44 9.039,11.912 17.6,11.817 7.162,-0.079 12.723,-2.634 16.598,-8.745 5.123,-8.083 6.096,-20.373 6.096,-29.686 0,-8.001 -1.264,-16.377 -5.282,-23.414 -3.959,-6.936 -9.752,-10.302 -17.662,-10.726zm-390.268 5.28l0 59.591c6.322,3.706 14.059,7.054 21.301,6.59 6.349,-0.407 11.162,-2.976 14.516,-8.428 4.471,-7.266 5.368,-17.971 5.368,-26.293 0,-8.827 -0.815,-20.512 -5.19,-28.397 -3.008,-5.421 -7.282,-8.289 -13.501,-8.591 -5.522,-0.269 -10.872,0.634 -16.027,2.636l-0.114 0.043c-1.604,0.574 -4.444,1.652 -6.353,2.849z"/>
  </g>
  <path id="path46" class="fil1" d="M336.318 115.003c0,-26.983 -7.694,-40.838 -23.08,-41.596 -6.124,-0.288 -12.106,0.686 -17.921,2.945 -4.641,1.662 -7.766,3.306 -9.41,4.967l0 64.411c9.844,6.176 18.585,9.051 26.209,8.597 16.129,-1.068 24.202,-14.162 24.202,-39.324zm-173.049 -49.801l0 22.062c0,17.107 -14.5,31.501 -31.037,31.501l-49.628 0.001c-13.594,0 -24.843,11.636 -24.843,25.25l0 47.313c0,13.463 11.708,21.386 24.843,25.247 15.728,4.625 30.809,5.462 49.628,0 12.508,-3.621 24.843,-10.911 24.843,-25.247l0 -18.938 -49.629 0 0 -6.31 49.627 0 24.841 0c14.442,0 19.824,-10.071 24.845,-25.19 5.187,-15.567 4.967,-30.535 0,-50.498 -3.569,-14.374 -10.384,-25.191 -24.845,-25.191l-18.645 0zm-27.91 119.814c5.15,0 9.324,4.217 9.324,9.437 0,5.238 -4.173,9.499 -9.324,9.499 -5.132,0 -9.323,-4.261 -9.323,-9.499 0,-5.219 4.192,-9.437 9.323,-9.437zm-29.013 -172.916c-8.493,0.04 -16.605,0.764 -23.744,2.026 -21.024,3.715 -24.841,11.49 -24.841,25.828l0 18.936 49.687 0.001 0 6.312 -49.687 -0.001 -18.646 0c-14.44,0 -27.084,8.679 -31.038,25.191 -4.562,18.925 -4.765,30.737 0,50.498 3.533,14.709 11.965,25.19 26.407,25.19l17.083 0 0 -22.703c0,-16.397 14.188,-30.866 31.037,-30.866l49.628 0c13.815,0 24.843,-11.373 24.843,-25.248l-0.001 -47.31c0,-13.463 -11.359,-23.581 -24.843,-25.828 -8.534,-1.421 -17.391,-2.066 -25.885,-2.026zm-26.869 15.23c5.132,0 9.323,4.259 9.323,9.496 0,5.219 -4.192,9.44 -9.323,9.44 -5.152,0 -9.324,-4.221 -9.324,-9.44 0,-5.237 4.172,-9.496 9.324,-9.496zm741.594 136.48l-16.508 0 0 -67.336c0,-7.389 -2.225,-13.149 -6.667,-17.306 -4.442,-4.136 -10.366,-6.14 -17.752,-5.978 -7.842,0.144 -15.3,2.71 -22.384,7.676l0 82.942 -16.508 0 0 -84.984c9.502,-6.918 18.247,-11.433 26.225,-13.545 7.533,-1.97 14.18,-2.944 19.905,-2.944 3.92,0 7.606,0.377 11.073,1.137 6.486,1.5 11.758,4.279 15.822,8.362 4.534,4.515 6.792,9.934 6.792,16.274l0.001 75.702 0.001 0zm-112.726 -51.407c0,-10.367 -1.969,-18.928 -5.889,-25.701 -4.658,-8.253 -11.902,-12.609 -21.695,-13.059 -18.097,1.049 -27.127,14.015 -27.127,38.868 0,11.397 1.88,20.919 5.672,28.559 4.84,9.736 12.1,14.539 21.783,14.377 18.173,-0.145 27.256,-14.487 27.256,-43.044zm18.081 0.106c0,14.762 -3.776,27.042 -11.308,36.848 -8.292,10.984 -19.739,16.492 -34.357,16.492 -14.483,0 -25.772,-5.508 -33.916,-16.492 -7.39,-9.806 -11.076,-22.086 -11.076,-36.848 0,-13.869 3.992,-25.538 11.978,-35.039 8.436,-10.079 19.524,-15.135 33.233,-15.135 13.71,0 24.871,5.056 33.469,15.135 7.985,9.502 11.977,21.171 11.977,35.039zm-105.827 51.301l-16.508 0 0 -63.725c0,-6.483 -1.52,-12.065 -4.534,-16.725 -3.485,-5.275 -8.328,-7.912 -14.539,-7.912 -7.569,0 -17.033,3.992 -28.398,11.975l0 76.387 -16.507 0 0 -152.318 16.508 -5.202 0 69.377c10.55,-7.677 22.076,-11.523 34.589,-11.523 8.745,0 15.825,2.945 21.245,8.814 5.439,5.869 8.144,13.186 8.144,21.927l0 68.925zm-99.956 1.355c-1.97,0.163 -3.776,0.232 -5.439,0.232 -9.336,0 -16.616,-2.218 -21.82,-6.68 -5.181,-4.462 -7.78,-10.623 -7.78,-18.478l0 -65.026 -11.308 0 0 -10.386 11.308 0 0 -27.58 16.489 -5.871 0 33.451 18.55 0 0 10.386 -18.551 0 0 64.57c0,6.198 1.662,10.584 4.984,13.154 2.853,2.111 7.387,3.319 13.567,3.629l0 8.599zm-64.446 -10.62c0,18.386 -1.839,31.12 -5.525,38.203 -3.703,7.078 -10.747,12.731 -21.153,16.939 -8.436,3.322 -17.554,5.132 -27.344,5.435l-2.726 -10.399c9.953,-1.355 16.956,-2.709 21.022,-4.068 8.004,-2.706 13.495,-6.861 16.508,-12.427 2.425,-4.53 3.617,-13.184 3.617,-25.988l0 -4.303c-11.292,5.131 -23.12,7.677 -35.494,7.677 -8.129,0 -15.299,-2.547 -21.478,-7.677 -6.933,-5.581 -10.4,-12.662 -10.4,-21.239l0 -68.71 16.508 -5.653 0 69.159c0,7.387 2.384,13.075 7.151,17.067 4.771,3.992 10.948,5.909 18.516,5.764 7.567,-0.166 15.678,-3.088 24.295,-8.817l0 -80.681 16.508 -0.001 0 89.719 -0.005 0zm-100.894 -38.422c0,13.711 -3.215,25.09 -9.681,34.139 -7.207,10.244 -17.195,15.516 -29.966,15.806 -9.627,0.306 -19.542,-2.709 -29.747,-9.037l0 58.543 -16.51 -5.889 0 -129.939c2.709,-3.322 6.196,-6.175 10.422,-8.596 9.827,-5.725 21.766,-8.669 35.817,-8.814l0.233 0.234c12.845,-0.161 22.741,5.11 29.696,15.805 6.485,9.807 9.736,22.378 9.736,37.748z"/>
 </g>
</svg>
