<?xml version="1.0" encoding="UTF-8"?>
<!DOCTYPE svg PUBLIC "-//W3C//DTD SVG 1.1//EN" "http://www.w3.org/Graphics/SVG/1.1/DTD/svg11.dtd">
<!-- Creator: CorelDRAW -->
<svg xmlns="http://www.w3.org/2000/svg" xml:space="preserve" width="254.235mm" height="147.971mm" version="1.1" style="shape-rendering:geometricPrecision; text-rendering:geometricPrecision; image-rendering:optimizeQuality; fill-rule:evenodd; clip-rule:evenodd"
viewBox="0 0 24906.01 14495.92"
 xmlns:xlink="http://www.w3.org/1999/xlink"
 xmlns:xodm="http://www.corel.com/coreldraw/odm/2003">
 <defs>
  <style type="text/css">
   <![CDATA[
    .str1 {stroke:#333333;stroke-width:69.12;stroke-miterlimit:22.9256}
    .str2 {stroke:#B3B3B3;stroke-width:19.59;stroke-miterlimit:22.9256}
    .str0 {stroke:#E6E6E6;stroke-width:19.59;stroke-miterlimit:22.9256}
    .fil0 {fill:none}
    .fil1 {fill:#F0F0F0}
    .fil2 {fill:#B3B3B3;fill-rule:nonzero}
   ]]>
  </style>
   <clipPath id="id0">
    <path d="M593.37 569.01l23887.63 0 0 13436.79 -23887.63 0 0 -13436.79z"/>
   </clipPath>
 </defs>
 <g id="Layer_x0020_1">
  <metadata id="CorelCorpID_0Corel-Layer"/>
  <g id="_2279629950256">
   <rect class="fil0 str0" x="593.37" y="569" width="5971.91" height="4478.93"/>
   <rect class="fil0 str0" x="593.37" y="5047.93" width="5971.91" height="4478.93"/>
   <rect class="fil0 str0" x="593.37" y="9526.86" width="5971.91" height="4478.93"/>
   <rect class="fil0 str0" x="6565.28" y="569" width="5971.91" height="4478.93"/>
   <rect class="fil0 str0" x="6565.28" y="5047.93" width="5971.91" height="4478.93"/>
   <rect class="fil0 str0" x="6565.28" y="9526.86" width="5971.91" height="4478.93"/>
   <rect class="fil0 str0" x="12537.19" y="569" width="5971.91" height="4478.93"/>
   <rect class="fil0 str0" x="12537.19" y="5047.93" width="5971.91" height="4478.93"/>
   <rect class="fil0 str0" x="12537.19" y="9526.86" width="5971.91" height="4478.93"/>
   <rect class="fil0 str0" x="18509.1" y="569" width="5971.91" height="4478.93"/>
   <rect class="fil0 str0" x="18509.1" y="5047.93" width="5971.91" height="4478.93"/>
   <rect class="fil0 str0" x="18509.1" y="9526.86" width="5971.91" height="4478.93"/>
  </g>
  <g>
  </g>
  <g style="clip-path:url(#id0)">
   <g id="_2279629949920">
    <path class="fil1 str1" d="M15992.82 14170.69c41.67,7.68 52.14,18.14 62.55,57.1l-62.55 -57.1zm313.81 -840.28c85.53,0 67.3,-20.91 131.62,-35.89 -1.2,54.34 -16.96,83.87 -35.89,119.65 -42.51,-28.48 -66.58,-40.23 -95.72,-83.76zm-1005.07 -2464.81c327.52,0 294.33,-26.94 398.69,-235.47l187.6 -326.9c0,122.26 61.13,541.01 59.98,741.68 -1.59,277.74 13.15,513.34 11.74,789.94 -0.46,88.21 24.94,480.05 46.27,551.99 118.65,400.5 380.52,416.43 396.51,608.55 -63.95,30.69 -42.87,4.05 -88.84,66.69 -101.41,138.2 -156.64,16.99 -449.69,5.19 -133.14,-5.36 -221.65,-27.29 -280.37,-114.47 -179.59,-266.66 -212.59,-803.67 -221.7,-1154.28 -1.69,-65.47 -11.18,-109.83 -11.88,-191.53 -1.4,-163.68 -48.3,-582.23 -48.3,-741.39zm5240.72 1986.21c-20.35,-87.34 -115.75,-263.49 -143.58,-382.88 42.03,-20.16 79.78,-22 127.07,-40.45 365.37,-142.46 447.38,-791.85 349.28,-1153.81 -22.02,-81.28 -57.98,-153.26 -75.15,-247.91 -16.6,-91.61 6.3,-313.98 5.53,-460.36 -0.38,-72.54 7.55,-101.47 12.05,-155.47 110.34,126.94 185.73,346.8 246.46,471.44 17.12,35.15 17.54,41.12 51.69,56.01 136.84,59.64 588.28,-45.51 694.96,-96.7 -8.02,96.41 -144.74,524.4 -186.28,627.35 -47.92,118.79 -77.45,172.68 -136.11,270.7l-472.02 760.38c-66.16,98.99 -94.49,146.05 -189.98,216.82 -65.55,48.59 -186.43,126.77 -283.91,134.88zm-3242.54 -7885.02c0,122.12 23.92,210.52 23.92,323.06 0,139.71 -118.04,383.73 83.76,430.74 0,130.82 2.52,190.97 24.7,298.35 8.84,42.75 21.58,95.58 33.48,134.04 15.35,49.58 36.3,74.36 37.54,129.97 -53.71,14.34 -85.24,67.62 -122.7,104.64 -141.07,139.45 -171.73,270.2 -381.21,336.69 -306.4,97.26 -395.57,70.37 -716.71,228.54 -151.11,74.42 -366.74,134.11 -430.1,275.85 -19.45,43.48 -7.16,43.26 -51.73,67.92 -291.2,161.1 -417.45,658.86 -587.94,943.59 -105.47,176.13 -383.87,765.15 -463.27,960.58 -43.07,106.01 -98.25,213.61 -142.04,324.6 -45.34,114.87 -79.81,232.68 -126.44,352.15l-113.73 353.82c-25.4,95.8 26.47,82.24 2.43,192.39 -134.86,617.86 368.24,2108.69 517.79,2710.52 69.51,279.73 167.25,578.5 391.76,744.94 148.15,109.84 368.28,221.69 488.85,360.67l134.82 152.67c45.66,53.53 46.36,49.92 17.76,118.64 -85.86,206.35 -168,493.04 -231.31,714.67 -118.55,414.89 -103.5,877.78 -230.79,1288.77 -171.55,553.89 -372.9,1240.85 -471.39,1813.94 -178.23,1037.1 -341.78,1552.5 -131.47,2638.75 11.12,57.39 18.96,92.52 28.67,150.82 32.25,193.59 17.53,259.65 -17.24,464.59 -13.14,77.49 -14.86,188.83 -30.97,268.15 -217.79,1072.83 -264.49,677.16 -264.49,1937.09 0,248.31 48.62,488.87 -14.17,739.63 -53.97,215.5 -57.77,190.99 -9.77,397.06 -123.03,82.39 -211.47,189.28 -331.47,278.74 -284.63,212.17 -858.04,198.5 -980.83,562.68 -22.86,67.8 -5.72,75.11 -17.05,138.51 -10.2,57.09 -46.64,41.51 -46.64,144.79 0,163.7 606.56,155.55 765.77,155.55 152.75,0 330.17,-34.14 459.65,-66.81 147.97,-37.34 264.21,-88.65 395,-143.43 129.09,-54.08 242.5,-105.59 365.58,-160.88 112.16,-50.38 268.91,-132.88 395.06,-143.38 18.84,70.57 91.16,144.41 107.68,215.37 194.98,0 593.1,-17.84 733.33,-152.09 112.91,-108.09 76.36,-327.74 67.68,-470.63 -5.52,-90.98 27.41,-102.71 48.15,-168.16 22.84,-72.09 -23.57,-266.38 -23.57,-369.75 0,-164.43 49.15,-471.27 48.02,-669.89 -2.64,-460.11 27.94,-627.83 145.8,-1062.67 16.66,-61.45 37.2,-110.3 50.92,-188.39 34.48,-196.06 28.77,-506.54 8.27,-689.2 -14.38,-128.1 -1.75,-339.79 -1.74,-476.86 0,-88.45 -0.68,-157.66 -9.74,-229.56 -49.12,-389.82 0.49,-294.81 -2.27,-608.04 -0.74,-84.26 11.6,-119.15 12.48,-190.92 0.88,-71.42 -0.39,-144.26 -0.48,-215.85 -0.19,-153.6 17.44,-242.38 45.48,-361.33l167.54 -658.07c28.91,-116.34 50.42,-224.13 75,-343.77 33.57,-163.42 77.57,-311.68 159.7,-450.52l398.07 -642.9c153.85,-259.54 294.74,-540.4 399.99,-832.42l164.72 -457.46c40.79,-127.41 81.33,-354.69 192.83,-429.36 69.42,144.69 43.59,507.79 71.76,670.08 70.95,408.79 157.78,819.73 271.2,1212.48 55.24,191.28 64.57,447.69 63.57,690.24 -0.31,76.58 11.89,97.66 12.73,166.75 2.1,173.46 21.31,344.62 52.43,509.93 95.94,509.8 117.29,650.55 114.53,1189.67 -0.42,80.06 10.48,113.89 12.43,179 1.74,58.41 -0.43,121.3 -0.68,180.15 -0.31,79.34 12.57,103.18 12.66,178.78 0.38,341.55 24.73,340.06 -26.32,704.37 -106.44,759.62 -212.47,836.42 -119.82,1655.33 10.4,91.93 16.6,156.17 31.19,244.01 13.51,81.34 42.75,168.51 42.75,244.4 0,96.59 -119.65,59.84 -119.65,335.03 0,146.53 33.41,66.11 -25.65,225.61 -34.94,94.37 -46.14,225.95 -46.14,336.74 0,198.93 51.95,65.12 -133.19,297.56l-203.57 263.06c-96.78,129.39 -214.02,262.64 -285.75,408.23 -77.41,157.12 -17.17,207.52 -54.74,291.42 -13.34,29.8 -28.68,67.07 -28.68,103.74 0,89.66 230.28,143.59 335.02,143.59 450.38,0 768.08,-31.64 1140.8,-235.19 268.92,-146.87 224.02,-167.65 249.78,-324.55 7.32,-44.65 23,-47.91 33.28,-86.38 203.3,0 229.65,12.26 368.29,-122.28 112,-108.71 74.88,-258.54 74.4,-416.17 -0.41,-139.24 -20.03,-112.32 50.89,-188.41 95.81,-102.77 37.28,-307.46 61.3,-441.24 13.02,-72.51 43.7,-124.11 67.47,-183.81 89.9,-225.85 134.22,-538.18 181.11,-812 53.05,-309.89 83.94,-802.98 93.55,-1138.86l11.87 -239.4c0.95,-78.8 12.91,-142.65 12.36,-238.91 -0.55,-96.75 12.63,-142.36 12.13,-239.14 -1.66,-320.7 23.84,-647.23 23.84,-969.25 0,-736.42 37.32,-1464.23 36.31,-2201.99l-47.92 -969.12c-14.1,-253.89 -48.2,-470.31 -48.2,-729.52 0,-266.56 10.44,-524.67 34.79,-778.84 30.56,-319.01 6.8,-668.11 62.45,-990.48 38.94,-225.53 58.3,-393.9 58.3,-635.67 0,-123.67 -49.15,-212.58 -78.71,-316.14 -31.14,-109.03 -51.16,-207.81 -76.82,-318.01 95.26,-7.94 407.12,-226.05 480.48,-285.28 140.89,-113.73 235.58,-277.83 344.98,-420.8 192.63,-251.74 367.68,-429.37 521.53,-627.12 288.68,-371.04 579.37,-655.28 822.39,-1092.03 139.69,-251.04 259.58,-503.8 387.11,-761.54 46.96,-94.91 111.73,-164.19 111.73,-295.1 0,-102.27 -82.84,-174.44 -124.88,-258.82 -38.17,-76.64 16.82,-103.41 -38.65,-175.9 -220.76,-288.49 -611.59,-822.53 -826.69,-1063.8 -19.86,-22.28 -33.9,-31.91 -52.53,-55.17 -112.79,-140.91 -127.44,-145.15 -254.53,-319.79 -137.83,-189.38 -387.96,-639.94 -542.21,-797.88l-162.04 -172.98c-136.77,-130.27 47.22,-253.03 -200.19,-362.18 -210.09,-92.68 -405.34,-195.83 -623.56,-273.81 -158.23,-56.55 -316.29,-131.65 -464.94,-205.11 -50.75,-25.07 -104.82,-46.07 -155.73,-71.61 -51.56,-25.86 -96.58,-50.47 -153.65,-73.69 -77.96,-31.72 -79.46,-34 -193.33,-34 -29.35,-125.95 -113.74,-295.79 -263.23,-299.12 11.51,-49.41 15.9,-115.98 23.21,-168.23 8.28,-59.21 24.65,-119.53 24.65,-178.76 170.21,0 176.31,-85.89 215.42,-227.29 142.76,-516.15 7.74,-445.14 93.21,-756.3 83.19,-302.82 80.55,-529.9 -45.53,-811.05 -267.52,-596.56 -549.8,-451.68 -886.8,-549 -371.53,-107.29 -941.95,68.38 -1159.2,369.3 -363.59,503.62 -139.96,826.19 -194.03,977.77 -7.87,22.03 -21.24,38.64 -21.24,63.29z"/>
   </g>
  </g>
  <polygon class="fil0 str2" points="593.37,569.01 24481.01,569.01 24481.01,14005.8 593.37,14005.8 "/>
  <polygon class="fil2" points="10397.78,53.43 10284.36,53.43 10284.36,153.85 10389.28,153.85 10389.28,184.48 10284.36,184.48 10284.36,313.04 10250.36,313.04 10250.36,22.67 10397.78,22.67 "/>
  <polygon id="_1" class="fil2" points="10671.15,313.04 10637.15,313.04 10637.15,180.61 10486.88,180.61 10486.88,313.04 10452.88,313.04 10452.88,22.67 10486.88,22.67 10486.88,150.05 10637.15,150.05 10637.15,22.67 10671.15,22.67 "/>
  <path id="_2" class="fil2" d="M10747.32 313.04l0 -290.37 80.17 0c102.29,0 153.51,47.14 153.51,141.56 0,44.78 -14.23,80.79 -42.64,108.03 -28.41,27.17 -66.42,40.78 -114.12,40.78l-76.92 0zm34 -259.61l0 228.84 43.34 0c38.08,0 67.66,-10.23 88.88,-30.61 21.22,-20.4 31.8,-49.29 31.8,-86.68 0,-74.37 -39.54,-111.55 -118.68,-111.55l-45.34 0z"/>
  <path id="_3" class="fil2" d="M11260.24 313.04l-33.18 0 0 -250.9c-2.56,2.56 -6.36,5.53 -11.27,8.85 -4.91,3.24 -10.43,6.56 -16.59,9.82 -6.15,3.17 -12.65,6.22 -19.43,9.05 -6.84,2.9 -13.48,5.11 -19.97,6.7l0 -33.59c7.26,-2.07 15,-4.77 23.16,-8.22 8.22,-3.46 16.24,-7.26 24.12,-11.55 7.88,-4.21 15.34,-8.71 22.39,-13.33 6.98,-4.7 13.07,-9.2 18.25,-13.69l12.51 0 0 296.86z"/>
  <path id="_4" class="fil2" d="M11540.44 150.39c0,26.62 -2.63,50.26 -7.88,70.98 -5.25,20.74 -12.92,38.29 -23.09,52.68 -10.09,14.37 -22.46,25.29 -37.04,32.83 -14.59,7.46 -31.17,11.2 -49.83,11.2 -19.15,0 -36.01,-3.39 -50.6,-10.09l0 -31.8c16.04,9.06 33.18,13.55 51.42,13.55 13.14,0 24.81,-2.69 35.11,-8.08 10.37,-5.4 19.08,-13.27 26.27,-23.57 7.11,-10.36 12.58,-23.09 16.38,-38.23 3.8,-15.07 5.66,-32.42 5.66,-52.05l-0.82 0c-12.37,25.02 -34.01,37.46 -64.76,37.46 -12.44,0 -23.85,-2.14 -34.22,-6.56 -10.43,-4.35 -19.42,-10.57 -26.96,-18.59 -7.53,-8.08 -13.4,-17.62 -17.62,-28.68 -4.14,-11.06 -6.29,-23.29 -6.29,-36.63 0,-14.31 2.35,-27.44 7.05,-39.33 4.63,-11.81 11.13,-22.04 19.43,-30.61 8.29,-8.57 18.1,-15.28 29.51,-19.97 11.47,-4.7 23.91,-7.12 37.39,-7.12 14.59,0 27.51,2.97 38.77,8.85 11.27,5.88 20.74,14.45 28.48,25.72 7.67,11.27 13.55,25.16 17.62,41.61 4.02,16.45 6.02,35.32 6.02,56.47zm-35.81 -29.71c0,-11.2 -1.45,-21.43 -4.35,-30.62 -2.9,-9.12 -6.92,-17.01 -12.03,-23.57 -5.18,-6.56 -11.27,-11.61 -18.38,-15.2 -7.05,-3.53 -14.79,-5.32 -23.16,-5.32 -7.94,0 -15.41,1.59 -22.26,4.76 -6.91,3.12 -12.85,7.6 -17.97,13.34 -5.05,5.74 -8.99,12.58 -11.89,20.46 -2.9,7.88 -4.35,16.52 -4.35,25.77 0,10.3 1.38,19.49 4.14,27.58 2.76,8.09 6.7,14.93 11.81,20.53 5.12,5.59 11.34,9.88 18.53,12.85 7.26,2.98 15.21,4.5 23.99,4.5 7.74,0 15,-1.45 21.77,-4.36 6.85,-2.9 12.78,-6.84 17.83,-11.75 5.05,-4.98 9.06,-10.79 11.96,-17.42 2.9,-6.71 4.35,-13.89 4.35,-21.56z"/>
  <path id="_5" class="fil2" d="M11717.04 98.77c0,-8.91 -1.39,-16.65 -4.15,-23.3 -2.76,-6.56 -6.56,-12.09 -11.33,-16.45 -4.84,-4.43 -10.43,-7.67 -16.93,-9.82 -6.5,-2.21 -13.48,-3.24 -21.08,-3.24 -6.44,0 -12.79,0.82 -19.01,2.63 -6.22,1.72 -12.24,4.14 -18.1,7.25 -5.88,3.12 -11.54,6.85 -17.01,11.13 -5.53,4.36 -10.57,9.13 -15.34,14.38l0 -35.6c9.33,-9.05 19.77,-15.96 31.31,-20.8 11.54,-4.77 25.65,-7.19 42.23,-7.19 11.88,0 22.87,1.72 32.97,5.18 10.16,3.46 18.95,8.5 26.33,15.07 7.46,6.63 13.27,14.79 17.57,24.54 4.21,9.75 6.36,20.88 6.36,33.39 0,11.47 -1.31,21.9 -3.94,31.24 -2.64,9.26 -6.64,18.04 -11.96,26.26 -5.32,8.3 -12.03,16.17 -20.18,23.71 -8.09,7.6 -17.56,15.27 -28.55,23.08 -13.62,9.75 -24.81,18.05 -33.66,24.95 -8.85,6.85 -15.9,13.27 -21.08,19.29 -5.18,6.02 -8.85,12.03 -10.92,18.04 -2.15,6.02 -3.17,12.93 -3.17,20.74l144.6 0 0 29.79 -179.23 0 0 -14.38c0,-12.44 1.38,-23.35 4.08,-32.83 2.69,-9.39 7.12,-18.39 13.34,-26.88 6.22,-8.5 14.37,-17.01 24.39,-25.51 10.09,-8.5 22.39,-18.11 36.98,-28.75 10.5,-7.6 19.36,-14.79 26.4,-21.7 7.12,-6.92 12.78,-13.76 17.14,-20.67 4.28,-6.85 7.4,-13.82 9.19,-20.94 1.87,-7.12 2.77,-14.59 2.77,-22.6z"/>
  <path id="_6" class="fil2" d="M11990.74 166.64c0,24.27 -2.15,45.83 -6.56,64.56 -4.36,18.8 -10.72,34.63 -19.01,47.48 -8.29,12.93 -18.53,22.68 -30.61,29.38 -12.1,6.7 -25.78,10.02 -41.19,10.02 -14.59,0 -27.59,-3.18 -38.99,-9.61 -11.4,-6.43 -21.01,-15.75 -28.82,-28.06 -7.88,-12.24 -13.82,-27.37 -17.83,-45.2 -4.08,-17.91 -6.08,-38.43 -6.08,-61.52 0,-25.36 2.15,-47.76 6.36,-67.18 4.29,-19.49 10.51,-35.74 18.73,-48.93 8.23,-13.14 18.46,-23.09 30.69,-29.79 12.24,-6.63 26.2,-10.02 42.03,-10.02 60.88,0 91.3,49.63 91.3,148.88zm-34 3.25c0,-82.66 -19.63,-123.92 -58.9,-123.92 -41.47,0 -62.21,42.02 -62.21,126.14 0,78.45 20.33,117.64 60.96,117.64 40.09,0 60.14,-39.95 60.14,-119.85z"/>
  <path id="_7" class="fil2" d="M12075.4 283.04l-0.82 0 0 125.38 -33.25 0 0 -302.75 33.25 0 0 36.43 0.82 0c16.31,-27.51 40.23,-41.26 71.68,-41.26 26.68,0 47.55,9.26 62.55,27.85 15,18.53 22.46,43.41 22.46,74.58 0,34.7 -8.43,62.48 -25.29,83.36 -16.87,20.81 -39.95,31.24 -69.26,31.24 -26.88,0 -47.55,-11.61 -62.14,-34.84zm-0.82 -83.63l0 28.96c0,17.14 5.53,31.72 16.72,43.68 11.13,11.96 25.23,17.9 42.37,17.9 20.11,0 35.87,-7.67 47.28,-23.08 11.4,-15.41 17.14,-36.78 17.14,-64.22 0,-23.08 -5.32,-41.13 -16.04,-54.25 -10.65,-13.07 -25.09,-19.63 -43.27,-19.63 -19.35,0 -34.84,6.7 -46.58,20.11 -11.76,13.48 -17.62,30.27 -17.62,50.53z"/>
  <path id="_8" class="fil2" d="M12485.42 317.87c-30.62,0 -55.1,-9.68 -73.4,-29.03 -18.25,-19.36 -27.44,-45.07 -27.44,-77.07 0,-34.84 9.53,-62 28.55,-81.63 19.07,-19.56 44.78,-29.3 77.21,-29.3 30.89,0 55.02,9.46 72.37,28.55 17.35,19.01 25.98,45.41 25.98,79.14 0,33.11 -9.33,59.58 -27.99,79.49 -18.73,19.91 -43.82,29.86 -75.27,29.86zm2.42 -189.11c-21.3,0 -38.16,7.26 -50.6,21.78 -12.44,14.51 -18.66,34.48 -18.66,60.06 0,24.53 6.29,43.89 18.87,58.05 12.58,14.18 29.38,21.29 50.39,21.29 21.49,0 38.01,-6.98 49.55,-20.87 11.55,-13.89 17.28,-33.66 17.28,-59.31 0,-25.92 -5.73,-45.9 -17.28,-59.92 -11.54,-14.1 -28.06,-21.08 -49.55,-21.08zm48.51 -128.76l-53.01 66.42 -25.72 0 45.14 -66.42 33.58 0z"/>
  <path id="_9" class="fil2" d="M12972.29 195.61c0,81.49 -36.77,122.27 -110.39,122.27 -70.43,0 -105.67,-39.2 -105.67,-117.65l0 -177.56 34 0 0 175.36c0,59.5 25.16,89.29 75.33,89.29 48.45,0 72.72,-28.75 72.72,-86.26l0 -178.39 34 0 0 172.94z"/>
  <polygon id="_10" class="fil2" points="13263.07,313.04 13229.07,313.04 13229.07,180.61 13078.8,180.61 13078.8,313.04 13044.8,313.04 13044.8,22.67 13078.8,22.67 13078.8,150.05 13229.07,150.05 13229.07,22.67 13263.07,22.67 "/>
  <path id="_11" class="fil2" d="M13339.24 313.04l0 -290.37 80.17 0c102.29,0 153.51,47.14 153.51,141.56 0,44.78 -14.23,80.79 -42.64,108.03 -28.41,27.17 -66.42,40.78 -114.12,40.78l-76.92 0zm34 -259.61l0 228.84 43.34 0c38.08,0 67.66,-10.23 88.88,-30.61 21.22,-20.4 31.8,-49.29 31.8,-86.68 0,-74.37 -39.54,-111.55 -118.68,-111.55l-45.34 0z"/>
  <path id="_12" class="fil2" d="M13898.54 230.78c0,13.13 -2.49,25.02 -7.4,35.81 -4.91,10.71 -11.89,19.91 -20.88,27.51 -8.98,7.6 -19.7,13.55 -32.28,17.69 -12.58,4.21 -26.4,6.29 -41.54,6.29 -27.65,0 -49.63,-5.25 -66.01,-15.76l0 -35.66c19.63,15.41 42.03,23.08 67.25,23.08 10.16,0 19.28,-1.24 27.44,-3.87 8.16,-2.56 15.2,-6.22 21.08,-11.13 5.88,-4.84 10.36,-10.71 13.55,-17.62 3.17,-6.84 4.77,-14.66 4.77,-23.3 0,-37.87 -27.03,-56.88 -81.01,-56.88l-24.13 0 0 -28.14 22.88 0c47.83,0 71.67,-17.83 71.67,-53.43 0,-32.97 -18.17,-49.41 -54.67,-49.41 -20.45,0 -39.74,6.84 -57.64,20.66l0 -32.21c18.46,-11.06 40.43,-16.65 66.01,-16.65 12.1,0 23.16,1.72 32.97,5.11 9.88,3.39 18.32,8.09 25.3,14.17 7.04,6.08 12.44,13.34 16.31,21.85 3.87,8.5 5.81,17.9 5.81,28.14 0,38.22 -19.36,62.82 -57.93,73.75l0 0.82c9.82,1.04 18.94,3.46 27.3,7.19 8.37,3.66 15.62,8.5 21.7,14.45 6.08,5.95 10.85,12.92 14.24,20.94 3.46,8.01 5.18,16.93 5.18,26.61z"/>
  <path id="_13" class="fil2" d="M13947.34 232.03c0,-7.67 1.18,-15.41 3.6,-23.16 2.49,-7.81 5.94,-15.07 10.43,-21.77 4.57,-6.78 10.16,-12.93 16.79,-18.46 6.71,-5.53 14.31,-9.88 22.82,-13.13 -12.58,-7.05 -22.53,-16.04 -30,-27.03 -7.4,-11.06 -11.13,-23.23 -11.13,-36.57 0,-10.71 2.07,-20.52 6.22,-29.58 4.08,-9.06 9.82,-16.87 17.07,-23.5 7.33,-6.63 15.97,-11.76 25.92,-15.49 10.02,-3.73 20.81,-5.59 32.42,-5.59 11.76,0 22.6,1.93 32.62,5.66 9.95,3.81 18.59,8.99 25.92,15.63 7.26,6.63 12.93,14.45 17.01,23.5 4.01,9.05 6.08,18.8 6.08,29.37 0,13.34 -3.73,25.51 -11.13,36.57 -7.46,10.99 -17.28,19.97 -29.59,27.03 8.37,3.24 15.83,7.6 22.46,13.13 6.63,5.53 12.17,11.68 16.73,18.46 4.49,6.7 7.94,13.96 10.43,21.77 2.42,7.75 3.6,15.49 3.6,23.16 0,12.72 -2.28,24.32 -6.85,34.84 -4.62,10.5 -11.06,19.56 -19.35,27.03 -8.3,7.53 -18.25,13.33 -29.79,17.56 -11.54,4.14 -24.27,6.22 -38.16,6.22 -13.75,0 -26.4,-2.08 -37.87,-6.22 -11.47,-4.22 -21.36,-10.02 -29.79,-17.56 -8.37,-7.46 -14.86,-16.53 -19.49,-27.03 -4.7,-10.51 -6.98,-22.12 -6.98,-34.84zm36.01 -2.83c0,9.05 1.38,17.2 4.14,24.53 2.76,7.26 6.7,13.48 11.75,18.59 5.05,5.11 11.2,9.06 18.46,11.82 7.19,2.83 15.2,4.21 23.98,4.21 8.5,0 16.32,-1.45 23.5,-4.28 7.12,-2.84 13.34,-6.85 18.53,-11.96 5.18,-5.11 9.27,-11.33 12.17,-18.59 2.9,-7.33 4.35,-15.41 4.35,-24.32 0,-8.09 -1.38,-15.69 -4.14,-22.82 -2.83,-7.04 -6.77,-13.26 -11.88,-18.73 -5.12,-5.39 -11.28,-9.6 -18.39,-12.72 -7.19,-3.11 -15.2,-4.63 -24.13,-4.63 -8.36,0 -16.11,1.46 -23.22,4.36 -7.05,2.9 -13.21,6.91 -18.39,12.1 -5.18,5.25 -9.26,11.4 -12.24,18.66 -2.97,7.18 -4.49,15.14 -4.49,23.78zm10.36 -134.64c0,6.84 1.24,13.26 3.73,19.14 2.49,5.88 5.95,10.99 10.3,15.34 4.43,4.43 9.47,7.89 15.27,10.37 5.81,2.49 12.03,3.73 18.66,3.73 6.64,0 12.86,-1.31 18.73,-3.88 5.88,-2.56 10.99,-6.01 15.28,-10.43 4.35,-4.35 7.74,-9.47 10.36,-15.34 2.56,-5.88 3.8,-12.17 3.8,-18.94 0,-7.05 -1.24,-13.48 -3.73,-19.43 -2.49,-5.95 -5.88,-11.13 -10.23,-15.41 -4.29,-4.36 -9.4,-7.75 -15.27,-10.24 -5.88,-2.49 -12.17,-3.73 -18.95,-3.73 -7.18,0 -13.69,1.24 -19.55,3.8 -5.88,2.64 -10.92,6.08 -15.21,10.44 -4.21,4.42 -7.46,9.61 -9.81,15.48 -2.28,5.95 -3.39,12.3 -3.39,19.08z"/>
  <path id="_14" class="fil2" d="M14324.71 22.67l0 191.74 37.26 0 0 30.41 -37.26 0 0 68.22 -32.76 0 0 -68.22 -136.51 0 0 -28.75c12.72,-14.3 25.51,-29.65 38.5,-45.9 12.93,-16.24 25.3,-32.76 37.12,-49.48 11.81,-16.73 22.74,-33.45 32.83,-50.12 10.02,-16.72 18.53,-32.62 25.44,-47.89l35.38 0zm-131.81 191.74l99.05 0 0 -142.11c-10.16,17.62 -19.77,33.45 -28.75,47.35 -9.05,13.89 -17.69,26.54 -25.85,37.87 -8.16,11.33 -15.97,21.56 -23.36,30.76 -7.46,9.19 -14.44,17.9 -21.08,26.13z"/>
  <path id="_15" class="fil2" d="M14582.66 166.64c0,24.27 -2.15,45.83 -6.56,64.56 -4.36,18.8 -10.72,34.63 -19.01,47.48 -8.29,12.93 -18.53,22.68 -30.61,29.38 -12.1,6.7 -25.78,10.02 -41.19,10.02 -14.59,0 -27.59,-3.18 -38.99,-9.61 -11.4,-6.43 -21.01,-15.75 -28.82,-28.06 -7.88,-12.24 -13.82,-27.37 -17.83,-45.2 -4.08,-17.91 -6.08,-38.43 -6.08,-61.52 0,-25.36 2.15,-47.76 6.36,-67.18 4.29,-19.49 10.51,-35.74 18.73,-48.93 8.23,-13.14 18.46,-23.09 30.69,-29.79 12.24,-6.63 26.2,-10.02 42.03,-10.02 60.88,0 91.3,49.63 91.3,148.88zm-34 3.25c0,-82.66 -19.63,-123.92 -58.9,-123.92 -41.47,0 -62.21,42.02 -62.21,126.14 0,78.45 20.33,117.64 60.96,117.64 40.09,0 60.14,-39.95 60.14,-119.85z"/>
  <path id="_16" class="fil2" d="M14667.33 283.04l-0.82 0 0 125.38 -33.25 0 0 -302.75 33.25 0 0 36.43 0.82 0c16.31,-27.51 40.23,-41.26 71.68,-41.26 26.68,0 47.55,9.26 62.55,27.85 15,18.53 22.46,43.41 22.46,74.58 0,34.7 -8.43,62.48 -25.29,83.36 -16.87,20.81 -39.95,31.24 -69.26,31.24 -26.88,0 -47.55,-11.61 -62.14,-34.84zm-0.82 -83.63l0 28.96c0,17.14 5.53,31.72 16.72,43.68 11.13,11.96 25.23,17.9 42.37,17.9 20.11,0 35.87,-7.67 47.28,-23.08 11.4,-15.41 17.14,-36.78 17.14,-64.22 0,-23.08 -5.32,-41.13 -16.04,-54.25 -10.65,-13.07 -25.09,-19.63 -43.27,-19.63 -19.35,0 -34.84,6.7 -46.58,20.11 -11.76,13.48 -17.62,30.27 -17.62,50.53z"/>
  <path class="fil2" d="M3590.57 14492.46l-33.18 0 0 -250.9c-2.56,2.56 -6.36,5.53 -11.27,8.85 -4.91,3.24 -10.43,6.56 -16.59,9.82 -6.15,3.17 -12.65,6.22 -19.43,9.05 -6.84,2.9 -13.48,5.11 -19.97,6.7l0 -33.59c7.26,-2.07 15,-4.77 23.16,-8.22 8.22,-3.46 16.24,-7.26 24.12,-11.55 7.88,-4.21 15.34,-8.71 22.39,-13.33 6.98,-4.7 13.07,-9.2 18.25,-13.69l12.51 0 0 296.86z"/>
  <path class="fil2" d="M24866.61 11970.66l-33.18 0 0 -250.9c-2.56,2.56 -6.36,5.53 -11.27,8.85 -4.91,3.24 -10.43,6.56 -16.59,9.82 -6.15,3.17 -12.65,6.22 -19.43,9.05 -6.84,2.9 -13.48,5.11 -19.97,6.7l0 -33.59c7.26,-2.07 15,-4.77 23.16,-8.22 8.22,-3.46 16.24,-7.26 24.12,-11.55 7.88,-4.21 15.34,-8.71 22.39,-13.33 6.98,-4.7 13.07,-9.2 18.25,-13.69l12.51 0 0 296.86z"/>
  <path class="fil2" d="M9495.91 14276.6c0,-8.91 -1.39,-16.65 -4.15,-23.3 -2.76,-6.56 -6.56,-12.09 -11.33,-16.45 -4.84,-4.43 -10.43,-7.67 -16.93,-9.82 -6.5,-2.21 -13.48,-3.24 -21.08,-3.24 -6.44,0 -12.79,0.82 -19.01,2.63 -6.22,1.72 -12.24,4.14 -18.1,7.25 -5.88,3.12 -11.54,6.85 -17.01,11.13 -5.53,4.36 -10.57,9.13 -15.34,14.38l0 -35.6c9.33,-9.05 19.77,-15.96 31.31,-20.8 11.54,-4.77 25.65,-7.19 42.23,-7.19 11.88,0 22.87,1.72 32.97,5.18 10.16,3.46 18.95,8.5 26.33,15.07 7.46,6.63 13.27,14.79 17.57,24.54 4.21,9.75 6.36,20.88 6.36,33.39 0,11.47 -1.31,21.9 -3.94,31.24 -2.64,9.26 -6.64,18.04 -11.96,26.26 -5.32,8.3 -12.03,16.17 -20.18,23.71 -8.09,7.6 -17.56,15.27 -28.55,23.08 -13.62,9.75 -24.81,18.05 -33.66,24.95 -8.85,6.85 -15.9,13.27 -21.08,19.29 -5.18,6.02 -8.85,12.03 -10.92,18.04 -2.15,6.02 -3.17,12.93 -3.17,20.74l144.6 0 0 29.79 -179.23 0 0 -14.38c0,-12.44 1.38,-23.35 4.08,-32.83 2.69,-9.39 7.12,-18.39 13.34,-26.88 6.22,-8.5 14.37,-17.01 24.39,-25.51 10.09,-8.5 22.39,-18.11 36.98,-28.75 10.5,-7.6 19.36,-14.79 26.4,-21.7 7.12,-6.92 12.78,-13.76 17.14,-20.67 4.28,-6.85 7.4,-13.82 9.19,-20.94 1.87,-7.12 2.77,-14.59 2.77,-22.6z"/>
  <path class="fil2" d="M24861.09 7306.13c0,-8.91 -1.39,-16.65 -4.15,-23.3 -2.76,-6.56 -6.56,-12.09 -11.33,-16.45 -4.84,-4.43 -10.43,-7.67 -16.93,-9.82 -6.5,-2.21 -13.48,-3.24 -21.08,-3.24 -6.44,0 -12.79,0.82 -19.01,2.63 -6.22,1.72 -12.24,4.14 -18.1,7.25 -5.88,3.12 -11.54,6.85 -17.01,11.13 -5.53,4.36 -10.57,9.13 -15.34,14.38l0 -35.6c9.33,-9.05 19.77,-15.96 31.31,-20.8 11.54,-4.77 25.65,-7.19 42.23,-7.19 11.88,0 22.87,1.72 32.97,5.18 10.16,3.46 18.95,8.5 26.33,15.07 7.46,6.63 13.27,14.79 17.57,24.54 4.21,9.75 6.36,20.88 6.36,33.39 0,11.47 -1.31,21.9 -3.94,31.24 -2.64,9.26 -6.64,18.04 -11.96,26.26 -5.32,8.3 -12.03,16.17 -20.18,23.71 -8.09,7.6 -17.56,15.27 -28.55,23.08 -13.62,9.75 -24.81,18.05 -33.66,24.95 -8.85,6.85 -15.9,13.27 -21.08,19.29 -5.18,6.02 -8.85,12.03 -10.92,18.04 -2.15,6.02 -3.17,12.93 -3.17,20.74l144.6 0 0 29.79 -179.23 0 0 -14.38c0,-12.44 1.38,-23.35 4.08,-32.83 2.69,-9.39 7.12,-18.39 13.34,-26.88 6.22,-8.5 14.37,-17.01 24.39,-25.51 10.09,-8.5 22.39,-18.11 36.98,-28.75 10.5,-7.6 19.36,-14.79 26.4,-21.7 7.12,-6.92 12.78,-13.76 17.14,-20.67 4.28,-6.85 7.4,-13.82 9.19,-20.94 1.87,-7.12 2.77,-14.59 2.77,-22.6z"/>
  <path class="fil2" d="M15563.14 14408.62c0,13.13 -2.49,25.02 -7.4,35.81 -4.91,10.71 -11.89,19.91 -20.88,27.51 -8.98,7.6 -19.7,13.55 -32.28,17.69 -12.58,4.21 -26.4,6.29 -41.54,6.29 -27.65,0 -49.63,-5.25 -66.01,-15.76l0 -35.66c19.63,15.41 42.03,23.08 67.25,23.08 10.16,0 19.28,-1.24 27.44,-3.87 8.16,-2.56 15.2,-6.22 21.08,-11.13 5.88,-4.84 10.36,-10.71 13.55,-17.62 3.17,-6.84 4.77,-14.66 4.77,-23.3 0,-37.87 -27.03,-56.88 -81.01,-56.88l-24.13 0 0 -28.14 22.88 0c47.83,0 71.67,-17.83 71.67,-53.43 0,-32.97 -18.17,-49.41 -54.67,-49.41 -20.45,0 -39.74,6.84 -57.64,20.66l0 -32.21c18.46,-11.06 40.43,-16.65 66.01,-16.65 12.1,0 23.16,1.72 32.97,5.11 9.88,3.39 18.32,8.09 25.3,14.17 7.04,6.08 12.44,13.34 16.31,21.85 3.87,8.5 5.81,17.9 5.81,28.14 0,38.22 -19.36,62.82 -57.93,73.75l0 0.82c9.82,1.04 18.94,3.46 27.3,7.19 8.37,3.66 15.62,8.5 21.7,14.45 6.08,5.95 10.85,12.92 14.24,20.94 3.46,8.01 5.18,16.93 5.18,26.61z"/>
  <path class="fil2" d="M24900.45 2920.82c0,13.13 -2.49,25.02 -7.4,35.81 -4.91,10.71 -11.89,19.91 -20.88,27.51 -8.98,7.6 -19.7,13.55 -32.28,17.69 -12.58,4.21 -26.4,6.29 -41.54,6.29 -27.65,0 -49.63,-5.25 -66.01,-15.76l0 -35.66c19.63,15.41 42.03,23.08 67.25,23.08 10.16,0 19.28,-1.24 27.44,-3.87 8.16,-2.56 15.2,-6.22 21.08,-11.13 5.88,-4.84 10.36,-10.71 13.55,-17.62 3.17,-6.84 4.77,-14.66 4.77,-23.3 0,-37.87 -27.03,-56.88 -81.01,-56.88l-24.13 0 0 -28.14 22.88 0c47.83,0 71.67,-17.83 71.67,-53.43 0,-32.97 -18.17,-49.41 -54.67,-49.41 -20.45,0 -39.74,6.84 -57.64,20.66l0 -32.21c18.46,-11.06 40.43,-16.65 66.01,-16.65 12.1,0 23.16,1.72 32.97,5.11 9.88,3.39 18.32,8.09 25.3,14.17 7.04,6.08 12.44,13.34 16.31,21.85 3.87,8.5 5.81,17.9 5.81,28.14 0,38.22 -19.36,62.82 -57.93,73.75l0 0.82c9.82,1.04 18.94,3.46 27.3,7.19 8.37,3.66 15.62,8.5 21.7,14.45 6.08,5.95 10.85,12.92 14.24,20.94 3.46,8.01 5.18,16.93 5.18,26.61z"/>
  <path class="fil2" d="M21376.29 14195.6l0 191.74 37.26 0 0 30.41 -37.26 0 0 68.22 -32.76 0 0 -68.22 -136.51 0 0 -28.75c12.72,-14.3 25.51,-29.65 38.5,-45.9 12.93,-16.24 25.3,-32.76 37.12,-49.48 11.81,-16.73 22.74,-33.45 32.83,-50.12 10.02,-16.72 18.53,-32.62 25.44,-47.89l35.38 0zm-131.81 191.74l99.05 0 0 -142.11c-10.16,17.62 -19.77,33.45 -28.75,47.35 -9.05,13.89 -17.69,26.54 -25.85,37.87 -8.16,11.33 -15.97,21.56 -23.36,30.76 -7.46,9.19 -14.44,17.9 -21.08,26.13z"/>
  <polygon class="fil2" points="53.43,9426.81 53.43,9540.23 153.85,9540.23 153.85,9435.31 184.48,9435.31 184.48,9540.23 313.04,9540.23 313.04,9574.24 22.67,9574.24 22.67,9426.81 "/>
  <polygon id="_1_0" class="fil2" points="313.04,9153.44 313.04,9187.44 180.61,9187.44 180.61,9337.71 313.04,9337.71 313.04,9371.71 22.67,9371.71 22.67,9337.71 150.05,9337.71 150.05,9187.44 22.67,9187.44 22.67,9153.44 "/>
  <path id="_2_1" class="fil2" d="M313.04 9077.27l-290.37 0 0 -80.17c0,-102.29 47.14,-153.51 141.56,-153.51 44.78,0 80.79,14.23 108.03,42.64 27.17,28.41 40.78,66.42 40.78,114.12l0 76.92zm-259.61 -34l228.84 0 0 -43.34c0,-38.08 -10.23,-67.66 -30.61,-88.88 -20.4,-21.22 -49.29,-31.8 -86.68,-31.8 -74.37,0 -111.55,39.54 -111.55,118.68l0 45.34z"/>
  <path id="_3_2" class="fil2" d="M283.04 7749.19l0 0.82 125.38 0 0 33.25 -302.75 0 0 -33.25 36.43 0 0 -0.82c-27.51,-16.31 -41.26,-40.23 -41.26,-71.68 0,-26.68 9.26,-47.55 27.85,-62.55 18.53,-15 43.41,-22.46 74.58,-22.46 34.7,0 62.48,8.43 83.36,25.29 20.81,16.87 31.24,39.95 31.24,69.26 0,26.88 -11.61,47.55 -34.84,62.14zm-83.63 0.82l28.96 0c17.14,0 31.72,-5.53 43.68,-16.72 11.96,-11.13 17.9,-25.23 17.9,-42.37 0,-20.11 -7.67,-35.87 -23.08,-47.28 -15.41,-11.4 -36.78,-17.14 -64.22,-17.14 -23.08,0 -41.13,5.32 -54.25,16.04 -13.07,10.65 -19.63,25.09 -19.63,43.27 0,19.35 6.7,34.84 20.11,46.58 13.48,11.76 30.27,17.62 50.53,17.62z"/>
  <path id="_4_3" class="fil2" d="M317.87 7339.17c0,30.62 -9.68,55.1 -29.03,73.4 -19.36,18.25 -45.07,27.44 -77.07,27.44 -34.84,0 -62,-9.53 -81.63,-28.55 -19.56,-19.07 -29.3,-44.78 -29.3,-77.21 0,-30.89 9.46,-55.02 28.55,-72.37 19.01,-17.35 45.41,-25.98 79.14,-25.98 33.11,0 59.58,9.33 79.49,27.99 19.91,18.73 29.86,43.82 29.86,75.27zm-189.11 -2.42c0,21.3 7.26,38.16 21.78,50.6 14.51,12.44 34.48,18.66 60.06,18.66 24.53,0 43.89,-6.29 58.05,-18.87 14.18,-12.58 21.29,-29.38 21.29,-50.39 0,-21.49 -6.98,-38.01 -20.87,-49.55 -13.89,-11.55 -33.66,-17.28 -59.31,-17.28 -25.92,0 -45.9,5.73 -59.92,17.28 -14.03,11.54 -21.08,28.06 -21.08,49.55zm-128.76 -48.51l66.42 53.01 0 25.72 -66.42 -45.14 0 -33.58z"/>
  <path id="_5_4" class="fil2" d="M195.61 6852.3c81.49,0 122.27,36.77 122.27,110.39 0,70.43 -39.2,105.67 -117.65,105.67l-177.56 0 0 -34 175.36 0c59.5,0 89.29,-25.16 89.29,-75.33 0,-48.45 -28.75,-72.72 -86.26,-72.72l-178.39 0 0 -34 172.94 0z"/>
  <polygon id="_6_5" class="fil2" points="313.04,6561.52 313.04,6595.52 180.61,6595.52 180.61,6745.79 313.04,6745.79 313.04,6779.79 22.67,6779.79 22.67,6745.79 150.05,6745.79 150.05,6595.52 22.67,6595.52 22.67,6561.52 "/>
  <path id="_7_6" class="fil2" d="M313.04 6485.35l-290.37 0 0 -80.17c0,-102.29 47.14,-153.51 141.56,-153.51 44.78,0 80.79,14.23 108.03,42.64 27.17,28.41 40.78,66.42 40.78,114.12l0 76.92zm-259.61 -34l228.84 0 0 -43.34c0,-38.08 -10.23,-67.66 -30.61,-88.88 -20.4,-21.22 -49.29,-31.8 -86.68,-31.8 -74.37,0 -111.55,39.54 -111.55,118.68l0 45.34z"/>
  <path id="_8_7" class="fil2" d="M313.04 8564.35l0 33.18 -250.9 0c2.56,2.56 5.53,6.36 8.85,11.27 3.24,4.91 6.56,10.43 9.82,16.59 3.24,6.15 6.22,12.65 9.05,19.43 2.9,6.84 5.11,13.48 6.7,19.97l-33.59 0c-2,-7.26 -4.77,-15 -8.22,-23.16 -3.46,-8.22 -7.26,-16.24 -11.55,-24.12 -4.21,-7.88 -8.71,-15.34 -13.33,-22.39 -4.7,-6.98 -9.2,-13.07 -13.69,-18.25l0 -12.51 296.86 0z"/>
  <path id="_9_8" class="fil2" d="M166.64 8280.9c24.27,0 45.83,2.15 64.56,6.56 18.8,4.36 34.63,10.72 47.48,19.01 12.93,8.29 22.75,18.53 29.38,30.61 6.7,12.1 10.02,25.78 10.02,41.19 0,14.59 -3.18,27.59 -9.61,38.99 -6.43,11.4 -15.75,21.01 -28.06,28.82 -12.24,7.88 -27.37,13.82 -45.2,17.83 -17.91,4.08 -38.43,6.08 -61.52,6.08 -25.36,0 -47.76,-2.15 -67.18,-6.36 -19.49,-4.29 -35.74,-10.51 -48.93,-18.73 -13.14,-8.23 -23.09,-18.46 -29.72,-30.69 -6.7,-12.24 -10.09,-26.2 -10.09,-42.03 0,-60.88 49.63,-91.3 148.88,-91.3zm3.25 34c-82.66,0 -123.92,19.63 -123.92,58.9 0,41.47 42.02,62.21 126.14,62.21 78.45,0 117.64,-20.33 117.64,-60.96 0,-40.09 -39.95,-60.14 -119.85,-60.14z"/>
  <path id="_10_9" class="fil2" d="M232.03 8245.65c-7.67,0 -15.41,-1.18 -23.16,-3.6 -7.81,-2.49 -15.07,-5.94 -21.77,-10.43 -6.78,-4.57 -12.93,-10.16 -18.46,-16.79 -5.53,-6.71 -9.88,-14.31 -13.13,-22.82 -7.05,12.58 -16.04,22.53 -27.03,30 -11.06,7.4 -23.23,11.13 -36.57,11.13 -10.71,0 -20.52,-2.07 -29.58,-6.22 -9.06,-4.08 -16.87,-9.82 -23.5,-17.07 -6.63,-7.33 -11.76,-15.97 -15.49,-25.92 -3.73,-10.02 -5.59,-20.81 -5.59,-32.42 0,-11.76 1.93,-22.6 5.74,-32.62 3.73,-9.95 8.91,-18.59 15.55,-25.92 6.63,-7.26 14.45,-12.93 23.5,-17.01 9.05,-4.01 18.8,-6.08 29.37,-6.08 13.34,0 25.51,3.73 36.57,11.13 10.99,7.46 19.97,17.28 27.03,29.59 3.24,-8.37 7.6,-15.83 13.13,-22.46 5.53,-6.63 11.68,-12.17 18.46,-16.73 6.7,-4.49 13.96,-7.94 21.77,-10.43 7.75,-2.42 15.49,-3.6 23.16,-3.6 12.72,0 24.32,2.28 34.84,6.85 10.5,4.62 19.56,11.06 27.03,19.35 7.53,8.3 13.33,18.25 17.56,29.79 4.14,11.54 6.22,24.27 6.22,38.16 0,13.75 -2.08,26.4 -6.22,37.87 -4.22,11.47 -10.02,21.36 -17.56,29.79 -7.46,8.37 -16.53,14.86 -27.03,19.49 -10.51,4.7 -22.12,6.98 -34.84,6.98zm-2.83 -36.01c9.05,0 17.2,-1.38 24.53,-4.14 7.26,-2.76 13.48,-6.7 18.59,-11.75 5.11,-5.05 9.06,-11.2 11.82,-18.46 2.83,-7.19 4.21,-15.2 4.21,-23.98 0,-8.5 -1.45,-16.32 -4.28,-23.5 -2.84,-7.12 -6.85,-13.34 -11.96,-18.53 -5.11,-5.18 -11.33,-9.27 -18.59,-12.17 -7.33,-2.9 -15.41,-4.35 -24.32,-4.35 -8.09,0 -15.69,1.38 -22.82,4.14 -7.04,2.83 -13.26,6.77 -18.66,11.88 -5.46,5.12 -9.67,11.28 -12.78,18.39 -3.11,7.19 -4.63,15.2 -4.63,24.13 0,8.36 1.46,16.11 4.36,23.22 2.9,7.05 6.91,13.21 12.1,18.39 5.25,5.18 11.4,9.26 18.66,12.24 7.18,2.97 15.14,4.49 23.78,4.49zm-134.64 -10.36c6.84,0 13.26,-1.24 19.14,-3.73 5.88,-2.49 10.99,-5.95 15.34,-10.3 4.43,-4.43 7.89,-9.47 10.37,-15.27 2.49,-5.81 3.73,-12.03 3.73,-18.66 0,-6.64 -1.31,-12.86 -3.88,-18.73 -2.56,-5.88 -6.01,-10.99 -10.43,-15.28 -4.35,-4.35 -9.47,-7.74 -15.34,-10.36 -5.88,-2.56 -12.17,-3.8 -18.94,-3.8 -7.05,0 -13.48,1.24 -19.43,3.73 -5.95,2.49 -11.13,5.88 -15.41,10.23 -4.36,4.29 -7.75,9.4 -10.24,15.27 -2.49,5.88 -3.73,12.17 -3.73,18.95 0,7.18 1.24,13.69 3.8,19.55 2.64,5.88 6.08,10.92 10.44,15.21 4.42,4.21 9.61,7.46 15.55,9.81 5.88,2.28 12.24,3.39 19.01,3.39z"/>
  <path id="_11_10" class="fil2" d="M166.64 7833.85c24.27,0 45.83,2.15 64.56,6.56 18.8,4.36 34.63,10.72 47.48,19.01 12.93,8.29 22.75,18.53 29.38,30.61 6.7,12.1 10.02,25.78 10.02,41.19 0,14.59 -3.18,27.59 -9.61,38.99 -6.43,11.4 -15.75,21.01 -28.06,28.82 -12.24,7.88 -27.37,13.82 -45.2,17.83 -17.91,4.08 -38.43,6.08 -61.52,6.08 -25.36,0 -47.76,-2.15 -67.18,-6.36 -19.49,-4.29 -35.74,-10.51 -48.93,-18.73 -13.14,-8.23 -23.09,-18.46 -29.72,-30.69 -6.7,-12.24 -10.09,-26.2 -10.09,-42.03 0,-60.88 49.63,-91.3 148.88,-91.3zm3.25 34c-82.66,0 -123.92,19.63 -123.92,58.9 0,41.47 42.02,62.21 126.14,62.21 78.45,0 117.64,-20.33 117.64,-60.96 0,-40.09 -39.95,-60.14 -119.85,-60.14z"/>
  <path id="_12_11" class="fil2" d="M98.77 5962.68c-8.91,0 -16.65,1.39 -23.3,4.15 -6.56,2.76 -12.09,6.56 -16.45,11.33 -4.43,4.84 -7.67,10.43 -9.82,16.93 -2.21,6.5 -3.24,13.48 -3.24,21.08 0,6.44 0.82,12.79 2.63,19.01 1.72,6.22 4.14,12.24 7.25,18.1 3.12,5.88 6.85,11.54 11.13,17.01 4.36,5.53 9.13,10.57 14.38,15.34l-35.6 0c-9.05,-9.33 -15.96,-19.77 -20.8,-31.31 -4.77,-11.54 -7.19,-25.65 -7.19,-42.23 0,-11.88 1.72,-22.87 5.18,-32.97 3.46,-10.16 8.5,-18.95 15.07,-26.33 6.63,-7.46 14.79,-13.27 24.54,-17.57 9.75,-4.21 20.88,-6.36 33.39,-6.36 11.47,0 21.9,1.31 31.24,3.94 9.26,2.64 18.04,6.64 26.26,11.96 8.3,5.32 16.17,12.03 23.71,20.18 7.6,8.09 15.27,17.56 23.08,28.55 9.75,13.62 18.05,24.81 24.95,33.66 6.85,8.85 13.27,15.9 19.29,21.08 6.02,5.18 12.03,8.85 18.04,10.92 6.02,2.15 12.93,3.17 20.74,3.17l0 -144.6 29.79 0 0 179.23 -14.38 0c-12.44,0 -23.35,-1.38 -32.83,-4.08 -9.39,-2.69 -18.39,-7.12 -26.88,-13.34 -8.5,-6.22 -17.01,-14.37 -25.51,-24.39 -8.5,-10.09 -18.11,-22.39 -28.75,-36.98 -7.6,-10.5 -14.79,-19.36 -21.7,-26.4 -6.92,-7.12 -13.76,-12.78 -20.67,-17.14 -6.85,-4.28 -13.82,-7.4 -20.94,-9.19 -7.12,-1.87 -14.59,-2.77 -22.6,-2.77z"/>
  <path id="_13_12" class="fil2" d="M313.04 5748.9l0 33.18 -250.9 0c2.56,2.56 5.53,6.36 8.85,11.27 3.24,4.91 6.56,10.43 9.82,16.59 3.24,6.15 6.22,12.65 9.05,19.43 2.9,6.84 5.11,13.48 6.7,19.97l-33.59 0c-2,-7.26 -4.77,-15 -8.22,-23.16 -3.46,-8.22 -7.26,-16.24 -11.55,-24.12 -4.21,-7.88 -8.71,-15.34 -13.33,-22.39 -4.7,-6.98 -9.2,-13.07 -13.69,-18.25l0 -12.51 296.86 0z"/>
  <path id="_14_13" class="fil2" d="M220.9 5465.04c14.17,0 27.23,2.28 39.05,6.84 11.89,4.63 22.19,10.99 30.83,19.08 8.64,8.08 15.34,17.76 20.11,28.96 4.84,11.2 7.19,23.36 7.19,36.42 0,14.59 -3.04,27.65 -9.12,39.2 -6.02,11.54 -14.79,21.36 -26.2,29.37 -11.4,8.02 -25.37,14.11 -41.82,18.32 -16.45,4.21 -35.04,6.29 -55.71,6.29 -25.23,0 -48.1,-2.83 -68.7,-8.43 -20.59,-5.59 -38.22,-13.55 -52.87,-23.91 -14.66,-10.3 -25.92,-22.74 -33.93,-37.32 -7.95,-14.59 -11.96,-30.83 -11.96,-48.8 0,-19.97 2.83,-36.08 8.37,-48.18l31.38 0c-7.74,14.93 -11.54,30.76 -11.54,47.35 0,13 2.9,24.68 8.71,35.04 5.8,10.37 13.96,19.29 24.6,26.75 10.58,7.4 23.36,13.13 38.36,17.07 15,4.02 31.66,6.02 49.97,6.02l0 -0.82c-24.12,-13.34 -36.22,-35.46 -36.22,-66.22 0,-12.72 2.15,-24.12 6.5,-34.35 4.29,-10.16 10.44,-18.87 18.32,-26.06 7.88,-7.26 17.28,-12.85 28.27,-16.72 10.92,-3.95 23.08,-5.88 36.42,-5.88zm4.21 34c-10.09,0 -19.21,1.31 -27.3,3.87 -8.08,2.56 -15,6.22 -20.66,10.99 -5.67,4.84 -10.02,10.72 -13.07,17.76 -3.04,6.98 -4.56,15 -4.56,23.84 0,8.3 1.59,15.9 4.7,22.88 3.11,7.05 7.32,13.13 12.65,18.25 5.32,5.11 11.54,9.12 18.59,12.02 7.11,2.9 14.65,4.36 22.6,4.36 10.02,0 19.35,-1.38 28.06,-4.22 8.71,-2.83 16.31,-6.84 22.75,-11.95 6.5,-5.11 11.61,-11.27 15.27,-18.32 3.73,-7.12 5.59,-14.93 5.59,-23.57 0,-8.37 -1.59,-16.04 -4.77,-22.87 -3.17,-6.92 -7.6,-12.79 -13.26,-17.62 -5.67,-4.91 -12.44,-8.64 -20.33,-11.34 -7.88,-2.69 -16.65,-4.08 -26.26,-4.08z"/>
  <path id="_15_14" class="fil2" d="M166.64 5241.93c24.27,0 45.83,2.15 64.56,6.56 18.8,4.36 34.63,10.72 47.48,19.01 12.93,8.29 22.75,18.53 29.38,30.61 6.7,12.1 10.02,25.78 10.02,41.19 0,14.59 -3.18,27.59 -9.61,38.99 -6.43,11.4 -15.75,21.01 -28.06,28.82 -12.24,7.88 -27.37,13.82 -45.2,17.83 -17.91,4.08 -38.43,6.08 -61.52,6.08 -25.36,0 -47.76,-2.15 -67.18,-6.36 -19.49,-4.29 -35.74,-10.51 -48.93,-18.73 -13.14,-8.23 -23.09,-18.46 -29.72,-30.69 -6.7,-12.24 -10.09,-26.2 -10.09,-42.03 0,-60.88 49.63,-91.3 148.88,-91.3zm3.25 34c-82.66,0 -123.92,19.63 -123.92,58.9 0,41.47 42.02,62.21 126.14,62.21 78.45,0 117.64,-20.33 117.64,-60.96 0,-40.09 -39.95,-60.14 -119.85,-60.14z"/>
  <path id="_16_15" class="fil2" d="M283.04 5157.27l0 0.82 125.38 0 0 33.25 -302.75 0 0 -33.25 36.43 0 0 -0.82c-27.51,-16.31 -41.26,-40.23 -41.26,-71.68 0,-26.68 9.26,-47.55 27.85,-62.55 18.53,-15 43.41,-22.46 74.58,-22.46 34.7,0 62.48,8.43 83.36,25.29 20.81,16.87 31.24,39.95 31.24,69.26 0,26.88 -11.61,47.55 -34.84,62.14zm-83.63 0.82l28.96 0c17.14,0 31.72,-5.53 43.68,-16.72 11.96,-11.13 17.9,-25.23 17.9,-42.37 0,-20.11 -7.67,-35.87 -23.08,-47.28 -15.41,-11.4 -36.78,-17.14 -64.22,-17.14 -23.08,0 -41.13,5.32 -54.25,16.04 -13.07,10.65 -19.63,25.09 -19.63,43.27 0,19.35 6.7,34.84 20.11,46.58 13.48,11.76 30.27,17.62 50.53,17.62z"/>
 </g>
</svg>
