<?xml version="1.0" encoding="UTF-8"?>
<!DOCTYPE svg PUBLIC "-//W3C//DTD SVG 1.1//EN" "http://www.w3.org/Graphics/SVG/1.1/DTD/svg11.dtd">
<!-- Creator: CorelDRAW -->
<svg xmlns="http://www.w3.org/2000/svg" xml:space="preserve" width="254.235mm" height="147.971mm" version="1.1" style="shape-rendering:geometricPrecision; text-rendering:geometricPrecision; image-rendering:optimizeQuality; fill-rule:evenodd; clip-rule:evenodd"
viewBox="0 0 24906.01 14495.92"
 xmlns:xlink="http://www.w3.org/1999/xlink"
 xmlns:xodm="http://www.corel.com/coreldraw/odm/2003">
 <defs>
  <style type="text/css">
   <![CDATA[
    .str1 {stroke:#B3B3B3;stroke-width:69.12;stroke-miterlimit:22.9256}
    .str2 {stroke:#B3B3B3;stroke-width:19.59;stroke-miterlimit:22.9256}
    .str0 {stroke:#E6E6E6;stroke-width:19.59;stroke-miterlimit:22.9256}
    .fil0 {fill:none}
    .fil1 {fill:#F0F0F0}
    .fil2 {fill:#B3B3B3;fill-rule:nonzero}
   ]]>
  </style>
   <clipPath id="id0">
    <path d="M593.37 569.01l23887.63 0 0 13436.79 -23887.63 0 0 -13436.79z"/>
   </clipPath>
 </defs>
 <g id="Layer_x0020_1">
  <metadata id="CorelCorpID_0Corel-Layer"/>
  <g id="_1900537354720">
   <rect class="fil0 str0" x="593.37" y="569" width="5971.91" height="4478.93"/>
   <rect class="fil0 str0" x="593.37" y="5047.93" width="5971.91" height="4478.93"/>
   <rect class="fil0 str0" x="593.37" y="9526.86" width="5971.91" height="4478.93"/>
   <rect class="fil0 str0" x="6565.28" y="569" width="5971.91" height="4478.93"/>
   <rect class="fil0 str0" x="6565.28" y="5047.93" width="5971.91" height="4478.93"/>
   <rect class="fil0 str0" x="6565.28" y="9526.86" width="5971.91" height="4478.93"/>
   <rect class="fil0 str0" x="12537.19" y="569" width="5971.91" height="4478.93"/>
   <rect class="fil0 str0" x="12537.19" y="5047.93" width="5971.91" height="4478.93"/>
   <rect class="fil0 str0" x="12537.19" y="9526.86" width="5971.91" height="4478.93"/>
   <rect class="fil0 str0" x="18509.1" y="569" width="5971.91" height="4478.93"/>
   <rect class="fil0 str0" x="18509.1" y="5047.93" width="5971.91" height="4478.93"/>
   <rect class="fil0 str0" x="18509.1" y="9526.86" width="5971.91" height="4478.93"/>
  </g>
  <g>
  </g>
  <g style="clip-path:url(#id0)">
   <g id="_1900537377904">
    <path class="fil1 str1" d="M16202.08 13451.17c39.41,7.27 49.31,17.16 59.14,54.01l-59.14 -54.01zm296.72 -794.52c80.87,0 63.64,-19.76 124.44,-33.93 -1.14,51.38 -16.03,79.3 -33.93,113.14 -40.19,-26.92 -62.95,-38.04 -90.51,-79.2zm-950.33 -2330.58c309.69,0 278.3,-25.47 376.98,-222.64l177.38 -309.1c0,115.6 57.8,511.55 56.71,701.29 -1.5,262.61 12.43,485.39 11.1,746.92 -0.44,83.4 23.58,453.9 43.74,521.92 112.2,378.7 359.81,393.75 374.93,575.42 -60.47,29.02 -40.54,3.82 -84,63.06 -95.9,130.67 -148.1,16.06 -425.19,4.91 -125.9,-5.06 -209.59,-25.8 -265.11,-108.24 -169.81,-252.13 -201.02,-759.9 -209.63,-1091.42 -1.61,-61.91 -10.57,-103.85 -11.24,-181.1 -1.32,-154.76 -45.66,-550.52 -45.66,-701.02zm4955.33 1878.05c-19.24,-82.58 -109.46,-249.13 -135.76,-362.03 39.73,-19.07 75.44,-20.82 120.14,-38.25 345.48,-134.71 423.02,-748.73 330.27,-1090.99 -20.83,-76.86 -54.82,-144.91 -71.05,-234.41 -15.7,-86.62 5.96,-296.87 5.22,-435.29 -0.36,-68.59 7.14,-95.95 11.39,-147 104.33,120.03 175.61,327.91 233.04,445.77 16.19,33.23 16.58,38.87 48.87,52.96 129.38,56.39 556.24,-43.05 657.11,-91.44 -7.58,91.16 -136.86,495.85 -176.13,593.18 -45.31,112.33 -73.24,163.28 -128.7,255.96l-446.33 718.98c-62.55,93.6 -89.34,138.09 -179.64,205.02 -61.97,45.94 -176.28,119.86 -268.44,127.53zm-3065.97 -7455.63c0,115.47 22.63,199.05 22.63,305.46 0,132.1 -111.61,362.83 79.18,407.29 0,123.7 2.39,180.58 23.36,282.11 8.35,40.41 20.41,90.37 31.65,126.74 14.52,46.89 34.33,70.32 35.5,122.89 -50.79,13.57 -80.6,63.94 -116.02,98.94 -133.4,131.86 -162.38,255.48 -360.46,318.35 -289.71,91.97 -374.02,66.54 -677.68,216.1 -142.88,70.38 -346.75,126.81 -406.67,260.82 -18.39,41.12 -6.77,40.92 -48.91,64.24 -275.34,152.32 -394.72,622.98 -555.93,892.2 -99.72,166.54 -362.97,723.48 -438.04,908.27 -40.72,100.24 -92.9,201.98 -134.31,306.92 -42.87,108.62 -75.47,220.03 -119.56,332.98l-107.54 334.55c-24.02,90.59 25.03,77.77 2.3,181.92 -127.52,584.22 348.18,1993.86 489.59,2562.91 65.72,264.49 158.15,546.99 370.42,704.37 140.09,103.86 348.23,209.62 462.24,341.02l127.48 144.35c43.17,50.62 43.83,47.21 16.79,112.19 -81.18,195.12 -158.85,466.19 -218.72,675.75 -112.09,392.3 -97.86,829.98 -218.23,1218.6 -162.2,523.73 -352.6,1173.27 -445.73,1715.15 -168.52,980.62 -323.16,1467.96 -124.31,2495.05 10.51,54.26 17.93,87.48 27.12,142.6 30.49,183.05 16.57,245.52 -16.3,439.29 -12.42,73.27 -14.06,178.54 -29.28,253.55 -205.93,1014.4 -250.09,640.28 -250.09,1831.6 0,234.78 45.96,462.24 -13.4,699.35 -51.02,203.77 -54.62,180.6 -9.23,375.44 -116.33,77.9 -199.95,178.97 -313.43,263.56 -269.13,200.61 -811.3,187.68 -927.42,532.03 -21.61,64.11 -5.41,71.01 -16.12,130.96 -9.64,54 -44.09,39.25 -44.09,136.92 0,154.78 573.52,147.07 724.06,147.07 144.43,0 312.19,-32.28 434.62,-63.18 139.91,-35.31 249.82,-83.82 373.49,-135.61 122.05,-51.13 229.31,-99.84 345.68,-152.12 106.06,-47.64 254.27,-125.65 373.55,-135.57 17.81,66.73 86.19,136.55 101.81,203.65 184.36,0 560.81,-16.87 693.4,-143.81 106.76,-102.2 72.2,-309.88 64,-444.99 -5.21,-86.03 25.91,-97.11 45.52,-159.01 21.59,-68.16 -22.29,-251.88 -22.29,-349.61 0,-155.48 46.47,-445.6 45.41,-633.41 -2.49,-435.06 26.42,-593.65 137.87,-1004.8 15.75,-58.1 35.17,-104.29 48.14,-178.13 32.61,-185.38 27.21,-478.96 7.83,-651.67 -13.61,-121.12 -1.66,-321.28 -1.65,-450.89 0,-83.63 -0.65,-149.08 -9.22,-217.06 -46.44,-368.59 0.47,-278.76 -2.15,-574.93 -0.71,-79.66 10.97,-112.66 11.8,-180.52 0.83,-67.53 -0.37,-136.41 -0.45,-204.1 -0.18,-145.24 16.49,-229.18 43.01,-341.66l158.41 -622.23c27.33,-110 47.68,-211.93 70.93,-325.05 31.74,-154.52 73.35,-294.71 150.99,-425.99l376.4 -607.89c145.47,-245.4 278.68,-510.97 378.2,-787.09l155.75 -432.55c38.57,-120.48 76.9,-335.38 182.33,-405.98 65.64,136.82 41.22,480.13 67.85,633.59 67.09,386.52 149.18,775.08 256.43,1146.44 52.23,180.86 61.05,423.31 60.11,652.65 -0.29,72.42 11.25,92.35 12.03,157.68 1.98,164.01 20.15,325.85 49.57,482.16 90.72,482.03 110.92,615.13 108.3,1124.89 -0.39,75.7 9.91,107.69 11.76,169.25 1.66,55.22 -0.41,114.69 -0.64,170.34 -0.3,75.02 11.88,97.55 11.97,169.05 0.36,322.95 23.37,321.55 -24.9,666.01 -100.64,718.26 -200.9,790.88 -113.29,1565.2 9.84,86.92 15.68,147.66 29.49,230.72 12.77,76.91 40.43,159.34 40.43,231.1 0,91.33 -113.14,56.57 -113.14,316.78 0,138.55 31.58,62.51 -24.26,213.33 -33.03,89.24 -43.62,213.66 -43.62,318.41 0,188.09 49.13,61.57 -125.93,281.34l-192.49 248.75c-91.51,122.34 -202.37,248.33 -270.2,385.99 -73.19,148.55 -16.23,196.21 -51.76,275.55 -12.61,28.17 -27.12,63.41 -27.12,98.1 0,84.77 217.74,135.76 316.78,135.76 425.85,0 726.26,-29.92 1078.67,-222.38 254.29,-138.87 211.83,-158.53 236.18,-306.88 6.93,-42.21 21.75,-45.3 31.47,-81.67 192.23,0 217.15,11.6 348.22,-115.62 105.91,-102.78 70.81,-244.46 70.37,-393.5 -0.4,-131.65 -18.96,-106.2 48.12,-178.15 90.59,-97.18 35.24,-290.72 57.95,-417.21 12.31,-68.57 41.33,-117.35 63.79,-173.8 85.01,-213.55 126.92,-508.88 171.24,-767.79 50.17,-293.01 79.37,-759.25 88.45,-1076.83l11.24 -226.36c0.9,-74.51 12.21,-134.88 11.69,-225.9 -0.52,-91.48 11.94,-134.61 11.46,-226.12 -1.56,-303.23 22.55,-611.98 22.55,-916.48 0,-696.3 35.3,-1384.49 34.33,-2082.08l-45.31 -916.35c-13.33,-240.06 -45.58,-444.69 -45.58,-689.79 0,-252.04 9.87,-496.1 32.9,-736.43 28.9,-301.64 6.43,-631.72 59.06,-936.54 36.82,-213.25 55.11,-372.46 55.11,-601.06 0,-116.93 -46.47,-201 -74.43,-298.92 -29.44,-103.1 -48.37,-196.5 -72.64,-300.69 90.08,-7.5 384.95,-213.75 454.32,-269.75 133.22,-107.53 222.75,-262.7 326.19,-397.87 182.15,-238.03 347.66,-405.99 493.13,-592.97 272.96,-350.85 547.83,-619.61 777.6,-1032.56 132.09,-237.38 245.45,-476.37 366.03,-720.07 44.4,-89.74 105.63,-155.24 105.63,-279.02 0,-96.7 -78.32,-164.94 -118.08,-244.73 -36.09,-72.46 15.91,-97.78 -36.55,-166.32 -208.74,-272.76 -578.27,-777.73 -781.67,-1005.86 -18.78,-21.06 -32.05,-30.16 -49.67,-52.17 -106.64,-133.24 -120.51,-137.25 -240.67,-302.38 -130.32,-179.06 -366.83,-605.09 -512.69,-754.42l-153.23 -163.56c-129.31,-123.17 44.65,-239.25 -189.29,-342.45 -198.65,-87.64 -383.27,-185.16 -589.6,-258.91 -149.62,-53.47 -299.07,-124.47 -439.62,-193.93 -47.97,-23.71 -99.11,-43.56 -147.25,-67.71 -48.76,-24.45 -91.32,-47.72 -145.28,-69.67 -73.72,-30 -75.13,-32.16 -182.8,-32.16 -27.75,-119.1 -107.55,-279.68 -248.9,-282.83 10.88,-46.72 15.04,-109.66 21.94,-159.06 7.83,-56 23.31,-113.02 23.31,-169.03 160.95,0 166.71,-81.21 203.69,-214.91 134.99,-488.05 7.32,-420.89 88.14,-715.12 78.67,-286.32 76.16,-501.04 -43.06,-766.87 -252.95,-564.08 -519.85,-427.1 -838.51,-519.11 -351.3,-101.43 -890.65,64.66 -1096.07,349.19 -343.8,476.19 -132.34,781.2 -183.47,924.53 -7.44,20.83 -20.08,36.53 -20.08,59.85z"/>
   </g>
  </g>
  <polygon class="fil0 str2" points="593.37,569.01 24481.01,569.01 24481.01,14005.8 593.37,14005.8 "/>
  <polygon class="fil2" points="10397.78,53.43 10284.36,53.43 10284.36,153.85 10389.28,153.85 10389.28,184.48 10284.36,184.48 10284.36,313.04 10250.36,313.04 10250.36,22.67 10397.78,22.67 "/>
  <polygon id="_1" class="fil2" points="10671.15,313.04 10637.15,313.04 10637.15,180.61 10486.88,180.61 10486.88,313.04 10452.88,313.04 10452.88,22.67 10486.88,22.67 10486.88,150.05 10637.15,150.05 10637.15,22.67 10671.15,22.67 "/>
  <path id="_2" class="fil2" d="M10747.32 313.04l0 -290.37 80.17 0c102.29,0 153.51,47.14 153.51,141.56 0,44.78 -14.23,80.79 -42.64,108.03 -28.41,27.17 -66.42,40.78 -114.12,40.78l-76.92 0zm34 -259.61l0 228.84 43.34 0c38.08,0 67.66,-10.23 88.88,-30.61 21.22,-20.4 31.8,-49.29 31.8,-86.68 0,-74.37 -39.54,-111.55 -118.68,-111.55l-45.34 0z"/>
  <path id="_3" class="fil2" d="M11260.24 313.04l-33.18 0 0 -250.9c-2.56,2.56 -6.36,5.53 -11.27,8.85 -4.91,3.24 -10.43,6.56 -16.59,9.82 -6.15,3.17 -12.65,6.22 -19.43,9.05 -6.84,2.9 -13.48,5.11 -19.97,6.7l0 -33.59c7.26,-2.07 15,-4.77 23.16,-8.22 8.22,-3.46 16.24,-7.26 24.12,-11.55 7.88,-4.21 15.34,-8.71 22.39,-13.33 6.98,-4.7 13.07,-9.2 18.25,-13.69l12.51 0 0 296.86z"/>
  <path id="_4" class="fil2" d="M11540.44 150.39c0,26.62 -2.63,50.26 -7.88,70.98 -5.25,20.74 -12.92,38.29 -23.09,52.68 -10.09,14.37 -22.46,25.29 -37.04,32.83 -14.59,7.46 -31.17,11.2 -49.83,11.2 -19.15,0 -36.01,-3.39 -50.6,-10.09l0 -31.8c16.04,9.06 33.18,13.55 51.42,13.55 13.14,0 24.81,-2.69 35.11,-8.08 10.37,-5.4 19.08,-13.27 26.27,-23.57 7.11,-10.36 12.58,-23.09 16.38,-38.23 3.8,-15.07 5.66,-32.42 5.66,-52.05l-0.82 0c-12.37,25.02 -34.01,37.46 -64.76,37.46 -12.44,0 -23.85,-2.14 -34.22,-6.56 -10.43,-4.35 -19.42,-10.57 -26.96,-18.59 -7.53,-8.08 -13.4,-17.62 -17.62,-28.68 -4.14,-11.06 -6.29,-23.29 -6.29,-36.63 0,-14.31 2.35,-27.44 7.05,-39.33 4.63,-11.81 11.13,-22.04 19.43,-30.61 8.29,-8.57 18.1,-15.28 29.51,-19.97 11.47,-4.7 23.91,-7.12 37.39,-7.12 14.59,0 27.51,2.97 38.77,8.85 11.27,5.88 20.74,14.45 28.48,25.72 7.67,11.27 13.55,25.16 17.62,41.61 4.02,16.45 6.02,35.32 6.02,56.47zm-35.81 -29.71c0,-11.2 -1.45,-21.43 -4.35,-30.62 -2.9,-9.12 -6.92,-17.01 -12.03,-23.57 -5.18,-6.56 -11.27,-11.61 -18.38,-15.2 -7.05,-3.53 -14.79,-5.32 -23.16,-5.32 -7.94,0 -15.41,1.59 -22.26,4.76 -6.91,3.12 -12.85,7.6 -17.97,13.34 -5.05,5.74 -8.99,12.58 -11.89,20.46 -2.9,7.88 -4.35,16.52 -4.35,25.77 0,10.3 1.38,19.49 4.14,27.58 2.76,8.09 6.7,14.93 11.81,20.53 5.12,5.59 11.34,9.88 18.53,12.85 7.26,2.98 15.21,4.5 23.99,4.5 7.74,0 15,-1.45 21.77,-4.36 6.85,-2.9 12.78,-6.84 17.83,-11.75 5.05,-4.98 9.06,-10.79 11.96,-17.42 2.9,-6.71 4.35,-13.89 4.35,-21.56z"/>
  <path id="_5" class="fil2" d="M11717.04 98.77c0,-8.91 -1.39,-16.65 -4.15,-23.3 -2.76,-6.56 -6.56,-12.09 -11.33,-16.45 -4.84,-4.43 -10.43,-7.67 -16.93,-9.82 -6.5,-2.21 -13.48,-3.24 -21.08,-3.24 -6.44,0 -12.79,0.82 -19.01,2.63 -6.22,1.72 -12.24,4.14 -18.1,7.25 -5.88,3.12 -11.54,6.85 -17.01,11.13 -5.53,4.36 -10.57,9.13 -15.34,14.38l0 -35.6c9.33,-9.05 19.77,-15.96 31.31,-20.8 11.54,-4.77 25.65,-7.19 42.23,-7.19 11.88,0 22.87,1.72 32.97,5.18 10.16,3.46 18.95,8.5 26.33,15.07 7.46,6.63 13.27,14.79 17.57,24.54 4.21,9.75 6.36,20.88 6.36,33.39 0,11.47 -1.31,21.9 -3.94,31.24 -2.64,9.26 -6.64,18.04 -11.96,26.26 -5.32,8.3 -12.03,16.17 -20.18,23.71 -8.09,7.6 -17.56,15.27 -28.55,23.08 -13.62,9.75 -24.81,18.05 -33.66,24.95 -8.85,6.85 -15.9,13.27 -21.08,19.29 -5.18,6.02 -8.85,12.03 -10.92,18.04 -2.15,6.02 -3.17,12.93 -3.17,20.74l144.6 0 0 29.79 -179.23 0 0 -14.38c0,-12.44 1.38,-23.35 4.08,-32.83 2.69,-9.39 7.12,-18.39 13.34,-26.88 6.22,-8.5 14.37,-17.01 24.39,-25.51 10.09,-8.5 22.39,-18.11 36.98,-28.75 10.5,-7.6 19.36,-14.79 26.4,-21.7 7.12,-6.92 12.78,-13.76 17.14,-20.67 4.28,-6.85 7.4,-13.82 9.19,-20.94 1.87,-7.12 2.77,-14.59 2.77,-22.6z"/>
  <path id="_6" class="fil2" d="M11990.74 166.64c0,24.27 -2.15,45.83 -6.56,64.56 -4.36,18.8 -10.72,34.63 -19.01,47.48 -8.29,12.93 -18.53,22.68 -30.61,29.38 -12.1,6.7 -25.78,10.02 -41.19,10.02 -14.59,0 -27.59,-3.18 -38.99,-9.61 -11.4,-6.43 -21.01,-15.75 -28.82,-28.06 -7.88,-12.24 -13.82,-27.37 -17.83,-45.2 -4.08,-17.91 -6.08,-38.43 -6.08,-61.52 0,-25.36 2.15,-47.76 6.36,-67.18 4.29,-19.49 10.51,-35.74 18.73,-48.93 8.23,-13.14 18.46,-23.09 30.69,-29.79 12.24,-6.63 26.2,-10.02 42.03,-10.02 60.88,0 91.3,49.63 91.3,148.88zm-34 3.25c0,-82.66 -19.63,-123.92 -58.9,-123.92 -41.47,0 -62.21,42.02 -62.21,126.14 0,78.45 20.33,117.64 60.96,117.64 40.09,0 60.14,-39.95 60.14,-119.85z"/>
  <path id="_7" class="fil2" d="M12075.4 283.04l-0.82 0 0 125.38 -33.25 0 0 -302.75 33.25 0 0 36.43 0.82 0c16.31,-27.51 40.23,-41.26 71.68,-41.26 26.68,0 47.55,9.26 62.55,27.85 15,18.53 22.46,43.41 22.46,74.58 0,34.7 -8.43,62.48 -25.29,83.36 -16.87,20.81 -39.95,31.24 -69.26,31.24 -26.88,0 -47.55,-11.61 -62.14,-34.84zm-0.82 -83.63l0 28.96c0,17.14 5.53,31.72 16.72,43.68 11.13,11.96 25.23,17.9 42.37,17.9 20.11,0 35.87,-7.67 47.28,-23.08 11.4,-15.41 17.14,-36.78 17.14,-64.22 0,-23.08 -5.32,-41.13 -16.04,-54.25 -10.65,-13.07 -25.09,-19.63 -43.27,-19.63 -19.35,0 -34.84,6.7 -46.58,20.11 -11.76,13.48 -17.62,30.27 -17.62,50.53z"/>
  <path id="_8" class="fil2" d="M12485.42 317.87c-30.62,0 -55.1,-9.68 -73.4,-29.03 -18.25,-19.36 -27.44,-45.07 -27.44,-77.07 0,-34.84 9.53,-62 28.55,-81.63 19.07,-19.56 44.78,-29.3 77.21,-29.3 30.89,0 55.02,9.46 72.37,28.55 17.35,19.01 25.98,45.41 25.98,79.14 0,33.11 -9.33,59.58 -27.99,79.49 -18.73,19.91 -43.82,29.86 -75.27,29.86zm2.42 -189.11c-21.3,0 -38.16,7.26 -50.6,21.78 -12.44,14.51 -18.66,34.48 -18.66,60.06 0,24.53 6.29,43.89 18.87,58.05 12.58,14.18 29.38,21.29 50.39,21.29 21.49,0 38.01,-6.98 49.55,-20.87 11.55,-13.89 17.28,-33.66 17.28,-59.31 0,-25.92 -5.73,-45.9 -17.28,-59.92 -11.54,-14.1 -28.06,-21.08 -49.55,-21.08zm48.51 -128.76l-53.01 66.42 -25.72 0 45.14 -66.42 33.58 0z"/>
  <path id="_9" class="fil2" d="M12972.29 195.61c0,81.49 -36.77,122.27 -110.39,122.27 -70.43,0 -105.67,-39.2 -105.67,-117.65l0 -177.56 34 0 0 175.36c0,59.5 25.16,89.29 75.33,89.29 48.45,0 72.72,-28.75 72.72,-86.26l0 -178.39 34 0 0 172.94z"/>
  <polygon id="_10" class="fil2" points="13263.07,313.04 13229.07,313.04 13229.07,180.61 13078.8,180.61 13078.8,313.04 13044.8,313.04 13044.8,22.67 13078.8,22.67 13078.8,150.05 13229.07,150.05 13229.07,22.67 13263.07,22.67 "/>
  <path id="_11" class="fil2" d="M13339.24 313.04l0 -290.37 80.17 0c102.29,0 153.51,47.14 153.51,141.56 0,44.78 -14.23,80.79 -42.64,108.03 -28.41,27.17 -66.42,40.78 -114.12,40.78l-76.92 0zm34 -259.61l0 228.84 43.34 0c38.08,0 67.66,-10.23 88.88,-30.61 21.22,-20.4 31.8,-49.29 31.8,-86.68 0,-74.37 -39.54,-111.55 -118.68,-111.55l-45.34 0z"/>
  <path id="_12" class="fil2" d="M13898.54 230.78c0,13.13 -2.49,25.02 -7.4,35.81 -4.91,10.71 -11.89,19.91 -20.88,27.51 -8.98,7.6 -19.7,13.55 -32.28,17.69 -12.58,4.21 -26.4,6.29 -41.54,6.29 -27.65,0 -49.63,-5.25 -66.01,-15.76l0 -35.66c19.63,15.41 42.03,23.08 67.25,23.08 10.16,0 19.28,-1.24 27.44,-3.87 8.16,-2.56 15.2,-6.22 21.08,-11.13 5.88,-4.84 10.36,-10.71 13.55,-17.62 3.17,-6.84 4.77,-14.66 4.77,-23.3 0,-37.87 -27.03,-56.88 -81.01,-56.88l-24.13 0 0 -28.14 22.88 0c47.83,0 71.67,-17.83 71.67,-53.43 0,-32.97 -18.17,-49.41 -54.67,-49.41 -20.45,0 -39.74,6.84 -57.64,20.66l0 -32.21c18.46,-11.06 40.43,-16.65 66.01,-16.65 12.1,0 23.16,1.72 32.97,5.11 9.88,3.39 18.32,8.09 25.3,14.17 7.04,6.08 12.44,13.34 16.31,21.85 3.87,8.5 5.81,17.9 5.81,28.14 0,38.22 -19.36,62.82 -57.93,73.75l0 0.82c9.82,1.04 18.94,3.46 27.3,7.19 8.37,3.66 15.62,8.5 21.7,14.45 6.08,5.95 10.85,12.92 14.24,20.94 3.46,8.01 5.18,16.93 5.18,26.61z"/>
  <path id="_13" class="fil2" d="M13947.34 232.03c0,-7.67 1.18,-15.41 3.6,-23.16 2.49,-7.81 5.94,-15.07 10.43,-21.77 4.57,-6.78 10.16,-12.93 16.79,-18.46 6.71,-5.53 14.31,-9.88 22.82,-13.13 -12.58,-7.05 -22.53,-16.04 -30,-27.03 -7.4,-11.06 -11.13,-23.23 -11.13,-36.57 0,-10.71 2.07,-20.52 6.22,-29.58 4.08,-9.06 9.82,-16.87 17.07,-23.5 7.33,-6.63 15.97,-11.76 25.92,-15.49 10.02,-3.73 20.81,-5.59 32.42,-5.59 11.76,0 22.6,1.93 32.62,5.66 9.95,3.81 18.59,8.99 25.92,15.63 7.26,6.63 12.93,14.45 17.01,23.5 4.01,9.05 6.08,18.8 6.08,29.37 0,13.34 -3.73,25.51 -11.13,36.57 -7.46,10.99 -17.28,19.97 -29.59,27.03 8.37,3.24 15.83,7.6 22.46,13.13 6.63,5.53 12.17,11.68 16.73,18.46 4.49,6.7 7.94,13.96 10.43,21.77 2.42,7.75 3.6,15.49 3.6,23.16 0,12.72 -2.28,24.32 -6.85,34.84 -4.62,10.5 -11.06,19.56 -19.35,27.03 -8.3,7.53 -18.25,13.33 -29.79,17.56 -11.54,4.14 -24.27,6.22 -38.16,6.22 -13.75,0 -26.4,-2.08 -37.87,-6.22 -11.47,-4.22 -21.36,-10.02 -29.79,-17.56 -8.37,-7.46 -14.86,-16.53 -19.49,-27.03 -4.7,-10.51 -6.98,-22.12 -6.98,-34.84zm36.01 -2.83c0,9.05 1.38,17.2 4.14,24.53 2.76,7.26 6.7,13.48 11.75,18.59 5.05,5.11 11.2,9.06 18.46,11.82 7.19,2.83 15.2,4.21 23.98,4.21 8.5,0 16.32,-1.45 23.5,-4.28 7.12,-2.84 13.34,-6.85 18.53,-11.96 5.18,-5.11 9.27,-11.33 12.17,-18.59 2.9,-7.33 4.35,-15.41 4.35,-24.32 0,-8.09 -1.38,-15.69 -4.14,-22.82 -2.83,-7.04 -6.77,-13.26 -11.88,-18.73 -5.12,-5.39 -11.28,-9.6 -18.39,-12.72 -7.19,-3.11 -15.2,-4.63 -24.13,-4.63 -8.36,0 -16.11,1.46 -23.22,4.36 -7.05,2.9 -13.21,6.91 -18.39,12.1 -5.18,5.25 -9.26,11.4 -12.24,18.66 -2.97,7.18 -4.49,15.14 -4.49,23.78zm10.36 -134.64c0,6.84 1.24,13.26 3.73,19.14 2.49,5.88 5.95,10.99 10.3,15.34 4.43,4.43 9.47,7.89 15.27,10.37 5.81,2.49 12.03,3.73 18.66,3.73 6.64,0 12.86,-1.31 18.73,-3.88 5.88,-2.56 10.99,-6.01 15.28,-10.43 4.35,-4.35 7.74,-9.47 10.36,-15.34 2.56,-5.88 3.8,-12.17 3.8,-18.94 0,-7.05 -1.24,-13.48 -3.73,-19.43 -2.49,-5.95 -5.88,-11.13 -10.23,-15.41 -4.29,-4.36 -9.4,-7.75 -15.27,-10.24 -5.88,-2.49 -12.17,-3.73 -18.95,-3.73 -7.18,0 -13.69,1.24 -19.55,3.8 -5.88,2.64 -10.92,6.08 -15.21,10.44 -4.21,4.42 -7.46,9.61 -9.81,15.48 -2.28,5.95 -3.39,12.3 -3.39,19.08z"/>
  <path id="_14" class="fil2" d="M14324.71 22.67l0 191.74 37.26 0 0 30.41 -37.26 0 0 68.22 -32.76 0 0 -68.22 -136.51 0 0 -28.75c12.72,-14.3 25.51,-29.65 38.5,-45.9 12.93,-16.24 25.3,-32.76 37.12,-49.48 11.81,-16.73 22.74,-33.45 32.83,-50.12 10.02,-16.72 18.53,-32.62 25.44,-47.89l35.38 0zm-131.81 191.74l99.05 0 0 -142.11c-10.16,17.62 -19.77,33.45 -28.75,47.35 -9.05,13.89 -17.69,26.54 -25.85,37.87 -8.16,11.33 -15.97,21.56 -23.36,30.76 -7.46,9.19 -14.44,17.9 -21.08,26.13z"/>
  <path id="_15" class="fil2" d="M14582.66 166.64c0,24.27 -2.15,45.83 -6.56,64.56 -4.36,18.8 -10.72,34.63 -19.01,47.48 -8.29,12.93 -18.53,22.68 -30.61,29.38 -12.1,6.7 -25.78,10.02 -41.19,10.02 -14.59,0 -27.59,-3.18 -38.99,-9.61 -11.4,-6.43 -21.01,-15.75 -28.82,-28.06 -7.88,-12.24 -13.82,-27.37 -17.83,-45.2 -4.08,-17.91 -6.08,-38.43 -6.08,-61.52 0,-25.36 2.15,-47.76 6.36,-67.18 4.29,-19.49 10.51,-35.74 18.73,-48.93 8.23,-13.14 18.46,-23.09 30.69,-29.79 12.24,-6.63 26.2,-10.02 42.03,-10.02 60.88,0 91.3,49.63 91.3,148.88zm-34 3.25c0,-82.66 -19.63,-123.92 -58.9,-123.92 -41.47,0 -62.21,42.02 -62.21,126.14 0,78.45 20.33,117.64 60.96,117.64 40.09,0 60.14,-39.95 60.14,-119.85z"/>
  <path id="_16" class="fil2" d="M14667.33 283.04l-0.82 0 0 125.38 -33.25 0 0 -302.75 33.25 0 0 36.43 0.82 0c16.31,-27.51 40.23,-41.26 71.68,-41.26 26.68,0 47.55,9.26 62.55,27.85 15,18.53 22.46,43.41 22.46,74.58 0,34.7 -8.43,62.48 -25.29,83.36 -16.87,20.81 -39.95,31.24 -69.26,31.24 -26.88,0 -47.55,-11.61 -62.14,-34.84zm-0.82 -83.63l0 28.96c0,17.14 5.53,31.72 16.72,43.68 11.13,11.96 25.23,17.9 42.37,17.9 20.11,0 35.87,-7.67 47.28,-23.08 11.4,-15.41 17.14,-36.78 17.14,-64.22 0,-23.08 -5.32,-41.13 -16.04,-54.25 -10.65,-13.07 -25.09,-19.63 -43.27,-19.63 -19.35,0 -34.84,6.7 -46.58,20.11 -11.76,13.48 -17.62,30.27 -17.62,50.53z"/>
  <path class="fil2" d="M3590.57 14492.46l-33.18 0 0 -250.9c-2.56,2.56 -6.36,5.53 -11.27,8.85 -4.91,3.24 -10.43,6.56 -16.59,9.82 -6.15,3.17 -12.65,6.22 -19.43,9.05 -6.84,2.9 -13.48,5.11 -19.97,6.7l0 -33.59c7.26,-2.07 15,-4.77 23.16,-8.22 8.22,-3.46 16.24,-7.26 24.12,-11.55 7.88,-4.21 15.34,-8.71 22.39,-13.33 6.98,-4.7 13.07,-9.2 18.25,-13.69l12.51 0 0 296.86z"/>
  <path class="fil2" d="M24866.61 11970.66l-33.18 0 0 -250.9c-2.56,2.56 -6.36,5.53 -11.27,8.85 -4.91,3.24 -10.43,6.56 -16.59,9.82 -6.15,3.17 -12.65,6.22 -19.43,9.05 -6.84,2.9 -13.48,5.11 -19.97,6.7l0 -33.59c7.26,-2.07 15,-4.77 23.16,-8.22 8.22,-3.46 16.24,-7.26 24.12,-11.55 7.88,-4.21 15.34,-8.71 22.39,-13.33 6.98,-4.7 13.07,-9.2 18.25,-13.69l12.51 0 0 296.86z"/>
  <path class="fil2" d="M9495.91 14276.6c0,-8.91 -1.39,-16.65 -4.15,-23.3 -2.76,-6.56 -6.56,-12.09 -11.33,-16.45 -4.84,-4.43 -10.43,-7.67 -16.93,-9.82 -6.5,-2.21 -13.48,-3.24 -21.08,-3.24 -6.44,0 -12.79,0.82 -19.01,2.63 -6.22,1.72 -12.24,4.14 -18.1,7.25 -5.88,3.12 -11.54,6.85 -17.01,11.13 -5.53,4.36 -10.57,9.13 -15.34,14.38l0 -35.6c9.33,-9.05 19.77,-15.96 31.31,-20.8 11.54,-4.77 25.65,-7.19 42.23,-7.19 11.88,0 22.87,1.72 32.97,5.18 10.16,3.46 18.95,8.5 26.33,15.07 7.46,6.63 13.27,14.79 17.57,24.54 4.21,9.75 6.36,20.88 6.36,33.39 0,11.47 -1.31,21.9 -3.94,31.24 -2.64,9.26 -6.64,18.04 -11.96,26.26 -5.32,8.3 -12.03,16.17 -20.18,23.71 -8.09,7.6 -17.56,15.27 -28.55,23.08 -13.62,9.75 -24.81,18.05 -33.66,24.95 -8.85,6.85 -15.9,13.27 -21.08,19.29 -5.18,6.02 -8.85,12.03 -10.92,18.04 -2.15,6.02 -3.17,12.93 -3.17,20.74l144.6 0 0 29.79 -179.23 0 0 -14.38c0,-12.44 1.38,-23.35 4.08,-32.83 2.69,-9.39 7.12,-18.39 13.34,-26.88 6.22,-8.5 14.37,-17.01 24.39,-25.51 10.09,-8.5 22.39,-18.11 36.98,-28.75 10.5,-7.6 19.36,-14.79 26.4,-21.7 7.12,-6.92 12.78,-13.76 17.14,-20.67 4.28,-6.85 7.4,-13.82 9.19,-20.94 1.87,-7.12 2.77,-14.59 2.77,-22.6z"/>
  <path class="fil2" d="M24861.09 7306.13c0,-8.91 -1.39,-16.65 -4.15,-23.3 -2.76,-6.56 -6.56,-12.09 -11.33,-16.45 -4.84,-4.43 -10.43,-7.67 -16.93,-9.82 -6.5,-2.21 -13.48,-3.24 -21.08,-3.24 -6.44,0 -12.79,0.82 -19.01,2.63 -6.22,1.72 -12.24,4.14 -18.1,7.25 -5.88,3.12 -11.54,6.85 -17.01,11.13 -5.53,4.36 -10.57,9.13 -15.34,14.38l0 -35.6c9.33,-9.05 19.77,-15.96 31.31,-20.8 11.54,-4.77 25.65,-7.19 42.23,-7.19 11.88,0 22.87,1.72 32.97,5.18 10.16,3.46 18.95,8.5 26.33,15.07 7.46,6.63 13.27,14.79 17.57,24.54 4.21,9.75 6.36,20.88 6.36,33.39 0,11.47 -1.31,21.9 -3.94,31.24 -2.64,9.26 -6.64,18.04 -11.96,26.26 -5.32,8.3 -12.03,16.17 -20.18,23.71 -8.09,7.6 -17.56,15.27 -28.55,23.08 -13.62,9.75 -24.81,18.05 -33.66,24.95 -8.85,6.85 -15.9,13.27 -21.08,19.29 -5.18,6.02 -8.85,12.03 -10.92,18.04 -2.15,6.02 -3.17,12.93 -3.17,20.74l144.6 0 0 29.79 -179.23 0 0 -14.38c0,-12.44 1.38,-23.35 4.08,-32.83 2.69,-9.39 7.12,-18.39 13.34,-26.88 6.22,-8.5 14.37,-17.01 24.39,-25.51 10.09,-8.5 22.39,-18.11 36.98,-28.75 10.5,-7.6 19.36,-14.79 26.4,-21.7 7.12,-6.92 12.78,-13.76 17.14,-20.67 4.28,-6.85 7.4,-13.82 9.19,-20.94 1.87,-7.12 2.77,-14.59 2.77,-22.6z"/>
  <path class="fil2" d="M15563.14 14408.62c0,13.13 -2.49,25.02 -7.4,35.81 -4.91,10.71 -11.89,19.91 -20.88,27.51 -8.98,7.6 -19.7,13.55 -32.28,17.69 -12.58,4.21 -26.4,6.29 -41.54,6.29 -27.65,0 -49.63,-5.25 -66.01,-15.76l0 -35.66c19.63,15.41 42.03,23.08 67.25,23.08 10.16,0 19.28,-1.24 27.44,-3.87 8.16,-2.56 15.2,-6.22 21.08,-11.13 5.88,-4.84 10.36,-10.71 13.55,-17.62 3.17,-6.84 4.77,-14.66 4.77,-23.3 0,-37.87 -27.03,-56.88 -81.01,-56.88l-24.13 0 0 -28.14 22.88 0c47.83,0 71.67,-17.83 71.67,-53.43 0,-32.97 -18.17,-49.41 -54.67,-49.41 -20.45,0 -39.74,6.84 -57.64,20.66l0 -32.21c18.46,-11.06 40.43,-16.65 66.01,-16.65 12.1,0 23.16,1.72 32.97,5.11 9.88,3.39 18.32,8.09 25.3,14.17 7.04,6.08 12.44,13.34 16.31,21.85 3.87,8.5 5.81,17.9 5.81,28.14 0,38.22 -19.36,62.82 -57.93,73.75l0 0.82c9.82,1.04 18.94,3.46 27.3,7.19 8.37,3.66 15.62,8.5 21.7,14.45 6.08,5.95 10.85,12.92 14.24,20.94 3.46,8.01 5.18,16.93 5.18,26.61z"/>
  <path class="fil2" d="M24900.45 2920.82c0,13.13 -2.49,25.02 -7.4,35.81 -4.91,10.71 -11.89,19.91 -20.88,27.51 -8.98,7.6 -19.7,13.55 -32.28,17.69 -12.58,4.21 -26.4,6.29 -41.54,6.29 -27.65,0 -49.63,-5.25 -66.01,-15.76l0 -35.66c19.63,15.41 42.03,23.08 67.25,23.08 10.16,0 19.28,-1.24 27.44,-3.87 8.16,-2.56 15.2,-6.22 21.08,-11.13 5.88,-4.84 10.36,-10.71 13.55,-17.62 3.17,-6.84 4.77,-14.66 4.77,-23.3 0,-37.87 -27.03,-56.88 -81.01,-56.88l-24.13 0 0 -28.14 22.88 0c47.83,0 71.67,-17.83 71.67,-53.43 0,-32.97 -18.17,-49.41 -54.67,-49.41 -20.45,0 -39.74,6.84 -57.64,20.66l0 -32.21c18.46,-11.06 40.43,-16.65 66.01,-16.65 12.1,0 23.16,1.72 32.97,5.11 9.88,3.39 18.32,8.09 25.3,14.17 7.04,6.08 12.44,13.34 16.31,21.85 3.87,8.5 5.81,17.9 5.81,28.14 0,38.22 -19.36,62.82 -57.93,73.75l0 0.82c9.82,1.04 18.94,3.46 27.3,7.19 8.37,3.66 15.62,8.5 21.7,14.45 6.08,5.95 10.85,12.92 14.24,20.94 3.46,8.01 5.18,16.93 5.18,26.61z"/>
  <path class="fil2" d="M21376.29 14195.6l0 191.74 37.26 0 0 30.41 -37.26 0 0 68.22 -32.76 0 0 -68.22 -136.51 0 0 -28.75c12.72,-14.3 25.51,-29.65 38.5,-45.9 12.93,-16.24 25.3,-32.76 37.12,-49.48 11.81,-16.73 22.74,-33.45 32.83,-50.12 10.02,-16.72 18.53,-32.62 25.44,-47.89l35.38 0zm-131.81 191.74l99.05 0 0 -142.11c-10.16,17.62 -19.77,33.45 -28.75,47.35 -9.05,13.89 -17.69,26.54 -25.85,37.87 -8.16,11.33 -15.97,21.56 -23.36,30.76 -7.46,9.19 -14.44,17.9 -21.08,26.13z"/>
  <polygon class="fil2" points="53.43,9426.81 53.43,9540.23 153.85,9540.23 153.85,9435.31 184.48,9435.31 184.48,9540.23 313.04,9540.23 313.04,9574.24 22.67,9574.24 22.67,9426.81 "/>
  <polygon id="_1_0" class="fil2" points="313.04,9153.44 313.04,9187.44 180.61,9187.44 180.61,9337.71 313.04,9337.71 313.04,9371.71 22.67,9371.71 22.67,9337.71 150.05,9337.71 150.05,9187.44 22.67,9187.44 22.67,9153.44 "/>
  <path id="_2_1" class="fil2" d="M313.04 9077.27l-290.37 0 0 -80.17c0,-102.29 47.14,-153.51 141.56,-153.51 44.78,0 80.79,14.23 108.03,42.64 27.17,28.41 40.78,66.42 40.78,114.12l0 76.92zm-259.61 -34l228.84 0 0 -43.34c0,-38.08 -10.23,-67.66 -30.61,-88.88 -20.4,-21.22 -49.29,-31.8 -86.68,-31.8 -74.37,0 -111.55,39.54 -111.55,118.68l0 45.34z"/>
  <path id="_3_2" class="fil2" d="M283.04 7749.19l0 0.82 125.38 0 0 33.25 -302.75 0 0 -33.25 36.43 0 0 -0.82c-27.51,-16.31 -41.26,-40.23 -41.26,-71.68 0,-26.68 9.26,-47.55 27.85,-62.55 18.53,-15 43.41,-22.46 74.58,-22.46 34.7,0 62.48,8.43 83.36,25.29 20.81,16.87 31.24,39.95 31.24,69.26 0,26.88 -11.61,47.55 -34.84,62.14zm-83.63 0.82l28.96 0c17.14,0 31.72,-5.53 43.68,-16.72 11.96,-11.13 17.9,-25.23 17.9,-42.37 0,-20.11 -7.67,-35.87 -23.08,-47.28 -15.41,-11.4 -36.78,-17.14 -64.22,-17.14 -23.08,0 -41.13,5.32 -54.25,16.04 -13.07,10.65 -19.63,25.09 -19.63,43.27 0,19.35 6.7,34.84 20.11,46.58 13.48,11.76 30.27,17.62 50.53,17.62z"/>
  <path id="_4_3" class="fil2" d="M317.87 7339.17c0,30.62 -9.68,55.1 -29.03,73.4 -19.36,18.25 -45.07,27.44 -77.07,27.44 -34.84,0 -62,-9.53 -81.63,-28.55 -19.56,-19.07 -29.3,-44.78 -29.3,-77.21 0,-30.89 9.46,-55.02 28.55,-72.37 19.01,-17.35 45.41,-25.98 79.14,-25.98 33.11,0 59.58,9.33 79.49,27.99 19.91,18.73 29.86,43.82 29.86,75.27zm-189.11 -2.42c0,21.3 7.26,38.16 21.78,50.6 14.51,12.44 34.48,18.66 60.06,18.66 24.53,0 43.89,-6.29 58.05,-18.87 14.18,-12.58 21.29,-29.38 21.29,-50.39 0,-21.49 -6.98,-38.01 -20.87,-49.55 -13.89,-11.55 -33.66,-17.28 -59.31,-17.28 -25.92,0 -45.9,5.73 -59.92,17.28 -14.03,11.54 -21.08,28.06 -21.08,49.55zm-128.76 -48.51l66.42 53.01 0 25.72 -66.42 -45.14 0 -33.58z"/>
  <path id="_5_4" class="fil2" d="M195.61 6852.3c81.49,0 122.27,36.77 122.27,110.39 0,70.43 -39.2,105.67 -117.65,105.67l-177.56 0 0 -34 175.36 0c59.5,0 89.29,-25.16 89.29,-75.33 0,-48.45 -28.75,-72.72 -86.26,-72.72l-178.39 0 0 -34 172.94 0z"/>
  <polygon id="_6_5" class="fil2" points="313.04,6561.52 313.04,6595.52 180.61,6595.52 180.61,6745.79 313.04,6745.79 313.04,6779.79 22.67,6779.79 22.67,6745.79 150.05,6745.79 150.05,6595.52 22.67,6595.52 22.67,6561.52 "/>
  <path id="_7_6" class="fil2" d="M313.04 6485.35l-290.37 0 0 -80.17c0,-102.29 47.14,-153.51 141.56,-153.51 44.78,0 80.79,14.23 108.03,42.64 27.17,28.41 40.78,66.42 40.78,114.12l0 76.92zm-259.61 -34l228.84 0 0 -43.34c0,-38.08 -10.23,-67.66 -30.61,-88.88 -20.4,-21.22 -49.29,-31.8 -86.68,-31.8 -74.37,0 -111.55,39.54 -111.55,118.68l0 45.34z"/>
  <path id="_8_7" class="fil2" d="M313.04 8564.35l0 33.18 -250.9 0c2.56,2.56 5.53,6.36 8.85,11.27 3.24,4.91 6.56,10.43 9.82,16.59 3.24,6.15 6.22,12.65 9.05,19.43 2.9,6.84 5.11,13.48 6.7,19.97l-33.59 0c-2,-7.26 -4.77,-15 -8.22,-23.16 -3.46,-8.22 -7.26,-16.24 -11.55,-24.12 -4.21,-7.88 -8.71,-15.34 -13.33,-22.39 -4.7,-6.98 -9.2,-13.07 -13.69,-18.25l0 -12.51 296.86 0z"/>
  <path id="_9_8" class="fil2" d="M166.64 8280.9c24.27,0 45.83,2.15 64.56,6.56 18.8,4.36 34.63,10.72 47.48,19.01 12.93,8.29 22.75,18.53 29.38,30.61 6.7,12.1 10.02,25.78 10.02,41.19 0,14.59 -3.18,27.59 -9.61,38.99 -6.43,11.4 -15.75,21.01 -28.06,28.82 -12.24,7.88 -27.37,13.82 -45.2,17.83 -17.91,4.08 -38.43,6.08 -61.52,6.08 -25.36,0 -47.76,-2.15 -67.18,-6.36 -19.49,-4.29 -35.74,-10.51 -48.93,-18.73 -13.14,-8.23 -23.09,-18.46 -29.72,-30.69 -6.7,-12.24 -10.09,-26.2 -10.09,-42.03 0,-60.88 49.63,-91.3 148.88,-91.3zm3.25 34c-82.66,0 -123.92,19.63 -123.92,58.9 0,41.47 42.02,62.21 126.14,62.21 78.45,0 117.64,-20.33 117.64,-60.96 0,-40.09 -39.95,-60.14 -119.85,-60.14z"/>
  <path id="_10_9" class="fil2" d="M232.03 8245.65c-7.67,0 -15.41,-1.18 -23.16,-3.6 -7.81,-2.49 -15.07,-5.94 -21.77,-10.43 -6.78,-4.57 -12.93,-10.16 -18.46,-16.79 -5.53,-6.71 -9.88,-14.31 -13.13,-22.82 -7.05,12.58 -16.04,22.53 -27.03,30 -11.06,7.4 -23.23,11.13 -36.57,11.13 -10.71,0 -20.52,-2.07 -29.58,-6.22 -9.06,-4.08 -16.87,-9.82 -23.5,-17.07 -6.63,-7.33 -11.76,-15.97 -15.49,-25.92 -3.73,-10.02 -5.59,-20.81 -5.59,-32.42 0,-11.76 1.93,-22.6 5.74,-32.62 3.73,-9.95 8.91,-18.59 15.55,-25.92 6.63,-7.26 14.45,-12.93 23.5,-17.01 9.05,-4.01 18.8,-6.08 29.37,-6.08 13.34,0 25.51,3.73 36.57,11.13 10.99,7.46 19.97,17.28 27.03,29.59 3.24,-8.37 7.6,-15.83 13.13,-22.46 5.53,-6.63 11.68,-12.17 18.46,-16.73 6.7,-4.49 13.96,-7.94 21.77,-10.43 7.75,-2.42 15.49,-3.6 23.16,-3.6 12.72,0 24.32,2.28 34.84,6.85 10.5,4.62 19.56,11.06 27.03,19.35 7.53,8.3 13.33,18.25 17.56,29.79 4.14,11.54 6.22,24.27 6.22,38.16 0,13.75 -2.08,26.4 -6.22,37.87 -4.22,11.47 -10.02,21.36 -17.56,29.79 -7.46,8.37 -16.53,14.86 -27.03,19.49 -10.51,4.7 -22.12,6.98 -34.84,6.98zm-2.83 -36.01c9.05,0 17.2,-1.38 24.53,-4.14 7.26,-2.76 13.48,-6.7 18.59,-11.75 5.11,-5.05 9.06,-11.2 11.82,-18.46 2.83,-7.19 4.21,-15.2 4.21,-23.98 0,-8.5 -1.45,-16.32 -4.28,-23.5 -2.84,-7.12 -6.85,-13.34 -11.96,-18.53 -5.11,-5.18 -11.33,-9.27 -18.59,-12.17 -7.33,-2.9 -15.41,-4.35 -24.32,-4.35 -8.09,0 -15.69,1.38 -22.82,4.14 -7.04,2.83 -13.26,6.77 -18.66,11.88 -5.46,5.12 -9.67,11.28 -12.78,18.39 -3.11,7.19 -4.63,15.2 -4.63,24.13 0,8.36 1.46,16.11 4.36,23.22 2.9,7.05 6.91,13.21 12.1,18.39 5.25,5.18 11.4,9.26 18.66,12.24 7.18,2.97 15.14,4.49 23.78,4.49zm-134.64 -10.36c6.84,0 13.26,-1.24 19.14,-3.73 5.88,-2.49 10.99,-5.95 15.34,-10.3 4.43,-4.43 7.89,-9.47 10.37,-15.27 2.49,-5.81 3.73,-12.03 3.73,-18.66 0,-6.64 -1.31,-12.86 -3.88,-18.73 -2.56,-5.88 -6.01,-10.99 -10.43,-15.28 -4.35,-4.35 -9.47,-7.74 -15.34,-10.36 -5.88,-2.56 -12.17,-3.8 -18.94,-3.8 -7.05,0 -13.48,1.24 -19.43,3.73 -5.95,2.49 -11.13,5.88 -15.41,10.23 -4.36,4.29 -7.75,9.4 -10.24,15.27 -2.49,5.88 -3.73,12.17 -3.73,18.95 0,7.18 1.24,13.69 3.8,19.55 2.64,5.88 6.08,10.92 10.44,15.21 4.42,4.21 9.61,7.46 15.55,9.81 5.88,2.28 12.24,3.39 19.01,3.39z"/>
  <path id="_11_10" class="fil2" d="M166.64 7833.85c24.27,0 45.83,2.15 64.56,6.56 18.8,4.36 34.63,10.72 47.48,19.01 12.93,8.29 22.75,18.53 29.38,30.61 6.7,12.1 10.02,25.78 10.02,41.19 0,14.59 -3.18,27.59 -9.61,38.99 -6.43,11.4 -15.75,21.01 -28.06,28.82 -12.24,7.88 -27.37,13.82 -45.2,17.83 -17.91,4.08 -38.43,6.08 -61.52,6.08 -25.36,0 -47.76,-2.15 -67.18,-6.36 -19.49,-4.29 -35.74,-10.51 -48.93,-18.73 -13.14,-8.23 -23.09,-18.46 -29.72,-30.69 -6.7,-12.24 -10.09,-26.2 -10.09,-42.03 0,-60.88 49.63,-91.3 148.88,-91.3zm3.25 34c-82.66,0 -123.92,19.63 -123.92,58.9 0,41.47 42.02,62.21 126.14,62.21 78.45,0 117.64,-20.33 117.64,-60.96 0,-40.09 -39.95,-60.14 -119.85,-60.14z"/>
  <path id="_12_11" class="fil2" d="M98.77 5962.68c-8.91,0 -16.65,1.39 -23.3,4.15 -6.56,2.76 -12.09,6.56 -16.45,11.33 -4.43,4.84 -7.67,10.43 -9.82,16.93 -2.21,6.5 -3.24,13.48 -3.24,21.08 0,6.44 0.82,12.79 2.63,19.01 1.72,6.22 4.14,12.24 7.25,18.1 3.12,5.88 6.85,11.54 11.13,17.01 4.36,5.53 9.13,10.57 14.38,15.34l-35.6 0c-9.05,-9.33 -15.96,-19.77 -20.8,-31.31 -4.77,-11.54 -7.19,-25.65 -7.19,-42.23 0,-11.88 1.72,-22.87 5.18,-32.97 3.46,-10.16 8.5,-18.95 15.07,-26.33 6.63,-7.46 14.79,-13.27 24.54,-17.57 9.75,-4.21 20.88,-6.36 33.39,-6.36 11.47,0 21.9,1.31 31.24,3.94 9.26,2.64 18.04,6.64 26.26,11.96 8.3,5.32 16.17,12.03 23.71,20.18 7.6,8.09 15.27,17.56 23.08,28.55 9.75,13.62 18.05,24.81 24.95,33.66 6.85,8.85 13.27,15.9 19.29,21.08 6.02,5.18 12.03,8.85 18.04,10.92 6.02,2.15 12.93,3.17 20.74,3.17l0 -144.6 29.79 0 0 179.23 -14.38 0c-12.44,0 -23.35,-1.38 -32.83,-4.08 -9.39,-2.69 -18.39,-7.12 -26.88,-13.34 -8.5,-6.22 -17.01,-14.37 -25.51,-24.39 -8.5,-10.09 -18.11,-22.39 -28.75,-36.98 -7.6,-10.5 -14.79,-19.36 -21.7,-26.4 -6.92,-7.12 -13.76,-12.78 -20.67,-17.14 -6.85,-4.28 -13.82,-7.4 -20.94,-9.19 -7.12,-1.87 -14.59,-2.77 -22.6,-2.77z"/>
  <path id="_13_12" class="fil2" d="M313.04 5748.9l0 33.18 -250.9 0c2.56,2.56 5.53,6.36 8.85,11.27 3.24,4.91 6.56,10.43 9.82,16.59 3.24,6.15 6.22,12.65 9.05,19.43 2.9,6.84 5.11,13.48 6.7,19.97l-33.59 0c-2,-7.26 -4.77,-15 -8.22,-23.16 -3.46,-8.22 -7.26,-16.24 -11.55,-24.12 -4.21,-7.88 -8.71,-15.34 -13.33,-22.39 -4.7,-6.98 -9.2,-13.07 -13.69,-18.25l0 -12.51 296.86 0z"/>
  <path id="_14_13" class="fil2" d="M220.9 5465.04c14.17,0 27.23,2.28 39.05,6.84 11.89,4.63 22.19,10.99 30.83,19.08 8.64,8.08 15.34,17.76 20.11,28.96 4.84,11.2 7.19,23.36 7.19,36.42 0,14.59 -3.04,27.65 -9.12,39.2 -6.02,11.54 -14.79,21.36 -26.2,29.37 -11.4,8.02 -25.37,14.11 -41.82,18.32 -16.45,4.21 -35.04,6.29 -55.71,6.29 -25.23,0 -48.1,-2.83 -68.7,-8.43 -20.59,-5.59 -38.22,-13.55 -52.87,-23.91 -14.66,-10.3 -25.92,-22.74 -33.93,-37.32 -7.95,-14.59 -11.96,-30.83 -11.96,-48.8 0,-19.97 2.83,-36.08 8.37,-48.18l31.38 0c-7.74,14.93 -11.54,30.76 -11.54,47.35 0,13 2.9,24.68 8.71,35.04 5.8,10.37 13.96,19.29 24.6,26.75 10.58,7.4 23.36,13.13 38.36,17.07 15,4.02 31.66,6.02 49.97,6.02l0 -0.82c-24.12,-13.34 -36.22,-35.46 -36.22,-66.22 0,-12.72 2.15,-24.12 6.5,-34.35 4.29,-10.16 10.44,-18.87 18.32,-26.06 7.88,-7.26 17.28,-12.85 28.27,-16.72 10.92,-3.95 23.08,-5.88 36.42,-5.88zm4.21 34c-10.09,0 -19.21,1.31 -27.3,3.87 -8.08,2.56 -15,6.22 -20.66,10.99 -5.67,4.84 -10.02,10.72 -13.07,17.76 -3.04,6.98 -4.56,15 -4.56,23.84 0,8.3 1.59,15.9 4.7,22.88 3.11,7.05 7.32,13.13 12.65,18.25 5.32,5.11 11.54,9.12 18.59,12.02 7.11,2.9 14.65,4.36 22.6,4.36 10.02,0 19.35,-1.38 28.06,-4.22 8.71,-2.83 16.31,-6.84 22.75,-11.95 6.5,-5.11 11.61,-11.27 15.27,-18.32 3.73,-7.12 5.59,-14.93 5.59,-23.57 0,-8.37 -1.59,-16.04 -4.77,-22.87 -3.17,-6.92 -7.6,-12.79 -13.26,-17.62 -5.67,-4.91 -12.44,-8.64 -20.33,-11.34 -7.88,-2.69 -16.65,-4.08 -26.26,-4.08z"/>
  <path id="_15_14" class="fil2" d="M166.64 5241.93c24.27,0 45.83,2.15 64.56,6.56 18.8,4.36 34.63,10.72 47.48,19.01 12.93,8.29 22.75,18.53 29.38,30.61 6.7,12.1 10.02,25.78 10.02,41.19 0,14.59 -3.18,27.59 -9.61,38.99 -6.43,11.4 -15.75,21.01 -28.06,28.82 -12.24,7.88 -27.37,13.82 -45.2,17.83 -17.91,4.08 -38.43,6.08 -61.52,6.08 -25.36,0 -47.76,-2.15 -67.18,-6.36 -19.49,-4.29 -35.74,-10.51 -48.93,-18.73 -13.14,-8.23 -23.09,-18.46 -29.72,-30.69 -6.7,-12.24 -10.09,-26.2 -10.09,-42.03 0,-60.88 49.63,-91.3 148.88,-91.3zm3.25 34c-82.66,0 -123.92,19.63 -123.92,58.9 0,41.47 42.02,62.21 126.14,62.21 78.45,0 117.64,-20.33 117.64,-60.96 0,-40.09 -39.95,-60.14 -119.85,-60.14z"/>
  <path id="_16_15" class="fil2" d="M283.04 5157.27l0 0.82 125.38 0 0 33.25 -302.75 0 0 -33.25 36.43 0 0 -0.82c-27.51,-16.31 -41.26,-40.23 -41.26,-71.68 0,-26.68 9.26,-47.55 27.85,-62.55 18.53,-15 43.41,-22.46 74.58,-22.46 34.7,0 62.48,8.43 83.36,25.29 20.81,16.87 31.24,39.95 31.24,69.26 0,26.88 -11.61,47.55 -34.84,62.14zm-83.63 0.82l28.96 0c17.14,0 31.72,-5.53 43.68,-16.72 11.96,-11.13 17.9,-25.23 17.9,-42.37 0,-20.11 -7.67,-35.87 -23.08,-47.28 -15.41,-11.4 -36.78,-17.14 -64.22,-17.14 -23.08,0 -41.13,5.32 -54.25,16.04 -13.07,10.65 -19.63,25.09 -19.63,43.27 0,19.35 6.7,34.84 20.11,46.58 13.48,11.76 30.27,17.62 50.53,17.62z"/>
 </g>
</svg>
