<?xml version="1.0" encoding="UTF-8"?>
<!DOCTYPE svg PUBLIC "-//W3C//DTD SVG 1.1//EN" "http://www.w3.org/Graphics/SVG/1.1/DTD/svg11.dtd">
<!-- Creator: CorelDRAW -->
<svg xmlns="http://www.w3.org/2000/svg" xml:space="preserve" width="279.4mm" height="215.9mm" version="1.1" style="shape-rendering:geometricPrecision; text-rendering:geometricPrecision; image-rendering:optimizeQuality; fill-rule:evenodd; clip-rule:evenodd"
viewBox="0 0 27940 21590"
 xmlns:xlink="http://www.w3.org/1999/xlink"
 xmlns:xodm="http://www.corel.com/coreldraw/odm/2003">
 <defs>
  <style type="text/css">
   <![CDATA[
    .str1 {stroke:#B3B3B3;stroke-width:70.56;stroke-miterlimit:22.9256}
    .str2 {stroke:#B3B3B3;stroke-width:20;stroke-miterlimit:22.9256}
    .str0 {stroke:#E6E6E6;stroke-width:20;stroke-miterlimit:22.9256}
    .fil0 {fill:none}
    .fil1 {fill:#F0F0F0}
    .fil2 {fill:#B3B3B3;fill-rule:nonzero}
   ]]>
  </style>
   <clipPath id="id0">
    <path d="M1599.79 3843.45l24384 0 0 13716 -24384 0 0 -13716z"/>
   </clipPath>
 </defs>
 <g id="Layer_x0020_1">
  <metadata id="CorelCorpID_0Corel-Layer"/>
  <g id="_1900537373776">
   <rect class="fil0 str0" x="1599.79" y="3843.44" width="6096" height="4572"/>
   <rect class="fil0 str0" x="1599.79" y="8415.44" width="6096" height="4572"/>
   <rect class="fil0 str0" x="1599.79" y="12987.44" width="6096" height="4572"/>
   <rect class="fil0 str0" x="7695.79" y="3843.44" width="6096" height="4572"/>
   <rect class="fil0 str0" x="7695.79" y="8415.44" width="6096" height="4572"/>
   <rect class="fil0 str0" x="7695.79" y="12987.44" width="6096" height="4572"/>
   <rect class="fil0 str0" x="13791.79" y="3843.44" width="6096" height="4572"/>
   <rect class="fil0 str0" x="13791.79" y="8415.44" width="6096" height="4572"/>
   <rect class="fil0 str0" x="13791.79" y="12987.44" width="6096" height="4572"/>
   <rect class="fil0 str0" x="19887.79" y="3843.44" width="6096" height="4572"/>
   <rect class="fil0 str0" x="19887.79" y="8415.44" width="6096" height="4572"/>
   <rect class="fil0 str0" x="19887.79" y="12987.44" width="6096" height="4572"/>
  </g>
  <g>
  </g>
  <g style="clip-path:url(#id0)">
   <g id="_1900537372960">
    <path class="fil1 str1" d="M17532.84 16993.29c40.23,7.42 50.33,17.52 60.37,55.13l-60.37 -55.13zm302.89 -811.03c82.55,0 64.96,-20.17 127.03,-34.64 -1.16,52.45 -16.36,80.95 -34.64,115.49 -41.03,-27.48 -64.26,-38.83 -92.39,-80.85zm-970.08 -2379.01c316.12,0 284.08,-26 384.81,-227.27l181.07 -315.52c0,118 59,522.18 57.89,715.86 -1.53,268.07 12.69,495.48 11.33,762.44 -0.45,85.13 24.07,463.33 44.65,532.77 114.53,386.57 367.29,401.93 382.72,587.38 -61.73,29.62 -41.38,3.9 -85.75,64.37 -97.89,133.39 -151.18,16.39 -434.03,5.01 -128.52,-5.17 -213.95,-26.34 -270.62,-110.49 -173.34,-257.37 -205.2,-775.69 -213.99,-1114.1 -1.64,-63.2 -10.79,-106.01 -11.47,-184.86 -1.35,-157.98 -46.61,-561.96 -46.61,-715.59zm5058.3 1917.07c-19.64,-84.3 -111.73,-254.31 -138.58,-369.55 40.56,-19.47 77.01,-21.25 122.64,-39.04 352.66,-137.51 431.81,-764.29 337.13,-1113.66 -21.26,-78.46 -55.96,-147.92 -72.53,-239.28 -16.03,-88.42 6.08,-303.04 5.33,-444.34 -0.37,-70.02 7.29,-97.94 11.63,-150.05 106.5,122.52 179.26,334.72 237.88,455.03 16.53,33.92 16.92,39.68 49.89,54.06 132.07,57.56 567.8,-43.94 670.76,-93.34 -7.74,93.05 -139.7,506.15 -179.79,605.51 -46.25,114.66 -74.76,166.67 -131.37,261.28l-455.6 733.92c-63.85,95.55 -91.2,140.96 -183.37,209.28 -63.26,46.89 -179.94,122.35 -274.02,130.18zm-3129.68 -7610.55c0,117.87 23.1,203.19 23.1,311.81 0,134.85 -113.93,370.37 80.83,415.75 0,126.27 2.44,184.33 23.85,287.97 8.52,41.25 20.83,92.25 32.31,129.37 14.82,47.86 35.04,71.78 36.24,125.44 -51.85,13.85 -82.27,65.27 -118.43,101 -136.17,134.6 -165.75,260.79 -367.95,324.97 -295.73,93.88 -381.79,67.92 -691.76,220.59 -145.85,71.84 -353.96,129.44 -415.12,266.24 -18.77,41.97 -6.91,41.77 -49.93,65.57 -281.06,155.49 -402.92,635.92 -567.48,910.74 -101.79,170 -370.51,738.51 -447.14,927.14 -41.57,102.32 -94.83,206.18 -137.1,313.3 -43.76,110.88 -77.04,224.6 -122.04,339.9l-109.77 341.5c-24.52,92.47 25.55,79.39 2.35,185.7 -130.17,596.36 355.41,2035.29 499.76,2616.17 67.09,269.99 161.44,558.36 378.12,719.01 143,106.02 355.47,213.98 471.84,348.11l130.13 147.35c44.07,51.67 44.74,48.19 17.14,114.52 -82.87,199.17 -162.15,475.88 -223.26,689.79 -114.42,400.45 -99.89,847.23 -222.76,1243.92 -165.57,534.61 -359.93,1197.65 -454.99,1750.79 -172.02,1001 -329.88,1498.46 -126.89,2546.9 10.73,55.39 18.3,89.3 27.68,145.56 31.12,186.85 16.91,250.62 -16.64,448.42 -12.68,74.79 -14.35,182.25 -29.89,258.82 -210.21,1035.48 -255.29,653.58 -255.29,1869.66 0,239.66 46.92,471.85 -13.68,713.88 -52.08,208 -55.75,184.35 -9.42,383.24 -118.75,79.52 -204.1,182.69 -319.94,269.04 -274.72,204.78 -828.16,191.58 -946.69,543.09 -22.06,65.44 -5.52,72.49 -16.45,133.68 -9.84,55.12 -45.01,40.07 -45.01,139.76 0,158 585.44,150.13 739.11,150.13 147.43,0 318.68,-32.95 443.65,-64.49 142.82,-36.04 255.01,-85.56 381.25,-138.43 124.59,-52.19 234.07,-101.91 352.86,-155.28 108.26,-48.63 259.55,-128.26 381.31,-138.39 18.18,68.12 87.98,139.39 103.93,207.88 188.19,0 572.46,-17.22 707.81,-146.8 108.98,-104.32 73.7,-316.32 65.33,-454.24 -5.32,-87.82 26.45,-99.13 46.47,-162.31 22.04,-69.58 -22.75,-257.11 -22.75,-356.87 0,-158.71 47.44,-454.86 46.35,-646.57 -2.54,-444.1 26.97,-605.99 140.73,-1025.68 16.08,-59.31 35.9,-106.46 49.14,-181.83 33.29,-189.23 27.78,-488.91 7.99,-665.21 -13.89,-123.64 -1.69,-327.96 -1.68,-460.26 0,-85.37 -0.66,-152.18 -9.41,-221.57 -47.41,-376.25 0.48,-284.55 -2.19,-586.88 -0.72,-81.32 11.2,-115 12.05,-184.27 0.85,-68.93 -0.38,-139.24 -0.46,-208.34 -0.18,-148.26 16.83,-233.94 43.9,-348.76l161.7 -635.16c27.9,-112.29 48.67,-216.33 72.4,-331.8 32.4,-157.73 74.87,-300.83 154.13,-434.84l384.22 -620.52c148.49,-250.5 284.47,-521.59 386.06,-803.44l158.99 -441.54c39.37,-122.98 78.5,-342.35 186.12,-414.42 67,139.66 42.08,490.11 69.26,646.76 68.48,394.55 152.28,791.19 261.76,1170.26 53.32,184.62 62.32,432.11 61.36,666.21 -0.3,73.92 11.48,94.27 12.28,160.96 2.02,167.42 20.57,332.62 50.6,492.18 92.6,492.05 113.22,627.91 110.55,1148.26 -0.4,77.27 10.12,109.93 12,172.77 1.69,56.37 -0.42,117.07 -0.65,173.88 -0.31,76.58 12.13,99.58 12.22,172.56 0.37,329.66 23.86,328.23 -25.42,679.85 -102.73,733.18 -205.07,807.31 -115.64,1597.72 10.04,88.73 16.01,150.73 30.1,235.51 13.04,78.51 41.27,162.65 41.27,235.9 0,93.23 -115.49,57.75 -115.49,323.36 0,141.43 32.24,63.81 -24.76,217.76 -33.72,91.09 -44.53,218.1 -44.53,325.03 0,192 50.15,62.85 -128.55,287.19l-196.49 253.92c-93.41,124.88 -206.57,253.49 -275.81,394.01 -74.71,151.64 -16.57,200.29 -52.84,281.28 -12.87,28.76 -27.68,64.73 -27.68,100.14 0,86.53 222.26,138.58 323.36,138.58 434.7,0 741.35,-30.54 1101.08,-227 259.57,-141.76 216.23,-161.82 241.09,-313.26 7.07,-43.09 22.2,-46.24 32.12,-83.37 196.22,0 221.66,11.84 355.46,-118.02 108.11,-104.92 72.28,-249.54 71.83,-401.68 -0.41,-134.39 -19.35,-108.41 49.12,-181.85 92.47,-99.2 35.97,-296.76 59.15,-425.88 12.57,-69.99 42.19,-119.79 65.12,-177.41 86.78,-217.99 129.56,-519.45 174.8,-783.74 51.21,-299.1 81.02,-775.03 90.29,-1099.21l11.47 -231.06c0.92,-76.06 12.46,-137.68 11.93,-230.59 -0.53,-93.38 12.19,-137.41 11.7,-230.82 -1.59,-309.53 23.02,-624.7 23.02,-935.52 0,-710.77 36.03,-1413.26 35.04,-2125.34l-46.25 -935.39c-13.61,-245.05 -46.53,-453.93 -46.53,-704.12 0,-257.28 10.08,-506.41 33.58,-751.73 29.5,-307.91 6.56,-644.85 60.29,-956 37.58,-217.68 56.26,-380.2 56.26,-613.55 0,-119.36 -47.44,-205.18 -75.98,-305.13 -30.05,-105.24 -49.37,-200.58 -74.15,-306.94 91.95,-7.66 392.95,-218.19 463.76,-275.36 135.99,-109.76 227.38,-268.16 332.97,-406.14 185.93,-242.98 354.88,-414.43 503.38,-605.29 278.63,-358.14 559.21,-632.48 793.76,-1054.02 134.83,-242.31 250.55,-486.27 373.64,-735.03 45.32,-91.6 107.83,-158.47 107.83,-284.82 0,-98.71 -79.95,-168.37 -120.53,-249.82 -36.84,-73.97 16.24,-99.81 -37.31,-169.78 -213.08,-278.43 -590.29,-793.89 -797.91,-1026.76 -19.17,-21.5 -32.72,-30.79 -50.7,-53.25 -108.86,-136.01 -123.01,-140.1 -245.67,-308.66 -133.03,-182.78 -374.45,-617.66 -523.34,-770.1l-156.41 -166.96c-132,-125.73 45.58,-244.22 -193.22,-349.57 -202.78,-89.46 -391.23,-189.01 -601.85,-264.29 -152.73,-54.58 -305.28,-127.06 -448.76,-197.96 -48.97,-24.2 -101.17,-44.47 -150.31,-69.12 -49.77,-24.96 -93.22,-48.71 -148.3,-71.12 -75.25,-30.62 -76.69,-32.83 -186.6,-32.83 -28.33,-121.57 -109.78,-285.49 -254.07,-288.71 11.11,-47.69 15.35,-111.94 22.4,-162.37 7.99,-57.16 23.79,-115.37 23.79,-172.54 164.29,0 170.17,-82.9 207.92,-219.38 137.8,-498.19 7.47,-429.64 89.97,-729.98 80.3,-292.27 77.74,-511.45 -43.95,-782.81 -258.21,-575.8 -530.65,-435.97 -855.93,-529.9 -358.6,-103.54 -909.16,66 -1118.85,356.45 -350.94,486.08 -135.09,797.43 -187.28,943.74 -7.59,21.26 -20.5,37.29 -20.5,61.09z"/>
   </g>
  </g>
  <polygon class="fil0 str2" points="1599.79,3843.45 25983.79,3843.45 25983.79,17559.45 1599.79,17559.45 "/>
  <polygon class="fil2" points="11607.93,3317.16 11492.15,3317.16 11492.15,3419.67 11599.25,3419.67 11599.25,3450.93 11492.15,3450.93 11492.15,3582.16 11457.44,3582.16 11457.44,3285.76 11607.93,3285.76 "/>
  <polygon id="_1" class="fil2" points="11886.98,3582.16 11852.27,3582.16 11852.27,3446.98 11698.88,3446.98 11698.88,3582.16 11664.17,3582.16 11664.17,3285.76 11698.88,3285.76 11698.88,3415.79 11852.27,3415.79 11852.27,3285.76 11886.98,3285.76 "/>
  <path id="_2" class="fil2" d="M11964.73 3582.16l0 -296.4 81.84 0c104.42,0 156.7,48.12 156.7,144.5 0,45.71 -14.53,82.47 -43.53,110.27 -29,27.73 -67.8,41.63 -116.49,41.63l-78.52 0zm34.71 -265l0 233.6 44.24 0c38.87,0 69.07,-10.44 90.73,-31.25 21.66,-20.82 32.46,-50.31 32.46,-88.48 0,-75.92 -40.36,-113.87 -121.15,-113.87l-46.28 0z"/>
  <path id="_3" class="fil2" d="M12488.31 3582.16l-33.87 0 0 -256.11c-2.61,2.61 -6.49,5.64 -11.5,9.03 -5.01,3.31 -10.65,6.7 -16.93,10.02 -6.28,3.24 -12.91,6.35 -19.83,9.24 -6.98,2.96 -13.76,5.22 -20.39,6.84l0 -34.29c7.41,-2.11 15.31,-4.87 23.64,-8.39 8.39,-3.53 16.58,-7.41 24.62,-11.79 8.04,-4.3 15.66,-8.89 22.86,-13.61 7.13,-4.8 13.34,-9.39 18.63,-13.97l12.77 0 0 303.03z"/>
  <path id="_4" class="fil2" d="M12774.33 3416.14c0,27.17 -2.68,51.3 -8.04,72.46 -5.36,21.17 -13.19,39.09 -23.57,53.77 -10.3,14.67 -22.93,25.82 -37.81,33.51 -14.89,7.62 -31.82,11.43 -50.87,11.43 -19.55,0 -36.76,-3.46 -51.65,-10.3l0 -32.46c16.37,9.25 33.87,13.83 52.49,13.83 13.41,0 25.33,-2.75 35.84,-8.25 10.59,-5.51 19.48,-13.55 26.82,-24.06 7.26,-10.58 12.84,-23.57 16.72,-39.02 3.88,-15.38 5.78,-33.09 5.78,-53.13l-0.84 0c-12.63,25.54 -34.72,38.24 -66.11,38.24 -12.7,0 -24.35,-2.18 -34.93,-6.7 -10.65,-4.44 -19.82,-10.79 -27.52,-18.98 -7.69,-8.25 -13.68,-17.99 -17.99,-29.28 -4.23,-11.29 -6.42,-23.77 -6.42,-37.39 0,-14.61 2.4,-28.01 7.2,-40.15 4.73,-12.06 11.36,-22.5 19.83,-31.25 8.46,-8.75 18.48,-15.6 30.12,-20.39 11.71,-4.8 24.41,-7.27 38.17,-7.27 14.89,0 28.08,3.03 39.58,9.03 11.5,6 21.17,14.75 29.07,26.25 7.83,11.5 13.83,25.68 17.99,42.47 4.1,16.79 6.14,36.05 6.14,57.64zm-36.55 -30.33c0,-11.43 -1.48,-21.88 -4.44,-31.26 -2.96,-9.31 -7.06,-17.36 -12.28,-24.06 -5.29,-6.7 -11.5,-11.85 -18.76,-15.52 -7.2,-3.6 -15.1,-5.43 -23.64,-5.43 -8.11,0 -15.73,1.62 -22.72,4.86 -7.05,3.18 -13.12,7.76 -18.34,13.62 -5.15,5.86 -9.18,12.84 -12.14,20.89 -2.96,8.04 -4.44,16.86 -4.44,26.31 0,10.51 1.41,19.9 4.23,28.15 2.82,8.26 6.84,15.24 12.06,20.96 5.23,5.71 11.58,10.09 18.91,13.12 7.41,3.04 15.53,4.59 24.49,4.59 7.9,0 15.31,-1.48 22.22,-4.45 6.99,-2.96 13.05,-6.98 18.2,-11.99 5.15,-5.08 9.25,-11.01 12.21,-17.78 2.96,-6.85 4.44,-14.18 4.44,-22.01z"/>
  <path id="_5" class="fil2" d="M12954.6 3363.44c0,-9.1 -1.42,-17 -4.24,-23.78 -2.82,-6.7 -6.7,-12.34 -11.57,-16.79 -4.94,-4.52 -10.65,-7.83 -17.28,-10.02 -6.64,-2.26 -13.76,-3.31 -21.52,-3.31 -6.57,0 -13.06,0.84 -19.41,2.68 -6.35,1.76 -12.49,4.23 -18.48,7.4 -6,3.18 -11.78,6.99 -17.36,11.36 -5.64,4.45 -10.79,9.32 -15.66,14.68l0 -36.34c9.52,-9.24 20.18,-16.29 31.96,-21.23 11.78,-4.87 26.18,-7.34 43.11,-7.34 12.13,0 23.35,1.76 33.65,5.29 10.37,3.53 19.34,8.68 26.88,15.38 7.62,6.77 13.55,15.1 17.93,25.05 4.3,9.95 6.49,21.31 6.49,34.08 0,11.71 -1.34,22.36 -4.02,31.89 -2.69,9.45 -6.78,18.41 -12.21,26.81 -5.43,8.47 -12.28,16.51 -20.6,24.2 -8.26,7.76 -17.92,15.59 -29.14,23.56 -13.9,9.95 -25.33,18.42 -34.36,25.47 -9.03,6.99 -16.23,13.55 -21.52,19.69 -5.29,6.14 -9.03,12.28 -11.15,18.41 -2.19,6.14 -3.24,13.2 -3.24,21.17l147.6 0 0 30.41 -182.95 0 0 -14.68c0,-12.7 1.41,-23.84 4.16,-33.51 2.75,-9.59 7.27,-18.77 13.62,-27.44 6.35,-8.68 14.67,-17.36 24.9,-26.04 10.3,-8.68 22.86,-18.49 37.75,-29.35 10.72,-7.76 19.76,-15.1 26.95,-22.15 7.27,-7.06 13.05,-14.05 17.5,-21.1 4.37,-6.99 7.55,-14.11 9.38,-21.38 1.91,-7.27 2.83,-14.89 2.83,-23.07z"/>
  <path id="_6" class="fil2" d="M13233.99 3432.72c0,24.77 -2.19,46.78 -6.7,65.9 -4.45,19.19 -10.94,35.35 -19.41,48.47 -8.46,13.2 -18.91,23.15 -31.25,29.99 -12.35,6.84 -26.32,10.23 -42.05,10.23 -14.89,0 -28.16,-3.25 -39.8,-9.81 -11.64,-6.56 -21.45,-16.08 -29.42,-28.64 -8.04,-12.49 -14.11,-27.94 -18.2,-46.14 -4.16,-18.28 -6.21,-39.23 -6.21,-62.8 0,-25.89 2.19,-48.75 6.49,-68.58 4.38,-19.89 10.73,-36.48 19.12,-49.95 8.4,-13.41 18.84,-23.57 31.33,-30.41 12.49,-6.77 26.74,-10.23 42.9,-10.23 62.15,0 93.2,50.66 93.2,151.97zm-34.71 3.32c0,-84.38 -20.04,-126.5 -60.12,-126.5 -42.33,0 -63.5,42.89 -63.5,128.76 0,80.08 20.75,120.08 62.23,120.08 40.92,0 61.39,-40.78 61.39,-122.34z"/>
  <path id="_7" class="fil2" d="M13320.41 3551.54l-0.84 0 0 127.99 -33.94 0 0 -309.04 33.94 0 0 37.19 0.84 0c16.65,-28.08 41.07,-42.12 73.17,-42.12 27.23,0 48.54,9.45 63.85,28.43 15.31,18.91 22.93,44.31 22.93,76.13 0,35.42 -8.61,63.78 -25.82,85.09 -17.22,21.24 -40.78,31.89 -70.7,31.89 -27.44,0 -48.54,-11.85 -63.43,-35.56zm-0.84 -85.37l0 29.56c0,17.5 5.64,32.38 17.07,44.59 11.36,12.21 25.75,18.27 43.25,18.27 20.53,0 36.62,-7.83 48.26,-23.56 11.64,-15.73 17.5,-37.54 17.5,-65.55 0,-23.56 -5.43,-41.98 -16.37,-55.38 -10.87,-13.34 -25.61,-20.04 -44.17,-20.04 -19.75,0 -35.56,6.84 -47.55,20.53 -12,13.76 -17.99,30.9 -17.99,51.58z"/>
  <path id="_8" class="fil2" d="M13738.95 3587.1c-31.26,0 -56.24,-9.88 -74.93,-29.63 -18.63,-19.76 -28.01,-46.01 -28.01,-78.67 0,-35.56 9.73,-63.29 29.14,-83.33 19.47,-19.97 45.71,-29.91 78.81,-29.91 31.53,0 56.16,9.66 73.87,29.14 17.71,19.4 26.52,46.35 26.52,80.78 0,33.8 -9.52,60.82 -28.57,81.14 -19.12,20.32 -44.73,30.48 -76.83,30.48zm2.47 -193.04c-21.74,0 -38.95,7.41 -51.65,22.23 -12.7,14.81 -19.05,35.2 -19.05,61.31 0,25.04 6.42,44.8 19.26,59.26 12.84,14.47 29.99,21.73 51.44,21.73 21.94,0 38.8,-7.12 50.58,-21.3 11.79,-14.18 17.64,-34.36 17.64,-60.54 0,-26.46 -5.85,-46.85 -17.64,-61.17 -11.78,-14.39 -28.64,-21.52 -50.58,-21.52zm49.52 -131.44l-54.11 67.8 -26.25 0 46.08 -67.8 34.28 0z"/>
  <path id="_9" class="fil2" d="M14235.93 3462.29c0,83.18 -37.53,124.81 -112.68,124.81 -71.89,0 -107.87,-40.01 -107.87,-120.09l0 -181.25 34.71 0 0 179c0,60.74 25.68,91.15 76.9,91.15 49.46,0 74.23,-29.35 74.23,-88.05l0 -182.1 34.71 0 0 176.53z"/>
  <polygon id="_10" class="fil2" points="14532.76,3582.16 14498.05,3582.16 14498.05,3446.98 14344.66,3446.98 14344.66,3582.16 14309.95,3582.16 14309.95,3285.76 14344.66,3285.76 14344.66,3415.79 14498.05,3415.79 14498.05,3285.76 14532.76,3285.76 "/>
  <path id="_11" class="fil2" d="M14610.51 3582.16l0 -296.4 81.84 0c104.42,0 156.7,48.12 156.7,144.5 0,45.71 -14.53,82.47 -43.53,110.27 -29,27.73 -67.8,41.63 -116.49,41.63l-78.52 0zm34.71 -265l0 233.6 44.24 0c38.87,0 69.07,-10.44 90.73,-31.25 21.66,-20.82 32.46,-50.31 32.46,-88.48 0,-75.92 -40.36,-113.87 -121.15,-113.87l-46.28 0z"/>
  <path id="_12" class="fil2" d="M15181.43 3498.2c0,13.4 -2.54,25.54 -7.55,36.55 -5.01,10.93 -12.14,20.32 -21.31,28.08 -9.17,7.76 -20.11,13.83 -32.95,18.06 -12.84,4.3 -26.95,6.42 -42.4,6.42 -28.22,0 -50.66,-5.36 -67.38,-16.09l0 -36.4c20.04,15.73 42.9,23.56 68.65,23.56 10.37,0 19.68,-1.27 28.01,-3.95 8.33,-2.61 15.52,-6.35 21.52,-11.36 6,-4.94 10.58,-10.93 13.83,-17.99 3.24,-6.98 4.87,-14.96 4.87,-23.78 0,-38.66 -27.59,-58.06 -82.69,-58.06l-24.63 0 0 -28.72 23.36 0c48.82,0 73.16,-18.2 73.16,-54.54 0,-33.65 -18.55,-50.44 -55.81,-50.44 -20.88,0 -40.57,6.98 -58.84,21.09l0 -32.88c18.84,-11.29 41.27,-17 67.38,-17 12.35,0 23.64,1.76 33.65,5.22 10.09,3.46 18.7,8.26 25.83,14.46 7.19,6.21 12.7,13.62 16.65,22.3 3.95,8.68 5.93,18.27 5.93,28.72 0,39.01 -19.76,64.13 -59.13,75.28l0 0.84c10.02,1.06 19.33,3.53 27.87,7.34 8.54,3.74 15.94,8.68 22.15,14.75 6.21,6.07 11.08,13.19 14.54,21.38 3.53,8.18 5.29,17.28 5.29,27.16z"/>
  <path id="_13" class="fil2" d="M15231.24 3499.47c0,-7.83 1.2,-15.73 3.67,-23.64 2.54,-7.97 6.06,-15.38 10.65,-22.22 4.66,-6.92 10.37,-13.2 17.14,-18.84 6.85,-5.64 14.61,-10.09 23.29,-13.4 -12.84,-7.2 -23,-16.37 -30.62,-27.59 -7.55,-11.29 -11.36,-23.71 -11.36,-37.33 0,-10.93 2.11,-20.95 6.35,-30.19 4.16,-9.25 10.02,-17.22 17.42,-23.99 7.48,-6.77 16.3,-12 26.46,-15.81 10.23,-3.81 21.24,-5.71 33.09,-5.71 12,0 23.07,1.97 33.3,5.78 10.16,3.89 18.98,9.18 26.46,15.95 7.41,6.77 13.2,14.75 17.36,23.99 4.09,9.24 6.21,19.19 6.21,29.98 0,13.62 -3.81,26.04 -11.36,37.33 -7.62,11.22 -17.64,20.39 -30.2,27.59 8.54,3.31 16.16,7.76 22.93,13.4 6.77,5.64 12.42,11.92 17.08,18.84 4.58,6.84 8.11,14.25 10.65,22.22 2.47,7.91 3.67,15.81 3.67,23.64 0,12.98 -2.33,24.83 -6.99,35.56 -4.72,10.72 -11.29,19.97 -19.75,27.59 -8.47,7.69 -18.63,13.61 -30.41,17.92 -11.78,4.23 -24.77,6.35 -38.95,6.35 -14.04,0 -26.95,-2.12 -38.66,-6.35 -11.71,-4.31 -21.8,-10.23 -30.41,-17.92 -8.54,-7.62 -15.17,-16.87 -19.9,-27.59 -4.8,-10.73 -7.12,-22.58 -7.12,-35.56zm36.76 -2.89c0,9.24 1.41,17.56 4.23,25.04 2.82,7.41 6.84,13.76 11.99,18.98 5.15,5.22 11.43,9.25 18.84,12.07 7.34,2.89 15.52,4.3 24.48,4.3 8.68,0 16.66,-1.48 23.99,-4.37 7.27,-2.9 13.62,-6.99 18.91,-12.21 5.29,-5.22 9.46,-11.57 12.42,-18.98 2.96,-7.48 4.44,-15.73 4.44,-24.83 0,-8.26 -1.41,-16.02 -4.23,-23.29 -2.89,-7.19 -6.91,-13.54 -12.13,-19.12 -5.23,-5.5 -11.51,-9.8 -18.77,-12.98 -7.34,-3.17 -15.52,-4.73 -24.63,-4.73 -8.53,0 -16.44,1.49 -23.7,4.45 -7.2,2.96 -13.48,7.05 -18.77,12.35 -5.29,5.36 -9.45,11.64 -12.49,19.05 -3.03,7.33 -4.58,15.45 -4.58,24.27zm10.58 -137.44c0,6.98 1.27,13.54 3.81,19.54 2.54,6 6.07,11.22 10.51,15.66 4.52,4.52 9.67,8.05 15.59,10.59 5.93,2.54 12.28,3.81 19.05,3.81 6.78,0 13.13,-1.34 19.12,-3.96 6,-2.61 11.22,-6.13 15.6,-10.65 4.44,-4.44 7.9,-9.67 10.58,-15.66 2.61,-6 3.88,-12.42 3.88,-19.33 0,-7.2 -1.27,-13.76 -3.81,-19.83 -2.54,-6.07 -6,-11.36 -10.44,-15.73 -4.38,-4.45 -9.6,-7.91 -15.59,-10.45 -6,-2.54 -12.42,-3.81 -19.34,-3.81 -7.33,0 -13.97,1.27 -19.96,3.88 -6,2.69 -11.15,6.21 -15.53,10.66 -4.3,4.51 -7.62,9.81 -10.01,15.8 -2.33,6.07 -3.46,12.56 -3.46,19.48z"/>
  <path id="_14" class="fil2" d="M15616.46 3285.76l0 195.72 38.03 0 0 31.04 -38.03 0 0 69.64 -33.44 0 0 -69.64 -139.35 0 0 -29.35c12.98,-14.6 26.04,-30.27 39.3,-46.85 13.2,-16.58 25.83,-33.44 37.89,-50.51 12.06,-17.08 23.21,-34.15 33.51,-51.16 10.23,-17.07 18.91,-33.3 25.97,-48.89l36.12 0zm-134.55 195.72l101.11 0 0 -145.06c-10.37,17.99 -20.18,34.15 -29.35,48.33 -9.24,14.18 -18.06,27.09 -26.39,38.66 -8.33,11.57 -16.3,22.01 -23.85,31.4 -7.62,9.38 -14.74,18.27 -21.52,26.67z"/>
  <path id="_15" class="fil2" d="M15879.77 3432.72c0,24.77 -2.19,46.78 -6.7,65.9 -4.45,19.19 -10.94,35.35 -19.41,48.47 -8.46,13.2 -18.91,23.15 -31.25,29.99 -12.35,6.84 -26.32,10.23 -42.05,10.23 -14.89,0 -28.16,-3.25 -39.8,-9.81 -11.64,-6.56 -21.45,-16.08 -29.42,-28.64 -8.04,-12.49 -14.11,-27.94 -18.2,-46.14 -4.16,-18.28 -6.21,-39.23 -6.21,-62.8 0,-25.89 2.19,-48.75 6.49,-68.58 4.38,-19.89 10.73,-36.48 19.12,-49.95 8.4,-13.41 18.84,-23.57 31.33,-30.41 12.49,-6.77 26.74,-10.23 42.9,-10.23 62.15,0 93.2,50.66 93.2,151.97zm-34.71 3.32c0,-84.38 -20.04,-126.5 -60.12,-126.5 -42.33,0 -63.5,42.89 -63.5,128.76 0,80.08 20.75,120.08 62.23,120.08 40.92,0 61.39,-40.78 61.39,-122.34z"/>
  <path id="_16" class="fil2" d="M15966.19 3551.54l-0.84 0 0 127.99 -33.94 0 0 -309.04 33.94 0 0 37.19 0.84 0c16.65,-28.08 41.07,-42.12 73.17,-42.12 27.23,0 48.54,9.45 63.85,28.43 15.31,18.91 22.93,44.31 22.93,76.13 0,35.42 -8.61,63.78 -25.82,85.09 -17.22,21.24 -40.78,31.89 -70.7,31.89 -27.44,0 -48.54,-11.85 -63.43,-35.56zm-0.84 -85.37l0 29.56c0,17.5 5.64,32.38 17.07,44.59 11.36,12.21 25.75,18.27 43.25,18.27 20.53,0 36.62,-7.83 48.26,-23.56 11.64,-15.73 17.5,-37.54 17.5,-65.55 0,-23.56 -5.43,-41.98 -16.37,-55.38 -10.87,-13.34 -25.61,-20.04 -44.17,-20.04 -19.75,0 -35.56,6.84 -47.55,20.53 -12,13.76 -17.99,30.9 -17.99,51.58z"/>
  <path class="fil2" d="M4659.27 18056.22l-33.87 0 0 -256.11c-2.61,2.61 -6.49,5.64 -11.5,9.03 -5.01,3.31 -10.65,6.7 -16.93,10.02 -6.28,3.24 -12.91,6.35 -19.83,9.24 -6.98,2.96 -13.76,5.22 -20.39,6.84l0 -34.29c7.41,-2.11 15.31,-4.87 23.64,-8.39 8.39,-3.53 16.58,-7.41 24.62,-11.79 8.04,-4.3 15.66,-8.89 22.86,-13.61 7.13,-4.8 13.34,-9.39 18.63,-13.97l12.77 0 0 303.03z"/>
  <path class="fil2" d="M26377.41 15482.02l-33.87 0 0 -256.11c-2.61,2.61 -6.49,5.64 -11.5,9.03 -5.01,3.31 -10.65,6.7 -16.93,10.02 -6.28,3.24 -12.91,6.35 -19.83,9.24 -6.98,2.96 -13.76,5.22 -20.39,6.84l0 -34.29c7.41,-2.11 15.31,-4.87 23.64,-8.39 8.39,-3.53 16.58,-7.41 24.62,-11.79 8.04,-4.3 15.66,-8.89 22.86,-13.61 7.13,-4.8 13.34,-9.39 18.63,-13.97l12.77 0 0 303.03z"/>
  <path class="fil2" d="M10687.32 17835.88c0,-9.1 -1.42,-17 -4.24,-23.78 -2.82,-6.7 -6.7,-12.34 -11.57,-16.79 -4.94,-4.52 -10.65,-7.83 -17.28,-10.02 -6.64,-2.26 -13.76,-3.31 -21.52,-3.31 -6.57,0 -13.06,0.84 -19.41,2.68 -6.35,1.76 -12.49,4.23 -18.48,7.4 -6,3.18 -11.78,6.99 -17.36,11.36 -5.64,4.45 -10.79,9.32 -15.66,14.68l0 -36.34c9.52,-9.24 20.18,-16.29 31.96,-21.23 11.78,-4.87 26.18,-7.34 43.11,-7.34 12.13,0 23.35,1.76 33.65,5.29 10.37,3.53 19.34,8.68 26.88,15.38 7.62,6.77 13.55,15.1 17.93,25.05 4.3,9.95 6.49,21.31 6.49,34.08 0,11.71 -1.34,22.36 -4.02,31.89 -2.69,9.45 -6.78,18.41 -12.21,26.81 -5.43,8.47 -12.28,16.51 -20.6,24.2 -8.26,7.76 -17.92,15.59 -29.14,23.56 -13.9,9.95 -25.33,18.42 -34.36,25.47 -9.03,6.99 -16.23,13.55 -21.52,19.69 -5.29,6.14 -9.03,12.28 -11.15,18.41 -2.19,6.14 -3.24,13.2 -3.24,21.17l147.6 0 0 30.41 -182.95 0 0 -14.68c0,-12.7 1.41,-23.84 4.16,-33.51 2.75,-9.59 7.27,-18.77 13.62,-27.44 6.35,-8.68 14.67,-17.36 24.9,-26.04 10.3,-8.68 22.86,-18.49 37.75,-29.35 10.72,-7.76 19.76,-15.1 26.95,-22.15 7.27,-7.06 13.05,-14.05 17.5,-21.1 4.37,-6.99 7.55,-14.11 9.38,-21.38 1.91,-7.27 2.83,-14.89 2.83,-23.07z"/>
  <path class="fil2" d="M26371.77 10720.57c0,-9.1 -1.42,-17 -4.24,-23.78 -2.82,-6.7 -6.7,-12.34 -11.57,-16.79 -4.94,-4.52 -10.65,-7.83 -17.28,-10.02 -6.64,-2.26 -13.76,-3.31 -21.52,-3.31 -6.57,0 -13.06,0.84 -19.41,2.68 -6.35,1.76 -12.49,4.23 -18.48,7.4 -6,3.18 -11.78,6.99 -17.36,11.36 -5.64,4.45 -10.79,9.32 -15.66,14.68l0 -36.34c9.52,-9.24 20.18,-16.29 31.96,-21.23 11.78,-4.87 26.18,-7.34 43.11,-7.34 12.13,0 23.35,1.76 33.65,5.29 10.37,3.53 19.34,8.68 26.88,15.38 7.62,6.77 13.55,15.1 17.93,25.05 4.3,9.95 6.49,21.31 6.49,34.08 0,11.71 -1.34,22.36 -4.02,31.89 -2.69,9.45 -6.78,18.41 -12.21,26.81 -5.43,8.47 -12.28,16.51 -20.6,24.2 -8.26,7.76 -17.92,15.59 -29.14,23.56 -13.9,9.95 -25.33,18.42 -34.36,25.47 -9.03,6.99 -16.23,13.55 -21.52,19.69 -5.29,6.14 -9.03,12.28 -11.15,18.41 -2.19,6.14 -3.24,13.2 -3.24,21.17l147.6 0 0 30.41 -182.95 0 0 -14.68c0,-12.7 1.41,-23.84 4.16,-33.51 2.75,-9.59 7.27,-18.77 13.62,-27.44 6.35,-8.68 14.67,-17.36 24.9,-26.04 10.3,-8.68 22.86,-18.49 37.75,-29.35 10.72,-7.76 19.76,-15.1 26.95,-22.15 7.27,-7.06 13.05,-14.05 17.5,-21.1 4.37,-6.99 7.55,-14.11 9.38,-21.38 1.91,-7.27 2.83,-14.89 2.83,-23.07z"/>
  <path class="fil2" d="M16880.62 17970.64c0,13.4 -2.54,25.54 -7.55,36.55 -5.01,10.93 -12.14,20.32 -21.31,28.08 -9.17,7.76 -20.11,13.83 -32.95,18.06 -12.84,4.3 -26.95,6.42 -42.4,6.42 -28.22,0 -50.66,-5.36 -67.38,-16.09l0 -36.4c20.04,15.73 42.9,23.56 68.65,23.56 10.37,0 19.68,-1.27 28.01,-3.95 8.33,-2.61 15.52,-6.35 21.52,-11.36 6,-4.94 10.58,-10.93 13.83,-17.99 3.24,-6.98 4.87,-14.96 4.87,-23.78 0,-38.66 -27.59,-58.06 -82.69,-58.06l-24.63 0 0 -28.72 23.36 0c48.82,0 73.16,-18.2 73.16,-54.54 0,-33.65 -18.55,-50.44 -55.81,-50.44 -20.88,0 -40.57,6.98 -58.84,21.09l0 -32.88c18.84,-11.29 41.27,-17 67.38,-17 12.35,0 23.64,1.76 33.65,5.22 10.09,3.46 18.7,8.26 25.83,14.46 7.19,6.21 12.7,13.62 16.65,22.3 3.95,8.68 5.93,18.27 5.93,28.72 0,39.01 -19.76,64.13 -59.13,75.28l0 0.84c10.02,1.06 19.33,3.53 27.87,7.34 8.54,3.74 15.94,8.68 22.15,14.75 6.21,6.07 11.08,13.19 14.54,21.38 3.53,8.18 5.29,17.28 5.29,27.16z"/>
  <path class="fil2" d="M26411.95 6244.13c0,13.4 -2.54,25.54 -7.55,36.55 -5.01,10.93 -12.14,20.32 -21.31,28.08 -9.17,7.76 -20.11,13.83 -32.95,18.06 -12.84,4.3 -26.95,6.42 -42.4,6.42 -28.22,0 -50.66,-5.36 -67.38,-16.09l0 -36.4c20.04,15.73 42.9,23.56 68.65,23.56 10.37,0 19.68,-1.27 28.01,-3.95 8.33,-2.61 15.52,-6.35 21.52,-11.36 6,-4.94 10.58,-10.93 13.83,-17.99 3.24,-6.98 4.87,-14.96 4.87,-23.78 0,-38.66 -27.59,-58.06 -82.69,-58.06l-24.63 0 0 -28.72 23.36 0c48.82,0 73.16,-18.2 73.16,-54.54 0,-33.65 -18.55,-50.44 -55.81,-50.44 -20.88,0 -40.57,6.98 -58.84,21.09l0 -32.88c18.84,-11.29 41.27,-17 67.38,-17 12.35,0 23.64,1.76 33.65,5.22 10.09,3.46 18.7,8.26 25.83,14.46 7.19,6.21 12.7,13.62 16.65,22.3 3.95,8.68 5.93,18.27 5.93,28.72 0,39.01 -19.76,64.13 -59.13,75.28l0 0.84c10.02,1.06 19.33,3.53 27.87,7.34 8.54,3.74 15.94,8.68 22.15,14.75 6.21,6.07 11.08,13.19 14.54,21.38 3.53,8.18 5.29,17.28 5.29,27.16z"/>
  <path class="fil2" d="M22814.56 17753.19l0 195.72 38.03 0 0 31.04 -38.03 0 0 69.64 -33.44 0 0 -69.64 -139.35 0 0 -29.35c12.98,-14.6 26.04,-30.27 39.3,-46.85 13.2,-16.58 25.83,-33.44 37.89,-50.51 12.06,-17.08 23.21,-34.15 33.51,-51.16 10.23,-17.07 18.91,-33.3 25.97,-48.89l36.12 0zm-134.55 195.72l101.11 0 0 -145.06c-10.37,17.99 -20.18,34.15 -29.35,48.33 -9.24,14.18 -18.06,27.09 -26.39,38.66 -8.33,11.57 -16.3,22.01 -23.85,31.4 -7.62,9.38 -14.74,18.27 -21.52,26.67z"/>
  <polygon class="fil2" points="1048.63,12885.31 1048.63,13001.09 1151.14,13001.09 1151.14,12893.99 1182.4,12893.99 1182.4,13001.09 1313.63,13001.09 1313.63,13035.8 1017.23,13035.8 1017.23,12885.31 "/>
  <polygon id="_1_0" class="fil2" points="1313.63,12606.26 1313.63,12640.97 1178.45,12640.97 1178.45,12794.36 1313.63,12794.36 1313.63,12829.07 1017.23,12829.07 1017.23,12794.36 1147.26,12794.36 1147.26,12640.97 1017.23,12640.97 1017.23,12606.26 "/>
  <path id="_2_1" class="fil2" d="M1313.63 12528.51l-296.4 0 0 -81.84c0,-104.42 48.12,-156.7 144.5,-156.7 45.71,0 82.47,14.53 110.27,43.53 27.73,29 41.63,67.8 41.63,116.49l0 78.52zm-265 -34.71l233.6 0 0 -44.24c0,-38.87 -10.44,-69.07 -31.25,-90.73 -20.82,-21.66 -50.31,-32.46 -88.48,-32.46 -75.92,0 -113.87,40.36 -113.87,121.15l0 46.28z"/>
  <path id="_3_2" class="fil2" d="M1283.01 11172.83l0 0.84 127.99 0 0 33.94 -309.04 0 0 -33.94 37.19 0 0 -0.84c-28.08,-16.65 -42.12,-41.07 -42.12,-73.17 0,-27.23 9.45,-48.54 28.43,-63.85 18.91,-15.31 44.31,-22.93 76.13,-22.93 35.42,0 63.78,8.61 85.09,25.82 21.24,17.22 31.89,40.78 31.89,70.7 0,27.44 -11.85,48.54 -35.56,63.43zm-85.37 0.84l29.56 0c17.5,0 32.38,-5.64 44.59,-17.07 12.21,-11.36 18.27,-25.75 18.27,-43.25 0,-20.53 -7.83,-36.62 -23.56,-48.26 -15.73,-11.64 -37.54,-17.5 -65.55,-17.5 -23.56,0 -41.98,5.43 -55.38,16.37 -13.34,10.87 -20.04,25.61 -20.04,44.17 0,19.75 6.84,35.56 20.53,47.55 13.76,12 30.9,17.99 51.58,17.99z"/>
  <path id="_4_3" class="fil2" d="M1318.57 10754.29c0,31.26 -9.88,56.24 -29.63,74.93 -19.76,18.63 -46.01,28.01 -78.67,28.01 -35.56,0 -63.29,-9.73 -83.33,-29.14 -19.97,-19.47 -29.91,-45.71 -29.91,-78.81 0,-31.53 9.66,-56.16 29.14,-73.87 19.4,-17.71 46.35,-26.52 80.78,-26.52 33.8,0 60.82,9.52 81.14,28.57 20.32,19.12 30.48,44.73 30.48,76.83zm-193.04 -2.47c0,21.74 7.41,38.95 22.23,51.65 14.81,12.7 35.2,19.05 61.31,19.05 25.04,0 44.8,-6.42 59.26,-19.26 14.47,-12.84 21.73,-29.99 21.73,-51.44 0,-21.94 -7.12,-38.8 -21.3,-50.58 -14.18,-11.79 -34.36,-17.64 -60.54,-17.64 -26.46,0 -46.85,5.85 -61.17,17.64 -14.32,11.78 -21.52,28.64 -21.52,50.58zm-131.44 -49.52l67.8 54.11 0 26.25 -67.8 -46.08 0 -34.28z"/>
  <path id="_5_4" class="fil2" d="M1193.76 10257.31c83.18,0 124.81,37.53 124.81,112.68 0,71.89 -40.01,107.87 -120.09,107.87l-181.25 0 0 -34.71 179 0c60.74,0 91.15,-25.68 91.15,-76.9 0,-49.46 -29.35,-74.23 -88.05,-74.23l-182.1 0 0 -34.71 176.53 0z"/>
  <polygon id="_6_5" class="fil2" points="1313.63,9960.48 1313.63,9995.19 1178.45,9995.19 1178.45,10148.58 1313.63,10148.58 1313.63,10183.29 1017.23,10183.29 1017.23,10148.58 1147.26,10148.58 1147.26,9995.19 1017.23,9995.19 1017.23,9960.48 "/>
  <path id="_7_6" class="fil2" d="M1313.63 9882.73l-296.4 0 0 -81.84c0,-104.42 48.12,-156.7 144.5,-156.7 45.71,0 82.47,14.53 110.27,43.53 27.73,29 41.63,67.8 41.63,116.49l0 78.52zm-265 -34.71l233.6 0 0 -44.24c0,-38.87 -10.44,-69.07 -31.25,-90.73 -20.82,-21.66 -50.31,-32.46 -88.48,-32.46 -75.92,0 -113.87,40.36 -113.87,121.15l0 46.28z"/>
  <path id="_8_7" class="fil2" d="M1313.63 12004.93l0 33.87 -256.11 0c2.61,2.61 5.64,6.49 9.03,11.5 3.31,5.01 6.7,10.65 10.02,16.93 3.31,6.28 6.35,12.91 9.24,19.83 2.96,6.98 5.22,13.76 6.84,20.39l-34.29 0c-2.04,-7.41 -4.87,-15.31 -8.39,-23.64 -3.53,-8.39 -7.41,-16.58 -11.79,-24.62 -4.3,-8.04 -8.89,-15.66 -13.61,-22.86 -4.8,-7.13 -9.39,-13.34 -13.97,-18.63l0 -12.77 303.03 0z"/>
  <path id="_9_8" class="fil2" d="M1164.19 11715.59c24.77,0 46.78,2.19 65.9,6.7 19.19,4.45 35.35,10.94 48.47,19.41 13.2,8.46 23.22,18.91 29.99,31.25 6.84,12.35 10.23,26.32 10.23,42.05 0,14.89 -3.25,28.16 -9.81,39.8 -6.56,11.64 -16.08,21.45 -28.64,29.42 -12.49,8.04 -27.94,14.11 -46.14,18.2 -18.28,4.16 -39.23,6.21 -62.8,6.21 -25.89,0 -48.75,-2.19 -68.58,-6.49 -19.89,-4.38 -36.48,-10.73 -49.95,-19.12 -13.41,-8.4 -23.57,-18.84 -30.34,-31.33 -6.84,-12.49 -10.3,-26.74 -10.3,-42.9 0,-62.15 50.66,-93.2 151.97,-93.2zm3.32 34.71c-84.38,0 -126.5,20.04 -126.5,60.12 0,42.33 42.89,63.5 128.76,63.5 80.08,0 120.08,-20.75 120.08,-62.23 0,-40.92 -40.78,-61.39 -122.34,-61.39z"/>
  <path id="_10_9" class="fil2" d="M1230.94 11679.61c-7.83,0 -15.73,-1.2 -23.64,-3.67 -7.97,-2.54 -15.38,-6.06 -22.22,-10.65 -6.92,-4.66 -13.2,-10.37 -18.84,-17.14 -5.64,-6.85 -10.09,-14.61 -13.4,-23.29 -7.2,12.84 -16.37,23 -27.59,30.62 -11.29,7.55 -23.71,11.36 -37.33,11.36 -10.93,0 -20.95,-2.11 -30.19,-6.35 -9.25,-4.16 -17.22,-10.02 -23.99,-17.42 -6.77,-7.48 -12,-16.3 -15.81,-26.46 -3.81,-10.23 -5.71,-21.24 -5.71,-33.09 0,-12 1.97,-23.07 5.86,-33.3 3.81,-10.16 9.1,-18.98 15.87,-26.46 6.77,-7.41 14.75,-13.2 23.99,-17.36 9.24,-4.09 19.19,-6.21 29.98,-6.21 13.62,0 26.04,3.81 37.33,11.36 11.22,7.62 20.39,17.64 27.59,30.2 3.31,-8.54 7.76,-16.16 13.4,-22.93 5.64,-6.77 11.92,-12.42 18.84,-17.08 6.84,-4.58 14.25,-8.11 22.22,-10.65 7.91,-2.47 15.81,-3.67 23.64,-3.67 12.98,0 24.83,2.33 35.56,6.99 10.72,4.72 19.97,11.29 27.59,19.75 7.69,8.47 13.61,18.63 17.92,30.41 4.23,11.78 6.35,24.77 6.35,38.95 0,14.04 -2.12,26.95 -6.35,38.66 -4.31,11.71 -10.23,21.8 -17.92,30.41 -7.62,8.54 -16.87,15.17 -27.59,19.9 -10.73,4.8 -22.58,7.12 -35.56,7.12zm-2.89 -36.76c9.24,0 17.56,-1.41 25.04,-4.23 7.41,-2.82 13.76,-6.84 18.98,-11.99 5.22,-5.15 9.25,-11.43 12.07,-18.84 2.89,-7.34 4.3,-15.52 4.3,-24.48 0,-8.68 -1.48,-16.66 -4.37,-23.99 -2.9,-7.27 -6.99,-13.62 -12.21,-18.91 -5.22,-5.29 -11.57,-9.46 -18.98,-12.42 -7.48,-2.96 -15.73,-4.44 -24.83,-4.44 -8.26,0 -16.02,1.41 -23.29,4.23 -7.19,2.89 -13.54,6.91 -19.05,12.13 -5.57,5.23 -9.87,11.51 -13.05,18.77 -3.17,7.34 -4.73,15.52 -4.73,24.63 0,8.53 1.49,16.44 4.45,23.7 2.96,7.2 7.05,13.48 12.35,18.77 5.36,5.29 11.64,9.45 19.05,12.49 7.33,3.03 15.45,4.58 24.27,4.58zm-137.44 -10.58c6.98,0 13.54,-1.27 19.54,-3.81 6,-2.54 11.22,-6.07 15.66,-10.51 4.52,-4.52 8.05,-9.67 10.59,-15.59 2.54,-5.93 3.81,-12.28 3.81,-19.05 0,-6.78 -1.34,-13.13 -3.96,-19.12 -2.61,-6 -6.13,-11.22 -10.65,-15.6 -4.44,-4.44 -9.67,-7.9 -15.66,-10.58 -6,-2.61 -12.42,-3.88 -19.33,-3.88 -7.2,0 -13.76,1.27 -19.83,3.81 -6.07,2.54 -11.36,6 -15.73,10.44 -4.45,4.38 -7.91,9.6 -10.45,15.59 -2.54,6 -3.81,12.42 -3.81,19.34 0,7.33 1.27,13.97 3.88,19.96 2.69,6 6.21,11.15 10.66,15.53 4.51,4.3 9.81,7.62 15.87,10.01 6,2.33 12.49,3.46 19.41,3.46z"/>
  <path id="_11_10" class="fil2" d="M1164.19 11259.25c24.77,0 46.78,2.19 65.9,6.7 19.19,4.45 35.35,10.94 48.47,19.41 13.2,8.46 23.22,18.91 29.99,31.25 6.84,12.35 10.23,26.32 10.23,42.05 0,14.89 -3.25,28.16 -9.81,39.8 -6.56,11.64 -16.08,21.45 -28.64,29.42 -12.49,8.04 -27.94,14.11 -46.14,18.2 -18.28,4.16 -39.23,6.21 -62.8,6.21 -25.89,0 -48.75,-2.19 -68.58,-6.49 -19.89,-4.38 -36.48,-10.73 -49.95,-19.12 -13.41,-8.4 -23.57,-18.84 -30.34,-31.33 -6.84,-12.49 -10.3,-26.74 -10.3,-42.9 0,-62.15 50.66,-93.2 151.97,-93.2zm3.32 34.71c-84.38,0 -126.5,20.04 -126.5,60.12 0,42.33 42.89,63.5 128.76,63.5 80.08,0 120.08,-20.75 120.08,-62.23 0,-40.92 -40.78,-61.39 -122.34,-61.39z"/>
  <path id="_12_11" class="fil2" d="M1094.91 9349.2c-9.1,0 -17,1.42 -23.78,4.24 -6.7,2.82 -12.34,6.7 -16.79,11.57 -4.52,4.94 -7.83,10.65 -10.02,17.28 -2.26,6.64 -3.31,13.76 -3.31,21.52 0,6.57 0.84,13.06 2.68,19.41 1.76,6.35 4.23,12.49 7.4,18.48 3.18,6 6.99,11.78 11.36,17.36 4.45,5.64 9.32,10.79 14.68,15.66l-36.34 0c-9.24,-9.52 -16.29,-20.18 -21.23,-31.96 -4.87,-11.78 -7.34,-26.18 -7.34,-43.11 0,-12.13 1.76,-23.35 5.29,-33.65 3.53,-10.37 8.68,-19.34 15.38,-26.88 6.77,-7.62 15.1,-13.55 25.05,-17.93 9.95,-4.3 21.31,-6.49 34.08,-6.49 11.71,0 22.36,1.34 31.89,4.02 9.45,2.69 18.41,6.78 26.81,12.21 8.47,5.43 16.51,12.28 24.2,20.6 7.76,8.26 15.59,17.92 23.56,29.14 9.95,13.9 18.42,25.33 25.47,34.36 6.99,9.03 13.55,16.23 19.69,21.52 6.14,5.29 12.28,9.03 18.41,11.15 6.14,2.19 13.2,3.24 21.17,3.24l0 -147.6 30.41 0 0 182.95 -14.68 0c-12.7,0 -23.84,-1.41 -33.51,-4.16 -9.59,-2.75 -18.77,-7.27 -27.44,-13.62 -8.68,-6.35 -17.36,-14.67 -26.04,-24.9 -8.68,-10.3 -18.49,-22.86 -29.35,-37.75 -7.76,-10.72 -15.1,-19.76 -22.15,-26.95 -7.06,-7.27 -14.05,-13.05 -21.1,-17.5 -6.99,-4.37 -14.11,-7.55 -21.38,-9.38 -7.27,-1.91 -14.89,-2.83 -23.07,-2.83z"/>
  <path id="_13_12" class="fil2" d="M1313.63 9130.98l0 33.87 -256.11 0c2.61,2.61 5.64,6.49 9.03,11.5 3.31,5.01 6.7,10.65 10.02,16.93 3.31,6.28 6.35,12.91 9.24,19.83 2.96,6.98 5.22,13.76 6.84,20.39l-34.29 0c-2.04,-7.41 -4.87,-15.31 -8.39,-23.64 -3.53,-8.39 -7.41,-16.58 -11.79,-24.62 -4.3,-8.04 -8.89,-15.66 -13.61,-22.86 -4.8,-7.13 -9.39,-13.34 -13.97,-18.63l0 -12.77 303.03 0z"/>
  <path id="_14_13" class="fil2" d="M1219.58 8841.22c14.46,0 27.8,2.33 39.86,6.98 12.14,4.73 22.65,11.22 31.47,19.48 8.82,8.25 15.66,18.13 20.53,29.56 4.94,11.43 7.34,23.85 7.34,37.18 0,14.89 -3.1,28.22 -9.31,40.01 -6.14,11.78 -15.1,21.8 -26.74,29.98 -11.64,8.19 -25.9,14.4 -42.69,18.7 -16.79,4.3 -35.77,6.42 -56.87,6.42 -25.75,0 -49.1,-2.89 -70.13,-8.61 -21.02,-5.71 -39.01,-13.83 -53.97,-24.41 -14.96,-10.51 -26.46,-23.21 -34.64,-38.1 -8.12,-14.89 -12.21,-31.47 -12.21,-49.81 0,-20.39 2.89,-36.83 8.54,-49.18l32.03 0c-7.9,15.24 -11.78,31.4 -11.78,48.33 0,13.27 2.96,25.19 8.89,35.77 5.92,10.59 14.25,19.69 25.11,27.31 10.8,7.55 23.85,13.4 39.16,17.42 15.31,4.1 32.32,6.14 51.01,6.14l0 -0.84c-24.62,-13.62 -36.97,-36.2 -36.97,-67.6 0,-12.98 2.19,-24.62 6.63,-35.06 4.38,-10.37 10.66,-19.26 18.7,-26.6 8.04,-7.41 17.64,-13.12 28.86,-17.07 11.15,-4.03 23.56,-6 37.18,-6zm4.3 34.71c-10.3,0 -19.61,1.34 -27.87,3.95 -8.25,2.61 -15.31,6.35 -21.09,11.22 -5.79,4.94 -10.23,10.94 -13.34,18.13 -3.1,7.13 -4.65,15.31 -4.65,24.34 0,8.47 1.62,16.23 4.8,23.36 3.17,7.2 7.47,13.4 12.91,18.63 5.43,5.22 11.78,9.31 18.98,12.27 7.26,2.96 14.95,4.45 23.07,4.45 10.23,0 19.75,-1.41 28.64,-4.31 8.89,-2.89 16.65,-6.98 23.22,-12.2 6.63,-5.22 11.85,-11.5 15.59,-18.7 3.81,-7.27 5.71,-15.24 5.71,-24.06 0,-8.54 -1.62,-16.37 -4.87,-23.35 -3.24,-7.06 -7.76,-13.06 -13.54,-17.99 -5.79,-5.01 -12.7,-8.82 -20.75,-11.58 -8.04,-2.75 -17,-4.16 -26.81,-4.16z"/>
  <path id="_15_14" class="fil2" d="M1164.19 8613.47c24.77,0 46.78,2.19 65.9,6.7 19.19,4.45 35.35,10.94 48.47,19.41 13.2,8.46 23.22,18.91 29.99,31.25 6.84,12.35 10.23,26.32 10.23,42.05 0,14.89 -3.25,28.16 -9.81,39.8 -6.56,11.64 -16.08,21.45 -28.64,29.42 -12.49,8.04 -27.94,14.11 -46.14,18.2 -18.28,4.16 -39.23,6.21 -62.8,6.21 -25.89,0 -48.75,-2.19 -68.58,-6.49 -19.89,-4.38 -36.48,-10.73 -49.95,-19.12 -13.41,-8.4 -23.57,-18.84 -30.34,-31.33 -6.84,-12.49 -10.3,-26.74 -10.3,-42.9 0,-62.15 50.66,-93.2 151.97,-93.2zm3.32 34.71c-84.38,0 -126.5,20.04 -126.5,60.12 0,42.33 42.89,63.5 128.76,63.5 80.08,0 120.08,-20.75 120.08,-62.23 0,-40.92 -40.78,-61.39 -122.34,-61.39z"/>
  <path id="_16_15" class="fil2" d="M1283.01 8527.05l0 0.84 127.99 0 0 33.94 -309.04 0 0 -33.94 37.19 0 0 -0.84c-28.08,-16.65 -42.12,-41.07 -42.12,-73.17 0,-27.23 9.45,-48.54 28.43,-63.85 18.91,-15.31 44.31,-22.93 76.13,-22.93 35.42,0 63.78,8.61 85.09,25.82 21.24,17.22 31.89,40.78 31.89,70.7 0,27.44 -11.85,48.54 -35.56,63.43zm-85.37 0.84l29.56 0c17.5,0 32.38,-5.64 44.59,-17.07 12.21,-11.36 18.27,-25.75 18.27,-43.25 0,-20.53 -7.83,-36.62 -23.56,-48.26 -15.73,-11.64 -37.54,-17.5 -65.55,-17.5 -23.56,0 -41.98,5.43 -55.38,16.37 -13.34,10.87 -20.04,25.61 -20.04,44.17 0,19.75 6.84,35.56 20.53,47.55 13.76,12 30.9,17.99 51.58,17.99z"/>
 </g>
</svg>
