<?xml version="1.0" encoding="UTF-8"?>
<!DOCTYPE svg PUBLIC "-//W3C//DTD SVG 1.1//EN" "http://www.w3.org/Graphics/SVG/1.1/DTD/svg11.dtd">
<!-- Creator: CorelDRAW -->
<svg xmlns="http://www.w3.org/2000/svg" xml:space="preserve" width="254.235mm" height="147.971mm" version="1.1" style="shape-rendering:geometricPrecision; text-rendering:geometricPrecision; image-rendering:optimizeQuality; fill-rule:evenodd; clip-rule:evenodd"
viewBox="0 0 24906.01 14495.92"
 xmlns:xlink="http://www.w3.org/1999/xlink"
 xmlns:xodm="http://www.corel.com/coreldraw/odm/2003">
 <defs>
  <style type="text/css">
   <![CDATA[
    .str0 {stroke:#B3B3B3;stroke-width:19.59;stroke-miterlimit:22.9256}
    .str1 {stroke:#E6E6E6;stroke-width:19.59;stroke-miterlimit:22.9256}
    .str2 {stroke:#333333;stroke-width:25.61;stroke-miterlimit:22.9256}
    .str3 {stroke:#333333;stroke-width:89.19;stroke-miterlimit:22.9256}
    .fil0 {fill:none}
    .fil1 {fill:#F0F0F0}
    .fil2 {fill:#B3B3B3;fill-rule:nonzero}
   ]]>
  </style>
   <clipPath id="id0">
    <path d="M21314.66 9825.14c1099.4,0 1990.64,891.24 1990.64,1990.64 0,1099.4 -891.24,1990.64 -1990.64,1990.64 -1099.4,0 -1990.64,-891.24 -1990.64,-1990.64 0,-1099.4 891.24,-1990.64 1990.64,-1990.64z"/>
   </clipPath>
 </defs>
 <g id="Layer_x0020_1">
  <metadata id="CorelCorpID_0Corel-Layer"/>
  <rect class="fil0 str0" x="593.37" y="569.01" width="23887.63" height="13436.79"/>
  <g id="_1901806059312">
   <rect class="fil0 str1" x="593.37" y="569" width="5971.91" height="4478.93"/>
   <rect class="fil0 str1" x="593.37" y="5047.93" width="5971.91" height="4478.93"/>
   <rect class="fil0 str1" x="593.37" y="9526.86" width="5971.91" height="4478.93"/>
   <rect class="fil0 str1" x="6565.28" y="569" width="5971.91" height="4478.93"/>
   <rect class="fil0 str1" x="6565.28" y="5047.93" width="5971.91" height="4478.93"/>
   <rect class="fil0 str1" x="6565.28" y="9526.86" width="5971.91" height="4478.93"/>
   <rect class="fil0 str1" x="12537.19" y="569" width="5971.91" height="4478.93"/>
   <rect class="fil0 str1" x="12537.19" y="5047.93" width="5971.91" height="4478.93"/>
   <rect class="fil0 str1" x="12537.19" y="9526.86" width="5971.91" height="4478.93"/>
   <rect class="fil0 str1" x="18509.1" y="569" width="5971.91" height="4478.93"/>
   <rect class="fil0 str1" x="18509.1" y="5047.93" width="5971.91" height="4478.93"/>
   <rect class="fil0 str1" x="18509.1" y="9526.86" width="5971.91" height="4478.93"/>
  </g>
  <g>
  </g>
  <g style="clip-path:url(#id0)">
   <g id="_1901806062432">
    <path class="fil1 str2" d="M20420.5 13766.56c14.61,2.69 18.27,6.36 21.91,20l-21.91 -20zm109.94 -294.34c29.96,0 23.57,-7.33 46.1,-12.58 -0.43,19.03 -5.95,29.38 -12.58,41.92 -14.89,-9.97 -23.32,-14.1 -33.52,-29.34zm-352.07 -863.43c114.73,0 103.1,-9.43 139.66,-82.48l65.71 -114.51c0,42.82 21.42,189.51 21.01,259.81 -0.56,97.29 4.6,179.81 4.1,276.71 -0.16,30.9 8.74,168.16 16.21,193.36 41.57,140.29 133.3,145.87 138.89,213.17 -22.4,10.76 -15.02,1.42 -31.12,23.36 -35.52,48.41 -54.87,5.95 -157.52,1.82 -46.64,-1.88 -77.65,-9.56 -98.22,-40.11 -62.91,-93.41 -74.47,-281.52 -77.67,-404.34 -0.59,-22.93 -3.91,-38.47 -4.16,-67.1 -0.49,-57.34 -16.91,-203.95 -16.91,-259.71zm1835.81 695.77c-7.13,-30.59 -40.55,-92.3 -50.29,-134.12 14.72,-7.06 27.95,-7.71 44.51,-14.17 127.99,-49.91 156.72,-277.39 122.36,-404.19 -7.71,-28.47 -20.31,-53.68 -26.32,-86.84 -5.82,-32.09 2.2,-109.98 1.94,-161.26 -0.14,-25.41 2.65,-35.55 4.21,-54.47 38.66,44.47 65.07,121.49 86.34,165.15 6.01,12.31 6.14,14.4 18.1,19.62 47.93,20.89 206.08,-15.95 243.44,-33.88 -2.81,33.77 -50.7,183.69 -65.24,219.75 -16.79,41.62 -27.14,60.49 -47.68,94.83l-165.35 266.37c-23.18,34.68 -33.1,51.16 -66.55,75.95 -22.96,17.02 -65.31,44.41 -99.45,47.25zm-1135.86 -2762.11c0,42.78 8.38,73.74 8.38,113.16 0,48.94 -41.34,134.43 29.34,150.89 0,45.83 0.89,66.9 8.66,104.51 3.09,14.98 7.55,33.48 11.73,46.95 5.38,17.37 12.72,26.05 13.15,45.52 -18.81,5.04 -29.86,23.69 -42.98,36.66 -49.42,48.85 -60.16,94.65 -133.55,117.95 -107.33,34.06 -138.56,24.65 -251.05,80.06 -52.94,26.07 -128.47,46.97 -150.67,96.62 -6.81,15.23 -2.51,15.16 -18.11,23.8 -102.01,56.44 -146.23,230.79 -205.96,330.54 -36.94,61.7 -134.47,268.03 -162.28,336.49 -15.1,37.13 -34.42,74.83 -49.77,113.71 -15.88,40.24 -27.96,81.51 -44.29,123.36l-39.83 123.94c-8.9,33.56 9.27,28.81 0.84,67.39 -47.24,216.44 129,738.67 181.38,949.49 24.35,97.99 58.59,202.65 137.24,260.96 51.9,38.47 129.01,77.66 171.24,126.33l47.23 53.48c16,18.76 16.24,17.49 6.22,41.57 -30.08,72.29 -58.85,172.71 -81.03,250.35 -41.53,145.33 -36.26,307.48 -80.85,451.45 -60.09,194.03 -130.63,434.67 -165.13,635.43 -62.43,363.29 -119.72,543.83 -46.05,924.34 3.89,20.1 6.64,32.42 10.04,52.83 11.3,67.81 6.14,90.96 -6.03,162.75 -4.6,27.14 -5.21,66.15 -10.84,93.93 -76.29,375.81 -92.65,237.21 -92.65,678.56 0,86.98 17.03,171.25 -4.97,259.09 -18.9,75.49 -20.23,66.91 -3.42,139.09 -43.09,28.86 -74.07,66.3 -116.12,97.64 -99.7,74.33 -300.56,69.54 -343.58,197.11 -8,23.75 -2,26.3 -5.97,48.51 -3.58,20 -16.34,14.55 -16.34,50.73 0,57.34 212.47,54.49 268.25,54.49 53.51,0 115.66,-11.96 161.01,-23.4 51.83,-13.09 92.56,-31.05 138.36,-50.25 45.22,-18.95 84.95,-36.99 128.07,-56.36 39.28,-17.64 94.19,-46.54 138.38,-50.23 6.6,24.73 31.94,50.59 37.73,75.45 68.3,0 207.76,-6.25 256.88,-53.28 39.56,-37.86 26.75,-114.8 23.71,-164.85 -1.93,-31.88 9.6,-35.98 16.87,-58.91 7.99,-25.26 -8.26,-93.32 -8.26,-129.52 0,-57.6 17.22,-165.09 16.82,-234.66 -0.92,-161.18 9.79,-219.93 51.08,-372.25 5.84,-21.52 13.03,-38.64 17.84,-65.99 12.08,-68.68 10.08,-177.44 2.89,-241.42 -5.04,-44.88 -0.61,-119.03 -0.61,-167.05 0,-30.98 -0.24,-55.23 -3.41,-80.41 -17.21,-136.55 0.17,-103.27 -0.79,-212.99 -0.26,-29.52 4.06,-41.74 4.37,-66.88 0.3,-25.02 -0.14,-50.54 -0.17,-75.62 -0.07,-53.8 6.1,-84.91 15.93,-126.57l58.69 -230.52c10.12,-40.75 17.66,-78.52 26.27,-120.42 11.76,-57.25 27.18,-109.19 55.94,-157.82l139.44 -225.21c53.9,-90.91 103.24,-189.3 140.12,-291.59l57.7 -160.25c14.29,-44.63 28.49,-124.25 67.55,-150.4 24.32,50.69 15.27,177.87 25.14,234.73 24.85,143.19 55.27,287.14 95.01,424.72 19.35,67 22.62,156.82 22.27,241.79 -0.11,26.82 4.16,34.21 4.46,58.42 0.73,60.76 7.46,120.72 18.37,178.63 33.6,178.58 41.09,227.88 40.12,416.74 -0.15,28.05 3.67,39.9 4.36,62.71 0.61,20.45 -0.16,42.49 -0.24,63.1 -0.11,27.79 4.41,36.15 4.44,62.63 0.14,119.64 8.66,119.12 -9.22,246.74 -37.29,266.09 -74.43,293 -41.98,579.86 3.64,32.2 5.81,54.7 10.92,85.47 4.74,28.5 14.98,59.03 14.98,85.61 0,33.84 -41.91,20.96 -41.91,117.36 0,51.33 11.7,23.16 -8.98,79.04 -12.25,33.05 -16.16,79.15 -16.16,117.96 0,69.68 18.2,22.81 -46.66,104.23l-71.31 92.16c-33.91,45.32 -74.97,92 -100.1,143 -27.12,55.04 -6.02,72.69 -19.17,102.08 -4.68,10.44 -10.05,23.49 -10.05,36.34 0,31.41 80.66,50.29 117.36,50.29 157.76,0 269.05,-11.08 399.62,-82.39 94.2,-51.44 78.47,-58.72 87.49,-113.69 2.57,-15.64 8.06,-16.78 11.66,-30.25 71.22,0 80.45,4.29 129.01,-42.84 39.23,-38.08 26.23,-90.56 26.07,-145.78 -0.15,-48.78 -7.02,-39.34 17.83,-66 33.56,-36 13.06,-107.7 21.46,-154.57 4.57,-25.4 15.31,-43.48 23.64,-64.38 31.5,-79.12 47.01,-188.52 63.44,-284.45 18.58,-108.55 29.4,-281.29 32.77,-398.94l4.15 -83.86c0.33,-27.6 4.53,-49.96 4.34,-83.68 -0.2,-33.9 4.42,-49.87 4.24,-83.78 -0.58,-112.34 8.36,-226.72 8.36,-339.52 0,-257.96 13.08,-512.91 12.72,-771.35l-16.78 -339.49c-4.95,-88.93 -16.89,-164.75 -16.89,-255.55 0,-93.37 3.65,-183.79 12.19,-272.82 10.7,-111.75 2.38,-234.04 21.88,-346.96 13.64,-79.01 20.43,-137.99 20.43,-222.68 0,-43.32 -17.22,-74.46 -27.58,-110.74 -10.91,-38.2 -17.92,-72.8 -26.91,-111.4 33.37,-2.78 142.61,-79.19 168.31,-99.93 49.35,-39.84 82.53,-97.33 120.84,-147.41 67.48,-88.19 128.8,-150.4 182.69,-219.68 101.13,-129.98 202.95,-229.55 288.08,-382.54 48.93,-87.94 90.93,-176.48 135.6,-266.77 16.45,-33.24 39.14,-57.51 39.14,-103.37 0,-35.82 -29.02,-61.1 -43.74,-90.67 -13.37,-26.84 5.89,-36.22 -13.54,-61.61 -77.33,-101.06 -214.24,-288.13 -289.59,-372.65 -6.96,-7.81 -11.87,-11.18 -18.4,-19.33 -39.51,-49.36 -44.64,-50.85 -89.17,-112.02 -48.28,-66.34 -135.9,-224.17 -189.93,-279.49l-56.76 -60.6c-47.91,-45.63 16.54,-88.63 -70.13,-126.86 -73.59,-32.47 -141.99,-68.6 -218.43,-95.92 -55.43,-19.81 -110.79,-46.12 -162.87,-71.85 -17.77,-8.79 -36.72,-16.14 -54.55,-25.09 -18.06,-9.06 -33.84,-17.68 -53.83,-25.81 -27.31,-11.11 -27.83,-11.91 -67.72,-11.91 -10.28,-44.12 -39.84,-103.62 -92.2,-104.78 4.03,-17.31 5.56,-40.63 8.12,-58.93 2.91,-20.75 8.64,-41.88 8.64,-62.62 59.62,0 61.76,-30.09 75.46,-79.63 50.01,-180.8 2.7,-155.93 32.65,-264.93 29.14,-106.08 28.21,-185.62 -15.95,-284.11 -93.71,-208.97 -192.59,-158.22 -310.65,-192.31 -130.15,-37.58 -329.96,23.95 -406.07,129.37 -127.36,176.41 -49.02,289.41 -67.97,342.5 -2.75,7.72 -7.44,13.54 -7.44,22.18z"/>
   </g>
  </g>
  <path class="fil0 str3" d="M21314.66 9825.14c1099.4,0 1990.64,891.24 1990.64,1990.64 0,1099.4 -891.24,1990.64 -1990.64,1990.64 -1099.4,0 -1990.64,-891.24 -1990.64,-1990.64 0,-1099.4 891.24,-1990.64 1990.64,-1990.64z"/>
  <polygon class="fil2" points="10397.78,53.43 10284.36,53.43 10284.36,153.85 10389.28,153.85 10389.28,184.48 10284.36,184.48 10284.36,313.04 10250.36,313.04 10250.36,22.67 10397.78,22.67 "/>
  <polygon id="_1" class="fil2" points="10671.15,313.04 10637.15,313.04 10637.15,180.61 10486.88,180.61 10486.88,313.04 10452.88,313.04 10452.88,22.67 10486.88,22.67 10486.88,150.05 10637.15,150.05 10637.15,22.67 10671.15,22.67 "/>
  <path id="_2" class="fil2" d="M10747.32 313.04l0 -290.37 80.17 0c102.29,0 153.51,47.14 153.51,141.56 0,44.78 -14.23,80.79 -42.64,108.03 -28.41,27.17 -66.42,40.78 -114.12,40.78l-76.92 0zm34 -259.61l0 228.84 43.34 0c38.08,0 67.66,-10.23 88.88,-30.61 21.22,-20.4 31.8,-49.29 31.8,-86.68 0,-74.37 -39.54,-111.55 -118.68,-111.55l-45.34 0z"/>
  <path id="_3" class="fil2" d="M11260.24 313.04l-33.18 0 0 -250.9c-2.56,2.56 -6.36,5.53 -11.27,8.85 -4.91,3.24 -10.43,6.56 -16.59,9.82 -6.15,3.17 -12.65,6.22 -19.43,9.05 -6.84,2.9 -13.48,5.11 -19.97,6.7l0 -33.59c7.26,-2.07 15,-4.77 23.16,-8.22 8.22,-3.46 16.24,-7.26 24.12,-11.55 7.88,-4.21 15.34,-8.71 22.39,-13.33 6.98,-4.7 13.07,-9.2 18.25,-13.69l12.51 0 0 296.86z"/>
  <path id="_4" class="fil2" d="M11540.44 150.39c0,26.62 -2.63,50.26 -7.88,70.98 -5.25,20.74 -12.92,38.29 -23.09,52.68 -10.09,14.37 -22.46,25.29 -37.04,32.83 -14.59,7.46 -31.17,11.2 -49.83,11.2 -19.15,0 -36.01,-3.39 -50.6,-10.09l0 -31.8c16.04,9.06 33.18,13.55 51.42,13.55 13.14,0 24.81,-2.69 35.11,-8.08 10.37,-5.4 19.08,-13.27 26.27,-23.57 7.11,-10.36 12.58,-23.09 16.38,-38.23 3.8,-15.07 5.66,-32.42 5.66,-52.05l-0.82 0c-12.37,25.02 -34.01,37.46 -64.76,37.46 -12.44,0 -23.85,-2.14 -34.22,-6.56 -10.43,-4.35 -19.42,-10.57 -26.96,-18.59 -7.53,-8.08 -13.4,-17.62 -17.62,-28.68 -4.14,-11.06 -6.29,-23.29 -6.29,-36.63 0,-14.31 2.35,-27.44 7.05,-39.33 4.63,-11.81 11.13,-22.04 19.43,-30.61 8.29,-8.57 18.1,-15.28 29.51,-19.97 11.47,-4.7 23.91,-7.12 37.39,-7.12 14.59,0 27.51,2.97 38.77,8.85 11.27,5.88 20.74,14.45 28.48,25.72 7.67,11.27 13.55,25.16 17.62,41.61 4.02,16.45 6.02,35.32 6.02,56.47zm-35.81 -29.71c0,-11.2 -1.45,-21.43 -4.35,-30.62 -2.9,-9.12 -6.92,-17.01 -12.03,-23.57 -5.18,-6.56 -11.27,-11.61 -18.38,-15.2 -7.05,-3.53 -14.79,-5.32 -23.16,-5.32 -7.94,0 -15.41,1.59 -22.26,4.76 -6.91,3.12 -12.85,7.6 -17.97,13.34 -5.05,5.74 -8.99,12.58 -11.89,20.46 -2.9,7.88 -4.35,16.52 -4.35,25.77 0,10.3 1.38,19.49 4.14,27.58 2.76,8.09 6.7,14.93 11.81,20.53 5.12,5.59 11.34,9.88 18.53,12.85 7.26,2.98 15.21,4.5 23.99,4.5 7.74,0 15,-1.45 21.77,-4.36 6.85,-2.9 12.78,-6.84 17.83,-11.75 5.05,-4.98 9.06,-10.79 11.96,-17.42 2.9,-6.71 4.35,-13.89 4.35,-21.56z"/>
  <path id="_5" class="fil2" d="M11717.04 98.77c0,-8.91 -1.39,-16.65 -4.15,-23.3 -2.76,-6.56 -6.56,-12.09 -11.33,-16.45 -4.84,-4.43 -10.43,-7.67 -16.93,-9.82 -6.5,-2.21 -13.48,-3.24 -21.08,-3.24 -6.44,0 -12.79,0.82 -19.01,2.63 -6.22,1.72 -12.24,4.14 -18.1,7.25 -5.88,3.12 -11.54,6.85 -17.01,11.13 -5.53,4.36 -10.57,9.13 -15.34,14.38l0 -35.6c9.33,-9.05 19.77,-15.96 31.31,-20.8 11.54,-4.77 25.65,-7.19 42.23,-7.19 11.88,0 22.87,1.72 32.97,5.18 10.16,3.46 18.95,8.5 26.33,15.07 7.46,6.63 13.27,14.79 17.57,24.54 4.21,9.75 6.36,20.88 6.36,33.39 0,11.47 -1.31,21.9 -3.94,31.24 -2.64,9.26 -6.64,18.04 -11.96,26.26 -5.32,8.3 -12.03,16.17 -20.18,23.71 -8.09,7.6 -17.56,15.27 -28.55,23.08 -13.62,9.75 -24.81,18.05 -33.66,24.95 -8.85,6.85 -15.9,13.27 -21.08,19.29 -5.18,6.02 -8.85,12.03 -10.92,18.04 -2.15,6.02 -3.17,12.93 -3.17,20.74l144.6 0 0 29.79 -179.23 0 0 -14.38c0,-12.44 1.38,-23.35 4.08,-32.83 2.69,-9.39 7.12,-18.39 13.34,-26.88 6.22,-8.5 14.37,-17.01 24.39,-25.51 10.09,-8.5 22.39,-18.11 36.98,-28.75 10.5,-7.6 19.36,-14.79 26.4,-21.7 7.12,-6.92 12.78,-13.76 17.14,-20.67 4.28,-6.85 7.4,-13.82 9.19,-20.94 1.87,-7.12 2.77,-14.59 2.77,-22.6z"/>
  <path id="_6" class="fil2" d="M11990.74 166.64c0,24.27 -2.15,45.83 -6.56,64.56 -4.36,18.8 -10.72,34.63 -19.01,47.48 -8.29,12.93 -18.53,22.68 -30.61,29.38 -12.1,6.7 -25.78,10.02 -41.19,10.02 -14.59,0 -27.59,-3.18 -38.99,-9.61 -11.4,-6.43 -21.01,-15.75 -28.82,-28.06 -7.88,-12.24 -13.82,-27.37 -17.83,-45.2 -4.08,-17.91 -6.08,-38.43 -6.08,-61.52 0,-25.36 2.15,-47.76 6.36,-67.18 4.29,-19.49 10.51,-35.74 18.73,-48.93 8.23,-13.14 18.46,-23.09 30.69,-29.79 12.24,-6.63 26.2,-10.02 42.03,-10.02 60.88,0 91.3,49.63 91.3,148.88zm-34 3.25c0,-82.66 -19.63,-123.92 -58.9,-123.92 -41.47,0 -62.21,42.02 -62.21,126.14 0,78.45 20.33,117.64 60.96,117.64 40.09,0 60.14,-39.95 60.14,-119.85z"/>
  <path id="_7" class="fil2" d="M12075.4 283.04l-0.82 0 0 125.38 -33.25 0 0 -302.75 33.25 0 0 36.43 0.82 0c16.31,-27.51 40.23,-41.26 71.68,-41.26 26.68,0 47.55,9.26 62.55,27.85 15,18.53 22.46,43.41 22.46,74.58 0,34.7 -8.43,62.48 -25.29,83.36 -16.87,20.81 -39.95,31.24 -69.26,31.24 -26.88,0 -47.55,-11.61 -62.14,-34.84zm-0.82 -83.63l0 28.96c0,17.14 5.53,31.72 16.72,43.68 11.13,11.96 25.23,17.9 42.37,17.9 20.11,0 35.87,-7.67 47.28,-23.08 11.4,-15.41 17.14,-36.78 17.14,-64.22 0,-23.08 -5.32,-41.13 -16.04,-54.25 -10.65,-13.07 -25.09,-19.63 -43.27,-19.63 -19.35,0 -34.84,6.7 -46.58,20.11 -11.76,13.48 -17.62,30.27 -17.62,50.53z"/>
  <path id="_8" class="fil2" d="M12485.42 317.87c-30.62,0 -55.1,-9.68 -73.4,-29.03 -18.25,-19.36 -27.44,-45.07 -27.44,-77.07 0,-34.84 9.53,-62 28.55,-81.63 19.07,-19.56 44.78,-29.3 77.21,-29.3 30.89,0 55.02,9.46 72.37,28.55 17.35,19.01 25.98,45.41 25.98,79.14 0,33.11 -9.33,59.58 -27.99,79.49 -18.73,19.91 -43.82,29.86 -75.27,29.86zm2.42 -189.11c-21.3,0 -38.16,7.26 -50.6,21.78 -12.44,14.51 -18.66,34.48 -18.66,60.06 0,24.53 6.29,43.89 18.87,58.05 12.58,14.18 29.38,21.29 50.39,21.29 21.49,0 38.01,-6.98 49.55,-20.87 11.55,-13.89 17.28,-33.66 17.28,-59.31 0,-25.92 -5.73,-45.9 -17.28,-59.92 -11.54,-14.1 -28.06,-21.08 -49.55,-21.08zm48.51 -128.76l-53.01 66.42 -25.72 0 45.14 -66.42 33.58 0z"/>
  <path id="_9" class="fil2" d="M12972.29 195.61c0,81.49 -36.77,122.27 -110.39,122.27 -70.43,0 -105.67,-39.2 -105.67,-117.65l0 -177.56 34 0 0 175.36c0,59.5 25.16,89.29 75.33,89.29 48.45,0 72.72,-28.75 72.72,-86.26l0 -178.39 34 0 0 172.94z"/>
  <polygon id="_10" class="fil2" points="13263.07,313.04 13229.07,313.04 13229.07,180.61 13078.8,180.61 13078.8,313.04 13044.8,313.04 13044.8,22.67 13078.8,22.67 13078.8,150.05 13229.07,150.05 13229.07,22.67 13263.07,22.67 "/>
  <path id="_11" class="fil2" d="M13339.24 313.04l0 -290.37 80.17 0c102.29,0 153.51,47.14 153.51,141.56 0,44.78 -14.23,80.79 -42.64,108.03 -28.41,27.17 -66.42,40.78 -114.12,40.78l-76.92 0zm34 -259.61l0 228.84 43.34 0c38.08,0 67.66,-10.23 88.88,-30.61 21.22,-20.4 31.8,-49.29 31.8,-86.68 0,-74.37 -39.54,-111.55 -118.68,-111.55l-45.34 0z"/>
  <path id="_12" class="fil2" d="M13898.54 230.78c0,13.13 -2.49,25.02 -7.4,35.81 -4.91,10.71 -11.89,19.91 -20.88,27.51 -8.98,7.6 -19.7,13.55 -32.28,17.69 -12.58,4.21 -26.4,6.29 -41.54,6.29 -27.65,0 -49.63,-5.25 -66.01,-15.76l0 -35.66c19.63,15.41 42.03,23.08 67.25,23.08 10.16,0 19.28,-1.24 27.44,-3.87 8.16,-2.56 15.2,-6.22 21.08,-11.13 5.88,-4.84 10.36,-10.71 13.55,-17.62 3.17,-6.84 4.77,-14.66 4.77,-23.3 0,-37.87 -27.03,-56.88 -81.01,-56.88l-24.13 0 0 -28.14 22.88 0c47.83,0 71.67,-17.83 71.67,-53.43 0,-32.97 -18.17,-49.41 -54.67,-49.41 -20.45,0 -39.74,6.84 -57.64,20.66l0 -32.21c18.46,-11.06 40.43,-16.65 66.01,-16.65 12.1,0 23.16,1.72 32.97,5.11 9.88,3.39 18.32,8.09 25.3,14.17 7.04,6.08 12.44,13.34 16.31,21.85 3.87,8.5 5.81,17.9 5.81,28.14 0,38.22 -19.36,62.82 -57.93,73.75l0 0.82c9.82,1.04 18.94,3.46 27.3,7.19 8.37,3.66 15.62,8.5 21.7,14.45 6.08,5.95 10.85,12.92 14.24,20.94 3.46,8.01 5.18,16.93 5.18,26.61z"/>
  <path id="_13" class="fil2" d="M13947.34 232.03c0,-7.67 1.18,-15.41 3.6,-23.16 2.49,-7.81 5.94,-15.07 10.43,-21.77 4.57,-6.78 10.16,-12.93 16.79,-18.46 6.71,-5.53 14.31,-9.88 22.82,-13.13 -12.58,-7.05 -22.53,-16.04 -30,-27.03 -7.4,-11.06 -11.13,-23.23 -11.13,-36.57 0,-10.71 2.07,-20.52 6.22,-29.58 4.08,-9.06 9.82,-16.87 17.07,-23.5 7.33,-6.63 15.97,-11.76 25.92,-15.49 10.02,-3.73 20.81,-5.59 32.42,-5.59 11.76,0 22.6,1.93 32.62,5.66 9.95,3.81 18.59,8.99 25.92,15.63 7.26,6.63 12.93,14.45 17.01,23.5 4.01,9.05 6.08,18.8 6.08,29.37 0,13.34 -3.73,25.51 -11.13,36.57 -7.46,10.99 -17.28,19.97 -29.59,27.03 8.37,3.24 15.83,7.6 22.46,13.13 6.63,5.53 12.17,11.68 16.73,18.46 4.49,6.7 7.94,13.96 10.43,21.77 2.42,7.75 3.6,15.49 3.6,23.16 0,12.72 -2.28,24.32 -6.85,34.84 -4.62,10.5 -11.06,19.56 -19.35,27.03 -8.3,7.53 -18.25,13.33 -29.79,17.56 -11.54,4.14 -24.27,6.22 -38.16,6.22 -13.75,0 -26.4,-2.08 -37.87,-6.22 -11.47,-4.22 -21.36,-10.02 -29.79,-17.56 -8.37,-7.46 -14.86,-16.53 -19.49,-27.03 -4.7,-10.51 -6.98,-22.12 -6.98,-34.84zm36.01 -2.83c0,9.05 1.38,17.2 4.14,24.53 2.76,7.26 6.7,13.48 11.75,18.59 5.05,5.11 11.2,9.06 18.46,11.82 7.19,2.83 15.2,4.21 23.98,4.21 8.5,0 16.32,-1.45 23.5,-4.28 7.12,-2.84 13.34,-6.85 18.53,-11.96 5.18,-5.11 9.27,-11.33 12.17,-18.59 2.9,-7.33 4.35,-15.41 4.35,-24.32 0,-8.09 -1.38,-15.69 -4.14,-22.82 -2.83,-7.04 -6.77,-13.26 -11.88,-18.73 -5.12,-5.39 -11.28,-9.6 -18.39,-12.72 -7.19,-3.11 -15.2,-4.63 -24.13,-4.63 -8.36,0 -16.11,1.46 -23.22,4.36 -7.05,2.9 -13.21,6.91 -18.39,12.1 -5.18,5.25 -9.26,11.4 -12.24,18.66 -2.97,7.18 -4.49,15.14 -4.49,23.78zm10.36 -134.64c0,6.84 1.24,13.26 3.73,19.14 2.49,5.88 5.95,10.99 10.3,15.34 4.43,4.43 9.47,7.89 15.27,10.37 5.81,2.49 12.03,3.73 18.66,3.73 6.64,0 12.86,-1.31 18.73,-3.88 5.88,-2.56 10.99,-6.01 15.28,-10.43 4.35,-4.35 7.74,-9.47 10.36,-15.34 2.56,-5.88 3.8,-12.17 3.8,-18.94 0,-7.05 -1.24,-13.48 -3.73,-19.43 -2.49,-5.95 -5.88,-11.13 -10.23,-15.41 -4.29,-4.36 -9.4,-7.75 -15.27,-10.24 -5.88,-2.49 -12.17,-3.73 -18.95,-3.73 -7.18,0 -13.69,1.24 -19.55,3.8 -5.88,2.64 -10.92,6.08 -15.21,10.44 -4.21,4.42 -7.46,9.61 -9.81,15.48 -2.28,5.95 -3.39,12.3 -3.39,19.08z"/>
  <path id="_14" class="fil2" d="M14324.71 22.67l0 191.74 37.26 0 0 30.41 -37.26 0 0 68.22 -32.76 0 0 -68.22 -136.51 0 0 -28.75c12.72,-14.3 25.51,-29.65 38.5,-45.9 12.93,-16.24 25.3,-32.76 37.12,-49.48 11.81,-16.73 22.74,-33.45 32.83,-50.12 10.02,-16.72 18.53,-32.62 25.44,-47.89l35.38 0zm-131.81 191.74l99.05 0 0 -142.11c-10.16,17.62 -19.77,33.45 -28.75,47.35 -9.05,13.89 -17.69,26.54 -25.85,37.87 -8.16,11.33 -15.97,21.56 -23.36,30.76 -7.46,9.19 -14.44,17.9 -21.08,26.13z"/>
  <path id="_15" class="fil2" d="M14582.66 166.64c0,24.27 -2.15,45.83 -6.56,64.56 -4.36,18.8 -10.72,34.63 -19.01,47.48 -8.29,12.93 -18.53,22.68 -30.61,29.38 -12.1,6.7 -25.78,10.02 -41.19,10.02 -14.59,0 -27.59,-3.18 -38.99,-9.61 -11.4,-6.43 -21.01,-15.75 -28.82,-28.06 -7.88,-12.24 -13.82,-27.37 -17.83,-45.2 -4.08,-17.91 -6.08,-38.43 -6.08,-61.52 0,-25.36 2.15,-47.76 6.36,-67.18 4.29,-19.49 10.51,-35.74 18.73,-48.93 8.23,-13.14 18.46,-23.09 30.69,-29.79 12.24,-6.63 26.2,-10.02 42.03,-10.02 60.88,0 91.3,49.63 91.3,148.88zm-34 3.25c0,-82.66 -19.63,-123.92 -58.9,-123.92 -41.47,0 -62.21,42.02 -62.21,126.14 0,78.45 20.33,117.64 60.96,117.64 40.09,0 60.14,-39.95 60.14,-119.85z"/>
  <path id="_16" class="fil2" d="M14667.33 283.04l-0.82 0 0 125.38 -33.25 0 0 -302.75 33.25 0 0 36.43 0.82 0c16.31,-27.51 40.23,-41.26 71.68,-41.26 26.68,0 47.55,9.26 62.55,27.85 15,18.53 22.46,43.41 22.46,74.58 0,34.7 -8.43,62.48 -25.29,83.36 -16.87,20.81 -39.95,31.24 -69.26,31.24 -26.88,0 -47.55,-11.61 -62.14,-34.84zm-0.82 -83.63l0 28.96c0,17.14 5.53,31.72 16.72,43.68 11.13,11.96 25.23,17.9 42.37,17.9 20.11,0 35.87,-7.67 47.28,-23.08 11.4,-15.41 17.14,-36.78 17.14,-64.22 0,-23.08 -5.32,-41.13 -16.04,-54.25 -10.65,-13.07 -25.09,-19.63 -43.27,-19.63 -19.35,0 -34.84,6.7 -46.58,20.11 -11.76,13.48 -17.62,30.27 -17.62,50.53z"/>
  <path class="fil2" d="M3590.57 14492.46l-33.18 0 0 -250.9c-2.56,2.56 -6.36,5.53 -11.27,8.85 -4.91,3.24 -10.43,6.56 -16.59,9.82 -6.15,3.17 -12.65,6.22 -19.43,9.05 -6.84,2.9 -13.48,5.11 -19.97,6.7l0 -33.59c7.26,-2.07 15,-4.77 23.16,-8.22 8.22,-3.46 16.24,-7.26 24.12,-11.55 7.88,-4.21 15.34,-8.71 22.39,-13.33 6.98,-4.7 13.07,-9.2 18.25,-13.69l12.51 0 0 296.86z"/>
  <path class="fil2" d="M24866.61 11970.66l-33.18 0 0 -250.9c-2.56,2.56 -6.36,5.53 -11.27,8.85 -4.91,3.24 -10.43,6.56 -16.59,9.82 -6.15,3.17 -12.65,6.22 -19.43,9.05 -6.84,2.9 -13.48,5.11 -19.97,6.7l0 -33.59c7.26,-2.07 15,-4.77 23.16,-8.22 8.22,-3.46 16.24,-7.26 24.12,-11.55 7.88,-4.21 15.34,-8.71 22.39,-13.33 6.98,-4.7 13.07,-9.2 18.25,-13.69l12.51 0 0 296.86z"/>
  <path class="fil2" d="M9495.91 14276.6c0,-8.91 -1.39,-16.65 -4.15,-23.3 -2.76,-6.56 -6.56,-12.09 -11.33,-16.45 -4.84,-4.43 -10.43,-7.67 -16.93,-9.82 -6.5,-2.21 -13.48,-3.24 -21.08,-3.24 -6.44,0 -12.79,0.82 -19.01,2.63 -6.22,1.72 -12.24,4.14 -18.1,7.25 -5.88,3.12 -11.54,6.85 -17.01,11.13 -5.53,4.36 -10.57,9.13 -15.34,14.38l0 -35.6c9.33,-9.05 19.77,-15.96 31.31,-20.8 11.54,-4.77 25.65,-7.19 42.23,-7.19 11.88,0 22.87,1.72 32.97,5.18 10.16,3.46 18.95,8.5 26.33,15.07 7.46,6.63 13.27,14.79 17.57,24.54 4.21,9.75 6.36,20.88 6.36,33.39 0,11.47 -1.31,21.9 -3.94,31.24 -2.64,9.26 -6.64,18.04 -11.96,26.26 -5.32,8.3 -12.03,16.17 -20.18,23.71 -8.09,7.6 -17.56,15.27 -28.55,23.08 -13.62,9.75 -24.81,18.05 -33.66,24.95 -8.85,6.85 -15.9,13.27 -21.08,19.29 -5.18,6.02 -8.85,12.03 -10.92,18.04 -2.15,6.02 -3.17,12.93 -3.17,20.74l144.6 0 0 29.79 -179.23 0 0 -14.38c0,-12.44 1.38,-23.35 4.08,-32.83 2.69,-9.39 7.12,-18.39 13.34,-26.88 6.22,-8.5 14.37,-17.01 24.39,-25.51 10.09,-8.5 22.39,-18.11 36.98,-28.75 10.5,-7.6 19.36,-14.79 26.4,-21.7 7.12,-6.92 12.78,-13.76 17.14,-20.67 4.28,-6.85 7.4,-13.82 9.19,-20.94 1.87,-7.12 2.77,-14.59 2.77,-22.6z"/>
  <path class="fil2" d="M24861.09 7306.13c0,-8.91 -1.39,-16.65 -4.15,-23.3 -2.76,-6.56 -6.56,-12.09 -11.33,-16.45 -4.84,-4.43 -10.43,-7.67 -16.93,-9.82 -6.5,-2.21 -13.48,-3.24 -21.08,-3.24 -6.44,0 -12.79,0.82 -19.01,2.63 -6.22,1.72 -12.24,4.14 -18.1,7.25 -5.88,3.12 -11.54,6.85 -17.01,11.13 -5.53,4.36 -10.57,9.13 -15.34,14.38l0 -35.6c9.33,-9.05 19.77,-15.96 31.31,-20.8 11.54,-4.77 25.65,-7.19 42.23,-7.19 11.88,0 22.87,1.72 32.97,5.18 10.16,3.46 18.95,8.5 26.33,15.07 7.46,6.63 13.27,14.79 17.57,24.54 4.21,9.75 6.36,20.88 6.36,33.39 0,11.47 -1.31,21.9 -3.94,31.24 -2.64,9.26 -6.64,18.04 -11.96,26.26 -5.32,8.3 -12.03,16.17 -20.18,23.71 -8.09,7.6 -17.56,15.27 -28.55,23.08 -13.62,9.75 -24.81,18.05 -33.66,24.95 -8.85,6.85 -15.9,13.27 -21.08,19.29 -5.18,6.02 -8.85,12.03 -10.92,18.04 -2.15,6.02 -3.17,12.93 -3.17,20.74l144.6 0 0 29.79 -179.23 0 0 -14.38c0,-12.44 1.38,-23.35 4.08,-32.83 2.69,-9.39 7.12,-18.39 13.34,-26.88 6.22,-8.5 14.37,-17.01 24.39,-25.51 10.09,-8.5 22.39,-18.11 36.98,-28.75 10.5,-7.6 19.36,-14.79 26.4,-21.7 7.12,-6.92 12.78,-13.76 17.14,-20.67 4.28,-6.85 7.4,-13.82 9.19,-20.94 1.87,-7.12 2.77,-14.59 2.77,-22.6z"/>
  <path class="fil2" d="M15563.14 14408.62c0,13.13 -2.49,25.02 -7.4,35.81 -4.91,10.71 -11.89,19.91 -20.88,27.51 -8.98,7.6 -19.7,13.55 -32.28,17.69 -12.58,4.21 -26.4,6.29 -41.54,6.29 -27.65,0 -49.63,-5.25 -66.01,-15.76l0 -35.66c19.63,15.41 42.03,23.08 67.25,23.08 10.16,0 19.28,-1.24 27.44,-3.87 8.16,-2.56 15.2,-6.22 21.08,-11.13 5.88,-4.84 10.36,-10.71 13.55,-17.62 3.17,-6.84 4.77,-14.66 4.77,-23.3 0,-37.87 -27.03,-56.88 -81.01,-56.88l-24.13 0 0 -28.14 22.88 0c47.83,0 71.67,-17.83 71.67,-53.43 0,-32.97 -18.17,-49.41 -54.67,-49.41 -20.45,0 -39.74,6.84 -57.64,20.66l0 -32.21c18.46,-11.06 40.43,-16.65 66.01,-16.65 12.1,0 23.16,1.72 32.97,5.11 9.88,3.39 18.32,8.09 25.3,14.17 7.04,6.08 12.44,13.34 16.31,21.85 3.87,8.5 5.81,17.9 5.81,28.14 0,38.22 -19.36,62.82 -57.93,73.75l0 0.82c9.82,1.04 18.94,3.46 27.3,7.19 8.37,3.66 15.62,8.5 21.7,14.45 6.08,5.95 10.85,12.92 14.24,20.94 3.46,8.01 5.18,16.93 5.18,26.61z"/>
  <path class="fil2" d="M24900.45 2920.82c0,13.13 -2.49,25.02 -7.4,35.81 -4.91,10.71 -11.89,19.91 -20.88,27.51 -8.98,7.6 -19.7,13.55 -32.28,17.69 -12.58,4.21 -26.4,6.29 -41.54,6.29 -27.65,0 -49.63,-5.25 -66.01,-15.76l0 -35.66c19.63,15.41 42.03,23.08 67.25,23.08 10.16,0 19.28,-1.24 27.44,-3.87 8.16,-2.56 15.2,-6.22 21.08,-11.13 5.88,-4.84 10.36,-10.71 13.55,-17.62 3.17,-6.84 4.77,-14.66 4.77,-23.3 0,-37.87 -27.03,-56.88 -81.01,-56.88l-24.13 0 0 -28.14 22.88 0c47.83,0 71.67,-17.83 71.67,-53.43 0,-32.97 -18.17,-49.41 -54.67,-49.41 -20.45,0 -39.74,6.84 -57.64,20.66l0 -32.21c18.46,-11.06 40.43,-16.65 66.01,-16.65 12.1,0 23.16,1.72 32.97,5.11 9.88,3.39 18.32,8.09 25.3,14.17 7.04,6.08 12.44,13.34 16.31,21.85 3.87,8.5 5.81,17.9 5.81,28.14 0,38.22 -19.36,62.82 -57.93,73.75l0 0.82c9.82,1.04 18.94,3.46 27.3,7.19 8.37,3.66 15.62,8.5 21.7,14.45 6.08,5.95 10.85,12.92 14.24,20.94 3.46,8.01 5.18,16.93 5.18,26.61z"/>
  <path class="fil2" d="M21376.29 14195.6l0 191.74 37.26 0 0 30.41 -37.26 0 0 68.22 -32.76 0 0 -68.22 -136.51 0 0 -28.75c12.72,-14.3 25.51,-29.65 38.5,-45.9 12.93,-16.24 25.3,-32.76 37.12,-49.48 11.81,-16.73 22.74,-33.45 32.83,-50.12 10.02,-16.72 18.53,-32.62 25.44,-47.89l35.38 0zm-131.81 191.74l99.05 0 0 -142.11c-10.16,17.62 -19.77,33.45 -28.75,47.35 -9.05,13.89 -17.69,26.54 -25.85,37.87 -8.16,11.33 -15.97,21.56 -23.36,30.76 -7.46,9.19 -14.44,17.9 -21.08,26.13z"/>
  <polygon class="fil2" points="53.43,9426.81 53.43,9540.23 153.85,9540.23 153.85,9435.31 184.48,9435.31 184.48,9540.23 313.04,9540.23 313.04,9574.24 22.67,9574.24 22.67,9426.81 "/>
  <polygon id="_1_0" class="fil2" points="313.04,9153.44 313.04,9187.44 180.61,9187.44 180.61,9337.71 313.04,9337.71 313.04,9371.71 22.67,9371.71 22.67,9337.71 150.05,9337.71 150.05,9187.44 22.67,9187.44 22.67,9153.44 "/>
  <path id="_2_1" class="fil2" d="M313.04 9077.27l-290.37 0 0 -80.17c0,-102.29 47.14,-153.51 141.56,-153.51 44.78,0 80.79,14.23 108.03,42.64 27.17,28.41 40.78,66.42 40.78,114.12l0 76.92zm-259.61 -34l228.84 0 0 -43.34c0,-38.08 -10.23,-67.66 -30.61,-88.88 -20.4,-21.22 -49.29,-31.8 -86.68,-31.8 -74.37,0 -111.55,39.54 -111.55,118.68l0 45.34z"/>
  <path id="_3_2" class="fil2" d="M283.04 7749.19l0 0.82 125.38 0 0 33.25 -302.75 0 0 -33.25 36.43 0 0 -0.82c-27.51,-16.31 -41.26,-40.23 -41.26,-71.68 0,-26.68 9.26,-47.55 27.85,-62.55 18.53,-15 43.41,-22.46 74.58,-22.46 34.7,0 62.48,8.43 83.36,25.29 20.81,16.87 31.24,39.95 31.24,69.26 0,26.88 -11.61,47.55 -34.84,62.14zm-83.63 0.82l28.96 0c17.14,0 31.72,-5.53 43.68,-16.72 11.96,-11.13 17.9,-25.23 17.9,-42.37 0,-20.11 -7.67,-35.87 -23.08,-47.28 -15.41,-11.4 -36.78,-17.14 -64.22,-17.14 -23.08,0 -41.13,5.32 -54.25,16.04 -13.07,10.65 -19.63,25.09 -19.63,43.27 0,19.35 6.7,34.84 20.11,46.58 13.48,11.76 30.27,17.62 50.53,17.62z"/>
  <path id="_4_3" class="fil2" d="M317.87 7339.17c0,30.62 -9.68,55.1 -29.03,73.4 -19.36,18.25 -45.07,27.44 -77.07,27.44 -34.84,0 -62,-9.53 -81.63,-28.55 -19.56,-19.07 -29.3,-44.78 -29.3,-77.21 0,-30.89 9.46,-55.02 28.55,-72.37 19.01,-17.35 45.41,-25.98 79.14,-25.98 33.11,0 59.58,9.33 79.49,27.99 19.91,18.73 29.86,43.82 29.86,75.27zm-189.11 -2.42c0,21.3 7.26,38.16 21.78,50.6 14.51,12.44 34.48,18.66 60.06,18.66 24.53,0 43.89,-6.29 58.05,-18.87 14.18,-12.58 21.29,-29.38 21.29,-50.39 0,-21.49 -6.98,-38.01 -20.87,-49.55 -13.89,-11.55 -33.66,-17.28 -59.31,-17.28 -25.92,0 -45.9,5.73 -59.92,17.28 -14.03,11.54 -21.08,28.06 -21.08,49.55zm-128.76 -48.51l66.42 53.01 0 25.72 -66.42 -45.14 0 -33.58z"/>
  <path id="_5_4" class="fil2" d="M195.61 6852.3c81.49,0 122.27,36.77 122.27,110.39 0,70.43 -39.2,105.67 -117.65,105.67l-177.56 0 0 -34 175.36 0c59.5,0 89.29,-25.16 89.29,-75.33 0,-48.45 -28.75,-72.72 -86.26,-72.72l-178.39 0 0 -34 172.94 0z"/>
  <polygon id="_6_5" class="fil2" points="313.04,6561.52 313.04,6595.52 180.61,6595.52 180.61,6745.79 313.04,6745.79 313.04,6779.79 22.67,6779.79 22.67,6745.79 150.05,6745.79 150.05,6595.52 22.67,6595.52 22.67,6561.52 "/>
  <path id="_7_6" class="fil2" d="M313.04 6485.35l-290.37 0 0 -80.17c0,-102.29 47.14,-153.51 141.56,-153.51 44.78,0 80.79,14.23 108.03,42.64 27.17,28.41 40.78,66.42 40.78,114.12l0 76.92zm-259.61 -34l228.84 0 0 -43.34c0,-38.08 -10.23,-67.66 -30.61,-88.88 -20.4,-21.22 -49.29,-31.8 -86.68,-31.8 -74.37,0 -111.55,39.54 -111.55,118.68l0 45.34z"/>
  <path id="_8_7" class="fil2" d="M313.04 8564.35l0 33.18 -250.9 0c2.56,2.56 5.53,6.36 8.85,11.27 3.24,4.91 6.56,10.43 9.82,16.59 3.24,6.15 6.22,12.65 9.05,19.43 2.9,6.84 5.11,13.48 6.7,19.97l-33.59 0c-2,-7.26 -4.77,-15 -8.22,-23.16 -3.46,-8.22 -7.26,-16.24 -11.55,-24.12 -4.21,-7.88 -8.71,-15.34 -13.33,-22.39 -4.7,-6.98 -9.2,-13.07 -13.69,-18.25l0 -12.51 296.86 0z"/>
  <path id="_9_8" class="fil2" d="M166.64 8280.9c24.27,0 45.83,2.15 64.56,6.56 18.8,4.36 34.63,10.72 47.48,19.01 12.93,8.29 22.75,18.53 29.38,30.61 6.7,12.1 10.02,25.78 10.02,41.19 0,14.59 -3.18,27.59 -9.61,38.99 -6.43,11.4 -15.75,21.01 -28.06,28.82 -12.24,7.88 -27.37,13.82 -45.2,17.83 -17.91,4.08 -38.43,6.08 -61.52,6.08 -25.36,0 -47.76,-2.15 -67.18,-6.36 -19.49,-4.29 -35.74,-10.51 -48.93,-18.73 -13.14,-8.23 -23.09,-18.46 -29.72,-30.69 -6.7,-12.24 -10.09,-26.2 -10.09,-42.03 0,-60.88 49.63,-91.3 148.88,-91.3zm3.25 34c-82.66,0 -123.92,19.63 -123.92,58.9 0,41.47 42.02,62.21 126.14,62.21 78.45,0 117.64,-20.33 117.64,-60.96 0,-40.09 -39.95,-60.14 -119.85,-60.14z"/>
  <path id="_10_9" class="fil2" d="M232.03 8245.65c-7.67,0 -15.41,-1.18 -23.16,-3.6 -7.81,-2.49 -15.07,-5.94 -21.77,-10.43 -6.78,-4.57 -12.93,-10.16 -18.46,-16.79 -5.53,-6.71 -9.88,-14.31 -13.13,-22.82 -7.05,12.58 -16.04,22.53 -27.03,30 -11.06,7.4 -23.23,11.13 -36.57,11.13 -10.71,0 -20.52,-2.07 -29.58,-6.22 -9.06,-4.08 -16.87,-9.82 -23.5,-17.07 -6.63,-7.33 -11.76,-15.97 -15.49,-25.92 -3.73,-10.02 -5.59,-20.81 -5.59,-32.42 0,-11.76 1.93,-22.6 5.74,-32.62 3.73,-9.95 8.91,-18.59 15.55,-25.92 6.63,-7.26 14.45,-12.93 23.5,-17.01 9.05,-4.01 18.8,-6.08 29.37,-6.08 13.34,0 25.51,3.73 36.57,11.13 10.99,7.46 19.97,17.28 27.03,29.59 3.24,-8.37 7.6,-15.83 13.13,-22.46 5.53,-6.63 11.68,-12.17 18.46,-16.73 6.7,-4.49 13.96,-7.94 21.77,-10.43 7.75,-2.42 15.49,-3.6 23.16,-3.6 12.72,0 24.32,2.28 34.84,6.85 10.5,4.62 19.56,11.06 27.03,19.35 7.53,8.3 13.33,18.25 17.56,29.79 4.14,11.54 6.22,24.27 6.22,38.16 0,13.75 -2.08,26.4 -6.22,37.87 -4.22,11.47 -10.02,21.36 -17.56,29.79 -7.46,8.37 -16.53,14.86 -27.03,19.49 -10.51,4.7 -22.12,6.98 -34.84,6.98zm-2.83 -36.01c9.05,0 17.2,-1.38 24.53,-4.14 7.26,-2.76 13.48,-6.7 18.59,-11.75 5.11,-5.05 9.06,-11.2 11.82,-18.46 2.83,-7.19 4.21,-15.2 4.21,-23.98 0,-8.5 -1.45,-16.32 -4.28,-23.5 -2.84,-7.12 -6.85,-13.34 -11.96,-18.53 -5.11,-5.18 -11.33,-9.27 -18.59,-12.17 -7.33,-2.9 -15.41,-4.35 -24.32,-4.35 -8.09,0 -15.69,1.38 -22.82,4.14 -7.04,2.83 -13.26,6.77 -18.66,11.88 -5.46,5.12 -9.67,11.28 -12.78,18.39 -3.11,7.19 -4.63,15.2 -4.63,24.13 0,8.36 1.46,16.11 4.36,23.22 2.9,7.05 6.91,13.21 12.1,18.39 5.25,5.18 11.4,9.26 18.66,12.24 7.18,2.97 15.14,4.49 23.78,4.49zm-134.64 -10.36c6.84,0 13.26,-1.24 19.14,-3.73 5.88,-2.49 10.99,-5.95 15.34,-10.3 4.43,-4.43 7.89,-9.47 10.37,-15.27 2.49,-5.81 3.73,-12.03 3.73,-18.66 0,-6.64 -1.31,-12.86 -3.88,-18.73 -2.56,-5.88 -6.01,-10.99 -10.43,-15.28 -4.35,-4.35 -9.47,-7.74 -15.34,-10.36 -5.88,-2.56 -12.17,-3.8 -18.94,-3.8 -7.05,0 -13.48,1.24 -19.43,3.73 -5.95,2.49 -11.13,5.88 -15.41,10.23 -4.36,4.29 -7.75,9.4 -10.24,15.27 -2.49,5.88 -3.73,12.17 -3.73,18.95 0,7.18 1.24,13.69 3.8,19.55 2.64,5.88 6.08,10.92 10.44,15.21 4.42,4.21 9.61,7.46 15.55,9.81 5.88,2.28 12.24,3.39 19.01,3.39z"/>
  <path id="_11_10" class="fil2" d="M166.64 7833.85c24.27,0 45.83,2.15 64.56,6.56 18.8,4.36 34.63,10.72 47.48,19.01 12.93,8.29 22.75,18.53 29.38,30.61 6.7,12.1 10.02,25.78 10.02,41.19 0,14.59 -3.18,27.59 -9.61,38.99 -6.43,11.4 -15.75,21.01 -28.06,28.82 -12.24,7.88 -27.37,13.82 -45.2,17.83 -17.91,4.08 -38.43,6.08 -61.52,6.08 -25.36,0 -47.76,-2.15 -67.18,-6.36 -19.49,-4.29 -35.74,-10.51 -48.93,-18.73 -13.14,-8.23 -23.09,-18.46 -29.72,-30.69 -6.7,-12.24 -10.09,-26.2 -10.09,-42.03 0,-60.88 49.63,-91.3 148.88,-91.3zm3.25 34c-82.66,0 -123.92,19.63 -123.92,58.9 0,41.47 42.02,62.21 126.14,62.21 78.45,0 117.64,-20.33 117.64,-60.96 0,-40.09 -39.95,-60.14 -119.85,-60.14z"/>
  <path id="_12_11" class="fil2" d="M98.77 5962.68c-8.91,0 -16.65,1.39 -23.3,4.15 -6.56,2.76 -12.09,6.56 -16.45,11.33 -4.43,4.84 -7.67,10.43 -9.82,16.93 -2.21,6.5 -3.24,13.48 -3.24,21.08 0,6.44 0.82,12.79 2.63,19.01 1.72,6.22 4.14,12.24 7.25,18.1 3.12,5.88 6.85,11.54 11.13,17.01 4.36,5.53 9.13,10.57 14.38,15.34l-35.6 0c-9.05,-9.33 -15.96,-19.77 -20.8,-31.31 -4.77,-11.54 -7.19,-25.65 -7.19,-42.23 0,-11.88 1.72,-22.87 5.18,-32.97 3.46,-10.16 8.5,-18.95 15.07,-26.33 6.63,-7.46 14.79,-13.27 24.54,-17.57 9.75,-4.21 20.88,-6.36 33.39,-6.36 11.47,0 21.9,1.31 31.24,3.94 9.26,2.64 18.04,6.64 26.26,11.96 8.3,5.32 16.17,12.03 23.71,20.18 7.6,8.09 15.27,17.56 23.08,28.55 9.75,13.62 18.05,24.81 24.95,33.66 6.85,8.85 13.27,15.9 19.29,21.08 6.02,5.18 12.03,8.85 18.04,10.92 6.02,2.15 12.93,3.17 20.74,3.17l0 -144.6 29.79 0 0 179.23 -14.38 0c-12.44,0 -23.35,-1.38 -32.83,-4.08 -9.39,-2.69 -18.39,-7.12 -26.88,-13.34 -8.5,-6.22 -17.01,-14.37 -25.51,-24.39 -8.5,-10.09 -18.11,-22.39 -28.75,-36.98 -7.6,-10.5 -14.79,-19.36 -21.7,-26.4 -6.92,-7.12 -13.76,-12.78 -20.67,-17.14 -6.85,-4.28 -13.82,-7.4 -20.94,-9.19 -7.12,-1.87 -14.59,-2.77 -22.6,-2.77z"/>
  <path id="_13_12" class="fil2" d="M313.04 5748.9l0 33.18 -250.9 0c2.56,2.56 5.53,6.36 8.85,11.27 3.24,4.91 6.56,10.43 9.82,16.59 3.24,6.15 6.22,12.65 9.05,19.43 2.9,6.84 5.11,13.48 6.7,19.97l-33.59 0c-2,-7.26 -4.77,-15 -8.22,-23.16 -3.46,-8.22 -7.26,-16.24 -11.55,-24.12 -4.21,-7.88 -8.71,-15.34 -13.33,-22.39 -4.7,-6.98 -9.2,-13.07 -13.69,-18.25l0 -12.51 296.86 0z"/>
  <path id="_14_13" class="fil2" d="M220.9 5465.04c14.17,0 27.23,2.28 39.05,6.84 11.89,4.63 22.19,10.99 30.83,19.08 8.64,8.08 15.34,17.76 20.11,28.96 4.84,11.2 7.19,23.36 7.19,36.42 0,14.59 -3.04,27.65 -9.12,39.2 -6.02,11.54 -14.79,21.36 -26.2,29.37 -11.4,8.02 -25.37,14.11 -41.82,18.32 -16.45,4.21 -35.04,6.29 -55.71,6.29 -25.23,0 -48.1,-2.83 -68.7,-8.43 -20.59,-5.59 -38.22,-13.55 -52.87,-23.91 -14.66,-10.3 -25.92,-22.74 -33.93,-37.32 -7.95,-14.59 -11.96,-30.83 -11.96,-48.8 0,-19.97 2.83,-36.08 8.37,-48.18l31.38 0c-7.74,14.93 -11.54,30.76 -11.54,47.35 0,13 2.9,24.68 8.71,35.04 5.8,10.37 13.96,19.29 24.6,26.75 10.58,7.4 23.36,13.13 38.36,17.07 15,4.02 31.66,6.02 49.97,6.02l0 -0.82c-24.12,-13.34 -36.22,-35.46 -36.22,-66.22 0,-12.72 2.15,-24.12 6.5,-34.35 4.29,-10.16 10.44,-18.87 18.32,-26.06 7.88,-7.26 17.28,-12.85 28.27,-16.72 10.92,-3.95 23.08,-5.88 36.42,-5.88zm4.21 34c-10.09,0 -19.21,1.31 -27.3,3.87 -8.08,2.56 -15,6.22 -20.66,10.99 -5.67,4.84 -10.02,10.72 -13.07,17.76 -3.04,6.98 -4.56,15 -4.56,23.84 0,8.3 1.59,15.9 4.7,22.88 3.11,7.05 7.32,13.13 12.65,18.25 5.32,5.11 11.54,9.12 18.59,12.02 7.11,2.9 14.65,4.36 22.6,4.36 10.02,0 19.35,-1.38 28.06,-4.22 8.71,-2.83 16.31,-6.84 22.75,-11.95 6.5,-5.11 11.61,-11.27 15.27,-18.32 3.73,-7.12 5.59,-14.93 5.59,-23.57 0,-8.37 -1.59,-16.04 -4.77,-22.87 -3.17,-6.92 -7.6,-12.79 -13.26,-17.62 -5.67,-4.91 -12.44,-8.64 -20.33,-11.34 -7.88,-2.69 -16.65,-4.08 -26.26,-4.08z"/>
  <path id="_15_14" class="fil2" d="M166.64 5241.93c24.27,0 45.83,2.15 64.56,6.56 18.8,4.36 34.63,10.72 47.48,19.01 12.93,8.29 22.75,18.53 29.38,30.61 6.7,12.1 10.02,25.78 10.02,41.19 0,14.59 -3.18,27.59 -9.61,38.99 -6.43,11.4 -15.75,21.01 -28.06,28.82 -12.24,7.88 -27.37,13.82 -45.2,17.83 -17.91,4.08 -38.43,6.08 -61.52,6.08 -25.36,0 -47.76,-2.15 -67.18,-6.36 -19.49,-4.29 -35.74,-10.51 -48.93,-18.73 -13.14,-8.23 -23.09,-18.46 -29.72,-30.69 -6.7,-12.24 -10.09,-26.2 -10.09,-42.03 0,-60.88 49.63,-91.3 148.88,-91.3zm3.25 34c-82.66,0 -123.92,19.63 -123.92,58.9 0,41.47 42.02,62.21 126.14,62.21 78.45,0 117.64,-20.33 117.64,-60.96 0,-40.09 -39.95,-60.14 -119.85,-60.14z"/>
  <path id="_16_15" class="fil2" d="M283.04 5157.27l0 0.82 125.38 0 0 33.25 -302.75 0 0 -33.25 36.43 0 0 -0.82c-27.51,-16.31 -41.26,-40.23 -41.26,-71.68 0,-26.68 9.26,-47.55 27.85,-62.55 18.53,-15 43.41,-22.46 74.58,-22.46 34.7,0 62.48,8.43 83.36,25.29 20.81,16.87 31.24,39.95 31.24,69.26 0,26.88 -11.61,47.55 -34.84,62.14zm-83.63 0.82l28.96 0c17.14,0 31.72,-5.53 43.68,-16.72 11.96,-11.13 17.9,-25.23 17.9,-42.37 0,-20.11 -7.67,-35.87 -23.08,-47.28 -15.41,-11.4 -36.78,-17.14 -64.22,-17.14 -23.08,0 -41.13,5.32 -54.25,16.04 -13.07,10.65 -19.63,25.09 -19.63,43.27 0,19.35 6.7,34.84 20.11,46.58 13.48,11.76 30.27,17.62 50.53,17.62z"/>
 </g>
</svg>
