<?xml version="1.0" encoding="UTF-8"?>
<!DOCTYPE svg PUBLIC "-//W3C//DTD SVG 1.1//EN" "http://www.w3.org/Graphics/SVG/1.1/DTD/svg11.dtd">
<!-- Creator: CorelDRAW -->
<svg xmlns="http://www.w3.org/2000/svg" xml:space="preserve" width="1280px" height="549px" version="1.1" style="shape-rendering:geometricPrecision; text-rendering:geometricPrecision; image-rendering:optimizeQuality; fill-rule:evenodd; clip-rule:evenodd"
viewBox="0 0 373.276 160.131"
 xmlns:xlink="http://www.w3.org/1999/xlink"
 xmlns:xodm="http://www.corel.com/coreldraw/odm/2003">
 <defs>
  <style type="text/css">
   <![CDATA[
    .str0 {stroke:white;stroke-width:0.175;stroke-miterlimit:22.9256}
    .fil2 {fill:none;fill-rule:nonzero}
    .fil1 {fill:white;fill-rule:nonzero}
    .fil0 {fill:url(#id0)}
   ]]>
  </style>
  <linearGradient id="id0" gradientUnits="userSpaceOnUse" x1="0" y1="80.065" x2="373.276" y2="80.065">
   <stop offset="0" style="stop-opacity:1; stop-color:#2567F5"/>
   <stop offset="1" style="stop-opacity:1; stop-color:#7F4CDA"/>
  </linearGradient>
 </defs>
 <g id="Capa_x0020_1">
  <metadata id="CorelCorpID_0Corel-Layer"/>
  <path class="fil0" d="M40.827 0l323.117 0c5.133,0 9.332,4.199 9.332,9.332l0 115.804c0,19.247 -15.747,34.995 -34.994,34.995l-328.95 0c-5.133,0 -9.332,-4.199 -9.332,-9.332l0 -109.972c0,-22.455 18.372,-40.827 40.827,-40.827z"/>
  <path class="fil1" d="M47.707 9.181c-20.833,0 -37.721,16.888 -37.721,37.721 0,16.759 10.938,30.948 26.058,35.863l0.014 0.003 0.615 0c0.883,-0.151 1.608,-0.938 1.608,-1.914l0 -7.073c-1.462,0.207 -3.195,0.422 -3.929,0.388 -2.124,-0.096 -4.087,-0.432 -5.07,-1.022 -1.145,-0.687 -2.752,-1.963 -3.221,-2.986 -0.668,-1.452 -0.823,-2.186 -1.611,-3.457 -0.707,-1.139 -1.926,-2.318 -2.712,-2.749 -0.787,-0.433 -1.533,-1.023 -1.69,-1.415 -0.156,-0.394 0.196,-0.943 0.943,-1.062 0.745,-0.117 2.082,0.119 3.457,0.747 1.041,0.475 2.19,1.824 2.986,2.986 0.943,1.376 2.201,2.791 3.261,3.419 1.06,0.628 3.261,0.943 5.343,0.628 0.809,-0.121 1.65,-0.423 2.38,-0.743 0.293,-1.952 1.162,-3.707 2.458,-5.076 -11.107,-1.359 -17.203,-6.511 -17.203,-17.794 0,-4.352 1.449,-7.943 3.919,-10.759 -0.281,-0.617 -0.575,-1.454 -0.72,-2.514 -0.325,-2.357 0.058,-3.772 0.383,-5.156 0.324,-1.385 0.707,-2.358 0.707,-2.358 0,0 1.739,-0.177 3.212,0.324 1.473,0.502 2.74,0.885 4.568,1.975 0.86,0.513 1.726,1.075 2.409,1.53 2.93,-0.813 6.159,-1.23 9.556,-1.23 3.367,0 6.568,0.415 9.478,1.222 0.681,-0.453 1.541,-1.011 2.395,-1.52 1.828,-1.09 3.095,-1.473 4.568,-1.975 1.473,-0.502 3.212,-0.324 3.212,-0.324 0,0 0.383,0.973 0.707,2.358 0.325,1.384 0.708,2.798 0.384,5.156 -0.142,1.034 -0.427,1.856 -0.7,2.469 2.518,2.833 3.993,6.447 3.993,10.803 0,11.451 -6.17,16.479 -17.196,17.803 1.596,1.688 2.59,3.953 2.59,6.46l0 10.946c0,0.971 0.714,1.754 1.588,1.913l0.637 0c15.125,-4.913 26.066,-19.104 26.066,-35.866 0,-20.833 -16.888,-37.721 -37.722,-37.721zm-24.068 54.181c-0.29,-0.149 -0.447,-0.424 -0.349,-0.618 0.099,-0.195 0.415,-0.231 0.706,-0.081 0.29,0.149 0.447,0.424 0.349,0.618 -0.098,0.194 -0.415,0.23 -0.706,0.081zm2.286 1.424c-0.153,0.166 -0.481,0.113 -0.734,-0.117 -0.253,-0.23 -0.334,-0.552 -0.181,-0.718 0.153,-0.166 0.481,-0.113 0.734,0.117 0.253,0.23 0.334,0.552 0.181,0.718zm1.422 2.358c-0.192,0.136 -0.518,0.009 -0.728,-0.283 -0.209,-0.292 -0.222,-0.641 -0.03,-0.777 0.192,-0.136 0.519,-0.009 0.728,0.283 0.208,0.292 0.223,0.641 0.03,0.777zm2.043 1.775c-0.13,0.211 -0.5,0.22 -0.825,0.022 -0.324,-0.198 -0.483,-0.53 -0.352,-0.741 0.13,-0.211 0.5,-0.22 0.824,-0.023 0.324,0.198 0.483,0.53 0.353,0.742zm1.931 1.737c-0.402,-0.049 -0.7,-0.3 -0.666,-0.56 0.032,-0.261 0.385,-0.431 0.785,-0.381 0.401,0.049 0.699,0.299 0.666,0.56 -0.032,0.258 -0.383,0.43 -0.785,0.381zm3.114 0.451c-0.428,-0.025 -0.762,-0.27 -0.745,-0.546 0.017,-0.275 0.377,-0.48 0.805,-0.456 0.428,0.025 0.762,0.27 0.745,0.545 -0.017,0.277 -0.377,0.481 -0.805,0.457zm2.938 -0.295c-0.456,0 -0.826,-0.237 -0.826,-0.53 0,-0.292 0.37,-0.53 0.826,-0.53 0.457,0 0.826,0.238 0.826,0.53 0,0.293 -0.371,0.53 -0.826,0.53z"/>
  <g>
   <path class="fil1" d="M346.14 104.727l-229.837 0 -0.018 -3.406 229.837 0 0 0 0.018 3.406zm7.115 6.759l-3.245 -1.021 0 0 0.093 -0.331 0.074 -0.321 0.057 -0.313 0.039 -0.305 0.022 -0.294 0.006 -0.284 -0.008 -0.275 -0.024 -0.266 -0.037 -0.253 -0.05 -0.244 -0.063 -0.235 -0.074 -0.223 -0.087 -0.213 -0.097 -0.204 -0.109 -0.194 -0.119 -0.184 -0.129 -0.175 -0.141 -0.167 -0.151 -0.156 -0.162 -0.148 -0.173 -0.139 -0.184 -0.129 -0.197 -0.12 -0.208 -0.11 -0.222 -0.1 -0.234 -0.089 -0.248 -0.078 -0.261 -0.065 -0.275 -0.052 -0.289 -0.039 -0.303 -0.024 -0.316 -0.008 -0.018 -3.406 0.492 0.013 0.483 0.038 0.473 0.063 0.463 0.088 0.452 0.113 0.439 0.138 0.426 0.162 0.412 0.185 0.397 0.21 0.38 0.232 0.364 0.255 0.344 0.276 0.325 0.297 0.304 0.316 0.283 0.334 0.261 0.353 0.239 0.369 0.214 0.383 0.19 0.398 0.166 0.41 0.142 0.423 0.115 0.431 0.092 0.442 0.065 0.45 0.04 0.456 0.015 0.463 -0.011 0.469 -0.036 0.473 -0.061 0.477 -0.086 0.48 -0.112 0.483 -0.137 0.485 0 0zm-8.044 14.553l4.799 -15.574 3.245 1.021 -4.798 15.574 0 0 -3.246 -1.021zm-8.769 10.165l-0.018 -3.406 0 0 0.326 -0.008 0.33 -0.025 0.334 -0.041 0.336 -0.058 0.338 -0.073 0.341 -0.089 0.341 -0.105 0.341 -0.121 0.34 -0.135 0.338 -0.15 0.335 -0.164 0.332 -0.179 0.328 -0.191 0.323 -0.205 0.317 -0.216 0.31 -0.229 0.303 -0.24 0.294 -0.251 0.286 -0.261 0.276 -0.269 0.265 -0.28 0.255 -0.287 0.242 -0.295 0.23 -0.302 0.217 -0.309 0.204 -0.313 0.189 -0.319 0.174 -0.323 0.16 -0.326 0.143 -0.33 0.128 -0.331 0.111 -0.334 3.246 1.021 -0.161 0.481 -0.181 0.474 -0.203 0.464 -0.222 0.454 -0.24 0.445 -0.258 0.435 -0.275 0.424 -0.291 0.413 -0.306 0.402 -0.321 0.39 -0.335 0.379 -0.348 0.366 -0.362 0.354 -0.372 0.34 -0.385 0.328 -0.395 0.312 -0.405 0.299 -0.415 0.284 -0.424 0.269 -0.433 0.253 -0.441 0.236 -0.449 0.22 -0.456 0.203 -0.462 0.184 -0.469 0.165 -0.474 0.146 -0.479 0.126 -0.484 0.105 -0.488 0.083 -0.491 0.06 -0.494 0.037 -0.496 0.013 0 0zm-229.854 -3.406l229.836 0 0.018 3.406 -229.837 0 0 0 -0.017 -3.406zm-7.116 -6.759l3.246 1.021 0 0 -0.094 0.331 -0.074 0.321 -0.056 0.313 -0.039 0.305 -0.023 0.294 -0.006 0.285 0.009 0.274 0.023 0.266 0.037 0.253 0.05 0.244 0.063 0.235 0.075 0.223 0.086 0.213 0.098 0.204 0.108 0.194 0.119 0.184 0.13 0.175 0.14 0.167 0.151 0.156 0.162 0.148 0.173 0.139 0.185 0.129 0.196 0.12 0.209 0.11 0.221 0.1 0.235 0.089 0.247 0.078 0.262 0.065 0.274 0.052 0.289 0.039 0.303 0.024 0.317 0.008 0.017 3.406 -0.492 -0.013 -0.483 -0.038 -0.473 -0.063 -0.463 -0.088 -0.452 -0.113 -0.439 -0.138 -0.426 -0.162 -0.412 -0.185 -0.397 -0.21 -0.38 -0.232 -0.363 -0.255 -0.344 -0.276 -0.326 -0.296 -0.304 -0.317 -0.283 -0.334 -0.261 -0.353 -0.238 -0.369 -0.214 -0.383 -0.191 -0.398 -0.166 -0.41 -0.141 -0.423 -0.116 -0.431 -0.091 -0.441 -0.066 -0.451 -0.04 -0.456 -0.015 -0.463 0.011 -0.469 0.036 -0.473 0.061 -0.477 0.086 -0.48 0.112 -0.483 0.137 -0.485 0 0zm8.044 -14.553l-4.798 15.574 -3.246 -1.021 4.798 -15.574 0 0 3.246 1.021zm8.769 -10.165l0.018 3.406 0 0 -0.326 0.008 -0.329 0.025 -0.334 0.041 -0.337 0.058 -0.338 0.073 -0.34 0.09 -0.342 0.104 -0.34 0.121 -0.34 0.135 -0.339 0.15 -0.335 0.164 -0.332 0.179 -0.328 0.191 -0.323 0.205 -0.317 0.216 -0.31 0.229 -0.303 0.24 -0.294 0.251 -0.286 0.261 -0.275 0.27 -0.266 0.279 -0.254 0.287 -0.243 0.295 -0.23 0.302 -0.217 0.309 -0.203 0.313 -0.189 0.319 -0.175 0.323 -0.159 0.326 -0.144 0.33 -0.128 0.331 -0.111 0.334 -3.246 -1.021 0.161 -0.481 0.182 -0.474 0.202 -0.464 0.222 -0.454 0.24 -0.445 0.259 -0.435 0.275 -0.424 0.29 -0.413 0.307 -0.402 0.321 -0.39 0.335 -0.379 0.348 -0.366 0.361 -0.354 0.373 -0.34 0.384 -0.327 0.395 -0.313 0.405 -0.299 0.415 -0.284 0.424 -0.269 0.434 -0.253 0.44 -0.236 0.45 -0.22 0.455 -0.202 0.463 -0.185 0.469 -0.165 0.473 -0.146 0.479 -0.126 0.484 -0.105 0.488 -0.083 0.491 -0.06 0.494 -0.037 0.496 -0.013 0 0z"/>
  </g>
  <path class="fil1" d="M122.114 125.032l-2.174 -4.145c-0.217,-0.413 -0.423,-0.753 -0.626,-1.028 -0.199,-0.279 -0.409,-0.499 -0.622,-0.664 -0.214,-0.162 -0.444,-0.282 -0.688,-0.351 -0.248,-0.072 -0.52,-0.107 -0.822,-0.107l-1.589 0 0 6.295 -1.342 0 0 -14.446 4.158 0c0.544,0 1.07,0.079 1.579,0.241 0.506,0.162 0.956,0.399 1.352,0.715 0.395,0.317 0.715,0.712 0.953,1.187 0.237,0.478 0.357,1.032 0.357,1.661 0,0.509 -0.075,0.98 -0.23,1.41 -0.155,0.427 -0.375,0.809 -0.661,1.142 -0.285,0.33 -0.629,0.612 -1.035,0.843 -0.409,0.234 -0.866,0.406 -1.376,0.519l0 0.041c0.197,0.079 0.372,0.186 0.534,0.313 0.161,0.128 0.316,0.282 0.467,0.465 0.152,0.179 0.3,0.388 0.447,0.622 0.148,0.238 0.303,0.506 0.461,0.808l2.425 4.479 -1.568 0zm-6.521 -13.208l0 5.696 2.394 0c0.484,0 0.925,-0.069 1.327,-0.21 0.403,-0.141 0.746,-0.344 1.032,-0.605 0.285,-0.258 0.506,-0.575 0.664,-0.943 0.158,-0.368 0.237,-0.784 0.237,-1.245 0,-0.839 -0.268,-1.496 -0.808,-1.974 -0.54,-0.478 -1.321,-0.719 -2.342,-0.719l-2.504 0z"/>
  <path id="_1" class="fil1" d="M126.54 125.238c-0.268,0 -0.498,-0.093 -0.684,-0.282 -0.189,-0.186 -0.282,-0.416 -0.282,-0.684 0,-0.272 0.093,-0.506 0.275,-0.692 0.186,-0.189 0.416,-0.282 0.691,-0.282 0.135,0 0.258,0.024 0.375,0.076 0.117,0.051 0.22,0.117 0.307,0.199 0.089,0.086 0.158,0.186 0.213,0.306 0.051,0.124 0.079,0.255 0.079,0.393 0,0.134 -0.028,0.261 -0.079,0.378 -0.055,0.117 -0.124,0.22 -0.213,0.306 -0.087,0.086 -0.19,0.155 -0.307,0.206 -0.117,0.052 -0.24,0.076 -0.375,0.076z"/>
  <polygon id="_2" class="fil1" points="134.802,111.824 134.802,125.032 133.46,125.032 133.46,111.824 129.292,111.824 129.292,110.586 138.97,110.586 138.97,111.824 "/>
  <path id="_3" class="fil1" d="M139.621 120.1c0.006,0.632 0.089,1.2 0.25,1.705 0.162,0.503 0.393,0.932 0.695,1.28 0.303,0.351 0.671,0.619 1.104,0.801 0.434,0.186 0.922,0.279 1.466,0.279 1.162,0 2.259,-0.406 3.294,-1.221l0 1.276c-0.987,0.705 -2.183,1.059 -3.587,1.059 -0.691,0 -1.321,-0.12 -1.885,-0.364 -0.564,-0.241 -1.042,-0.592 -1.441,-1.053 -0.395,-0.461 -0.701,-1.028 -0.915,-1.699 -0.216,-0.674 -0.323,-1.441 -0.323,-2.301 0,-0.774 0.117,-1.489 0.351,-2.149 0.237,-0.657 0.56,-1.228 0.977,-1.71 0.419,-0.481 0.911,-0.856 1.482,-1.128 0.571,-0.272 1.194,-0.409 1.871,-0.409 0.667,0 1.252,0.117 1.765,0.347 0.509,0.234 0.939,0.564 1.282,0.994 0.348,0.43 0.609,0.953 0.792,1.572 0.182,0.619 0.271,1.31 0.271,2.074l0 0.647 -7.449 0zm6.128 -1.136c-0.02,-1.073 -0.275,-1.905 -0.767,-2.496 -0.491,-0.592 -1.176,-0.888 -2.049,-0.888 -0.437,0 -0.843,0.076 -1.218,0.231 -0.371,0.154 -0.702,0.378 -0.984,0.67 -0.282,0.293 -0.516,0.65 -0.701,1.07 -0.186,0.419 -0.313,0.891 -0.389,1.413l6.108 0z"/>
  <path id="_4" class="fil1" d="M155.566 125.032l0 -1.837 -0.042 0c-0.333,0.66 -0.794,1.173 -1.375,1.537 -0.582,0.365 -1.239,0.547 -1.971,0.547 -0.499,0 -0.946,-0.072 -1.345,-0.213 -0.403,-0.141 -0.739,-0.34 -1.018,-0.598 -0.282,-0.262 -0.495,-0.571 -0.647,-0.936 -0.151,-0.364 -0.227,-0.764 -0.227,-1.204 0,-0.935 0.289,-1.682 0.867,-2.235 0.578,-0.558 1.451,-0.919 2.621,-1.087l3.137 -0.454c0,-1.981 -0.771,-2.972 -2.315,-2.972 -1.207,0 -2.329,0.44 -3.36,1.321l0 -1.41c0.216,-0.152 0.461,-0.293 0.732,-0.417 0.275,-0.123 0.564,-0.23 0.867,-0.323 0.303,-0.089 0.616,-0.158 0.935,-0.21 0.324,-0.051 0.633,-0.075 0.939,-0.075 1.153,0 2.026,0.323 2.614,0.966 0.592,0.647 0.888,1.606 0.888,2.886l0 6.714 -1.3 0zm-2.666 -5.012c-0.468,0.066 -0.863,0.148 -1.193,0.252 -0.33,0.099 -0.602,0.237 -0.819,0.409 -0.217,0.172 -0.375,0.382 -0.474,0.633 -0.1,0.254 -0.152,0.564 -0.152,0.935 0,0.275 0.048,0.53 0.148,0.767 0.096,0.234 0.237,0.437 0.423,0.609 0.186,0.172 0.409,0.306 0.678,0.399 0.264,0.093 0.567,0.141 0.904,0.141 0.458,0 0.877,-0.086 1.262,-0.262 0.382,-0.175 0.716,-0.419 0.994,-0.725 0.279,-0.31 0.499,-0.681 0.657,-1.111 0.159,-0.43 0.238,-0.898 0.238,-1.404l0 -1.017 -2.666 0.374z"/>
  <path id="_5" class="fil1" d="M166.823 124.564c-0.768,0.464 -1.693,0.702 -2.783,0.715 -0.739,0.007 -1.407,-0.12 -1.998,-0.381 -0.592,-0.265 -1.094,-0.63 -1.513,-1.094 -0.416,-0.468 -0.736,-1.018 -0.957,-1.655 -0.223,-0.632 -0.333,-1.324 -0.333,-2.07 0,-0.774 0.117,-1.5 0.354,-2.181 0.234,-0.684 0.578,-1.276 1.028,-1.785 0.451,-0.505 1.001,-0.908 1.655,-1.204 0.65,-0.295 1.396,-0.443 2.239,-0.443 0.853,0 1.633,0.165 2.338,0.495l0 1.369c-0.753,-0.499 -1.568,-0.75 -2.445,-0.75 -0.612,0 -1.159,0.117 -1.637,0.347 -0.478,0.234 -0.88,0.551 -1.207,0.95 -0.327,0.399 -0.574,0.867 -0.746,1.403 -0.172,0.533 -0.258,1.101 -0.258,1.699 0,0.55 0.072,1.08 0.216,1.582 0.145,0.506 0.368,0.95 0.667,1.338 0.3,0.385 0.678,0.695 1.135,0.922 0.461,0.23 0.998,0.344 1.62,0.344 0.97,0 1.844,-0.289 2.625,-0.87l0 1.269z"/>
  <path id="_6" class="fil1" d="M176.257 125.032l0 -6.074c0,-1.156 -0.206,-2.009 -0.623,-2.556 -0.416,-0.547 -1.062,-0.822 -1.939,-0.822 -0.413,0 -0.809,0.083 -1.184,0.251 -0.374,0.169 -0.705,0.413 -0.983,0.726 -0.282,0.316 -0.506,0.702 -0.674,1.156 -0.169,0.454 -0.252,0.966 -0.252,1.54l0 5.779 -1.299 0 0 -15.272 1.299 0 0 6.731 0.042 0c0.805,-1.351 1.957,-2.025 3.46,-2.025 1.149,0 2.012,0.354 2.586,1.059 0.578,0.705 0.867,1.747 0.867,3.123l0 6.384 -1.3 0z"/>
  <path id="_7" class="fil1" d="M181.299 112.113c-0.251,0 -0.464,-0.086 -0.646,-0.261 -0.186,-0.176 -0.276,-0.399 -0.276,-0.667 0,-0.262 0.09,-0.478 0.276,-0.65 0.182,-0.172 0.395,-0.259 0.646,-0.259 0.127,0 0.251,0.021 0.365,0.066 0.117,0.045 0.213,0.106 0.299,0.186 0.086,0.082 0.151,0.179 0.203,0.289 0.052,0.11 0.076,0.233 0.076,0.368 0,0.127 -0.024,0.247 -0.073,0.364 -0.044,0.114 -0.113,0.213 -0.203,0.296 -0.086,0.086 -0.185,0.151 -0.295,0.196 -0.114,0.048 -0.238,0.072 -0.372,0.072zm-0.639 12.919l0 -10.319 1.299 0 0 10.319 -1.299 0z"/>
  <path id="_8" class="fil1" d="M192.23 125.032l0 -5.951c0,-2.335 -0.843,-3.501 -2.532,-3.501 -0.447,0 -0.863,0.09 -1.245,0.268 -0.382,0.179 -0.712,0.423 -0.99,0.74 -0.276,0.316 -0.496,0.691 -0.65,1.125 -0.159,0.433 -0.238,0.904 -0.238,1.406l0 5.913 -1.3 0 0 -10.319 1.3 0 0 1.789 0.041 0c0.764,-1.359 1.916,-2.036 3.45,-2.036 1.128,0 1.988,0.364 2.58,1.097 0.588,0.733 0.884,1.792 0.884,3.178l0 6.291 -1.3 0z"/>
  <path id="_9" class="fil1" d="M205.155 124.237c0,1.916 -0.437,3.336 -1.311,4.258 -0.873,0.925 -2.218,1.386 -4.038,1.386 -1.131,0 -2.204,-0.251 -3.215,-0.753l0 -1.31c1.124,0.619 2.194,0.928 3.212,0.928 2.7,0 4.051,-1.424 4.051,-4.268l0 -1.235 -0.041 0c-0.791,1.359 -2.001,2.036 -3.628,2.036 -0.64,0 -1.221,-0.117 -1.751,-0.354 -0.526,-0.234 -0.98,-0.574 -1.355,-1.018 -0.375,-0.444 -0.671,-0.984 -0.877,-1.62 -0.21,-0.633 -0.313,-1.352 -0.313,-2.153 0,-0.846 0.11,-1.617 0.334,-2.315 0.22,-0.695 0.536,-1.293 0.945,-1.788 0.413,-0.499 0.908,-0.884 1.49,-1.156 0.581,-0.272 1.234,-0.409 1.96,-0.409 1.458,0 2.525,0.591 3.195,1.774l0.041 0 0 -1.527 1.301 0 0 9.524zm-1.301 -5.479c0,-0.43 -0.079,-0.839 -0.233,-1.221 -0.155,-0.382 -0.368,-0.719 -0.643,-1.008 -0.279,-0.289 -0.606,-0.519 -0.988,-0.691 -0.378,-0.172 -0.798,-0.258 -1.255,-0.258 -0.54,0 -1.025,0.103 -1.462,0.313 -0.433,0.21 -0.801,0.506 -1.107,0.888 -0.31,0.381 -0.544,0.849 -0.709,1.396 -0.165,0.55 -0.247,1.166 -0.247,1.85 0,0.633 0.079,1.204 0.233,1.717 0.155,0.512 0.372,0.945 0.654,1.3 0.286,0.357 0.626,0.632 1.025,0.828 0.402,0.197 0.85,0.293 1.338,0.293 0.512,0 0.977,-0.093 1.396,-0.279 0.416,-0.182 0.774,-0.44 1.07,-0.767 0.296,-0.323 0.526,-0.708 0.688,-1.149 0.161,-0.44 0.24,-0.914 0.24,-1.427l0 -1.785z"/>
  <path id="_10" class="fil1" d="M216.549 125.032l-2.173 -4.145c-0.217,-0.413 -0.423,-0.753 -0.626,-1.028 -0.2,-0.279 -0.41,-0.499 -0.623,-0.664 -0.213,-0.162 -0.444,-0.282 -0.688,-0.351 -0.247,-0.072 -0.519,-0.107 -0.822,-0.107l-1.589 0 0 6.295 -1.341 0 0 -14.446 4.158 0c0.544,0 1.07,0.079 1.579,0.241 0.505,0.162 0.956,0.399 1.352,0.715 0.395,0.317 0.715,0.712 0.952,1.187 0.238,0.478 0.358,1.032 0.358,1.661 0,0.509 -0.076,0.98 -0.23,1.41 -0.155,0.427 -0.375,0.809 -0.661,1.142 -0.285,0.33 -0.629,0.612 -1.035,0.843 -0.409,0.234 -0.867,0.406 -1.376,0.519l0 0.041c0.196,0.079 0.372,0.186 0.533,0.313 0.162,0.128 0.317,0.282 0.468,0.465 0.151,0.179 0.299,0.388 0.447,0.622 0.148,0.238 0.303,0.506 0.461,0.808l2.425 4.479 -1.569 0zm-6.521 -13.208l0 5.696 2.394 0c0.485,0 0.925,-0.069 1.328,-0.21 0.402,-0.141 0.746,-0.344 1.032,-0.605 0.285,-0.258 0.505,-0.575 0.663,-0.943 0.159,-0.368 0.238,-0.784 0.238,-1.245 0,-0.839 -0.269,-1.496 -0.808,-1.974 -0.541,-0.478 -1.321,-0.719 -2.343,-0.719l-2.504 0z"/>
  <path id="_11" class="fil1" d="M220.405 120.1c0.007,0.632 0.089,1.2 0.251,1.705 0.162,0.503 0.392,0.932 0.695,1.28 0.303,0.351 0.671,0.619 1.104,0.801 0.433,0.186 0.922,0.279 1.465,0.279 1.163,0 2.26,-0.406 3.295,-1.221l0 1.276c-0.987,0.705 -2.184,1.059 -3.587,1.059 -0.692,0 -1.321,-0.12 -1.885,-0.364 -0.564,-0.241 -1.042,-0.592 -1.441,-1.053 -0.396,-0.461 -0.702,-1.028 -0.915,-1.699 -0.217,-0.674 -0.323,-1.441 -0.323,-2.301 0,-0.774 0.116,-1.489 0.35,-2.149 0.238,-0.657 0.561,-1.228 0.977,-1.71 0.42,-0.481 0.912,-0.856 1.483,-1.128 0.571,-0.272 1.193,-0.409 1.871,-0.409 0.667,0 1.252,0.117 1.764,0.347 0.509,0.234 0.939,0.564 1.283,0.994 0.347,0.43 0.609,0.953 0.791,1.572 0.182,0.619 0.272,1.31 0.272,2.074l0 0.647 -7.45 0zm6.129 -1.136c-0.021,-1.073 -0.275,-1.905 -0.767,-2.496 -0.492,-0.592 -1.176,-0.888 -2.05,-0.888 -0.437,0 -0.843,0.076 -1.217,0.231 -0.372,0.154 -0.702,0.378 -0.984,0.67 -0.282,0.293 -0.516,0.65 -0.702,1.07 -0.186,0.419 -0.313,0.891 -0.388,1.413l6.108 0z"/>
  <path id="_12" class="fil1" d="M229.829 123.178c0.196,0.155 0.406,0.292 0.633,0.412 0.227,0.121 0.464,0.224 0.705,0.313 0.24,0.087 0.481,0.152 0.729,0.197 0.244,0.044 0.475,0.065 0.698,0.065 1.527,0 2.291,-0.575 2.291,-1.72 0,-0.261 -0.055,-0.488 -0.162,-0.681 -0.107,-0.192 -0.261,-0.368 -0.461,-0.526 -0.203,-0.158 -0.443,-0.303 -0.725,-0.437 -0.282,-0.134 -0.602,-0.275 -0.957,-0.423 -0.478,-0.196 -0.887,-0.395 -1.231,-0.595 -0.34,-0.203 -0.622,-0.423 -0.846,-0.66 -0.22,-0.241 -0.385,-0.502 -0.492,-0.788 -0.106,-0.285 -0.161,-0.612 -0.161,-0.973 0,-0.458 0.099,-0.867 0.295,-1.221 0.2,-0.358 0.465,-0.661 0.798,-0.908 0.337,-0.248 0.723,-0.441 1.159,-0.571 0.44,-0.131 0.901,-0.196 1.383,-0.196 0.891,0 1.665,0.168 2.328,0.502l0 1.358c-0.77,-0.498 -1.602,-0.746 -2.493,-0.746 -0.32,0 -0.612,0.041 -0.877,0.12 -0.265,0.083 -0.492,0.196 -0.681,0.344 -0.186,0.148 -0.334,0.327 -0.437,0.534 -0.103,0.206 -0.155,0.433 -0.155,0.681 0,0.257 0.042,0.481 0.121,0.67 0.082,0.193 0.206,0.368 0.378,0.523 0.172,0.151 0.392,0.299 0.664,0.444 0.271,0.141 0.602,0.292 0.994,0.454 0.495,0.199 0.925,0.399 1.286,0.598 0.365,0.2 0.664,0.413 0.898,0.647 0.234,0.23 0.409,0.488 0.522,0.777 0.114,0.286 0.172,0.616 0.172,0.991 0,0.464 -0.096,0.88 -0.285,1.241 -0.193,0.365 -0.457,0.671 -0.794,0.919 -0.338,0.247 -0.736,0.436 -1.191,0.564 -0.454,0.127 -0.949,0.192 -1.485,0.192 -1.039,0 -1.912,-0.22 -2.621,-0.657l0 -1.444z"/>
  <path id="_13" class="fil1" d="M239.391 120.1c0.006,0.632 0.089,1.2 0.251,1.705 0.161,0.503 0.392,0.932 0.694,1.28 0.303,0.351 0.671,0.619 1.104,0.801 0.434,0.186 0.922,0.279 1.466,0.279 1.162,0 2.259,-0.406 3.294,-1.221l0 1.276c-0.987,0.705 -2.183,1.059 -3.587,1.059 -0.691,0 -1.32,-0.12 -1.885,-0.364 -0.564,-0.241 -1.042,-0.592 -1.441,-1.053 -0.395,-0.461 -0.701,-1.028 -0.915,-1.699 -0.216,-0.674 -0.323,-1.441 -0.323,-2.301 0,-0.774 0.117,-1.489 0.351,-2.149 0.237,-0.657 0.56,-1.228 0.977,-1.71 0.419,-0.481 0.911,-0.856 1.482,-1.128 0.571,-0.272 1.194,-0.409 1.871,-0.409 0.667,0 1.252,0.117 1.765,0.347 0.509,0.234 0.939,0.564 1.283,0.994 0.347,0.43 0.608,0.953 0.791,1.572 0.182,0.619 0.271,1.31 0.271,2.074l0 0.647 -7.449 0zm6.128 -1.136c-0.02,-1.073 -0.275,-1.905 -0.767,-2.496 -0.491,-0.592 -1.176,-0.888 -2.049,-0.888 -0.437,0 -0.843,0.076 -1.218,0.231 -0.371,0.154 -0.702,0.378 -0.984,0.67 -0.282,0.293 -0.515,0.65 -0.701,1.07 -0.186,0.419 -0.313,0.891 -0.389,1.413l6.108 0z"/>
  <path id="_14" class="fil1" d="M255.336 125.032l0 -1.837 -0.041 0c-0.334,0.66 -0.795,1.173 -1.376,1.537 -0.582,0.365 -1.239,0.547 -1.971,0.547 -0.499,0 -0.946,-0.072 -1.345,-0.213 -0.402,-0.141 -0.739,-0.34 -1.018,-0.598 -0.282,-0.262 -0.495,-0.571 -0.647,-0.936 -0.151,-0.364 -0.227,-0.764 -0.227,-1.204 0,-0.935 0.289,-1.682 0.867,-2.235 0.578,-0.558 1.451,-0.919 2.621,-1.087l3.137 -0.454c0,-1.981 -0.771,-2.972 -2.315,-2.972 -1.207,0 -2.329,0.44 -3.36,1.321l0 -1.41c0.216,-0.152 0.461,-0.293 0.732,-0.417 0.276,-0.123 0.564,-0.23 0.867,-0.323 0.303,-0.089 0.616,-0.158 0.936,-0.21 0.323,-0.051 0.632,-0.075 0.938,-0.075 1.153,0 2.026,0.323 2.614,0.966 0.592,0.647 0.888,1.606 0.888,2.886l0 6.714 -1.3 0zm-2.666 -5.012c-0.468,0.066 -0.863,0.148 -1.193,0.252 -0.33,0.099 -0.602,0.237 -0.819,0.409 -0.217,0.172 -0.375,0.382 -0.474,0.633 -0.1,0.254 -0.152,0.564 -0.152,0.935 0,0.275 0.048,0.53 0.148,0.767 0.096,0.234 0.237,0.437 0.423,0.609 0.186,0.172 0.409,0.306 0.678,0.399 0.264,0.093 0.567,0.141 0.904,0.141 0.458,0 0.877,-0.086 1.262,-0.262 0.382,-0.175 0.716,-0.419 0.994,-0.725 0.279,-0.31 0.499,-0.681 0.657,-1.111 0.159,-0.43 0.238,-0.898 0.238,-1.404l0 -1.017 -2.666 0.374z"/>
  <path id="_15" class="fil1" d="M264.849 116.037c-0.303,-0.223 -0.691,-0.333 -1.169,-0.333 -0.341,0 -0.644,0.065 -0.905,0.196 -0.265,0.131 -0.492,0.306 -0.691,0.53 -0.2,0.22 -0.365,0.478 -0.502,0.77 -0.141,0.292 -0.251,0.595 -0.334,0.911 -0.086,0.317 -0.144,0.637 -0.182,0.957 -0.038,0.323 -0.055,0.629 -0.055,0.918l0 5.046 -1.28 0 0 -10.319 1.28 0 0 2.212 0.041 0c0.12,-0.375 0.272,-0.716 0.457,-1.011 0.186,-0.299 0.399,-0.554 0.64,-0.757 0.241,-0.206 0.506,-0.361 0.791,-0.468 0.286,-0.106 0.585,-0.161 0.901,-0.161 0.21,0 0.396,0.013 0.561,0.041 0.161,0.024 0.313,0.065 0.447,0.12l0 1.348z"/>
  <path id="_16" class="fil1" d="M273.313 124.564c-0.767,0.464 -1.692,0.702 -2.782,0.715 -0.74,0.007 -1.407,-0.12 -1.998,-0.381 -0.592,-0.265 -1.094,-0.63 -1.514,-1.094 -0.416,-0.468 -0.736,-1.018 -0.956,-1.655 -0.224,-0.632 -0.334,-1.324 -0.334,-2.07 0,-0.774 0.117,-1.5 0.355,-2.181 0.233,-0.684 0.577,-1.276 1.028,-1.785 0.451,-0.505 1.001,-0.908 1.654,-1.204 0.65,-0.295 1.397,-0.443 2.239,-0.443 0.853,0 1.634,0.165 2.339,0.495l0 1.369c-0.753,-0.499 -1.568,-0.75 -2.445,-0.75 -0.612,0 -1.159,0.117 -1.637,0.347 -0.478,0.234 -0.881,0.551 -1.208,0.95 -0.326,0.399 -0.574,0.867 -0.746,1.403 -0.172,0.533 -0.258,1.101 -0.258,1.699 0,0.55 0.072,1.08 0.217,1.582 0.144,0.506 0.368,0.95 0.667,1.338 0.299,0.385 0.678,0.695 1.135,0.922 0.461,0.23 0.997,0.344 1.62,0.344 0.97,0 1.844,-0.289 2.624,-0.87l0 1.269z"/>
  <path id="_17" class="fil1" d="M282.748 125.032l0 -6.074c0,-1.156 -0.207,-2.009 -0.623,-2.556 -0.416,-0.547 -1.063,-0.822 -1.94,-0.822 -0.412,0 -0.808,0.083 -1.183,0.251 -0.375,0.169 -0.705,0.413 -0.983,0.726 -0.283,0.316 -0.506,0.702 -0.675,1.156 -0.168,0.454 -0.251,0.966 -0.251,1.54l0 5.779 -1.3 0 0 -15.272 1.3 0 0 6.731 0.041 0c0.805,-1.351 1.958,-2.025 3.461,-2.025 1.148,0 2.012,0.354 2.586,1.059 0.578,0.705 0.867,1.747 0.867,3.123l0 6.384 -1.3 0z"/>
  <path id="_18" class="fil1" d="M297.984 124.027c-1.486,0.836 -3.061,1.252 -4.722,1.252 -1.049,0 -1.991,-0.179 -2.827,-0.54 -0.833,-0.357 -1.545,-0.86 -2.129,-1.499 -0.585,-0.644 -1.036,-1.407 -1.348,-2.298 -0.313,-0.891 -0.468,-1.868 -0.468,-2.937 0,-0.705 0.075,-1.383 0.227,-2.036 0.151,-0.65 0.375,-1.262 0.667,-1.833 0.292,-0.571 0.65,-1.087 1.073,-1.552 0.427,-0.464 0.912,-0.863 1.458,-1.197 0.551,-0.337 1.156,-0.595 1.813,-0.777 0.66,-0.182 1.372,-0.272 2.132,-0.272 1.431,0 2.711,0.255 3.835,0.764l0 1.479c-1.238,-0.685 -2.569,-1.025 -3.996,-1.025 -0.884,0 -1.679,0.162 -2.394,0.485 -0.712,0.32 -1.321,0.763 -1.823,1.328 -0.499,0.564 -0.887,1.231 -1.166,2.001 -0.275,0.771 -0.416,1.603 -0.423,2.504 -0.007,0.894 0.11,1.72 0.347,2.473 0.241,0.757 0.595,1.41 1.067,1.961 0.471,0.55 1.052,0.98 1.743,1.289 0.695,0.31 1.497,0.465 2.404,0.465 1.225,0 2.288,-0.255 3.189,-0.767l0 -4.413 -3.281 0 0 -1.218 4.622 0 0 6.363z"/>
  <path id="_19" class="fil1" d="M307.865 125.032l0 -1.748 -0.041 0c-0.698,1.332 -1.781,1.995 -3.253,1.995 -2.453,0 -3.681,-1.499 -3.681,-4.495l0 -6.071 1.301 0 0 5.823c0,1.238 0.219,2.15 0.66,2.742 0.437,0.591 1.111,0.887 2.015,0.887 0.444,0 0.846,-0.086 1.215,-0.258 0.364,-0.172 0.68,-0.413 0.945,-0.726 0.265,-0.309 0.472,-0.684 0.619,-1.121 0.148,-0.437 0.22,-0.922 0.22,-1.451l0 -5.896 1.301 0 0 10.319 -1.301 0z"/>
  <path id="_20" class="fil1" d="M313.124 112.113c-0.251,0 -0.464,-0.086 -0.646,-0.261 -0.186,-0.176 -0.275,-0.399 -0.275,-0.667 0,-0.262 0.089,-0.478 0.275,-0.65 0.182,-0.172 0.395,-0.259 0.646,-0.259 0.128,0 0.251,0.021 0.365,0.066 0.117,0.045 0.213,0.106 0.299,0.186 0.086,0.082 0.151,0.179 0.203,0.289 0.052,0.11 0.076,0.233 0.076,0.368 0,0.127 -0.024,0.247 -0.072,0.364 -0.045,0.114 -0.114,0.213 -0.203,0.296 -0.086,0.086 -0.186,0.151 -0.296,0.196 -0.114,0.048 -0.237,0.072 -0.372,0.072zm-0.639 12.919l0 -10.319 1.3 0 0 10.319 -1.3 0z"/>
  <path id="_21" class="fil1" d="M324.323 125.032l0 -1.81 -0.041 0c-0.341,0.65 -0.832,1.16 -1.465,1.517 -0.637,0.361 -1.359,0.54 -2.164,0.54 -0.646,0 -1.231,-0.12 -1.761,-0.357 -0.526,-0.241 -0.98,-0.585 -1.355,-1.036 -0.375,-0.45 -0.667,-0.994 -0.874,-1.634 -0.202,-0.639 -0.306,-1.361 -0.306,-2.166 0,-0.836 0.114,-1.596 0.337,-2.288 0.228,-0.687 0.547,-1.279 0.96,-1.774 0.413,-0.496 0.911,-0.877 1.493,-1.149 0.581,-0.272 1.228,-0.409 1.94,-0.409 1.485,0 2.552,0.595 3.195,1.785l0.041 0 0 -6.491 1.3 0 0 15.272 -1.3 0zm0 -6.233c0,-0.45 -0.079,-0.873 -0.234,-1.262 -0.155,-0.389 -0.368,-0.729 -0.643,-1.018 -0.278,-0.289 -0.609,-0.519 -0.997,-0.688 -0.385,-0.168 -0.812,-0.251 -1.276,-0.251 -0.513,0 -0.984,0.1 -1.414,0.303 -0.43,0.203 -0.801,0.492 -1.107,0.873 -0.307,0.379 -0.544,0.843 -0.716,1.386 -0.172,0.544 -0.258,1.163 -0.258,1.858 0,0.65 0.079,1.235 0.234,1.754 0.155,0.519 0.375,0.956 0.66,1.31 0.286,0.358 0.626,0.63 1.025,0.819 0.396,0.189 0.84,0.282 1.321,0.282 0.526,0 1.001,-0.093 1.421,-0.282 0.419,-0.189 0.777,-0.447 1.069,-0.777 0.292,-0.331 0.52,-0.716 0.678,-1.16 0.158,-0.443 0.237,-0.918 0.237,-1.424l0 -1.723z"/>
  <path id="_22" class="fil1" d="M329.548 120.1c0.007,0.632 0.089,1.2 0.251,1.705 0.161,0.503 0.392,0.932 0.694,1.28 0.303,0.351 0.671,0.619 1.104,0.801 0.434,0.186 0.922,0.279 1.466,0.279 1.162,0 2.259,-0.406 3.294,-1.221l0 1.276c-0.987,0.705 -2.184,1.059 -3.587,1.059 -0.691,0 -1.32,-0.12 -1.885,-0.364 -0.564,-0.241 -1.042,-0.592 -1.441,-1.053 -0.395,-0.461 -0.701,-1.028 -0.915,-1.699 -0.216,-0.674 -0.323,-1.441 -0.323,-2.301 0,-0.774 0.117,-1.489 0.351,-2.149 0.237,-0.657 0.561,-1.228 0.977,-1.71 0.419,-0.481 0.911,-0.856 1.482,-1.128 0.571,-0.272 1.194,-0.409 1.871,-0.409 0.668,0 1.252,0.117 1.764,0.347 0.51,0.234 0.939,0.564 1.283,0.994 0.348,0.43 0.609,0.953 0.791,1.572 0.183,0.619 0.272,1.31 0.272,2.074l0 0.647 -7.449 0zm6.128 -1.136c-0.02,-1.073 -0.275,-1.905 -0.767,-2.496 -0.492,-0.592 -1.176,-0.888 -2.049,-0.888 -0.437,0 -0.843,0.076 -1.218,0.231 -0.371,0.154 -0.701,0.378 -0.983,0.67 -0.282,0.293 -0.516,0.65 -0.702,1.07 -0.186,0.419 -0.313,0.891 -0.389,1.413l6.108 0z"/>
  <g>
   <path id="_23" class="fil2 str0" d="M122.114 125.032l-2.174 -4.145c-0.217,-0.413 -0.423,-0.753 -0.626,-1.028 -0.199,-0.279 -0.409,-0.499 -0.622,-0.664 -0.214,-0.162 -0.444,-0.282 -0.688,-0.351 -0.248,-0.072 -0.52,-0.107 -0.822,-0.107l-1.589 0 0 6.295 -1.342 0 0 -14.446 4.158 0c0.544,0 1.07,0.079 1.579,0.241 0.506,0.162 0.956,0.399 1.352,0.715 0.395,0.317 0.715,0.712 0.953,1.187 0.237,0.478 0.357,1.032 0.357,1.661 0,0.509 -0.075,0.98 -0.23,1.41 -0.155,0.427 -0.375,0.809 -0.661,1.142 -0.285,0.33 -0.629,0.612 -1.035,0.843 -0.409,0.234 -0.866,0.406 -1.376,0.519l0 0.041c0.197,0.079 0.372,0.186 0.534,0.313 0.161,0.128 0.316,0.282 0.467,0.465 0.152,0.179 0.3,0.388 0.447,0.622 0.148,0.238 0.303,0.506 0.461,0.808l2.425 4.479 -1.568 0zm-6.521 -13.208l0 5.696 2.394 0c0.484,0 0.925,-0.069 1.327,-0.21 0.403,-0.141 0.746,-0.344 1.032,-0.605 0.285,-0.258 0.506,-0.575 0.664,-0.943 0.158,-0.368 0.237,-0.784 0.237,-1.245 0,-0.839 -0.268,-1.496 -0.808,-1.974 -0.54,-0.478 -1.321,-0.719 -2.342,-0.719l-2.504 0z"/>
  </g>
  <g>
   <path id="_24" class="fil2 str0" d="M126.54 125.238c-0.268,0 -0.498,-0.093 -0.684,-0.282 -0.189,-0.186 -0.282,-0.416 -0.282,-0.684 0,-0.272 0.093,-0.506 0.275,-0.692 0.186,-0.189 0.416,-0.282 0.691,-0.282 0.135,0 0.258,0.024 0.375,0.076 0.117,0.051 0.22,0.117 0.307,0.199 0.089,0.086 0.158,0.186 0.213,0.306 0.051,0.124 0.079,0.255 0.079,0.393 0,0.134 -0.028,0.261 -0.079,0.378 -0.055,0.117 -0.124,0.22 -0.213,0.306 -0.087,0.086 -0.19,0.155 -0.307,0.206 -0.117,0.052 -0.24,0.076 -0.375,0.076z"/>
  </g>
  <g>
   <polygon id="_25" class="fil2 str0" points="134.802,111.824 134.802,125.032 133.46,125.032 133.46,111.824 129.292,111.824 129.292,110.586 138.97,110.586 138.97,111.824 "/>
  </g>
  <g>
   <path id="_26" class="fil2 str0" d="M139.621 120.1c0.006,0.632 0.089,1.2 0.25,1.705 0.162,0.503 0.393,0.932 0.695,1.28 0.303,0.351 0.671,0.619 1.104,0.801 0.434,0.186 0.922,0.279 1.466,0.279 1.162,0 2.259,-0.406 3.294,-1.221l0 1.276c-0.987,0.705 -2.183,1.059 -3.587,1.059 -0.691,0 -1.321,-0.12 -1.885,-0.364 -0.564,-0.241 -1.042,-0.592 -1.441,-1.053 -0.395,-0.461 -0.701,-1.028 -0.915,-1.699 -0.216,-0.674 -0.323,-1.441 -0.323,-2.301 0,-0.774 0.117,-1.489 0.351,-2.149 0.237,-0.657 0.56,-1.228 0.977,-1.71 0.419,-0.481 0.911,-0.856 1.482,-1.128 0.571,-0.272 1.194,-0.409 1.871,-0.409 0.667,0 1.252,0.117 1.765,0.347 0.509,0.234 0.939,0.564 1.282,0.994 0.348,0.43 0.609,0.953 0.792,1.572 0.182,0.619 0.271,1.31 0.271,2.074l0 0.647 -7.449 0zm6.128 -1.136c-0.02,-1.073 -0.275,-1.905 -0.767,-2.496 -0.491,-0.592 -1.176,-0.888 -2.049,-0.888 -0.437,0 -0.843,0.076 -1.218,0.231 -0.371,0.154 -0.702,0.378 -0.984,0.67 -0.282,0.293 -0.516,0.65 -0.701,1.07 -0.186,0.419 -0.313,0.891 -0.389,1.413l6.108 0z"/>
  </g>
  <g>
   <path id="_27" class="fil2 str0" d="M155.566 125.032l0 -1.837 -0.042 0c-0.333,0.66 -0.794,1.173 -1.375,1.537 -0.582,0.365 -1.239,0.547 -1.971,0.547 -0.499,0 -0.946,-0.072 -1.345,-0.213 -0.403,-0.141 -0.739,-0.34 -1.018,-0.598 -0.282,-0.262 -0.495,-0.571 -0.647,-0.936 -0.151,-0.364 -0.227,-0.764 -0.227,-1.204 0,-0.935 0.289,-1.682 0.867,-2.235 0.578,-0.558 1.451,-0.919 2.621,-1.087l3.137 -0.454c0,-1.981 -0.771,-2.972 -2.315,-2.972 -1.207,0 -2.329,0.44 -3.36,1.321l0 -1.41c0.216,-0.152 0.461,-0.293 0.732,-0.417 0.275,-0.123 0.564,-0.23 0.867,-0.323 0.303,-0.089 0.616,-0.158 0.935,-0.21 0.324,-0.051 0.633,-0.075 0.939,-0.075 1.153,0 2.026,0.323 2.614,0.966 0.592,0.647 0.888,1.606 0.888,2.886l0 6.714 -1.3 0zm-2.666 -5.012c-0.468,0.066 -0.863,0.148 -1.193,0.252 -0.33,0.099 -0.602,0.237 -0.819,0.409 -0.217,0.172 -0.375,0.382 -0.474,0.633 -0.1,0.254 -0.152,0.564 -0.152,0.935 0,0.275 0.048,0.53 0.148,0.767 0.096,0.234 0.237,0.437 0.423,0.609 0.186,0.172 0.409,0.306 0.678,0.399 0.264,0.093 0.567,0.141 0.904,0.141 0.458,0 0.877,-0.086 1.262,-0.262 0.382,-0.175 0.716,-0.419 0.994,-0.725 0.279,-0.31 0.499,-0.681 0.657,-1.111 0.159,-0.43 0.238,-0.898 0.238,-1.404l0 -1.017 -2.666 0.374z"/>
  </g>
  <g>
   <path id="_28" class="fil2 str0" d="M166.823 124.564c-0.768,0.464 -1.693,0.702 -2.783,0.715 -0.739,0.007 -1.407,-0.12 -1.998,-0.381 -0.592,-0.265 -1.094,-0.63 -1.513,-1.094 -0.416,-0.468 -0.736,-1.018 -0.957,-1.655 -0.223,-0.632 -0.333,-1.324 -0.333,-2.07 0,-0.774 0.117,-1.5 0.354,-2.181 0.234,-0.684 0.578,-1.276 1.028,-1.785 0.451,-0.505 1.001,-0.908 1.655,-1.204 0.65,-0.295 1.396,-0.443 2.239,-0.443 0.853,0 1.633,0.165 2.338,0.495l0 1.369c-0.753,-0.499 -1.568,-0.75 -2.445,-0.75 -0.612,0 -1.159,0.117 -1.637,0.347 -0.478,0.234 -0.88,0.551 -1.207,0.95 -0.327,0.399 -0.574,0.867 -0.746,1.403 -0.172,0.533 -0.258,1.101 -0.258,1.699 0,0.55 0.072,1.08 0.216,1.582 0.145,0.506 0.368,0.95 0.667,1.338 0.3,0.385 0.678,0.695 1.135,0.922 0.461,0.23 0.998,0.344 1.62,0.344 0.97,0 1.844,-0.289 2.625,-0.87l0 1.269z"/>
  </g>
  <g>
   <path id="_29" class="fil2 str0" d="M176.257 125.032l0 -6.074c0,-1.156 -0.206,-2.009 -0.623,-2.556 -0.416,-0.547 -1.062,-0.822 -1.939,-0.822 -0.413,0 -0.809,0.083 -1.184,0.251 -0.374,0.169 -0.705,0.413 -0.983,0.726 -0.282,0.316 -0.506,0.702 -0.674,1.156 -0.169,0.454 -0.252,0.966 -0.252,1.54l0 5.779 -1.299 0 0 -15.272 1.299 0 0 6.731 0.042 0c0.805,-1.351 1.957,-2.025 3.46,-2.025 1.149,0 2.012,0.354 2.586,1.059 0.578,0.705 0.867,1.747 0.867,3.123l0 6.384 -1.3 0z"/>
  </g>
  <g>
   <path id="_30" class="fil2 str0" d="M181.299 112.113c-0.251,0 -0.464,-0.086 -0.646,-0.261 -0.186,-0.176 -0.276,-0.399 -0.276,-0.667 0,-0.262 0.09,-0.478 0.276,-0.65 0.182,-0.172 0.395,-0.259 0.646,-0.259 0.127,0 0.251,0.021 0.365,0.066 0.117,0.045 0.213,0.106 0.299,0.186 0.086,0.082 0.151,0.179 0.203,0.289 0.052,0.11 0.076,0.233 0.076,0.368 0,0.127 -0.024,0.247 -0.073,0.364 -0.044,0.114 -0.113,0.213 -0.203,0.296 -0.086,0.086 -0.185,0.151 -0.295,0.196 -0.114,0.048 -0.238,0.072 -0.372,0.072zm-0.639 12.919l0 -10.319 1.299 0 0 10.319 -1.299 0z"/>
  </g>
  <g>
   <path id="_31" class="fil2 str0" d="M192.23 125.032l0 -5.951c0,-2.335 -0.843,-3.501 -2.532,-3.501 -0.447,0 -0.863,0.09 -1.245,0.268 -0.382,0.179 -0.712,0.423 -0.99,0.74 -0.276,0.316 -0.496,0.691 -0.65,1.125 -0.159,0.433 -0.238,0.904 -0.238,1.406l0 5.913 -1.3 0 0 -10.319 1.3 0 0 1.789 0.041 0c0.764,-1.359 1.916,-2.036 3.45,-2.036 1.128,0 1.988,0.364 2.58,1.097 0.588,0.733 0.884,1.792 0.884,3.178l0 6.291 -1.3 0z"/>
  </g>
  <g>
   <path id="_32" class="fil2 str0" d="M205.155 124.237c0,1.916 -0.437,3.336 -1.311,4.258 -0.873,0.925 -2.218,1.386 -4.038,1.386 -1.131,0 -2.204,-0.251 -3.215,-0.753l0 -1.31c1.124,0.619 2.194,0.928 3.212,0.928 2.7,0 4.051,-1.424 4.051,-4.268l0 -1.235 -0.041 0c-0.791,1.359 -2.001,2.036 -3.628,2.036 -0.64,0 -1.221,-0.117 -1.751,-0.354 -0.526,-0.234 -0.98,-0.574 -1.355,-1.018 -0.375,-0.444 -0.671,-0.984 -0.877,-1.62 -0.21,-0.633 -0.313,-1.352 -0.313,-2.153 0,-0.846 0.11,-1.617 0.334,-2.315 0.22,-0.695 0.536,-1.293 0.945,-1.788 0.413,-0.499 0.908,-0.884 1.49,-1.156 0.581,-0.272 1.234,-0.409 1.96,-0.409 1.458,0 2.525,0.591 3.195,1.774l0.041 0 0 -1.527 1.301 0 0 9.524zm-1.301 -5.479c0,-0.43 -0.079,-0.839 -0.233,-1.221 -0.155,-0.382 -0.368,-0.719 -0.643,-1.008 -0.279,-0.289 -0.606,-0.519 -0.988,-0.691 -0.378,-0.172 -0.798,-0.258 -1.255,-0.258 -0.54,0 -1.025,0.103 -1.462,0.313 -0.433,0.21 -0.801,0.506 -1.107,0.888 -0.31,0.381 -0.544,0.849 -0.709,1.396 -0.165,0.55 -0.247,1.166 -0.247,1.85 0,0.633 0.079,1.204 0.233,1.717 0.155,0.512 0.372,0.945 0.654,1.3 0.286,0.357 0.626,0.632 1.025,0.828 0.402,0.197 0.85,0.293 1.338,0.293 0.512,0 0.977,-0.093 1.396,-0.279 0.416,-0.182 0.774,-0.44 1.07,-0.767 0.296,-0.323 0.526,-0.708 0.688,-1.149 0.161,-0.44 0.24,-0.914 0.24,-1.427l0 -1.785z"/>
  </g>
  <g>
   <path id="_33" class="fil2 str0" d="M216.549 125.032l-2.173 -4.145c-0.217,-0.413 -0.423,-0.753 -0.626,-1.028 -0.2,-0.279 -0.41,-0.499 -0.623,-0.664 -0.213,-0.162 -0.444,-0.282 -0.688,-0.351 -0.247,-0.072 -0.519,-0.107 -0.822,-0.107l-1.589 0 0 6.295 -1.341 0 0 -14.446 4.158 0c0.544,0 1.07,0.079 1.579,0.241 0.505,0.162 0.956,0.399 1.352,0.715 0.395,0.317 0.715,0.712 0.952,1.187 0.238,0.478 0.358,1.032 0.358,1.661 0,0.509 -0.076,0.98 -0.23,1.41 -0.155,0.427 -0.375,0.809 -0.661,1.142 -0.285,0.33 -0.629,0.612 -1.035,0.843 -0.409,0.234 -0.867,0.406 -1.376,0.519l0 0.041c0.196,0.079 0.372,0.186 0.533,0.313 0.162,0.128 0.317,0.282 0.468,0.465 0.151,0.179 0.299,0.388 0.447,0.622 0.148,0.238 0.303,0.506 0.461,0.808l2.425 4.479 -1.569 0zm-6.521 -13.208l0 5.696 2.394 0c0.485,0 0.925,-0.069 1.328,-0.21 0.402,-0.141 0.746,-0.344 1.032,-0.605 0.285,-0.258 0.505,-0.575 0.663,-0.943 0.159,-0.368 0.238,-0.784 0.238,-1.245 0,-0.839 -0.269,-1.496 -0.808,-1.974 -0.541,-0.478 -1.321,-0.719 -2.343,-0.719l-2.504 0z"/>
  </g>
  <g>
   <path id="_34" class="fil2 str0" d="M220.405 120.1c0.007,0.632 0.089,1.2 0.251,1.705 0.162,0.503 0.392,0.932 0.695,1.28 0.303,0.351 0.671,0.619 1.104,0.801 0.433,0.186 0.922,0.279 1.465,0.279 1.163,0 2.26,-0.406 3.295,-1.221l0 1.276c-0.987,0.705 -2.184,1.059 -3.587,1.059 -0.692,0 -1.321,-0.12 -1.885,-0.364 -0.564,-0.241 -1.042,-0.592 -1.441,-1.053 -0.396,-0.461 -0.702,-1.028 -0.915,-1.699 -0.217,-0.674 -0.323,-1.441 -0.323,-2.301 0,-0.774 0.116,-1.489 0.35,-2.149 0.238,-0.657 0.561,-1.228 0.977,-1.71 0.42,-0.481 0.912,-0.856 1.483,-1.128 0.571,-0.272 1.193,-0.409 1.871,-0.409 0.667,0 1.252,0.117 1.764,0.347 0.509,0.234 0.939,0.564 1.283,0.994 0.347,0.43 0.609,0.953 0.791,1.572 0.182,0.619 0.272,1.31 0.272,2.074l0 0.647 -7.45 0zm6.129 -1.136c-0.021,-1.073 -0.275,-1.905 -0.767,-2.496 -0.492,-0.592 -1.176,-0.888 -2.05,-0.888 -0.437,0 -0.843,0.076 -1.217,0.231 -0.372,0.154 -0.702,0.378 -0.984,0.67 -0.282,0.293 -0.516,0.65 -0.702,1.07 -0.186,0.419 -0.313,0.891 -0.388,1.413l6.108 0z"/>
  </g>
  <g>
   <path id="_35" class="fil2 str0" d="M229.829 123.178c0.196,0.155 0.406,0.292 0.633,0.412 0.227,0.121 0.464,0.224 0.705,0.313 0.24,0.087 0.481,0.152 0.729,0.197 0.244,0.044 0.475,0.065 0.698,0.065 1.527,0 2.291,-0.575 2.291,-1.72 0,-0.261 -0.055,-0.488 -0.162,-0.681 -0.107,-0.192 -0.261,-0.368 -0.461,-0.526 -0.203,-0.158 -0.443,-0.303 -0.725,-0.437 -0.282,-0.134 -0.602,-0.275 -0.957,-0.423 -0.478,-0.196 -0.887,-0.395 -1.231,-0.595 -0.34,-0.203 -0.622,-0.423 -0.846,-0.66 -0.22,-0.241 -0.385,-0.502 -0.492,-0.788 -0.106,-0.285 -0.161,-0.612 -0.161,-0.973 0,-0.458 0.099,-0.867 0.295,-1.221 0.2,-0.358 0.465,-0.661 0.798,-0.908 0.337,-0.248 0.723,-0.441 1.159,-0.571 0.44,-0.131 0.901,-0.196 1.383,-0.196 0.891,0 1.665,0.168 2.328,0.502l0 1.358c-0.77,-0.498 -1.602,-0.746 -2.493,-0.746 -0.32,0 -0.612,0.041 -0.877,0.12 -0.265,0.083 -0.492,0.196 -0.681,0.344 -0.186,0.148 -0.334,0.327 -0.437,0.534 -0.103,0.206 -0.155,0.433 -0.155,0.681 0,0.257 0.042,0.481 0.121,0.67 0.082,0.193 0.206,0.368 0.378,0.523 0.172,0.151 0.392,0.299 0.664,0.444 0.271,0.141 0.602,0.292 0.994,0.454 0.495,0.199 0.925,0.399 1.286,0.598 0.365,0.2 0.664,0.413 0.898,0.647 0.234,0.23 0.409,0.488 0.522,0.777 0.114,0.286 0.172,0.616 0.172,0.991 0,0.464 -0.096,0.88 -0.285,1.241 -0.193,0.365 -0.457,0.671 -0.794,0.919 -0.338,0.247 -0.736,0.436 -1.191,0.564 -0.454,0.127 -0.949,0.192 -1.485,0.192 -1.039,0 -1.912,-0.22 -2.621,-0.657l0 -1.444z"/>
  </g>
  <g>
   <path id="_36" class="fil2 str0" d="M239.391 120.1c0.006,0.632 0.089,1.2 0.251,1.705 0.161,0.503 0.392,0.932 0.694,1.28 0.303,0.351 0.671,0.619 1.104,0.801 0.434,0.186 0.922,0.279 1.466,0.279 1.162,0 2.259,-0.406 3.294,-1.221l0 1.276c-0.987,0.705 -2.183,1.059 -3.587,1.059 -0.691,0 -1.32,-0.12 -1.885,-0.364 -0.564,-0.241 -1.042,-0.592 -1.441,-1.053 -0.395,-0.461 -0.701,-1.028 -0.915,-1.699 -0.216,-0.674 -0.323,-1.441 -0.323,-2.301 0,-0.774 0.117,-1.489 0.351,-2.149 0.237,-0.657 0.56,-1.228 0.977,-1.71 0.419,-0.481 0.911,-0.856 1.482,-1.128 0.571,-0.272 1.194,-0.409 1.871,-0.409 0.667,0 1.252,0.117 1.765,0.347 0.509,0.234 0.939,0.564 1.283,0.994 0.347,0.43 0.608,0.953 0.791,1.572 0.182,0.619 0.271,1.31 0.271,2.074l0 0.647 -7.449 0zm6.128 -1.136c-0.02,-1.073 -0.275,-1.905 -0.767,-2.496 -0.491,-0.592 -1.176,-0.888 -2.049,-0.888 -0.437,0 -0.843,0.076 -1.218,0.231 -0.371,0.154 -0.702,0.378 -0.984,0.67 -0.282,0.293 -0.515,0.65 -0.701,1.07 -0.186,0.419 -0.313,0.891 -0.389,1.413l6.108 0z"/>
  </g>
  <g>
   <path id="_37" class="fil2 str0" d="M255.336 125.032l0 -1.837 -0.041 0c-0.334,0.66 -0.795,1.173 -1.376,1.537 -0.582,0.365 -1.239,0.547 -1.971,0.547 -0.499,0 -0.946,-0.072 -1.345,-0.213 -0.402,-0.141 -0.739,-0.34 -1.018,-0.598 -0.282,-0.262 -0.495,-0.571 -0.647,-0.936 -0.151,-0.364 -0.227,-0.764 -0.227,-1.204 0,-0.935 0.289,-1.682 0.867,-2.235 0.578,-0.558 1.451,-0.919 2.621,-1.087l3.137 -0.454c0,-1.981 -0.771,-2.972 -2.315,-2.972 -1.207,0 -2.329,0.44 -3.36,1.321l0 -1.41c0.216,-0.152 0.461,-0.293 0.732,-0.417 0.276,-0.123 0.564,-0.23 0.867,-0.323 0.303,-0.089 0.616,-0.158 0.936,-0.21 0.323,-0.051 0.632,-0.075 0.938,-0.075 1.153,0 2.026,0.323 2.614,0.966 0.592,0.647 0.888,1.606 0.888,2.886l0 6.714 -1.3 0zm-2.666 -5.012c-0.468,0.066 -0.863,0.148 -1.193,0.252 -0.33,0.099 -0.602,0.237 -0.819,0.409 -0.217,0.172 -0.375,0.382 -0.474,0.633 -0.1,0.254 -0.152,0.564 -0.152,0.935 0,0.275 0.048,0.53 0.148,0.767 0.096,0.234 0.237,0.437 0.423,0.609 0.186,0.172 0.409,0.306 0.678,0.399 0.264,0.093 0.567,0.141 0.904,0.141 0.458,0 0.877,-0.086 1.262,-0.262 0.382,-0.175 0.716,-0.419 0.994,-0.725 0.279,-0.31 0.499,-0.681 0.657,-1.111 0.159,-0.43 0.238,-0.898 0.238,-1.404l0 -1.017 -2.666 0.374z"/>
  </g>
  <g>
   <path id="_38" class="fil2 str0" d="M264.849 116.037c-0.303,-0.223 -0.691,-0.333 -1.169,-0.333 -0.341,0 -0.644,0.065 -0.905,0.196 -0.265,0.131 -0.492,0.306 -0.691,0.53 -0.2,0.22 -0.365,0.478 -0.502,0.77 -0.141,0.292 -0.251,0.595 -0.334,0.911 -0.086,0.317 -0.144,0.637 -0.182,0.957 -0.038,0.323 -0.055,0.629 -0.055,0.918l0 5.046 -1.28 0 0 -10.319 1.28 0 0 2.212 0.041 0c0.12,-0.375 0.272,-0.716 0.457,-1.011 0.186,-0.299 0.399,-0.554 0.64,-0.757 0.241,-0.206 0.506,-0.361 0.791,-0.468 0.286,-0.106 0.585,-0.161 0.901,-0.161 0.21,0 0.396,0.013 0.561,0.041 0.161,0.024 0.313,0.065 0.447,0.12l0 1.348z"/>
  </g>
  <g>
   <path id="_39" class="fil2 str0" d="M273.313 124.564c-0.767,0.464 -1.692,0.702 -2.782,0.715 -0.74,0.007 -1.407,-0.12 -1.998,-0.381 -0.592,-0.265 -1.094,-0.63 -1.514,-1.094 -0.416,-0.468 -0.736,-1.018 -0.956,-1.655 -0.224,-0.632 -0.334,-1.324 -0.334,-2.07 0,-0.774 0.117,-1.5 0.355,-2.181 0.233,-0.684 0.577,-1.276 1.028,-1.785 0.451,-0.505 1.001,-0.908 1.654,-1.204 0.65,-0.295 1.397,-0.443 2.239,-0.443 0.853,0 1.634,0.165 2.339,0.495l0 1.369c-0.753,-0.499 -1.568,-0.75 -2.445,-0.75 -0.612,0 -1.159,0.117 -1.637,0.347 -0.478,0.234 -0.881,0.551 -1.208,0.95 -0.326,0.399 -0.574,0.867 -0.746,1.403 -0.172,0.533 -0.258,1.101 -0.258,1.699 0,0.55 0.072,1.08 0.217,1.582 0.144,0.506 0.368,0.95 0.667,1.338 0.299,0.385 0.678,0.695 1.135,0.922 0.461,0.23 0.997,0.344 1.62,0.344 0.97,0 1.844,-0.289 2.624,-0.87l0 1.269z"/>
  </g>
  <g>
   <path id="_40" class="fil2 str0" d="M282.748 125.032l0 -6.074c0,-1.156 -0.207,-2.009 -0.623,-2.556 -0.416,-0.547 -1.063,-0.822 -1.94,-0.822 -0.412,0 -0.808,0.083 -1.183,0.251 -0.375,0.169 -0.705,0.413 -0.983,0.726 -0.283,0.316 -0.506,0.702 -0.675,1.156 -0.168,0.454 -0.251,0.966 -0.251,1.54l0 5.779 -1.3 0 0 -15.272 1.3 0 0 6.731 0.041 0c0.805,-1.351 1.958,-2.025 3.461,-2.025 1.148,0 2.012,0.354 2.586,1.059 0.578,0.705 0.867,1.747 0.867,3.123l0 6.384 -1.3 0z"/>
  </g>
  <g>
   <path id="_41" class="fil2 str0" d="M297.984 124.027c-1.486,0.836 -3.061,1.252 -4.722,1.252 -1.049,0 -1.991,-0.179 -2.827,-0.54 -0.833,-0.357 -1.545,-0.86 -2.129,-1.499 -0.585,-0.644 -1.036,-1.407 -1.348,-2.298 -0.313,-0.891 -0.468,-1.868 -0.468,-2.937 0,-0.705 0.075,-1.383 0.227,-2.036 0.151,-0.65 0.375,-1.262 0.667,-1.833 0.292,-0.571 0.65,-1.087 1.073,-1.552 0.427,-0.464 0.912,-0.863 1.458,-1.197 0.551,-0.337 1.156,-0.595 1.813,-0.777 0.66,-0.182 1.372,-0.272 2.132,-0.272 1.431,0 2.711,0.255 3.835,0.764l0 1.479c-1.238,-0.685 -2.569,-1.025 -3.996,-1.025 -0.884,0 -1.679,0.162 -2.394,0.485 -0.712,0.32 -1.321,0.763 -1.823,1.328 -0.499,0.564 -0.887,1.231 -1.166,2.001 -0.275,0.771 -0.416,1.603 -0.423,2.504 -0.007,0.894 0.11,1.72 0.347,2.473 0.241,0.757 0.595,1.41 1.067,1.961 0.471,0.55 1.052,0.98 1.743,1.289 0.695,0.31 1.497,0.465 2.404,0.465 1.225,0 2.288,-0.255 3.189,-0.767l0 -4.413 -3.281 0 0 -1.218 4.622 0 0 6.363z"/>
  </g>
  <g>
   <path id="_42" class="fil2 str0" d="M307.865 125.032l0 -1.748 -0.041 0c-0.698,1.332 -1.781,1.995 -3.253,1.995 -2.453,0 -3.681,-1.499 -3.681,-4.495l0 -6.071 1.301 0 0 5.823c0,1.238 0.219,2.15 0.66,2.742 0.437,0.591 1.111,0.887 2.015,0.887 0.444,0 0.846,-0.086 1.215,-0.258 0.364,-0.172 0.68,-0.413 0.945,-0.726 0.265,-0.309 0.472,-0.684 0.619,-1.121 0.148,-0.437 0.22,-0.922 0.22,-1.451l0 -5.896 1.301 0 0 10.319 -1.301 0z"/>
  </g>
  <g>
   <path id="_43" class="fil2 str0" d="M313.124 112.113c-0.251,0 -0.464,-0.086 -0.646,-0.261 -0.186,-0.176 -0.275,-0.399 -0.275,-0.667 0,-0.262 0.089,-0.478 0.275,-0.65 0.182,-0.172 0.395,-0.259 0.646,-0.259 0.128,0 0.251,0.021 0.365,0.066 0.117,0.045 0.213,0.106 0.299,0.186 0.086,0.082 0.151,0.179 0.203,0.289 0.052,0.11 0.076,0.233 0.076,0.368 0,0.127 -0.024,0.247 -0.072,0.364 -0.045,0.114 -0.114,0.213 -0.203,0.296 -0.086,0.086 -0.186,0.151 -0.296,0.196 -0.114,0.048 -0.237,0.072 -0.372,0.072zm-0.639 12.919l0 -10.319 1.3 0 0 10.319 -1.3 0z"/>
  </g>
  <g>
   <path id="_44" class="fil2 str0" d="M324.323 125.032l0 -1.81 -0.041 0c-0.341,0.65 -0.832,1.16 -1.465,1.517 -0.637,0.361 -1.359,0.54 -2.164,0.54 -0.646,0 -1.231,-0.12 -1.761,-0.357 -0.526,-0.241 -0.98,-0.585 -1.355,-1.036 -0.375,-0.45 -0.667,-0.994 -0.874,-1.634 -0.202,-0.639 -0.306,-1.361 -0.306,-2.166 0,-0.836 0.114,-1.596 0.337,-2.288 0.228,-0.687 0.547,-1.279 0.96,-1.774 0.413,-0.496 0.911,-0.877 1.493,-1.149 0.581,-0.272 1.228,-0.409 1.94,-0.409 1.485,0 2.552,0.595 3.195,1.785l0.041 0 0 -6.491 1.3 0 0 15.272 -1.3 0zm0 -6.233c0,-0.45 -0.079,-0.873 -0.234,-1.262 -0.155,-0.389 -0.368,-0.729 -0.643,-1.018 -0.278,-0.289 -0.609,-0.519 -0.997,-0.688 -0.385,-0.168 -0.812,-0.251 -1.276,-0.251 -0.513,0 -0.984,0.1 -1.414,0.303 -0.43,0.203 -0.801,0.492 -1.107,0.873 -0.307,0.379 -0.544,0.843 -0.716,1.386 -0.172,0.544 -0.258,1.163 -0.258,1.858 0,0.65 0.079,1.235 0.234,1.754 0.155,0.519 0.375,0.956 0.66,1.31 0.286,0.358 0.626,0.63 1.025,0.819 0.396,0.189 0.84,0.282 1.321,0.282 0.526,0 1.001,-0.093 1.421,-0.282 0.419,-0.189 0.777,-0.447 1.069,-0.777 0.292,-0.331 0.52,-0.716 0.678,-1.16 0.158,-0.443 0.237,-0.918 0.237,-1.424l0 -1.723z"/>
  </g>
  <g>
   <path id="_45" class="fil2 str0" d="M329.548 120.1c0.007,0.632 0.089,1.2 0.251,1.705 0.161,0.503 0.392,0.932 0.694,1.28 0.303,0.351 0.671,0.619 1.104,0.801 0.434,0.186 0.922,0.279 1.466,0.279 1.162,0 2.259,-0.406 3.294,-1.221l0 1.276c-0.987,0.705 -2.184,1.059 -3.587,1.059 -0.691,0 -1.32,-0.12 -1.885,-0.364 -0.564,-0.241 -1.042,-0.592 -1.441,-1.053 -0.395,-0.461 -0.701,-1.028 -0.915,-1.699 -0.216,-0.674 -0.323,-1.441 -0.323,-2.301 0,-0.774 0.117,-1.489 0.351,-2.149 0.237,-0.657 0.561,-1.228 0.977,-1.71 0.419,-0.481 0.911,-0.856 1.482,-1.128 0.571,-0.272 1.194,-0.409 1.871,-0.409 0.668,0 1.252,0.117 1.764,0.347 0.51,0.234 0.939,0.564 1.283,0.994 0.348,0.43 0.609,0.953 0.791,1.572 0.183,0.619 0.272,1.31 0.272,2.074l0 0.647 -7.449 0zm6.128 -1.136c-0.02,-1.073 -0.275,-1.905 -0.767,-2.496 -0.492,-0.592 -1.176,-0.888 -2.049,-0.888 -0.437,0 -0.843,0.076 -1.218,0.231 -0.371,0.154 -0.701,0.378 -0.983,0.67 -0.282,0.293 -0.516,0.65 -0.702,1.07 -0.186,0.419 -0.313,0.891 -0.389,1.413l6.108 0z"/>
  </g>
  <path class="fil1" d="M235.998 146.404l0 -2.666c0,-0.507 -0.092,-0.881 -0.278,-1.121 -0.186,-0.24 -0.474,-0.361 -0.866,-0.361 -0.184,0 -0.36,0.036 -0.528,0.11 -0.167,0.074 -0.314,0.181 -0.439,0.319 -0.125,0.139 -0.225,0.308 -0.3,0.507 -0.076,0.199 -0.112,0.424 -0.112,0.676l0 2.536 -0.581 0 0 -6.702 0.581 0 0 2.954 0.018 0c0.359,-0.593 0.873,-0.889 1.544,-0.889 0.513,0 0.898,0.155 1.154,0.465 0.258,0.309 0.387,0.767 0.387,1.37l0 2.802 -0.58 0z"/>
  <path id="_1_0" class="fil1" d="M239.934 146.348c-0.199,0.098 -0.413,0.146 -0.647,0.146 -0.741,0 -1.112,-0.421 -1.112,-1.263l0 -2.857 -0.811 0 0 -0.498 0.811 0 0 -1.137 0.58 -0.186 0 1.323 1.179 0 0 0.498 -1.179 0 0 2.766c0,0.307 0.05,0.527 0.152,0.663 0.101,0.134 0.271,0.202 0.514,0.202 0.178,0 0.348,-0.053 0.513,-0.158l0 0.501z"/>
  <path id="_2_1" class="fil1" d="M242.861 146.348c-0.198,0.098 -0.413,0.146 -0.646,0.146 -0.742,0 -1.113,-0.421 -1.113,-1.263l0 -2.857 -0.811 0 0 -0.498 0.811 0 0 -1.137 0.58 -0.186 0 1.323 1.179 0 0 0.498 -1.179 0 0 2.766c0,0.307 0.051,0.527 0.152,0.663 0.101,0.134 0.272,0.202 0.514,0.202 0.178,0 0.349,-0.053 0.513,-0.158l0 0.501z"/>
  <path id="_3_2" class="fil1" d="M244.397 145.676l0 2.811 -0.58 0 0 -6.611 0.58 0 0 0.864 0.019 0c0.17,-0.315 0.397,-0.556 0.683,-0.722 0.285,-0.168 0.608,-0.251 0.965,-0.251 0.294,0 0.556,0.053 0.788,0.157 0.232,0.105 0.427,0.254 0.586,0.445 0.161,0.192 0.283,0.424 0.369,0.699 0.084,0.275 0.127,0.583 0.127,0.925 0,0.376 -0.048,0.717 -0.143,1.025 -0.096,0.308 -0.233,0.574 -0.413,0.795 -0.179,0.221 -0.397,0.393 -0.652,0.515 -0.255,0.122 -0.543,0.184 -0.863,0.184 -0.646,0 -1.128,-0.279 -1.447,-0.836l-0.019 0zm0 -1.158c0,0.207 0.036,0.4 0.106,0.582 0.069,0.182 0.168,0.341 0.294,0.478 0.125,0.137 0.277,0.246 0.455,0.326 0.179,0.08 0.375,0.119 0.59,0.119 0.23,0 0.437,-0.048 0.623,-0.143 0.186,-0.097 0.344,-0.233 0.474,-0.411 0.129,-0.176 0.231,-0.391 0.3,-0.641 0.07,-0.251 0.105,-0.531 0.105,-0.841 0,-0.265 -0.032,-0.505 -0.098,-0.72 -0.066,-0.214 -0.159,-0.395 -0.281,-0.546 -0.121,-0.151 -0.267,-0.266 -0.438,-0.346 -0.172,-0.08 -0.364,-0.119 -0.578,-0.119 -0.239,0 -0.454,0.044 -0.646,0.131 -0.19,0.086 -0.354,0.206 -0.488,0.356 -0.135,0.15 -0.238,0.326 -0.31,0.529 -0.072,0.202 -0.108,0.416 -0.108,0.644l0 0.602z"/>
  <path id="_4_3" class="fil1" d="M248.843 145.59c0.087,0.068 0.181,0.128 0.282,0.181 0.101,0.053 0.207,0.098 0.315,0.138 0.107,0.037 0.214,0.066 0.325,0.086 0.109,0.019 0.212,0.028 0.312,0.028 0.681,0 1.022,-0.252 1.022,-0.754 0,-0.115 -0.025,-0.215 -0.072,-0.299 -0.048,-0.085 -0.117,-0.162 -0.206,-0.231 -0.09,-0.07 -0.198,-0.133 -0.324,-0.192 -0.126,-0.059 -0.268,-0.121 -0.426,-0.185 -0.214,-0.087 -0.396,-0.174 -0.55,-0.262 -0.152,-0.089 -0.278,-0.185 -0.377,-0.289 -0.099,-0.106 -0.173,-0.221 -0.22,-0.346 -0.047,-0.125 -0.072,-0.269 -0.072,-0.427 0,-0.201 0.044,-0.38 0.132,-0.536 0.089,-0.157 0.207,-0.29 0.356,-0.398 0.15,-0.109 0.322,-0.194 0.517,-0.251 0.197,-0.057 0.402,-0.086 0.617,-0.086 0.398,0 0.743,0.074 1.039,0.22l0 0.597c-0.343,-0.219 -0.715,-0.328 -1.112,-0.328 -0.143,0 -0.273,0.018 -0.392,0.053 -0.118,0.036 -0.219,0.086 -0.304,0.151 -0.083,0.065 -0.149,0.143 -0.195,0.234 -0.046,0.09 -0.069,0.19 -0.069,0.299 0,0.113 0.019,0.211 0.054,0.294 0.037,0.084 0.092,0.161 0.169,0.229 0.076,0.067 0.175,0.132 0.296,0.195 0.121,0.062 0.269,0.128 0.444,0.199 0.221,0.088 0.413,0.175 0.574,0.263 0.162,0.087 0.296,0.181 0.401,0.284 0.104,0.101 0.182,0.214 0.233,0.341 0.05,0.125 0.076,0.27 0.076,0.434 0,0.204 -0.042,0.387 -0.127,0.545 -0.086,0.16 -0.204,0.295 -0.354,0.403 -0.151,0.109 -0.329,0.192 -0.532,0.248 -0.202,0.055 -0.423,0.084 -0.663,0.084 -0.463,0 -0.853,-0.096 -1.169,-0.288l0 -0.634z"/>
  <path id="_5_4" class="fil1" d="M253.108 142.636c-0.06,0 -0.116,-0.01 -0.169,-0.033 -0.052,-0.022 -0.098,-0.053 -0.136,-0.093 -0.039,-0.04 -0.069,-0.086 -0.092,-0.138 -0.023,-0.051 -0.034,-0.107 -0.034,-0.166 0,-0.117 0.041,-0.217 0.126,-0.299 0.083,-0.081 0.186,-0.122 0.305,-0.122 0.057,0 0.111,0.011 0.163,0.032 0.052,0.019 0.1,0.048 0.139,0.086 0.04,0.036 0.073,0.081 0.098,0.133 0.022,0.051 0.035,0.108 0.035,0.17 0,0.062 -0.013,0.119 -0.035,0.171 -0.025,0.051 -0.058,0.096 -0.098,0.136 -0.039,0.037 -0.087,0.068 -0.139,0.09 -0.052,0.023 -0.106,0.033 -0.163,0.033zm0 3.858c-0.119,0 -0.222,-0.041 -0.305,-0.124 -0.085,-0.081 -0.126,-0.182 -0.126,-0.3 0,-0.119 0.041,-0.222 0.123,-0.303 0.083,-0.083 0.186,-0.124 0.308,-0.124 0.06,0 0.116,0.01 0.168,0.033 0.052,0.023 0.098,0.051 0.136,0.088 0.04,0.037 0.071,0.081 0.096,0.134 0.022,0.054 0.035,0.112 0.035,0.172 0,0.059 -0.013,0.115 -0.035,0.166 -0.025,0.051 -0.056,0.097 -0.096,0.134 -0.038,0.038 -0.084,0.068 -0.136,0.091 -0.052,0.022 -0.108,0.033 -0.168,0.033z"/>
  <polygon id="_6_5" class="fil1" points="254.534,147.454 253.986,147.454 257.099,140.064 257.661,140.064 "/>
  <polygon id="_7_6" class="fil1" points="258.016,147.454 257.468,147.454 260.58,140.064 261.142,140.064 "/>
  <path id="_8_7" class="fil1" d="M265.627 146.055c0,0.841 -0.194,1.464 -0.584,1.868 -0.39,0.406 -0.99,0.609 -1.802,0.609 -0.505,0 -0.984,-0.11 -1.436,-0.331l0 -0.575c0.502,0.272 0.98,0.408 1.434,0.408 1.205,0 1.808,-0.625 1.808,-1.873l0 -0.542 -0.018 0c-0.353,0.596 -0.894,0.893 -1.62,0.893 -0.285,0 -0.544,-0.051 -0.781,-0.155 -0.235,-0.103 -0.437,-0.252 -0.605,-0.447 -0.167,-0.195 -0.299,-0.432 -0.391,-0.711 -0.094,-0.278 -0.139,-0.593 -0.139,-0.945 0,-0.371 0.048,-0.709 0.148,-1.016 0.099,-0.304 0.24,-0.567 0.422,-0.784 0.185,-0.219 0.406,-0.388 0.665,-0.507 0.259,-0.12 0.551,-0.18 0.875,-0.18 0.651,0 1.127,0.26 1.426,0.779l0.018 0 0 -0.67 0.58 0 0 4.179zm-0.58 -2.404c0,-0.189 -0.035,-0.369 -0.104,-0.536 -0.069,-0.168 -0.164,-0.316 -0.287,-0.442 -0.124,-0.127 -0.27,-0.228 -0.441,-0.304 -0.169,-0.075 -0.356,-0.113 -0.56,-0.113 -0.241,0 -0.457,0.045 -0.652,0.137 -0.194,0.092 -0.358,0.222 -0.495,0.39 -0.138,0.167 -0.242,0.373 -0.316,0.613 -0.074,0.241 -0.11,0.511 -0.11,0.811 0,0.278 0.035,0.529 0.104,0.754 0.069,0.225 0.166,0.415 0.292,0.57 0.127,0.157 0.279,0.278 0.457,0.364 0.18,0.086 0.379,0.128 0.597,0.128 0.229,0 0.436,-0.041 0.623,-0.122 0.186,-0.08 0.346,-0.193 0.478,-0.337 0.132,-0.141 0.235,-0.311 0.307,-0.504 0.072,-0.193 0.107,-0.401 0.107,-0.626l0 -0.783z"/>
  <path id="_9_8" class="fil1" d="M267.397 140.735c-0.112,0 -0.207,-0.038 -0.288,-0.115 -0.083,-0.077 -0.123,-0.175 -0.123,-0.293 0,-0.115 0.04,-0.21 0.123,-0.285 0.081,-0.076 0.176,-0.113 0.288,-0.113 0.057,0 0.112,0.009 0.163,0.028 0.052,0.02 0.095,0.047 0.134,0.082 0.038,0.036 0.067,0.078 0.09,0.127 0.023,0.048 0.034,0.102 0.034,0.161 0,0.056 -0.011,0.109 -0.032,0.16 -0.02,0.05 -0.051,0.094 -0.091,0.13 -0.038,0.038 -0.083,0.066 -0.132,0.086 -0.05,0.021 -0.106,0.032 -0.166,0.032zm-0.285 5.669l0 -4.528 0.58 0 0 4.528 -0.58 0z"/>
  <path id="_10_9" class="fil1" d="M271.143 146.348c-0.199,0.098 -0.413,0.146 -0.647,0.146 -0.741,0 -1.112,-0.421 -1.112,-1.263l0 -2.857 -0.811 0 0 -0.498 0.811 0 0 -1.137 0.58 -0.186 0 1.323 1.179 0 0 0.498 -1.179 0 0 2.766c0,0.307 0.051,0.527 0.152,0.663 0.101,0.134 0.271,0.202 0.514,0.202 0.178,0 0.348,-0.053 0.513,-0.158l0 0.501z"/>
  <path id="_11_10" class="fil1" d="M275.203 146.404l0 -2.666c0,-0.507 -0.092,-0.881 -0.278,-1.121 -0.186,-0.24 -0.475,-0.361 -0.866,-0.361 -0.184,0 -0.36,0.036 -0.528,0.11 -0.167,0.074 -0.314,0.181 -0.439,0.319 -0.126,0.139 -0.226,0.308 -0.301,0.507 -0.075,0.199 -0.112,0.424 -0.112,0.676l0 2.536 -0.58 0 0 -6.702 0.58 0 0 2.954 0.019 0c0.359,-0.593 0.873,-0.889 1.544,-0.889 0.513,0 0.898,0.155 1.154,0.465 0.258,0.309 0.387,0.767 0.387,1.37l0 2.802 -0.58 0z"/>
  <path id="_12_11" class="fil1" d="M280.179 146.404l0 -0.767 -0.018 0c-0.312,0.584 -0.796,0.875 -1.452,0.875 -1.095,0 -1.643,-0.658 -1.643,-1.972l0 -2.664 0.58 0 0 2.555c0,0.543 0.099,0.943 0.295,1.203 0.195,0.259 0.496,0.389 0.9,0.389 0.197,0 0.377,-0.038 0.541,-0.113 0.163,-0.075 0.304,-0.181 0.423,-0.318 0.118,-0.136 0.21,-0.301 0.276,-0.492 0.066,-0.192 0.098,-0.405 0.098,-0.637l0 -2.587 0.58 0 0 4.528 -0.58 0z"/>
  <path id="_13_12" class="fil1" d="M282.821 145.676l0 0.728 -0.581 0 0 -6.702 0.581 0 0 3.038 0.018 0c0.171,-0.315 0.398,-0.556 0.683,-0.722 0.286,-0.168 0.608,-0.251 0.966,-0.251 0.293,0 0.555,0.053 0.787,0.157 0.232,0.105 0.427,0.255 0.587,0.45 0.16,0.194 0.282,0.428 0.368,0.703 0.084,0.275 0.127,0.58 0.127,0.916 0,0.376 -0.049,0.717 -0.146,1.025 -0.096,0.308 -0.234,0.574 -0.414,0.795 -0.18,0.221 -0.396,0.393 -0.652,0.515 -0.255,0.122 -0.542,0.184 -0.858,0.184 -0.65,0 -1.132,-0.279 -1.448,-0.836l-0.018 0zm0 -1.158c0,0.207 0.035,0.4 0.106,0.582 0.069,0.182 0.167,0.341 0.293,0.478 0.126,0.137 0.278,0.246 0.456,0.326 0.178,0.08 0.374,0.119 0.589,0.119 0.23,0 0.438,-0.048 0.623,-0.143 0.186,-0.097 0.344,-0.233 0.475,-0.411 0.129,-0.176 0.23,-0.391 0.299,-0.641 0.07,-0.251 0.106,-0.531 0.106,-0.841 0,-0.265 -0.032,-0.505 -0.098,-0.72 -0.066,-0.214 -0.16,-0.395 -0.281,-0.546 -0.122,-0.151 -0.267,-0.266 -0.439,-0.346 -0.172,-0.08 -0.364,-0.119 -0.578,-0.119 -0.239,0 -0.454,0.044 -0.646,0.131 -0.19,0.086 -0.354,0.206 -0.488,0.356 -0.135,0.15 -0.238,0.326 -0.31,0.529 -0.072,0.202 -0.107,0.416 -0.107,0.644l0 0.602z"/>
  <path id="_14_13" class="fil1" d="M287.789 146.494c-0.119,0 -0.222,-0.041 -0.305,-0.124 -0.084,-0.081 -0.126,-0.182 -0.126,-0.3 0,-0.119 0.042,-0.222 0.123,-0.303 0.083,-0.083 0.186,-0.124 0.308,-0.124 0.06,0 0.115,0.01 0.168,0.033 0.052,0.023 0.098,0.051 0.136,0.088 0.04,0.037 0.071,0.081 0.096,0.134 0.022,0.054 0.035,0.112 0.035,0.172 0,0.059 -0.013,0.115 -0.035,0.166 -0.025,0.051 -0.056,0.097 -0.096,0.134 -0.038,0.038 -0.084,0.068 -0.136,0.091 -0.053,0.022 -0.108,0.033 -0.168,0.033z"/>
  <path id="_15_14" class="fil1" d="M292.604 146.198c-0.342,0.204 -0.755,0.308 -1.241,0.314 -0.33,0.003 -0.628,-0.053 -0.892,-0.167 -0.264,-0.116 -0.488,-0.276 -0.676,-0.48 -0.185,-0.205 -0.328,-0.447 -0.426,-0.726 -0.1,-0.278 -0.149,-0.581 -0.149,-0.909 0,-0.339 0.052,-0.658 0.158,-0.957 0.104,-0.3 0.258,-0.56 0.459,-0.783 0.201,-0.222 0.447,-0.399 0.738,-0.528 0.29,-0.13 0.623,-0.195 0.999,-0.195 0.381,0 0.73,0.072 1.044,0.217l0 0.601c-0.336,-0.219 -0.7,-0.329 -1.091,-0.329 -0.273,0 -0.518,0.051 -0.731,0.152 -0.213,0.103 -0.393,0.242 -0.539,0.417 -0.145,0.175 -0.256,0.38 -0.333,0.616 -0.076,0.234 -0.115,0.483 -0.115,0.745 0,0.242 0.032,0.474 0.097,0.695 0.064,0.222 0.164,0.416 0.298,0.587 0.133,0.169 0.302,0.305 0.506,0.404 0.206,0.102 0.445,0.151 0.723,0.151 0.433,0 0.823,-0.127 1.171,-0.382l0 0.557z"/>
  <path id="_16_15" class="fil1" d="M295.585 146.512c-0.34,0 -0.648,-0.056 -0.918,-0.167 -0.271,-0.113 -0.503,-0.272 -0.695,-0.477 -0.192,-0.205 -0.338,-0.45 -0.439,-0.737 -0.103,-0.287 -0.153,-0.603 -0.153,-0.952 0,-0.378 0.053,-0.716 0.161,-1.013 0.109,-0.299 0.262,-0.551 0.46,-0.759 0.2,-0.208 0.441,-0.367 0.722,-0.476 0.282,-0.11 0.597,-0.164 0.943,-0.164 0.334,0 0.633,0.054 0.899,0.161 0.267,0.108 0.492,0.265 0.678,0.467 0.186,0.203 0.329,0.453 0.427,0.744 0.099,0.293 0.149,0.625 0.149,0.996 0,0.355 -0.053,0.676 -0.155,0.968 -0.103,0.291 -0.251,0.54 -0.443,0.75 -0.192,0.21 -0.425,0.371 -0.701,0.487 -0.275,0.115 -0.586,0.172 -0.935,0.172zm0.046 -4.256c-0.253,0 -0.48,0.042 -0.684,0.128 -0.204,0.086 -0.38,0.21 -0.525,0.375 -0.146,0.163 -0.258,0.363 -0.337,0.602 -0.078,0.237 -0.116,0.507 -0.116,0.807 0,0.284 0.038,0.539 0.116,0.766 0.079,0.227 0.189,0.422 0.332,0.585 0.143,0.162 0.316,0.287 0.52,0.373 0.205,0.087 0.432,0.131 0.685,0.131 0.258,0 0.487,-0.042 0.685,-0.127 0.198,-0.083 0.365,-0.205 0.503,-0.366 0.138,-0.162 0.243,-0.358 0.313,-0.592 0.071,-0.232 0.106,-0.498 0.106,-0.797 0,-0.61 -0.138,-1.078 -0.414,-1.401 -0.276,-0.322 -0.671,-0.484 -1.184,-0.484z"/>
  <path id="_17_16" class="fil1" d="M304.774 146.404l0 -2.666c0,-0.27 -0.022,-0.5 -0.063,-0.688 -0.042,-0.187 -0.108,-0.34 -0.195,-0.457 -0.089,-0.118 -0.201,-0.204 -0.336,-0.257 -0.137,-0.053 -0.3,-0.08 -0.488,-0.08 -0.168,0 -0.326,0.039 -0.476,0.118 -0.149,0.078 -0.28,0.185 -0.393,0.323 -0.112,0.137 -0.2,0.299 -0.264,0.484 -0.065,0.186 -0.097,0.387 -0.097,0.602l0 2.621 -0.58 0 0 -2.723c0,-0.95 -0.369,-1.425 -1.107,-1.425 -0.17,0 -0.328,0.038 -0.474,0.113 -0.147,0.076 -0.275,0.18 -0.384,0.316 -0.109,0.136 -0.194,0.299 -0.255,0.49 -0.061,0.19 -0.092,0.4 -0.092,0.629l0 2.6 -0.58 0 0 -4.528 0.58 0 0 0.733 0.019 0c0.323,-0.561 0.795,-0.842 1.415,-0.842 0.161,0 0.314,0.024 0.459,0.072 0.142,0.05 0.271,0.118 0.385,0.204 0.115,0.088 0.212,0.192 0.295,0.313 0.082,0.122 0.144,0.255 0.187,0.4 0.161,-0.324 0.371,-0.568 0.631,-0.737 0.259,-0.167 0.552,-0.252 0.878,-0.252 1.01,0 1.515,0.613 1.515,1.84l0 2.797 -0.58 0z"/>
  <polygon id="_18_17" class="fil1" points="306.411,147.454 305.864,147.454 308.977,140.064 309.538,140.064 "/>
  <path id="_19_18" class="fil1" d="M312.504 142.457c-0.135,-0.098 -0.309,-0.147 -0.522,-0.147 -0.152,0 -0.287,0.029 -0.404,0.086 -0.118,0.058 -0.219,0.135 -0.308,0.233 -0.089,0.096 -0.163,0.21 -0.224,0.338 -0.063,0.128 -0.112,0.261 -0.149,0.4 -0.038,0.139 -0.065,0.279 -0.081,0.419 -0.018,0.142 -0.025,0.277 -0.025,0.403l0 2.215 -0.571 0 0 -4.528 0.571 0 0 0.97 0.018 0c0.054,-0.164 0.122,-0.314 0.205,-0.444 0.082,-0.131 0.178,-0.243 0.285,-0.332 0.107,-0.09 0.226,-0.158 0.353,-0.205 0.128,-0.047 0.261,-0.071 0.402,-0.071 0.094,0 0.177,0.006 0.251,0.018 0.072,0.011 0.139,0.029 0.199,0.053l0 0.592z"/>
  <path id="_20_19" class="fil1" d="M316.282 146.198c-0.343,0.204 -0.756,0.308 -1.242,0.314 -0.33,0.003 -0.628,-0.053 -0.892,-0.167 -0.264,-0.116 -0.488,-0.276 -0.675,-0.48 -0.186,-0.205 -0.329,-0.447 -0.427,-0.726 -0.1,-0.278 -0.149,-0.581 -0.149,-0.909 0,-0.339 0.052,-0.658 0.158,-0.957 0.104,-0.3 0.258,-0.56 0.459,-0.783 0.201,-0.222 0.447,-0.399 0.738,-0.528 0.29,-0.13 0.624,-0.195 1,-0.195 0.38,0 0.729,0.072 1.043,0.217l0 0.601c-0.336,-0.219 -0.7,-0.329 -1.091,-0.329 -0.273,0 -0.517,0.051 -0.73,0.152 -0.214,0.103 -0.394,0.242 -0.54,0.417 -0.145,0.175 -0.256,0.38 -0.333,0.616 -0.076,0.234 -0.115,0.483 -0.115,0.745 0,0.242 0.033,0.474 0.097,0.695 0.065,0.222 0.164,0.416 0.298,0.587 0.133,0.169 0.302,0.305 0.506,0.404 0.206,0.102 0.446,0.151 0.723,0.151 0.433,0 0.823,-0.127 1.172,-0.382l0 0.557z"/>
  <path id="_21_20" class="fil1" d="M319.525 140.234c-0.129,-0.084 -0.295,-0.124 -0.499,-0.124 -0.539,0 -0.809,0.347 -0.809,1.04l0 0.726 1.142 0 0 0.498 -1.142 0 0 4.03 -0.58 0 0 -4.03 -0.801 0 0 -0.498 0.801 0 0 -0.762c0,-0.228 0.029,-0.434 0.087,-0.618 0.059,-0.185 0.146,-0.343 0.26,-0.474 0.113,-0.133 0.258,-0.234 0.429,-0.305 0.174,-0.071 0.374,-0.105 0.598,-0.105 0.216,0 0.388,0.028 0.514,0.084l0 0.538z"/>
  <path id="_22_21" class="fil1" d="M323.324 146.404l0 -0.794 -0.019 0c-0.152,0.285 -0.371,0.508 -0.653,0.665 -0.284,0.159 -0.607,0.237 -0.966,0.237 -0.288,0 -0.549,-0.053 -0.786,-0.157 -0.235,-0.105 -0.437,-0.256 -0.605,-0.454 -0.167,-0.198 -0.297,-0.436 -0.389,-0.717 -0.091,-0.281 -0.137,-0.598 -0.137,-0.951 0,-0.367 0.051,-0.7 0.15,-1.003 0.102,-0.302 0.244,-0.562 0.429,-0.779 0.184,-0.218 0.406,-0.385 0.666,-0.504 0.259,-0.12 0.548,-0.18 0.866,-0.18 0.663,0 1.138,0.261 1.425,0.783l0.019 0 0 -2.848 0.58 0 0 6.702 -0.58 0zm0 -2.735c0,-0.198 -0.035,-0.384 -0.105,-0.554 -0.069,-0.171 -0.164,-0.32 -0.287,-0.447 -0.124,-0.127 -0.271,-0.228 -0.445,-0.302 -0.172,-0.074 -0.362,-0.11 -0.569,-0.11 -0.229,0 -0.439,0.044 -0.631,0.133 -0.192,0.089 -0.358,0.216 -0.494,0.383 -0.137,0.166 -0.243,0.37 -0.32,0.608 -0.076,0.239 -0.115,0.511 -0.115,0.816 0,0.285 0.035,0.541 0.105,0.769 0.069,0.228 0.167,0.42 0.294,0.575 0.128,0.157 0.28,0.276 0.458,0.36 0.176,0.082 0.374,0.123 0.589,0.123 0.235,0 0.447,-0.041 0.634,-0.123 0.187,-0.084 0.347,-0.197 0.477,-0.342 0.131,-0.145 0.232,-0.314 0.303,-0.508 0.071,-0.195 0.106,-0.403 0.106,-0.625l0 -0.756z"/>
  <path id="_23_22" class="fil1" d="M327.359 146.348c-0.198,0.098 -0.413,0.146 -0.646,0.146 -0.742,0 -1.113,-0.421 -1.113,-1.263l0 -2.857 -0.81 0 0 -0.498 0.81 0 0 -1.137 0.58 -0.186 0 1.323 1.179 0 0 0.498 -1.179 0 0 2.766c0,0.307 0.051,0.527 0.152,0.663 0.102,0.134 0.272,0.202 0.515,0.202 0.178,0 0.348,-0.053 0.512,-0.158l0 0.501z"/>
  <path id="_24_23" class="fil1" d="M330.118 146.512c-0.341,0 -0.648,-0.056 -0.918,-0.167 -0.272,-0.113 -0.504,-0.272 -0.696,-0.477 -0.192,-0.205 -0.337,-0.45 -0.439,-0.737 -0.102,-0.287 -0.153,-0.603 -0.153,-0.952 0,-0.378 0.054,-0.716 0.161,-1.013 0.109,-0.299 0.262,-0.551 0.461,-0.759 0.199,-0.208 0.44,-0.367 0.721,-0.476 0.283,-0.11 0.597,-0.164 0.944,-0.164 0.333,0 0.632,0.054 0.898,0.161 0.267,0.108 0.493,0.265 0.678,0.467 0.186,0.203 0.329,0.453 0.427,0.744 0.1,0.293 0.149,0.625 0.149,0.996 0,0.355 -0.052,0.676 -0.155,0.968 -0.103,0.291 -0.25,0.54 -0.442,0.75 -0.192,0.21 -0.425,0.371 -0.702,0.487 -0.274,0.115 -0.586,0.172 -0.934,0.172zm0.045 -4.256c-0.253,0 -0.48,0.042 -0.684,0.128 -0.204,0.086 -0.379,0.21 -0.525,0.375 -0.146,0.163 -0.258,0.363 -0.336,0.602 -0.078,0.237 -0.117,0.507 -0.117,0.807 0,0.284 0.039,0.539 0.117,0.766 0.078,0.227 0.189,0.422 0.331,0.585 0.143,0.162 0.317,0.287 0.521,0.373 0.204,0.087 0.431,0.131 0.685,0.131 0.257,0 0.486,-0.042 0.684,-0.127 0.198,-0.083 0.365,-0.205 0.503,-0.366 0.139,-0.162 0.243,-0.358 0.314,-0.592 0.07,-0.232 0.106,-0.498 0.106,-0.797 0,-0.61 -0.139,-1.078 -0.415,-1.401 -0.276,-0.322 -0.671,-0.484 -1.184,-0.484z"/>
  <path id="_25_24" class="fil1" d="M335.396 146.512c-0.34,0 -0.647,-0.056 -0.918,-0.167 -0.271,-0.113 -0.503,-0.272 -0.695,-0.477 -0.192,-0.205 -0.338,-0.45 -0.439,-0.737 -0.103,-0.287 -0.153,-0.603 -0.153,-0.952 0,-0.378 0.054,-0.716 0.161,-1.013 0.109,-0.299 0.262,-0.551 0.46,-0.759 0.2,-0.208 0.441,-0.367 0.722,-0.476 0.282,-0.11 0.597,-0.164 0.944,-0.164 0.333,0 0.632,0.054 0.898,0.161 0.267,0.108 0.492,0.265 0.678,0.467 0.186,0.203 0.329,0.453 0.427,0.744 0.1,0.293 0.149,0.625 0.149,0.996 0,0.355 -0.052,0.676 -0.155,0.968 -0.103,0.291 -0.25,0.54 -0.442,0.75 -0.192,0.21 -0.426,0.371 -0.702,0.487 -0.274,0.115 -0.586,0.172 -0.935,0.172zm0.047 -4.256c-0.254,0 -0.481,0.042 -0.685,0.128 -0.204,0.086 -0.379,0.21 -0.525,0.375 -0.146,0.163 -0.258,0.363 -0.336,0.602 -0.079,0.237 -0.117,0.507 -0.117,0.807 0,0.284 0.038,0.539 0.117,0.766 0.078,0.227 0.189,0.422 0.331,0.585 0.143,0.162 0.316,0.287 0.521,0.373 0.204,0.087 0.431,0.131 0.684,0.131 0.258,0 0.487,-0.042 0.685,-0.127 0.198,-0.083 0.365,-0.205 0.503,-0.366 0.138,-0.162 0.243,-0.358 0.313,-0.592 0.071,-0.232 0.106,-0.498 0.106,-0.797 0,-0.61 -0.138,-1.078 -0.414,-1.401 -0.276,-0.322 -0.671,-0.484 -1.183,-0.484z"/>
  <polygon id="_26_25" class="fil1" points="338.801,146.404 338.801,139.702 339.381,139.702 339.381,146.404 "/>
  <path id="_27_26" class="fil1" d="M340.603 145.59c0.088,0.068 0.181,0.128 0.283,0.181 0.101,0.053 0.207,0.098 0.314,0.138 0.108,0.037 0.215,0.066 0.326,0.086 0.109,0.019 0.212,0.028 0.311,0.028 0.682,0 1.023,-0.252 1.023,-0.754 0,-0.115 -0.025,-0.215 -0.073,-0.299 -0.047,-0.085 -0.116,-0.162 -0.205,-0.231 -0.091,-0.07 -0.198,-0.133 -0.324,-0.192 -0.126,-0.059 -0.269,-0.121 -0.427,-0.185 -0.213,-0.087 -0.396,-0.174 -0.55,-0.262 -0.151,-0.089 -0.277,-0.185 -0.377,-0.289 -0.098,-0.106 -0.172,-0.221 -0.219,-0.346 -0.048,-0.125 -0.073,-0.269 -0.073,-0.427 0,-0.201 0.045,-0.38 0.132,-0.536 0.089,-0.157 0.207,-0.29 0.356,-0.398 0.151,-0.109 0.323,-0.194 0.518,-0.251 0.196,-0.057 0.402,-0.086 0.617,-0.086 0.397,0 0.743,0.074 1.039,0.22l0 0.597c-0.344,-0.219 -0.715,-0.328 -1.113,-0.328 -0.143,0 -0.273,0.018 -0.391,0.053 -0.118,0.036 -0.22,0.086 -0.304,0.151 -0.083,0.065 -0.149,0.143 -0.195,0.234 -0.046,0.09 -0.069,0.19 -0.069,0.299 0,0.113 0.018,0.211 0.054,0.294 0.036,0.084 0.092,0.161 0.168,0.229 0.077,0.067 0.175,0.132 0.296,0.195 0.122,0.062 0.269,0.128 0.444,0.199 0.221,0.088 0.413,0.175 0.574,0.263 0.163,0.087 0.297,0.181 0.401,0.284 0.104,0.101 0.183,0.214 0.233,0.341 0.051,0.125 0.077,0.27 0.077,0.434 0,0.204 -0.043,0.387 -0.127,0.545 -0.086,0.16 -0.205,0.295 -0.355,0.403 -0.151,0.109 -0.329,0.192 -0.531,0.248 -0.203,0.055 -0.424,0.084 -0.663,0.084 -0.464,0 -0.854,-0.096 -1.17,-0.288l0 -0.634z"/>
  <path class="fil1" d="M114.424 28.321c-1.682,0.969 -3.776,1.453 -6.279,1.453 -2.771,0 -4.958,-0.767 -6.559,-2.302 -1.597,-1.535 -2.397,-3.649 -2.397,-6.342 0,-2.708 0.874,-4.917 2.623,-6.624 1.744,-1.711 4.071,-2.565 6.973,-2.565 1.826,0 3.44,0.254 4.831,0.759l0 3.645c-1.33,-0.772 -2.955,-1.154 -4.88,-1.154 -1.613,0 -2.922,0.522 -3.936,1.568 -1.018,1.047 -1.523,2.443 -1.523,4.191 0,1.769 0.456,3.14 1.363,4.112 0.911,0.969 2.138,1.454 3.685,1.454 0.932,0 1.671,-0.132 2.213,-0.394l0 -3.37 -3.448 0 0 -3.103 7.334 0 0 8.672z"/>
  <path id="_1_27" class="fil1" d="M129.106 29.475l-3.789 0 0 -1.876 -0.057 0c-0.94,1.449 -2.192,2.175 -3.764,2.175 -2.856,0 -4.281,-1.728 -4.281,-5.183l0 -7.429 3.789 0 0 7.092c0,1.74 0.689,2.61 2.068,2.61 0.682,0 1.223,-0.238 1.634,-0.714 0.41,-0.476 0.611,-1.124 0.611,-1.941l0 -7.047 3.789 0 0 12.313z"/>
  <path id="_2_28" class="fil1" d="M136.104 29.475l-3.797 0 0 -12.313 3.797 0 0 12.313zm1.966 -18.146l-3.764 3.883 -2.742 0 3.128 -3.883 3.378 0z"/>
  <path id="_3_29" class="fil1" d="M149.549 29.475l-3.595 0 0 -1.769 -0.049 0c-0.825,1.379 -2.048,2.068 -3.67,2.068 -1.194,0 -2.134,-0.336 -2.819,-1.013 -0.686,-0.678 -1.026,-1.585 -1.026,-2.713 0,-2.389 1.416,-3.768 4.244,-4.138l3.345 -0.443c0,-1.346 -0.731,-2.019 -2.192,-2.019 -1.465,0 -2.861,0.435 -4.182,1.309l0 -2.861c0.529,-0.275 1.251,-0.513 2.171,-0.722 0.915,-0.209 1.752,-0.312 2.508,-0.312 3.509,0 5.265,1.753 5.265,5.253l0 7.36zm-3.57 -5.004l0 -0.829 -2.237 0.288c-1.236,0.16 -1.851,0.718 -1.851,1.674 0,0.431 0.147,0.788 0.447,1.063 0.304,0.275 0.71,0.415 1.223,0.415 0.714,0 1.293,-0.246 1.745,-0.739 0.447,-0.492 0.673,-1.116 0.673,-1.872z"/>
  <path id="_4_30" class="fil1" d="M163.196 28.042l-0.049 0 0 7.097 -3.796 0 0 -17.977 3.796 0 0 1.851 0.049 0c0.94,-1.433 2.258,-2.151 3.957,-2.151 1.597,0 2.828,0.546 3.698,1.642 0.87,1.091 1.305,2.581 1.305,4.465 0,2.052 -0.509,3.698 -1.522,4.942 -1.014,1.244 -2.365,1.863 -4.047,1.863 -1.482,0 -2.611,-0.574 -3.391,-1.732zm-0.106 -5.048l0 0.985c0,0.85 0.221,1.543 0.673,2.081 0.447,0.538 1.038,0.804 1.769,0.804 0.862,0 1.535,-0.332 2.011,-1.001 0.476,-0.669 0.718,-1.617 0.718,-2.844 0,-2.168 -0.841,-3.247 -2.528,-3.247 -0.776,0 -1.412,0.291 -1.904,0.882 -0.493,0.591 -0.739,1.371 -0.739,2.34z"/>
  <path id="_5_31" class="fil1" d="M184.625 29.475l-3.595 0 0 -1.769 -0.049 0c-0.825,1.379 -2.048,2.068 -3.67,2.068 -1.194,0 -2.134,-0.336 -2.819,-1.013 -0.686,-0.678 -1.026,-1.585 -1.026,-2.713 0,-2.389 1.416,-3.768 4.244,-4.138l3.345 -0.443c0,-1.346 -0.731,-2.019 -2.192,-2.019 -1.465,0 -2.861,0.435 -4.182,1.309l0 -2.861c0.529,-0.275 1.251,-0.513 2.171,-0.722 0.915,-0.209 1.752,-0.312 2.508,-0.312 3.509,0 5.265,1.753 5.265,5.253l0 7.36zm-3.57 -5.004l0 -0.829 -2.237 0.288c-1.236,0.16 -1.851,0.718 -1.851,1.674 0,0.431 0.147,0.788 0.447,1.063 0.304,0.275 0.71,0.415 1.223,0.415 0.714,0 1.293,-0.246 1.744,-0.739 0.448,-0.492 0.674,-1.116 0.674,-1.872z"/>
  <path id="_6_32" class="fil1" d="M195.666 20.589c-0.46,-0.251 -0.993,-0.374 -1.601,-0.374 -0.825,0 -1.469,0.304 -1.937,0.907 -0.464,0.608 -0.698,1.429 -0.698,2.471l0 5.882 -3.796 0 0 -12.313 3.796 0 0 2.286 0.05 0c0.603,-1.671 1.683,-2.504 3.246,-2.504 0.403,0 0.714,0.049 0.94,0.144l0 3.501z"/>
  <path id="_7_33" class="fil1" d="M207.68 29.475l-3.596 0 0 -1.769 -0.049 0c-0.825,1.379 -2.048,2.068 -3.669,2.068 -1.195,0 -2.135,-0.336 -2.82,-1.013 -0.685,-0.678 -1.026,-1.585 -1.026,-2.713 0,-2.389 1.416,-3.768 4.244,-4.138l3.345 -0.443c0,-1.346 -0.731,-2.019 -2.192,-2.019 -1.465,0 -2.861,0.435 -4.182,1.309l0 -2.861c0.529,-0.275 1.251,-0.513 2.171,-0.722 0.915,-0.209 1.753,-0.312 2.508,-0.312 3.509,0 5.266,1.753 5.266,5.253l0 7.36zm-3.571 -5.004l0 -0.829 -2.237 0.288c-1.235,0.16 -1.851,0.718 -1.851,1.674 0,0.431 0.148,0.788 0.447,1.063 0.304,0.275 0.71,0.415 1.223,0.415 0.715,0 1.293,-0.246 1.745,-0.739 0.447,-0.492 0.673,-1.116 0.673,-1.872z"/>
  <path id="_8_34" class="fil1" d="M228.542 24.402l-8.032 0c0.127,1.785 1.256,2.68 3.378,2.68 1.354,0 2.544,-0.32 3.57,-0.96l0 2.741c-1.136,0.608 -2.614,0.911 -4.436,0.911 -1.987,0 -3.53,-0.55 -4.63,-1.654 -1.096,-1.1 -1.646,-2.639 -1.646,-4.609 0,-2.044 0.591,-3.665 1.781,-4.86 1.187,-1.194 2.644,-1.789 4.376,-1.789 1.793,0 3.185,0.534 4.165,1.597 0.981,1.067 1.474,2.516 1.474,4.342l0 1.601zm-3.522 -2.336c0,-1.76 -0.714,-2.643 -2.142,-2.643 -0.607,0 -1.137,0.25 -1.58,0.755 -0.447,0.505 -0.714,1.137 -0.813,1.888l4.535 0z"/>
  <path id="_9_35" class="fil1" d="M242.694 29.475l-3.789 0 0 -6.842c0,-1.909 -0.681,-2.861 -2.044,-2.861 -0.656,0 -1.198,0.25 -1.621,0.755 -0.427,0.505 -0.64,1.149 -0.64,1.925l0 7.023 -3.796 0 0 -12.313 3.796 0 0 1.949 0.049 0c0.907,-1.502 2.225,-2.249 3.957,-2.249 2.725,0 4.088,1.691 4.088,5.073l0 7.54z"/>
  <path id="_10_36" class="fil1" d="M244.894 29.15l0 -3.078c0.628,0.378 1.251,0.657 1.871,0.841 0.62,0.185 1.207,0.276 1.761,0.276 0.673,0 1.207,-0.091 1.593,-0.276 0.389,-0.184 0.582,-0.463 0.582,-0.841 0,-0.242 -0.086,-0.443 -0.262,-0.603 -0.177,-0.16 -0.403,-0.3 -0.682,-0.419 -0.275,-0.119 -0.578,-0.23 -0.907,-0.324 -0.328,-0.099 -0.644,-0.205 -0.948,-0.324 -0.488,-0.185 -0.919,-0.386 -1.293,-0.595 -0.373,-0.214 -0.685,-0.46 -0.94,-0.743 -0.25,-0.279 -0.443,-0.604 -0.574,-0.973 -0.131,-0.37 -0.201,-0.804 -0.201,-1.309 0,-0.69 0.151,-1.285 0.451,-1.782 0.3,-0.496 0.702,-0.903 1.203,-1.219 0.5,-0.316 1.075,-0.55 1.719,-0.697 0.645,-0.148 1.318,-0.222 2.016,-0.222 0.546,0 1.096,0.041 1.658,0.127 0.562,0.082 1.116,0.205 1.662,0.365l0 2.935c-0.484,-0.283 -0.997,-0.492 -1.547,-0.632 -0.55,-0.139 -1.088,-0.209 -1.617,-0.209 -0.251,0 -0.485,0.02 -0.702,0.065 -0.222,0.042 -0.419,0.107 -0.587,0.193 -0.168,0.082 -0.3,0.189 -0.394,0.325 -0.099,0.131 -0.144,0.283 -0.144,0.451 0,0.222 0.07,0.415 0.214,0.575 0.147,0.16 0.332,0.299 0.566,0.414 0.234,0.119 0.493,0.222 0.776,0.312 0.283,0.095 0.566,0.189 0.849,0.283 0.505,0.177 0.961,0.37 1.371,0.579 0.407,0.209 0.76,0.451 1.051,0.735 0.291,0.279 0.517,0.607 0.673,0.985 0.156,0.377 0.234,0.825 0.234,1.346 0,0.731 -0.156,1.354 -0.476,1.872 -0.316,0.517 -0.735,0.935 -1.26,1.26 -0.525,0.324 -1.133,0.562 -1.818,0.71 -0.686,0.147 -1.396,0.221 -2.135,0.221 -1.354,0 -2.606,-0.209 -3.763,-0.624z"/>
  <path id="_11_37" class="fil1" d="M267.599 24.402l-8.032 0c0.127,1.785 1.256,2.68 3.378,2.68 1.354,0 2.544,-0.32 3.57,-0.96l0 2.741c-1.137,0.608 -2.614,0.911 -4.436,0.911 -1.987,0 -3.53,-0.55 -4.63,-1.654 -1.096,-1.1 -1.646,-2.639 -1.646,-4.609 0,-2.044 0.591,-3.665 1.781,-4.86 1.187,-1.194 2.644,-1.789 4.376,-1.789 1.793,0 3.184,0.534 4.165,1.597 0.981,1.067 1.474,2.516 1.474,4.342l0 1.601zm-3.522 -2.336c0,-1.76 -0.714,-2.643 -2.142,-2.643 -0.608,0 -1.137,0.25 -1.58,0.755 -0.448,0.505 -0.714,1.137 -0.813,1.888l4.535 0z"/>
  <path id="_12_38" class="fil1" d="M281.751 29.475l-3.789 0 0 -6.842c0,-1.909 -0.681,-2.861 -2.043,-2.861 -0.657,0 -1.199,0.25 -1.622,0.755 -0.427,0.505 -0.64,1.149 -0.64,1.925l0 7.023 -3.797 0 0 -12.313 3.797 0 0 1.949 0.049 0c0.907,-1.502 2.225,-2.249 3.957,-2.249 2.725,0 4.088,1.691 4.088,5.073l0 7.54zm-1.691 -18.002c0,1.125 -0.222,1.991 -0.669,2.606 -0.443,0.612 -1.051,0.92 -1.818,0.92 -0.69,0 -1.363,-0.173 -2.024,-0.518 -0.71,-0.377 -1.207,-0.566 -1.477,-0.566 -0.641,0 -0.961,0.431 -0.961,1.297l-1.695 0c0,-1.112 0.218,-1.978 0.661,-2.594 0.439,-0.62 1.055,-0.927 1.851,-0.927 0.648,0 1.321,0.196 2.019,0.587 0.632,0.352 1.117,0.529 1.445,0.529 0.624,0 0.936,-0.443 0.936,-1.334l1.732 0z"/>
  <path id="_13_39" class="fil1" d="M295.004 29.475l-3.596 0 0 -1.769 -0.049 0c-0.825,1.379 -2.048,2.068 -3.669,2.068 -1.194,0 -2.134,-0.336 -2.82,-1.013 -0.685,-0.678 -1.026,-1.585 -1.026,-2.713 0,-2.389 1.416,-3.768 4.244,-4.138l3.345 -0.443c0,-1.346 -0.731,-2.019 -2.192,-2.019 -1.465,0 -2.861,0.435 -4.182,1.309l0 -2.861c0.53,-0.275 1.252,-0.513 2.171,-0.722 0.915,-0.209 1.753,-0.312 2.508,-0.312 3.509,0 5.266,1.753 5.266,5.253l0 7.36zm-3.571 -5.004l0 -0.829 -2.237 0.288c-1.235,0.16 -1.851,0.718 -1.851,1.674 0,0.431 0.148,0.788 0.447,1.063 0.304,0.275 0.71,0.415 1.224,0.415 0.714,0 1.292,-0.246 1.744,-0.739 0.447,-0.492 0.673,-1.116 0.673,-1.872z"/>
  <path id="_14_40" class="fil1" d="M309.903 29.475l-3.789 0 0 -6.842c0,-1.909 -0.681,-2.861 -2.044,-2.861 -0.656,0 -1.198,0.25 -1.621,0.755 -0.427,0.505 -0.64,1.149 -0.64,1.925l0 7.023 -3.797 0 0 -12.313 3.797 0 0 1.949 0.049 0c0.907,-1.502 2.225,-2.249 3.957,-2.249 2.725,0 4.088,1.691 4.088,5.073l0 7.54z"/>
  <polygon id="_15_41" class="fil1" points="322.663,29.475 311.61,29.475 311.61,27.899 317.791,19.965 312.226,19.965 312.226,17.162 322.614,17.162 322.614,19.037 316.757,26.671 322.663,26.671 "/>
  <path id="_16_42" class="fil1" d="M334.952 29.475l-3.596 0 0 -1.769 -0.049 0c-0.825,1.379 -2.048,2.068 -3.669,2.068 -1.195,0 -2.134,-0.336 -2.82,-1.013 -0.685,-0.678 -1.026,-1.585 -1.026,-2.713 0,-2.389 1.416,-3.768 4.244,-4.138l3.345 -0.443c0,-1.346 -0.731,-2.019 -2.192,-2.019 -1.465,0 -2.861,0.435 -4.182,1.309l0 -2.861c0.529,-0.275 1.252,-0.513 2.171,-0.722 0.915,-0.209 1.753,-0.312 2.508,-0.312 3.509,0 5.266,1.753 5.266,5.253l0 7.36zm-3.571 -5.004l0 -0.829 -2.237 0.288c-1.235,0.16 -1.851,0.718 -1.851,1.674 0,0.431 0.148,0.788 0.447,1.063 0.304,0.275 0.71,0.415 1.223,0.415 0.715,0 1.293,-0.246 1.745,-0.739 0.447,-0.492 0.673,-1.116 0.673,-1.872z"/>
  <path id="_17_43" class="fil1" d="M355.814 24.402l-8.032 0c0.127,1.785 1.256,2.68 3.378,2.68 1.354,0 2.544,-0.32 3.57,-0.96l0 2.741c-1.137,0.608 -2.614,0.911 -4.437,0.911 -1.986,0 -3.529,-0.55 -4.629,-1.654 -1.096,-1.1 -1.646,-2.639 -1.646,-4.609 0,-2.044 0.591,-3.665 1.781,-4.86 1.186,-1.194 2.643,-1.789 4.375,-1.789 1.794,0 3.185,0.534 4.166,1.597 0.981,1.067 1.474,2.516 1.474,4.342l0 1.601zm-3.522 -2.336c0,-1.76 -0.714,-2.643 -2.142,-2.643 -0.608,0 -1.137,0.25 -1.58,0.755 -0.448,0.505 -0.714,1.137 -0.813,1.888l4.535 0z"/>
  <path class="fil1" d="M102.088 39.275c-0.548,0 -0.996,-0.161 -1.343,-0.487 -0.351,-0.327 -0.527,-0.723 -0.527,-1.196 0,-0.488 0.176,-0.884 0.527,-1.193 0.347,-0.308 0.795,-0.462 1.343,-0.462 0.557,0 1.006,0.154 1.353,0.462 0.344,0.309 0.519,0.705 0.519,1.193 0,0.491 -0.175,0.897 -0.519,1.213 -0.347,0.312 -0.796,0.47 -1.353,0.47zm1.602 12.185l-3.243 0 0 -10.519 3.243 0 0 10.519z"/>
  <path id="_1_44" class="fil1" d="M116.584 51.46l-3.237 0 0 -5.845c0,-1.631 -0.582,-2.444 -1.746,-2.444 -0.561,0 -1.024,0.214 -1.385,0.645 -0.365,0.431 -0.547,0.982 -0.547,1.645l0 5.999 -3.244 0 0 -10.519 3.244 0 0 1.665 0.042 0c0.775,-1.283 1.9,-1.921 3.38,-1.921 2.329,0 3.493,1.444 3.493,4.334l0 6.441z"/>
  <path id="_2_45" class="fil1" d="M129.169 40.941l-3.913 10.519 -3.7 0 -3.727 -10.519 3.471 0 1.827 6.483c0.207,0.733 0.326,1.354 0.362,1.869l0.042 0c0.045,-0.487 0.175,-1.09 0.378,-1.809l1.869 -6.543 3.391 0z"/>
  <path id="_3_46" class="fil1" d="M139.801 47.126l-6.862 0c0.109,1.526 1.073,2.29 2.886,2.29 1.157,0 2.174,-0.273 3.051,-0.821l0 2.343c-0.972,0.519 -2.234,0.778 -3.791,0.778 -1.697,0 -3.016,-0.47 -3.956,-1.413 -0.936,-0.939 -1.406,-2.255 -1.406,-3.938 0,-1.746 0.505,-3.131 1.522,-4.151 1.014,-1.021 2.259,-1.529 3.738,-1.529 1.533,0 2.721,0.455 3.559,1.364 0.839,0.911 1.259,2.149 1.259,3.71l0 1.367zm-3.008 -1.995c0,-1.504 -0.61,-2.258 -1.831,-2.258 -0.519,0 -0.971,0.214 -1.35,0.645 -0.382,0.431 -0.61,0.971 -0.694,1.613l3.875 0z"/>
  <path id="_4_47" class="fil1" d="M141.043 51.184l0 -2.631c0.536,0.323 1.069,0.562 1.599,0.719 0.529,0.158 1.031,0.235 1.504,0.235 0.575,0 1.031,-0.077 1.361,-0.235 0.333,-0.157 0.498,-0.396 0.498,-0.719 0,-0.206 -0.074,-0.378 -0.225,-0.515 -0.151,-0.137 -0.344,-0.256 -0.582,-0.358 -0.235,-0.101 -0.495,-0.196 -0.775,-0.277 -0.281,-0.084 -0.551,-0.175 -0.81,-0.277 -0.417,-0.157 -0.786,-0.329 -1.105,-0.508 -0.319,-0.183 -0.585,-0.393 -0.803,-0.635 -0.214,-0.238 -0.378,-0.515 -0.49,-0.831 -0.113,-0.315 -0.172,-0.687 -0.172,-1.118 0,-0.59 0.129,-1.098 0.385,-1.522 0.256,-0.425 0.6,-0.772 1.028,-1.042 0.428,-0.27 0.919,-0.47 1.469,-0.596 0.551,-0.126 1.126,-0.189 1.722,-0.189 0.466,0 0.936,0.035 1.417,0.108 0.48,0.071 0.953,0.176 1.42,0.312l0 2.508c-0.414,-0.242 -0.852,-0.421 -1.322,-0.54 -0.47,-0.12 -0.929,-0.179 -1.382,-0.179 -0.214,0 -0.414,0.017 -0.6,0.056 -0.189,0.035 -0.357,0.091 -0.501,0.165 -0.144,0.07 -0.256,0.161 -0.337,0.277 -0.084,0.112 -0.122,0.242 -0.122,0.385 0,0.19 0.059,0.355 0.182,0.491 0.126,0.137 0.284,0.256 0.484,0.355 0.2,0.101 0.421,0.189 0.663,0.266 0.241,0.081 0.484,0.161 0.726,0.242 0.431,0.151 0.82,0.316 1.171,0.495 0.347,0.178 0.649,0.385 0.897,0.627 0.249,0.239 0.442,0.519 0.575,0.842 0.134,0.322 0.2,0.705 0.2,1.15 0,0.624 -0.133,1.157 -0.406,1.599 -0.271,0.442 -0.628,0.799 -1.077,1.076 -0.449,0.278 -0.968,0.481 -1.553,0.607 -0.586,0.126 -1.193,0.189 -1.824,0.189 -1.157,0 -2.226,-0.178 -3.215,-0.532z"/>
  <path id="_5_48" class="fil1" d="M157.348 51.338c-0.48,0.252 -1.202,0.378 -2.167,0.378 -2.286,0 -3.433,-1.188 -3.433,-3.562l0 -4.818 -1.704 0 0 -2.395 1.704 0 0 -2.269 3.237 -0.926 0 3.195 2.363 0 0 2.395 -2.363 0 0 4.253c0,1.094 0.435,1.641 1.304,1.641 0.344,0 0.698,-0.098 1.059,-0.298l0 2.406z"/>
  <path id="_6_49" class="fil1" d="M160.82 39.275c-0.547,0 -0.996,-0.161 -1.343,-0.487 -0.351,-0.327 -0.526,-0.723 -0.526,-1.196 0,-0.488 0.175,-0.884 0.526,-1.193 0.347,-0.308 0.796,-0.462 1.343,-0.462 0.558,0 1.006,0.154 1.353,0.462 0.344,0.309 0.519,0.705 0.519,1.193 0,0.491 -0.175,0.897 -0.519,1.213 -0.347,0.312 -0.795,0.47 -1.353,0.47zm1.603 12.185l-3.244 0 0 -10.519 3.244 0 0 10.519z"/>
  <path id="_7_50" class="fil1" d="M175.47 50.258c0,1.953 -0.564,3.464 -1.693,4.537 -1.133,1.07 -2.767,1.606 -4.913,1.606 -1.417,0 -2.539,-0.199 -3.37,-0.606l0 -2.732c1.084,0.631 2.174,0.947 3.279,0.947 1.094,0 1.946,-0.291 2.546,-0.87 0.603,-0.578 0.904,-1.364 0.904,-2.356l0 -0.835 -0.038 0c-0.74,1.178 -1.834,1.767 -3.279,1.767 -1.343,0 -2.405,-0.473 -3.194,-1.416 -0.789,-0.947 -1.182,-2.213 -1.182,-3.801 0,-1.782 0.438,-3.195 1.315,-4.243 0.877,-1.049 2.03,-1.571 3.461,-1.571 1.28,0 2.241,0.491 2.879,1.479l0.038 0 0 -1.223 3.247 0 0 9.317zm-3.205 -3.851l0 -0.834c0,-0.663 -0.196,-1.231 -0.589,-1.701 -0.396,-0.466 -0.908,-0.701 -1.536,-0.701 -0.722,0 -1.286,0.28 -1.697,0.841 -0.41,0.561 -0.617,1.354 -0.617,2.374 0,0.877 0.196,1.568 0.586,2.08 0.393,0.512 0.925,0.764 1.602,0.764 0.673,0 1.217,-0.256 1.631,-0.775 0.414,-0.515 0.62,-1.199 0.62,-2.048z"/>
  <path id="_8_51" class="fil1" d="M186.937 51.46l-3.072 0 0 -1.511 -0.042 0c-0.705,1.178 -1.75,1.767 -3.135,1.767 -1.02,0 -1.823,-0.287 -2.409,-0.866 -0.585,-0.578 -0.876,-1.353 -0.876,-2.317 0,-2.041 1.209,-3.22 3.626,-3.535l2.857 -0.379c0,-1.15 -0.624,-1.725 -1.872,-1.725 -1.252,0 -2.444,0.371 -3.573,1.118l0 -2.444c0.452,-0.235 1.069,-0.438 1.855,-0.617 0.781,-0.179 1.497,-0.266 2.142,-0.266 2.998,0 4.499,1.497 4.499,4.488l0 6.287zm-3.051 -4.274l0 -0.708 -1.911 0.245c-1.055,0.137 -1.581,0.614 -1.581,1.431 0,0.368 0.126,0.673 0.382,0.908 0.259,0.235 0.607,0.354 1.045,0.354 0.61,0 1.104,-0.21 1.49,-0.631 0.383,-0.421 0.575,-0.954 0.575,-1.599z"/>
  <path id="_9_52" class="fil1" d="M197.478 51.082c-0.733,0.424 -1.792,0.634 -3.173,0.634 -1.617,0 -2.925,-0.487 -3.924,-1.469 -1,-0.978 -1.501,-2.241 -1.501,-3.79 0,-1.789 0.536,-3.195 1.606,-4.226 1.073,-1.031 2.507,-1.546 4.302,-1.546 1.238,0 2.136,0.164 2.69,0.491l0 2.756c-0.677,-0.509 -1.434,-0.761 -2.269,-0.761 -0.932,0 -1.669,0.27 -2.216,0.817 -0.543,0.543 -0.817,1.294 -0.817,2.255 0,0.929 0.263,1.662 0.782,2.191 0.519,0.533 1.238,0.796 2.146,0.796 0.81,0 1.599,-0.252 2.374,-0.761l0 2.613z"/>
  <path id="_10_53" class="fil1" d="M201.248 39.275c-0.547,0 -0.996,-0.161 -1.343,-0.487 -0.351,-0.327 -0.526,-0.723 -0.526,-1.196 0,-0.488 0.175,-0.884 0.526,-1.193 0.347,-0.308 0.796,-0.462 1.343,-0.462 0.557,0 1.006,0.154 1.353,0.462 0.344,0.309 0.519,0.705 0.519,1.193 0,0.491 -0.175,0.897 -0.519,1.213 -0.347,0.312 -0.796,0.47 -1.353,0.47zm1.602 12.185l-3.243 0 0 -10.519 3.243 0 0 10.519z"/>
  <path id="_11_54" class="fil1" d="M210.596 51.716c-1.753,0 -3.131,-0.49 -4.134,-1.472 -1.003,-0.982 -1.504,-2.318 -1.504,-4.001 0,-1.74 0.519,-3.104 1.56,-4.086 1.041,-0.981 2.451,-1.472 4.222,-1.472 1.746,0 3.117,0.491 4.11,1.472 0.992,0.982 1.49,2.283 1.49,3.9 0,1.746 -0.512,3.128 -1.536,4.141 -1.024,1.014 -2.426,1.518 -4.208,1.518zm0.084 -8.545c-0.768,0 -1.364,0.263 -1.788,0.789 -0.424,0.529 -0.638,1.276 -0.638,2.24 0,2.02 0.817,3.03 2.447,3.03 1.554,0 2.332,-1.038 2.332,-3.11 0,-1.967 -0.785,-2.949 -2.353,-2.949zm3.49 -7.213l-3.216 3.317 -2.342 0 2.671 -3.317 2.887 0z"/>
  <path id="_12_55" class="fil1" d="M228.596 51.46l-3.237 0 0 -5.845c0,-1.631 -0.582,-2.444 -1.746,-2.444 -0.561,0 -1.024,0.214 -1.385,0.645 -0.365,0.431 -0.547,0.982 -0.547,1.645l0 5.999 -3.244 0 0 -10.519 3.244 0 0 1.665 0.042 0c0.775,-1.283 1.9,-1.921 3.38,-1.921 2.329,0 3.493,1.444 3.493,4.334l0 6.441z"/>
  <path id="_13_56" class="fil1" d="M244.94 51.082c-0.733,0.424 -1.792,0.634 -3.173,0.634 -1.617,0 -2.925,-0.487 -3.924,-1.469 -1,-0.978 -1.501,-2.241 -1.501,-3.79 0,-1.789 0.536,-3.195 1.606,-4.226 1.073,-1.031 2.507,-1.546 4.303,-1.546 1.238,0 2.135,0.164 2.689,0.491l0 2.756c-0.676,-0.509 -1.434,-0.761 -2.269,-0.761 -0.932,0 -1.669,0.27 -2.216,0.817 -0.543,0.543 -0.817,1.294 -0.817,2.255 0,0.929 0.263,1.662 0.782,2.191 0.519,0.533 1.238,0.796 2.146,0.796 0.81,0 1.599,-0.252 2.374,-0.761l0 2.613z"/>
  <path id="_14_57" class="fil1" d="M252.08 51.716c-1.753,0 -3.132,-0.49 -4.134,-1.472 -1.003,-0.982 -1.505,-2.318 -1.505,-4.001 0,-1.74 0.519,-3.104 1.561,-4.086 1.041,-0.981 2.451,-1.472 4.222,-1.472 1.746,0 3.117,0.491 4.109,1.472 0.993,0.982 1.491,2.283 1.491,3.9 0,1.746 -0.512,3.128 -1.536,4.141 -1.024,1.014 -2.427,1.518 -4.208,1.518zm0.084 -8.545c-0.768,0 -1.364,0.263 -1.788,0.789 -0.425,0.529 -0.639,1.276 -0.639,2.24 0,2.02 0.817,3.03 2.448,3.03 1.554,0 2.332,-1.038 2.332,-3.11 0,-1.967 -0.786,-2.949 -2.353,-2.949z"/>
  <polygon id="_15_58" class="fil1" points="263.175,51.46 259.931,51.46 259.931,35.888 263.175,35.888 "/>
  <path id="_16_59" class="fil1" d="M274.663 51.46l-3.072 0 0 -1.511 -0.042 0c-0.705,1.178 -1.75,1.767 -3.135,1.767 -1.021,0 -1.824,-0.287 -2.409,-0.866 -0.586,-0.578 -0.877,-1.353 -0.877,-2.317 0,-2.041 1.21,-3.22 3.626,-3.535l2.858 -0.379c0,-1.15 -0.625,-1.725 -1.873,-1.725 -1.252,0 -2.444,0.371 -3.573,1.118l0 -2.444c0.452,-0.235 1.069,-0.438 1.855,-0.617 0.782,-0.179 1.497,-0.266 2.143,-0.266 2.998,0 4.499,1.497 4.499,4.488l0 6.287zm-3.051 -4.274l0 -0.708 -1.911 0.245c-1.056,0.137 -1.582,0.614 -1.582,1.431 0,0.368 0.126,0.673 0.382,0.908 0.26,0.235 0.607,0.354 1.045,0.354 0.61,0 1.105,-0.21 1.491,-0.631 0.382,-0.421 0.575,-0.954 0.575,-1.599z"/>
  <path id="_17_60" class="fil1" d="M280.519 50.237l-0.042 0 0 1.223 -3.244 0 0 -15.572 3.244 0 0 6.634 0.042 0c0.803,-1.224 1.942,-1.837 3.422,-1.837 1.354,0 2.399,0.466 3.132,1.395 0.732,0.933 1.101,2.206 1.101,3.822 0,1.754 -0.428,3.16 -1.284,4.223 -0.859,1.062 -2.002,1.591 -3.433,1.591 -1.294,0 -2.272,-0.49 -2.938,-1.479zm-0.092 -4.436l0 1.076c0,0.681 0.193,1.242 0.586,1.687 0.389,0.445 0.891,0.666 1.501,0.666 0.736,0 1.311,-0.284 1.718,-0.855 0.407,-0.572 0.614,-1.382 0.614,-2.431 0,-0.869 -0.19,-1.549 -0.561,-2.04 -0.376,-0.488 -0.905,-0.733 -1.599,-0.733 -0.649,0 -1.189,0.242 -1.617,0.729 -0.428,0.484 -0.642,1.119 -0.642,1.901z"/>
  <path id="_18_61" class="fil1" d="M295.292 51.716c-1.753,0 -3.131,-0.49 -4.134,-1.472 -1.003,-0.982 -1.505,-2.318 -1.505,-4.001 0,-1.74 0.519,-3.104 1.561,-4.086 1.041,-0.981 2.451,-1.472 4.222,-1.472 1.746,0 3.117,0.491 4.109,1.472 0.993,0.982 1.491,2.283 1.491,3.9 0,1.746 -0.512,3.128 -1.536,4.141 -1.024,1.014 -2.427,1.518 -4.208,1.518zm0.084 -8.545c-0.768,0 -1.364,0.263 -1.788,0.789 -0.424,0.529 -0.638,1.276 -0.638,2.24 0,2.02 0.817,3.03 2.447,3.03 1.554,0 2.332,-1.038 2.332,-3.11 0,-1.967 -0.785,-2.949 -2.353,-2.949z"/>
  <path id="_19_62" class="fil1" d="M310.006 43.869c-0.393,-0.214 -0.849,-0.32 -1.368,-0.32 -0.705,0 -1.255,0.26 -1.655,0.775 -0.396,0.519 -0.596,1.221 -0.596,2.111l0 5.025 -3.244 0 0 -10.519 3.244 0 0 1.953 0.042 0c0.516,-1.427 1.438,-2.139 2.774,-2.139 0.344,0 0.61,0.042 0.803,0.123l0 2.991z"/>
  <path id="_20_63" class="fil1" d="M320.27 51.46l-3.072 0 0 -1.511 -0.042 0c-0.705,1.178 -1.75,1.767 -3.135,1.767 -1.02,0 -1.823,-0.287 -2.409,-0.866 -0.586,-0.578 -0.877,-1.353 -0.877,-2.317 0,-2.041 1.21,-3.22 3.626,-3.535l2.858 -0.379c0,-1.15 -0.624,-1.725 -1.872,-1.725 -1.252,0 -2.445,0.371 -3.574,1.118l0 -2.444c0.453,-0.235 1.07,-0.438 1.855,-0.617 0.782,-0.179 1.498,-0.266 2.143,-0.266 2.998,0 4.499,1.497 4.499,4.488l0 6.287zm-3.051 -4.274l0 -0.708 -1.911 0.245c-1.056,0.137 -1.581,0.614 -1.581,1.431 0,0.368 0.126,0.673 0.382,0.908 0.259,0.235 0.606,0.354 1.045,0.354 0.61,0 1.104,-0.21 1.49,-0.631 0.382,-0.421 0.575,-0.954 0.575,-1.599z"/>
  <path id="_21_64" class="fil1" d="M329.198 51.338c-0.481,0.252 -1.203,0.378 -2.167,0.378 -2.287,0 -3.433,-1.188 -3.433,-3.562l0 -4.818 -1.704 0 0 -2.395 1.704 0 0 -2.269 3.236 -0.926 0 3.195 2.364 0 0 2.395 -2.364 0 0 4.253c0,1.094 0.435,1.641 1.305,1.641 0.343,0 0.697,-0.098 1.059,-0.298l0 2.406z"/>
  <path id="_22_65" class="fil1" d="M332.669 39.275c-0.547,0 -0.996,-0.161 -1.343,-0.487 -0.35,-0.327 -0.526,-0.723 -0.526,-1.196 0,-0.488 0.176,-0.884 0.526,-1.193 0.347,-0.308 0.796,-0.462 1.343,-0.462 0.558,0 1.007,0.154 1.354,0.462 0.344,0.309 0.519,0.705 0.519,1.193 0,0.491 -0.175,0.897 -0.519,1.213 -0.347,0.312 -0.796,0.47 -1.354,0.47zm1.603 12.185l-3.244 0 0 -10.519 3.244 0 0 10.519z"/>
  <path id="_23_66" class="fil1" d="M347.022 40.941l-3.913 10.519 -3.7 0 -3.728 -10.519 3.472 0 1.827 6.483c0.207,0.733 0.326,1.354 0.361,1.869l0.042 0c0.046,-0.487 0.176,-1.09 0.379,-1.809l1.869 -6.543 3.391 0z"/>
  <path id="_24_67" class="fil1" d="M356.844 51.46l-3.072 0 0 -1.511 -0.042 0c-0.705,1.178 -1.75,1.767 -3.135,1.767 -1.021,0 -1.824,-0.287 -2.409,-0.866 -0.586,-0.578 -0.877,-1.353 -0.877,-2.317 0,-2.041 1.21,-3.22 3.626,-3.535l2.858 -0.379c0,-1.15 -0.624,-1.725 -1.872,-1.725 -1.252,0 -2.445,0.371 -3.574,1.118l0 -2.444c0.453,-0.235 1.07,-0.438 1.855,-0.617 0.782,-0.179 1.498,-0.266 2.143,-0.266 2.998,0 4.499,1.497 4.499,4.488l0 6.287zm-3.051 -4.274l0 -0.708 -1.911 0.245c-1.056,0.137 -1.581,0.614 -1.581,1.431 0,0.368 0.126,0.673 0.382,0.908 0.259,0.235 0.606,0.354 1.045,0.354 0.61,0 1.104,-0.21 1.49,-0.631 0.382,-0.421 0.575,-0.954 0.575,-1.599z"/>
  <path class="fil1" d="M188.147 83.634c-1.23,0.712 -3.008,1.065 -5.327,1.065 -2.714,0 -4.91,-0.818 -6.587,-2.466 -1.678,-1.642 -2.519,-3.761 -2.519,-6.363 0,-3.002 0.9,-5.363 2.696,-7.093 1.801,-1.731 4.208,-2.596 7.222,-2.596 2.078,0 3.585,0.277 4.515,0.824l0 4.627c-1.136,-0.854 -2.408,-1.278 -3.809,-1.278 -1.565,0 -2.802,0.454 -3.72,1.372 -0.912,0.912 -1.371,2.172 -1.371,3.785 0,1.56 0.441,2.79 1.312,3.679 0.872,0.894 2.078,1.336 3.603,1.336 1.36,0 2.684,-0.424 3.985,-1.277l0 4.385z"/>
  <path id="_1_68" class="fil1" d="M200.131 84.699c-2.943,0 -5.256,-0.824 -6.94,-2.472 -1.683,-1.648 -2.525,-3.891 -2.525,-6.716 0,-2.92 0.871,-5.21 2.62,-6.858 1.748,-1.648 4.114,-2.472 7.087,-2.472 2.931,0 5.233,0.824 6.899,2.472 1.665,1.648 2.501,3.832 2.501,6.546 0,2.931 -0.859,5.25 -2.578,6.952 -1.719,1.701 -4.073,2.548 -7.064,2.548zm0.142 -14.345c-1.289,0 -2.29,0.442 -3.002,1.325 -0.713,0.888 -1.071,2.142 -1.071,3.761 0,3.391 1.371,5.086 4.108,5.086 2.608,0 3.915,-1.743 3.915,-5.221 0,-3.303 -1.319,-4.951 -3.95,-4.951z"/>
  <path id="_2_69" class="fil1" d="M230.364 84.27l-5.434 0 0 -9.813c0,-2.737 -0.977,-4.103 -2.931,-4.103 -0.942,0 -1.719,0.359 -2.325,1.083 -0.612,0.724 -0.918,1.648 -0.918,2.761l0 10.072 -5.445 0 0 -17.659 5.445 0 0 2.795 0.07 0c1.301,-2.154 3.191,-3.225 5.675,-3.225 3.908,0 5.863,2.425 5.863,7.275l0 10.814z"/>
  <path id="_3_70" class="fil1" d="M265.252 82.616c-2.414,1.389 -5.416,2.083 -9.006,2.083 -3.974,0 -7.111,-1.1 -9.407,-3.302 -2.289,-2.201 -3.437,-5.233 -3.437,-9.094 0,-3.885 1.254,-7.052 3.761,-9.501 2.502,-2.454 5.839,-3.679 10.001,-3.679 2.619,0 4.933,0.365 6.928,1.089l0 5.227c-1.907,-1.107 -4.238,-1.654 -6.999,-1.654 -2.313,0 -4.191,0.748 -5.645,2.249 -1.459,1.501 -2.183,3.502 -2.183,6.01 0,2.537 0.653,4.503 1.954,5.898 1.306,1.389 3.067,2.083 5.286,2.083 1.336,0 2.396,-0.188 3.173,-0.565l0 -4.832 -4.945 0 0 -4.45 10.519 0 0 12.438z"/>
  <path id="_4_71" class="fil1" d="M272.286 63.815c-0.918,0 -1.672,-0.271 -2.255,-0.819 -0.588,-0.547 -0.883,-1.212 -0.883,-2.007 0,-0.818 0.295,-1.483 0.883,-2.001 0.583,-0.518 1.337,-0.777 2.255,-0.777 0.936,0 1.689,0.259 2.272,0.777 0.577,0.518 0.871,1.183 0.871,2.001 0,0.824 -0.294,1.507 -0.871,2.037 -0.583,0.524 -1.336,0.789 -2.272,0.789zm2.69 20.455l-5.445 0 0 -17.659 5.445 0 0 17.659z"/>
  <path id="_5_72" class="fil1" d="M290.239 84.064c-0.806,0.423 -2.019,0.635 -3.638,0.635 -3.838,0 -5.762,-1.995 -5.762,-5.98l0 -8.088 -2.861 0 0 -4.02 2.861 0 0 -3.809 5.433 -1.554 0 5.363 3.967 0 0 4.02 -3.967 0 0 7.14c0,1.836 0.73,2.755 2.19,2.755 0.576,0 1.171,-0.165 1.777,-0.501l0 4.039z"/>
  <polygon id="_6_73" class="fil1" points="315.244,84.27 309.658,84.27 309.658,74.198 299.416,74.198 299.416,84.27 293.842,84.27 293.842,59.541 299.416,59.541 299.416,69.406 309.658,69.406 309.658,59.541 315.244,59.541 "/>
  <path id="_7_74" class="fil1" d="M337.147 84.27l-5.433 0 0 -2.691 -0.082 0c-1.348,2.078 -3.143,3.12 -5.398,3.12 -4.097,0 -6.139,-2.478 -6.139,-7.434l0 -10.654 5.433 0 0 10.171c0,2.496 0.989,3.744 2.966,3.744 0.978,0 1.754,-0.341 2.343,-1.024 0.589,-0.683 0.877,-1.613 0.877,-2.785l0 -10.106 5.433 0 0 17.659z"/>
  <path id="_8_75" class="fil1" d="M347.254 82.215l-0.07 0 0 2.055 -5.445 0 0 -26.142 5.445 0 0 11.137 0.07 0c1.348,-2.054 3.261,-3.084 5.745,-3.084 2.272,0 4.027,0.783 5.257,2.343 1.23,1.565 1.848,3.702 1.848,6.416 0,2.943 -0.718,5.303 -2.154,7.087 -1.443,1.783 -3.361,2.672 -5.763,2.672 -2.172,0 -3.814,-0.824 -4.933,-2.484zm-0.153 -7.446l0 1.807c0,1.142 0.324,2.084 0.983,2.831 0.653,0.748 1.495,1.119 2.519,1.119 1.237,0 2.202,-0.477 2.885,-1.437 0.683,-0.959 1.03,-2.319 1.03,-4.079 0,-1.46 -0.318,-2.601 -0.942,-3.426 -0.63,-0.818 -1.519,-1.23 -2.684,-1.23 -1.089,0 -1.996,0.406 -2.714,1.225 -0.718,0.812 -1.077,1.877 -1.077,3.19z"/>
 </g>
</svg>
