<?xml version="1.0" encoding="UTF-8"?>
<!DOCTYPE svg PUBLIC "-//W3C//DTD SVG 1.1//EN" "http://www.w3.org/Graphics/SVG/1.1/DTD/svg11.dtd">
<!-- Creator: CorelDRAW 2021 (64-Bit) -->
<svg xmlns="http://www.w3.org/2000/svg" xml:space="preserve" width="153.573mm" height="20.55mm" version="1.1" style="shape-rendering:geometricPrecision; text-rendering:geometricPrecision; image-rendering:optimizeQuality; fill-rule:evenodd; clip-rule:evenodd"
viewBox="0 0 28488.68 3812.15"
 xmlns:xlink="http://www.w3.org/1999/xlink"
 xmlns:xodm="http://www.corel.com/coreldraw/odm/2003">
 <defs>
  <style type="text/css">
   <![CDATA[
    .str0 {stroke:black;stroke-width:278.26;stroke-miterlimit:22.9256}
    .fil0 {fill:white}
    .fil1 {fill:black;fill-rule:nonzero}
   ]]>
  </style>
 </defs>
 <g id="Capa_x0020_1">
  <metadata id="CorelCorpID_0Corel-Layer"/>
  <rect class="fil0 str0" transform="matrix(0.944138 -0 -0.262799 0.85299 994.114 139.129)" width="29221.59" height="4142.94" rx="1046.55" ry="1046.55"/>
  <path class="fil1" d="M2540.21 2609.92l-244.05 -465.32c-24.32,-46.34 -47.49,-84.55 -70.29,-115.46 -22.39,-31.28 -45.95,-55.99 -69.88,-74.52 -23.95,-18.16 -49.83,-31.67 -77.24,-39.4 -27.79,-8.11 -58.3,-11.97 -92.29,-11.97l-178.4 0 0 706.67 -150.59 0 0 -1621.86 466.86 0c61.01,0 120.1,8.89 177.23,27.05 56.76,18.14 107.35,44.78 151.76,80.31 44.41,35.52 80.32,79.93 106.96,133.23 26.66,53.67 40.16,115.85 40.16,186.51 0,57.15 -8.5,110.06 -25.86,158.33 -17.38,47.88 -42.09,90.75 -74.15,128.2 -32.06,37.06 -70.68,68.73 -116.24,94.61 -45.95,26.25 -97.32,45.56 -154.45,58.3l0 4.64c22,8.89 41.7,20.85 59.84,35.13 18.14,14.3 35.52,31.67 52.52,52.15 16.99,20.07 33.6,43.63 50.2,69.88 16.6,26.66 33.98,56.76 51.76,90.75l272.23 502.78 -176.08 0zm-732.15 -1482.84l0 639.48 268.76 0c54.45,0 103.88,-7.72 149.05,-23.56 45.19,-15.82 83.81,-38.6 115.85,-67.95 32.06,-28.98 56.76,-64.5 74.54,-105.81 17.75,-41.31 26.64,-88.04 26.64,-139.8 0,-94.22 -30.13,-167.98 -90.75,-221.64 -60.62,-53.69 -148.27,-80.71 -262.97,-80.71l-281.12 0z"/>
  <path id="_1" class="fil1" d="M3037.2 2633.09c-30.13,0 -55.99,-10.43 -76.84,-31.67 -21.24,-20.85 -31.67,-46.73 -31.67,-76.84 0,-30.52 10.43,-56.76 30.89,-77.62 20.85,-21.24 46.73,-31.67 77.62,-31.67 15.06,0 28.96,2.69 42.09,8.5 13.13,5.79 24.71,13.12 34.37,22.39 10.04,9.65 17.75,20.85 23.93,34.37 5.79,13.89 8.89,28.57 8.89,44.02 0,15.04 -3.1,29.35 -8.89,42.46 -6.18,13.13 -13.89,24.73 -23.93,34.37 -9.66,9.65 -21.24,17.38 -34.37,23.17 -13.13,5.79 -27.03,8.5 -42.09,8.5z"/>
  <polygon id="_2" class="fil1" points="3964.71,1127.08 3964.71,2609.92 3814.11,2609.92 3814.11,1127.08 3346.12,1127.08 3346.12,988.06 4432.74,988.06 4432.74,1127.08 "/>
  <path id="_3" class="fil1" d="M4505.72 2056.17c0.76,71.07 10.04,134.77 28.18,191.53 18.16,56.38 44.02,104.66 78.01,143.66 33.98,39.38 75.3,69.51 123.96,89.97 48.66,20.85 103.49,31.28 164.51,31.28 130.52,0 253.7,-45.56 369.94,-137.09l0 143.27c-110.82,79.17 -245.2,118.95 -402.75,118.95 -77.62,0 -148.29,-13.52 -211.63,-40.94 -63.33,-27.03 -117,-66.41 -161.8,-118.17 -44.41,-51.74 -78.77,-115.46 -102.71,-190.76 -24.32,-75.69 -36.3,-161.8 -36.3,-258.34 0,-86.89 13.13,-167.2 39.4,-241.34 26.64,-73.76 62.94,-137.87 109.67,-191.92 47.1,-54.06 102.33,-96.15 166.42,-126.66 64.11,-30.5 134.01,-45.95 210.07,-45.95 74.93,0 140.58,13.13 198.1,39.01 57.15,26.25 105.42,63.33 144.05,111.6 38.99,48.27 68.34,106.96 88.8,176.47 20.48,69.51 30.52,147.12 30.52,232.85l0 72.59 -836.41 0zm688.12 -127.42c-2.3,-120.49 -30.89,-213.93 -86.11,-280.36 -55.21,-66.41 -132.06,-99.62 -230.14,-99.62 -49.05,0 -94.61,8.5 -136.7,25.86 -41.7,17.38 -78.78,42.48 -110.45,75.32 -31.65,32.82 -57.91,72.98 -78.77,120.08 -20.85,47.12 -35.13,100.02 -43.63,158.72l685.8 0z"/>
  <path id="_4" class="fil1" d="M6295.9 2609.92l0 -206.21 -4.62 0c-37.47,74.15 -89.21,131.67 -154.45,172.61 -65.26,40.94 -139.02,61.4 -221.27,61.4 -55.99,0 -106.18,-8.11 -150.98,-23.95 -45.17,-15.82 -83.01,-38.23 -114.31,-67.19 -31.65,-29.35 -55.6,-64.09 -72.59,-105.03 -16.99,-40.92 -25.49,-85.72 -25.49,-135.16 0,-105.03 32.44,-188.83 97.32,-250.99 64.87,-62.55 162.95,-103.1 294.25,-122.03l352.15 -50.98c0,-222.42 -86.48,-333.63 -259.86,-333.63 -135.55,0 -261.43,49.42 -377.28,148.27l0 -158.33c24.34,-16.97 51.76,-32.82 82.25,-46.71 30.91,-13.91 63.33,-25.88 97.32,-36.3 33.98,-10.04 69.12,-17.77 105.03,-23.56 36.3,-5.79 71.05,-8.5 105.42,-8.5 129.35,0 227.43,36.3 293.45,108.52 66.43,72.59 99.64,180.33 99.64,323.99l0 753.77 -145.97 0zm-299.24 -562.62c-52.52,7.33 -96.93,16.6 -134.01,28.18 -37.06,11.2 -67.56,26.66 -91.9,45.95 -24.32,19.31 -42.09,42.87 -53.3,71.07 -11.19,28.57 -16.97,63.31 -16.97,105.03 0,30.89 5.4,59.45 16.6,86.11 10.81,26.25 26.64,49.03 47.49,68.34 20.85,19.31 45.95,34.37 76.08,44.8 29.74,10.43 63.72,15.82 101.56,15.82 51.35,0 98.47,-9.65 141.71,-29.35 42.87,-19.68 80.32,-47.1 111.6,-81.47 31.26,-34.75 55.97,-76.47 73.74,-124.73 17.77,-48.27 26.64,-100.79 26.64,-157.55l0 -114.29 -299.24 42.09z"/>
  <path id="_5" class="fil1" d="M7559.79 2557.4c-86.11,52.13 -189.98,78.78 -312.39,80.32 -83.03,0.76 -157.94,-13.52 -224.35,-42.87 -66.43,-29.74 -122.8,-70.66 -169.92,-122.79 -46.71,-52.52 -82.62,-114.31 -107.35,-185.75 -25.1,-71.05 -37.45,-148.66 -37.45,-232.48 0,-86.87 13.13,-168.35 39.77,-244.81 26.27,-76.86 64.89,-143.27 115.46,-200.42 50.59,-56.76 112.38,-101.94 185.75,-135.14 72.98,-33.22 156.79,-49.83 251.4,-49.83 95.76,0 183.41,18.53 262.58,55.61l0 153.69c-84.57,-56 -176.1,-84.18 -274.57,-84.18 -68.73,0 -130.13,13.12 -183.8,38.99 -53.69,26.27 -98.86,61.79 -135.55,106.57 -36.67,44.8 -64.48,97.32 -83.79,157.57 -19.31,59.84 -28.96,123.57 -28.96,190.76 0,61.77 8.11,121.25 24.32,177.62 16.21,56.76 41.33,106.59 74.93,150.22 33.6,43.24 76.06,78.01 127.42,103.49 51.74,25.86 111.99,38.6 181.87,38.6 108.91,0 206.99,-32.43 294.64,-97.69l0 142.49z"/>
  <path id="_6" class="fil1" d="M8619.01 2609.92l0 -681.96c0,-129.74 -23.17,-225.5 -69.88,-286.9 -46.73,-61.4 -119.34,-92.29 -217.8,-92.29 -46.34,0 -90.75,9.26 -132.84,28.18 -42.09,18.92 -79.16,46.34 -110.43,81.49 -31.67,35.52 -56.76,78.77 -75.69,129.74 -18.92,50.98 -28.2,108.5 -28.2,173l0 648.73 -145.96 0 0 -1714.54 145.96 0 0 755.71 4.64 0c90.36,-151.76 219.73,-227.45 388.47,-227.45 128.98,0 225.91,39.77 290.39,118.95 64.87,79.16 97.32,196.15 97.32,350.62l0 716.7 -145.97 0z"/>
  <path id="_7" class="fil1" d="M9185.12 1159.52c-28.2,0 -52.15,-9.66 -72.61,-29.35 -20.85,-19.7 -30.89,-44.8 -30.89,-74.93 0,-29.35 10.04,-53.67 30.89,-72.98 20.46,-19.31 44.41,-28.96 72.61,-28.96 14.28,0 28.18,2.32 40.92,7.33 13.13,5.03 23.95,11.98 33.6,20.87 9.66,9.26 16.99,20.07 22.78,32.43 5.81,12.35 8.5,26.27 8.5,41.31 0,14.3 -2.69,27.81 -8.11,40.94 -5.03,12.74 -12.74,23.95 -22.78,33.21 -9.65,9.66 -20.85,16.99 -33.21,22.02 -12.74,5.4 -26.66,8.11 -41.7,8.11zm-71.83 1450.4l0 -1158.47 145.96 0 0 1158.47 -145.96 0z"/>
  <path id="_8" class="fil1" d="M10412.32 2609.92l0 -668.04c0,-262.21 -94.61,-393.11 -284.2,-393.11 -50.22,0 -96.93,10.04 -139.8,30.11 -42.87,20.09 -79.93,47.51 -111.21,83.03 -30.89,35.52 -55.61,77.62 -72.98,126.27 -17.77,48.66 -26.66,101.56 -26.66,157.94l0 663.8 -145.96 0 0 -1158.47 145.96 0 0 200.79 4.64 0c85.72,-152.52 215.09,-228.6 387.32,-228.6 126.66,0 223.2,40.94 289.61,123.19 66.04,82.25 99.25,201.18 99.25,356.8l0 706.28 -145.97 0z"/>
  <path id="_9" class="fil1" d="M11863.49 2520.71c0,215.09 -49.05,374.57 -147.11,478.07 -98.1,103.88 -249.08,155.62 -453.36,155.62 -127.03,0 -247.52,-28.2 -361.05,-84.57l0 -147.12c126.27,69.51 246.37,104.27 360.66,104.27 303.14,0 454.9,-159.87 454.9,-479.22l0 -138.63 -4.64 0c-88.82,152.52 -224.74,228.6 -407.39,228.6 -71.83,0 -137.09,-13.13 -196.56,-39.77 -59.07,-26.27 -110.04,-64.5 -152.13,-114.31 -42.09,-49.81 -75.3,-110.43 -98.47,-181.87 -23.56,-71.07 -35.15,-151.76 -35.15,-241.73 0,-95 12.37,-181.5 37.47,-259.89 24.71,-78.01 60.23,-145.2 106.18,-200.79 46.34,-56 101.95,-99.25 167.22,-129.76 65.26,-30.5 138.63,-45.95 220.1,-45.95 163.73,0 283.43,66.43 358.73,199.25l4.64 0 0 -171.44 145.96 0 0 1069.26zm-145.96 -615.14c0,-48.27 -8.89,-94.22 -26.25,-137.09 -17.38,-42.85 -41.33,-80.7 -72.22,-113.14 -31.28,-32.44 -67.97,-58.3 -110.82,-77.62 -42.48,-19.31 -89.6,-28.96 -140.95,-28.96 -60.64,0 -115.09,11.58 -164.12,35.13 -48.66,23.56 -89.99,56.76 -124.34,99.64 -34.76,42.85 -61.01,95.37 -79.54,156.77 -18.55,61.79 -27.81,130.91 -27.81,207.75 0,71.05 8.89,135.16 26.25,192.7 17.38,57.53 41.72,106.18 73.37,145.96 32.06,40.16 70.29,71.05 115.09,93.07 45.17,22 95.37,32.82 150.2,32.82 57.54,0 109.67,-10.43 156.79,-31.28 46.73,-20.46 86.87,-49.42 120.1,-86.11 33.21,-36.3 59.08,-79.54 77.23,-128.98 18.14,-49.42 27.03,-102.71 27.03,-160.24l0 -200.42z"/>
  <path id="_10" class="fil1" d="M13142.81 2609.92l-244.05 -465.32c-24.32,-46.34 -47.49,-84.55 -70.29,-115.46 -22.39,-31.28 -45.95,-55.99 -69.88,-74.52 -23.95,-18.16 -49.83,-31.67 -77.24,-39.4 -27.79,-8.11 -58.3,-11.97 -92.29,-11.97l-178.4 0 0 706.67 -150.59 0 0 -1621.86 466.86 0c61.01,0 120.1,8.89 177.23,27.05 56.76,18.14 107.35,44.78 151.76,80.31 44.41,35.52 80.32,79.93 106.96,133.23 26.66,53.67 40.16,115.85 40.16,186.51 0,57.15 -8.5,110.06 -25.86,158.33 -17.38,47.88 -42.09,90.75 -74.15,128.2 -32.06,37.06 -70.68,68.73 -116.24,94.61 -45.95,26.25 -97.32,45.56 -154.45,58.3l0 4.64c22,8.89 41.7,20.85 59.84,35.13 18.14,14.3 35.52,31.67 52.52,52.15 16.99,20.07 33.6,43.63 50.2,69.88 16.6,26.66 33.98,56.76 51.76,90.75l272.23 502.78 -176.08 0zm-732.15 -1482.84l0 639.48 268.76 0c54.45,0 103.88,-7.72 149.05,-23.56 45.19,-15.82 83.81,-38.6 115.85,-67.95 32.06,-28.98 56.76,-64.5 74.54,-105.81 17.75,-41.31 26.64,-88.04 26.64,-139.8 0,-94.22 -30.13,-167.98 -90.75,-221.64 -60.62,-53.69 -148.27,-80.71 -262.97,-80.71l-281.12 0z"/>
  <path id="_11" class="fil1" d="M13575.69 2056.17c0.76,71.07 10.04,134.77 28.18,191.53 18.16,56.38 44.02,104.66 78.01,143.66 33.98,39.38 75.3,69.51 123.96,89.97 48.66,20.85 103.49,31.28 164.51,31.28 130.52,0 253.7,-45.56 369.94,-137.09l0 143.27c-110.82,79.17 -245.2,118.95 -402.75,118.95 -77.62,0 -148.29,-13.52 -211.63,-40.94 -63.33,-27.03 -117,-66.41 -161.8,-118.17 -44.41,-51.74 -78.77,-115.46 -102.71,-190.76 -24.32,-75.69 -36.3,-161.8 -36.3,-258.34 0,-86.89 13.13,-167.2 39.4,-241.34 26.64,-73.76 62.94,-137.87 109.67,-191.92 47.1,-54.06 102.33,-96.15 166.42,-126.66 64.11,-30.5 134.01,-45.95 210.07,-45.95 74.93,0 140.58,13.13 198.1,39.01 57.15,26.25 105.42,63.33 144.05,111.6 38.99,48.27 68.34,106.96 88.8,176.47 20.48,69.51 30.52,147.12 30.52,232.85l0 72.59 -836.41 0zm688.12 -127.42c-2.3,-120.49 -30.89,-213.93 -86.11,-280.36 -55.21,-66.41 -132.06,-99.62 -230.14,-99.62 -49.05,0 -94.61,8.5 -136.7,25.86 -41.7,17.38 -78.78,42.48 -110.45,75.32 -31.65,32.82 -57.91,72.98 -78.77,120.08 -20.85,47.12 -35.13,100.02 -43.63,158.72l685.8 0z"/>
  <path id="_12" class="fil1" d="M14633.74 2401.78c22,17.38 45.56,32.82 71.05,46.34 25.49,13.52 52.13,25.1 79.16,35.13 27.03,9.66 54.06,16.99 81.86,22.02 27.42,5.01 53.3,7.33 78.39,7.33 171.44,0 257.19,-64.48 257.19,-193.07 0,-29.35 -6.18,-54.84 -18.16,-76.47 -11.97,-21.61 -29.35,-41.31 -51.74,-59.07 -22.78,-17.77 -49.81,-33.98 -81.47,-49.05 -31.67,-15.06 -67.58,-30.89 -107.35,-47.49 -53.69,-22.02 -99.64,-44.41 -138.26,-66.82 -38.21,-22.78 -69.88,-47.49 -94.98,-74.13 -24.73,-27.05 -43.26,-56.39 -55.23,-88.43 -11.97,-32.06 -18.16,-68.75 -18.16,-109.28 0,-51.37 11.2,-97.32 33.22,-137.09 22.39,-40.16 52.13,-74.15 89.58,-101.95 37.84,-27.81 81.1,-49.42 130.13,-64.09 49.44,-14.67 101.17,-22.02 155.23,-22.02 100.02,0 186.9,18.92 261.43,56.38l0 152.54c-86.5,-56 -179.94,-83.79 -279.97,-83.79 -35.91,0 -68.73,4.64 -98.47,13.5 -29.74,9.28 -55.23,22.02 -76.47,38.62 -20.85,16.6 -37.45,36.67 -49.03,59.84 -11.59,23.17 -17.38,48.66 -17.38,76.47 0,28.96 4.64,54.06 13.52,75.3 9.26,21.63 23.17,41.33 42.46,58.69 19.31,16.99 44.02,33.6 74.54,49.83 30.5,15.82 67.58,32.82 111.6,50.96 55.6,22.41 103.86,44.8 144.42,67.19 40.94,22.41 74.54,46.34 100.79,72.61 26.27,25.88 45.95,54.84 58.69,87.26 12.74,32.06 19.31,69.14 19.31,111.23 0,52.13 -10.81,98.86 -32.06,139.39 -21.61,40.94 -51.35,75.3 -89.19,103.1 -37.84,27.81 -82.64,49.05 -133.62,63.33 -50.96,14.28 -106.57,21.63 -166.81,21.63 -116.63,0 -214.7,-24.71 -294.25,-73.76l0 -162.19z"/>
  <path id="_13" class="fil1" d="M15707.25 2056.17c0.76,71.07 10.04,134.77 28.18,191.53 18.16,56.38 44.02,104.66 78.01,143.66 33.98,39.38 75.3,69.51 123.96,89.97 48.66,20.85 103.49,31.28 164.51,31.28 130.52,0 253.7,-45.56 369.94,-137.09l0 143.27c-110.82,79.17 -245.2,118.95 -402.75,118.95 -77.62,0 -148.29,-13.52 -211.63,-40.94 -63.33,-27.03 -117,-66.41 -161.8,-118.17 -44.41,-51.74 -78.77,-115.46 -102.71,-190.76 -24.32,-75.69 -36.3,-161.8 -36.3,-258.34 0,-86.89 13.13,-167.2 39.4,-241.34 26.64,-73.76 62.94,-137.87 109.67,-191.92 47.1,-54.06 102.33,-96.15 166.42,-126.66 64.11,-30.5 134.01,-45.95 210.07,-45.95 74.93,0 140.58,13.13 198.1,39.01 57.15,26.25 105.42,63.33 144.05,111.6 38.99,48.27 68.34,106.96 88.8,176.47 20.48,69.51 30.52,147.12 30.52,232.85l0 72.59 -836.41 0zm688.12 -127.42c-2.3,-120.49 -30.89,-213.93 -86.11,-280.36 -55.21,-66.41 -132.06,-99.62 -230.14,-99.62 -49.05,0 -94.61,8.5 -136.7,25.86 -41.7,17.38 -78.78,42.48 -110.45,75.32 -31.65,32.82 -57.91,72.98 -78.77,120.08 -20.85,47.12 -35.13,100.02 -43.63,158.72l685.8 0z"/>
  <path id="_14" class="fil1" d="M17497.43 2609.92l0 -206.21 -4.62 0c-37.47,74.15 -89.21,131.67 -154.47,172.61 -65.24,40.94 -139,61.4 -221.25,61.4 -55.99,0 -106.18,-8.11 -150.98,-23.95 -45.17,-15.82 -83.01,-38.23 -114.31,-67.19 -31.65,-29.35 -55.6,-64.09 -72.59,-105.03 -16.99,-40.92 -25.49,-85.72 -25.49,-135.16 0,-105.03 32.44,-188.83 97.32,-250.99 64.87,-62.55 162.95,-103.1 294.25,-122.03l352.15 -50.98c0,-222.42 -86.48,-333.63 -259.86,-333.63 -135.55,0 -261.43,49.42 -377.28,148.27l0 -158.33c24.34,-16.97 51.76,-32.82 82.25,-46.71 30.91,-13.91 63.33,-25.88 97.32,-36.3 33.98,-10.04 69.12,-17.77 105.03,-23.56 36.3,-5.79 71.05,-8.5 105.42,-8.5 129.33,0 227.43,36.3 293.45,108.52 66.43,72.59 99.64,180.33 99.64,323.99l0 753.77 -145.97 0zm-299.24 -562.62c-52.52,7.33 -96.93,16.6 -134.01,28.18 -37.06,11.2 -67.56,26.66 -91.9,45.95 -24.32,19.31 -42.09,42.87 -53.3,71.07 -11.19,28.57 -16.97,63.31 -16.97,105.03 0,30.89 5.4,59.45 16.6,86.11 10.81,26.25 26.64,49.03 47.49,68.34 20.85,19.31 45.95,34.37 76.08,44.8 29.74,10.43 63.72,15.82 101.56,15.82 51.35,0 98.47,-9.65 141.69,-29.35 42.87,-19.68 80.32,-47.1 111.6,-81.47 31.28,-34.75 55.99,-76.47 73.76,-124.73 17.77,-48.27 26.64,-100.79 26.64,-157.55l0 -114.29 -299.24 42.09z"/>
  <path id="_15" class="fil1" d="M18565.54 1600.12c-33.97,-25.1 -77.62,-37.45 -131.28,-37.45 -38.23,0 -72.22,7.35 -101.56,22.02 -29.74,14.67 -55.23,34.36 -77.62,59.45 -22.39,24.73 -40.92,53.69 -56.38,86.5 -15.84,32.83 -28.2,66.8 -37.45,102.34 -9.66,35.52 -16.23,71.44 -20.48,107.33 -4.25,36.3 -6.18,70.68 -6.18,103.1l0 566.5 -143.64 0 0 -1158.47 143.64 0 0 248.3 4.64 0c13.52,-42.09 30.52,-80.32 51.37,-113.53 20.85,-33.6 44.78,-62.18 71.83,-84.96 27.03,-23.17 56.76,-40.53 88.8,-52.52 32.06,-11.97 65.65,-18.14 101.17,-18.14 23.56,0 44.41,1.54 62.94,4.64 18.16,2.69 35.15,7.33 50.2,13.5l0 151.37z"/>
  <path id="_16" class="fil1" d="M19515.87 2557.4c-86.11,52.13 -189.98,78.78 -312.39,80.32 -83.03,0.76 -157.94,-13.52 -224.35,-42.87 -66.43,-29.74 -122.8,-70.66 -169.92,-122.79 -46.71,-52.52 -82.62,-114.31 -107.35,-185.75 -25.1,-71.05 -37.45,-148.66 -37.45,-232.48 0,-86.87 13.13,-168.35 39.77,-244.81 26.27,-76.86 64.89,-143.27 115.46,-200.42 50.59,-56.76 112.38,-101.94 185.75,-135.14 72.98,-33.22 156.79,-49.83 251.4,-49.83 95.76,0 183.41,18.53 262.58,55.61l0 153.69c-84.57,-56 -176.1,-84.18 -274.57,-84.18 -68.73,0 -130.13,13.12 -183.8,38.99 -53.69,26.27 -98.86,61.79 -135.55,106.57 -36.67,44.8 -64.48,97.32 -83.79,157.57 -19.31,59.84 -28.96,123.57 -28.96,190.76 0,61.77 8.11,121.25 24.32,177.62 16.21,56.76 41.33,106.59 74.93,150.22 33.6,43.24 76.06,78.01 127.42,103.49 51.74,25.86 111.99,38.6 181.87,38.6 108.91,0 206.99,-32.43 294.64,-97.69l0 142.49z"/>
  <path id="_17" class="fil1" d="M20575.07 2609.92l0 -681.96c0,-129.74 -23.17,-225.5 -69.88,-286.9 -46.73,-61.4 -119.34,-92.29 -217.8,-92.29 -46.34,0 -90.75,9.26 -132.84,28.18 -42.09,18.92 -79.16,46.34 -110.41,81.49 -31.67,35.52 -56.76,78.77 -75.69,129.74 -18.92,50.98 -28.2,108.5 -28.2,173l0 648.73 -145.96 0 0 -1714.54 145.96 0 0 755.71 4.64 0c90.36,-151.76 219.71,-227.45 388.45,-227.45 128.98,0 225.91,39.77 290.39,118.95 64.87,79.16 97.32,196.15 97.32,350.62l0 716.7 -145.97 0z"/>
  <path id="_18" class="fil1" d="M22285.75 2497.17c-166.81,93.83 -343.67,140.56 -530.19,140.56 -117.78,0 -223.57,-20.09 -317.42,-60.62 -93.44,-40.16 -173.37,-96.54 -239.02,-168.37 -65.65,-72.22 -116.24,-157.94 -151.37,-257.96 -35.13,-100.01 -52.52,-209.68 -52.52,-329.77 0,-79.16 8.5,-155.23 25.49,-228.6 16.99,-72.98 42.09,-141.73 74.91,-205.82 32.83,-64.11 73,-122.03 120.49,-174.15 47.88,-52.15 102.33,-96.93 163.73,-134.38 61.79,-37.84 129.74,-66.82 203.5,-87.28 74.15,-20.46 154.08,-30.5 239.41,-30.5 160.65,0 304.3,28.57 430.58,85.72l0 166.05c-139.02,-76.86 -288.46,-115.07 -448.72,-115.07 -99.25,0 -188.44,18.14 -268.76,54.45 -79.93,35.91 -148.29,85.72 -204.67,149.05 -55.99,63.33 -99.62,138.24 -130.91,224.74 -30.89,86.5 -46.71,179.94 -47.49,281.12 -0.78,100.4 12.35,193.07 39.01,277.65 27.03,84.96 66.8,158.33 119.71,220.1 52.89,61.79 118.15,110.06 195.76,144.82 78.01,34.75 167.99,52.13 269.93,52.13 137.48,0 256.8,-28.59 357.97,-86.11l0 -495.45 -368.4 0 0 -136.7 518.99 0 0 714.4z"/>
  <path id="_19" class="fil1" d="M23395.15 2609.92l0 -196.17 -4.62 0c-78.39,149.44 -200.03,223.98 -365.32,223.98 -275.31,0 -413.16,-168.37 -413.16,-504.71l0 -681.57 145.96 0 0 653.76c0,139.02 24.73,241.34 74.13,307.77 49.05,66.41 124.73,99.62 226.3,99.62 49.81,0 94.98,-9.65 136.31,-28.96 40.92,-19.31 76.45,-46.34 106.18,-81.47 29.74,-34.76 52.91,-76.86 69.51,-125.88 16.6,-49.05 24.71,-103.49 24.71,-162.97l0 -661.87 145.97 0 0 1158.47 -145.97 0z"/>
  <path id="_20" class="fil1" d="M23985.6 1159.52c-28.2,0 -52.15,-9.66 -72.61,-29.35 -20.85,-19.7 -30.89,-44.8 -30.89,-74.93 0,-29.35 10.04,-53.67 30.89,-72.98 20.46,-19.31 44.41,-28.96 72.61,-28.96 14.28,0 28.18,2.32 40.92,7.33 13.13,5.03 23.95,11.98 33.6,20.87 9.66,9.26 16.99,20.07 22.78,32.43 5.81,12.35 8.5,26.27 8.5,41.31 0,14.3 -2.69,27.81 -8.11,40.94 -5.03,12.74 -12.74,23.95 -22.78,33.21 -9.65,9.66 -20.85,16.99 -33.21,22.02 -12.74,5.4 -26.66,8.11 -41.7,8.11zm-71.83 1450.4l0 -1158.47 145.96 0 0 1158.47 -145.96 0z"/>
  <path id="_21" class="fil1" d="M25242.92 2609.92l0 -203.11 -4.64 0c-38.23,72.98 -93.44,130.13 -164.51,170.29 -71.44,40.53 -152.52,60.62 -242.88,60.62 -72.59,0 -138.24,-13.52 -197.71,-40.16 -59.08,-27.03 -110.06,-65.65 -152.15,-116.24 -42.09,-50.59 -74.91,-111.6 -98.08,-183.43 -22.78,-71.81 -34.37,-152.91 -34.37,-243.27 0,-93.83 12.74,-179.18 37.84,-256.8 25.49,-77.23 61.4,-143.64 107.74,-199.25 46.34,-55.61 102.33,-98.47 167.59,-128.98 65.26,-30.5 137.87,-45.95 217.8,-45.95 166.83,0 286.53,66.8 358.73,200.42l4.64 0 0 -728.69 145.97 0 0 1714.54 -145.97 0zm0 -699.71c0,-50.59 -8.89,-98.1 -26.25,-141.73 -17.38,-43.63 -41.33,-81.86 -72.22,-114.29 -31.28,-32.44 -68.36,-58.32 -111.99,-77.24 -43.24,-18.92 -91.14,-28.18 -143.27,-28.18 -57.53,0 -110.43,11.19 -158.7,33.98 -48.27,22.78 -89.97,55.21 -124.34,98.08 -34.37,42.48 -61.01,94.61 -80.32,155.62 -19.31,61.01 -28.96,130.52 -28.96,208.53 0,72.98 8.89,138.63 26.25,196.93 17.38,58.3 42.09,107.35 74.15,147.12 32.06,40.16 70.29,70.66 115.07,91.9 44.41,21.24 94.24,31.67 148.29,31.67 59.08,0 112.36,-10.43 159.48,-31.67 47.12,-21.24 87.28,-50.2 120.1,-87.26 32.82,-37.08 58.3,-80.32 76.08,-130.13 17.75,-49.83 26.64,-103.1 26.64,-159.87l0 -193.46z"/>
  <path id="_22" class="fil1" d="M25829.47 2056.17c0.76,71.07 10.04,134.77 28.18,191.53 18.16,56.38 44.02,104.66 78.01,143.66 33.98,39.38 75.3,69.51 123.96,89.97 48.66,20.85 103.49,31.28 164.51,31.28 130.52,0 253.7,-45.56 369.94,-137.09l0 143.27c-110.82,79.17 -245.2,118.95 -402.75,118.95 -77.62,0 -148.29,-13.52 -211.63,-40.94 -63.33,-27.03 -117,-66.41 -161.8,-118.17 -44.41,-51.74 -78.77,-115.46 -102.71,-190.76 -24.32,-75.69 -36.3,-161.8 -36.3,-258.34 0,-86.89 13.13,-167.2 39.4,-241.34 26.64,-73.76 62.94,-137.87 109.67,-191.92 47.1,-54.06 102.33,-96.15 166.42,-126.66 64.11,-30.5 134.01,-45.95 210.07,-45.95 74.93,0 140.58,13.13 198.1,39.01 57.15,26.25 105.42,63.33 144.05,111.6 38.99,48.27 68.34,106.96 88.8,176.47 20.48,69.51 30.52,147.12 30.52,232.85l0 72.59 -836.41 0zm688.12 -127.42c-2.3,-120.49 -30.89,-213.93 -86.11,-280.36 -55.21,-66.41 -132.06,-99.62 -230.14,-99.62 -49.05,0 -94.61,8.5 -136.7,25.86 -41.7,17.38 -78.78,42.48 -110.45,75.32 -31.65,32.82 -57.91,72.98 -78.77,120.08 -20.85,47.12 -35.13,100.02 -43.63,158.72l685.8 0z"/>
 </g>
</svg>
