<?xml version="1.0" encoding="UTF-8"?>
<!DOCTYPE svg PUBLIC "-//W3C//DTD SVG 1.1//EN" "http://www.w3.org/Graphics/SVG/1.1/DTD/svg11.dtd">
<!-- Creator: CorelDRAW -->
<svg xmlns="http://www.w3.org/2000/svg" xml:space="preserve" width="1280px" height="549px" version="1.1" style="shape-rendering:geometricPrecision; text-rendering:geometricPrecision; image-rendering:optimizeQuality; fill-rule:evenodd; clip-rule:evenodd"
viewBox="0 0 226.511 97.17"
 xmlns:xlink="http://www.w3.org/1999/xlink"
 xmlns:xodm="http://www.corel.com/coreldraw/odm/2003">
 <defs>
  <style type="text/css">
   <![CDATA[
    .str0 {stroke:white;stroke-width:0.106;stroke-miterlimit:22.9256}
    .fil3 {fill:none;fill-rule:nonzero}
    .fil1 {fill:white}
    .fil2 {fill:white;fill-rule:nonzero}
    .fil0 {fill:url(#id0)}
   ]]>
  </style>
  <linearGradient id="id0" gradientUnits="userSpaceOnUse" x1="0" y1="48.585" x2="226.511" y2="48.585">
   <stop offset="0" style="stop-opacity:1; stop-color:#2567F5"/>
   <stop offset="1" style="stop-opacity:1; stop-color:#7F4CDA"/>
  </linearGradient>
 </defs>
 <g id="Capa_x0020_1">
  <metadata id="CorelCorpID_0Corel-Layer"/>
  <path class="fil0" d="M8.848 0l217.663 0 0 85.845c0,6.229 -5.097,11.325 -11.326,11.325l-215.185 0 0 -88.322c0,-4.867 3.981,-8.848 8.848,-8.848z"/>
  <g id="_1664172417728">
   <path class="fil1" d="M66.178 17.327c-0.881,0.507 -1.978,0.761 -3.289,0.761 -1.452,0 -2.598,-0.402 -3.436,-1.206 -0.836,-0.804 -1.256,-1.911 -1.256,-3.322 0,-1.419 0.458,-2.575 1.374,-3.47 0.914,-0.896 2.133,-1.343 3.653,-1.343 0.957,0 1.802,0.133 2.531,0.397l0 1.91c-0.697,-0.405 -1.548,-0.605 -2.557,-0.605 -0.845,0 -1.53,0.273 -2.062,0.822 -0.533,0.548 -0.797,1.279 -0.797,2.195 0,0.926 0.239,1.644 0.714,2.154 0.477,0.507 1.12,0.761 1.93,0.761 0.488,0 0.875,-0.069 1.159,-0.206l0 -1.765 -1.806 0 0 -1.626 3.842 0 0 4.543zm7.69 0.604l-1.984 0 0 -0.982 -0.03 0c-0.493,0.758 -1.148,1.139 -1.972,1.139 -1.496,0 -2.242,-0.905 -2.242,-2.715l0 -3.892 1.984 0 0 3.715c0,0.912 0.362,1.368 1.084,1.368 0.357,0 0.641,-0.125 0.856,-0.374 0.215,-0.25 0.32,-0.589 0.32,-1.017l0 -3.692 1.984 0 0 6.45zm3.666 0l-1.989 0 0 -6.45 1.989 0 0 6.45zm1.03 -9.505l-1.972 2.034 -1.436 0 1.638 -2.034 1.77 0zm6.013 9.505l-1.883 0 0 -0.927 -0.026 0c-0.432,0.723 -1.073,1.084 -1.922,1.084 -0.626,0 -1.118,-0.176 -1.477,-0.531 -0.359,-0.355 -0.538,-0.83 -0.538,-1.421 0,-1.251 0.742,-1.974 2.223,-2.167l1.753 -0.232c0,-0.706 -0.383,-1.058 -1.148,-1.058 -0.768,0 -1.499,0.228 -2.191,0.686l0 -1.499c0.277,-0.144 0.656,-0.269 1.137,-0.378 0.48,-0.11 0.918,-0.164 1.314,-0.164 1.838,0 2.758,0.918 2.758,2.752l0 3.855zm-1.87 -2.621l0 -0.434 -1.172 0.151c-0.647,0.083 -0.97,0.376 -0.97,0.877 0,0.225 0.078,0.413 0.235,0.556 0.159,0.145 0.372,0.218 0.64,0.218 0.374,0 0.678,-0.129 0.914,-0.387 0.234,-0.258 0.353,-0.585 0.353,-0.981zm9.019 1.871l-0.026 0 0 3.717 -1.989 0 0 -9.417 1.989 0 0 0.97 0.026 0c0.492,-0.75 1.182,-1.127 2.072,-1.127 0.836,0 1.481,0.286 1.937,0.86 0.456,0.572 0.684,1.353 0.684,2.34 0,1.074 -0.267,1.936 -0.798,2.588 -0.531,0.651 -1.238,0.976 -2.12,0.976 -0.776,0 -1.367,-0.301 -1.775,-0.907zm-0.056 -2.645l0 0.516c0,0.445 0.116,0.809 0.352,1.09 0.235,0.282 0.544,0.422 0.927,0.422 0.451,0 0.804,-0.174 1.053,-0.525 0.25,-0.35 0.376,-0.847 0.376,-1.49 0,-1.135 -0.44,-1.7 -1.324,-1.7 -0.406,0 -0.739,0.152 -0.997,0.462 -0.258,0.309 -0.387,0.718 -0.387,1.225zm11.28 3.395l-1.883 0 0 -0.927 -0.026 0c-0.432,0.723 -1.073,1.084 -1.922,1.084 -0.626,0 -1.118,-0.176 -1.477,-0.531 -0.359,-0.355 -0.538,-0.83 -0.538,-1.421 0,-1.251 0.742,-1.974 2.224,-2.167l1.752 -0.232c0,-0.706 -0.383,-1.058 -1.148,-1.058 -0.768,0 -1.499,0.228 -2.191,0.686l0 -1.499c0.277,-0.144 0.656,-0.269 1.137,-0.378 0.48,-0.11 0.918,-0.164 1.314,-0.164 1.838,0 2.758,0.918 2.758,2.752l0 3.855zm-1.87 -2.621l0 -0.434 -1.172 0.151c-0.647,0.083 -0.97,0.376 -0.97,0.877 0,0.225 0.078,0.413 0.235,0.556 0.159,0.145 0.372,0.218 0.641,0.218 0.374,0 0.677,-0.129 0.913,-0.387 0.235,-0.258 0.353,-0.585 0.353,-0.981zm7.653 -2.034c-0.24,-0.131 -0.52,-0.195 -0.838,-0.195 -0.432,0 -0.77,0.159 -1.015,0.475 -0.243,0.318 -0.365,0.748 -0.365,1.294l0 3.081 -1.989 0 0 -6.45 1.989 0 0 1.198 0.026 0c0.316,-0.875 0.881,-1.312 1.7,-1.312 0.211,0 0.374,0.026 0.492,0.076l0 1.833zm6.293 4.655l-1.883 0 0 -0.927 -0.026 0c-0.432,0.723 -1.073,1.084 -1.922,1.084 -0.626,0 -1.118,-0.176 -1.477,-0.531 -0.359,-0.355 -0.537,-0.83 -0.537,-1.421 0,-1.251 0.741,-1.974 2.223,-2.167l1.752 -0.232c0,-0.706 -0.383,-1.058 -1.148,-1.058 -0.768,0 -1.499,0.228 -2.191,0.686l0 -1.499c0.277,-0.144 0.656,-0.269 1.137,-0.378 0.48,-0.11 0.918,-0.164 1.314,-0.164 1.838,0 2.758,0.918 2.758,2.752l0 3.855zm-1.87 -2.621l0 -0.434 -1.172 0.151c-0.647,0.083 -0.97,0.376 -0.97,0.877 0,0.225 0.078,0.413 0.235,0.556 0.159,0.145 0.372,0.218 0.641,0.218 0.374,0 0.677,-0.129 0.913,-0.387 0.235,-0.258 0.353,-0.585 0.353,-0.981zm12.798 -0.036l-4.207 0c0.066,0.935 0.658,1.404 1.769,1.404 0.71,0 1.333,-0.168 1.871,-0.503l0 1.436c-0.596,0.318 -1.37,0.477 -2.324,0.477 -1.041,0 -1.849,-0.288 -2.425,-0.866 -0.575,-0.577 -0.863,-1.383 -0.863,-2.415 0,-1.07 0.31,-1.92 0.933,-2.545 0.622,-0.626 1.385,-0.938 2.292,-0.938 0.94,0 1.669,0.28 2.182,0.837 0.514,0.559 0.772,1.318 0.772,2.274l0 0.839zm-1.844 -1.224c0,-0.922 -0.374,-1.384 -1.123,-1.384 -0.318,0 -0.595,0.131 -0.827,0.396 -0.235,0.264 -0.374,0.595 -0.426,0.988l2.376 0zm9.257 3.881l-1.984 0 0 -3.584c0,-1 -0.357,-1.498 -1.071,-1.498 -0.344,0 -0.628,0.131 -0.849,0.395 -0.224,0.265 -0.335,0.602 -0.335,1.009l0 3.678 -1.989 0 0 -6.45 1.989 0 0 1.022 0.025 0c0.475,-0.787 1.166,-1.179 2.073,-1.179 1.427,0 2.141,0.886 2.141,2.658l0 3.949zm1.152 -0.17l0 -1.612c0.329,0.198 0.656,0.344 0.981,0.441 0.324,0.096 0.632,0.144 0.922,0.144 0.353,0 0.632,-0.048 0.834,-0.144 0.205,-0.097 0.306,-0.243 0.306,-0.441 0,-0.127 -0.046,-0.232 -0.138,-0.316 -0.092,-0.084 -0.211,-0.157 -0.357,-0.22 -0.144,-0.062 -0.303,-0.12 -0.475,-0.169 -0.172,-0.052 -0.338,-0.108 -0.497,-0.17 -0.255,-0.097 -0.481,-0.202 -0.677,-0.312 -0.195,-0.112 -0.359,-0.241 -0.492,-0.389 -0.131,-0.146 -0.232,-0.316 -0.301,-0.51 -0.069,-0.193 -0.106,-0.421 -0.106,-0.685 0,-0.362 0.08,-0.673 0.237,-0.934 0.157,-0.26 0.368,-0.472 0.63,-0.638 0.262,-0.166 0.563,-0.288 0.901,-0.366 0.337,-0.077 0.69,-0.116 1.055,-0.116 0.286,0 0.574,0.022 0.869,0.067 0.295,0.043 0.585,0.107 0.871,0.191l0 1.538c-0.254,-0.149 -0.523,-0.258 -0.811,-0.332 -0.288,-0.073 -0.57,-0.109 -0.847,-0.109 -0.131,0 -0.254,0.011 -0.368,0.034 -0.116,0.022 -0.219,0.056 -0.307,0.101 -0.088,0.043 -0.157,0.099 -0.206,0.17 -0.052,0.069 -0.076,0.148 -0.076,0.237 0,0.116 0.037,0.217 0.112,0.301 0.077,0.083 0.174,0.157 0.297,0.217 0.122,0.062 0.258,0.116 0.406,0.163 0.149,0.05 0.297,0.099 0.445,0.148 0.265,0.093 0.503,0.194 0.718,0.304 0.213,0.109 0.398,0.236 0.551,0.384 0.152,0.147 0.27,0.319 0.352,0.516 0.082,0.198 0.123,0.433 0.123,0.706 0,0.382 -0.082,0.709 -0.25,0.98 -0.165,0.271 -0.384,0.49 -0.66,0.66 -0.275,0.17 -0.593,0.295 -0.952,0.372 -0.359,0.077 -0.731,0.116 -1.118,0.116 -0.71,0 -1.365,-0.11 -1.972,-0.327zm11.894 -2.487l-4.208 0c0.067,0.935 0.658,1.404 1.77,1.404 0.709,0 1.333,-0.168 1.87,-0.503l0 1.436c-0.595,0.318 -1.369,0.477 -2.324,0.477 -1.04,0 -1.849,-0.288 -2.425,-0.866 -0.574,-0.577 -0.862,-1.383 -0.862,-2.415 0,-1.07 0.31,-1.92 0.933,-2.545 0.621,-0.626 1.385,-0.938 2.292,-0.938 0.939,0 1.668,0.28 2.182,0.837 0.514,0.559 0.772,1.318 0.772,2.274l0 0.839zm-1.845 -1.224c0,-0.922 -0.374,-1.384 -1.122,-1.384 -0.318,0 -0.596,0.131 -0.828,0.396 -0.234,0.264 -0.374,0.595 -0.425,0.988l2.375 0zm9.258 3.881l-1.985 0 0 -3.584c0,-1 -0.357,-1.498 -1.07,-1.498 -0.344,0 -0.628,0.131 -0.85,0.395 -0.223,0.265 -0.335,0.602 -0.335,1.009l0 3.678 -1.989 0 0 -6.45 1.989 0 0 1.022 0.026 0c0.475,-0.787 1.165,-1.179 2.072,-1.179 1.428,0 2.142,0.886 2.142,2.658l0 3.949zm-0.886 -9.429c0,0.589 -0.116,1.042 -0.35,1.365 -0.233,0.32 -0.551,0.481 -0.953,0.481 -0.361,0 -0.714,-0.09 -1.06,-0.271 -0.372,-0.197 -0.632,-0.296 -0.774,-0.296 -0.335,0 -0.503,0.226 -0.503,0.679l-0.888 0c0,-0.582 0.114,-1.036 0.346,-1.359 0.23,-0.324 0.553,-0.485 0.97,-0.485 0.34,0 0.692,0.103 1.058,0.307 0.331,0.185 0.584,0.277 0.757,0.277 0.326,0 0.49,-0.232 0.49,-0.698l0.907 0zm7.828 9.429l-1.883 0 0 -0.927 -0.026 0c-0.432,0.723 -1.073,1.084 -1.922,1.084 -0.626,0 -1.118,-0.176 -1.477,-0.531 -0.359,-0.355 -0.538,-0.83 -0.538,-1.421 0,-1.251 0.742,-1.974 2.223,-2.167l1.752 -0.232c0,-0.706 -0.382,-1.058 -1.148,-1.058 -0.767,0 -1.498,0.228 -2.19,0.686l0 -1.499c0.277,-0.144 0.655,-0.269 1.137,-0.378 0.479,-0.11 0.918,-0.164 1.313,-0.164 1.839,0 2.759,0.918 2.759,2.752l0 3.855zm-1.871 -2.621l0 -0.434 -1.171 0.151c-0.647,0.083 -0.97,0.376 -0.97,0.877 0,0.225 0.077,0.413 0.234,0.556 0.159,0.145 0.372,0.218 0.641,0.218 0.374,0 0.677,-0.129 0.914,-0.387 0.234,-0.258 0.352,-0.585 0.352,-0.981zm9.675 2.621l-1.984 0 0 -3.584c0,-1 -0.357,-1.498 -1.071,-1.498 -0.344,0 -0.628,0.131 -0.849,0.395 -0.224,0.265 -0.336,0.602 -0.336,1.009l0 3.678 -1.988 0 0 -6.45 1.988 0 0 1.022 0.026 0c0.475,-0.787 1.165,-1.179 2.073,-1.179 1.427,0 2.141,0.886 2.141,2.658l0 3.949zm6.684 0l-5.79 0 0 -0.826 3.238 -4.155 -2.915 0 0 -1.469 5.441 0 0 0.983 -3.068 3.999 3.094 0 0 1.468zm6.437 0l-1.883 0 0 -0.927 -0.026 0c-0.432,0.723 -1.073,1.084 -1.922,1.084 -0.626,0 -1.118,-0.176 -1.477,-0.531 -0.359,-0.355 -0.538,-0.83 -0.538,-1.421 0,-1.251 0.742,-1.974 2.223,-2.167l1.753 -0.232c0,-0.706 -0.383,-1.058 -1.148,-1.058 -0.768,0 -1.499,0.228 -2.191,0.686l0 -1.499c0.277,-0.144 0.655,-0.269 1.137,-0.378 0.479,-0.11 0.918,-0.164 1.314,-0.164 1.838,0 2.758,0.918 2.758,2.752l0 3.855zm-1.87 -2.621l0 -0.434 -1.172 0.151c-0.647,0.083 -0.97,0.376 -0.97,0.877 0,0.225 0.078,0.413 0.235,0.556 0.159,0.145 0.372,0.218 0.64,0.218 0.374,0 0.677,-0.129 0.914,-0.387 0.234,-0.258 0.353,-0.585 0.353,-0.981zm12.798 -0.036l-4.207 0c0.066,0.935 0.657,1.404 1.769,1.404 0.709,0 1.333,-0.168 1.87,-0.503l0 1.436c-0.595,0.318 -1.369,0.477 -2.324,0.477 -1.04,0 -1.849,-0.288 -2.425,-0.866 -0.574,-0.577 -0.862,-1.383 -0.862,-2.415 0,-1.07 0.31,-1.92 0.933,-2.545 0.621,-0.626 1.385,-0.938 2.292,-0.938 0.939,0 1.668,0.28 2.182,0.837 0.514,0.559 0.772,1.318 0.772,2.274l0 0.839zm-1.845 -1.224c0,-0.922 -0.374,-1.384 -1.122,-1.384 -0.318,0 -0.595,0.131 -0.828,0.396 -0.234,0.264 -0.374,0.595 -0.425,0.988l2.375 0zm-127.32 37.966c-0.449,0.26 -1.098,0.389 -1.945,0.389 -0.992,0 -1.793,-0.299 -2.406,-0.901 -0.613,-0.6 -0.92,-1.374 -0.92,-2.324 0,-1.096 0.328,-1.958 0.984,-2.591 0.658,-0.632 1.538,-0.948 2.638,-0.948 0.759,0 1.31,0.101 1.649,0.301l0 1.69c-0.415,-0.312 -0.879,-0.466 -1.391,-0.466 -0.572,0 -1.023,0.165 -1.358,0.501 -0.334,0.333 -0.501,0.793 -0.501,1.382 0,0.57 0.161,1.019 0.479,1.344 0.318,0.326 0.759,0.488 1.316,0.488 0.496,0 0.98,-0.155 1.455,-0.467l0 1.602zm4.378 0.389c-1.075,0 -1.92,-0.301 -2.535,-0.903 -0.615,-0.602 -0.923,-1.421 -0.923,-2.453 0,-1.066 0.319,-1.903 0.957,-2.505 0.639,-0.602 1.503,-0.903 2.589,-0.903 1.07,0 1.911,0.301 2.519,0.903 0.609,0.602 0.914,1.4 0.914,2.391 0,1.071 -0.314,1.918 -0.942,2.539 -0.627,0.621 -1.487,0.931 -2.579,0.931zm0.051 -5.239c-0.471,0 -0.836,0.161 -1.096,0.483 -0.261,0.325 -0.392,0.783 -0.392,1.374 0,1.239 0.501,1.858 1.501,1.858 0.952,0 1.43,-0.637 1.43,-1.907 0,-1.206 -0.482,-1.808 -1.443,-1.808zm10.99 5.082l-1.984 0 0 -3.584c0,-1 -0.357,-1.498 -1.071,-1.498 -0.344,0 -0.627,0.131 -0.849,0.395 -0.223,0.265 -0.335,0.602 -0.335,1.009l0 3.678 -1.989 0 0 -6.45 1.989 0 0 1.022 0.026 0c0.475,-0.787 1.165,-1.179 2.072,-1.179 1.428,0 2.141,0.886 2.141,2.658l0 3.949zm-19.299 -24.629c-0.336,0 -0.611,-0.099 -0.824,-0.299 -0.215,-0.2 -0.322,-0.443 -0.322,-0.733 0,-0.299 0.107,-0.542 0.322,-0.731 0.213,-0.189 0.488,-0.284 0.824,-0.284 0.341,0 0.617,0.095 0.83,0.284 0.21,0.189 0.318,0.432 0.318,0.731 0,0.301 -0.108,0.55 -0.318,0.744 -0.213,0.191 -0.489,0.288 -0.83,0.288zm0.982 7.471l-1.988 0 0 -6.45 1.988 0 0 6.45zm7.905 0l-1.984 0 0 -3.584c0,-1 -0.357,-1.499 -1.071,-1.499 -0.344,0 -0.627,0.131 -0.849,0.396 -0.223,0.264 -0.335,0.602 -0.335,1.008l0 3.679 -1.989 0 0 -6.45 1.989 0 0 1.021 0.026 0c0.475,-0.787 1.165,-1.178 2.072,-1.178 1.428,0 2.141,0.886 2.141,2.657l0 3.95zm7.716 -6.45l-2.399 6.45 -2.268 0 -2.285 -6.45 2.128 0 1.12 3.975c0.127,0.449 0.2,0.83 0.222,1.146l0.025 0c0.028,-0.299 0.108,-0.669 0.233,-1.11l1.145 -4.011 2.079 0zm6.519 3.792l-4.207 0c0.066,0.936 0.657,1.404 1.769,1.404 0.709,0 1.333,-0.167 1.87,-0.503l0 1.436c-0.595,0.318 -1.369,0.478 -2.324,0.478 -1.04,0 -1.849,-0.289 -2.425,-0.867 -0.574,-0.576 -0.862,-1.382 -0.862,-2.414 0,-1.071 0.31,-1.92 0.933,-2.546 0.622,-0.625 1.385,-0.937 2.292,-0.937 0.94,0 1.668,0.279 2.182,0.836 0.514,0.559 0.772,1.318 0.772,2.275l0 0.838zm-1.845 -1.223c0,-0.922 -0.374,-1.385 -1.122,-1.385 -0.318,0 -0.595,0.132 -0.828,0.396 -0.234,0.264 -0.374,0.596 -0.425,0.989l2.375 0zm2.606 3.711l0 -1.613c0.329,0.198 0.656,0.344 0.98,0.441 0.325,0.097 0.633,0.144 0.923,0.144 0.352,0 0.632,-0.047 0.834,-0.144 0.204,-0.097 0.305,-0.243 0.305,-0.441 0,-0.127 -0.045,-0.232 -0.137,-0.316 -0.093,-0.084 -0.211,-0.157 -0.357,-0.219 -0.144,-0.062 -0.303,-0.121 -0.476,-0.17 -0.171,-0.052 -0.337,-0.107 -0.496,-0.17 -0.256,-0.097 -0.482,-0.202 -0.677,-0.311 -0.196,-0.112 -0.359,-0.241 -0.493,-0.39 -0.131,-0.146 -0.232,-0.316 -0.301,-0.509 -0.068,-0.194 -0.105,-0.422 -0.105,-0.686 0,-0.361 0.08,-0.673 0.237,-0.933 0.156,-0.26 0.367,-0.473 0.629,-0.639 0.263,-0.165 0.564,-0.288 0.901,-0.365 0.338,-0.077 0.69,-0.116 1.056,-0.116 0.286,0 0.574,0.021 0.868,0.067 0.295,0.043 0.585,0.107 0.871,0.191l0 1.537c-0.254,-0.148 -0.522,-0.258 -0.81,-0.331 -0.288,-0.073 -0.57,-0.11 -0.847,-0.11 -0.132,0 -0.254,0.011 -0.368,0.035 -0.116,0.021 -0.219,0.056 -0.307,0.101 -0.089,0.043 -0.158,0.099 -0.207,0.17 -0.052,0.068 -0.075,0.148 -0.075,0.236 0,0.116 0.036,0.217 0.112,0.301 0.077,0.084 0.174,0.157 0.296,0.217 0.123,0.063 0.258,0.116 0.407,0.164 0.148,0.049 0.296,0.099 0.445,0.148 0.264,0.092 0.503,0.193 0.718,0.303 0.213,0.11 0.398,0.237 0.55,0.385 0.153,0.146 0.271,0.318 0.353,0.516 0.081,0.198 0.122,0.432 0.122,0.705 0,0.383 -0.081,0.71 -0.249,0.98 -0.166,0.271 -0.385,0.491 -0.66,0.66 -0.275,0.17 -0.594,0.295 -0.952,0.372 -0.36,0.078 -0.731,0.117 -1.119,0.117 -0.709,0 -1.365,-0.11 -1.971,-0.327zm9.997 0.094c-0.294,0.155 -0.737,0.233 -1.328,0.233 -1.402,0 -2.105,-0.729 -2.105,-2.185l0 -2.954 -1.045 0 0 -1.468 1.045 0 0 -1.391 1.984 -0.568 0 1.959 1.449 0 0 1.468 -1.449 0 0 2.608c0,0.671 0.267,1.006 0.8,1.006 0.211,0 0.428,-0.06 0.649,-0.183l0 1.475zm2.129 -7.395c-0.336,0 -0.611,-0.099 -0.824,-0.299 -0.215,-0.2 -0.322,-0.443 -0.322,-0.733 0,-0.299 0.107,-0.542 0.322,-0.731 0.213,-0.189 0.488,-0.284 0.824,-0.284 0.341,0 0.617,0.095 0.829,0.284 0.211,0.189 0.319,0.432 0.319,0.731 0,0.301 -0.108,0.55 -0.319,0.744 -0.212,0.191 -0.488,0.288 -0.829,0.288zm0.982 7.471l-1.989 0 0 -6.45 1.989 0 0 6.45zm8 -0.738c0,1.198 -0.346,2.124 -1.039,2.782 -0.694,0.656 -1.696,0.985 -3.012,0.985 -0.868,0 -1.556,-0.123 -2.066,-0.372l0 -1.675c0.665,0.387 1.333,0.58 2.01,0.58 0.671,0 1.194,-0.178 1.561,-0.533 0.37,-0.354 0.555,-0.836 0.555,-1.444l0 -0.512 -0.024 0c-0.453,0.722 -1.124,1.084 -2.01,1.084 -0.823,0 -1.475,-0.291 -1.958,-0.869 -0.484,-0.581 -0.725,-1.357 -0.725,-2.331 0,-1.092 0.269,-1.958 0.806,-2.601 0.538,-0.643 1.245,-0.963 2.122,-0.963 0.785,0 1.374,0.301 1.765,0.907l0.024 0 0 -0.75 1.991 0 0 5.712zm-1.965 -2.36l0 -0.512c0,-0.407 -0.121,-0.755 -0.361,-1.043 -0.243,-0.286 -0.557,-0.43 -0.942,-0.43 -0.443,0 -0.789,0.172 -1.041,0.516 -0.251,0.344 -0.378,0.83 -0.378,1.456 0,0.537 0.121,0.961 0.359,1.275 0.241,0.313 0.568,0.468 0.983,0.468 0.412,0 0.746,-0.157 0.999,-0.475 0.254,-0.316 0.381,-0.735 0.381,-1.255zm8.995 3.098l-1.883 0 0 -0.927 -0.026 0c-0.432,0.722 -1.073,1.084 -1.922,1.084 -0.626,0 -1.118,-0.177 -1.477,-0.531 -0.359,-0.355 -0.538,-0.83 -0.538,-1.422 0,-1.251 0.742,-1.973 2.224,-2.167l1.752 -0.232c0,-0.705 -0.383,-1.058 -1.148,-1.058 -0.768,0 -1.499,0.228 -2.191,0.686l0 -1.498c0.277,-0.144 0.656,-0.269 1.137,-0.379 0.48,-0.109 0.918,-0.163 1.314,-0.163 1.838,0 2.758,0.918 2.758,2.752l0 3.855zm-1.87 -2.621l0 -0.435 -1.172 0.151c-0.647,0.084 -0.97,0.376 -0.97,0.877 0,0.226 0.078,0.413 0.235,0.557 0.159,0.144 0.372,0.217 0.64,0.217 0.375,0 0.678,-0.129 0.914,-0.387 0.234,-0.258 0.353,-0.585 0.353,-0.98zm8.333 2.388c-0.45,0.261 -1.099,0.39 -1.946,0.39 -0.991,0 -1.793,-0.299 -2.406,-0.901 -0.612,-0.6 -0.92,-1.374 -0.92,-2.324 0,-1.097 0.329,-1.959 0.985,-2.591 0.658,-0.632 1.537,-0.948 2.638,-0.948 0.759,0 1.309,0.101 1.649,0.301l0 1.69c-0.415,-0.312 -0.88,-0.467 -1.391,-0.467 -0.572,0 -1.024,0.166 -1.359,0.501 -0.333,0.333 -0.501,0.793 -0.501,1.383 0,0.569 0.161,1.019 0.479,1.343 0.319,0.327 0.759,0.488 1.316,0.488 0.497,0 0.981,-0.155 1.456,-0.466l0 1.601zm2.311 -7.238c-0.336,0 -0.611,-0.099 -0.823,-0.299 -0.215,-0.2 -0.323,-0.443 -0.323,-0.733 0,-0.299 0.108,-0.542 0.323,-0.731 0.212,-0.189 0.487,-0.284 0.823,-0.284 0.342,0 0.617,0.095 0.83,0.284 0.21,0.189 0.318,0.432 0.318,0.731 0,0.301 -0.108,0.55 -0.318,0.744 -0.213,0.191 -0.488,0.288 -0.83,0.288zm0.982 7.471l-1.988 0 0 -6.45 1.988 0 0 6.45zm4.75 0.157c-1.075,0 -1.92,-0.301 -2.535,-0.903 -0.615,-0.602 -0.923,-1.422 -0.923,-2.453 0,-1.067 0.319,-1.903 0.957,-2.505 0.639,-0.602 1.503,-0.903 2.589,-0.903 1.07,0 1.911,0.301 2.519,0.903 0.609,0.602 0.914,1.399 0.914,2.391 0,1.07 -0.314,1.917 -0.942,2.539 -0.627,0.621 -1.487,0.931 -2.579,0.931zm0.051 -5.24c-0.471,0 -0.836,0.161 -1.096,0.484 -0.26,0.325 -0.392,0.782 -0.392,1.374 0,1.238 0.501,1.857 1.501,1.857 0.953,0 1.43,-0.636 1.43,-1.907 0,-1.206 -0.482,-1.808 -1.443,-1.808zm2.139 -4.422l-1.971 2.034 -1.436 0 1.638 -2.034 1.769 0zm8.845 9.505l-1.984 0 0 -3.584c0,-1 -0.357,-1.499 -1.071,-1.499 -0.344,0 -0.628,0.131 -0.849,0.396 -0.224,0.264 -0.336,0.602 -0.336,1.008l0 3.679 -1.988 0 0 -6.45 1.988 0 0 1.021 0.026 0c0.475,-0.787 1.166,-1.178 2.073,-1.178 1.427,0 2.141,0.886 2.141,2.657l0 3.95zm10.021 -0.233c-0.449,0.261 -1.099,0.39 -1.946,0.39 -0.991,0 -1.793,-0.299 -2.406,-0.901 -0.612,-0.6 -0.92,-1.374 -0.92,-2.324 0,-1.097 0.329,-1.959 0.985,-2.591 0.658,-0.632 1.537,-0.948 2.638,-0.948 0.759,0 1.309,0.101 1.649,0.301l0 1.69c-0.415,-0.312 -0.879,-0.467 -1.391,-0.467 -0.572,0 -1.024,0.166 -1.359,0.501 -0.333,0.333 -0.501,0.793 -0.501,1.383 0,0.569 0.161,1.019 0.48,1.343 0.318,0.327 0.758,0.488 1.315,0.488 0.497,0 0.981,-0.155 1.456,-0.466l0 1.601zm4.377 0.39c-1.075,0 -1.92,-0.301 -2.535,-0.903 -0.615,-0.602 -0.922,-1.422 -0.922,-2.453 0,-1.067 0.318,-1.903 0.957,-2.505 0.638,-0.602 1.502,-0.903 2.588,-0.903 1.071,0 1.912,0.301 2.52,0.903 0.608,0.602 0.914,1.399 0.914,2.391 0,1.07 -0.314,1.917 -0.942,2.539 -0.628,0.621 -1.488,0.931 -2.58,0.931zm0.052 -5.24c-0.471,0 -0.837,0.161 -1.097,0.484 -0.26,0.325 -0.391,0.782 -0.391,1.374 0,1.238 0.501,1.857 1.501,1.857 0.952,0 1.429,-0.636 1.429,-1.907 0,-1.206 -0.481,-1.808 -1.442,-1.808zm6.75 5.083l-1.988 0 0 -9.548 1.988 0 0 9.548zm7.044 0l-1.884 0 0 -0.927 -0.026 0c-0.432,0.722 -1.072,1.084 -1.922,1.084 -0.625,0 -1.118,-0.177 -1.477,-0.531 -0.359,-0.355 -0.537,-0.83 -0.537,-1.422 0,-1.251 0.742,-1.973 2.223,-2.167l1.752 -0.232c0,-0.705 -0.383,-1.058 -1.148,-1.058 -0.767,0 -1.498,0.228 -2.191,0.686l0 -1.498c0.278,-0.144 0.656,-0.269 1.138,-0.379 0.479,-0.109 0.918,-0.163 1.313,-0.163 1.838,0 2.759,0.918 2.759,2.752l0 3.855zm-1.871 -2.621l0 -0.435 -1.172 0.151c-0.647,0.084 -0.969,0.376 -0.969,0.877 0,0.226 0.077,0.413 0.234,0.557 0.159,0.144 0.372,0.217 0.641,0.217 0.374,0 0.677,-0.129 0.913,-0.387 0.235,-0.258 0.353,-0.585 0.353,-0.98zm5.461 1.87l-0.026 0 0 0.751 -1.989 0 0 -9.548 1.989 0 0 4.067 0.026 0c0.492,-0.75 1.191,-1.126 2.098,-1.126 0.83,0 1.471,0.286 1.92,0.856 0.449,0.571 0.675,1.352 0.675,2.343 0,1.075 -0.262,1.937 -0.787,2.588 -0.526,0.652 -1.227,0.977 -2.104,0.977 -0.794,0 -1.394,-0.301 -1.802,-0.908zm-0.056 -2.719l0 0.66c0,0.417 0.118,0.761 0.359,1.034 0.239,0.273 0.546,0.408 0.92,0.408 0.452,0 0.804,-0.174 1.054,-0.524 0.249,-0.351 0.376,-0.847 0.376,-1.49 0,-0.534 -0.116,-0.951 -0.344,-1.252 -0.23,-0.298 -0.555,-0.449 -0.981,-0.449 -0.397,0 -0.728,0.148 -0.991,0.447 -0.262,0.297 -0.393,0.686 -0.393,1.166zm9.114 3.627c-1.075,0 -1.92,-0.301 -2.535,-0.903 -0.615,-0.602 -0.923,-1.422 -0.923,-2.453 0,-1.067 0.319,-1.903 0.957,-2.505 0.639,-0.602 1.503,-0.903 2.589,-0.903 1.07,0 1.911,0.301 2.519,0.903 0.609,0.602 0.914,1.399 0.914,2.391 0,1.07 -0.314,1.917 -0.942,2.539 -0.627,0.621 -1.487,0.931 -2.579,0.931zm0.051 -5.24c-0.471,0 -0.836,0.161 -1.096,0.484 -0.261,0.325 -0.392,0.782 -0.392,1.374 0,1.238 0.501,1.857 1.501,1.857 0.952,0 1.43,-0.636 1.43,-1.907 0,-1.206 -0.482,-1.808 -1.443,-1.808zm8.97 0.428c-0.241,-0.131 -0.521,-0.196 -0.839,-0.196 -0.432,0 -0.77,0.159 -1.015,0.476 -0.243,0.318 -0.365,0.748 -0.365,1.294l0 3.081 -1.989 0 0 -6.45 1.989 0 0 1.197 0.026 0c0.316,-0.875 0.881,-1.311 1.7,-1.311 0.211,0 0.374,0.026 0.493,0.075l0 1.834zm6.292 4.655l-1.883 0 0 -0.927 -0.026 0c-0.432,0.722 -1.072,1.084 -1.922,1.084 -0.625,0 -1.118,-0.177 -1.477,-0.531 -0.359,-0.355 -0.537,-0.83 -0.537,-1.422 0,-1.251 0.741,-1.973 2.223,-2.167l1.752 -0.232c0,-0.705 -0.383,-1.058 -1.148,-1.058 -0.768,0 -1.499,0.228 -2.191,0.686l0 -1.498c0.277,-0.144 0.656,-0.269 1.137,-0.379 0.48,-0.109 0.918,-0.163 1.314,-0.163 1.838,0 2.758,0.918 2.758,2.752l0 3.855zm-1.87 -2.621l0 -0.435 -1.172 0.151c-0.647,0.084 -0.969,0.376 -0.969,0.877 0,0.226 0.077,0.413 0.234,0.557 0.159,0.144 0.372,0.217 0.641,0.217 0.374,0 0.677,-0.129 0.913,-0.387 0.235,-0.258 0.353,-0.585 0.353,-0.98zm7.344 2.545c-0.295,0.155 -0.737,0.233 -1.329,0.233 -1.401,0 -2.104,-0.729 -2.104,-2.185l0 -2.954 -1.045 0 0 -1.468 1.045 0 0 -1.391 1.984 -0.568 0 1.959 1.449 0 0 1.468 -1.449 0 0 2.608c0,0.671 0.267,1.006 0.8,1.006 0.21,0 0.428,-0.06 0.649,-0.183l0 1.475zm2.128 -7.395c-0.335,0 -0.61,-0.099 -0.823,-0.299 -0.215,-0.2 -0.322,-0.443 -0.322,-0.733 0,-0.299 0.107,-0.542 0.322,-0.731 0.213,-0.189 0.488,-0.284 0.823,-0.284 0.342,0 0.617,0.095 0.83,0.284 0.211,0.189 0.318,0.432 0.318,0.731 0,0.301 -0.107,0.55 -0.318,0.744 -0.213,0.191 -0.488,0.288 -0.83,0.288zm0.983 7.471l-1.989 0 0 -6.45 1.989 0 0 6.45zm7.817 -6.45l-2.399 6.45 -2.268 0 -2.286 -6.45 2.129 0 1.12 3.975c0.127,0.449 0.2,0.83 0.221,1.146l0.026 0c0.028,-0.299 0.107,-0.669 0.232,-1.11l1.146 -4.011 2.079 0z"/>
   <path class="fil1" d="M215.767 35.09l-1.883 0 0 -0.927 -0.026 0c-0.432,0.722 -1.073,1.084 -1.922,1.084 -0.626,0 -1.118,-0.177 -1.477,-0.531 -0.359,-0.355 -0.538,-0.83 -0.538,-1.422 0,-1.251 0.742,-1.973 2.223,-2.167l1.753 -0.232c0,-0.705 -0.383,-1.058 -1.148,-1.058 -0.768,0 -1.499,0.228 -2.191,0.686l0 -1.498c0.277,-0.144 0.655,-0.269 1.137,-0.379 0.479,-0.109 0.918,-0.163 1.314,-0.163 1.838,0 2.758,0.918 2.758,2.752l0 3.855zm-1.87 -2.621l0 -0.435 -1.172 0.151c-0.647,0.084 -0.97,0.376 -0.97,0.877 0,0.226 0.078,0.413 0.235,0.557 0.159,0.144 0.371,0.217 0.64,0.217 0.374,0 0.677,-0.129 0.914,-0.387 0.234,-0.258 0.353,-0.585 0.353,-0.98zm-122.279 19.175c-0.881,0.507 -1.978,0.761 -3.289,0.761 -1.452,0 -2.598,-0.402 -3.436,-1.206 -0.836,-0.804 -1.256,-1.911 -1.256,-3.322 0,-1.419 0.458,-2.575 1.374,-3.47 0.914,-0.896 2.133,-1.343 3.653,-1.343 0.957,0 1.802,0.133 2.531,0.397l0 1.909c-0.697,-0.404 -1.549,-0.604 -2.557,-0.604 -0.845,0 -1.53,0.273 -2.062,0.822 -0.533,0.548 -0.797,1.279 -0.797,2.195 0,0.926 0.238,1.644 0.714,2.154 0.477,0.507 1.12,0.761 1.93,0.761 0.488,0 0.875,-0.069 1.159,-0.206l0 -1.765 -1.806 0 0 -1.626 3.842 0 0 4.543zm2.569 -6.867c-0.335,0 -0.61,-0.099 -0.823,-0.299 -0.215,-0.2 -0.323,-0.443 -0.323,-0.733 0,-0.299 0.108,-0.542 0.323,-0.731 0.213,-0.189 0.488,-0.284 0.823,-0.284 0.342,0 0.617,0.095 0.83,0.284 0.211,0.189 0.318,0.432 0.318,0.731 0,0.301 -0.107,0.551 -0.318,0.744 -0.213,0.191 -0.488,0.288 -0.83,0.288zm0.983 7.471l-1.989 0 0 -6.45 1.989 0 0 6.45zm5.574 -0.075c-0.294,0.155 -0.737,0.232 -1.328,0.232 -1.402,0 -2.105,-0.729 -2.105,-2.184l0 -2.954 -1.045 0 0 -1.469 1.045 0 0 -1.391 1.984 -0.567 0 1.958 1.449 0 0 1.469 -1.449 0 0 2.608c0,0.67 0.267,1.006 0.8,1.006 0.211,0 0.428,-0.06 0.649,-0.183l0 1.475zm9.133 0.075l-2.04 0 0 -3.678 -3.741 0 0 3.678 -2.036 0 0 -9.032 2.036 0 0 3.604 3.741 0 0 -3.604 2.04 0 0 9.032zm8 0l-1.984 0 0 -0.982 -0.03 0c-0.493,0.758 -1.148,1.139 -1.972,1.139 -1.496,0 -2.242,-0.905 -2.242,-2.715l0 -3.892 1.984 0 0 3.715c0,0.912 0.361,1.368 1.084,1.368 0.357,0 0.64,-0.125 0.855,-0.374 0.215,-0.25 0.321,-0.59 0.321,-1.017l0 -3.692 1.984 0 0 6.45zm3.691 -0.75l-0.025 0 0 0.75 -1.989 0 0 -9.548 1.989 0 0 4.068 0.025 0c0.493,-0.75 1.191,-1.127 2.099,-1.127 0.83,0 1.47,0.286 1.92,0.856 0.449,0.572 0.675,1.352 0.675,2.343 0,1.075 -0.263,1.937 -0.787,2.589 -0.527,0.651 -1.228,0.976 -2.105,0.976 -0.793,0 -1.393,-0.301 -1.802,-0.907zm-0.055 -2.72l0 0.66c0,0.417 0.118,0.761 0.359,1.034 0.238,0.273 0.546,0.409 0.92,0.409 0.451,0 0.804,-0.174 1.053,-0.525 0.25,-0.35 0.376,-0.847 0.376,-1.49 0,-0.533 -0.116,-0.95 -0.344,-1.251 -0.23,-0.299 -0.554,-0.449 -0.98,-0.449 -0.398,0 -0.729,0.148 -0.991,0.447 -0.262,0.297 -0.393,0.686 -0.393,1.165z"/>
  </g>
  <path class="fil2" d="M29.195 8.023c-12.642,0 -22.89,10.248 -22.89,22.89 0,10.17 6.637,18.78 15.813,21.763l0.008 0.001 0.373 0c0.536,-0.092 0.976,-0.569 0.976,-1.162l0 -4.292c-0.887,0.126 -1.939,0.257 -2.384,0.236 -1.289,-0.058 -2.481,-0.262 -3.077,-0.62 -0.694,-0.417 -1.67,-1.192 -1.955,-1.812 -0.405,-0.881 -0.499,-1.326 -0.977,-2.098 -0.429,-0.691 -1.169,-1.406 -1.646,-1.668 -0.477,-0.263 -0.93,-0.621 -1.025,-0.859 -0.095,-0.239 0.119,-0.572 0.572,-0.644 0.452,-0.071 1.264,0.072 2.098,0.453 0.632,0.289 1.329,1.107 1.812,1.812 0.572,0.835 1.335,1.694 1.978,2.075 0.644,0.381 1.979,0.572 3.243,0.381 0.491,-0.073 1.001,-0.256 1.444,-0.451 0.178,-1.185 0.705,-2.249 1.492,-3.08 -6.74,-0.825 -10.44,-3.951 -10.44,-10.798 0,-2.641 0.88,-4.82 2.379,-6.528 -0.171,-0.375 -0.349,-0.883 -0.437,-1.526 -0.197,-1.431 0.035,-2.289 0.232,-3.129 0.197,-0.84 0.429,-1.431 0.429,-1.431 0,0 1.055,-0.107 1.949,0.197 0.894,0.305 1.663,0.537 2.772,1.198 0.522,0.312 1.047,0.653 1.462,0.929 1.778,-0.494 3.738,-0.746 5.799,-0.746 2.043,0 3.985,0.251 5.751,0.741 0.413,-0.275 0.935,-0.613 1.453,-0.922 1.11,-0.662 1.879,-0.894 2.773,-1.199 0.893,-0.304 1.949,-0.197 1.949,-0.197 0,0 0.232,0.591 0.429,1.431 0.197,0.84 0.429,1.698 0.232,3.129 -0.086,0.627 -0.259,1.126 -0.424,1.498 1.528,1.719 2.423,3.912 2.423,6.556 0,6.948 -3.744,9.999 -10.435,10.803 0.968,1.024 1.571,2.399 1.571,3.92l0 6.643c0,0.588 0.434,1.063 0.965,1.16l0.386 0c9.178,-2.981 15.817,-11.593 15.817,-21.764 0,-12.642 -10.248,-22.89 -22.89,-22.89zm-14.605 32.878c-0.176,-0.09 -0.271,-0.257 -0.212,-0.375 0.06,-0.118 0.252,-0.14 0.428,-0.049 0.177,0.09 0.271,0.257 0.212,0.375 -0.059,0.118 -0.252,0.14 -0.428,0.049zm1.387 0.864c-0.093,0.101 -0.292,0.069 -0.445,-0.071 -0.154,-0.139 -0.203,-0.335 -0.11,-0.436 0.093,-0.1 0.292,-0.068 0.445,0.071 0.154,0.14 0.203,0.336 0.11,0.436zm0.863 1.431c-0.117,0.083 -0.315,0.006 -0.442,-0.172 -0.127,-0.177 -0.135,-0.389 -0.018,-0.471 0.117,-0.083 0.315,-0.006 0.442,0.171 0.126,0.178 0.135,0.39 0.018,0.472zm1.239 1.077c-0.079,0.128 -0.303,0.134 -0.5,0.014 -0.197,-0.12 -0.293,-0.322 -0.214,-0.45 0.079,-0.128 0.304,-0.134 0.5,-0.014 0.197,0.12 0.293,0.322 0.214,0.45zm1.172 1.054c-0.243,-0.03 -0.424,-0.182 -0.403,-0.34 0.019,-0.158 0.233,-0.261 0.475,-0.231 0.244,0.03 0.425,0.182 0.405,0.34 -0.02,0.157 -0.233,0.261 -0.477,0.231zm1.89 0.274c-0.26,-0.015 -0.462,-0.164 -0.452,-0.331 0.01,-0.167 0.229,-0.292 0.489,-0.277 0.259,0.015 0.462,0.164 0.452,0.331 -0.011,0.168 -0.229,0.292 -0.489,0.277zm1.783 -0.179c-0.277,0 -0.501,-0.144 -0.501,-0.321 0,-0.178 0.224,-0.322 0.501,-0.322 0.277,0 0.501,0.144 0.501,0.322 0,0.177 -0.225,0.321 -0.501,0.321z"/>
  <g>
   <path class="fil2" d="M210.044 63.55l-139.469 0 -0.011 -2.066 139.469 0 0 0 0.011 2.066zm4.318 4.102l-1.97 -0.62 0 0 0.057 -0.2 0.045 -0.195 0.034 -0.191 0.024 -0.184 0.013 -0.179 0.004 -0.173 -0.005 -0.166 -0.014 -0.161 -0.023 -0.154 -0.03 -0.148 -0.038 -0.142 -0.045 -0.136 -0.053 -0.129 -0.059 -0.124 -0.066 -0.118 -0.072 -0.112 -0.079 -0.106 -0.085 -0.101 -0.092 -0.095 -0.098 -0.089 -0.105 -0.085 -0.112 -0.078 -0.119 -0.073 -0.127 -0.067 -0.134 -0.06 -0.142 -0.054 -0.151 -0.048 -0.158 -0.039 -0.167 -0.032 -0.175 -0.023 -0.184 -0.015 -0.192 -0.005 -0.011 -2.066 0.299 0.007 0.293 0.023 0.287 0.039 0.281 0.053 0.274 0.069 0.267 0.083 0.258 0.098 0.25 0.113 0.241 0.127 0.231 0.141 0.22 0.155 0.209 0.167 0.197 0.18 0.185 0.193 0.172 0.202 0.158 0.214 0.145 0.224 0.13 0.233 0.115 0.241 0.101 0.249 0.086 0.256 0.07 0.262 0.055 0.268 0.04 0.273 0.024 0.277 0.009 0.281 -0.006 0.285 -0.022 0.287 -0.037 0.289 -0.052 0.291 -0.068 0.294 -0.083 0.294 0 0zm-4.881 8.831l2.911 -9.451 1.97 0.62 -2.912 9.45 0 0.001 -1.969 -0.62zm-5.322 6.168l-0.011 -2.067 0 0 0.198 -0.005 0.2 -0.015 0.203 -0.025 0.204 -0.035 0.205 -0.044 0.207 -0.054 0.207 -0.064 0.207 -0.073 0.206 -0.082 0.205 -0.091 0.204 -0.1 0.201 -0.108 0.199 -0.116 0.196 -0.124 0.192 -0.132 0.188 -0.139 0.184 -0.145 0.179 -0.153 0.173 -0.158 0.168 -0.164 0.161 -0.169 0.154 -0.175 0.147 -0.178 0.14 -0.184 0.132 -0.187 0.123 -0.19 0.115 -0.193 0.106 -0.196 0.096 -0.198 0.088 -0.2 0.077 -0.202 0.068 -0.202 1.969 0.62 -0.097 0.291 -0.111 0.288 -0.123 0.281 -0.134 0.276 -0.146 0.27 -0.157 0.264 -0.167 0.257 -0.176 0.251 -0.186 0.244 -0.195 0.237 -0.203 0.229 -0.211 0.223 -0.219 0.214 -0.226 0.207 -0.234 0.198 -0.239 0.19 -0.246 0.182 -0.252 0.172 -0.258 0.163 -0.262 0.153 -0.268 0.144 -0.272 0.133 -0.277 0.123 -0.281 0.112 -0.284 0.1 -0.288 0.089 -0.29 0.076 -0.294 0.064 -0.296 0.05 -0.298 0.037 -0.3 0.022 -0.301 0.008 0 0zm-139.48 -2.067l139.469 0 0.011 2.067 -139.469 0 0 0 -0.011 -2.067zm-4.317 -4.101l1.969 0.619 0 0.001 -0.057 0.2 -0.045 0.195 -0.034 0.19 -0.024 0.185 -0.013 0.178 -0.004 0.173 0.005 0.167 0.014 0.161 0.023 0.154 0.03 0.148 0.039 0.142 0.045 0.135 0.052 0.13 0.059 0.124 0.066 0.117 0.072 0.112 0.079 0.106 0.085 0.101 0.092 0.095 0.098 0.09 0.105 0.084 0.112 0.079 0.119 0.072 0.127 0.067 0.134 0.061 0.143 0.054 0.15 0.047 0.158 0.04 0.167 0.031 0.175 0.024 0.184 0.014 0.192 0.005 0.011 2.067 -0.298 -0.008 -0.294 -0.023 -0.287 -0.038 -0.281 -0.054 -0.274 -0.068 -0.266 -0.084 -0.259 -0.098 -0.25 -0.113 -0.241 -0.127 -0.23 -0.141 -0.221 -0.154 -0.209 -0.168 -0.197 -0.18 -0.185 -0.192 -0.171 -0.203 -0.159 -0.214 -0.144 -0.224 -0.13 -0.232 -0.116 -0.241 -0.101 -0.249 -0.086 -0.257 -0.07 -0.262 -0.055 -0.267 -0.04 -0.274 -0.024 -0.276 -0.009 -0.281 0.006 -0.285 0.022 -0.287 0.037 -0.289 0.053 -0.292 0.067 -0.293 0.084 -0.294 0 0zm4.881 -8.831l-2.912 9.45 -1.969 -0.619 2.911 -9.451 0 0 1.97 0.62zm5.321 -6.168l0.011 2.066 0 0 -0.198 0.005 -0.2 0.015 -0.203 0.025 -0.204 0.035 -0.205 0.045 -0.207 0.054 -0.207 0.064 -0.206 0.073 -0.207 0.082 -0.205 0.091 -0.203 0.1 -0.202 0.108 -0.199 0.116 -0.196 0.124 -0.192 0.132 -0.188 0.138 -0.184 0.146 -0.179 0.152 -0.173 0.158 -0.167 0.164 -0.161 0.17 -0.155 0.174 -0.147 0.179 -0.14 0.183 -0.131 0.187 -0.124 0.191 -0.114 0.193 -0.106 0.196 -0.097 0.198 -0.087 0.2 -0.078 0.201 -0.067 0.203 -1.97 -0.62 0.098 -0.292 0.11 -0.287 0.123 -0.282 0.134 -0.276 0.146 -0.269 0.157 -0.264 0.167 -0.258 0.176 -0.25 0.186 -0.244 0.195 -0.237 0.203 -0.23 0.211 -0.222 0.22 -0.215 0.226 -0.206 0.233 -0.199 0.24 -0.19 0.246 -0.181 0.251 -0.172 0.258 -0.163 0.263 -0.154 0.267 -0.143 0.273 -0.134 0.276 -0.123 0.281 -0.111 0.284 -0.101 0.288 -0.088 0.291 -0.076 0.293 -0.064 0.296 -0.051 0.298 -0.036 0.3 -0.023 0.301 -0.007 0 0z"/>
  </g>
  <path class="fil2" d="M74.101 75.871l-1.319 -2.514c-0.132,-0.251 -0.257,-0.458 -0.38,-0.625 -0.121,-0.169 -0.248,-0.302 -0.378,-0.402 -0.129,-0.099 -0.269,-0.172 -0.417,-0.213 -0.151,-0.044 -0.315,-0.065 -0.499,-0.065l-0.964 0 0 3.819 -0.814 0 0 -8.765 2.523 0c0.33,0 0.649,0.048 0.958,0.146 0.307,0.098 0.58,0.242 0.82,0.434 0.24,0.192 0.434,0.432 0.578,0.72 0.145,0.29 0.218,0.626 0.218,1.008 0,0.309 -0.046,0.595 -0.14,0.856 -0.094,0.258 -0.228,0.49 -0.401,0.693 -0.173,0.2 -0.382,0.371 -0.628,0.511 -0.249,0.142 -0.526,0.246 -0.835,0.315l0 0.025c0.119,0.048 0.225,0.113 0.323,0.19 0.098,0.077 0.192,0.171 0.284,0.282 0.092,0.108 0.182,0.236 0.271,0.378 0.09,0.144 0.184,0.306 0.28,0.49l1.472 2.717 -0.952 0zm-3.957 -8.014l0 3.456 1.452 0c0.295,0 0.562,-0.042 0.806,-0.127 0.244,-0.086 0.453,-0.209 0.626,-0.367 0.173,-0.157 0.307,-0.349 0.403,-0.572 0.096,-0.224 0.144,-0.476 0.144,-0.756 0,-0.509 -0.163,-0.908 -0.49,-1.198 -0.328,-0.29 -0.802,-0.436 -1.422,-0.436l-1.519 0z"/>
  <path id="_1" class="fil2" d="M76.787 75.997c-0.163,0 -0.303,-0.057 -0.415,-0.172 -0.115,-0.112 -0.171,-0.252 -0.171,-0.415 0,-0.165 0.056,-0.307 0.167,-0.419 0.112,-0.115 0.252,-0.171 0.419,-0.171 0.081,0 0.157,0.014 0.227,0.045 0.072,0.032 0.134,0.071 0.186,0.122 0.055,0.052 0.096,0.112 0.13,0.185 0.031,0.075 0.048,0.155 0.048,0.238 0,0.082 -0.017,0.159 -0.048,0.23 -0.034,0.071 -0.075,0.133 -0.13,0.185 -0.052,0.053 -0.114,0.095 -0.186,0.126 -0.07,0.031 -0.146,0.046 -0.227,0.046z"/>
  <polygon id="_2" class="fil2" points="81.8,67.857 81.8,75.871 80.986,75.871 80.986,67.857 78.457,67.857 78.457,67.106 84.33,67.106 84.33,67.857 "/>
  <path id="_3" class="fil2" d="M84.724 72.879c0.004,0.384 0.054,0.728 0.153,1.035 0.098,0.304 0.238,0.565 0.421,0.776 0.184,0.213 0.407,0.376 0.67,0.486 0.263,0.113 0.559,0.169 0.889,0.169 0.706,0 1.372,-0.246 2,-0.74l0 0.774c-0.599,0.428 -1.326,0.643 -2.177,0.643 -0.42,0 -0.802,-0.073 -1.144,-0.221 -0.342,-0.147 -0.632,-0.36 -0.874,-0.639 -0.24,-0.28 -0.426,-0.624 -0.556,-1.031 -0.131,-0.409 -0.196,-0.875 -0.196,-1.396 0,-0.47 0.071,-0.904 0.213,-1.305 0.144,-0.398 0.34,-0.745 0.593,-1.037 0.254,-0.292 0.553,-0.52 0.899,-0.685 0.347,-0.165 0.725,-0.248 1.136,-0.248 0.405,0 0.76,0.071 1.071,0.211 0.308,0.142 0.569,0.342 0.778,0.603 0.211,0.261 0.369,0.578 0.48,0.954 0.111,0.375 0.165,0.795 0.165,1.258l0 0.393 -4.521 0zm3.719 -0.689c-0.012,-0.651 -0.167,-1.156 -0.465,-1.515 -0.298,-0.359 -0.714,-0.539 -1.244,-0.539 -0.265,0 -0.511,0.046 -0.739,0.14 -0.225,0.094 -0.425,0.229 -0.597,0.407 -0.171,0.177 -0.313,0.394 -0.425,0.649 -0.113,0.255 -0.19,0.541 -0.236,0.858l3.706 0z"/>
  <path id="_4" class="fil2" d="M94.4 75.871l0 -1.114 -0.025 0c-0.202,0.401 -0.482,0.712 -0.835,0.933 -0.353,0.221 -0.751,0.332 -1.196,0.332 -0.302,0 -0.574,-0.044 -0.816,-0.13 -0.244,-0.085 -0.448,-0.206 -0.618,-0.363 -0.171,-0.158 -0.3,-0.346 -0.392,-0.568 -0.092,-0.221 -0.138,-0.463 -0.138,-0.73 0,-0.568 0.176,-1.021 0.526,-1.357 0.351,-0.338 0.881,-0.557 1.591,-0.659l1.903 -0.276c0,-1.202 -0.467,-1.803 -1.405,-1.803 -0.732,0 -1.413,0.267 -2.039,0.802l0 -0.856c0.132,-0.092 0.28,-0.178 0.445,-0.253 0.167,-0.075 0.342,-0.139 0.526,-0.196 0.184,-0.054 0.373,-0.096 0.568,-0.127 0.196,-0.031 0.384,-0.046 0.569,-0.046 0.7,0 1.23,0.196 1.587,0.586 0.359,0.393 0.538,0.975 0.538,1.751l0 4.074 -0.789 0zm-1.617 -3.04c-0.284,0.039 -0.524,0.089 -0.725,0.152 -0.2,0.06 -0.365,0.144 -0.496,0.248 -0.132,0.105 -0.228,0.232 -0.288,0.384 -0.061,0.155 -0.092,0.343 -0.092,0.568 0,0.167 0.029,0.321 0.09,0.465 0.058,0.142 0.144,0.266 0.256,0.37 0.113,0.104 0.249,0.186 0.411,0.242 0.161,0.056 0.345,0.085 0.549,0.085 0.278,0 0.533,-0.052 0.766,-0.158 0.232,-0.107 0.434,-0.255 0.603,-0.44 0.169,-0.188 0.303,-0.414 0.399,-0.675 0.096,-0.261 0.144,-0.544 0.144,-0.851l0 -0.618 -1.617 0.228z"/>
  <path id="_5" class="fil2" d="M101.231 75.588c-0.466,0.281 -1.027,0.425 -1.688,0.434 -0.449,0.004 -0.854,-0.073 -1.213,-0.232 -0.359,-0.161 -0.664,-0.382 -0.918,-0.664 -0.253,-0.283 -0.447,-0.617 -0.58,-1.004 -0.136,-0.384 -0.203,-0.803 -0.203,-1.256 0,-0.47 0.071,-0.91 0.215,-1.323 0.142,-0.415 0.351,-0.774 0.624,-1.083 0.274,-0.307 0.607,-0.551 1.004,-0.731 0.394,-0.179 0.847,-0.269 1.359,-0.269 0.517,0 0.991,0.1 1.419,0.3l0 0.831c-0.457,-0.302 -0.952,-0.455 -1.484,-0.455 -0.372,0 -0.704,0.071 -0.994,0.211 -0.29,0.142 -0.534,0.334 -0.732,0.576 -0.198,0.242 -0.349,0.526 -0.453,0.851 -0.104,0.324 -0.156,0.668 -0.156,1.032 0,0.333 0.043,0.655 0.131,0.96 0.088,0.306 0.223,0.576 0.405,0.811 0.181,0.234 0.411,0.422 0.688,0.56 0.28,0.14 0.606,0.208 0.984,0.208 0.588,0 1.118,-0.175 1.592,-0.527l0 0.77z"/>
  <path id="_6" class="fil2" d="M106.956 75.871l0 -3.685c0,-0.702 -0.125,-1.219 -0.378,-1.551 -0.252,-0.332 -0.645,-0.499 -1.177,-0.499 -0.25,0 -0.49,0.05 -0.718,0.153 -0.227,0.102 -0.428,0.25 -0.597,0.44 -0.171,0.192 -0.307,0.426 -0.409,0.701 -0.102,0.276 -0.152,0.587 -0.152,0.935l0 3.506 -0.789 0 0 -9.266 0.789 0 0 4.084 0.025 0c0.488,-0.82 1.187,-1.229 2.099,-1.229 0.697,0 1.221,0.215 1.57,0.643 0.351,0.428 0.526,1.06 0.526,1.895l0 3.873 -0.789 0z"/>
  <path id="_7" class="fil2" d="M110.016 68.032c-0.153,0 -0.282,-0.052 -0.393,-0.158 -0.112,-0.107 -0.167,-0.242 -0.167,-0.405 0,-0.159 0.055,-0.29 0.167,-0.395 0.111,-0.104 0.24,-0.156 0.393,-0.156 0.077,0 0.152,0.012 0.221,0.039 0.071,0.028 0.129,0.065 0.181,0.113 0.053,0.05 0.092,0.109 0.124,0.176 0.031,0.066 0.046,0.141 0.046,0.223 0,0.077 -0.015,0.15 -0.044,0.221 -0.028,0.069 -0.069,0.129 -0.124,0.179 -0.052,0.053 -0.112,0.092 -0.179,0.119 -0.069,0.03 -0.144,0.044 -0.225,0.044zm-0.389 7.839l0 -6.261 0.789 0 0 6.261 -0.789 0z"/>
  <path id="_8" class="fil2" d="M116.648 75.871l0 -3.61c0,-1.417 -0.511,-2.125 -1.536,-2.125 -0.271,0 -0.524,0.054 -0.755,0.163 -0.232,0.108 -0.432,0.257 -0.601,0.449 -0.167,0.192 -0.301,0.419 -0.395,0.682 -0.096,0.263 -0.144,0.549 -0.144,0.854l0 3.587 -0.789 0 0 -6.261 0.789 0 0 1.085 0.025 0c0.464,-0.824 1.163,-1.235 2.094,-1.235 0.684,0 1.206,0.221 1.565,0.666 0.357,0.444 0.536,1.087 0.536,1.928l0 3.817 -0.789 0z"/>
  <path id="_9" class="fil2" d="M124.492 75.389c0,1.163 -0.265,2.025 -0.796,2.584 -0.53,0.562 -1.346,0.841 -2.45,0.841 -0.686,0 -1.338,-0.152 -1.951,-0.457l0 -0.795c0.682,0.376 1.331,0.564 1.949,0.564 1.638,0 2.459,-0.864 2.459,-2.591l0 -0.749 -0.025 0c-0.48,0.825 -1.215,1.236 -2.202,1.236 -0.389,0 -0.741,-0.071 -1.063,-0.215 -0.319,-0.142 -0.594,-0.349 -0.822,-0.618 -0.227,-0.269 -0.407,-0.597 -0.532,-0.983 -0.127,-0.384 -0.19,-0.82 -0.19,-1.307 0,-0.513 0.067,-0.98 0.203,-1.404 0.133,-0.422 0.325,-0.785 0.573,-1.086 0.251,-0.302 0.551,-0.536 0.904,-0.701 0.353,-0.165 0.749,-0.248 1.19,-0.248 0.885,0 1.532,0.359 1.939,1.077l0.025 0 0 -0.927 0.789 0 0 5.779zm-0.789 -3.324c0,-0.261 -0.048,-0.51 -0.142,-0.741 -0.094,-0.232 -0.224,-0.437 -0.391,-0.612 -0.169,-0.175 -0.367,-0.315 -0.599,-0.419 -0.229,-0.105 -0.484,-0.157 -0.761,-0.157 -0.328,0 -0.622,0.063 -0.887,0.19 -0.263,0.127 -0.487,0.307 -0.672,0.539 -0.188,0.231 -0.33,0.515 -0.43,0.847 -0.101,0.334 -0.151,0.707 -0.151,1.123 0,0.384 0.048,0.73 0.142,1.041 0.094,0.311 0.226,0.574 0.397,0.789 0.173,0.217 0.38,0.384 0.622,0.503 0.244,0.119 0.515,0.177 0.812,0.177 0.311,0 0.593,-0.056 0.847,-0.169 0.253,-0.11 0.47,-0.267 0.649,-0.465 0.18,-0.196 0.319,-0.43 0.418,-0.697 0.098,-0.267 0.146,-0.555 0.146,-0.866l0 -1.083z"/>
  <path id="_10" class="fil2" d="M131.406 75.871l-1.319 -2.514c-0.131,-0.251 -0.257,-0.458 -0.38,-0.625 -0.121,-0.169 -0.248,-0.302 -0.377,-0.402 -0.13,-0.099 -0.27,-0.172 -0.418,-0.213 -0.15,-0.044 -0.315,-0.065 -0.499,-0.065l-0.964 0 0 3.819 -0.814 0 0 -8.765 2.523 0c0.33,0 0.65,0.048 0.958,0.146 0.307,0.098 0.581,0.242 0.821,0.434 0.24,0.192 0.434,0.432 0.578,0.72 0.144,0.29 0.217,0.626 0.217,1.008 0,0.309 -0.046,0.595 -0.14,0.856 -0.094,0.258 -0.228,0.49 -0.401,0.693 -0.173,0.2 -0.382,0.371 -0.628,0.511 -0.248,0.142 -0.526,0.246 -0.835,0.315l0 0.025c0.119,0.048 0.226,0.113 0.324,0.19 0.098,0.077 0.192,0.171 0.283,0.282 0.092,0.108 0.182,0.236 0.272,0.378 0.09,0.144 0.183,0.306 0.279,0.49l1.472 2.717 -0.952 0zm-3.957 -8.014l0 3.456 1.453 0c0.294,0 0.561,-0.042 0.805,-0.127 0.244,-0.086 0.453,-0.209 0.626,-0.367 0.174,-0.157 0.307,-0.349 0.403,-0.572 0.096,-0.224 0.144,-0.476 0.144,-0.756 0,-0.509 -0.163,-0.908 -0.49,-1.198 -0.328,-0.29 -0.802,-0.436 -1.422,-0.436l-1.519 0z"/>
  <path id="_11" class="fil2" d="M133.746 72.879c0.004,0.384 0.054,0.728 0.152,1.035 0.098,0.304 0.238,0.565 0.422,0.776 0.183,0.213 0.407,0.376 0.67,0.486 0.263,0.113 0.559,0.169 0.889,0.169 0.705,0 1.371,-0.246 1.999,-0.74l0 0.774c-0.599,0.428 -1.325,0.643 -2.177,0.643 -0.419,0 -0.801,-0.073 -1.143,-0.221 -0.343,-0.147 -0.633,-0.36 -0.875,-0.639 -0.24,-0.28 -0.426,-0.624 -0.555,-1.031 -0.131,-0.409 -0.196,-0.875 -0.196,-1.396 0,-0.47 0.071,-0.904 0.213,-1.305 0.144,-0.398 0.34,-0.745 0.592,-1.037 0.255,-0.292 0.553,-0.52 0.9,-0.685 0.346,-0.165 0.724,-0.248 1.135,-0.248 0.405,0 0.76,0.071 1.071,0.211 0.309,0.142 0.57,0.342 0.779,0.603 0.21,0.261 0.369,0.578 0.48,0.954 0.11,0.375 0.164,0.795 0.164,1.258l0 0.393 -4.52 0zm3.719 -0.689c-0.012,-0.651 -0.167,-1.156 -0.465,-1.515 -0.299,-0.359 -0.714,-0.539 -1.244,-0.539 -0.265,0 -0.512,0.046 -0.739,0.14 -0.226,0.094 -0.426,0.229 -0.597,0.407 -0.171,0.177 -0.313,0.394 -0.426,0.649 -0.113,0.255 -0.19,0.541 -0.236,0.858l3.707 0z"/>
  <path id="_12" class="fil2" d="M139.464 74.747c0.119,0.093 0.247,0.177 0.384,0.25 0.138,0.073 0.282,0.136 0.428,0.19 0.146,0.052 0.292,0.092 0.443,0.119 0.148,0.027 0.288,0.039 0.423,0.039 0.927,0 1.39,-0.348 1.39,-1.043 0,-0.159 -0.033,-0.296 -0.098,-0.413 -0.064,-0.117 -0.158,-0.224 -0.279,-0.32 -0.123,-0.096 -0.27,-0.183 -0.441,-0.265 -0.171,-0.081 -0.365,-0.167 -0.58,-0.256 -0.29,-0.119 -0.538,-0.24 -0.747,-0.361 -0.207,-0.124 -0.378,-0.257 -0.513,-0.401 -0.134,-0.146 -0.234,-0.305 -0.299,-0.478 -0.065,-0.173 -0.098,-0.372 -0.098,-0.591 0,-0.277 0.06,-0.526 0.179,-0.741 0.122,-0.217 0.282,-0.4 0.485,-0.551 0.204,-0.15 0.438,-0.267 0.703,-0.346 0.267,-0.079 0.547,-0.119 0.839,-0.119 0.541,0 1.01,0.102 1.413,0.305l0 0.824c-0.468,-0.303 -0.973,-0.453 -1.513,-0.453 -0.194,0 -0.372,0.025 -0.532,0.073 -0.161,0.05 -0.299,0.119 -0.414,0.209 -0.112,0.09 -0.202,0.198 -0.265,0.323 -0.062,0.126 -0.094,0.263 -0.094,0.414 0,0.156 0.025,0.292 0.073,0.407 0.051,0.116 0.126,0.223 0.23,0.317 0.104,0.092 0.238,0.181 0.403,0.269 0.165,0.086 0.365,0.178 0.603,0.276 0.3,0.121 0.561,0.242 0.78,0.363 0.222,0.121 0.403,0.25 0.545,0.392 0.142,0.14 0.249,0.297 0.317,0.472 0.069,0.173 0.105,0.373 0.105,0.601 0,0.282 -0.059,0.534 -0.173,0.753 -0.117,0.222 -0.278,0.407 -0.483,0.558 -0.204,0.15 -0.446,0.265 -0.722,0.342 -0.275,0.077 -0.576,0.117 -0.901,0.117 -0.631,0 -1.161,-0.134 -1.591,-0.399l0 -0.876z"/>
  <path id="_13" class="fil2" d="M145.267 72.879c0.004,0.384 0.054,0.728 0.152,1.035 0.098,0.304 0.238,0.565 0.422,0.776 0.183,0.213 0.407,0.376 0.669,0.486 0.263,0.113 0.56,0.169 0.89,0.169 0.705,0 1.371,-0.246 1.999,-0.74l0 0.774c-0.599,0.428 -1.325,0.643 -2.177,0.643 -0.419,0 -0.801,-0.073 -1.144,-0.221 -0.342,-0.147 -0.632,-0.36 -0.874,-0.639 -0.24,-0.28 -0.426,-0.624 -0.555,-1.031 -0.132,-0.409 -0.196,-0.875 -0.196,-1.396 0,-0.47 0.07,-0.904 0.212,-1.305 0.145,-0.398 0.341,-0.745 0.593,-1.037 0.255,-0.292 0.553,-0.52 0.9,-0.685 0.346,-0.165 0.724,-0.248 1.135,-0.248 0.405,0 0.76,0.071 1.071,0.211 0.309,0.142 0.57,0.342 0.778,0.603 0.211,0.261 0.37,0.578 0.48,0.954 0.111,0.375 0.165,0.795 0.165,1.258l0 0.393 -4.52 0zm3.719 -0.689c-0.013,-0.651 -0.167,-1.156 -0.466,-1.515 -0.298,-0.359 -0.713,-0.539 -1.244,-0.539 -0.265,0 -0.511,0.046 -0.738,0.14 -0.226,0.094 -0.426,0.229 -0.597,0.407 -0.171,0.177 -0.313,0.394 -0.426,0.649 -0.113,0.255 -0.19,0.541 -0.236,0.858l3.707 0z"/>
  <path id="_14" class="fil2" d="M154.942 75.871l0 -1.114 -0.025 0c-0.202,0.401 -0.482,0.712 -0.835,0.933 -0.352,0.221 -0.751,0.332 -1.195,0.332 -0.303,0 -0.574,-0.044 -0.816,-0.13 -0.245,-0.085 -0.449,-0.206 -0.618,-0.363 -0.171,-0.158 -0.301,-0.346 -0.393,-0.568 -0.092,-0.221 -0.137,-0.463 -0.137,-0.73 0,-0.568 0.175,-1.021 0.526,-1.357 0.35,-0.338 0.88,-0.557 1.59,-0.659l1.903 -0.276c0,-1.202 -0.467,-1.803 -1.404,-1.803 -0.733,0 -1.413,0.267 -2.039,0.802l0 -0.856c0.131,-0.092 0.279,-0.178 0.444,-0.253 0.167,-0.075 0.343,-0.139 0.526,-0.196 0.184,-0.054 0.374,-0.096 0.568,-0.127 0.196,-0.031 0.384,-0.046 0.57,-0.046 0.699,0 1.229,0.196 1.586,0.586 0.359,0.393 0.538,0.975 0.538,1.751l0 4.074 -0.789 0zm-1.617 -3.04c-0.284,0.039 -0.524,0.089 -0.724,0.152 -0.201,0.06 -0.366,0.144 -0.497,0.248 -0.132,0.105 -0.228,0.232 -0.288,0.384 -0.061,0.155 -0.092,0.343 -0.092,0.568 0,0.167 0.029,0.321 0.09,0.465 0.058,0.142 0.144,0.266 0.257,0.37 0.112,0.104 0.248,0.186 0.411,0.242 0.16,0.056 0.344,0.085 0.549,0.085 0.277,0 0.532,-0.052 0.766,-0.158 0.231,-0.107 0.434,-0.255 0.603,-0.44 0.169,-0.188 0.302,-0.414 0.398,-0.675 0.096,-0.261 0.144,-0.544 0.144,-0.851l0 -0.618 -1.617 0.228z"/>
  <path id="_15" class="fil2" d="M160.715 70.414c-0.183,-0.136 -0.419,-0.203 -0.709,-0.203 -0.207,0 -0.391,0.04 -0.549,0.119 -0.161,0.079 -0.299,0.186 -0.42,0.322 -0.121,0.133 -0.221,0.29 -0.305,0.467 -0.085,0.178 -0.152,0.361 -0.202,0.553 -0.052,0.192 -0.088,0.386 -0.111,0.58 -0.023,0.197 -0.033,0.382 -0.033,0.558l0 3.061 -0.776 0 0 -6.261 0.776 0 0 1.342 0.025 0c0.073,-0.227 0.165,-0.434 0.278,-0.613 0.112,-0.182 0.242,-0.337 0.388,-0.46 0.146,-0.125 0.307,-0.219 0.48,-0.283 0.173,-0.065 0.355,-0.098 0.547,-0.098 0.127,0 0.24,0.008 0.34,0.024 0.098,0.015 0.19,0.04 0.271,0.074l0 0.818z"/>
  <path id="_16" class="fil2" d="M165.852 75.588c-0.466,0.281 -1.027,0.425 -1.689,0.434 -0.449,0.004 -0.854,-0.073 -1.213,-0.232 -0.359,-0.161 -0.663,-0.382 -0.918,-0.664 -0.252,-0.283 -0.447,-0.617 -0.58,-1.004 -0.136,-0.384 -0.203,-0.803 -0.203,-1.256 0,-0.47 0.071,-0.91 0.215,-1.323 0.142,-0.415 0.351,-0.774 0.624,-1.083 0.274,-0.307 0.608,-0.551 1.004,-0.731 0.395,-0.179 0.848,-0.269 1.359,-0.269 0.518,0 0.991,0.1 1.419,0.3l0 0.831c-0.457,-0.302 -0.952,-0.455 -1.484,-0.455 -0.371,0 -0.703,0.071 -0.993,0.211 -0.29,0.142 -0.535,0.334 -0.733,0.576 -0.198,0.242 -0.348,0.526 -0.453,0.851 -0.104,0.324 -0.156,0.668 -0.156,1.032 0,0.333 0.044,0.655 0.131,0.96 0.088,0.306 0.224,0.576 0.405,0.811 0.182,0.234 0.411,0.422 0.689,0.56 0.28,0.14 0.605,0.208 0.983,0.208 0.589,0 1.119,-0.175 1.593,-0.527l0 0.77z"/>
  <path id="_17" class="fil2" d="M171.576 75.871l0 -3.685c0,-0.702 -0.125,-1.219 -0.377,-1.551 -0.253,-0.332 -0.645,-0.499 -1.177,-0.499 -0.251,0 -0.491,0.05 -0.718,0.153 -0.228,0.102 -0.428,0.25 -0.597,0.44 -0.172,0.192 -0.307,0.426 -0.409,0.701 -0.103,0.276 -0.153,0.587 -0.153,0.935l0 3.506 -0.789 0 0 -9.266 0.789 0 0 4.084 0.025 0c0.489,-0.82 1.188,-1.229 2.1,-1.229 0.697,0 1.221,0.215 1.569,0.643 0.351,0.428 0.526,1.06 0.526,1.895l0 3.873 -0.789 0z"/>
  <path id="_18" class="fil2" d="M180.822 75.262c-0.901,0.507 -1.857,0.76 -2.865,0.76 -0.637,0 -1.209,-0.109 -1.716,-0.328 -0.505,-0.217 -0.937,-0.522 -1.292,-0.91 -0.355,-0.39 -0.628,-0.854 -0.818,-1.394 -0.19,-0.541 -0.284,-1.133 -0.284,-1.782 0,-0.428 0.046,-0.839 0.138,-1.236 0.092,-0.394 0.227,-0.766 0.405,-1.112 0.177,-0.347 0.394,-0.66 0.651,-0.942 0.259,-0.281 0.553,-0.524 0.885,-0.726 0.334,-0.205 0.701,-0.361 1.1,-0.472 0.401,-0.11 0.833,-0.165 1.294,-0.165 0.868,0 1.645,0.155 2.327,0.464l0 0.897c-0.751,-0.415 -1.559,-0.622 -2.425,-0.622 -0.537,0 -1.019,0.098 -1.453,0.294 -0.432,0.195 -0.801,0.464 -1.106,0.806 -0.303,0.342 -0.538,0.747 -0.708,1.215 -0.167,0.467 -0.252,0.972 -0.256,1.519 -0.004,0.543 0.066,1.044 0.211,1.501 0.146,0.459 0.361,0.855 0.647,1.189 0.285,0.334 0.638,0.595 1.058,0.783 0.421,0.188 0.908,0.282 1.459,0.282 0.743,0 1.388,-0.154 1.934,-0.465l0 -2.678 -1.991 0 0 -0.739 2.805 0 0 3.861z"/>
  <path id="_19" class="fil2" d="M186.818 75.871l0 -1.06 -0.025 0c-0.423,0.808 -1.081,1.211 -1.974,1.211 -1.488,0 -2.233,-0.91 -2.233,-2.728l0 -3.684 0.789 0 0 3.534c0,0.751 0.133,1.304 0.4,1.663 0.265,0.359 0.675,0.538 1.223,0.538 0.27,0 0.514,-0.052 0.737,-0.156 0.221,-0.104 0.413,-0.25 0.574,-0.44 0.161,-0.188 0.286,-0.416 0.376,-0.681 0.09,-0.265 0.133,-0.559 0.133,-0.88l0 -3.578 0.789 0 0 6.261 -0.789 0z"/>
  <path id="_20" class="fil2" d="M190.01 68.032c-0.153,0 -0.282,-0.052 -0.393,-0.158 -0.112,-0.107 -0.167,-0.242 -0.167,-0.405 0,-0.159 0.055,-0.29 0.167,-0.395 0.111,-0.104 0.24,-0.156 0.393,-0.156 0.077,0 0.152,0.012 0.221,0.039 0.071,0.028 0.129,0.065 0.181,0.113 0.053,0.05 0.092,0.109 0.124,0.176 0.031,0.066 0.046,0.141 0.046,0.223 0,0.077 -0.015,0.15 -0.044,0.221 -0.028,0.069 -0.069,0.129 -0.124,0.179 -0.052,0.053 -0.112,0.092 -0.179,0.119 -0.069,0.03 -0.144,0.044 -0.225,0.044zm-0.389 7.839l0 -6.261 0.789 0 0 6.261 -0.789 0z"/>
  <path id="_21" class="fil2" d="M196.805 75.871l0 -1.097 -0.025 0c-0.206,0.394 -0.505,0.703 -0.889,0.92 -0.386,0.219 -0.824,0.328 -1.313,0.328 -0.392,0 -0.747,-0.073 -1.068,-0.217 -0.32,-0.146 -0.595,-0.355 -0.823,-0.629 -0.227,-0.273 -0.405,-0.603 -0.53,-0.991 -0.123,-0.388 -0.186,-0.826 -0.186,-1.315 0,-0.507 0.069,-0.968 0.205,-1.388 0.138,-0.417 0.332,-0.776 0.582,-1.077 0.251,-0.3 0.553,-0.532 0.906,-0.697 0.353,-0.165 0.745,-0.248 1.177,-0.248 0.902,0 1.549,0.361 1.939,1.083l0.025 0 0 -3.938 0.789 0 0 9.266 -0.789 0zm0 -3.781c0,-0.274 -0.048,-0.531 -0.142,-0.766 -0.094,-0.236 -0.223,-0.443 -0.39,-0.618 -0.169,-0.175 -0.369,-0.315 -0.605,-0.417 -0.234,-0.103 -0.493,-0.153 -0.775,-0.153 -0.311,0 -0.597,0.061 -0.857,0.184 -0.261,0.123 -0.487,0.298 -0.672,0.53 -0.186,0.229 -0.33,0.511 -0.435,0.841 -0.104,0.33 -0.156,0.705 -0.156,1.127 0,0.394 0.048,0.749 0.142,1.064 0.094,0.316 0.227,0.581 0.401,0.796 0.173,0.217 0.379,0.382 0.622,0.496 0.239,0.115 0.509,0.171 0.801,0.171 0.319,0 0.607,-0.056 0.862,-0.171 0.255,-0.114 0.472,-0.271 0.649,-0.471 0.177,-0.201 0.315,-0.434 0.411,-0.704 0.096,-0.269 0.144,-0.557 0.144,-0.864l0 -1.045z"/>
  <path id="_22" class="fil2" d="M199.976 72.879c0.004,0.384 0.054,0.728 0.152,1.035 0.098,0.304 0.238,0.565 0.421,0.776 0.184,0.213 0.407,0.376 0.67,0.486 0.263,0.113 0.56,0.169 0.89,0.169 0.705,0 1.371,-0.246 1.999,-0.74l0 0.774c-0.599,0.428 -1.325,0.643 -2.177,0.643 -0.419,0 -0.801,-0.073 -1.144,-0.221 -0.342,-0.147 -0.632,-0.36 -0.874,-0.639 -0.24,-0.28 -0.426,-0.624 -0.555,-1.031 -0.132,-0.409 -0.196,-0.875 -0.196,-1.396 0,-0.47 0.07,-0.904 0.212,-1.305 0.144,-0.398 0.341,-0.745 0.593,-1.037 0.255,-0.292 0.553,-0.52 0.9,-0.685 0.346,-0.165 0.724,-0.248 1.135,-0.248 0.405,0 0.76,0.071 1.071,0.211 0.309,0.142 0.569,0.342 0.778,0.603 0.211,0.261 0.37,0.578 0.48,0.954 0.111,0.375 0.165,0.795 0.165,1.258l0 0.393 -4.52 0zm3.719 -0.689c-0.013,-0.651 -0.167,-1.156 -0.466,-1.515 -0.298,-0.359 -0.713,-0.539 -1.244,-0.539 -0.265,0 -0.511,0.046 -0.738,0.14 -0.226,0.094 -0.426,0.229 -0.597,0.407 -0.171,0.177 -0.313,0.394 -0.426,0.649 -0.113,0.255 -0.19,0.541 -0.236,0.858l3.707 0z"/>
  <g>
   <path id="_23" class="fil3 str0" d="M74.101 75.871l-1.319 -2.514c-0.132,-0.251 -0.257,-0.458 -0.38,-0.625 -0.121,-0.169 -0.248,-0.302 -0.378,-0.402 -0.129,-0.099 -0.269,-0.172 -0.417,-0.213 -0.151,-0.044 -0.315,-0.065 -0.499,-0.065l-0.964 0 0 3.819 -0.814 0 0 -8.765 2.523 0c0.33,0 0.649,0.048 0.958,0.146 0.307,0.098 0.58,0.242 0.82,0.434 0.24,0.192 0.434,0.432 0.578,0.72 0.145,0.29 0.218,0.626 0.218,1.008 0,0.309 -0.046,0.595 -0.14,0.856 -0.094,0.258 -0.228,0.49 -0.401,0.693 -0.173,0.2 -0.382,0.371 -0.628,0.511 -0.249,0.142 -0.526,0.246 -0.835,0.315l0 0.025c0.119,0.048 0.225,0.113 0.323,0.19 0.098,0.077 0.192,0.171 0.284,0.282 0.092,0.108 0.182,0.236 0.271,0.378 0.09,0.144 0.184,0.306 0.28,0.49l1.472 2.717 -0.952 0zm-3.957 -8.014l0 3.456 1.452 0c0.295,0 0.562,-0.042 0.806,-0.127 0.244,-0.086 0.453,-0.209 0.626,-0.367 0.173,-0.157 0.307,-0.349 0.403,-0.572 0.096,-0.224 0.144,-0.476 0.144,-0.756 0,-0.509 -0.163,-0.908 -0.49,-1.198 -0.328,-0.29 -0.802,-0.436 -1.422,-0.436l-1.519 0z"/>
  </g>
  <g>
   <path id="_24" class="fil3 str0" d="M76.787 75.997c-0.163,0 -0.303,-0.057 -0.415,-0.172 -0.115,-0.112 -0.171,-0.252 -0.171,-0.415 0,-0.165 0.056,-0.307 0.167,-0.419 0.112,-0.115 0.252,-0.171 0.419,-0.171 0.081,0 0.157,0.014 0.227,0.045 0.072,0.032 0.134,0.071 0.186,0.122 0.055,0.052 0.096,0.112 0.13,0.185 0.031,0.075 0.048,0.155 0.048,0.238 0,0.082 -0.017,0.159 -0.048,0.23 -0.034,0.071 -0.075,0.133 -0.13,0.185 -0.052,0.053 -0.114,0.095 -0.186,0.126 -0.07,0.031 -0.146,0.046 -0.227,0.046z"/>
  </g>
  <g>
   <polygon id="_25" class="fil3 str0" points="81.8,67.857 81.8,75.871 80.986,75.871 80.986,67.857 78.457,67.857 78.457,67.106 84.33,67.106 84.33,67.857 "/>
  </g>
  <g>
   <path id="_26" class="fil3 str0" d="M84.724 72.879c0.004,0.384 0.054,0.728 0.153,1.035 0.098,0.304 0.238,0.565 0.421,0.776 0.184,0.213 0.407,0.376 0.67,0.486 0.263,0.113 0.559,0.169 0.889,0.169 0.706,0 1.372,-0.246 2,-0.74l0 0.774c-0.599,0.428 -1.326,0.643 -2.177,0.643 -0.42,0 -0.802,-0.073 -1.144,-0.221 -0.342,-0.147 -0.632,-0.36 -0.874,-0.639 -0.24,-0.28 -0.426,-0.624 -0.556,-1.031 -0.131,-0.409 -0.196,-0.875 -0.196,-1.396 0,-0.47 0.071,-0.904 0.213,-1.305 0.144,-0.398 0.34,-0.745 0.593,-1.037 0.254,-0.292 0.553,-0.52 0.899,-0.685 0.347,-0.165 0.725,-0.248 1.136,-0.248 0.405,0 0.76,0.071 1.071,0.211 0.308,0.142 0.569,0.342 0.778,0.603 0.211,0.261 0.369,0.578 0.48,0.954 0.111,0.375 0.165,0.795 0.165,1.258l0 0.393 -4.521 0zm3.719 -0.689c-0.012,-0.651 -0.167,-1.156 -0.465,-1.515 -0.298,-0.359 -0.714,-0.539 -1.244,-0.539 -0.265,0 -0.511,0.046 -0.739,0.14 -0.225,0.094 -0.425,0.229 -0.597,0.407 -0.171,0.177 -0.313,0.394 -0.425,0.649 -0.113,0.255 -0.19,0.541 -0.236,0.858l3.706 0z"/>
  </g>
  <g>
   <path id="_27" class="fil3 str0" d="M94.4 75.871l0 -1.114 -0.025 0c-0.202,0.401 -0.482,0.712 -0.835,0.933 -0.353,0.221 -0.751,0.332 -1.196,0.332 -0.302,0 -0.574,-0.044 -0.816,-0.13 -0.244,-0.085 -0.448,-0.206 -0.618,-0.363 -0.171,-0.158 -0.3,-0.346 -0.392,-0.568 -0.092,-0.221 -0.138,-0.463 -0.138,-0.73 0,-0.568 0.176,-1.021 0.526,-1.357 0.351,-0.338 0.881,-0.557 1.591,-0.659l1.903 -0.276c0,-1.202 -0.467,-1.803 -1.405,-1.803 -0.732,0 -1.413,0.267 -2.039,0.802l0 -0.856c0.132,-0.092 0.28,-0.178 0.445,-0.253 0.167,-0.075 0.342,-0.139 0.526,-0.196 0.184,-0.054 0.373,-0.096 0.568,-0.127 0.196,-0.031 0.384,-0.046 0.569,-0.046 0.7,0 1.23,0.196 1.587,0.586 0.359,0.393 0.538,0.975 0.538,1.751l0 4.074 -0.789 0zm-1.617 -3.04c-0.284,0.039 -0.524,0.089 -0.725,0.152 -0.2,0.06 -0.365,0.144 -0.496,0.248 -0.132,0.105 -0.228,0.232 -0.288,0.384 -0.061,0.155 -0.092,0.343 -0.092,0.568 0,0.167 0.029,0.321 0.09,0.465 0.058,0.142 0.144,0.266 0.256,0.37 0.113,0.104 0.249,0.186 0.411,0.242 0.161,0.056 0.345,0.085 0.549,0.085 0.278,0 0.533,-0.052 0.766,-0.158 0.232,-0.107 0.434,-0.255 0.603,-0.44 0.169,-0.188 0.303,-0.414 0.399,-0.675 0.096,-0.261 0.144,-0.544 0.144,-0.851l0 -0.618 -1.617 0.228z"/>
  </g>
  <g>
   <path id="_28" class="fil3 str0" d="M101.231 75.588c-0.466,0.281 -1.027,0.425 -1.688,0.434 -0.449,0.004 -0.854,-0.073 -1.213,-0.232 -0.359,-0.161 -0.664,-0.382 -0.918,-0.664 -0.253,-0.283 -0.447,-0.617 -0.58,-1.004 -0.136,-0.384 -0.203,-0.803 -0.203,-1.256 0,-0.47 0.071,-0.91 0.215,-1.323 0.142,-0.415 0.351,-0.774 0.624,-1.083 0.274,-0.307 0.607,-0.551 1.004,-0.731 0.394,-0.179 0.847,-0.269 1.359,-0.269 0.517,0 0.991,0.1 1.419,0.3l0 0.831c-0.457,-0.302 -0.952,-0.455 -1.484,-0.455 -0.372,0 -0.704,0.071 -0.994,0.211 -0.29,0.142 -0.534,0.334 -0.732,0.576 -0.198,0.242 -0.349,0.526 -0.453,0.851 -0.104,0.324 -0.156,0.668 -0.156,1.032 0,0.333 0.043,0.655 0.131,0.96 0.088,0.306 0.223,0.576 0.405,0.811 0.181,0.234 0.411,0.422 0.688,0.56 0.28,0.14 0.606,0.208 0.984,0.208 0.588,0 1.118,-0.175 1.592,-0.527l0 0.77z"/>
  </g>
  <g>
   <path id="_29" class="fil3 str0" d="M106.956 75.871l0 -3.685c0,-0.702 -0.125,-1.219 -0.378,-1.551 -0.252,-0.332 -0.645,-0.499 -1.177,-0.499 -0.25,0 -0.49,0.05 -0.718,0.153 -0.227,0.102 -0.428,0.25 -0.597,0.44 -0.171,0.192 -0.307,0.426 -0.409,0.701 -0.102,0.276 -0.152,0.587 -0.152,0.935l0 3.506 -0.789 0 0 -9.266 0.789 0 0 4.084 0.025 0c0.488,-0.82 1.187,-1.229 2.099,-1.229 0.697,0 1.221,0.215 1.57,0.643 0.351,0.428 0.526,1.06 0.526,1.895l0 3.873 -0.789 0z"/>
  </g>
  <g>
   <path id="_30" class="fil3 str0" d="M110.016 68.032c-0.153,0 -0.282,-0.052 -0.393,-0.158 -0.112,-0.107 -0.167,-0.242 -0.167,-0.405 0,-0.159 0.055,-0.29 0.167,-0.395 0.111,-0.104 0.24,-0.156 0.393,-0.156 0.077,0 0.152,0.012 0.221,0.039 0.071,0.028 0.129,0.065 0.181,0.113 0.053,0.05 0.092,0.109 0.124,0.176 0.031,0.066 0.046,0.141 0.046,0.223 0,0.077 -0.015,0.15 -0.044,0.221 -0.028,0.069 -0.069,0.129 -0.124,0.179 -0.052,0.053 -0.112,0.092 -0.179,0.119 -0.069,0.03 -0.144,0.044 -0.225,0.044zm-0.389 7.839l0 -6.261 0.789 0 0 6.261 -0.789 0z"/>
  </g>
  <g>
   <path id="_31" class="fil3 str0" d="M116.648 75.871l0 -3.61c0,-1.417 -0.511,-2.125 -1.536,-2.125 -0.271,0 -0.524,0.054 -0.755,0.163 -0.232,0.108 -0.432,0.257 -0.601,0.449 -0.167,0.192 -0.301,0.419 -0.395,0.682 -0.096,0.263 -0.144,0.549 -0.144,0.854l0 3.587 -0.789 0 0 -6.261 0.789 0 0 1.085 0.025 0c0.464,-0.824 1.163,-1.235 2.094,-1.235 0.684,0 1.206,0.221 1.565,0.666 0.357,0.444 0.536,1.087 0.536,1.928l0 3.817 -0.789 0z"/>
  </g>
  <g>
   <path id="_32" class="fil3 str0" d="M124.492 75.389c0,1.163 -0.265,2.025 -0.796,2.584 -0.53,0.562 -1.346,0.841 -2.45,0.841 -0.686,0 -1.338,-0.152 -1.951,-0.457l0 -0.795c0.682,0.376 1.331,0.564 1.949,0.564 1.638,0 2.459,-0.864 2.459,-2.591l0 -0.749 -0.025 0c-0.48,0.825 -1.215,1.236 -2.202,1.236 -0.389,0 -0.741,-0.071 -1.063,-0.215 -0.319,-0.142 -0.594,-0.349 -0.822,-0.618 -0.227,-0.269 -0.407,-0.597 -0.532,-0.983 -0.127,-0.384 -0.19,-0.82 -0.19,-1.307 0,-0.513 0.067,-0.98 0.203,-1.404 0.133,-0.422 0.325,-0.785 0.573,-1.086 0.251,-0.302 0.551,-0.536 0.904,-0.701 0.353,-0.165 0.749,-0.248 1.19,-0.248 0.885,0 1.532,0.359 1.939,1.077l0.025 0 0 -0.927 0.789 0 0 5.779zm-0.789 -3.324c0,-0.261 -0.048,-0.51 -0.142,-0.741 -0.094,-0.232 -0.224,-0.437 -0.391,-0.612 -0.169,-0.175 -0.367,-0.315 -0.599,-0.419 -0.229,-0.105 -0.484,-0.157 -0.761,-0.157 -0.328,0 -0.622,0.063 -0.887,0.19 -0.263,0.127 -0.487,0.307 -0.672,0.539 -0.188,0.231 -0.33,0.515 -0.43,0.847 -0.101,0.334 -0.151,0.707 -0.151,1.123 0,0.384 0.048,0.73 0.142,1.041 0.094,0.311 0.226,0.574 0.397,0.789 0.173,0.217 0.38,0.384 0.622,0.503 0.244,0.119 0.515,0.177 0.812,0.177 0.311,0 0.593,-0.056 0.847,-0.169 0.253,-0.11 0.47,-0.267 0.649,-0.465 0.18,-0.196 0.319,-0.43 0.418,-0.697 0.098,-0.267 0.146,-0.555 0.146,-0.866l0 -1.083z"/>
  </g>
  <g>
   <path id="_33" class="fil3 str0" d="M131.406 75.871l-1.319 -2.514c-0.131,-0.251 -0.257,-0.458 -0.38,-0.625 -0.121,-0.169 -0.248,-0.302 -0.377,-0.402 -0.13,-0.099 -0.27,-0.172 -0.418,-0.213 -0.15,-0.044 -0.315,-0.065 -0.499,-0.065l-0.964 0 0 3.819 -0.814 0 0 -8.765 2.523 0c0.33,0 0.65,0.048 0.958,0.146 0.307,0.098 0.581,0.242 0.821,0.434 0.24,0.192 0.434,0.432 0.578,0.72 0.144,0.29 0.217,0.626 0.217,1.008 0,0.309 -0.046,0.595 -0.14,0.856 -0.094,0.258 -0.228,0.49 -0.401,0.693 -0.173,0.2 -0.382,0.371 -0.628,0.511 -0.248,0.142 -0.526,0.246 -0.835,0.315l0 0.025c0.119,0.048 0.226,0.113 0.324,0.19 0.098,0.077 0.192,0.171 0.283,0.282 0.092,0.108 0.182,0.236 0.272,0.378 0.09,0.144 0.183,0.306 0.279,0.49l1.472 2.717 -0.952 0zm-3.957 -8.014l0 3.456 1.453 0c0.294,0 0.561,-0.042 0.805,-0.127 0.244,-0.086 0.453,-0.209 0.626,-0.367 0.174,-0.157 0.307,-0.349 0.403,-0.572 0.096,-0.224 0.144,-0.476 0.144,-0.756 0,-0.509 -0.163,-0.908 -0.49,-1.198 -0.328,-0.29 -0.802,-0.436 -1.422,-0.436l-1.519 0z"/>
  </g>
  <g>
   <path id="_34" class="fil3 str0" d="M133.746 72.879c0.004,0.384 0.054,0.728 0.152,1.035 0.098,0.304 0.238,0.565 0.422,0.776 0.183,0.213 0.407,0.376 0.67,0.486 0.263,0.113 0.559,0.169 0.889,0.169 0.705,0 1.371,-0.246 1.999,-0.74l0 0.774c-0.599,0.428 -1.325,0.643 -2.177,0.643 -0.419,0 -0.801,-0.073 -1.143,-0.221 -0.343,-0.147 -0.633,-0.36 -0.875,-0.639 -0.24,-0.28 -0.426,-0.624 -0.555,-1.031 -0.131,-0.409 -0.196,-0.875 -0.196,-1.396 0,-0.47 0.071,-0.904 0.213,-1.305 0.144,-0.398 0.34,-0.745 0.592,-1.037 0.255,-0.292 0.553,-0.52 0.9,-0.685 0.346,-0.165 0.724,-0.248 1.135,-0.248 0.405,0 0.76,0.071 1.071,0.211 0.309,0.142 0.57,0.342 0.779,0.603 0.21,0.261 0.369,0.578 0.48,0.954 0.11,0.375 0.164,0.795 0.164,1.258l0 0.393 -4.52 0zm3.719 -0.689c-0.012,-0.651 -0.167,-1.156 -0.465,-1.515 -0.299,-0.359 -0.714,-0.539 -1.244,-0.539 -0.265,0 -0.512,0.046 -0.739,0.14 -0.226,0.094 -0.426,0.229 -0.597,0.407 -0.171,0.177 -0.313,0.394 -0.426,0.649 -0.113,0.255 -0.19,0.541 -0.236,0.858l3.707 0z"/>
  </g>
  <g>
   <path id="_35" class="fil3 str0" d="M139.464 74.747c0.119,0.093 0.247,0.177 0.384,0.25 0.138,0.073 0.282,0.136 0.428,0.19 0.146,0.052 0.292,0.092 0.443,0.119 0.148,0.027 0.288,0.039 0.423,0.039 0.927,0 1.39,-0.348 1.39,-1.043 0,-0.159 -0.033,-0.296 -0.098,-0.413 -0.064,-0.117 -0.158,-0.224 -0.279,-0.32 -0.123,-0.096 -0.27,-0.183 -0.441,-0.265 -0.171,-0.081 -0.365,-0.167 -0.58,-0.256 -0.29,-0.119 -0.538,-0.24 -0.747,-0.361 -0.207,-0.124 -0.378,-0.257 -0.513,-0.401 -0.134,-0.146 -0.234,-0.305 -0.299,-0.478 -0.065,-0.173 -0.098,-0.372 -0.098,-0.591 0,-0.277 0.06,-0.526 0.179,-0.741 0.122,-0.217 0.282,-0.4 0.485,-0.551 0.204,-0.15 0.438,-0.267 0.703,-0.346 0.267,-0.079 0.547,-0.119 0.839,-0.119 0.541,0 1.01,0.102 1.413,0.305l0 0.824c-0.468,-0.303 -0.973,-0.453 -1.513,-0.453 -0.194,0 -0.372,0.025 -0.532,0.073 -0.161,0.05 -0.299,0.119 -0.414,0.209 -0.112,0.09 -0.202,0.198 -0.265,0.323 -0.062,0.126 -0.094,0.263 -0.094,0.414 0,0.156 0.025,0.292 0.073,0.407 0.051,0.116 0.126,0.223 0.23,0.317 0.104,0.092 0.238,0.181 0.403,0.269 0.165,0.086 0.365,0.178 0.603,0.276 0.3,0.121 0.561,0.242 0.78,0.363 0.222,0.121 0.403,0.25 0.545,0.392 0.142,0.14 0.249,0.297 0.317,0.472 0.069,0.173 0.105,0.373 0.105,0.601 0,0.282 -0.059,0.534 -0.173,0.753 -0.117,0.222 -0.278,0.407 -0.483,0.558 -0.204,0.15 -0.446,0.265 -0.722,0.342 -0.275,0.077 -0.576,0.117 -0.901,0.117 -0.631,0 -1.161,-0.134 -1.591,-0.399l0 -0.876z"/>
  </g>
  <g>
   <path id="_36" class="fil3 str0" d="M145.267 72.879c0.004,0.384 0.054,0.728 0.152,1.035 0.098,0.304 0.238,0.565 0.422,0.776 0.183,0.213 0.407,0.376 0.669,0.486 0.263,0.113 0.56,0.169 0.89,0.169 0.705,0 1.371,-0.246 1.999,-0.74l0 0.774c-0.599,0.428 -1.325,0.643 -2.177,0.643 -0.419,0 -0.801,-0.073 -1.144,-0.221 -0.342,-0.147 -0.632,-0.36 -0.874,-0.639 -0.24,-0.28 -0.426,-0.624 -0.555,-1.031 -0.132,-0.409 -0.196,-0.875 -0.196,-1.396 0,-0.47 0.07,-0.904 0.212,-1.305 0.145,-0.398 0.341,-0.745 0.593,-1.037 0.255,-0.292 0.553,-0.52 0.9,-0.685 0.346,-0.165 0.724,-0.248 1.135,-0.248 0.405,0 0.76,0.071 1.071,0.211 0.309,0.142 0.57,0.342 0.778,0.603 0.211,0.261 0.37,0.578 0.48,0.954 0.111,0.375 0.165,0.795 0.165,1.258l0 0.393 -4.52 0zm3.719 -0.689c-0.013,-0.651 -0.167,-1.156 -0.466,-1.515 -0.298,-0.359 -0.713,-0.539 -1.244,-0.539 -0.265,0 -0.511,0.046 -0.738,0.14 -0.226,0.094 -0.426,0.229 -0.597,0.407 -0.171,0.177 -0.313,0.394 -0.426,0.649 -0.113,0.255 -0.19,0.541 -0.236,0.858l3.707 0z"/>
  </g>
  <g>
   <path id="_37" class="fil3 str0" d="M154.942 75.871l0 -1.114 -0.025 0c-0.202,0.401 -0.482,0.712 -0.835,0.933 -0.352,0.221 -0.751,0.332 -1.195,0.332 -0.303,0 -0.574,-0.044 -0.816,-0.13 -0.245,-0.085 -0.449,-0.206 -0.618,-0.363 -0.171,-0.158 -0.301,-0.346 -0.393,-0.568 -0.092,-0.221 -0.137,-0.463 -0.137,-0.73 0,-0.568 0.175,-1.021 0.526,-1.357 0.35,-0.338 0.88,-0.557 1.59,-0.659l1.903 -0.276c0,-1.202 -0.467,-1.803 -1.404,-1.803 -0.733,0 -1.413,0.267 -2.039,0.802l0 -0.856c0.131,-0.092 0.279,-0.178 0.444,-0.253 0.167,-0.075 0.343,-0.139 0.526,-0.196 0.184,-0.054 0.374,-0.096 0.568,-0.127 0.196,-0.031 0.384,-0.046 0.57,-0.046 0.699,0 1.229,0.196 1.586,0.586 0.359,0.393 0.538,0.975 0.538,1.751l0 4.074 -0.789 0zm-1.617 -3.04c-0.284,0.039 -0.524,0.089 -0.724,0.152 -0.201,0.06 -0.366,0.144 -0.497,0.248 -0.132,0.105 -0.228,0.232 -0.288,0.384 -0.061,0.155 -0.092,0.343 -0.092,0.568 0,0.167 0.029,0.321 0.09,0.465 0.058,0.142 0.144,0.266 0.257,0.37 0.112,0.104 0.248,0.186 0.411,0.242 0.16,0.056 0.344,0.085 0.549,0.085 0.277,0 0.532,-0.052 0.766,-0.158 0.231,-0.107 0.434,-0.255 0.603,-0.44 0.169,-0.188 0.302,-0.414 0.398,-0.675 0.096,-0.261 0.144,-0.544 0.144,-0.851l0 -0.618 -1.617 0.228z"/>
  </g>
  <g>
   <path id="_38" class="fil3 str0" d="M160.715 70.414c-0.183,-0.136 -0.419,-0.203 -0.709,-0.203 -0.207,0 -0.391,0.04 -0.549,0.119 -0.161,0.079 -0.299,0.186 -0.42,0.322 -0.121,0.133 -0.221,0.29 -0.305,0.467 -0.085,0.178 -0.152,0.361 -0.202,0.553 -0.052,0.192 -0.088,0.386 -0.111,0.58 -0.023,0.197 -0.033,0.382 -0.033,0.558l0 3.061 -0.776 0 0 -6.261 0.776 0 0 1.342 0.025 0c0.073,-0.227 0.165,-0.434 0.278,-0.613 0.112,-0.182 0.242,-0.337 0.388,-0.46 0.146,-0.125 0.307,-0.219 0.48,-0.283 0.173,-0.065 0.355,-0.098 0.547,-0.098 0.127,0 0.24,0.008 0.34,0.024 0.098,0.015 0.19,0.04 0.271,0.074l0 0.818z"/>
  </g>
  <g>
   <path id="_39" class="fil3 str0" d="M165.852 75.588c-0.466,0.281 -1.027,0.425 -1.689,0.434 -0.449,0.004 -0.854,-0.073 -1.213,-0.232 -0.359,-0.161 -0.663,-0.382 -0.918,-0.664 -0.252,-0.283 -0.447,-0.617 -0.58,-1.004 -0.136,-0.384 -0.203,-0.803 -0.203,-1.256 0,-0.47 0.071,-0.91 0.215,-1.323 0.142,-0.415 0.351,-0.774 0.624,-1.083 0.274,-0.307 0.608,-0.551 1.004,-0.731 0.395,-0.179 0.848,-0.269 1.359,-0.269 0.518,0 0.991,0.1 1.419,0.3l0 0.831c-0.457,-0.302 -0.952,-0.455 -1.484,-0.455 -0.371,0 -0.703,0.071 -0.993,0.211 -0.29,0.142 -0.535,0.334 -0.733,0.576 -0.198,0.242 -0.348,0.526 -0.453,0.851 -0.104,0.324 -0.156,0.668 -0.156,1.032 0,0.333 0.044,0.655 0.131,0.96 0.088,0.306 0.224,0.576 0.405,0.811 0.182,0.234 0.411,0.422 0.689,0.56 0.28,0.14 0.605,0.208 0.983,0.208 0.589,0 1.119,-0.175 1.593,-0.527l0 0.77z"/>
  </g>
  <g>
   <path id="_40" class="fil3 str0" d="M171.576 75.871l0 -3.685c0,-0.702 -0.125,-1.219 -0.377,-1.551 -0.253,-0.332 -0.645,-0.499 -1.177,-0.499 -0.251,0 -0.491,0.05 -0.718,0.153 -0.228,0.102 -0.428,0.25 -0.597,0.44 -0.172,0.192 -0.307,0.426 -0.409,0.701 -0.103,0.276 -0.153,0.587 -0.153,0.935l0 3.506 -0.789 0 0 -9.266 0.789 0 0 4.084 0.025 0c0.489,-0.82 1.188,-1.229 2.1,-1.229 0.697,0 1.221,0.215 1.569,0.643 0.351,0.428 0.526,1.06 0.526,1.895l0 3.873 -0.789 0z"/>
  </g>
  <g>
   <path id="_41" class="fil3 str0" d="M180.822 75.262c-0.901,0.507 -1.857,0.76 -2.865,0.76 -0.637,0 -1.209,-0.109 -1.716,-0.328 -0.505,-0.217 -0.937,-0.522 -1.292,-0.91 -0.355,-0.39 -0.628,-0.854 -0.818,-1.394 -0.19,-0.541 -0.284,-1.133 -0.284,-1.782 0,-0.428 0.046,-0.839 0.138,-1.236 0.092,-0.394 0.227,-0.766 0.405,-1.112 0.177,-0.347 0.394,-0.66 0.651,-0.942 0.259,-0.281 0.553,-0.524 0.885,-0.726 0.334,-0.205 0.701,-0.361 1.1,-0.472 0.401,-0.11 0.833,-0.165 1.294,-0.165 0.868,0 1.645,0.155 2.327,0.464l0 0.897c-0.751,-0.415 -1.559,-0.622 -2.425,-0.622 -0.537,0 -1.019,0.098 -1.453,0.294 -0.432,0.195 -0.801,0.464 -1.106,0.806 -0.303,0.342 -0.538,0.747 -0.708,1.215 -0.167,0.467 -0.252,0.972 -0.256,1.519 -0.004,0.543 0.066,1.044 0.211,1.501 0.146,0.459 0.361,0.855 0.647,1.189 0.285,0.334 0.638,0.595 1.058,0.783 0.421,0.188 0.908,0.282 1.459,0.282 0.743,0 1.388,-0.154 1.934,-0.465l0 -2.678 -1.991 0 0 -0.739 2.805 0 0 3.861z"/>
  </g>
  <g>
   <path id="_42" class="fil3 str0" d="M186.818 75.871l0 -1.06 -0.025 0c-0.423,0.808 -1.081,1.211 -1.974,1.211 -1.488,0 -2.233,-0.91 -2.233,-2.728l0 -3.684 0.789 0 0 3.534c0,0.751 0.133,1.304 0.4,1.663 0.265,0.359 0.675,0.538 1.223,0.538 0.27,0 0.514,-0.052 0.737,-0.156 0.221,-0.104 0.413,-0.25 0.574,-0.44 0.161,-0.188 0.286,-0.416 0.376,-0.681 0.09,-0.265 0.133,-0.559 0.133,-0.88l0 -3.578 0.789 0 0 6.261 -0.789 0z"/>
  </g>
  <g>
   <path id="_43" class="fil3 str0" d="M190.01 68.032c-0.153,0 -0.282,-0.052 -0.393,-0.158 -0.112,-0.107 -0.167,-0.242 -0.167,-0.405 0,-0.159 0.055,-0.29 0.167,-0.395 0.111,-0.104 0.24,-0.156 0.393,-0.156 0.077,0 0.152,0.012 0.221,0.039 0.071,0.028 0.129,0.065 0.181,0.113 0.053,0.05 0.092,0.109 0.124,0.176 0.031,0.066 0.046,0.141 0.046,0.223 0,0.077 -0.015,0.15 -0.044,0.221 -0.028,0.069 -0.069,0.129 -0.124,0.179 -0.052,0.053 -0.112,0.092 -0.179,0.119 -0.069,0.03 -0.144,0.044 -0.225,0.044zm-0.389 7.839l0 -6.261 0.789 0 0 6.261 -0.789 0z"/>
  </g>
  <g>
   <path id="_44" class="fil3 str0" d="M196.805 75.871l0 -1.097 -0.025 0c-0.206,0.394 -0.505,0.703 -0.889,0.92 -0.386,0.219 -0.824,0.328 -1.313,0.328 -0.392,0 -0.747,-0.073 -1.068,-0.217 -0.32,-0.146 -0.595,-0.355 -0.823,-0.629 -0.227,-0.273 -0.405,-0.603 -0.53,-0.991 -0.123,-0.388 -0.186,-0.826 -0.186,-1.315 0,-0.507 0.069,-0.968 0.205,-1.388 0.138,-0.417 0.332,-0.776 0.582,-1.077 0.251,-0.3 0.553,-0.532 0.906,-0.697 0.353,-0.165 0.745,-0.248 1.177,-0.248 0.902,0 1.549,0.361 1.939,1.083l0.025 0 0 -3.938 0.789 0 0 9.266 -0.789 0zm0 -3.781c0,-0.274 -0.048,-0.531 -0.142,-0.766 -0.094,-0.236 -0.223,-0.443 -0.39,-0.618 -0.169,-0.175 -0.369,-0.315 -0.605,-0.417 -0.234,-0.103 -0.493,-0.153 -0.775,-0.153 -0.311,0 -0.597,0.061 -0.857,0.184 -0.261,0.123 -0.487,0.298 -0.672,0.53 -0.186,0.229 -0.33,0.511 -0.435,0.841 -0.104,0.33 -0.156,0.705 -0.156,1.127 0,0.394 0.048,0.749 0.142,1.064 0.094,0.316 0.227,0.581 0.401,0.796 0.173,0.217 0.379,0.382 0.622,0.496 0.239,0.115 0.509,0.171 0.801,0.171 0.319,0 0.607,-0.056 0.862,-0.171 0.255,-0.114 0.472,-0.271 0.649,-0.471 0.177,-0.201 0.315,-0.434 0.411,-0.704 0.096,-0.269 0.144,-0.557 0.144,-0.864l0 -1.045z"/>
  </g>
  <g>
   <path id="_45" class="fil3 str0" d="M199.976 72.879c0.004,0.384 0.054,0.728 0.152,1.035 0.098,0.304 0.238,0.565 0.421,0.776 0.184,0.213 0.407,0.376 0.67,0.486 0.263,0.113 0.56,0.169 0.89,0.169 0.705,0 1.371,-0.246 1.999,-0.74l0 0.774c-0.599,0.428 -1.325,0.643 -2.177,0.643 -0.419,0 -0.801,-0.073 -1.144,-0.221 -0.342,-0.147 -0.632,-0.36 -0.874,-0.639 -0.24,-0.28 -0.426,-0.624 -0.555,-1.031 -0.132,-0.409 -0.196,-0.875 -0.196,-1.396 0,-0.47 0.07,-0.904 0.212,-1.305 0.144,-0.398 0.341,-0.745 0.593,-1.037 0.255,-0.292 0.553,-0.52 0.9,-0.685 0.346,-0.165 0.724,-0.248 1.135,-0.248 0.405,0 0.76,0.071 1.071,0.211 0.309,0.142 0.569,0.342 0.778,0.603 0.211,0.261 0.37,0.578 0.48,0.954 0.111,0.375 0.165,0.795 0.165,1.258l0 0.393 -4.52 0zm3.719 -0.689c-0.013,-0.651 -0.167,-1.156 -0.466,-1.515 -0.298,-0.359 -0.713,-0.539 -1.244,-0.539 -0.265,0 -0.511,0.046 -0.738,0.14 -0.226,0.094 -0.426,0.229 -0.597,0.407 -0.171,0.177 -0.313,0.394 -0.426,0.649 -0.113,0.255 -0.19,0.541 -0.236,0.858l3.707 0z"/>
  </g>
  <path class="fil2" d="M143.208 88.84l0 -1.617c0,-0.308 -0.056,-0.535 -0.169,-0.681 -0.112,-0.145 -0.288,-0.219 -0.525,-0.219 -0.112,0 -0.219,0.022 -0.32,0.067 -0.102,0.045 -0.191,0.11 -0.267,0.194 -0.076,0.084 -0.137,0.186 -0.182,0.307 -0.046,0.121 -0.068,0.258 -0.068,0.411l0 1.538 -0.352 0 0 -4.066 0.352 0 0 1.792 0.011 0c0.218,-0.36 0.53,-0.539 0.937,-0.539 0.311,0 0.545,0.094 0.7,0.282 0.157,0.188 0.235,0.465 0.235,0.832l0 1.699 -0.352 0z"/>
  <path id="_1_0" class="fil2" d="M145.596 88.807c-0.12,0.059 -0.25,0.088 -0.392,0.088 -0.45,0 -0.675,-0.255 -0.675,-0.766l0 -1.734 -0.492 0 0 -0.302 0.492 0 0 -0.69 0.352 -0.113 0 0.803 0.715 0 0 0.302 -0.715 0 0 1.679c0,0.186 0.031,0.319 0.092,0.402 0.061,0.081 0.165,0.123 0.312,0.123 0.108,0 0.211,-0.032 0.311,-0.097l0 0.305z"/>
  <path id="_2_1" class="fil2" d="M147.372 88.807c-0.12,0.059 -0.25,0.088 -0.392,0.088 -0.45,0 -0.675,-0.255 -0.675,-0.766l0 -1.734 -0.492 0 0 -0.302 0.492 0 0 -0.69 0.352 -0.113 0 0.803 0.715 0 0 0.302 -0.715 0 0 1.679c0,0.186 0.031,0.319 0.092,0.402 0.062,0.081 0.165,0.123 0.312,0.123 0.108,0 0.212,-0.032 0.311,-0.097l0 0.305z"/>
  <path id="_3_2" class="fil2" d="M148.305 88.399l0 1.705 -0.352 0 0 -4.011 0.352 0 0 0.524 0.011 0c0.103,-0.191 0.241,-0.337 0.415,-0.438 0.173,-0.102 0.368,-0.152 0.585,-0.152 0.178,0 0.338,0.032 0.478,0.095 0.141,0.064 0.259,0.154 0.356,0.27 0.098,0.117 0.171,0.258 0.224,0.424 0.051,0.167 0.077,0.354 0.077,0.562 0,0.228 -0.029,0.435 -0.087,0.622 -0.058,0.186 -0.141,0.348 -0.25,0.482 -0.109,0.134 -0.242,0.238 -0.396,0.313 -0.155,0.074 -0.33,0.111 -0.524,0.111 -0.392,0 -0.684,-0.169 -0.878,-0.507l-0.011 0zm0 -0.703c0,0.126 0.021,0.243 0.064,0.353 0.042,0.111 0.102,0.207 0.178,0.29 0.076,0.084 0.169,0.15 0.277,0.198 0.108,0.049 0.227,0.073 0.357,0.073 0.14,0 0.266,-0.03 0.378,-0.087 0.113,-0.059 0.209,-0.141 0.288,-0.25 0.079,-0.107 0.14,-0.237 0.182,-0.389 0.043,-0.152 0.064,-0.322 0.064,-0.51 0,-0.161 -0.019,-0.307 -0.059,-0.437 -0.04,-0.13 -0.097,-0.24 -0.171,-0.331 -0.073,-0.092 -0.162,-0.162 -0.266,-0.21 -0.105,-0.049 -0.221,-0.073 -0.35,-0.073 -0.146,0 -0.276,0.027 -0.393,0.08 -0.115,0.052 -0.215,0.125 -0.296,0.216 -0.082,0.091 -0.144,0.198 -0.188,0.321 -0.044,0.123 -0.065,0.253 -0.065,0.391l0 0.365z"/>
  <path id="_4_3" class="fil2" d="M151.002 88.347c0.053,0.041 0.11,0.078 0.172,0.11 0.061,0.032 0.125,0.059 0.191,0.083 0.065,0.023 0.13,0.04 0.197,0.052 0.066,0.012 0.129,0.018 0.189,0.018 0.414,0 0.62,-0.153 0.62,-0.458 0,-0.07 -0.015,-0.13 -0.043,-0.182 -0.029,-0.051 -0.071,-0.098 -0.125,-0.14 -0.055,-0.042 -0.12,-0.08 -0.197,-0.116 -0.076,-0.036 -0.163,-0.073 -0.259,-0.113 -0.129,-0.052 -0.24,-0.105 -0.333,-0.158 -0.092,-0.054 -0.169,-0.113 -0.229,-0.176 -0.06,-0.064 -0.105,-0.134 -0.133,-0.21 -0.029,-0.076 -0.044,-0.163 -0.044,-0.259 0,-0.122 0.027,-0.231 0.08,-0.325 0.054,-0.095 0.126,-0.176 0.216,-0.242 0.091,-0.066 0.196,-0.117 0.314,-0.152 0.119,-0.035 0.244,-0.052 0.374,-0.052 0.242,0 0.451,0.045 0.631,0.133l0 0.362c-0.209,-0.132 -0.434,-0.199 -0.675,-0.199 -0.087,0 -0.166,0.011 -0.238,0.033 -0.072,0.022 -0.133,0.052 -0.184,0.091 -0.051,0.04 -0.091,0.087 -0.119,0.142 -0.028,0.055 -0.041,0.116 -0.041,0.181 0,0.069 0.011,0.129 0.032,0.179 0.022,0.051 0.056,0.098 0.103,0.139 0.046,0.041 0.106,0.08 0.179,0.118 0.074,0.038 0.163,0.078 0.27,0.121 0.134,0.054 0.25,0.107 0.348,0.16 0.099,0.053 0.18,0.11 0.243,0.172 0.063,0.061 0.111,0.13 0.142,0.207 0.03,0.076 0.046,0.164 0.046,0.264 0,0.123 -0.026,0.234 -0.077,0.33 -0.052,0.097 -0.124,0.179 -0.215,0.245 -0.092,0.066 -0.2,0.116 -0.323,0.15 -0.122,0.034 -0.257,0.051 -0.402,0.051 -0.281,0 -0.518,-0.058 -0.71,-0.175l0 -0.384z"/>
  <path id="_5_4" class="fil2" d="M153.591 86.554c-0.037,0 -0.071,-0.006 -0.103,-0.02 -0.031,-0.013 -0.059,-0.032 -0.083,-0.057 -0.023,-0.023 -0.042,-0.052 -0.055,-0.083 -0.014,-0.031 -0.021,-0.065 -0.021,-0.101 0,-0.071 0.025,-0.132 0.076,-0.181 0.051,-0.05 0.113,-0.074 0.186,-0.074 0.034,0 0.067,0.006 0.098,0.019 0.032,0.012 0.061,0.029 0.085,0.052 0.024,0.022 0.044,0.05 0.059,0.081 0.014,0.031 0.021,0.066 0.021,0.103 0,0.038 -0.007,0.073 -0.021,0.104 -0.015,0.031 -0.035,0.058 -0.059,0.082 -0.024,0.023 -0.053,0.042 -0.085,0.055 -0.031,0.014 -0.064,0.02 -0.098,0.02zm0 2.341c-0.073,0 -0.135,-0.024 -0.186,-0.075 -0.051,-0.049 -0.076,-0.111 -0.076,-0.182 0,-0.072 0.025,-0.135 0.074,-0.184 0.051,-0.05 0.113,-0.075 0.188,-0.075 0.036,0 0.07,0.006 0.101,0.02 0.032,0.014 0.06,0.031 0.083,0.053 0.024,0.023 0.043,0.05 0.058,0.082 0.014,0.033 0.021,0.067 0.021,0.104 0,0.036 -0.007,0.07 -0.021,0.101 -0.015,0.031 -0.034,0.058 -0.058,0.081 -0.023,0.023 -0.051,0.041 -0.083,0.055 -0.031,0.014 -0.065,0.02 -0.101,0.02z"/>
  <polygon id="_6_5" class="fil2" points="154.456,89.478 154.123,89.478 156.012,84.994 156.353,84.994 "/>
  <polygon id="_7_6" class="fil2" points="156.569,89.478 156.236,89.478 158.125,84.994 158.466,84.994 "/>
  <path id="_8_7" class="fil2" d="M161.188 88.629c0,0.51 -0.119,0.888 -0.355,1.134 -0.237,0.246 -0.601,0.369 -1.094,0.369 -0.306,0 -0.597,-0.067 -0.871,-0.201l0 -0.349c0.305,0.165 0.595,0.248 0.87,0.248 0.732,0 1.098,-0.38 1.098,-1.137l0 -0.329 -0.012 0c-0.214,0.362 -0.542,0.542 -0.982,0.542 -0.174,0 -0.331,-0.031 -0.474,-0.094 -0.143,-0.062 -0.266,-0.153 -0.367,-0.271 -0.102,-0.118 -0.182,-0.262 -0.238,-0.431 -0.057,-0.169 -0.085,-0.36 -0.085,-0.574 0,-0.225 0.03,-0.43 0.091,-0.616 0.059,-0.185 0.145,-0.345 0.256,-0.477 0.112,-0.132 0.246,-0.235 0.403,-0.307 0.158,-0.073 0.335,-0.109 0.531,-0.109 0.395,0 0.684,0.157 0.865,0.472l0.012 0 0 -0.406 0.352 0 0 2.536zm-0.352 -1.459c0,-0.115 -0.022,-0.224 -0.064,-0.325 -0.042,-0.102 -0.099,-0.192 -0.174,-0.269 -0.075,-0.077 -0.164,-0.138 -0.267,-0.184 -0.103,-0.046 -0.216,-0.069 -0.34,-0.069 -0.147,0 -0.278,0.028 -0.396,0.084 -0.118,0.056 -0.217,0.135 -0.3,0.236 -0.084,0.102 -0.147,0.226 -0.192,0.372 -0.045,0.147 -0.067,0.31 -0.067,0.493 0,0.168 0.021,0.32 0.063,0.457 0.042,0.136 0.101,0.252 0.177,0.346 0.078,0.095 0.17,0.168 0.278,0.221 0.109,0.052 0.23,0.078 0.362,0.078 0.139,0 0.265,-0.025 0.378,-0.075 0.113,-0.048 0.21,-0.117 0.29,-0.204 0.08,-0.086 0.143,-0.189 0.186,-0.306 0.044,-0.117 0.066,-0.243 0.066,-0.38l0 -0.475z"/>
  <path id="_9_8" class="fil2" d="M162.262 85.4c-0.068,0 -0.126,-0.023 -0.176,-0.069 -0.05,-0.047 -0.074,-0.106 -0.074,-0.178 0,-0.07 0.024,-0.127 0.074,-0.173 0.05,-0.046 0.108,-0.069 0.176,-0.069 0.034,0 0.068,0.006 0.098,0.018 0.032,0.012 0.058,0.028 0.081,0.049 0.024,0.022 0.041,0.048 0.055,0.077 0.014,0.029 0.021,0.062 0.021,0.098 0,0.034 -0.007,0.066 -0.02,0.097 -0.012,0.03 -0.03,0.057 -0.055,0.079 -0.023,0.023 -0.05,0.04 -0.08,0.052 -0.03,0.013 -0.064,0.019 -0.1,0.019zm-0.174 3.44l0 -2.747 0.352 0 0 2.747 -0.352 0z"/>
  <path id="_10_9" class="fil2" d="M164.534 88.807c-0.12,0.059 -0.25,0.088 -0.392,0.088 -0.45,0 -0.675,-0.255 -0.675,-0.766l0 -1.734 -0.492 0 0 -0.302 0.492 0 0 -0.69 0.352 -0.113 0 0.803 0.715 0 0 0.302 -0.715 0 0 1.679c0,0.186 0.031,0.319 0.092,0.402 0.062,0.081 0.165,0.123 0.312,0.123 0.108,0 0.212,-0.032 0.311,-0.097l0 0.305z"/>
  <path id="_11_10" class="fil2" d="M166.998 88.84l0 -1.617c0,-0.308 -0.056,-0.535 -0.169,-0.681 -0.112,-0.145 -0.287,-0.219 -0.525,-0.219 -0.112,0 -0.219,0.022 -0.32,0.067 -0.102,0.045 -0.191,0.11 -0.267,0.194 -0.076,0.084 -0.137,0.186 -0.182,0.307 -0.046,0.121 -0.068,0.258 -0.068,0.411l0 1.538 -0.352 0 0 -4.066 0.352 0 0 1.792 0.011 0c0.218,-0.36 0.53,-0.539 0.937,-0.539 0.311,0 0.545,0.094 0.7,0.282 0.157,0.188 0.235,0.465 0.235,0.832l0 1.699 -0.352 0z"/>
  <path id="_12_11" class="fil2" d="M170.018 88.84l0 -0.465 -0.011 0c-0.189,0.355 -0.483,0.531 -0.882,0.531 -0.664,0 -0.996,-0.399 -0.996,-1.197l0 -1.616 0.352 0 0 1.55c0,0.33 0.059,0.573 0.179,0.73 0.118,0.158 0.3,0.237 0.546,0.237 0.12,0 0.229,-0.023 0.328,-0.069 0.099,-0.046 0.185,-0.11 0.256,-0.193 0.072,-0.083 0.128,-0.183 0.168,-0.299 0.04,-0.116 0.06,-0.245 0.06,-0.386l0 -1.57 0.352 0 0 2.747 -0.352 0z"/>
  <path id="_13_12" class="fil2" d="M171.621 88.399l0 0.441 -0.352 0 0 -4.066 0.352 0 0 1.843 0.011 0c0.103,-0.191 0.241,-0.337 0.415,-0.438 0.173,-0.102 0.368,-0.152 0.585,-0.152 0.178,0 0.338,0.032 0.478,0.095 0.141,0.064 0.259,0.155 0.356,0.273 0.098,0.118 0.171,0.26 0.224,0.427 0.051,0.166 0.077,0.351 0.077,0.556 0,0.228 -0.03,0.435 -0.089,0.622 -0.058,0.186 -0.142,0.348 -0.251,0.482 -0.109,0.134 -0.241,0.238 -0.396,0.313 -0.155,0.074 -0.329,0.111 -0.521,0.111 -0.394,0 -0.686,-0.169 -0.878,-0.507l-0.011 0zm0 -0.703c0,0.126 0.021,0.243 0.064,0.353 0.042,0.111 0.102,0.207 0.178,0.29 0.076,0.084 0.169,0.15 0.277,0.198 0.108,0.049 0.227,0.073 0.357,0.073 0.14,0 0.266,-0.03 0.378,-0.087 0.113,-0.059 0.209,-0.141 0.288,-0.25 0.079,-0.107 0.14,-0.237 0.182,-0.389 0.043,-0.152 0.064,-0.322 0.064,-0.51 0,-0.161 -0.019,-0.307 -0.059,-0.437 -0.04,-0.13 -0.097,-0.24 -0.171,-0.331 -0.073,-0.092 -0.162,-0.162 -0.266,-0.21 -0.105,-0.049 -0.221,-0.073 -0.351,-0.073 -0.145,0 -0.275,0.027 -0.392,0.08 -0.115,0.052 -0.215,0.125 -0.296,0.216 -0.082,0.091 -0.144,0.198 -0.188,0.321 -0.044,0.123 -0.065,0.253 -0.065,0.391l0 0.365z"/>
  <path id="_14_13" class="fil2" d="M174.636 88.895c-0.073,0 -0.135,-0.024 -0.185,-0.075 -0.052,-0.049 -0.077,-0.111 -0.077,-0.182 0,-0.072 0.025,-0.135 0.075,-0.184 0.05,-0.05 0.112,-0.075 0.187,-0.075 0.036,0 0.07,0.006 0.101,0.02 0.032,0.014 0.06,0.031 0.083,0.053 0.024,0.023 0.043,0.05 0.058,0.082 0.014,0.033 0.022,0.067 0.022,0.104 0,0.036 -0.008,0.07 -0.022,0.101 -0.015,0.031 -0.034,0.058 -0.058,0.081 -0.023,0.023 -0.051,0.041 -0.083,0.055 -0.031,0.014 -0.065,0.02 -0.101,0.02z"/>
  <path id="_15_14" class="fil2" d="M177.558 88.716c-0.208,0.123 -0.459,0.187 -0.754,0.19 -0.2,0.002 -0.381,-0.032 -0.541,-0.101 -0.16,-0.071 -0.296,-0.168 -0.41,-0.292 -0.112,-0.124 -0.199,-0.271 -0.259,-0.44 -0.06,-0.169 -0.09,-0.353 -0.09,-0.551 0,-0.207 0.032,-0.4 0.096,-0.581 0.063,-0.182 0.156,-0.34 0.278,-0.476 0.122,-0.134 0.271,-0.241 0.448,-0.32 0.176,-0.079 0.379,-0.118 0.607,-0.118 0.231,0 0.442,0.044 0.633,0.132l0 0.364c-0.204,-0.133 -0.425,-0.2 -0.662,-0.2 -0.166,0 -0.314,0.032 -0.443,0.093 -0.13,0.062 -0.239,0.147 -0.327,0.253 -0.089,0.106 -0.156,0.231 -0.203,0.373 -0.046,0.142 -0.069,0.294 -0.069,0.453 0,0.146 0.019,0.288 0.058,0.421 0.039,0.135 0.1,0.253 0.181,0.357 0.081,0.102 0.183,0.184 0.307,0.245 0.125,0.061 0.27,0.092 0.439,0.092 0.263,0 0.499,-0.077 0.711,-0.232l0 0.338z"/>
  <path id="_16_15" class="fil2" d="M179.366 88.906c-0.206,0 -0.393,-0.034 -0.556,-0.101 -0.165,-0.069 -0.306,-0.165 -0.422,-0.29 -0.117,-0.124 -0.205,-0.273 -0.267,-0.447 -0.062,-0.174 -0.093,-0.366 -0.093,-0.578 0,-0.229 0.033,-0.434 0.098,-0.614 0.066,-0.182 0.159,-0.334 0.279,-0.461 0.121,-0.126 0.268,-0.222 0.438,-0.288 0.172,-0.067 0.362,-0.1 0.573,-0.1 0.202,0 0.384,0.033 0.545,0.098 0.162,0.065 0.299,0.16 0.412,0.283 0.112,0.123 0.199,0.275 0.258,0.451 0.061,0.178 0.091,0.38 0.091,0.605 0,0.215 -0.032,0.41 -0.094,0.587 -0.063,0.177 -0.152,0.328 -0.269,0.455 -0.116,0.127 -0.258,0.225 -0.425,0.296 -0.167,0.069 -0.356,0.104 -0.568,0.104zm0.028 -2.583c-0.153,0 -0.291,0.026 -0.415,0.078 -0.124,0.053 -0.23,0.128 -0.318,0.227 -0.089,0.099 -0.157,0.221 -0.205,0.366 -0.047,0.144 -0.07,0.308 -0.07,0.49 0,0.172 0.023,0.327 0.07,0.464 0.048,0.139 0.115,0.257 0.202,0.356 0.086,0.098 0.192,0.174 0.315,0.226 0.124,0.053 0.262,0.08 0.416,0.08 0.156,0 0.295,-0.026 0.415,-0.077 0.12,-0.051 0.222,-0.125 0.306,-0.223 0.084,-0.098 0.147,-0.217 0.19,-0.359 0.043,-0.141 0.064,-0.302 0.064,-0.484 0,-0.369 -0.084,-0.653 -0.251,-0.85 -0.168,-0.195 -0.407,-0.294 -0.719,-0.294z"/>
  <path id="_17_16" class="fil2" d="M184.942 88.84l0 -1.617c0,-0.164 -0.013,-0.303 -0.038,-0.418 -0.025,-0.113 -0.065,-0.206 -0.118,-0.277 -0.054,-0.072 -0.122,-0.124 -0.204,-0.156 -0.083,-0.032 -0.182,-0.049 -0.296,-0.049 -0.102,0 -0.198,0.024 -0.289,0.072 -0.091,0.048 -0.17,0.113 -0.239,0.196 -0.068,0.083 -0.121,0.181 -0.16,0.294 -0.039,0.113 -0.058,0.234 -0.058,0.365l0 1.59 -0.353 0 0 -1.652c0,-0.576 -0.223,-0.865 -0.671,-0.865 -0.104,0 -0.2,0.023 -0.288,0.069 -0.089,0.046 -0.167,0.109 -0.233,0.192 -0.066,0.082 -0.117,0.181 -0.155,0.297 -0.037,0.116 -0.055,0.243 -0.055,0.382l0 1.577 -0.353 0 0 -2.747 0.353 0 0 0.445 0.011 0c0.196,-0.341 0.482,-0.511 0.859,-0.511 0.097,0 0.191,0.014 0.278,0.044 0.087,0.03 0.165,0.071 0.234,0.123 0.07,0.054 0.128,0.117 0.179,0.19 0.05,0.074 0.087,0.155 0.113,0.243 0.098,-0.196 0.226,-0.345 0.383,-0.447 0.158,-0.102 0.335,-0.153 0.533,-0.153 0.613,0 0.919,0.372 0.919,1.116l0 1.697 -0.352 0z"/>
  <polygon id="_18_17" class="fil2" points="185.936,89.478 185.604,89.478 187.493,84.994 187.834,84.994 "/>
  <path id="_19_18" class="fil2" d="M189.633 86.445c-0.082,-0.059 -0.187,-0.088 -0.317,-0.088 -0.092,0 -0.174,0.017 -0.245,0.052 -0.071,0.034 -0.133,0.081 -0.187,0.141 -0.054,0.058 -0.098,0.127 -0.136,0.205 -0.038,0.078 -0.068,0.158 -0.09,0.243 -0.023,0.084 -0.039,0.169 -0.049,0.254 -0.011,0.086 -0.015,0.168 -0.015,0.245l0 1.343 -0.347 0 0 -2.747 0.347 0 0 0.589 0.011 0c0.032,-0.1 0.073,-0.191 0.124,-0.27 0.05,-0.079 0.108,-0.147 0.173,-0.201 0.065,-0.055 0.137,-0.096 0.214,-0.125 0.078,-0.028 0.158,-0.043 0.244,-0.043 0.057,0 0.107,0.004 0.152,0.011 0.044,0.007 0.085,0.018 0.121,0.032l0 0.359z"/>
  <path id="_20_19" class="fil2" d="M191.925 88.716c-0.207,0.123 -0.458,0.187 -0.753,0.19 -0.2,0.002 -0.381,-0.032 -0.541,-0.101 -0.16,-0.071 -0.296,-0.168 -0.41,-0.292 -0.113,-0.124 -0.199,-0.271 -0.259,-0.44 -0.061,-0.169 -0.09,-0.353 -0.09,-0.551 0,-0.207 0.031,-0.4 0.096,-0.581 0.063,-0.182 0.156,-0.34 0.278,-0.476 0.122,-0.134 0.271,-0.241 0.448,-0.32 0.176,-0.079 0.378,-0.118 0.606,-0.118 0.231,0 0.443,0.044 0.634,0.132l0 0.364c-0.204,-0.133 -0.425,-0.2 -0.662,-0.2 -0.166,0 -0.314,0.032 -0.444,0.093 -0.129,0.062 -0.238,0.147 -0.327,0.253 -0.088,0.106 -0.155,0.231 -0.202,0.373 -0.046,0.142 -0.07,0.294 -0.07,0.453 0,0.146 0.02,0.288 0.059,0.421 0.039,0.135 0.1,0.253 0.181,0.357 0.081,0.102 0.183,0.184 0.307,0.245 0.125,0.061 0.27,0.092 0.439,0.092 0.262,0 0.499,-0.077 0.71,-0.232l0 0.338z"/>
  <path id="_21_20" class="fil2" d="M193.893 85.096c-0.078,-0.05 -0.178,-0.075 -0.302,-0.075 -0.327,0 -0.491,0.211 -0.491,0.631l0 0.441 0.693 0 0 0.302 -0.693 0 0 2.445 -0.352 0 0 -2.445 -0.486 0 0 -0.302 0.486 0 0 -0.463c0,-0.138 0.018,-0.263 0.053,-0.374 0.035,-0.113 0.088,-0.208 0.157,-0.288 0.069,-0.081 0.157,-0.142 0.261,-0.185 0.105,-0.043 0.227,-0.064 0.363,-0.064 0.131,0 0.235,0.017 0.311,0.051l0 0.326z"/>
  <path id="_22_21" class="fil2" d="M196.199 88.84l0 -0.481 -0.011 0c-0.093,0.173 -0.226,0.308 -0.397,0.403 -0.172,0.097 -0.368,0.144 -0.586,0.144 -0.175,0 -0.333,-0.032 -0.477,-0.095 -0.143,-0.064 -0.265,-0.156 -0.367,-0.276 -0.101,-0.12 -0.181,-0.264 -0.236,-0.435 -0.056,-0.17 -0.083,-0.362 -0.083,-0.577 0,-0.222 0.03,-0.425 0.091,-0.609 0.061,-0.183 0.148,-0.34 0.26,-0.472 0.111,-0.132 0.247,-0.234 0.404,-0.306 0.157,-0.073 0.332,-0.109 0.525,-0.109 0.403,0 0.691,0.158 0.866,0.475l0.011 0 0 -1.728 0.352 0 0 4.066 -0.352 0zm0 -1.659c0,-0.12 -0.022,-0.233 -0.064,-0.336 -0.041,-0.104 -0.099,-0.194 -0.174,-0.271 -0.075,-0.077 -0.165,-0.139 -0.27,-0.184 -0.104,-0.045 -0.22,-0.067 -0.345,-0.067 -0.139,0 -0.267,0.027 -0.383,0.081 -0.117,0.054 -0.217,0.131 -0.3,0.233 -0.083,0.1 -0.147,0.224 -0.194,0.369 -0.046,0.145 -0.07,0.309 -0.07,0.494 0,0.174 0.022,0.329 0.064,0.468 0.041,0.138 0.101,0.254 0.178,0.348 0.078,0.096 0.17,0.168 0.278,0.219 0.107,0.05 0.227,0.075 0.358,0.075 0.142,0 0.271,-0.025 0.384,-0.075 0.114,-0.051 0.211,-0.12 0.29,-0.208 0.079,-0.087 0.141,-0.19 0.183,-0.308 0.043,-0.118 0.065,-0.245 0.065,-0.379l0 -0.459z"/>
  <path id="_23_22" class="fil2" d="M198.647 88.807c-0.12,0.059 -0.25,0.088 -0.392,0.088 -0.45,0 -0.675,-0.255 -0.675,-0.766l0 -1.734 -0.492 0 0 -0.302 0.492 0 0 -0.69 0.352 -0.113 0 0.803 0.715 0 0 0.302 -0.715 0 0 1.679c0,0.186 0.031,0.319 0.092,0.402 0.062,0.081 0.165,0.123 0.312,0.123 0.108,0 0.212,-0.032 0.311,-0.097l0 0.305z"/>
  <path id="_24_23" class="fil2" d="M200.321 88.906c-0.206,0 -0.393,-0.034 -0.557,-0.101 -0.164,-0.069 -0.305,-0.165 -0.421,-0.29 -0.117,-0.124 -0.205,-0.273 -0.267,-0.447 -0.062,-0.174 -0.093,-0.366 -0.093,-0.578 0,-0.229 0.032,-0.434 0.098,-0.614 0.066,-0.182 0.159,-0.334 0.279,-0.461 0.121,-0.126 0.267,-0.222 0.438,-0.288 0.171,-0.067 0.362,-0.1 0.573,-0.1 0.202,0 0.384,0.033 0.545,0.098 0.162,0.065 0.299,0.16 0.411,0.283 0.113,0.123 0.2,0.275 0.259,0.451 0.061,0.178 0.091,0.38 0.091,0.605 0,0.215 -0.032,0.41 -0.094,0.587 -0.063,0.177 -0.152,0.328 -0.269,0.455 -0.116,0.127 -0.258,0.225 -0.425,0.296 -0.167,0.069 -0.356,0.104 -0.568,0.104zm0.028 -2.583c-0.153,0 -0.291,0.026 -0.415,0.078 -0.124,0.053 -0.23,0.128 -0.319,0.227 -0.088,0.099 -0.156,0.221 -0.204,0.366 -0.047,0.144 -0.07,0.308 -0.07,0.49 0,0.172 0.023,0.327 0.07,0.464 0.048,0.139 0.115,0.257 0.202,0.356 0.086,0.098 0.191,0.174 0.315,0.226 0.124,0.053 0.262,0.08 0.416,0.08 0.156,0 0.295,-0.026 0.415,-0.077 0.12,-0.051 0.222,-0.125 0.306,-0.223 0.083,-0.098 0.147,-0.217 0.19,-0.359 0.043,-0.141 0.064,-0.302 0.064,-0.484 0,-0.369 -0.084,-0.653 -0.251,-0.85 -0.168,-0.195 -0.407,-0.294 -0.719,-0.294z"/>
  <path id="_25_24" class="fil2" d="M203.525 88.906c-0.207,0 -0.393,-0.034 -0.557,-0.101 -0.165,-0.069 -0.306,-0.165 -0.422,-0.29 -0.117,-0.124 -0.205,-0.273 -0.267,-0.447 -0.062,-0.174 -0.093,-0.366 -0.093,-0.578 0,-0.229 0.033,-0.434 0.098,-0.614 0.066,-0.182 0.159,-0.334 0.279,-0.461 0.121,-0.126 0.268,-0.222 0.438,-0.288 0.172,-0.067 0.363,-0.1 0.573,-0.1 0.202,0 0.384,0.033 0.545,0.098 0.162,0.065 0.299,0.16 0.412,0.283 0.112,0.123 0.199,0.275 0.259,0.451 0.06,0.178 0.09,0.38 0.09,0.605 0,0.215 -0.032,0.41 -0.094,0.587 -0.062,0.177 -0.152,0.328 -0.268,0.455 -0.117,0.127 -0.258,0.225 -0.426,0.296 -0.167,0.069 -0.356,0.104 -0.567,0.104zm0.028 -2.583c-0.154,0 -0.292,0.026 -0.416,0.078 -0.124,0.053 -0.23,0.128 -0.318,0.227 -0.089,0.099 -0.157,0.221 -0.204,0.366 -0.048,0.144 -0.071,0.308 -0.071,0.49 0,0.172 0.023,0.327 0.071,0.464 0.047,0.139 0.114,0.257 0.201,0.356 0.086,0.098 0.192,0.174 0.316,0.226 0.124,0.053 0.261,0.08 0.415,0.08 0.157,0 0.295,-0.026 0.415,-0.077 0.121,-0.051 0.222,-0.125 0.306,-0.223 0.084,-0.098 0.147,-0.217 0.19,-0.359 0.043,-0.141 0.064,-0.302 0.064,-0.484 0,-0.369 -0.084,-0.653 -0.251,-0.85 -0.168,-0.195 -0.407,-0.294 -0.718,-0.294z"/>
  <polygon id="_26_25" class="fil2" points="205.591,88.84 205.591,84.774 205.943,84.774 205.943,88.84 "/>
  <path id="_27_26" class="fil2" d="M206.684 88.347c0.053,0.041 0.11,0.078 0.172,0.11 0.061,0.032 0.125,0.059 0.19,0.083 0.066,0.023 0.131,0.04 0.198,0.052 0.066,0.012 0.129,0.018 0.189,0.018 0.414,0 0.62,-0.153 0.62,-0.458 0,-0.07 -0.015,-0.13 -0.043,-0.182 -0.029,-0.051 -0.071,-0.098 -0.125,-0.14 -0.055,-0.042 -0.12,-0.08 -0.197,-0.116 -0.076,-0.036 -0.163,-0.073 -0.259,-0.113 -0.129,-0.052 -0.24,-0.105 -0.333,-0.158 -0.092,-0.054 -0.169,-0.113 -0.229,-0.176 -0.06,-0.064 -0.105,-0.134 -0.133,-0.21 -0.029,-0.076 -0.044,-0.163 -0.044,-0.259 0,-0.122 0.027,-0.231 0.08,-0.325 0.054,-0.095 0.126,-0.176 0.216,-0.242 0.091,-0.066 0.196,-0.117 0.314,-0.152 0.119,-0.035 0.244,-0.052 0.374,-0.052 0.242,0 0.451,0.045 0.631,0.133l0 0.362c-0.209,-0.132 -0.434,-0.199 -0.675,-0.199 -0.087,0 -0.166,0.011 -0.238,0.033 -0.072,0.022 -0.133,0.052 -0.184,0.091 -0.051,0.04 -0.091,0.087 -0.119,0.142 -0.028,0.055 -0.041,0.116 -0.041,0.181 0,0.069 0.011,0.129 0.032,0.179 0.022,0.051 0.056,0.098 0.103,0.139 0.046,0.041 0.106,0.08 0.179,0.118 0.074,0.038 0.163,0.078 0.27,0.121 0.134,0.054 0.25,0.107 0.348,0.16 0.099,0.053 0.18,0.11 0.243,0.172 0.063,0.061 0.111,0.13 0.142,0.207 0.03,0.076 0.046,0.164 0.046,0.264 0,0.123 -0.026,0.234 -0.077,0.33 -0.052,0.097 -0.124,0.179 -0.215,0.245 -0.092,0.066 -0.2,0.116 -0.323,0.15 -0.123,0.034 -0.257,0.051 -0.402,0.051 -0.281,0 -0.518,-0.058 -0.71,-0.175l0 -0.384z"/>
 </g>
</svg>
