<?xml version="1.0" encoding="UTF-8"?>
<!DOCTYPE svg PUBLIC "-//W3C//DTD SVG 1.1//EN" "http://www.w3.org/Graphics/SVG/1.1/DTD/svg11.dtd">
<!-- Creator: CorelDRAW -->
<svg xmlns="http://www.w3.org/2000/svg" xml:space="preserve" width="1280px" height="549px" version="1.1" style="shape-rendering:geometricPrecision; text-rendering:geometricPrecision; image-rendering:optimizeQuality; fill-rule:evenodd; clip-rule:evenodd"
viewBox="0 0 147.528 63.287"
 xmlns:xlink="http://www.w3.org/1999/xlink"
 xmlns:xodm="http://www.corel.com/coreldraw/odm/2003">
 <defs>
  <style type="text/css">
   <![CDATA[
    .str0 {stroke:white;stroke-width:0.069;stroke-miterlimit:22.9256}
    .fil2 {fill:none;fill-rule:nonzero}
    .fil1 {fill:white;fill-rule:nonzero}
    .fil0 {fill:url(#id0)}
   ]]>
  </style>
  <linearGradient id="id0" gradientUnits="userSpaceOnUse" x1="0" y1="31.644" x2="147.528" y2="31.644">
   <stop offset="0" style="stop-opacity:1; stop-color:#2567F5"/>
   <stop offset="1" style="stop-opacity:1; stop-color:#7F4CDA"/>
  </linearGradient>
 </defs>
 <g id="Capa_x0020_1">
  <metadata id="CorelCorpID_0Corel-Layer"/>
  <path class="fil0" d="M16.136 0l127.703 0c2.029,0 3.689,1.66 3.689,3.688l0 45.769c0,7.607 -6.224,13.83 -13.831,13.83l-130.009 0c-2.028,0 -3.688,-1.659 -3.688,-3.688l0 -43.463c0,-8.875 7.261,-16.136 16.136,-16.136z"/>
  <path class="fil1" d="M18.855 3.629c-8.234,0 -14.908,6.674 -14.908,14.908 0,6.623 4.322,12.231 10.299,14.174l0.005 0.001 0.243 0c0.349,-0.06 0.635,-0.371 0.635,-0.757l0 -2.795c-0.577,0.082 -1.262,0.167 -1.552,0.153 -0.84,-0.038 -1.616,-0.17 -2.004,-0.404 -0.452,-0.271 -1.088,-0.776 -1.273,-1.18 -0.264,-0.573 -0.325,-0.863 -0.637,-1.366 -0.279,-0.45 -0.761,-0.916 -1.072,-1.087 -0.311,-0.17 -0.606,-0.404 -0.668,-0.559 -0.061,-0.156 0.078,-0.373 0.373,-0.419 0.295,-0.047 0.823,0.046 1.367,0.295 0.411,0.188 0.865,0.721 1.18,1.18 0.372,0.544 0.869,1.103 1.288,1.351 0.419,0.248 1.289,0.373 2.112,0.248 0.32,-0.047 0.652,-0.167 0.941,-0.293 0.115,-0.772 0.459,-1.465 0.971,-2.006 -4.39,-0.538 -6.799,-2.574 -6.799,-7.033 0,-1.72 0.573,-3.139 1.549,-4.252 -0.111,-0.244 -0.227,-0.575 -0.285,-0.994 -0.128,-0.932 0.023,-1.491 0.152,-2.038 0.128,-0.547 0.279,-0.932 0.279,-0.932 0,0 0.687,-0.07 1.27,0.129 0.582,0.198 1.083,0.349 1.805,0.78 0.34,0.203 0.682,0.425 0.952,0.605 1.158,-0.322 2.435,-0.486 3.777,-0.486 1.331,0 2.596,0.164 3.746,0.483 0.269,-0.179 0.609,-0.4 0.946,-0.601 0.723,-0.431 1.224,-0.582 1.806,-0.781 0.582,-0.198 1.269,-0.128 1.269,-0.128 0,0 0.152,0.385 0.28,0.932 0.128,0.547 0.279,1.106 0.151,2.038 -0.056,0.409 -0.168,0.734 -0.276,0.976 0.995,1.119 1.578,2.548 1.578,4.27 0,4.525 -2.438,6.512 -6.796,7.036 0.63,0.667 1.023,1.562 1.023,2.553l0 4.326c0,0.384 0.283,0.693 0.628,0.756l0.252 0c5.977,-1.942 10.301,-7.55 10.301,-14.175 0,-8.234 -6.674,-14.908 -14.908,-14.908zm-9.512 21.413c-0.115,-0.059 -0.177,-0.168 -0.138,-0.244 0.039,-0.077 0.164,-0.091 0.279,-0.032 0.114,0.059 0.176,0.167 0.138,0.244 -0.039,0.077 -0.164,0.091 -0.279,0.032zm0.903 0.563c-0.06,0.066 -0.19,0.045 -0.29,-0.046 -0.1,-0.091 -0.132,-0.219 -0.071,-0.284 0.06,-0.066 0.19,-0.045 0.29,0.046 0.1,0.091 0.132,0.219 0.071,0.284zm0.562 0.932c-0.076,0.054 -0.205,0.004 -0.287,-0.112 -0.083,-0.115 -0.088,-0.253 -0.012,-0.307 0.076,-0.054 0.205,-0.004 0.287,0.112 0.082,0.115 0.088,0.253 0.012,0.307zm0.807 0.701c-0.051,0.084 -0.197,0.087 -0.325,0.009 -0.128,-0.078 -0.191,-0.209 -0.14,-0.293 0.052,-0.083 0.198,-0.087 0.326,-0.009 0.128,0.079 0.191,0.21 0.139,0.293zm0.764 0.687c-0.159,-0.02 -0.277,-0.119 -0.263,-0.222 0.012,-0.102 0.152,-0.17 0.31,-0.15 0.158,0.019 0.276,0.118 0.263,0.221 -0.013,0.102 -0.151,0.17 -0.31,0.151zm1.231 0.178c-0.17,-0.01 -0.302,-0.107 -0.295,-0.215 0.007,-0.109 0.149,-0.19 0.318,-0.181 0.169,0.01 0.302,0.107 0.295,0.216 -0.007,0.109 -0.149,0.19 -0.318,0.18zm1.161 -0.116c-0.18,0 -0.327,-0.094 -0.327,-0.21 0,-0.115 0.147,-0.209 0.327,-0.209 0.18,0 0.326,0.094 0.326,0.209 0,0.116 -0.146,0.21 -0.326,0.21z"/>
  <g>
   <path class="fil1" d="M136.803 41.391l-90.837 0 -0.007 -1.346 90.837 0 0 0 0.007 1.346zm2.812 2.671l-1.283 -0.404 0 0 0.037 -0.13 0.029 -0.127 0.023 -0.124 0.015 -0.12 0.009 -0.117 0.002 -0.112 -0.003 -0.109 -0.009 -0.105 -0.015 -0.1 -0.02 -0.096 -0.025 -0.093 -0.029 -0.088 -0.034 -0.084 -0.039 -0.081 -0.043 -0.077 -0.047 -0.073 -0.051 -0.069 -0.055 -0.065 -0.06 -0.062 -0.064 -0.059 -0.069 -0.055 -0.072 -0.051 -0.078 -0.047 -0.082 -0.044 -0.088 -0.039 -0.093 -0.035 -0.098 -0.031 -0.103 -0.026 -0.108 -0.02 -0.115 -0.016 -0.119 -0.009 -0.125 -0.003 -0.007 -1.346 0.194 0.005 0.191 0.015 0.187 0.025 0.183 0.034 0.179 0.045 0.173 0.054 0.168 0.064 0.163 0.074 0.157 0.083 0.151 0.091 0.143 0.101 0.136 0.109 0.129 0.117 0.12 0.126 0.112 0.132 0.103 0.139 0.094 0.146 0.085 0.151 0.075 0.157 0.066 0.163 0.055 0.167 0.046 0.17 0.036 0.175 0.026 0.178 0.016 0.18 0.006 0.183 -0.004 0.185 -0.015 0.187 -0.024 0.189 -0.034 0.189 -0.044 0.191 -0.054 0.192 0 0zm-3.179 5.752l1.896 -6.156 1.283 0.404 -1.897 6.155 0 0 -1.282 -0.403zm-3.466 4.017l-0.007 -1.346 0 0 0.129 -0.003 0.13 -0.01 0.132 -0.016 0.133 -0.023 0.134 -0.029 0.134 -0.035 0.135 -0.042 0.135 -0.047 0.134 -0.054 0.134 -0.059 0.132 -0.065 0.131 -0.071 0.13 -0.075 0.128 -0.081 0.125 -0.086 0.122 -0.09 0.12 -0.095 0.117 -0.099 0.113 -0.103 0.108 -0.107 0.105 -0.11 0.101 -0.114 0.096 -0.116 0.091 -0.12 0.085 -0.122 0.081 -0.124 0.075 -0.126 0.069 -0.127 0.062 -0.129 0.057 -0.13 0.051 -0.131 0.044 -0.132 1.282 0.403 -0.063 0.19 -0.072 0.187 -0.08 0.184 -0.088 0.18 -0.094 0.175 -0.103 0.172 -0.108 0.168 -0.115 0.163 -0.121 0.159 -0.127 0.154 -0.132 0.15 -0.138 0.145 -0.143 0.139 -0.147 0.135 -0.152 0.129 -0.156 0.124 -0.16 0.118 -0.164 0.112 -0.168 0.106 -0.171 0.1 -0.174 0.094 -0.178 0.087 -0.18 0.08 -0.183 0.072 -0.185 0.066 -0.187 0.057 -0.19 0.05 -0.191 0.042 -0.193 0.032 -0.194 0.024 -0.195 0.015 -0.196 0.005 0 0zm-90.844 -1.346l90.837 0 0.007 1.346 -90.837 0 0 0 -0.007 -1.346zm-2.812 -2.671l1.282 0.403 0 0 -0.036 0.131 -0.03 0.127 -0.022 0.124 -0.016 0.12 -0.008 0.116 -0.003 0.113 0.004 0.108 0.009 0.105 0.014 0.1 0.02 0.097 0.025 0.093 0.03 0.088 0.034 0.084 0.038 0.081 0.043 0.076 0.047 0.073 0.051 0.069 0.056 0.066 0.06 0.062 0.064 0.058 0.068 0.055 0.073 0.051 0.078 0.048 0.082 0.043 0.088 0.04 0.092 0.035 0.098 0.031 0.103 0.025 0.109 0.021 0.114 0.015 0.12 0.01 0.125 0.003 0.007 1.346 -0.194 -0.005 -0.191 -0.015 -0.187 -0.025 -0.183 -0.035 -0.179 -0.044 -0.174 -0.055 -0.168 -0.064 -0.163 -0.073 -0.157 -0.083 -0.15 -0.092 -0.143 -0.101 -0.136 -0.109 -0.129 -0.117 -0.12 -0.125 -0.112 -0.132 -0.103 -0.139 -0.094 -0.146 -0.085 -0.152 -0.075 -0.157 -0.066 -0.162 -0.056 -0.167 -0.046 -0.171 -0.036 -0.174 -0.025 -0.178 -0.016 -0.18 -0.006 -0.183 0.004 -0.186 0.014 -0.187 0.024 -0.188 0.034 -0.19 0.045 -0.191 0.054 -0.191 0 0zm3.179 -5.752l-1.897 6.155 -1.282 -0.403 1.896 -6.156 0 0 1.283 0.404zm3.466 -4.017l0.007 1.346 0 0 -0.129 0.003 -0.13 0.01 -0.132 0.016 -0.133 0.023 -0.134 0.029 -0.134 0.035 -0.135 0.041 -0.135 0.048 -0.134 0.054 -0.134 0.059 -0.133 0.065 -0.131 0.07 -0.129 0.076 -0.128 0.081 -0.125 0.085 -0.123 0.091 -0.12 0.095 -0.116 0.099 -0.113 0.103 -0.109 0.106 -0.105 0.111 -0.1 0.114 -0.096 0.116 -0.091 0.119 -0.086 0.122 -0.08 0.124 -0.075 0.126 -0.069 0.128 -0.063 0.129 -0.057 0.13 -0.05 0.131 -0.044 0.132 -1.283 -0.404 0.064 -0.19 0.071 -0.187 0.081 -0.183 0.087 -0.18 0.095 -0.176 0.102 -0.172 0.109 -0.167 0.115 -0.163 0.121 -0.159 0.127 -0.155 0.132 -0.149 0.138 -0.145 0.142 -0.14 0.148 -0.134 0.152 -0.13 0.156 -0.123 0.16 -0.118 0.164 -0.113 0.168 -0.106 0.171 -0.1 0.174 -0.093 0.178 -0.087 0.18 -0.08 0.182 -0.073 0.186 -0.065 0.187 -0.058 0.189 -0.05 0.192 -0.041 0.192 -0.033 0.194 -0.024 0.196 -0.014 0.196 -0.005 0 0z"/>
  </g>
  <path class="fil1" d="M48.262 49.415l-0.859 -1.638c-0.085,-0.163 -0.167,-0.297 -0.247,-0.406 -0.079,-0.11 -0.162,-0.197 -0.246,-0.262 -0.085,-0.064 -0.176,-0.112 -0.272,-0.139 -0.098,-0.029 -0.205,-0.042 -0.325,-0.042l-0.628 0 0 2.487 -0.53 0 0 -5.709 1.643 0c0.215,0 0.423,0.032 0.624,0.095 0.2,0.064 0.378,0.158 0.534,0.283 0.157,0.125 0.283,0.282 0.377,0.469 0.094,0.189 0.141,0.408 0.141,0.657 0,0.201 -0.03,0.387 -0.091,0.557 -0.061,0.169 -0.148,0.319 -0.261,0.451 -0.113,0.131 -0.249,0.242 -0.409,0.333 -0.162,0.093 -0.342,0.161 -0.544,0.206l0 0.016c0.078,0.031 0.147,0.073 0.211,0.124 0.064,0.05 0.125,0.111 0.185,0.183 0.06,0.071 0.118,0.154 0.177,0.246 0.058,0.094 0.119,0.2 0.182,0.32l0.958 1.769 -0.62 0zm-2.577 -5.219l0 2.251 0.946 0c0.192,0 0.366,-0.028 0.525,-0.083 0.159,-0.056 0.295,-0.136 0.408,-0.239 0.112,-0.102 0.199,-0.227 0.262,-0.373 0.062,-0.145 0.094,-0.31 0.094,-0.492 0,-0.332 -0.106,-0.591 -0.32,-0.78 -0.213,-0.189 -0.522,-0.284 -0.925,-0.284l-0.99 0z"/>
  <path id="_1" class="fil1" d="M50.012 49.497c-0.106,0 -0.197,-0.037 -0.271,-0.111 -0.075,-0.074 -0.111,-0.165 -0.111,-0.271 0,-0.107 0.036,-0.2 0.109,-0.273 0.073,-0.075 0.164,-0.112 0.273,-0.112 0.053,0 0.102,0.01 0.148,0.03 0.046,0.021 0.087,0.047 0.121,0.079 0.035,0.034 0.063,0.074 0.084,0.121 0.021,0.049 0.032,0.101 0.032,0.155 0,0.053 -0.011,0.103 -0.032,0.15 -0.021,0.046 -0.049,0.087 -0.084,0.121 -0.034,0.034 -0.075,0.061 -0.121,0.081 -0.046,0.021 -0.095,0.03 -0.148,0.03z"/>
  <polygon id="_2" class="fil1" points="53.277,44.196 53.277,49.415 52.747,49.415 52.747,44.196 51.099,44.196 51.099,43.706 54.924,43.706 54.924,44.196 "/>
  <path id="_3" class="fil1" d="M55.181 47.466c0.003,0.25 0.036,0.475 0.1,0.674 0.063,0.199 0.155,0.369 0.274,0.506 0.12,0.139 0.265,0.245 0.437,0.317 0.171,0.073 0.364,0.11 0.579,0.11 0.459,0 0.893,-0.16 1.302,-0.483l0 0.505c-0.39,0.278 -0.863,0.418 -1.418,0.418 -0.273,0 -0.522,-0.047 -0.745,-0.144 -0.223,-0.095 -0.412,-0.234 -0.569,-0.416 -0.157,-0.182 -0.278,-0.406 -0.362,-0.671 -0.086,-0.267 -0.128,-0.57 -0.128,-0.91 0,-0.305 0.046,-0.588 0.139,-0.849 0.094,-0.26 0.221,-0.486 0.386,-0.676 0.166,-0.19 0.36,-0.338 0.586,-0.446 0.225,-0.107 0.471,-0.161 0.739,-0.161 0.264,0 0.495,0.046 0.698,0.137 0.201,0.092 0.371,0.223 0.507,0.393 0.137,0.17 0.24,0.376 0.312,0.621 0.072,0.245 0.108,0.518 0.108,0.82l0 0.255 -2.945 0zm2.423 -0.448c-0.008,-0.424 -0.109,-0.753 -0.303,-0.987 -0.195,-0.234 -0.465,-0.351 -0.811,-0.351 -0.172,0 -0.333,0.03 -0.481,0.091 -0.147,0.061 -0.277,0.15 -0.389,0.265 -0.111,0.116 -0.204,0.257 -0.277,0.423 -0.073,0.166 -0.124,0.352 -0.153,0.559l2.414 0z"/>
  <path id="_4" class="fil1" d="M61.483 49.415l0 -0.725 -0.016 0c-0.132,0.261 -0.314,0.463 -0.544,0.607 -0.23,0.144 -0.489,0.216 -0.779,0.216 -0.197,0 -0.374,-0.028 -0.531,-0.084 -0.159,-0.056 -0.292,-0.135 -0.403,-0.236 -0.111,-0.104 -0.195,-0.226 -0.255,-0.37 -0.06,-0.144 -0.09,-0.302 -0.09,-0.476 0,-0.37 0.114,-0.665 0.343,-0.884 0.228,-0.22 0.573,-0.362 1.036,-0.429l1.239 -0.179c0,-0.783 -0.304,-1.175 -0.915,-1.175 -0.477,0 -0.92,0.174 -1.328,0.522l0 -0.557c0.086,-0.06 0.182,-0.116 0.29,-0.165 0.109,-0.049 0.223,-0.091 0.342,-0.128 0.12,-0.035 0.244,-0.062 0.37,-0.082 0.128,-0.021 0.25,-0.03 0.371,-0.03 0.456,0 0.801,0.127 1.033,0.382 0.234,0.255 0.351,0.634 0.351,1.14l0 2.653 -0.514 0zm-1.053 -1.98c-0.185,0.026 -0.341,0.058 -0.472,0.099 -0.13,0.04 -0.238,0.094 -0.323,0.162 -0.086,0.068 -0.149,0.151 -0.188,0.25 -0.039,0.101 -0.06,0.223 -0.06,0.37 0,0.109 0.019,0.209 0.059,0.303 0.038,0.092 0.093,0.173 0.167,0.241 0.073,0.067 0.162,0.12 0.268,0.157 0.104,0.037 0.224,0.056 0.357,0.056 0.181,0 0.347,-0.034 0.499,-0.103 0.151,-0.07 0.283,-0.166 0.393,-0.287 0.11,-0.123 0.197,-0.269 0.259,-0.439 0.063,-0.17 0.094,-0.355 0.094,-0.555l0 -0.402 -1.053 0.148z"/>
  <path id="_5" class="fil1" d="M65.932 49.231c-0.303,0.183 -0.669,0.277 -1.099,0.282 -0.293,0.003 -0.556,-0.047 -0.79,-0.151 -0.234,-0.104 -0.432,-0.248 -0.598,-0.432 -0.165,-0.185 -0.291,-0.402 -0.378,-0.654 -0.089,-0.25 -0.132,-0.523 -0.132,-0.818 0,-0.306 0.046,-0.593 0.14,-0.862 0.092,-0.27 0.228,-0.504 0.406,-0.705 0.179,-0.2 0.396,-0.359 0.654,-0.476 0.257,-0.117 0.552,-0.175 0.885,-0.175 0.337,0 0.646,0.065 0.924,0.195l0 0.541c-0.297,-0.197 -0.619,-0.296 -0.966,-0.296 -0.242,0 -0.458,0.046 -0.647,0.137 -0.189,0.093 -0.348,0.218 -0.477,0.375 -0.129,0.158 -0.227,0.343 -0.295,0.555 -0.068,0.211 -0.102,0.435 -0.102,0.672 0,0.217 0.028,0.426 0.086,0.625 0.057,0.2 0.145,0.375 0.263,0.529 0.119,0.152 0.268,0.274 0.449,0.364 0.182,0.091 0.394,0.136 0.64,0.136 0.383,0 0.729,-0.114 1.037,-0.344l0 0.502z"/>
  <path id="_6" class="fil1" d="M69.661 49.415l0 -2.4c0,-0.457 -0.082,-0.794 -0.246,-1.01 -0.165,-0.216 -0.42,-0.325 -0.767,-0.325 -0.163,0 -0.319,0.033 -0.467,0.099 -0.149,0.067 -0.279,0.163 -0.389,0.287 -0.112,0.125 -0.2,0.277 -0.267,0.457 -0.066,0.179 -0.099,0.382 -0.099,0.609l0 2.283 -0.514 0 0 -6.035 0.514 0 0 2.66 0.016 0c0.319,-0.534 0.774,-0.8 1.368,-0.8 0.454,0 0.795,0.14 1.022,0.418 0.229,0.279 0.343,0.691 0.343,1.235l0 2.522 -0.514 0z"/>
  <path id="_7" class="fil1" d="M71.654 44.31c-0.1,0 -0.184,-0.034 -0.256,-0.104 -0.073,-0.069 -0.109,-0.157 -0.109,-0.263 0,-0.104 0.036,-0.189 0.109,-0.257 0.072,-0.068 0.156,-0.102 0.256,-0.102 0.05,0 0.099,0.008 0.144,0.026 0.046,0.017 0.084,0.042 0.118,0.073 0.034,0.033 0.06,0.071 0.08,0.114 0.021,0.044 0.03,0.093 0.03,0.146 0,0.05 -0.009,0.098 -0.028,0.144 -0.018,0.045 -0.045,0.084 -0.081,0.117 -0.034,0.034 -0.073,0.06 -0.116,0.077 -0.045,0.019 -0.094,0.029 -0.147,0.029zm-0.253 5.105l0 -4.078 0.514 0 0 4.078 -0.514 0z"/>
  <path id="_8" class="fil1" d="M75.974 49.415l0 -2.351c0,-0.923 -0.333,-1.384 -1.001,-1.384 -0.176,0 -0.341,0.035 -0.492,0.106 -0.151,0.071 -0.281,0.167 -0.391,0.292 -0.109,0.125 -0.196,0.273 -0.257,0.445 -0.063,0.171 -0.094,0.357 -0.094,0.556l0 2.336 -0.514 0 0 -4.078 0.514 0 0 0.707 0.016 0c0.302,-0.537 0.757,-0.804 1.364,-0.804 0.446,0 0.785,0.144 1.019,0.433 0.233,0.29 0.35,0.708 0.35,1.256l0 2.486 -0.514 0z"/>
  <path id="_9" class="fil1" d="M81.082 49.101c0,0.758 -0.173,1.319 -0.518,1.683 -0.345,0.366 -0.877,0.548 -1.596,0.548 -0.447,0 -0.871,-0.099 -1.271,-0.298l0 -0.517c0.445,0.244 0.868,0.367 1.27,0.367 1.067,0 1.601,-0.563 1.601,-1.687l0 -0.488 -0.016 0c-0.313,0.537 -0.791,0.804 -1.434,0.804 -0.253,0 -0.483,-0.046 -0.692,-0.14 -0.208,-0.092 -0.388,-0.227 -0.536,-0.402 -0.148,-0.175 -0.265,-0.389 -0.346,-0.64 -0.083,-0.25 -0.124,-0.534 -0.124,-0.851 0,-0.335 0.044,-0.639 0.132,-0.915 0.087,-0.275 0.212,-0.511 0.374,-0.707 0.163,-0.197 0.359,-0.349 0.588,-0.457 0.23,-0.107 0.488,-0.161 0.775,-0.161 0.576,0 0.998,0.233 1.263,0.701l0.016 0 0 -0.604 0.514 0 0 3.764zm-0.514 -2.165c0,-0.17 -0.031,-0.332 -0.092,-0.483 -0.061,-0.15 -0.146,-0.284 -0.254,-0.398 -0.111,-0.114 -0.24,-0.205 -0.391,-0.273 -0.149,-0.068 -0.315,-0.102 -0.496,-0.102 -0.213,0 -0.405,0.041 -0.577,0.124 -0.172,0.083 -0.317,0.2 -0.438,0.35 -0.122,0.151 -0.215,0.336 -0.28,0.552 -0.065,0.218 -0.098,0.461 -0.098,0.732 0,0.25 0.031,0.475 0.092,0.678 0.062,0.202 0.147,0.374 0.259,0.514 0.113,0.141 0.247,0.25 0.405,0.327 0.159,0.078 0.336,0.116 0.529,0.116 0.202,0 0.386,-0.037 0.551,-0.11 0.165,-0.072 0.306,-0.174 0.423,-0.303 0.117,-0.128 0.208,-0.28 0.272,-0.454 0.064,-0.174 0.095,-0.362 0.095,-0.564l0 -0.706z"/>
  <path id="_10" class="fil1" d="M85.585 49.415l-0.859 -1.638c-0.085,-0.163 -0.167,-0.297 -0.247,-0.406 -0.079,-0.11 -0.162,-0.197 -0.246,-0.262 -0.084,-0.064 -0.175,-0.112 -0.272,-0.139 -0.098,-0.029 -0.205,-0.042 -0.325,-0.042l-0.628 0 0 2.487 -0.53 0 0 -5.709 1.643 0c0.215,0 0.423,0.032 0.624,0.095 0.2,0.064 0.378,0.158 0.535,0.283 0.156,0.125 0.282,0.282 0.376,0.469 0.094,0.189 0.142,0.408 0.142,0.657 0,0.201 -0.03,0.387 -0.092,0.557 -0.061,0.169 -0.148,0.319 -0.261,0.451 -0.112,0.131 -0.248,0.242 -0.409,0.333 -0.161,0.093 -0.342,0.161 -0.543,0.206l0 0.016c0.077,0.031 0.146,0.073 0.21,0.124 0.064,0.05 0.125,0.111 0.185,0.183 0.06,0.071 0.118,0.154 0.177,0.246 0.058,0.094 0.119,0.2 0.182,0.32l0.958 1.769 -0.62 0zm-2.577 -5.219l0 2.251 0.946 0c0.192,0 0.366,-0.028 0.525,-0.083 0.159,-0.056 0.295,-0.136 0.408,-0.239 0.113,-0.102 0.2,-0.227 0.262,-0.373 0.063,-0.145 0.094,-0.31 0.094,-0.492 0,-0.332 -0.106,-0.591 -0.319,-0.78 -0.214,-0.189 -0.522,-0.284 -0.926,-0.284l-0.99 0z"/>
  <path id="_11" class="fil1" d="M87.109 47.466c0.003,0.25 0.036,0.475 0.1,0.674 0.063,0.199 0.155,0.369 0.274,0.506 0.12,0.139 0.265,0.245 0.436,0.317 0.172,0.073 0.365,0.11 0.58,0.11 0.459,0 0.893,-0.16 1.302,-0.483l0 0.505c-0.39,0.278 -0.863,0.418 -1.418,0.418 -0.273,0 -0.522,-0.047 -0.745,-0.144 -0.223,-0.095 -0.412,-0.234 -0.57,-0.416 -0.156,-0.182 -0.277,-0.406 -0.361,-0.671 -0.086,-0.267 -0.128,-0.57 -0.128,-0.91 0,-0.305 0.046,-0.588 0.139,-0.849 0.094,-0.26 0.221,-0.486 0.386,-0.676 0.166,-0.19 0.36,-0.338 0.586,-0.446 0.225,-0.107 0.471,-0.161 0.739,-0.161 0.264,0 0.495,0.046 0.698,0.137 0.201,0.092 0.371,0.223 0.507,0.393 0.137,0.17 0.24,0.376 0.312,0.621 0.072,0.245 0.108,0.518 0.108,0.82l0 0.255 -2.945 0zm2.423 -0.448c-0.008,-0.424 -0.109,-0.753 -0.304,-0.987 -0.194,-0.234 -0.464,-0.351 -0.81,-0.351 -0.172,0 -0.333,0.03 -0.481,0.091 -0.147,0.061 -0.277,0.15 -0.389,0.265 -0.111,0.116 -0.204,0.257 -0.277,0.423 -0.073,0.166 -0.124,0.352 -0.154,0.559l2.415 0z"/>
  <path id="_12" class="fil1" d="M90.834 48.683c0.077,0.061 0.16,0.115 0.25,0.163 0.09,0.047 0.183,0.088 0.279,0.124 0.095,0.034 0.19,0.059 0.288,0.077 0.096,0.018 0.187,0.026 0.276,0.026 0.603,0 0.905,-0.227 0.905,-0.68 0,-0.103 -0.022,-0.193 -0.064,-0.269 -0.042,-0.076 -0.103,-0.145 -0.182,-0.208 -0.08,-0.062 -0.175,-0.119 -0.287,-0.173 -0.111,-0.053 -0.238,-0.108 -0.378,-0.167 -0.189,-0.077 -0.35,-0.156 -0.486,-0.235 -0.135,-0.08 -0.246,-0.167 -0.335,-0.261 -0.087,-0.095 -0.152,-0.198 -0.194,-0.311 -0.042,-0.113 -0.064,-0.242 -0.064,-0.385 0,-0.181 0.039,-0.342 0.117,-0.482 0.079,-0.142 0.183,-0.261 0.315,-0.359 0.133,-0.098 0.286,-0.174 0.458,-0.226 0.174,-0.052 0.356,-0.077 0.547,-0.077 0.352,0 0.658,0.066 0.92,0.198l0 0.537c-0.304,-0.197 -0.633,-0.295 -0.985,-0.295 -0.127,0 -0.242,0.016 -0.347,0.048 -0.105,0.032 -0.194,0.077 -0.269,0.136 -0.074,0.058 -0.132,0.129 -0.173,0.21 -0.041,0.082 -0.061,0.171 -0.061,0.269 0,0.102 0.016,0.191 0.048,0.265 0.032,0.077 0.081,0.146 0.149,0.207 0.068,0.06 0.155,0.118 0.262,0.175 0.108,0.056 0.238,0.116 0.393,0.18 0.196,0.079 0.366,0.158 0.509,0.236 0.144,0.079 0.262,0.163 0.354,0.256 0.093,0.091 0.162,0.193 0.207,0.307 0.045,0.113 0.068,0.243 0.068,0.392 0,0.183 -0.038,0.348 -0.113,0.49 -0.076,0.144 -0.181,0.265 -0.314,0.363 -0.133,0.098 -0.291,0.173 -0.47,0.223 -0.18,0.051 -0.375,0.076 -0.587,0.076 -0.411,0 -0.756,-0.087 -1.036,-0.259l0 -0.571z"/>
  <path id="_13" class="fil1" d="M94.613 47.466c0.003,0.25 0.035,0.475 0.099,0.674 0.064,0.199 0.155,0.369 0.275,0.506 0.119,0.139 0.265,0.245 0.436,0.317 0.171,0.073 0.364,0.11 0.579,0.11 0.46,0 0.893,-0.16 1.302,-0.483l0 0.505c-0.39,0.278 -0.863,0.418 -1.417,0.418 -0.274,0 -0.522,-0.047 -0.745,-0.144 -0.223,-0.095 -0.412,-0.234 -0.57,-0.416 -0.156,-0.182 -0.277,-0.406 -0.362,-0.671 -0.085,-0.267 -0.127,-0.57 -0.127,-0.91 0,-0.305 0.046,-0.588 0.138,-0.849 0.094,-0.26 0.222,-0.486 0.386,-0.676 0.166,-0.19 0.361,-0.338 0.586,-0.446 0.226,-0.107 0.472,-0.161 0.74,-0.161 0.263,0 0.495,0.046 0.697,0.137 0.201,0.092 0.371,0.223 0.507,0.393 0.137,0.17 0.241,0.376 0.313,0.621 0.072,0.245 0.107,0.518 0.107,0.82l0 0.255 -2.944 0zm2.422 -0.448c-0.008,-0.424 -0.109,-0.753 -0.303,-0.987 -0.194,-0.234 -0.465,-0.351 -0.81,-0.351 -0.173,0 -0.333,0.03 -0.481,0.091 -0.147,0.061 -0.278,0.15 -0.389,0.265 -0.112,0.116 -0.204,0.257 -0.277,0.423 -0.074,0.166 -0.124,0.352 -0.154,0.559l2.414 0z"/>
  <path id="_14" class="fil1" d="M100.915 49.415l0 -0.725 -0.017 0c-0.131,0.261 -0.314,0.463 -0.543,0.607 -0.23,0.144 -0.49,0.216 -0.779,0.216 -0.197,0 -0.374,-0.028 -0.532,-0.084 -0.159,-0.056 -0.292,-0.135 -0.402,-0.236 -0.112,-0.104 -0.196,-0.226 -0.256,-0.37 -0.059,-0.144 -0.089,-0.302 -0.089,-0.476 0,-0.37 0.114,-0.665 0.342,-0.884 0.229,-0.22 0.574,-0.362 1.036,-0.429l1.24 -0.179c0,-0.783 -0.305,-1.175 -0.915,-1.175 -0.477,0 -0.92,0.174 -1.328,0.522l0 -0.557c0.086,-0.06 0.182,-0.116 0.289,-0.165 0.109,-0.049 0.223,-0.091 0.343,-0.128 0.12,-0.035 0.243,-0.062 0.37,-0.082 0.127,-0.021 0.25,-0.03 0.371,-0.03 0.455,0 0.8,0.127 1.033,0.382 0.234,0.255 0.351,0.634 0.351,1.14l0 2.653 -0.514 0zm-1.054 -1.98c-0.185,0.026 -0.341,0.058 -0.471,0.099 -0.131,0.04 -0.238,0.094 -0.324,0.162 -0.086,0.068 -0.148,0.151 -0.188,0.25 -0.039,0.101 -0.059,0.223 -0.059,0.37 0,0.109 0.019,0.209 0.058,0.303 0.038,0.092 0.094,0.173 0.167,0.241 0.074,0.067 0.162,0.12 0.268,0.157 0.105,0.037 0.224,0.056 0.358,0.056 0.18,0 0.346,-0.034 0.498,-0.103 0.151,-0.07 0.283,-0.166 0.393,-0.287 0.11,-0.123 0.197,-0.269 0.26,-0.439 0.062,-0.17 0.094,-0.355 0.094,-0.555l0 -0.402 -1.054 0.148z"/>
  <path id="_15" class="fil1" d="M104.675 45.861c-0.12,-0.089 -0.274,-0.132 -0.463,-0.132 -0.134,0 -0.254,0.026 -0.357,0.077 -0.105,0.052 -0.194,0.121 -0.273,0.21 -0.079,0.087 -0.144,0.189 -0.199,0.304 -0.055,0.116 -0.099,0.235 -0.132,0.36 -0.034,0.126 -0.057,0.252 -0.072,0.378 -0.015,0.128 -0.021,0.249 -0.021,0.363l0 1.994 -0.506 0 0 -4.078 0.506 0 0 0.875 0.016 0c0.048,-0.149 0.107,-0.283 0.181,-0.4 0.073,-0.118 0.157,-0.219 0.253,-0.299 0.095,-0.082 0.199,-0.143 0.312,-0.185 0.113,-0.042 0.231,-0.064 0.356,-0.064 0.083,0 0.157,0.006 0.222,0.016 0.064,0.01 0.124,0.026 0.177,0.048l0 0.533z"/>
  <path id="_16" class="fil1" d="M108.02 49.231c-0.303,0.183 -0.669,0.277 -1.1,0.282 -0.292,0.003 -0.556,-0.047 -0.79,-0.151 -0.233,-0.104 -0.432,-0.248 -0.598,-0.432 -0.164,-0.185 -0.291,-0.402 -0.378,-0.654 -0.088,-0.25 -0.131,-0.523 -0.131,-0.818 0,-0.306 0.046,-0.593 0.14,-0.862 0.092,-0.27 0.228,-0.504 0.406,-0.705 0.178,-0.2 0.396,-0.359 0.654,-0.476 0.257,-0.117 0.552,-0.175 0.885,-0.175 0.337,0 0.645,0.065 0.924,0.195l0 0.541c-0.298,-0.197 -0.62,-0.296 -0.966,-0.296 -0.242,0 -0.458,0.046 -0.647,0.137 -0.189,0.093 -0.348,0.218 -0.477,0.375 -0.13,0.158 -0.228,0.343 -0.296,0.555 -0.068,0.211 -0.101,0.435 -0.101,0.672 0,0.217 0.028,0.426 0.085,0.625 0.057,0.2 0.146,0.375 0.264,0.529 0.118,0.152 0.268,0.274 0.448,0.364 0.183,0.091 0.395,0.136 0.641,0.136 0.383,0 0.728,-0.114 1.037,-0.344l0 0.502z"/>
  <path id="_17" class="fil1" d="M111.749 49.415l0 -2.4c0,-0.457 -0.082,-0.794 -0.246,-1.01 -0.165,-0.216 -0.42,-0.325 -0.767,-0.325 -0.163,0 -0.32,0.033 -0.468,0.099 -0.148,0.067 -0.278,0.163 -0.388,0.287 -0.112,0.125 -0.2,0.277 -0.267,0.457 -0.067,0.179 -0.099,0.382 -0.099,0.609l0 2.283 -0.514 0 0 -6.035 0.514 0 0 2.66 0.016 0c0.318,-0.534 0.774,-0.8 1.368,-0.8 0.454,0 0.795,0.14 1.022,0.418 0.228,0.279 0.342,0.691 0.342,1.235l0 2.522 -0.513 0z"/>
  <path id="_18" class="fil1" d="M117.77 49.019c-0.587,0.33 -1.209,0.494 -1.866,0.494 -0.414,0 -0.787,-0.07 -1.117,-0.213 -0.329,-0.141 -0.611,-0.34 -0.842,-0.593 -0.231,-0.254 -0.409,-0.556 -0.533,-0.908 -0.123,-0.352 -0.184,-0.738 -0.184,-1.161 0,-0.278 0.029,-0.546 0.089,-0.804 0.06,-0.257 0.148,-0.499 0.264,-0.725 0.116,-0.226 0.257,-0.429 0.424,-0.613 0.169,-0.183 0.36,-0.341 0.576,-0.473 0.218,-0.133 0.457,-0.235 0.717,-0.307 0.261,-0.072 0.542,-0.108 0.843,-0.108 0.565,0 1.071,0.101 1.515,0.302l0 0.585c-0.489,-0.271 -1.015,-0.405 -1.579,-0.405 -0.35,0 -0.664,0.063 -0.946,0.191 -0.282,0.127 -0.522,0.302 -0.721,0.525 -0.197,0.223 -0.35,0.487 -0.461,0.791 -0.108,0.305 -0.164,0.634 -0.167,0.99 -0.003,0.353 0.044,0.679 0.137,0.977 0.096,0.299 0.236,0.557 0.422,0.775 0.186,0.217 0.416,0.387 0.689,0.51 0.275,0.122 0.591,0.183 0.95,0.183 0.484,0 0.904,-0.1 1.26,-0.303l0 -1.744 -1.296 0 0 -0.481 1.826 0 0 2.515z"/>
  <path id="_19" class="fil1" d="M121.676 49.415l0 -0.69 -0.016 0c-0.276,0.526 -0.705,0.788 -1.286,0.788 -0.97,0 -1.455,-0.592 -1.455,-1.776l0 -2.4 0.514 0 0 2.302c0,0.489 0.087,0.849 0.261,1.083 0.173,0.234 0.439,0.351 0.796,0.351 0.176,0 0.335,-0.034 0.48,-0.102 0.144,-0.068 0.269,-0.163 0.374,-0.287 0.105,-0.122 0.186,-0.27 0.245,-0.443 0.058,-0.173 0.087,-0.364 0.087,-0.574l0 -2.33 0.514 0 0 4.078 -0.514 0z"/>
  <path id="_20" class="fil1" d="M123.754 44.31c-0.099,0 -0.183,-0.034 -0.255,-0.104 -0.074,-0.069 -0.109,-0.157 -0.109,-0.263 0,-0.104 0.035,-0.189 0.109,-0.257 0.072,-0.068 0.156,-0.102 0.255,-0.102 0.051,0 0.099,0.008 0.144,0.026 0.047,0.017 0.085,0.042 0.119,0.073 0.034,0.033 0.059,0.071 0.08,0.114 0.02,0.044 0.03,0.093 0.03,0.146 0,0.05 -0.01,0.098 -0.029,0.144 -0.018,0.045 -0.045,0.084 -0.08,0.117 -0.034,0.034 -0.073,0.06 -0.117,0.077 -0.045,0.019 -0.094,0.029 -0.147,0.029zm-0.253 5.105l0 -4.078 0.514 0 0 4.078 -0.514 0z"/>
  <path id="_21" class="fil1" d="M128.18 49.415l0 -0.715 -0.016 0c-0.135,0.257 -0.329,0.459 -0.579,0.6 -0.252,0.143 -0.537,0.213 -0.855,0.213 -0.256,0 -0.487,-0.047 -0.696,-0.141 -0.208,-0.095 -0.388,-0.231 -0.536,-0.409 -0.148,-0.178 -0.263,-0.393 -0.345,-0.646 -0.08,-0.253 -0.121,-0.538 -0.121,-0.856 0,-0.331 0.045,-0.631 0.133,-0.904 0.09,-0.272 0.216,-0.506 0.379,-0.702 0.164,-0.195 0.361,-0.346 0.59,-0.454 0.23,-0.107 0.486,-0.161 0.767,-0.161 0.587,0 1.009,0.235 1.263,0.705l0.016 0 0 -2.565 0.514 0 0 6.035 -0.514 0zm0 -2.463c0,-0.178 -0.031,-0.345 -0.092,-0.499 -0.061,-0.153 -0.146,-0.288 -0.254,-0.402 -0.11,-0.114 -0.241,-0.205 -0.395,-0.272 -0.152,-0.066 -0.32,-0.099 -0.504,-0.099 -0.203,0 -0.389,0.039 -0.559,0.12 -0.17,0.08 -0.316,0.194 -0.437,0.345 -0.121,0.149 -0.215,0.333 -0.283,0.548 -0.068,0.215 -0.102,0.459 -0.102,0.734 0,0.257 0.031,0.488 0.092,0.693 0.062,0.205 0.149,0.378 0.261,0.518 0.113,0.141 0.248,0.249 0.405,0.323 0.157,0.075 0.332,0.112 0.522,0.112 0.208,0 0.396,-0.037 0.562,-0.112 0.166,-0.074 0.307,-0.176 0.423,-0.307 0.115,-0.13 0.205,-0.282 0.267,-0.458 0.063,-0.175 0.094,-0.363 0.094,-0.563l0 -0.681z"/>
  <path id="_22" class="fil1" d="M130.245 47.466c0.003,0.25 0.035,0.475 0.099,0.674 0.064,0.199 0.155,0.369 0.275,0.506 0.119,0.139 0.265,0.245 0.436,0.317 0.171,0.073 0.365,0.11 0.579,0.11 0.46,0 0.893,-0.16 1.302,-0.483l0 0.505c-0.39,0.278 -0.863,0.418 -1.417,0.418 -0.273,0 -0.522,-0.047 -0.745,-0.144 -0.223,-0.095 -0.412,-0.234 -0.57,-0.416 -0.156,-0.182 -0.277,-0.406 -0.361,-0.671 -0.086,-0.267 -0.128,-0.57 -0.128,-0.91 0,-0.305 0.046,-0.588 0.139,-0.849 0.093,-0.26 0.221,-0.486 0.386,-0.676 0.165,-0.19 0.36,-0.338 0.586,-0.446 0.225,-0.107 0.471,-0.161 0.739,-0.161 0.264,0 0.495,0.046 0.697,0.137 0.201,0.092 0.371,0.223 0.507,0.393 0.138,0.17 0.241,0.376 0.313,0.621 0.072,0.245 0.107,0.518 0.107,0.82l0 0.255 -2.944 0zm2.422 -0.448c-0.008,-0.424 -0.108,-0.753 -0.303,-0.987 -0.194,-0.234 -0.465,-0.351 -0.81,-0.351 -0.173,0 -0.333,0.03 -0.481,0.091 -0.147,0.061 -0.277,0.15 -0.389,0.265 -0.111,0.116 -0.204,0.257 -0.277,0.423 -0.074,0.166 -0.124,0.352 -0.154,0.559l2.414 0z"/>
  <g>
   <path id="_23" class="fil2 str0" d="M48.262 49.415l-0.859 -1.638c-0.085,-0.163 -0.167,-0.297 -0.247,-0.406 -0.079,-0.11 -0.162,-0.197 -0.246,-0.262 -0.085,-0.064 -0.176,-0.112 -0.272,-0.139 -0.098,-0.029 -0.205,-0.042 -0.325,-0.042l-0.628 0 0 2.487 -0.53 0 0 -5.709 1.643 0c0.215,0 0.423,0.032 0.624,0.095 0.2,0.064 0.378,0.158 0.534,0.283 0.157,0.125 0.283,0.282 0.377,0.469 0.094,0.189 0.141,0.408 0.141,0.657 0,0.201 -0.03,0.387 -0.091,0.557 -0.061,0.169 -0.148,0.319 -0.261,0.451 -0.113,0.131 -0.249,0.242 -0.409,0.333 -0.162,0.093 -0.342,0.161 -0.544,0.206l0 0.016c0.078,0.031 0.147,0.073 0.211,0.124 0.064,0.05 0.125,0.111 0.185,0.183 0.06,0.071 0.118,0.154 0.177,0.246 0.058,0.094 0.119,0.2 0.182,0.32l0.958 1.769 -0.62 0zm-2.577 -5.219l0 2.251 0.946 0c0.192,0 0.366,-0.028 0.525,-0.083 0.159,-0.056 0.295,-0.136 0.408,-0.239 0.112,-0.102 0.199,-0.227 0.262,-0.373 0.062,-0.145 0.094,-0.31 0.094,-0.492 0,-0.332 -0.106,-0.591 -0.32,-0.78 -0.213,-0.189 -0.522,-0.284 -0.925,-0.284l-0.99 0z"/>
  </g>
  <g>
   <path id="_24" class="fil2 str0" d="M50.012 49.497c-0.106,0 -0.197,-0.037 -0.271,-0.111 -0.075,-0.074 -0.111,-0.165 -0.111,-0.271 0,-0.107 0.036,-0.2 0.109,-0.273 0.073,-0.075 0.164,-0.112 0.273,-0.112 0.053,0 0.102,0.01 0.148,0.03 0.046,0.021 0.087,0.047 0.121,0.079 0.035,0.034 0.063,0.074 0.084,0.121 0.021,0.049 0.032,0.101 0.032,0.155 0,0.053 -0.011,0.103 -0.032,0.15 -0.021,0.046 -0.049,0.087 -0.084,0.121 -0.034,0.034 -0.075,0.061 -0.121,0.081 -0.046,0.021 -0.095,0.03 -0.148,0.03z"/>
  </g>
  <g>
   <polygon id="_25" class="fil2 str0" points="53.277,44.196 53.277,49.415 52.747,49.415 52.747,44.196 51.099,44.196 51.099,43.706 54.924,43.706 54.924,44.196 "/>
  </g>
  <g>
   <path id="_26" class="fil2 str0" d="M55.181 47.466c0.003,0.25 0.036,0.475 0.1,0.674 0.063,0.199 0.155,0.369 0.274,0.506 0.12,0.139 0.265,0.245 0.437,0.317 0.171,0.073 0.364,0.11 0.579,0.11 0.459,0 0.893,-0.16 1.302,-0.483l0 0.505c-0.39,0.278 -0.863,0.418 -1.418,0.418 -0.273,0 -0.522,-0.047 -0.745,-0.144 -0.223,-0.095 -0.412,-0.234 -0.569,-0.416 -0.157,-0.182 -0.278,-0.406 -0.362,-0.671 -0.086,-0.267 -0.128,-0.57 -0.128,-0.91 0,-0.305 0.046,-0.588 0.139,-0.849 0.094,-0.26 0.221,-0.486 0.386,-0.676 0.166,-0.19 0.36,-0.338 0.586,-0.446 0.225,-0.107 0.471,-0.161 0.739,-0.161 0.264,0 0.495,0.046 0.698,0.137 0.201,0.092 0.371,0.223 0.507,0.393 0.137,0.17 0.24,0.376 0.312,0.621 0.072,0.245 0.108,0.518 0.108,0.82l0 0.255 -2.945 0zm2.423 -0.448c-0.008,-0.424 -0.109,-0.753 -0.303,-0.987 -0.195,-0.234 -0.465,-0.351 -0.811,-0.351 -0.172,0 -0.333,0.03 -0.481,0.091 -0.147,0.061 -0.277,0.15 -0.389,0.265 -0.111,0.116 -0.204,0.257 -0.277,0.423 -0.073,0.166 -0.124,0.352 -0.153,0.559l2.414 0z"/>
  </g>
  <g>
   <path id="_27" class="fil2 str0" d="M61.483 49.415l0 -0.725 -0.016 0c-0.132,0.261 -0.314,0.463 -0.544,0.607 -0.23,0.144 -0.489,0.216 -0.779,0.216 -0.197,0 -0.374,-0.028 -0.531,-0.084 -0.159,-0.056 -0.292,-0.135 -0.403,-0.236 -0.111,-0.104 -0.195,-0.226 -0.255,-0.37 -0.06,-0.144 -0.09,-0.302 -0.09,-0.476 0,-0.37 0.114,-0.665 0.343,-0.884 0.228,-0.22 0.573,-0.362 1.036,-0.429l1.239 -0.179c0,-0.783 -0.304,-1.175 -0.915,-1.175 -0.477,0 -0.92,0.174 -1.328,0.522l0 -0.557c0.086,-0.06 0.182,-0.116 0.29,-0.165 0.109,-0.049 0.223,-0.091 0.342,-0.128 0.12,-0.035 0.244,-0.062 0.37,-0.082 0.128,-0.021 0.25,-0.03 0.371,-0.03 0.456,0 0.801,0.127 1.033,0.382 0.234,0.255 0.351,0.634 0.351,1.14l0 2.653 -0.514 0zm-1.053 -1.98c-0.185,0.026 -0.341,0.058 -0.472,0.099 -0.13,0.04 -0.238,0.094 -0.323,0.162 -0.086,0.068 -0.149,0.151 -0.188,0.25 -0.039,0.101 -0.06,0.223 -0.06,0.37 0,0.109 0.019,0.209 0.059,0.303 0.038,0.092 0.093,0.173 0.167,0.241 0.073,0.067 0.162,0.12 0.268,0.157 0.104,0.037 0.224,0.056 0.357,0.056 0.181,0 0.347,-0.034 0.499,-0.103 0.151,-0.07 0.283,-0.166 0.393,-0.287 0.11,-0.123 0.197,-0.269 0.259,-0.439 0.063,-0.17 0.094,-0.355 0.094,-0.555l0 -0.402 -1.053 0.148z"/>
  </g>
  <g>
   <path id="_28" class="fil2 str0" d="M65.932 49.231c-0.303,0.183 -0.669,0.277 -1.099,0.282 -0.293,0.003 -0.556,-0.047 -0.79,-0.151 -0.234,-0.104 -0.432,-0.248 -0.598,-0.432 -0.165,-0.185 -0.291,-0.402 -0.378,-0.654 -0.089,-0.25 -0.132,-0.523 -0.132,-0.818 0,-0.306 0.046,-0.593 0.14,-0.862 0.092,-0.27 0.228,-0.504 0.406,-0.705 0.179,-0.2 0.396,-0.359 0.654,-0.476 0.257,-0.117 0.552,-0.175 0.885,-0.175 0.337,0 0.646,0.065 0.924,0.195l0 0.541c-0.297,-0.197 -0.619,-0.296 -0.966,-0.296 -0.242,0 -0.458,0.046 -0.647,0.137 -0.189,0.093 -0.348,0.218 -0.477,0.375 -0.129,0.158 -0.227,0.343 -0.295,0.555 -0.068,0.211 -0.102,0.435 -0.102,0.672 0,0.217 0.028,0.426 0.086,0.625 0.057,0.2 0.145,0.375 0.263,0.529 0.119,0.152 0.268,0.274 0.449,0.364 0.182,0.091 0.394,0.136 0.64,0.136 0.383,0 0.729,-0.114 1.037,-0.344l0 0.502z"/>
  </g>
  <g>
   <path id="_29" class="fil2 str0" d="M69.661 49.415l0 -2.4c0,-0.457 -0.082,-0.794 -0.246,-1.01 -0.165,-0.216 -0.42,-0.325 -0.767,-0.325 -0.163,0 -0.319,0.033 -0.467,0.099 -0.149,0.067 -0.279,0.163 -0.389,0.287 -0.112,0.125 -0.2,0.277 -0.267,0.457 -0.066,0.179 -0.099,0.382 -0.099,0.609l0 2.283 -0.514 0 0 -6.035 0.514 0 0 2.66 0.016 0c0.319,-0.534 0.774,-0.8 1.368,-0.8 0.454,0 0.795,0.14 1.022,0.418 0.229,0.279 0.343,0.691 0.343,1.235l0 2.522 -0.514 0z"/>
  </g>
  <g>
   <path id="_30" class="fil2 str0" d="M71.654 44.31c-0.1,0 -0.184,-0.034 -0.256,-0.104 -0.073,-0.069 -0.109,-0.157 -0.109,-0.263 0,-0.104 0.036,-0.189 0.109,-0.257 0.072,-0.068 0.156,-0.102 0.256,-0.102 0.05,0 0.099,0.008 0.144,0.026 0.046,0.017 0.084,0.042 0.118,0.073 0.034,0.033 0.06,0.071 0.08,0.114 0.021,0.044 0.03,0.093 0.03,0.146 0,0.05 -0.009,0.098 -0.028,0.144 -0.018,0.045 -0.045,0.084 -0.081,0.117 -0.034,0.034 -0.073,0.06 -0.116,0.077 -0.045,0.019 -0.094,0.029 -0.147,0.029zm-0.253 5.105l0 -4.078 0.514 0 0 4.078 -0.514 0z"/>
  </g>
  <g>
   <path id="_31" class="fil2 str0" d="M75.974 49.415l0 -2.351c0,-0.923 -0.333,-1.384 -1.001,-1.384 -0.176,0 -0.341,0.035 -0.492,0.106 -0.151,0.071 -0.281,0.167 -0.391,0.292 -0.109,0.125 -0.196,0.273 -0.257,0.445 -0.063,0.171 -0.094,0.357 -0.094,0.556l0 2.336 -0.514 0 0 -4.078 0.514 0 0 0.707 0.016 0c0.302,-0.537 0.757,-0.804 1.364,-0.804 0.446,0 0.785,0.144 1.019,0.433 0.233,0.29 0.35,0.708 0.35,1.256l0 2.486 -0.514 0z"/>
  </g>
  <g>
   <path id="_32" class="fil2 str0" d="M81.082 49.101c0,0.758 -0.173,1.319 -0.518,1.683 -0.345,0.366 -0.877,0.548 -1.596,0.548 -0.447,0 -0.871,-0.099 -1.271,-0.298l0 -0.517c0.445,0.244 0.868,0.367 1.27,0.367 1.067,0 1.601,-0.563 1.601,-1.687l0 -0.488 -0.016 0c-0.313,0.537 -0.791,0.804 -1.434,0.804 -0.253,0 -0.483,-0.046 -0.692,-0.14 -0.208,-0.092 -0.388,-0.227 -0.536,-0.402 -0.148,-0.175 -0.265,-0.389 -0.346,-0.64 -0.083,-0.25 -0.124,-0.534 -0.124,-0.851 0,-0.335 0.044,-0.639 0.132,-0.915 0.087,-0.275 0.212,-0.511 0.374,-0.707 0.163,-0.197 0.359,-0.349 0.588,-0.457 0.23,-0.107 0.488,-0.161 0.775,-0.161 0.576,0 0.998,0.233 1.263,0.701l0.016 0 0 -0.604 0.514 0 0 3.764zm-0.514 -2.165c0,-0.17 -0.031,-0.332 -0.092,-0.483 -0.061,-0.15 -0.146,-0.284 -0.254,-0.398 -0.111,-0.114 -0.24,-0.205 -0.391,-0.273 -0.149,-0.068 -0.315,-0.102 -0.496,-0.102 -0.213,0 -0.405,0.041 -0.577,0.124 -0.172,0.083 -0.317,0.2 -0.438,0.35 -0.122,0.151 -0.215,0.336 -0.28,0.552 -0.065,0.218 -0.098,0.461 -0.098,0.732 0,0.25 0.031,0.475 0.092,0.678 0.062,0.202 0.147,0.374 0.259,0.514 0.113,0.141 0.247,0.25 0.405,0.327 0.159,0.078 0.336,0.116 0.529,0.116 0.202,0 0.386,-0.037 0.551,-0.11 0.165,-0.072 0.306,-0.174 0.423,-0.303 0.117,-0.128 0.208,-0.28 0.272,-0.454 0.064,-0.174 0.095,-0.362 0.095,-0.564l0 -0.706z"/>
  </g>
  <g>
   <path id="_33" class="fil2 str0" d="M85.585 49.415l-0.859 -1.638c-0.085,-0.163 -0.167,-0.297 -0.247,-0.406 -0.079,-0.11 -0.162,-0.197 -0.246,-0.262 -0.084,-0.064 -0.175,-0.112 -0.272,-0.139 -0.098,-0.029 -0.205,-0.042 -0.325,-0.042l-0.628 0 0 2.487 -0.53 0 0 -5.709 1.643 0c0.215,0 0.423,0.032 0.624,0.095 0.2,0.064 0.378,0.158 0.535,0.283 0.156,0.125 0.282,0.282 0.376,0.469 0.094,0.189 0.142,0.408 0.142,0.657 0,0.201 -0.03,0.387 -0.092,0.557 -0.061,0.169 -0.148,0.319 -0.261,0.451 -0.112,0.131 -0.248,0.242 -0.409,0.333 -0.161,0.093 -0.342,0.161 -0.543,0.206l0 0.016c0.077,0.031 0.146,0.073 0.21,0.124 0.064,0.05 0.125,0.111 0.185,0.183 0.06,0.071 0.118,0.154 0.177,0.246 0.058,0.094 0.119,0.2 0.182,0.32l0.958 1.769 -0.62 0zm-2.577 -5.219l0 2.251 0.946 0c0.192,0 0.366,-0.028 0.525,-0.083 0.159,-0.056 0.295,-0.136 0.408,-0.239 0.113,-0.102 0.2,-0.227 0.262,-0.373 0.063,-0.145 0.094,-0.31 0.094,-0.492 0,-0.332 -0.106,-0.591 -0.319,-0.78 -0.214,-0.189 -0.522,-0.284 -0.926,-0.284l-0.99 0z"/>
  </g>
  <g>
   <path id="_34" class="fil2 str0" d="M87.109 47.466c0.003,0.25 0.036,0.475 0.1,0.674 0.063,0.199 0.155,0.369 0.274,0.506 0.12,0.139 0.265,0.245 0.436,0.317 0.172,0.073 0.365,0.11 0.58,0.11 0.459,0 0.893,-0.16 1.302,-0.483l0 0.505c-0.39,0.278 -0.863,0.418 -1.418,0.418 -0.273,0 -0.522,-0.047 -0.745,-0.144 -0.223,-0.095 -0.412,-0.234 -0.57,-0.416 -0.156,-0.182 -0.277,-0.406 -0.361,-0.671 -0.086,-0.267 -0.128,-0.57 -0.128,-0.91 0,-0.305 0.046,-0.588 0.139,-0.849 0.094,-0.26 0.221,-0.486 0.386,-0.676 0.166,-0.19 0.36,-0.338 0.586,-0.446 0.225,-0.107 0.471,-0.161 0.739,-0.161 0.264,0 0.495,0.046 0.698,0.137 0.201,0.092 0.371,0.223 0.507,0.393 0.137,0.17 0.24,0.376 0.312,0.621 0.072,0.245 0.108,0.518 0.108,0.82l0 0.255 -2.945 0zm2.423 -0.448c-0.008,-0.424 -0.109,-0.753 -0.304,-0.987 -0.194,-0.234 -0.464,-0.351 -0.81,-0.351 -0.172,0 -0.333,0.03 -0.481,0.091 -0.147,0.061 -0.277,0.15 -0.389,0.265 -0.111,0.116 -0.204,0.257 -0.277,0.423 -0.073,0.166 -0.124,0.352 -0.154,0.559l2.415 0z"/>
  </g>
  <g>
   <path id="_35" class="fil2 str0" d="M90.834 48.683c0.077,0.061 0.16,0.115 0.25,0.163 0.09,0.047 0.183,0.088 0.279,0.124 0.095,0.034 0.19,0.059 0.288,0.077 0.096,0.018 0.187,0.026 0.276,0.026 0.603,0 0.905,-0.227 0.905,-0.68 0,-0.103 -0.022,-0.193 -0.064,-0.269 -0.042,-0.076 -0.103,-0.145 -0.182,-0.208 -0.08,-0.062 -0.175,-0.119 -0.287,-0.173 -0.111,-0.053 -0.238,-0.108 -0.378,-0.167 -0.189,-0.077 -0.35,-0.156 -0.486,-0.235 -0.135,-0.08 -0.246,-0.167 -0.335,-0.261 -0.087,-0.095 -0.152,-0.198 -0.194,-0.311 -0.042,-0.113 -0.064,-0.242 -0.064,-0.385 0,-0.181 0.039,-0.342 0.117,-0.482 0.079,-0.142 0.183,-0.261 0.315,-0.359 0.133,-0.098 0.286,-0.174 0.458,-0.226 0.174,-0.052 0.356,-0.077 0.547,-0.077 0.352,0 0.658,0.066 0.92,0.198l0 0.537c-0.304,-0.197 -0.633,-0.295 -0.985,-0.295 -0.127,0 -0.242,0.016 -0.347,0.048 -0.105,0.032 -0.194,0.077 -0.269,0.136 -0.074,0.058 -0.132,0.129 -0.173,0.21 -0.041,0.082 -0.061,0.171 -0.061,0.269 0,0.102 0.016,0.191 0.048,0.265 0.032,0.077 0.081,0.146 0.149,0.207 0.068,0.06 0.155,0.118 0.262,0.175 0.108,0.056 0.238,0.116 0.393,0.18 0.196,0.079 0.366,0.158 0.509,0.236 0.144,0.079 0.262,0.163 0.354,0.256 0.093,0.091 0.162,0.193 0.207,0.307 0.045,0.113 0.068,0.243 0.068,0.392 0,0.183 -0.038,0.348 -0.113,0.49 -0.076,0.144 -0.181,0.265 -0.314,0.363 -0.133,0.098 -0.291,0.173 -0.47,0.223 -0.18,0.051 -0.375,0.076 -0.587,0.076 -0.411,0 -0.756,-0.087 -1.036,-0.259l0 -0.571z"/>
  </g>
  <g>
   <path id="_36" class="fil2 str0" d="M94.613 47.466c0.003,0.25 0.035,0.475 0.099,0.674 0.064,0.199 0.155,0.369 0.275,0.506 0.119,0.139 0.265,0.245 0.436,0.317 0.171,0.073 0.364,0.11 0.579,0.11 0.46,0 0.893,-0.16 1.302,-0.483l0 0.505c-0.39,0.278 -0.863,0.418 -1.417,0.418 -0.274,0 -0.522,-0.047 -0.745,-0.144 -0.223,-0.095 -0.412,-0.234 -0.57,-0.416 -0.156,-0.182 -0.277,-0.406 -0.362,-0.671 -0.085,-0.267 -0.127,-0.57 -0.127,-0.91 0,-0.305 0.046,-0.588 0.138,-0.849 0.094,-0.26 0.222,-0.486 0.386,-0.676 0.166,-0.19 0.361,-0.338 0.586,-0.446 0.226,-0.107 0.472,-0.161 0.74,-0.161 0.263,0 0.495,0.046 0.697,0.137 0.201,0.092 0.371,0.223 0.507,0.393 0.137,0.17 0.241,0.376 0.313,0.621 0.072,0.245 0.107,0.518 0.107,0.82l0 0.255 -2.944 0zm2.422 -0.448c-0.008,-0.424 -0.109,-0.753 -0.303,-0.987 -0.194,-0.234 -0.465,-0.351 -0.81,-0.351 -0.173,0 -0.333,0.03 -0.481,0.091 -0.147,0.061 -0.278,0.15 -0.389,0.265 -0.112,0.116 -0.204,0.257 -0.277,0.423 -0.074,0.166 -0.124,0.352 -0.154,0.559l2.414 0z"/>
  </g>
  <g>
   <path id="_37" class="fil2 str0" d="M100.915 49.415l0 -0.725 -0.017 0c-0.131,0.261 -0.314,0.463 -0.543,0.607 -0.23,0.144 -0.49,0.216 -0.779,0.216 -0.197,0 -0.374,-0.028 -0.532,-0.084 -0.159,-0.056 -0.292,-0.135 -0.402,-0.236 -0.112,-0.104 -0.196,-0.226 -0.256,-0.37 -0.059,-0.144 -0.089,-0.302 -0.089,-0.476 0,-0.37 0.114,-0.665 0.342,-0.884 0.229,-0.22 0.574,-0.362 1.036,-0.429l1.24 -0.179c0,-0.783 -0.305,-1.175 -0.915,-1.175 -0.477,0 -0.92,0.174 -1.328,0.522l0 -0.557c0.086,-0.06 0.182,-0.116 0.289,-0.165 0.109,-0.049 0.223,-0.091 0.343,-0.128 0.12,-0.035 0.243,-0.062 0.37,-0.082 0.127,-0.021 0.25,-0.03 0.371,-0.03 0.455,0 0.8,0.127 1.033,0.382 0.234,0.255 0.351,0.634 0.351,1.14l0 2.653 -0.514 0zm-1.054 -1.98c-0.185,0.026 -0.341,0.058 -0.471,0.099 -0.131,0.04 -0.238,0.094 -0.324,0.162 -0.086,0.068 -0.148,0.151 -0.188,0.25 -0.039,0.101 -0.059,0.223 -0.059,0.37 0,0.109 0.019,0.209 0.058,0.303 0.038,0.092 0.094,0.173 0.167,0.241 0.074,0.067 0.162,0.12 0.268,0.157 0.105,0.037 0.224,0.056 0.358,0.056 0.18,0 0.346,-0.034 0.498,-0.103 0.151,-0.07 0.283,-0.166 0.393,-0.287 0.11,-0.123 0.197,-0.269 0.26,-0.439 0.062,-0.17 0.094,-0.355 0.094,-0.555l0 -0.402 -1.054 0.148z"/>
  </g>
  <g>
   <path id="_38" class="fil2 str0" d="M104.675 45.861c-0.12,-0.089 -0.274,-0.132 -0.463,-0.132 -0.134,0 -0.254,0.026 -0.357,0.077 -0.105,0.052 -0.194,0.121 -0.273,0.21 -0.079,0.087 -0.144,0.189 -0.199,0.304 -0.055,0.116 -0.099,0.235 -0.132,0.36 -0.034,0.126 -0.057,0.252 -0.072,0.378 -0.015,0.128 -0.021,0.249 -0.021,0.363l0 1.994 -0.506 0 0 -4.078 0.506 0 0 0.875 0.016 0c0.048,-0.149 0.107,-0.283 0.181,-0.4 0.073,-0.118 0.157,-0.219 0.253,-0.299 0.095,-0.082 0.199,-0.143 0.312,-0.185 0.113,-0.042 0.231,-0.064 0.356,-0.064 0.083,0 0.157,0.006 0.222,0.016 0.064,0.01 0.124,0.026 0.177,0.048l0 0.533z"/>
  </g>
  <g>
   <path id="_39" class="fil2 str0" d="M108.02 49.231c-0.303,0.183 -0.669,0.277 -1.1,0.282 -0.292,0.003 -0.556,-0.047 -0.79,-0.151 -0.233,-0.104 -0.432,-0.248 -0.598,-0.432 -0.164,-0.185 -0.291,-0.402 -0.378,-0.654 -0.088,-0.25 -0.131,-0.523 -0.131,-0.818 0,-0.306 0.046,-0.593 0.14,-0.862 0.092,-0.27 0.228,-0.504 0.406,-0.705 0.178,-0.2 0.396,-0.359 0.654,-0.476 0.257,-0.117 0.552,-0.175 0.885,-0.175 0.337,0 0.645,0.065 0.924,0.195l0 0.541c-0.298,-0.197 -0.62,-0.296 -0.966,-0.296 -0.242,0 -0.458,0.046 -0.647,0.137 -0.189,0.093 -0.348,0.218 -0.477,0.375 -0.13,0.158 -0.228,0.343 -0.296,0.555 -0.068,0.211 -0.101,0.435 -0.101,0.672 0,0.217 0.028,0.426 0.085,0.625 0.057,0.2 0.146,0.375 0.264,0.529 0.118,0.152 0.268,0.274 0.448,0.364 0.183,0.091 0.395,0.136 0.641,0.136 0.383,0 0.728,-0.114 1.037,-0.344l0 0.502z"/>
  </g>
  <g>
   <path id="_40" class="fil2 str0" d="M111.749 49.415l0 -2.4c0,-0.457 -0.082,-0.794 -0.246,-1.01 -0.165,-0.216 -0.42,-0.325 -0.767,-0.325 -0.163,0 -0.32,0.033 -0.468,0.099 -0.148,0.067 -0.278,0.163 -0.388,0.287 -0.112,0.125 -0.2,0.277 -0.267,0.457 -0.067,0.179 -0.099,0.382 -0.099,0.609l0 2.283 -0.514 0 0 -6.035 0.514 0 0 2.66 0.016 0c0.318,-0.534 0.774,-0.8 1.368,-0.8 0.454,0 0.795,0.14 1.022,0.418 0.228,0.279 0.342,0.691 0.342,1.235l0 2.522 -0.513 0z"/>
  </g>
  <g>
   <path id="_41" class="fil2 str0" d="M117.77 49.019c-0.587,0.33 -1.209,0.494 -1.866,0.494 -0.414,0 -0.787,-0.07 -1.117,-0.213 -0.329,-0.141 -0.611,-0.34 -0.842,-0.593 -0.231,-0.254 -0.409,-0.556 -0.533,-0.908 -0.123,-0.352 -0.184,-0.738 -0.184,-1.161 0,-0.278 0.029,-0.546 0.089,-0.804 0.06,-0.257 0.148,-0.499 0.264,-0.725 0.116,-0.226 0.257,-0.429 0.424,-0.613 0.169,-0.183 0.36,-0.341 0.576,-0.473 0.218,-0.133 0.457,-0.235 0.717,-0.307 0.261,-0.072 0.542,-0.108 0.843,-0.108 0.565,0 1.071,0.101 1.515,0.302l0 0.585c-0.489,-0.271 -1.015,-0.405 -1.579,-0.405 -0.35,0 -0.664,0.063 -0.946,0.191 -0.282,0.127 -0.522,0.302 -0.721,0.525 -0.197,0.223 -0.35,0.487 -0.461,0.791 -0.108,0.305 -0.164,0.634 -0.167,0.99 -0.003,0.353 0.044,0.679 0.137,0.977 0.096,0.299 0.236,0.557 0.422,0.775 0.186,0.217 0.416,0.387 0.689,0.51 0.275,0.122 0.591,0.183 0.95,0.183 0.484,0 0.904,-0.1 1.26,-0.303l0 -1.744 -1.296 0 0 -0.481 1.826 0 0 2.515z"/>
  </g>
  <g>
   <path id="_42" class="fil2 str0" d="M121.676 49.415l0 -0.69 -0.016 0c-0.276,0.526 -0.705,0.788 -1.286,0.788 -0.97,0 -1.455,-0.592 -1.455,-1.776l0 -2.4 0.514 0 0 2.302c0,0.489 0.087,0.849 0.261,1.083 0.173,0.234 0.439,0.351 0.796,0.351 0.176,0 0.335,-0.034 0.48,-0.102 0.144,-0.068 0.269,-0.163 0.374,-0.287 0.105,-0.122 0.186,-0.27 0.245,-0.443 0.058,-0.173 0.087,-0.364 0.087,-0.574l0 -2.33 0.514 0 0 4.078 -0.514 0z"/>
  </g>
  <g>
   <path id="_43" class="fil2 str0" d="M123.754 44.31c-0.099,0 -0.183,-0.034 -0.255,-0.104 -0.074,-0.069 -0.109,-0.157 -0.109,-0.263 0,-0.104 0.035,-0.189 0.109,-0.257 0.072,-0.068 0.156,-0.102 0.255,-0.102 0.051,0 0.099,0.008 0.144,0.026 0.047,0.017 0.085,0.042 0.119,0.073 0.034,0.033 0.059,0.071 0.08,0.114 0.02,0.044 0.03,0.093 0.03,0.146 0,0.05 -0.01,0.098 -0.029,0.144 -0.018,0.045 -0.045,0.084 -0.08,0.117 -0.034,0.034 -0.073,0.06 -0.117,0.077 -0.045,0.019 -0.094,0.029 -0.147,0.029zm-0.253 5.105l0 -4.078 0.514 0 0 4.078 -0.514 0z"/>
  </g>
  <g>
   <path id="_44" class="fil2 str0" d="M128.18 49.415l0 -0.715 -0.016 0c-0.135,0.257 -0.329,0.459 -0.579,0.6 -0.252,0.143 -0.537,0.213 -0.855,0.213 -0.256,0 -0.487,-0.047 -0.696,-0.141 -0.208,-0.095 -0.388,-0.231 -0.536,-0.409 -0.148,-0.178 -0.263,-0.393 -0.345,-0.646 -0.08,-0.253 -0.121,-0.538 -0.121,-0.856 0,-0.331 0.045,-0.631 0.133,-0.904 0.09,-0.272 0.216,-0.506 0.379,-0.702 0.164,-0.195 0.361,-0.346 0.59,-0.454 0.23,-0.107 0.486,-0.161 0.767,-0.161 0.587,0 1.009,0.235 1.263,0.705l0.016 0 0 -2.565 0.514 0 0 6.035 -0.514 0zm0 -2.463c0,-0.178 -0.031,-0.345 -0.092,-0.499 -0.061,-0.153 -0.146,-0.288 -0.254,-0.402 -0.11,-0.114 -0.241,-0.205 -0.395,-0.272 -0.152,-0.066 -0.32,-0.099 -0.504,-0.099 -0.203,0 -0.389,0.039 -0.559,0.12 -0.17,0.08 -0.316,0.194 -0.437,0.345 -0.121,0.149 -0.215,0.333 -0.283,0.548 -0.068,0.215 -0.102,0.459 -0.102,0.734 0,0.257 0.031,0.488 0.092,0.693 0.062,0.205 0.149,0.378 0.261,0.518 0.113,0.141 0.248,0.249 0.405,0.323 0.157,0.075 0.332,0.112 0.522,0.112 0.208,0 0.396,-0.037 0.562,-0.112 0.166,-0.074 0.307,-0.176 0.423,-0.307 0.115,-0.13 0.205,-0.282 0.267,-0.458 0.063,-0.175 0.094,-0.363 0.094,-0.563l0 -0.681z"/>
  </g>
  <g>
   <path id="_45" class="fil2 str0" d="M130.245 47.466c0.003,0.25 0.035,0.475 0.099,0.674 0.064,0.199 0.155,0.369 0.275,0.506 0.119,0.139 0.265,0.245 0.436,0.317 0.171,0.073 0.365,0.11 0.579,0.11 0.46,0 0.893,-0.16 1.302,-0.483l0 0.505c-0.39,0.278 -0.863,0.418 -1.417,0.418 -0.273,0 -0.522,-0.047 -0.745,-0.144 -0.223,-0.095 -0.412,-0.234 -0.57,-0.416 -0.156,-0.182 -0.277,-0.406 -0.361,-0.671 -0.086,-0.267 -0.128,-0.57 -0.128,-0.91 0,-0.305 0.046,-0.588 0.139,-0.849 0.093,-0.26 0.221,-0.486 0.386,-0.676 0.165,-0.19 0.36,-0.338 0.586,-0.446 0.225,-0.107 0.471,-0.161 0.739,-0.161 0.264,0 0.495,0.046 0.697,0.137 0.201,0.092 0.371,0.223 0.507,0.393 0.138,0.17 0.241,0.376 0.313,0.621 0.072,0.245 0.107,0.518 0.107,0.82l0 0.255 -2.944 0zm2.422 -0.448c-0.008,-0.424 -0.108,-0.753 -0.303,-0.987 -0.194,-0.234 -0.465,-0.351 -0.81,-0.351 -0.173,0 -0.333,0.03 -0.481,0.091 -0.147,0.061 -0.277,0.15 -0.389,0.265 -0.111,0.116 -0.204,0.257 -0.277,0.423 -0.074,0.166 -0.124,0.352 -0.154,0.559l2.414 0z"/>
  </g>
  <path class="fil1" d="M93.272 57.862l0 -1.053c0,-0.201 -0.036,-0.349 -0.11,-0.444 -0.073,-0.094 -0.187,-0.142 -0.342,-0.142 -0.073,0 -0.142,0.014 -0.209,0.043 -0.066,0.03 -0.124,0.072 -0.173,0.126 -0.05,0.055 -0.089,0.122 -0.119,0.201 -0.03,0.079 -0.044,0.167 -0.044,0.267l0 1.002 -0.23 0 0 -2.648 0.23 0 0 1.167 0.007 0c0.142,-0.234 0.345,-0.351 0.61,-0.351 0.203,0 0.355,0.061 0.456,0.183 0.102,0.123 0.153,0.303 0.153,0.542l0 1.107 -0.229 0z"/>
  <path id="_1_0" class="fil1" d="M94.827 57.84c-0.078,0.039 -0.163,0.058 -0.255,0.058 -0.293,0 -0.44,-0.166 -0.44,-0.499l0 -1.13 -0.32 0 0 -0.196 0.32 0 0 -0.449 0.23 -0.074 0 0.523 0.465 0 0 0.196 -0.465 0 0 1.094c0,0.121 0.02,0.208 0.06,0.262 0.04,0.053 0.107,0.08 0.203,0.08 0.07,0 0.138,-0.021 0.202,-0.063l0 0.198z"/>
  <path id="_2_1" class="fil1" d="M95.984 57.84c-0.078,0.039 -0.163,0.058 -0.255,0.058 -0.293,0 -0.44,-0.166 -0.44,-0.499l0 -1.13 -0.32 0 0 -0.196 0.32 0 0 -0.449 0.229 -0.074 0 0.523 0.466 0 0 0.196 -0.466 0 0 1.094c0,0.121 0.021,0.208 0.061,0.262 0.04,0.053 0.107,0.08 0.203,0.08 0.07,0 0.138,-0.021 0.202,-0.063l0 0.198z"/>
  <path id="_3_2" class="fil1" d="M96.592 57.575l0 1.11 -0.23 0 0 -2.612 0.23 0 0 0.341 0.007 0c0.067,-0.124 0.157,-0.22 0.27,-0.285 0.113,-0.067 0.24,-0.099 0.381,-0.099 0.116,0 0.22,0.021 0.312,0.062 0.091,0.041 0.168,0.1 0.231,0.176 0.064,0.075 0.112,0.167 0.146,0.276 0.033,0.108 0.05,0.23 0.05,0.366 0,0.148 -0.018,0.283 -0.056,0.405 -0.038,0.121 -0.092,0.226 -0.163,0.314 -0.071,0.087 -0.157,0.155 -0.258,0.203 -0.101,0.049 -0.215,0.073 -0.341,0.073 -0.255,0 -0.446,-0.11 -0.572,-0.33l-0.007 0zm0 -0.458c0,0.082 0.014,0.158 0.042,0.23 0.027,0.072 0.066,0.135 0.115,0.189 0.05,0.054 0.11,0.097 0.181,0.129 0.07,0.031 0.148,0.047 0.233,0.047 0.09,0 0.173,-0.019 0.246,-0.057 0.073,-0.038 0.136,-0.092 0.187,-0.162 0.051,-0.07 0.091,-0.155 0.119,-0.254 0.027,-0.099 0.041,-0.21 0.041,-0.332 0,-0.105 -0.012,-0.2 -0.038,-0.284 -0.026,-0.085 -0.063,-0.157 -0.111,-0.216 -0.048,-0.06 -0.106,-0.105 -0.174,-0.137 -0.068,-0.032 -0.144,-0.047 -0.228,-0.047 -0.095,0 -0.18,0.017 -0.255,0.052 -0.076,0.034 -0.14,0.081 -0.193,0.141 -0.054,0.059 -0.094,0.128 -0.123,0.208 -0.028,0.08 -0.042,0.165 -0.042,0.255l0 0.238z"/>
  <path id="_4_3" class="fil1" d="M98.349 57.541c0.034,0.027 0.071,0.05 0.111,0.071 0.04,0.021 0.082,0.039 0.125,0.055 0.042,0.014 0.084,0.026 0.128,0.034 0.043,0.007 0.084,0.011 0.123,0.011 0.27,0 0.404,-0.1 0.404,-0.298 0,-0.046 -0.009,-0.085 -0.028,-0.118 -0.019,-0.034 -0.046,-0.064 -0.081,-0.092 -0.036,-0.027 -0.079,-0.052 -0.129,-0.076 -0.049,-0.023 -0.106,-0.047 -0.168,-0.073 -0.084,-0.034 -0.157,-0.068 -0.217,-0.103 -0.06,-0.035 -0.11,-0.073 -0.15,-0.115 -0.038,-0.041 -0.068,-0.087 -0.086,-0.136 -0.019,-0.05 -0.029,-0.106 -0.029,-0.169 0,-0.079 0.018,-0.15 0.052,-0.212 0.036,-0.062 0.082,-0.114 0.141,-0.157 0.06,-0.043 0.127,-0.077 0.205,-0.099 0.077,-0.023 0.158,-0.034 0.243,-0.034 0.158,0 0.294,0.029 0.411,0.087l0 0.235c-0.136,-0.086 -0.283,-0.129 -0.44,-0.129 -0.056,0 -0.108,0.007 -0.154,0.021 -0.047,0.014 -0.087,0.034 -0.121,0.06 -0.032,0.025 -0.058,0.056 -0.077,0.092 -0.018,0.036 -0.027,0.075 -0.027,0.118 0,0.045 0.007,0.084 0.021,0.116 0.015,0.034 0.037,0.064 0.067,0.091 0.03,0.026 0.069,0.052 0.117,0.077 0.048,0.024 0.106,0.051 0.176,0.079 0.087,0.034 0.163,0.069 0.226,0.104 0.065,0.034 0.117,0.071 0.159,0.112 0.041,0.04 0.072,0.084 0.092,0.134 0.02,0.05 0.03,0.107 0.03,0.172 0,0.081 -0.017,0.153 -0.05,0.216 -0.034,0.063 -0.081,0.116 -0.14,0.159 -0.06,0.043 -0.13,0.076 -0.21,0.098 -0.08,0.022 -0.168,0.033 -0.262,0.033 -0.183,0 -0.338,-0.038 -0.462,-0.114l0 -0.25z"/>
  <path id="_5_4" class="fil1" d="M100.034 56.373c-0.023,0 -0.046,-0.004 -0.066,-0.013 -0.021,-0.009 -0.039,-0.021 -0.054,-0.037 -0.016,-0.015 -0.028,-0.034 -0.037,-0.054 -0.009,-0.02 -0.013,-0.042 -0.013,-0.066 0,-0.046 0.016,-0.086 0.05,-0.118 0.032,-0.032 0.073,-0.048 0.12,-0.048 0.023,0 0.044,0.004 0.065,0.012 0.02,0.008 0.039,0.019 0.055,0.034 0.016,0.015 0.028,0.033 0.038,0.053 0.009,0.02 0.014,0.043 0.014,0.067 0,0.025 -0.005,0.047 -0.014,0.068 -0.01,0.02 -0.022,0.038 -0.038,0.053 -0.016,0.015 -0.035,0.027 -0.055,0.036 -0.021,0.009 -0.042,0.013 -0.065,0.013zm0 1.525c-0.047,0 -0.088,-0.016 -0.12,-0.049 -0.034,-0.032 -0.05,-0.072 -0.05,-0.119 0,-0.047 0.016,-0.087 0.048,-0.12 0.033,-0.032 0.074,-0.048 0.122,-0.048 0.024,0 0.046,0.004 0.067,0.013 0.02,0.009 0.038,0.02 0.054,0.034 0.015,0.015 0.027,0.032 0.037,0.053 0.009,0.022 0.014,0.044 0.014,0.068 0,0.024 -0.005,0.046 -0.014,0.066 -0.01,0.02 -0.022,0.038 -0.037,0.053 -0.016,0.015 -0.034,0.027 -0.054,0.036 -0.021,0.009 -0.043,0.013 -0.067,0.013z"/>
  <polygon id="_6_5" class="fil1" points="100.598,58.277 100.381,58.277 101.612,55.357 101.834,55.357 "/>
  <polygon id="_7_6" class="fil1" points="101.974,58.277 101.757,58.277 102.988,55.357 103.21,55.357 "/>
  <path id="_8_7" class="fil1" d="M104.982 57.724c0,0.333 -0.077,0.579 -0.231,0.739 -0.154,0.16 -0.391,0.24 -0.712,0.24 -0.2,0 -0.389,-0.043 -0.567,-0.13l0 -0.228c0.198,0.108 0.387,0.161 0.566,0.161 0.477,0 0.715,-0.246 0.715,-0.74l0 -0.214 -0.007 0c-0.14,0.236 -0.353,0.353 -0.64,0.353 -0.113,0 -0.216,-0.02 -0.309,-0.061 -0.093,-0.041 -0.173,-0.1 -0.239,-0.177 -0.066,-0.077 -0.118,-0.17 -0.155,-0.281 -0.037,-0.11 -0.055,-0.234 -0.055,-0.373 0,-0.147 0.019,-0.281 0.059,-0.402 0.039,-0.12 0.095,-0.224 0.167,-0.31 0.072,-0.086 0.16,-0.153 0.262,-0.2 0.103,-0.047 0.218,-0.071 0.346,-0.071 0.257,0 0.445,0.102 0.564,0.307l0.007 0 0 -0.264 0.229 0 0 1.651zm-0.229 -0.95c0,-0.074 -0.014,-0.145 -0.041,-0.212 -0.028,-0.066 -0.065,-0.124 -0.114,-0.174 -0.049,-0.051 -0.106,-0.09 -0.174,-0.12 -0.067,-0.03 -0.141,-0.045 -0.221,-0.045 -0.096,0 -0.181,0.018 -0.258,0.054 -0.077,0.037 -0.141,0.088 -0.195,0.154 -0.055,0.066 -0.096,0.147 -0.125,0.242 -0.03,0.096 -0.044,0.203 -0.044,0.321 0,0.11 0.014,0.209 0.041,0.298 0.027,0.089 0.066,0.164 0.115,0.225 0.051,0.062 0.111,0.11 0.181,0.144 0.071,0.034 0.15,0.051 0.236,0.051 0.091,0 0.173,-0.016 0.247,-0.048 0.073,-0.032 0.136,-0.077 0.188,-0.134 0.052,-0.056 0.093,-0.122 0.122,-0.199 0.028,-0.076 0.042,-0.158 0.042,-0.247l0 -0.31z"/>
  <path id="_9_8" class="fil1" d="M105.682 55.622c-0.045,0 -0.082,-0.015 -0.114,-0.046 -0.033,-0.03 -0.049,-0.069 -0.049,-0.115 0,-0.046 0.016,-0.083 0.049,-0.113 0.032,-0.03 0.069,-0.045 0.114,-0.045 0.022,0 0.044,0.004 0.064,0.011 0.021,0.008 0.038,0.019 0.053,0.033 0.015,0.014 0.027,0.031 0.036,0.05 0.009,0.019 0.013,0.04 0.013,0.064 0,0.022 -0.004,0.043 -0.013,0.063 -0.008,0.02 -0.02,0.037 -0.036,0.051 -0.015,0.015 -0.032,0.026 -0.052,0.034 -0.02,0.009 -0.042,0.013 -0.065,0.013zm-0.113 2.24l0 -1.789 0.229 0 0 1.789 -0.229 0z"/>
  <path id="_10_9" class="fil1" d="M107.162 57.84c-0.078,0.039 -0.163,0.058 -0.255,0.058 -0.293,0 -0.44,-0.166 -0.44,-0.499l0 -1.13 -0.32 0 0 -0.196 0.32 0 0 -0.449 0.229 -0.074 0 0.523 0.466 0 0 0.196 -0.466 0 0 1.094c0,0.121 0.02,0.208 0.06,0.262 0.04,0.053 0.108,0.08 0.203,0.08 0.071,0 0.138,-0.021 0.203,-0.063l0 0.198z"/>
  <path id="_11_10" class="fil1" d="M108.767 57.862l0 -1.053c0,-0.201 -0.037,-0.349 -0.11,-0.444 -0.074,-0.094 -0.188,-0.142 -0.342,-0.142 -0.073,0 -0.143,0.014 -0.209,0.043 -0.066,0.03 -0.124,0.072 -0.173,0.126 -0.05,0.055 -0.09,0.122 -0.119,0.201 -0.03,0.079 -0.045,0.167 -0.045,0.267l0 1.002 -0.229 0 0 -2.648 0.229 0 0 1.167 0.008 0c0.142,-0.234 0.345,-0.351 0.61,-0.351 0.203,0 0.355,0.061 0.456,0.183 0.102,0.123 0.153,0.303 0.153,0.542l0 1.107 -0.229 0z"/>
  <path id="_12_11" class="fil1" d="M110.733 57.862l0 -0.303 -0.007 0c-0.123,0.231 -0.314,0.346 -0.574,0.346 -0.432,0 -0.649,-0.26 -0.649,-0.78l0 -1.052 0.229 0 0 1.01c0,0.214 0.039,0.372 0.117,0.475 0.077,0.103 0.196,0.154 0.355,0.154 0.079,0 0.15,-0.015 0.215,-0.045 0.064,-0.03 0.12,-0.071 0.166,-0.126 0.047,-0.053 0.083,-0.118 0.11,-0.194 0.026,-0.076 0.038,-0.16 0.038,-0.252l0 -1.022 0.23 0 0 1.789 -0.23 0z"/>
  <path id="_13_12" class="fil1" d="M111.777 57.575l0 0.287 -0.229 0 0 -2.648 0.229 0 0 1.2 0.008 0c0.067,-0.124 0.157,-0.22 0.27,-0.285 0.113,-0.067 0.24,-0.099 0.381,-0.099 0.116,0 0.22,0.021 0.312,0.062 0.091,0.041 0.168,0.101 0.231,0.177 0.064,0.077 0.112,0.17 0.146,0.278 0.033,0.109 0.05,0.23 0.05,0.363 0,0.148 -0.019,0.283 -0.057,0.405 -0.039,0.121 -0.093,0.226 -0.164,0.314 -0.071,0.087 -0.157,0.155 -0.258,0.203 -0.101,0.049 -0.214,0.073 -0.339,0.073 -0.257,0 -0.447,-0.11 -0.572,-0.33l-0.008 0zm0 -0.458c0,0.082 0.014,0.158 0.042,0.23 0.028,0.072 0.066,0.135 0.116,0.189 0.05,0.054 0.11,0.097 0.18,0.129 0.071,0.031 0.148,0.047 0.233,0.047 0.091,0 0.173,-0.019 0.247,-0.057 0.073,-0.038 0.136,-0.092 0.187,-0.162 0.051,-0.07 0.091,-0.155 0.118,-0.254 0.028,-0.099 0.042,-0.21 0.042,-0.332 0,-0.105 -0.012,-0.2 -0.038,-0.284 -0.027,-0.085 -0.064,-0.157 -0.112,-0.216 -0.047,-0.06 -0.105,-0.105 -0.173,-0.137 -0.068,-0.032 -0.144,-0.047 -0.228,-0.047 -0.095,0 -0.18,0.017 -0.256,0.052 -0.075,0.034 -0.14,0.081 -0.192,0.141 -0.054,0.059 -0.094,0.128 -0.123,0.208 -0.029,0.08 -0.043,0.165 -0.043,0.255l0 0.238z"/>
  <path id="_14_13" class="fil1" d="M113.741 57.898c-0.047,0 -0.088,-0.016 -0.12,-0.049 -0.034,-0.032 -0.05,-0.072 -0.05,-0.119 0,-0.047 0.016,-0.087 0.048,-0.12 0.033,-0.032 0.074,-0.048 0.122,-0.048 0.024,0 0.046,0.004 0.066,0.013 0.021,0.009 0.039,0.02 0.054,0.034 0.016,0.015 0.028,0.032 0.038,0.053 0.009,0.022 0.014,0.044 0.014,0.068 0,0.024 -0.005,0.046 -0.014,0.066 -0.01,0.02 -0.022,0.038 -0.038,0.053 -0.015,0.015 -0.033,0.027 -0.054,0.036 -0.02,0.009 -0.042,0.013 -0.066,0.013z"/>
  <path id="_15_14" class="fil1" d="M115.644 57.781c-0.135,0.081 -0.298,0.122 -0.491,0.124 -0.13,0.001 -0.248,-0.021 -0.352,-0.066 -0.104,-0.046 -0.193,-0.109 -0.267,-0.19 -0.073,-0.081 -0.13,-0.176 -0.169,-0.287 -0.039,-0.109 -0.058,-0.229 -0.058,-0.359 0,-0.134 0.02,-0.26 0.062,-0.378 0.041,-0.119 0.102,-0.221 0.181,-0.31 0.08,-0.087 0.177,-0.157 0.292,-0.208 0.115,-0.052 0.247,-0.077 0.395,-0.077 0.151,0 0.288,0.028 0.413,0.086l0 0.237c-0.133,-0.087 -0.277,-0.13 -0.432,-0.13 -0.108,0 -0.204,0.02 -0.288,0.06 -0.085,0.041 -0.156,0.096 -0.213,0.165 -0.058,0.069 -0.102,0.15 -0.132,0.243 -0.03,0.093 -0.045,0.191 -0.045,0.295 0,0.095 0.012,0.187 0.038,0.274 0.025,0.088 0.065,0.165 0.117,0.232 0.053,0.067 0.12,0.121 0.201,0.16 0.081,0.04 0.176,0.06 0.285,0.06 0.171,0 0.326,-0.05 0.463,-0.151l0 0.22z"/>
  <path id="_16_15" class="fil1" d="M116.822 57.905c-0.134,0 -0.256,-0.022 -0.362,-0.066 -0.108,-0.045 -0.199,-0.107 -0.275,-0.189 -0.076,-0.081 -0.134,-0.177 -0.174,-0.291 -0.04,-0.113 -0.06,-0.238 -0.06,-0.376 0,-0.149 0.021,-0.283 0.063,-0.4 0.043,-0.118 0.104,-0.218 0.182,-0.3 0.079,-0.083 0.174,-0.145 0.285,-0.188 0.112,-0.044 0.236,-0.065 0.373,-0.065 0.132,0 0.25,0.021 0.355,0.064 0.106,0.042 0.195,0.104 0.269,0.184 0.073,0.08 0.129,0.179 0.168,0.294 0.04,0.116 0.059,0.247 0.059,0.394 0,0.14 -0.021,0.267 -0.061,0.382 -0.041,0.115 -0.099,0.214 -0.175,0.296 -0.076,0.083 -0.168,0.147 -0.277,0.193 -0.109,0.045 -0.232,0.068 -0.37,0.068zm0.019 -1.682c-0.101,0 -0.19,0.017 -0.271,0.051 -0.081,0.034 -0.15,0.083 -0.207,0.148 -0.058,0.064 -0.102,0.143 -0.133,0.238 -0.031,0.093 -0.046,0.2 -0.046,0.319 0,0.112 0.015,0.213 0.046,0.302 0.031,0.09 0.074,0.167 0.131,0.232 0.056,0.063 0.125,0.113 0.205,0.147 0.081,0.035 0.171,0.052 0.271,0.052 0.102,0 0.192,-0.017 0.27,-0.05 0.079,-0.033 0.145,-0.081 0.199,-0.145 0.055,-0.064 0.096,-0.142 0.124,-0.234 0.028,-0.092 0.042,-0.197 0.042,-0.315 0,-0.241 -0.055,-0.426 -0.164,-0.554 -0.109,-0.127 -0.265,-0.191 -0.467,-0.191z"/>
  <path id="_17_16" class="fil1" d="M120.454 57.862l0 -1.053c0,-0.107 -0.009,-0.198 -0.025,-0.272 -0.016,-0.074 -0.042,-0.134 -0.077,-0.181 -0.035,-0.047 -0.08,-0.081 -0.133,-0.101 -0.054,-0.021 -0.118,-0.032 -0.193,-0.032 -0.066,0 -0.129,0.015 -0.188,0.046 -0.059,0.032 -0.11,0.074 -0.155,0.128 -0.045,0.054 -0.079,0.118 -0.105,0.192 -0.025,0.073 -0.038,0.152 -0.038,0.238l0 1.035 -0.229 0 0 -1.076c0,-0.375 -0.146,-0.563 -0.438,-0.563 -0.067,0 -0.129,0.015 -0.187,0.045 -0.058,0.03 -0.109,0.071 -0.152,0.124 -0.043,0.054 -0.076,0.119 -0.1,0.194 -0.025,0.075 -0.037,0.158 -0.037,0.249l0 1.027 -0.229 0 0 -1.789 0.229 0 0 0.289 0.008 0c0.128,-0.221 0.314,-0.332 0.559,-0.332 0.063,0 0.124,0.009 0.181,0.028 0.057,0.02 0.108,0.047 0.152,0.081 0.046,0.034 0.084,0.076 0.117,0.123 0.033,0.049 0.057,0.101 0.074,0.158 0.064,-0.127 0.147,-0.224 0.249,-0.291 0.103,-0.066 0.219,-0.099 0.347,-0.099 0.4,0 0.599,0.242 0.599,0.727l0 1.105 -0.229 0z"/>
  <polygon id="_18_17" class="fil1" points="121.101,58.277 120.885,58.277 122.115,55.357 122.337,55.357 "/>
  <path id="_19_18" class="fil1" d="M123.509 56.302c-0.053,-0.039 -0.122,-0.058 -0.206,-0.058 -0.06,0 -0.114,0.012 -0.16,0.034 -0.047,0.023 -0.087,0.054 -0.122,0.092 -0.035,0.039 -0.064,0.083 -0.088,0.134 -0.025,0.051 -0.045,0.103 -0.059,0.158 -0.015,0.055 -0.026,0.11 -0.032,0.166 -0.007,0.056 -0.01,0.109 -0.01,0.159l0 0.875 -0.226 0 0 -1.789 0.226 0 0 0.383 0.007 0c0.022,-0.065 0.048,-0.124 0.081,-0.175 0.033,-0.052 0.07,-0.096 0.113,-0.131 0.042,-0.036 0.089,-0.063 0.139,-0.082 0.051,-0.018 0.103,-0.028 0.159,-0.028 0.037,0 0.07,0.003 0.099,0.008 0.029,0.004 0.055,0.011 0.079,0.02l0 0.234z"/>
  <path id="_20_19" class="fil1" d="M125.002 57.781c-0.135,0.081 -0.298,0.122 -0.491,0.124 -0.13,0.001 -0.248,-0.021 -0.352,-0.066 -0.105,-0.046 -0.193,-0.109 -0.267,-0.19 -0.074,-0.081 -0.13,-0.176 -0.169,-0.287 -0.039,-0.109 -0.059,-0.229 -0.059,-0.359 0,-0.134 0.021,-0.26 0.063,-0.378 0.041,-0.119 0.102,-0.221 0.181,-0.31 0.08,-0.087 0.177,-0.157 0.292,-0.208 0.115,-0.052 0.246,-0.077 0.395,-0.077 0.15,0 0.288,0.028 0.412,0.086l0 0.237c-0.132,-0.087 -0.276,-0.13 -0.431,-0.13 -0.108,0 -0.204,0.02 -0.289,0.06 -0.084,0.041 -0.155,0.096 -0.213,0.165 -0.057,0.069 -0.101,0.15 -0.131,0.243 -0.03,0.093 -0.046,0.191 -0.046,0.295 0,0.095 0.013,0.187 0.038,0.274 0.026,0.088 0.065,0.165 0.118,0.232 0.053,0.067 0.12,0.121 0.2,0.16 0.082,0.04 0.176,0.06 0.286,0.06 0.171,0 0.325,-0.05 0.463,-0.151l0 0.22z"/>
  <path id="_21_20" class="fil1" d="M126.284 55.424c-0.051,-0.033 -0.117,-0.049 -0.197,-0.049 -0.213,0 -0.32,0.137 -0.32,0.411l0 0.287 0.451 0 0 0.196 -0.451 0 0 1.593 -0.229 0 0 -1.593 -0.317 0 0 -0.196 0.317 0 0 -0.302c0,-0.09 0.011,-0.171 0.034,-0.244 0.023,-0.073 0.058,-0.135 0.103,-0.187 0.045,-0.052 0.102,-0.092 0.17,-0.12 0.068,-0.028 0.147,-0.042 0.236,-0.042 0.085,0 0.153,0.011 0.203,0.033l0 0.213z"/>
  <path id="_22_21" class="fil1" d="M127.785 57.862l0 -0.314 -0.007 0c-0.06,0.113 -0.147,0.201 -0.258,0.263 -0.113,0.063 -0.24,0.094 -0.382,0.094 -0.114,0 -0.217,-0.021 -0.311,-0.062 -0.093,-0.042 -0.172,-0.101 -0.239,-0.179 -0.066,-0.079 -0.117,-0.173 -0.154,-0.284 -0.036,-0.111 -0.054,-0.236 -0.054,-0.376 0,-0.145 0.02,-0.276 0.06,-0.396 0.04,-0.12 0.096,-0.222 0.169,-0.308 0.073,-0.086 0.161,-0.152 0.263,-0.199 0.103,-0.047 0.217,-0.071 0.342,-0.071 0.262,0 0.451,0.103 0.564,0.309l0.007 0 0 -1.125 0.23 0 0 2.648 -0.23 0zm0 -1.081c0,-0.078 -0.014,-0.151 -0.041,-0.219 -0.027,-0.067 -0.065,-0.126 -0.113,-0.176 -0.05,-0.05 -0.108,-0.09 -0.176,-0.12 -0.068,-0.029 -0.144,-0.043 -0.225,-0.043 -0.091,0 -0.174,0.017 -0.25,0.052 -0.076,0.036 -0.141,0.086 -0.195,0.152 -0.054,0.066 -0.096,0.146 -0.126,0.24 -0.031,0.095 -0.046,0.202 -0.046,0.323 0,0.112 0.014,0.214 0.042,0.304 0.027,0.09 0.066,0.166 0.116,0.227 0.05,0.062 0.11,0.109 0.181,0.142 0.069,0.033 0.148,0.049 0.233,0.049 0.092,0 0.176,-0.016 0.25,-0.049 0.074,-0.033 0.137,-0.078 0.189,-0.135 0.051,-0.057 0.092,-0.124 0.119,-0.201 0.028,-0.077 0.042,-0.159 0.042,-0.247l0 -0.299z"/>
  <path id="_23_22" class="fil1" d="M129.38 57.84c-0.078,0.039 -0.163,0.058 -0.255,0.058 -0.293,0 -0.44,-0.166 -0.44,-0.499l0 -1.13 -0.32 0 0 -0.196 0.32 0 0 -0.449 0.229 -0.074 0 0.523 0.466 0 0 0.196 -0.466 0 0 1.094c0,0.121 0.02,0.208 0.06,0.262 0.04,0.053 0.108,0.08 0.204,0.08 0.07,0 0.137,-0.021 0.202,-0.063l0 0.198z"/>
  <path id="_24_23" class="fil1" d="M130.47 57.905c-0.134,0 -0.256,-0.022 -0.363,-0.066 -0.107,-0.045 -0.198,-0.107 -0.274,-0.189 -0.076,-0.081 -0.134,-0.177 -0.174,-0.291 -0.04,-0.113 -0.06,-0.238 -0.06,-0.376 0,-0.149 0.021,-0.283 0.063,-0.4 0.043,-0.118 0.104,-0.218 0.182,-0.3 0.079,-0.083 0.174,-0.145 0.285,-0.188 0.112,-0.044 0.236,-0.065 0.373,-0.065 0.132,0 0.25,0.021 0.355,0.064 0.106,0.042 0.195,0.104 0.269,0.184 0.073,0.08 0.129,0.179 0.168,0.294 0.04,0.116 0.059,0.247 0.059,0.394 0,0.14 -0.021,0.267 -0.061,0.382 -0.041,0.115 -0.099,0.214 -0.175,0.296 -0.076,0.083 -0.168,0.147 -0.277,0.193 -0.109,0.045 -0.232,0.068 -0.37,0.068zm0.018 -1.682c-0.1,0 -0.189,0.017 -0.27,0.051 -0.081,0.034 -0.15,0.083 -0.208,0.148 -0.057,0.064 -0.101,0.143 -0.132,0.238 -0.031,0.093 -0.046,0.2 -0.046,0.319 0,0.112 0.015,0.213 0.046,0.302 0.031,0.09 0.074,0.167 0.131,0.232 0.056,0.063 0.125,0.113 0.205,0.147 0.081,0.035 0.171,0.052 0.271,0.052 0.102,0 0.192,-0.017 0.27,-0.05 0.079,-0.033 0.145,-0.081 0.199,-0.145 0.055,-0.064 0.096,-0.142 0.124,-0.234 0.028,-0.092 0.042,-0.197 0.042,-0.315 0,-0.241 -0.055,-0.426 -0.164,-0.554 -0.109,-0.127 -0.265,-0.191 -0.468,-0.191z"/>
  <path id="_25_24" class="fil1" d="M132.557 57.905c-0.135,0 -0.256,-0.022 -0.363,-0.066 -0.107,-0.045 -0.199,-0.107 -0.275,-0.189 -0.076,-0.081 -0.133,-0.177 -0.173,-0.291 -0.041,-0.113 -0.061,-0.238 -0.061,-0.376 0,-0.149 0.021,-0.283 0.064,-0.4 0.043,-0.118 0.103,-0.218 0.182,-0.3 0.078,-0.083 0.174,-0.145 0.285,-0.188 0.111,-0.044 0.236,-0.065 0.373,-0.065 0.131,0 0.25,0.021 0.355,0.064 0.105,0.042 0.194,0.104 0.268,0.184 0.073,0.08 0.13,0.179 0.168,0.294 0.04,0.116 0.059,0.247 0.059,0.394 0,0.14 -0.02,0.267 -0.061,0.382 -0.041,0.115 -0.099,0.214 -0.175,0.296 -0.076,0.083 -0.168,0.147 -0.277,0.193 -0.108,0.045 -0.232,0.068 -0.369,0.068zm0.018 -1.682c-0.1,0 -0.19,0.017 -0.271,0.051 -0.08,0.034 -0.15,0.083 -0.207,0.148 -0.058,0.064 -0.102,0.143 -0.133,0.238 -0.031,0.093 -0.046,0.2 -0.046,0.319 0,0.112 0.015,0.213 0.046,0.302 0.031,0.09 0.075,0.167 0.131,0.232 0.056,0.063 0.125,0.113 0.206,0.147 0.08,0.035 0.17,0.052 0.27,0.052 0.102,0 0.193,-0.017 0.271,-0.05 0.078,-0.033 0.144,-0.081 0.199,-0.145 0.054,-0.064 0.096,-0.142 0.123,-0.234 0.028,-0.092 0.042,-0.197 0.042,-0.315 0,-0.241 -0.054,-0.426 -0.163,-0.554 -0.11,-0.127 -0.265,-0.191 -0.468,-0.191z"/>
  <polygon id="_26_25" class="fil1" points="133.902,57.862 133.902,55.214 134.132,55.214 134.132,57.862 "/>
  <path id="_27_26" class="fil1" d="M134.614 57.541c0.035,0.027 0.072,0.05 0.112,0.071 0.04,0.021 0.082,0.039 0.124,0.055 0.043,0.014 0.085,0.026 0.129,0.034 0.043,0.007 0.084,0.011 0.123,0.011 0.27,0 0.404,-0.1 0.404,-0.298 0,-0.046 -0.01,-0.085 -0.028,-0.118 -0.019,-0.034 -0.046,-0.064 -0.082,-0.092 -0.035,-0.027 -0.078,-0.052 -0.128,-0.076 -0.049,-0.023 -0.106,-0.047 -0.168,-0.073 -0.085,-0.034 -0.157,-0.068 -0.217,-0.103 -0.06,-0.035 -0.11,-0.073 -0.15,-0.115 -0.038,-0.041 -0.068,-0.087 -0.086,-0.136 -0.019,-0.05 -0.029,-0.106 -0.029,-0.169 0,-0.079 0.018,-0.15 0.052,-0.212 0.035,-0.062 0.082,-0.114 0.141,-0.157 0.059,-0.043 0.127,-0.077 0.204,-0.099 0.078,-0.023 0.159,-0.034 0.244,-0.034 0.158,0 0.294,0.029 0.411,0.087l0 0.235c-0.136,-0.086 -0.283,-0.129 -0.44,-0.129 -0.056,0 -0.108,0.007 -0.154,0.021 -0.047,0.014 -0.087,0.034 -0.121,0.06 -0.032,0.025 -0.058,0.056 -0.077,0.092 -0.018,0.036 -0.027,0.075 -0.027,0.118 0,0.045 0.007,0.084 0.021,0.116 0.015,0.034 0.037,0.064 0.067,0.091 0.03,0.026 0.069,0.052 0.117,0.077 0.048,0.024 0.106,0.051 0.175,0.079 0.088,0.034 0.164,0.069 0.227,0.104 0.065,0.034 0.117,0.071 0.159,0.112 0.041,0.04 0.072,0.084 0.092,0.134 0.02,0.05 0.03,0.107 0.03,0.172 0,0.081 -0.017,0.153 -0.05,0.216 -0.034,0.063 -0.081,0.116 -0.14,0.159 -0.06,0.043 -0.13,0.076 -0.21,0.098 -0.08,0.022 -0.168,0.033 -0.262,0.033 -0.183,0 -0.338,-0.038 -0.463,-0.114l0 -0.25z"/>
  <g id="_2583201123712">
   <path class="fil1" d="M45.019 11.095c-0.706,0.399 -1.491,0.598 -2.356,0.598 -1.003,0 -1.816,-0.323 -2.436,-0.972 -0.621,-0.646 -0.931,-1.504 -0.931,-2.571 0,-1.089 0.345,-1.984 1.034,-2.682 0.688,-0.699 1.561,-1.049 2.618,-1.049 0.765,0 1.409,0.126 1.928,0.374l0 0.913c-0.568,-0.36 -1.243,-0.54 -2.022,-0.54 -0.787,0 -1.434,0.272 -1.938,0.815 -0.504,0.542 -0.756,1.246 -0.756,2.11 0,0.89 0.235,1.59 0.702,2.098 0.468,0.509 1.103,0.764 1.905,0.764 0.549,0 1.025,-0.111 1.427,-0.329l0 -1.973 -1.541 0 0 -0.746 2.366 0 0 3.19z"/>
   <path id="_1_27" class="fil1" d="M50.609 11.576l-0.804 0 0 -0.796 -0.021 0c-0.333,0.61 -0.851,0.913 -1.551,0.913 -1.198,0 -1.796,-0.712 -1.796,-2.139l0 -3.004 0.799 0 0 2.876c0,1.061 0.408,1.59 1.218,1.59 0.392,0 0.716,-0.144 0.97,-0.434 0.253,-0.289 0.381,-0.668 0.381,-1.137l0 -2.895 0.804 0 0 5.026z"/>
   <path id="_2_28" class="fil1" d="M53.039 11.576l-0.805 0 0 -5.026 0.805 0 0 5.026zm0.721 -7.587l-1.285 1.61 -0.623 0 1.094 -1.61 0.814 0z"/>
   <path id="_3_29" class="fil1" d="M58.266 11.576l-0.806 0 0 -0.786 -0.018 0c-0.35,0.603 -0.866,0.903 -1.546,0.903 -0.501,0 -0.893,-0.132 -1.176,-0.397 -0.283,-0.265 -0.424,-0.616 -0.424,-1.055 0,-0.938 0.553,-1.486 1.658,-1.639l1.506 -0.211c0,-0.854 -0.345,-1.281 -1.035,-1.281 -0.605,0 -1.151,0.206 -1.638,0.618l0 -0.824c0.494,-0.315 1.062,-0.471 1.707,-0.471 1.181,0 1.772,0.625 1.772,1.874l0 3.269zm-0.806 -2.543l-1.211 0.167c-0.373,0.052 -0.655,0.144 -0.844,0.278 -0.19,0.133 -0.285,0.367 -0.285,0.704 0,0.245 0.087,0.446 0.263,0.601 0.174,0.156 0.407,0.233 0.699,0.233 0.398,0 0.728,-0.14 0.988,-0.419 0.261,-0.279 0.39,-0.634 0.39,-1.063l0 -0.501z"/>
   <path id="_4_30" class="fil1" d="M63.362 10.849l-0.02 0 0 3.039 -0.806 0 0 -7.338 0.806 0 0 0.883 0.02 0c0.395,-0.667 0.975,-1 1.737,-1 0.647,0 1.153,0.224 1.516,0.675 0.364,0.449 0.545,1.052 0.545,1.808 0,0.84 -0.205,1.514 -0.613,2.02 -0.409,0.504 -0.969,0.757 -1.679,0.757 -0.652,0 -1.153,-0.281 -1.506,-0.844zm-0.02 -2.027l0 0.702c0,0.415 0.134,0.769 0.405,1.058 0.27,0.29 0.612,0.434 1.027,0.434 0.488,0 0.87,-0.186 1.146,-0.559 0.276,-0.374 0.416,-0.891 0.416,-1.557 0,-0.559 -0.129,-0.996 -0.389,-1.315 -0.258,-0.316 -0.608,-0.475 -1.049,-0.475 -0.469,0 -0.844,0.162 -1.129,0.487 -0.285,0.327 -0.427,0.734 -0.427,1.225z"/>
   <path id="_5_31" class="fil1" d="M72.043 11.576l-0.806 0 0 -0.786 -0.018 0c-0.35,0.603 -0.866,0.903 -1.546,0.903 -0.501,0 -0.893,-0.132 -1.177,-0.397 -0.283,-0.265 -0.423,-0.616 -0.423,-1.055 0,-0.938 0.553,-1.486 1.658,-1.639l1.506 -0.211c0,-0.854 -0.345,-1.281 -1.035,-1.281 -0.605,0 -1.151,0.206 -1.638,0.618l0 -0.824c0.494,-0.315 1.062,-0.471 1.707,-0.471 1.181,0 1.772,0.625 1.772,1.874l0 3.269zm-0.806 -2.543l-1.211 0.167c-0.374,0.052 -0.655,0.144 -0.844,0.278 -0.19,0.133 -0.285,0.367 -0.285,0.704 0,0.245 0.087,0.446 0.263,0.601 0.174,0.156 0.407,0.233 0.699,0.233 0.398,0 0.728,-0.14 0.988,-0.419 0.261,-0.279 0.39,-0.634 0.39,-1.063l0 -0.501z"/>
   <path id="_6_32" class="fil1" d="M76.181 7.364c-0.141,-0.107 -0.344,-0.161 -0.608,-0.161 -0.345,0 -0.632,0.161 -0.863,0.486 -0.23,0.324 -0.345,0.766 -0.345,1.325l0 2.562 -0.806 0 0 -5.026 0.806 0 0 1.035 0.02 0c0.114,-0.353 0.288,-0.628 0.524,-0.827 0.236,-0.198 0.499,-0.297 0.791,-0.297 0.209,0 0.369,0.024 0.481,0.069l0 0.834z"/>
   <path id="_7_33" class="fil1" d="M80.652 11.576l-0.806 0 0 -0.786 -0.018 0c-0.35,0.603 -0.866,0.903 -1.546,0.903 -0.501,0 -0.893,-0.132 -1.177,-0.397 -0.283,-0.265 -0.423,-0.616 -0.423,-1.055 0,-0.938 0.553,-1.486 1.658,-1.639l1.506 -0.211c0,-0.854 -0.345,-1.281 -1.035,-1.281 -0.605,0 -1.151,0.206 -1.638,0.618l0 -0.824c0.494,-0.315 1.062,-0.471 1.707,-0.471 1.181,0 1.772,0.625 1.772,1.874l0 3.269zm-0.806 -2.543l-1.211 0.167c-0.374,0.052 -0.655,0.144 -0.844,0.278 -0.19,0.133 -0.285,0.367 -0.285,0.704 0,0.245 0.087,0.446 0.263,0.601 0.174,0.156 0.407,0.233 0.698,0.233 0.399,0 0.729,-0.14 0.989,-0.419 0.261,-0.279 0.39,-0.634 0.39,-1.063l0 -0.501z"/>
   <path id="_8_34" class="fil1" d="M89.294 9.505l-3.278 0c0.052,0.729 0.513,1.094 1.379,1.094 0.553,0 1.038,-0.131 1.457,-0.392l0 1.119c-0.464,0.248 -1.067,0.372 -1.811,0.372 -0.811,0 -1.44,-0.224 -1.889,-0.675 -0.448,-0.449 -0.672,-1.077 -0.672,-1.881 0,-0.835 0.241,-1.496 0.727,-1.984 0.484,-0.487 1.079,-0.73 1.786,-0.73 0.732,0 1.3,0.218 1.7,0.652 0.4,0.435 0.601,1.026 0.601,1.772l0 0.653zm-1.437 -0.953c0,-0.719 -0.291,-1.079 -0.874,-1.079 -0.248,0 -0.464,0.102 -0.645,0.308 -0.183,0.206 -0.292,0.464 -0.332,0.771l1.851 0z"/>
   <path id="_9_35" class="fil1" d="M95.071 11.576l-1.547 0 0 -2.793c0,-0.779 -0.278,-1.167 -0.834,-1.167 -0.268,0 -0.489,0.102 -0.662,0.308 -0.174,0.206 -0.261,0.469 -0.261,0.785l0 2.867 -1.55 0 0 -5.026 1.55 0 0 0.796 0.02 0c0.37,-0.613 0.908,-0.918 1.615,-0.918 1.112,0 1.669,0.69 1.669,2.07l0 3.078z"/>
   <path id="_10_36" class="fil1" d="M95.969 11.443l0 -1.256c0.256,0.154 0.51,0.268 0.763,0.343 0.253,0.076 0.493,0.113 0.719,0.113 0.275,0 0.493,-0.037 0.65,-0.113 0.159,-0.075 0.238,-0.189 0.238,-0.343 0,-0.099 -0.035,-0.181 -0.107,-0.246 -0.072,-0.066 -0.164,-0.123 -0.278,-0.171 -0.113,-0.049 -0.237,-0.094 -0.371,-0.132 -0.134,-0.041 -0.263,-0.084 -0.387,-0.133 -0.199,-0.075 -0.375,-0.157 -0.527,-0.243 -0.153,-0.087 -0.28,-0.187 -0.384,-0.303 -0.102,-0.114 -0.181,-0.246 -0.234,-0.397 -0.054,-0.151 -0.082,-0.328 -0.082,-0.534 0,-0.282 0.061,-0.525 0.184,-0.727 0.122,-0.203 0.286,-0.369 0.491,-0.498 0.204,-0.129 0.439,-0.224 0.702,-0.285 0.263,-0.06 0.537,-0.09 0.822,-0.09 0.223,0 0.447,0.017 0.677,0.052 0.229,0.033 0.455,0.084 0.678,0.149l0 1.198c-0.197,-0.116 -0.407,-0.201 -0.631,-0.258 -0.225,-0.057 -0.444,-0.086 -0.66,-0.086 -0.102,0 -0.198,0.009 -0.287,0.027 -0.09,0.017 -0.171,0.044 -0.239,0.079 -0.069,0.033 -0.123,0.077 -0.161,0.132 -0.04,0.054 -0.059,0.116 -0.059,0.184 0,0.091 0.029,0.17 0.087,0.235 0.061,0.065 0.136,0.122 0.232,0.169 0.095,0.049 0.201,0.091 0.316,0.127 0.116,0.039 0.231,0.078 0.347,0.116 0.206,0.072 0.392,0.151 0.559,0.236 0.166,0.086 0.31,0.184 0.429,0.3 0.119,0.114 0.211,0.248 0.275,0.402 0.064,0.154 0.095,0.337 0.095,0.55 0,0.298 -0.063,0.552 -0.194,0.763 -0.129,0.212 -0.3,0.382 -0.514,0.515 -0.215,0.132 -0.463,0.229 -0.742,0.29 -0.28,0.06 -0.57,0.09 -0.871,0.09 -0.553,0 -1.064,-0.085 -1.536,-0.255z"/>
   <path id="_11_37" class="fil1" d="M105.236 9.505l-3.279 0c0.052,0.729 0.513,1.094 1.379,1.094 0.553,0 1.039,-0.131 1.457,-0.392l0 1.119c-0.464,0.248 -1.067,0.372 -1.81,0.372 -0.811,0 -1.441,-0.224 -1.89,-0.675 -0.447,-0.449 -0.672,-1.077 -0.672,-1.881 0,-0.835 0.241,-1.496 0.727,-1.984 0.484,-0.487 1.079,-0.73 1.786,-0.73 0.732,0 1.3,0.218 1.7,0.652 0.401,0.435 0.602,1.026 0.602,1.772l0 0.653zm-1.438 -0.953c0,-0.719 -0.291,-1.079 -0.874,-1.079 -0.248,0 -0.464,0.102 -0.645,0.308 -0.183,0.206 -0.292,0.464 -0.332,0.771l1.851 0z"/>
   <path id="_12_38" class="fil1" d="M111.012 11.576l-1.546 0 0 -2.793c0,-0.779 -0.279,-1.167 -0.835,-1.167 -0.268,0 -0.489,0.102 -0.661,0.308 -0.175,0.206 -0.262,0.469 -0.262,0.785l0 2.867 -1.549 0 0 -5.026 1.549 0 0 0.796 0.02 0c0.371,-0.613 0.908,-0.918 1.615,-0.918 1.113,0 1.669,0.69 1.669,2.07l0 3.078zm-0.69 -7.348c0,0.459 -0.091,0.813 -0.273,1.064 -0.181,0.25 -0.429,0.375 -0.743,0.375 -0.281,0 -0.556,-0.07 -0.826,-0.211 -0.289,-0.154 -0.492,-0.231 -0.603,-0.231 -0.261,0 -0.392,0.176 -0.392,0.529l-0.691 0c0,-0.454 0.088,-0.807 0.269,-1.058 0.18,-0.253 0.431,-0.379 0.756,-0.379 0.265,0 0.539,0.08 0.824,0.24 0.258,0.144 0.456,0.216 0.59,0.216 0.254,0 0.382,-0.181 0.382,-0.545l0.707 0z"/>
   <path id="_13_39" class="fil1" d="M116.421 11.576l-1.467 0 0 -0.722 -0.021 0c-0.336,0.563 -0.835,0.844 -1.497,0.844 -0.488,0 -0.871,-0.137 -1.151,-0.414 -0.28,-0.276 -0.419,-0.646 -0.419,-1.107 0,-0.975 0.578,-1.538 1.732,-1.689l1.366 -0.181c0,-0.549 -0.299,-0.824 -0.895,-0.824 -0.598,0 -1.168,0.178 -1.707,0.535l0 -1.168c0.216,-0.112 0.511,-0.209 0.886,-0.295 0.374,-0.085 0.716,-0.127 1.024,-0.127 1.432,0 2.149,0.715 2.149,2.144l0 3.004zm-1.457 -2.042l0 -0.339 -0.913 0.118c-0.505,0.065 -0.756,0.293 -0.756,0.683 0,0.176 0.06,0.322 0.183,0.434 0.124,0.112 0.29,0.169 0.499,0.169 0.291,0 0.528,-0.1 0.712,-0.301 0.182,-0.201 0.275,-0.456 0.275,-0.764z"/>
   <path id="_14_40" class="fil1" d="M122.502 11.576l-1.546 0 0 -2.793c0,-0.779 -0.278,-1.167 -0.834,-1.167 -0.268,0 -0.489,0.102 -0.662,0.308 -0.174,0.206 -0.261,0.469 -0.261,0.785l0 2.867 -1.55 0 0 -5.026 1.55 0 0 0.796 0.02 0c0.37,-0.613 0.908,-0.918 1.615,-0.918 1.112,0 1.668,0.69 1.668,2.07l0 3.078z"/>
   <polygon id="_15_41" class="fil1" points="127.71,11.576 123.199,11.576 123.199,10.933 125.722,7.694 123.45,7.694 123.45,6.55 127.69,6.55 127.69,7.316 125.3,10.432 127.71,10.432 "/>
   <path id="_16_42" class="fil1" d="M132.726 11.576l-1.467 0 0 -0.722 -0.021 0c-0.336,0.563 -0.835,0.844 -1.497,0.844 -0.488,0 -0.871,-0.137 -1.151,-0.414 -0.28,-0.276 -0.419,-0.646 -0.419,-1.107 0,-0.975 0.578,-1.538 1.732,-1.689l1.366 -0.181c0,-0.549 -0.299,-0.824 -0.895,-0.824 -0.598,0 -1.168,0.178 -1.707,0.535l0 -1.168c0.216,-0.112 0.511,-0.209 0.886,-0.295 0.374,-0.085 0.716,-0.127 1.024,-0.127 1.432,0 2.149,0.715 2.149,2.144l0 3.004zm-1.457 -2.042l0 -0.339 -0.913 0.118c-0.505,0.065 -0.756,0.293 -0.756,0.683 0,0.176 0.06,0.322 0.183,0.434 0.124,0.112 0.29,0.169 0.499,0.169 0.291,0 0.528,-0.1 0.712,-0.301 0.182,-0.201 0.275,-0.456 0.275,-0.764z"/>
   <path id="_17_43" class="fil1" d="M141.241 9.505l-3.278 0c0.052,0.729 0.512,1.094 1.379,1.094 0.552,0 1.038,-0.131 1.457,-0.392l0 1.119c-0.464,0.248 -1.067,0.372 -1.811,0.372 -0.811,0 -1.441,-0.224 -1.89,-0.675 -0.447,-0.449 -0.671,-1.077 -0.671,-1.881 0,-0.835 0.241,-1.496 0.727,-1.984 0.484,-0.487 1.079,-0.73 1.786,-0.73 0.732,0 1.299,0.218 1.7,0.652 0.4,0.435 0.601,1.026 0.601,1.772l0 0.653zm-1.437 -0.953c0,-0.719 -0.292,-1.079 -0.875,-1.079 -0.247,0 -0.464,0.102 -0.645,0.308 -0.182,0.206 -0.291,0.464 -0.331,0.771l1.851 0z"/>
   <path class="fil1" d="M40.347 15.522c-0.216,0 -0.393,-0.063 -0.53,-0.192 -0.139,-0.129 -0.208,-0.286 -0.208,-0.473 0,-0.192 0.069,-0.349 0.208,-0.471 0.137,-0.122 0.314,-0.183 0.53,-0.183 0.221,0 0.398,0.061 0.535,0.183 0.136,0.122 0.205,0.279 0.205,0.471 0,0.194 -0.069,0.355 -0.205,0.48 -0.137,0.123 -0.314,0.185 -0.535,0.185zm0.634 4.816l-1.282 0 0 -4.157 1.282 0 0 4.157z"/>
   <path id="_1_44" class="fil1" d="M46.077 20.338l-1.279 0 0 -2.31c0,-0.644 -0.23,-0.966 -0.691,-0.966 -0.221,0 -0.404,0.085 -0.547,0.255 -0.144,0.171 -0.216,0.388 -0.216,0.65l0 2.371 -1.282 0 0 -4.157 1.282 0 0 0.658 0.016 0c0.307,-0.507 0.752,-0.759 1.336,-0.759 0.921,0 1.381,0.57 1.381,1.713l0 2.545z"/>
   <path id="_2_45" class="fil1" d="M51.051 16.181l-1.547 4.157 -1.462 0 -1.473 -4.157 1.372 0 0.722 2.562c0.082,0.29 0.129,0.535 0.143,0.739l0.016 0c0.018,-0.193 0.07,-0.431 0.15,-0.715l0.739 -2.586 1.34 0z"/>
   <path id="_3_46" class="fil1" d="M55.253 18.625l-2.712 0c0.043,0.603 0.424,0.905 1.14,0.905 0.458,0 0.859,-0.108 1.206,-0.324l0 0.926c-0.384,0.205 -0.883,0.308 -1.498,0.308 -0.671,0 -1.192,-0.186 -1.563,-0.559 -0.37,-0.371 -0.556,-0.891 -0.556,-1.556 0,-0.69 0.199,-1.238 0.601,-1.641 0.401,-0.404 0.893,-0.604 1.478,-0.604 0.605,0 1.075,0.18 1.406,0.539 0.332,0.36 0.498,0.849 0.498,1.466l0 0.54zm-1.189 -0.788c0,-0.595 -0.241,-0.893 -0.724,-0.893 -0.205,0 -0.384,0.085 -0.533,0.255 -0.151,0.171 -0.241,0.384 -0.275,0.638l1.532 0z"/>
   <path id="_4_47" class="fil1" d="M55.743 20.229l0 -1.04c0.212,0.128 0.423,0.222 0.632,0.285 0.21,0.062 0.408,0.092 0.595,0.092 0.227,0 0.407,-0.03 0.538,-0.092 0.131,-0.063 0.196,-0.157 0.196,-0.285 0,-0.081 -0.029,-0.149 -0.088,-0.203 -0.06,-0.054 -0.136,-0.101 -0.23,-0.142 -0.093,-0.04 -0.196,-0.077 -0.307,-0.109 -0.11,-0.033 -0.217,-0.069 -0.32,-0.11 -0.165,-0.062 -0.31,-0.13 -0.436,-0.2 -0.126,-0.073 -0.232,-0.156 -0.318,-0.251 -0.084,-0.095 -0.149,-0.204 -0.194,-0.329 -0.044,-0.125 -0.068,-0.271 -0.068,-0.442 0,-0.233 0.052,-0.434 0.153,-0.601 0.101,-0.168 0.237,-0.305 0.406,-0.412 0.169,-0.107 0.363,-0.186 0.581,-0.236 0.217,-0.049 0.444,-0.074 0.68,-0.074 0.184,0 0.37,0.013 0.56,0.042 0.19,0.028 0.377,0.07 0.561,0.124l0 0.991c-0.163,-0.096 -0.336,-0.167 -0.522,-0.214 -0.186,-0.047 -0.367,-0.07 -0.546,-0.07 -0.085,0 -0.164,0.007 -0.237,0.022 -0.075,0.014 -0.142,0.036 -0.198,0.065 -0.057,0.028 -0.102,0.064 -0.133,0.109 -0.034,0.045 -0.049,0.096 -0.049,0.153 0,0.075 0.024,0.14 0.072,0.194 0.05,0.054 0.112,0.101 0.191,0.14 0.079,0.04 0.167,0.075 0.262,0.105 0.096,0.032 0.192,0.064 0.287,0.096 0.171,0.059 0.324,0.125 0.463,0.195 0.137,0.071 0.256,0.153 0.355,0.248 0.098,0.095 0.174,0.205 0.227,0.333 0.053,0.127 0.079,0.279 0.079,0.455 0,0.246 -0.052,0.457 -0.161,0.632 -0.106,0.174 -0.248,0.316 -0.425,0.425 -0.178,0.109 -0.383,0.19 -0.614,0.24 -0.231,0.05 -0.471,0.075 -0.721,0.075 -0.457,0 -0.88,-0.071 -1.271,-0.211z"/>
   <path id="_5_48" class="fil1" d="M62.188 20.29c-0.19,0.1 -0.476,0.15 -0.857,0.15 -0.903,0 -1.356,-0.47 -1.356,-1.409l0 -1.904 -0.674 0 0 -0.946 0.674 0 0 -0.897 1.279 -0.366 0 1.263 0.934 0 0 0.946 -0.934 0 0 1.681c0,0.433 0.172,0.649 0.515,0.649 0.136,0 0.276,-0.039 0.419,-0.118l0 0.951z"/>
   <path id="_6_49" class="fil1" d="M63.56 15.522c-0.216,0 -0.394,-0.063 -0.531,-0.192 -0.138,-0.129 -0.208,-0.286 -0.208,-0.473 0,-0.192 0.07,-0.349 0.208,-0.471 0.137,-0.122 0.315,-0.183 0.531,-0.183 0.22,0 0.398,0.061 0.535,0.183 0.136,0.122 0.205,0.279 0.205,0.471 0,0.194 -0.069,0.355 -0.205,0.48 -0.137,0.123 -0.315,0.185 -0.535,0.185zm0.633 4.816l-1.282 0 0 -4.157 1.282 0 0 4.157z"/>
   <path id="_7_50" class="fil1" d="M69.35 19.863c0,0.772 -0.223,1.369 -0.669,1.793 -0.448,0.423 -1.094,0.635 -1.942,0.635 -0.56,0 -1.003,-0.079 -1.332,-0.24l0 -1.079c0.429,0.249 0.86,0.374 1.296,0.374 0.432,0 0.769,-0.115 1.006,-0.344 0.239,-0.228 0.358,-0.539 0.358,-0.931l0 -0.33 -0.015 0c-0.293,0.466 -0.725,0.699 -1.296,0.699 -0.531,0 -0.951,-0.188 -1.263,-0.56 -0.312,-0.375 -0.467,-0.875 -0.467,-1.503 0,-0.704 0.173,-1.262 0.52,-1.677 0.346,-0.414 0.802,-0.62 1.368,-0.62 0.506,0 0.885,0.194 1.138,0.584l0.015 0 0 -0.483 1.283 0 0 3.682zm-1.267 -1.522l0 -0.329c0,-0.262 -0.077,-0.487 -0.232,-0.673 -0.157,-0.184 -0.359,-0.277 -0.607,-0.277 -0.286,0 -0.509,0.111 -0.671,0.333 -0.162,0.221 -0.244,0.535 -0.244,0.938 0,0.346 0.077,0.62 0.231,0.822 0.156,0.202 0.366,0.302 0.634,0.302 0.266,0 0.481,-0.101 0.644,-0.306 0.164,-0.204 0.245,-0.474 0.245,-0.81z"/>
   <path id="_8_51" class="fil1" d="M73.882 20.338l-1.214 0 0 -0.597 -0.017 0c-0.278,0.466 -0.691,0.699 -1.239,0.699 -0.403,0 -0.72,-0.114 -0.952,-0.343 -0.231,-0.228 -0.346,-0.535 -0.346,-0.916 0,-0.806 0.478,-1.272 1.433,-1.397l1.129 -0.149c0,-0.455 -0.246,-0.682 -0.74,-0.682 -0.495,0 -0.966,0.147 -1.412,0.442l0 -0.966c0.179,-0.093 0.423,-0.173 0.733,-0.244 0.309,-0.071 0.592,-0.105 0.847,-0.105 1.185,0 1.778,0.591 1.778,1.774l0 2.484zm-1.206 -1.689l0 -0.28 -0.755 0.097c-0.417,0.054 -0.625,0.243 -0.625,0.565 0,0.146 0.05,0.267 0.151,0.359 0.103,0.093 0.24,0.14 0.413,0.14 0.241,0 0.436,-0.083 0.589,-0.249 0.151,-0.166 0.227,-0.377 0.227,-0.632z"/>
   <path id="_9_52" class="fil1" d="M78.048 20.189c-0.29,0.167 -0.708,0.251 -1.254,0.251 -0.639,0 -1.156,-0.193 -1.551,-0.581 -0.395,-0.387 -0.593,-0.886 -0.593,-1.498 0,-0.707 0.212,-1.263 0.635,-1.67 0.424,-0.408 0.99,-0.611 1.7,-0.611 0.489,0 0.844,0.065 1.063,0.194l0 1.089c-0.267,-0.201 -0.567,-0.301 -0.897,-0.301 -0.368,0 -0.659,0.107 -0.876,0.323 -0.214,0.215 -0.322,0.511 -0.322,0.891 0,0.367 0.103,0.657 0.309,0.866 0.205,0.211 0.489,0.315 0.848,0.315 0.32,0 0.632,-0.1 0.938,-0.301l0 1.033z"/>
   <path id="_10_53" class="fil1" d="M79.538 15.522c-0.216,0 -0.394,-0.063 -0.531,-0.192 -0.138,-0.129 -0.208,-0.286 -0.208,-0.473 0,-0.192 0.07,-0.349 0.208,-0.471 0.137,-0.122 0.315,-0.183 0.531,-0.183 0.22,0 0.398,0.061 0.535,0.183 0.136,0.122 0.205,0.279 0.205,0.471 0,0.194 -0.069,0.355 -0.205,0.48 -0.137,0.123 -0.315,0.185 -0.535,0.185zm0.633 4.816l-1.282 0 0 -4.157 1.282 0 0 4.157z"/>
   <path id="_11_54" class="fil1" d="M83.233 20.44c-0.693,0 -1.238,-0.194 -1.634,-0.582 -0.397,-0.389 -0.595,-0.917 -0.595,-1.582 0,-0.687 0.205,-1.226 0.617,-1.614 0.411,-0.388 0.969,-0.582 1.668,-0.582 0.691,0 1.233,0.194 1.625,0.582 0.392,0.388 0.589,0.902 0.589,1.541 0,0.69 -0.203,1.236 -0.607,1.636 -0.405,0.401 -0.959,0.601 -1.663,0.601zm0.033 -3.378c-0.304,0 -0.539,0.104 -0.707,0.312 -0.168,0.209 -0.252,0.504 -0.252,0.886 0,0.798 0.323,1.197 0.967,1.197 0.614,0 0.922,-0.41 0.922,-1.229 0,-0.778 -0.311,-1.166 -0.93,-1.166zm1.379 -2.851l-1.271 1.311 -0.926 0 1.056 -1.311 1.141 0z"/>
   <path id="_12_55" class="fil1" d="M90.346 20.338l-1.279 0 0 -2.31c0,-0.644 -0.23,-0.966 -0.69,-0.966 -0.222,0 -0.405,0.085 -0.547,0.255 -0.144,0.171 -0.216,0.388 -0.216,0.65l0 2.371 -1.282 0 0 -4.157 1.282 0 0 0.658 0.016 0c0.306,-0.507 0.751,-0.759 1.336,-0.759 0.92,0 1.38,0.57 1.38,1.713l0 2.545z"/>
   <path id="_13_56" class="fil1" d="M96.806 20.189c-0.289,0.167 -0.708,0.251 -1.254,0.251 -0.639,0 -1.156,-0.193 -1.551,-0.581 -0.395,-0.387 -0.593,-0.886 -0.593,-1.498 0,-0.707 0.212,-1.263 0.635,-1.67 0.424,-0.408 0.991,-0.611 1.7,-0.611 0.49,0 0.844,0.065 1.063,0.194l0 1.089c-0.267,-0.201 -0.567,-0.301 -0.896,-0.301 -0.369,0 -0.66,0.107 -0.876,0.323 -0.215,0.215 -0.323,0.511 -0.323,0.891 0,0.367 0.104,0.657 0.309,0.866 0.205,0.211 0.489,0.315 0.848,0.315 0.32,0 0.632,-0.1 0.938,-0.301l0 1.033z"/>
   <path id="_14_57" class="fil1" d="M99.628 20.44c-0.693,0 -1.238,-0.194 -1.634,-0.582 -0.396,-0.389 -0.595,-0.917 -0.595,-1.582 0,-0.687 0.206,-1.226 0.617,-1.614 0.412,-0.388 0.969,-0.582 1.669,-0.582 0.69,0 1.232,0.194 1.624,0.582 0.392,0.388 0.589,0.902 0.589,1.541 0,0.69 -0.202,1.236 -0.607,1.636 -0.405,0.401 -0.959,0.601 -1.663,0.601zm0.033 -3.378c-0.303,0 -0.539,0.104 -0.707,0.312 -0.167,0.209 -0.252,0.504 -0.252,0.886 0,0.798 0.323,1.197 0.967,1.197 0.615,0 0.922,-0.41 0.922,-1.229 0,-0.778 -0.31,-1.166 -0.93,-1.166z"/>
   <polygon id="_15_58" class="fil1" points="104.013,20.338 102.731,20.338 102.731,14.184 104.013,14.184 "/>
   <path id="_16_59" class="fil1" d="M108.553 20.338l-1.214 0 0 -0.597 -0.017 0c-0.278,0.466 -0.691,0.699 -1.239,0.699 -0.403,0 -0.72,-0.114 -0.952,-0.343 -0.231,-0.228 -0.346,-0.535 -0.346,-0.916 0,-0.806 0.478,-1.272 1.433,-1.397l1.129 -0.149c0,-0.455 -0.246,-0.682 -0.74,-0.682 -0.494,0 -0.966,0.147 -1.412,0.442l0 -0.966c0.179,-0.093 0.423,-0.173 0.733,-0.244 0.309,-0.071 0.592,-0.105 0.847,-0.105 1.185,0 1.778,0.591 1.778,1.774l0 2.484zm-1.206 -1.689l0 -0.28 -0.755 0.097c-0.417,0.054 -0.625,0.243 -0.625,0.565 0,0.146 0.05,0.267 0.151,0.359 0.103,0.093 0.24,0.14 0.413,0.14 0.241,0 0.437,-0.083 0.589,-0.249 0.151,-0.166 0.227,-0.377 0.227,-0.632z"/>
   <path id="_17_60" class="fil1" d="M110.868 19.855l-0.017 0 0 0.483 -1.282 0 0 -6.154 1.282 0 0 2.622 0.017 0c0.317,-0.484 0.767,-0.726 1.352,-0.726 0.535,0 0.948,0.184 1.238,0.551 0.29,0.369 0.435,0.872 0.435,1.511 0,0.693 -0.169,1.248 -0.507,1.668 -0.34,0.42 -0.792,0.63 -1.357,0.63 -0.511,0 -0.898,-0.194 -1.161,-0.585zm-0.036 -1.753l0 0.425c0,0.269 0.076,0.491 0.231,0.667 0.154,0.176 0.352,0.263 0.593,0.263 0.291,0 0.519,-0.112 0.679,-0.338 0.161,-0.226 0.243,-0.546 0.243,-0.961 0,-0.343 -0.075,-0.612 -0.222,-0.806 -0.148,-0.193 -0.357,-0.29 -0.632,-0.29 -0.256,0 -0.47,0.096 -0.639,0.288 -0.169,0.192 -0.253,0.443 -0.253,0.752z"/>
   <path id="_18_61" class="fil1" d="M116.706 20.44c-0.692,0 -1.237,-0.194 -1.634,-0.582 -0.396,-0.389 -0.594,-0.917 -0.594,-1.582 0,-0.687 0.205,-1.226 0.617,-1.614 0.411,-0.388 0.968,-0.582 1.668,-0.582 0.69,0 1.232,0.194 1.625,0.582 0.392,0.388 0.588,0.902 0.588,1.541 0,0.69 -0.202,1.236 -0.606,1.636 -0.405,0.401 -0.96,0.601 -1.664,0.601zm0.034 -3.378c-0.304,0 -0.539,0.104 -0.707,0.312 -0.168,0.209 -0.252,0.504 -0.252,0.886 0,0.798 0.323,1.197 0.967,1.197 0.614,0 0.922,-0.41 0.922,-1.229 0,-0.778 -0.311,-1.166 -0.93,-1.166z"/>
   <path id="_19_62" class="fil1" d="M122.522 17.338c-0.156,-0.085 -0.336,-0.126 -0.541,-0.126 -0.278,0 -0.496,0.102 -0.654,0.306 -0.157,0.205 -0.236,0.482 -0.236,0.834l0 1.986 -1.281 0 0 -4.157 1.281 0 0 0.772 0.017 0c0.204,-0.564 0.568,-0.846 1.096,-0.846 0.136,0 0.242,0.017 0.318,0.049l0 1.182z"/>
   <path id="_20_63" class="fil1" d="M126.578 20.338l-1.214 0 0 -0.597 -0.016 0c-0.279,0.466 -0.692,0.699 -1.239,0.699 -0.404,0 -0.721,-0.114 -0.953,-0.343 -0.231,-0.228 -0.346,-0.535 -0.346,-0.916 0,-0.806 0.478,-1.272 1.433,-1.397l1.13 -0.149c0,-0.455 -0.247,-0.682 -0.741,-0.682 -0.494,0 -0.965,0.147 -1.412,0.442l0 -0.966c0.179,-0.093 0.423,-0.173 0.733,-0.244 0.309,-0.071 0.592,-0.105 0.847,-0.105 1.185,0 1.778,0.591 1.778,1.774l0 2.484zm-1.205 -1.689l0 -0.28 -0.756 0.097c-0.417,0.054 -0.625,0.243 -0.625,0.565 0,0.146 0.05,0.267 0.151,0.359 0.103,0.093 0.24,0.14 0.413,0.14 0.241,0 0.437,-0.083 0.589,-0.249 0.151,-0.166 0.228,-0.377 0.228,-0.632z"/>
   <path id="_21_64" class="fil1" d="M130.107 20.29c-0.19,0.1 -0.476,0.15 -0.857,0.15 -0.903,0 -1.357,-0.47 -1.357,-1.409l0 -1.904 -0.673 0 0 -0.946 0.673 0 0 -0.897 1.28 -0.366 0 1.263 0.934 0 0 0.946 -0.934 0 0 1.681c0,0.433 0.172,0.649 0.515,0.649 0.136,0 0.276,-0.039 0.419,-0.118l0 0.951z"/>
   <path id="_22_65" class="fil1" d="M131.479 15.522c-0.216,0 -0.394,-0.063 -0.531,-0.192 -0.139,-0.129 -0.208,-0.286 -0.208,-0.473 0,-0.192 0.069,-0.349 0.208,-0.471 0.137,-0.122 0.315,-0.183 0.531,-0.183 0.22,0 0.398,0.061 0.535,0.183 0.136,0.122 0.205,0.279 0.205,0.471 0,0.194 -0.069,0.355 -0.205,0.48 -0.137,0.123 -0.315,0.185 -0.535,0.185zm0.633 4.816l-1.282 0 0 -4.157 1.282 0 0 4.157z"/>
   <path id="_23_66" class="fil1" d="M137.151 16.181l-1.546 4.157 -1.462 0 -1.474 -4.157 1.372 0 0.722 2.562c0.082,0.29 0.129,0.535 0.143,0.739l0.017 0c0.018,-0.193 0.069,-0.431 0.149,-0.715l0.739 -2.586 1.34 0z"/>
   <path id="_24_67" class="fil1" d="M141.033 20.338l-1.214 0 0 -0.597 -0.016 0c-0.279,0.466 -0.692,0.699 -1.24,0.699 -0.403,0 -0.72,-0.114 -0.952,-0.343 -0.231,-0.228 -0.346,-0.535 -0.346,-0.916 0,-0.806 0.478,-1.272 1.433,-1.397l1.129 -0.149c0,-0.455 -0.246,-0.682 -0.74,-0.682 -0.494,0 -0.966,0.147 -1.412,0.442l0 -0.966c0.179,-0.093 0.423,-0.173 0.733,-0.244 0.309,-0.071 0.592,-0.105 0.847,-0.105 1.185,0 1.778,0.591 1.778,1.774l0 2.484zm-1.206 -1.689l0 -0.28 -0.755 0.097c-0.417,0.054 -0.625,0.243 -0.625,0.565 0,0.146 0.05,0.267 0.151,0.359 0.103,0.093 0.24,0.14 0.413,0.14 0.241,0 0.437,-0.083 0.589,-0.249 0.151,-0.166 0.227,-0.377 0.227,-0.632z"/>
   <path class="fil1" d="M80.658 33.114c-0.319,0.193 -0.699,0.288 -1.138,0.288 -0.593,0 -1.072,-0.192 -1.437,-0.578 -0.363,-0.386 -0.546,-0.887 -0.546,-1.503 0,-0.685 0.196,-1.236 0.589,-1.652 0.393,-0.415 0.917,-0.623 1.573,-0.623 0.367,0 0.688,0.067 0.967,0.203l0 0.682c-0.309,-0.216 -0.639,-0.324 -0.992,-0.324 -0.424,0 -0.774,0.152 -1.046,0.458 -0.272,0.303 -0.409,0.704 -0.409,1.2 0,0.488 0.129,0.872 0.384,1.154 0.257,0.281 0.6,0.423 1.031,0.423 0.364,0 0.705,-0.121 1.024,-0.362l0 0.634z"/>
   <path id="_1_68" class="fil1" d="M83.405 33.402c-0.615,0 -1.106,-0.194 -1.473,-0.582 -0.367,-0.389 -0.551,-0.905 -0.551,-1.547 0,-0.699 0.191,-1.245 0.573,-1.639 0.383,-0.392 0.899,-0.588 1.549,-0.588 0.621,0 1.105,0.19 1.453,0.573 0.348,0.382 0.522,0.912 0.522,1.589 0,0.664 -0.188,1.196 -0.562,1.595 -0.376,0.4 -0.88,0.599 -1.511,0.599zm0.048 -3.795c-0.427,0 -0.765,0.145 -1.015,0.437 -0.25,0.291 -0.375,0.692 -0.375,1.205 0,0.493 0.127,0.881 0.379,1.166 0.253,0.284 0.59,0.427 1.011,0.427 0.432,0 0.763,-0.14 0.995,-0.419 0.232,-0.279 0.347,-0.676 0.347,-1.19 0,-0.521 -0.115,-0.922 -0.347,-1.203 -0.232,-0.283 -0.563,-0.423 -0.995,-0.423z"/>
   <path id="_2_69" class="fil1" d="M89.999 33.305l-0.667 0 0 -2.373c0,-0.884 -0.322,-1.325 -0.967,-1.325 -0.333,0 -0.609,0.125 -0.827,0.376 -0.219,0.251 -0.328,0.567 -0.328,0.949l0 2.373 -0.667 0 0 -4.162 0.667 0 0 0.691 0.017 0c0.314,-0.526 0.769,-0.788 1.365,-0.788 0.455,0 0.803,0.147 1.045,0.441 0.241,0.293 0.362,0.719 0.362,1.274l0 2.544z"/>
   <path id="_3_70" class="fil1" d="M102.002 32.652c-0.954,0.549 -2.141,0.823 -3.56,0.823 -1.57,0 -2.81,-0.435 -3.718,-1.305 -0.905,-0.87 -1.358,-2.068 -1.358,-3.594 0,-1.536 0.495,-2.787 1.486,-3.755 0.989,-0.97 2.308,-1.454 3.953,-1.454 1.035,0 1.95,0.144 2.738,0.43l0 2.066c-0.754,-0.437 -1.675,-0.654 -2.766,-0.654 -0.914,0 -1.656,0.296 -2.231,0.889 -0.577,0.593 -0.863,1.384 -0.863,2.375 0,1.003 0.258,1.78 0.772,2.331 0.517,0.55 1.212,0.824 2.089,0.824 0.529,0 0.947,-0.074 1.254,-0.223l0 -1.91 -1.954 0 0 -1.759 4.158 0 0 4.916z"/>
   <path id="_4_71" class="fil1" d="M104.782 25.221c-0.363,0 -0.661,-0.107 -0.892,-0.323 -0.232,-0.217 -0.348,-0.48 -0.348,-0.794 0,-0.323 0.116,-0.586 0.348,-0.791 0.231,-0.204 0.529,-0.307 0.892,-0.307 0.369,0 0.667,0.103 0.898,0.307 0.228,0.205 0.344,0.468 0.344,0.791 0,0.326 -0.116,0.596 -0.344,0.805 -0.231,0.207 -0.529,0.312 -0.898,0.312zm1.063 8.084l-2.152 0 0 -6.979 2.152 0 0 6.979z"/>
   <path id="_5_72" class="fil1" d="M111.877 33.224c-0.319,0.167 -0.798,0.251 -1.438,0.251 -1.516,0 -2.277,-0.789 -2.277,-2.363l0 -3.197 -1.131 0 0 -1.589 1.131 0 0 -1.505 2.147 -0.614 0 2.119 1.568 0 0 1.589 -1.568 0 0 2.822c0,0.726 0.289,1.089 0.866,1.089 0.228,0 0.463,-0.065 0.702,-0.198l0 1.596z"/>
   <polygon id="_6_73" class="fil1" points="121.76,33.305 119.552,33.305 119.552,29.325 115.504,29.325 115.504,33.305 113.301,33.305 113.301,23.532 115.504,23.532 115.504,27.431 119.552,27.431 119.552,23.532 121.76,23.532 "/>
   <path id="_7_74" class="fil1" d="M130.416 33.305l-2.147 0 0 -1.063 -0.032 0c-0.533,0.821 -1.243,1.233 -2.134,1.233 -1.619,0 -2.426,-0.979 -2.426,-2.938l0 -4.211 2.147 0 0 4.02c0,0.987 0.391,1.48 1.172,1.48 0.387,0 0.694,-0.135 0.926,-0.405 0.233,-0.27 0.347,-0.638 0.347,-1.1l0 -3.995 2.147 0 0 6.979z"/>
   <path id="_8_75" class="fil1" d="M134.411 32.493l-0.028 0 0 0.812 -2.152 0 0 -10.331 2.152 0 0 4.401 0.028 0c0.533,-0.812 1.289,-1.219 2.27,-1.219 0.898,0 1.592,0.31 2.078,0.926 0.486,0.619 0.73,1.463 0.73,2.536 0,1.163 -0.283,2.096 -0.851,2.801 -0.57,0.705 -1.328,1.056 -2.278,1.056 -0.858,0 -1.507,-0.326 -1.949,-0.982zm-0.061 -2.942l0 0.714c0,0.451 0.128,0.823 0.389,1.119 0.258,0.295 0.591,0.442 0.996,0.442 0.488,0 0.87,-0.189 1.139,-0.568 0.27,-0.379 0.408,-0.917 0.408,-1.612 0,-0.577 -0.126,-1.028 -0.373,-1.354 -0.249,-0.323 -0.6,-0.486 -1.06,-0.486 -0.431,0 -0.789,0.16 -1.073,0.484 -0.284,0.321 -0.426,0.742 -0.426,1.261z"/>
  </g>
 </g>
</svg>
