<?xml version="1.0" encoding="UTF-8"?>
<!DOCTYPE svg PUBLIC "-//W3C//DTD SVG 1.1//EN" "http://www.w3.org/Graphics/SVG/1.1/DTD/svg11.dtd">
<!-- Creator: CorelDRAW -->
<svg xmlns="http://www.w3.org/2000/svg" xml:space="preserve" width="1280px" height="549px" version="1.1" style="shape-rendering:geometricPrecision; text-rendering:geometricPrecision; image-rendering:optimizeQuality; fill-rule:evenodd; clip-rule:evenodd"
viewBox="0 0 200.981 86.218"
 xmlns:xlink="http://www.w3.org/1999/xlink"
 xmlns:xodm="http://www.corel.com/coreldraw/odm/2003">
 <defs>
  <style type="text/css">
   <![CDATA[
    .str0 {stroke:white;stroke-width:0.094;stroke-miterlimit:22.9256}
    .fil2 {fill:none;fill-rule:nonzero}
    .fil0 {fill:#3E3E3E}
    .fil1 {fill:white;fill-rule:nonzero}
   ]]>
  </style>
 </defs>
 <g id="Capa_x0020_1">
  <metadata id="CorelCorpID_0Corel-Layer"/>
  <path class="fil0" d="M21.982 0l173.974 0c2.764,0 5.025,2.261 5.025,5.024l0 62.352c0,10.363 -8.479,18.842 -18.842,18.842l-177.115 0c-2.763,0 -5.024,-2.261 -5.024,-5.024l0 -59.212c0,-12.09 9.892,-21.982 21.982,-21.982z"/>
  <path class="fil1" d="M25.687 4.943c-11.218,0 -20.31,9.093 -20.31,20.31 0,9.024 5.889,16.664 14.03,19.31l0.007 0.001 0.332 0c0.475,-0.081 0.865,-0.505 0.865,-1.03l0 -3.809c-0.787,0.112 -1.72,0.228 -2.115,0.21 -1.144,-0.052 -2.201,-0.233 -2.73,-0.551 -0.616,-0.37 -1.481,-1.057 -1.734,-1.608 -0.36,-0.781 -0.443,-1.176 -0.867,-1.861 -0.381,-0.613 -1.037,-1.248 -1.461,-1.48 -0.423,-0.233 -0.825,-0.551 -0.91,-0.762 -0.084,-0.212 0.106,-0.508 0.508,-0.572 0.401,-0.063 1.121,0.064 1.862,0.402 0.56,0.256 1.178,0.982 1.607,1.608 0.508,0.741 1.185,1.503 1.756,1.841 0.571,0.338 1.756,0.508 2.877,0.338 0.435,-0.065 0.888,-0.227 1.281,-0.4 0.158,-1.051 0.626,-1.996 1.324,-2.733 -5.981,-0.732 -9.263,-3.505 -9.263,-9.581 0,-2.343 0.78,-4.276 2.11,-5.792 -0.151,-0.332 -0.309,-0.783 -0.388,-1.354 -0.174,-1.269 0.032,-2.031 0.207,-2.776 0.174,-0.746 0.381,-1.27 0.381,-1.27 0,0 0.936,-0.095 1.729,0.175 0.793,0.27 1.475,0.476 2.459,1.063 0.463,0.276 0.929,0.579 1.297,0.824 1.578,-0.438 3.317,-0.662 5.146,-0.662 1.812,0 3.536,0.223 5.103,0.658 0.366,-0.244 0.829,-0.545 1.289,-0.819 0.984,-0.587 1.667,-0.793 2.46,-1.063 0.793,-0.27 1.729,-0.175 1.729,-0.175 0,0 0.206,0.524 0.381,1.27 0.175,0.745 0.381,1.507 0.206,2.776 -0.076,0.557 -0.229,0.999 -0.376,1.329 1.355,1.525 2.149,3.471 2.149,5.817 0,6.165 -3.321,8.873 -9.258,9.585 0.859,0.909 1.394,2.129 1.394,3.478l0 5.895c0,0.522 0.385,0.943 0.856,1.029l0.343 0c8.143,-2.645 14.034,-10.286 14.034,-19.311 0,-11.217 -9.093,-20.31 -20.31,-20.31zm-12.959 29.173c-0.156,-0.08 -0.241,-0.229 -0.188,-0.333 0.053,-0.105 0.223,-0.124 0.38,-0.044 0.156,0.08 0.24,0.229 0.188,0.333 -0.053,0.105 -0.224,0.124 -0.38,0.044zm1.231 0.766c-0.083,0.09 -0.259,0.061 -0.395,-0.062 -0.137,-0.124 -0.18,-0.298 -0.098,-0.387 0.082,-0.09 0.259,-0.061 0.395,0.063 0.136,0.123 0.18,0.297 0.098,0.386zm0.765 1.27c-0.103,0.073 -0.279,0.005 -0.392,-0.153 -0.112,-0.157 -0.119,-0.345 -0.016,-0.418 0.104,-0.073 0.279,-0.005 0.392,0.152 0.112,0.158 0.12,0.346 0.016,0.419zm1.1 0.955c-0.07,0.114 -0.269,0.119 -0.444,0.013 -0.174,-0.107 -0.26,-0.286 -0.189,-0.399 0.07,-0.114 0.269,-0.119 0.443,-0.013 0.175,0.107 0.26,0.286 0.19,0.399zm1.04 0.936c-0.216,-0.027 -0.377,-0.162 -0.358,-0.302 0.017,-0.14 0.207,-0.231 0.422,-0.205 0.216,0.026 0.377,0.161 0.358,0.302 -0.017,0.139 -0.206,0.231 -0.422,0.205zm1.677 0.242c-0.231,-0.013 -0.411,-0.145 -0.402,-0.293 0.01,-0.148 0.203,-0.259 0.434,-0.246 0.23,0.013 0.41,0.145 0.401,0.294 -0.009,0.149 -0.203,0.259 -0.433,0.245zm1.582 -0.158c-0.246,0 -0.445,-0.128 -0.445,-0.285 0,-0.158 0.199,-0.286 0.445,-0.286 0.245,0 0.445,0.128 0.445,0.286 0,0.157 -0.2,0.285 -0.445,0.285z"/>
  <g>
   <path class="fil1" d="M186.37 56.388l-123.75 0 -0.009 -1.834 123.749 0 0 0 0.01 1.834zm3.831 3.639l-1.747 -0.55 0 0 0.05 -0.178 0.04 -0.173 0.03 -0.169 0.021 -0.164 0.012 -0.158 0.004 -0.153 -0.005 -0.148 -0.013 -0.143 -0.02 -0.137 -0.027 -0.131 -0.034 -0.126 -0.04 -0.12 -0.046 -0.115 -0.053 -0.11 -0.058 -0.105 -0.064 -0.099 -0.07 -0.094 -0.076 -0.09 -0.081 -0.084 -0.087 -0.079 -0.093 -0.075 -0.1 -0.07 -0.105 -0.064 -0.113 -0.06 -0.119 -0.053 -0.126 -0.048 -0.134 -0.042 -0.14 -0.035 -0.148 -0.028 -0.156 -0.021 -0.163 -0.013 -0.17 -0.004 -0.01 -1.834 0.265 0.007 0.26 0.02 0.255 0.034 0.249 0.048 0.244 0.06 0.236 0.075 0.229 0.087 0.222 0.1 0.214 0.112 0.205 0.125 0.195 0.138 0.186 0.148 0.175 0.16 0.164 0.171 0.152 0.179 0.141 0.19 0.128 0.199 0.115 0.206 0.102 0.214 0.09 0.221 0.076 0.228 0.062 0.232 0.05 0.238 0.035 0.242 0.021 0.246 0.008 0.249 -0.005 0.253 -0.02 0.254 -0.033 0.257 -0.046 0.259 -0.06 0.26 -0.074 0.261 0 0zm-4.331 7.836l2.584 -8.386 1.747 0.55 -2.583 8.385 0 0 -1.748 -0.549zm-4.722 5.472l-0.009 -1.833 0 0 0.175 -0.005 0.178 -0.013 0.18 -0.022 0.181 -0.031 0.182 -0.04 0.183 -0.048 0.184 -0.056 0.183 -0.065 0.183 -0.073 0.183 -0.081 0.18 -0.088 0.179 -0.096 0.176 -0.103 0.174 -0.11 0.171 -0.117 0.167 -0.123 0.163 -0.13 0.158 -0.135 0.154 -0.14 0.149 -0.145 0.143 -0.151 0.136 -0.155 0.131 -0.158 0.124 -0.163 0.117 -0.166 0.109 -0.169 0.102 -0.171 0.094 -0.174 0.086 -0.176 0.077 -0.177 0.069 -0.179 0.06 -0.18 1.748 0.55 -0.087 0.259 -0.098 0.255 -0.109 0.25 -0.119 0.245 -0.13 0.239 -0.139 0.234 -0.148 0.229 -0.156 0.222 -0.165 0.217 -0.173 0.21 -0.18 0.204 -0.188 0.197 -0.194 0.19 -0.201 0.183 -0.207 0.177 -0.213 0.168 -0.218 0.161 -0.223 0.153 -0.229 0.145 -0.233 0.136 -0.237 0.127 -0.242 0.118 -0.245 0.109 -0.249 0.1 -0.253 0.089 -0.255 0.078 -0.258 0.068 -0.261 0.056 -0.262 0.045 -0.265 0.033 -0.266 0.02 -0.267 0.006 0 0zm-123.759 -1.833l123.75 0 0.009 1.833 -123.749 0 0 0 -0.01 -1.833zm-3.831 -3.639l1.748 0.549 0 0 -0.051 0.178 -0.04 0.173 -0.03 0.169 -0.021 0.164 -0.012 0.158 -0.003 0.153 0.004 0.148 0.013 0.143 0.02 0.137 0.027 0.131 0.034 0.126 0.04 0.121 0.046 0.114 0.053 0.11 0.058 0.105 0.064 0.099 0.07 0.094 0.076 0.09 0.081 0.084 0.087 0.079 0.094 0.075 0.099 0.07 0.105 0.064 0.113 0.06 0.119 0.054 0.126 0.048 0.134 0.041 0.14 0.035 0.148 0.029 0.156 0.02 0.163 0.013 0.17 0.005 0.01 1.833 -0.265 -0.006 -0.26 -0.021 -0.255 -0.034 -0.249 -0.047 -0.243 -0.061 -0.237 -0.074 -0.229 -0.087 -0.222 -0.1 -0.214 -0.113 -0.205 -0.125 -0.195 -0.138 -0.185 -0.148 -0.176 -0.16 -0.163 -0.17 -0.153 -0.18 -0.14 -0.19 -0.129 -0.199 -0.115 -0.206 -0.102 -0.214 -0.09 -0.221 -0.076 -0.228 -0.062 -0.232 -0.049 -0.238 -0.036 -0.242 -0.021 -0.246 -0.008 -0.249 0.005 -0.252 0.02 -0.255 0.033 -0.257 0.046 -0.258 0.06 -0.261 0.074 -0.261 0 0.001zm4.331 -7.836l-2.583 8.385 -1.748 -0.549 2.584 -8.386 0 0 1.747 0.55zm4.722 -5.473l0.009 1.834 0 0 -0.175 0.004 -0.178 0.013 -0.179 0.023 -0.181 0.03 -0.183 0.04 -0.183 0.048 -0.184 0.057 -0.183 0.064 -0.183 0.073 -0.182 0.081 -0.181 0.088 -0.179 0.097 -0.176 0.103 -0.174 0.11 -0.171 0.116 -0.167 0.124 -0.163 0.129 -0.158 0.135 -0.154 0.14 -0.148 0.145 -0.143 0.151 -0.137 0.155 -0.131 0.158 -0.124 0.163 -0.117 0.166 -0.109 0.169 -0.102 0.171 -0.094 0.174 -0.086 0.176 -0.077 0.177 -0.069 0.179 -0.06 0.18 -1.747 -0.55 0.086 -0.259 0.098 -0.255 0.109 -0.25 0.12 -0.245 0.129 -0.239 0.139 -0.234 0.148 -0.229 0.157 -0.222 0.164 -0.216 0.173 -0.211 0.181 -0.203 0.187 -0.198 0.194 -0.19 0.201 -0.183 0.207 -0.176 0.213 -0.169 0.218 -0.161 0.224 -0.153 0.228 -0.144 0.233 -0.137 0.237 -0.127 0.242 -0.118 0.246 -0.109 0.249 -0.099 0.252 -0.089 0.255 -0.079 0.258 -0.068 0.261 -0.056 0.262 -0.045 0.265 -0.032 0.266 -0.02 0.267 -0.007 0 0z"/>
  </g>
  <path class="fil1" d="M65.749 67.32l-1.17 -2.231c-0.117,-0.223 -0.228,-0.406 -0.337,-0.554 -0.108,-0.15 -0.221,-0.269 -0.336,-0.358 -0.114,-0.087 -0.239,-0.151 -0.37,-0.188 -0.133,-0.039 -0.28,-0.058 -0.443,-0.058l-0.855 0 0 3.389 -0.722 0 0 -7.778 2.238 0c0.293,0 0.577,0.043 0.85,0.13 0.273,0.087 0.515,0.215 0.728,0.385 0.213,0.17 0.385,0.383 0.513,0.639 0.128,0.257 0.193,0.555 0.193,0.894 0,0.274 -0.041,0.528 -0.124,0.76 -0.084,0.229 -0.202,0.435 -0.356,0.614 -0.153,0.178 -0.339,0.33 -0.557,0.454 -0.221,0.126 -0.467,0.219 -0.741,0.28l0 0.022c0.106,0.043 0.2,0.1 0.287,0.169 0.087,0.068 0.17,0.151 0.252,0.25 0.081,0.096 0.161,0.209 0.241,0.335 0.079,0.128 0.163,0.272 0.248,0.435l1.305 2.411 -0.844 0zm-3.511 -7.111l0 3.067 1.289 0c0.261,0 0.498,-0.038 0.715,-0.113 0.216,-0.076 0.401,-0.186 0.555,-0.326 0.154,-0.139 0.272,-0.31 0.358,-0.508 0.085,-0.198 0.127,-0.422 0.127,-0.67 0,-0.452 -0.144,-0.806 -0.435,-1.063 -0.291,-0.258 -0.711,-0.387 -1.261,-0.387l-1.348 0z"/>
  <path id="_1" class="fil1" d="M68.132 67.431c-0.144,0 -0.268,-0.05 -0.368,-0.152 -0.102,-0.1 -0.152,-0.224 -0.152,-0.368 0,-0.147 0.05,-0.272 0.148,-0.372 0.1,-0.102 0.224,-0.152 0.372,-0.152 0.073,0 0.139,0.013 0.202,0.04 0.063,0.028 0.119,0.063 0.165,0.108 0.048,0.046 0.085,0.1 0.115,0.165 0.028,0.066 0.042,0.137 0.042,0.211 0,0.072 -0.014,0.14 -0.042,0.203 -0.03,0.063 -0.067,0.119 -0.115,0.165 -0.046,0.047 -0.102,0.084 -0.165,0.111 -0.063,0.028 -0.129,0.041 -0.202,0.041z"/>
  <polygon id="_2" class="fil1" points="72.58,60.209 72.58,67.32 71.858,67.32 71.858,60.209 69.614,60.209 69.614,59.542 74.825,59.542 74.825,60.209 "/>
  <path id="_3" class="fil1" d="M75.175 64.664c0.004,0.341 0.048,0.647 0.135,0.919 0.087,0.27 0.211,0.502 0.374,0.689 0.163,0.189 0.361,0.333 0.595,0.431 0.233,0.1 0.496,0.15 0.789,0.15 0.626,0 1.216,-0.218 1.774,-0.657l0 0.687c-0.532,0.38 -1.176,0.57 -1.932,0.57 -0.372,0 -0.711,-0.065 -1.015,-0.196 -0.303,-0.13 -0.561,-0.319 -0.776,-0.567 -0.213,-0.248 -0.377,-0.553 -0.492,-0.914 -0.117,-0.363 -0.174,-0.776 -0.174,-1.239 0,-0.417 0.063,-0.802 0.189,-1.158 0.127,-0.353 0.301,-0.661 0.526,-0.92 0.225,-0.259 0.49,-0.461 0.798,-0.608 0.307,-0.146 0.642,-0.22 1.007,-0.22 0.359,0 0.674,0.063 0.95,0.187 0.274,0.126 0.506,0.304 0.691,0.535 0.187,0.232 0.328,0.513 0.426,0.847 0.098,0.333 0.146,0.705 0.146,1.116l0 0.348 -4.011 0zm3.3 -0.611c-0.011,-0.577 -0.148,-1.026 -0.413,-1.344 -0.265,-0.319 -0.633,-0.478 -1.104,-0.478 -0.235,0 -0.453,0.041 -0.655,0.124 -0.2,0.084 -0.378,0.204 -0.53,0.361 -0.152,0.158 -0.278,0.35 -0.378,0.576 -0.1,0.226 -0.168,0.48 -0.209,0.761l3.289 0z"/>
  <path id="_4" class="fil1" d="M83.76 67.32l0 -0.989 -0.022 0c-0.18,0.356 -0.428,0.632 -0.741,0.828 -0.313,0.196 -0.666,0.294 -1.061,0.294 -0.268,0 -0.509,-0.039 -0.724,-0.114 -0.217,-0.076 -0.398,-0.184 -0.548,-0.323 -0.152,-0.14 -0.267,-0.307 -0.348,-0.503 -0.082,-0.197 -0.122,-0.412 -0.122,-0.649 0,-0.503 0.155,-0.905 0.466,-1.203 0.311,-0.3 0.782,-0.495 1.411,-0.585l1.689 -0.245c0,-1.067 -0.415,-1.6 -1.246,-1.6 -0.65,0 -1.254,0.237 -1.809,0.711l0 -0.759c0.116,-0.081 0.248,-0.158 0.394,-0.224 0.148,-0.067 0.304,-0.124 0.467,-0.174 0.163,-0.048 0.331,-0.085 0.504,-0.113 0.174,-0.028 0.34,-0.041 0.505,-0.041 0.62,0 1.091,0.174 1.408,0.52 0.318,0.349 0.477,0.865 0.477,1.554l0 3.615 -0.7 0zm-1.435 -2.698c-0.252,0.035 -0.465,0.079 -0.642,0.135 -0.178,0.054 -0.325,0.128 -0.441,0.22 -0.117,0.093 -0.202,0.206 -0.256,0.341 -0.054,0.137 -0.081,0.304 -0.081,0.504 0,0.148 0.026,0.285 0.079,0.413 0.052,0.126 0.128,0.235 0.228,0.328 0.1,0.092 0.22,0.164 0.365,0.214 0.142,0.05 0.305,0.076 0.487,0.076 0.246,0 0.472,-0.046 0.68,-0.14 0.205,-0.095 0.385,-0.226 0.535,-0.391 0.15,-0.167 0.268,-0.367 0.353,-0.598 0.086,-0.232 0.128,-0.484 0.128,-0.756l0 -0.548 -1.435 0.202z"/>
  <path id="_5" class="fil1" d="M89.821 67.068c-0.413,0.25 -0.911,0.378 -1.498,0.385 -0.398,0.004 -0.757,-0.065 -1.076,-0.205 -0.318,-0.143 -0.589,-0.339 -0.815,-0.589 -0.224,-0.252 -0.396,-0.548 -0.514,-0.891 -0.121,-0.341 -0.18,-0.713 -0.18,-1.115 0,-0.416 0.063,-0.807 0.191,-1.174 0.126,-0.368 0.311,-0.687 0.553,-0.961 0.243,-0.272 0.539,-0.489 0.891,-0.648 0.35,-0.159 0.752,-0.239 1.206,-0.239 0.459,0 0.879,0.089 1.259,0.267l0 0.737c-0.406,-0.269 -0.845,-0.404 -1.317,-0.404 -0.329,0 -0.624,0.063 -0.881,0.187 -0.258,0.126 -0.474,0.296 -0.65,0.511 -0.176,0.215 -0.309,0.467 -0.402,0.756 -0.093,0.287 -0.139,0.592 -0.139,0.915 0,0.296 0.039,0.581 0.117,0.852 0.078,0.272 0.198,0.511 0.359,0.72 0.161,0.207 0.365,0.374 0.611,0.496 0.248,0.124 0.537,0.185 0.872,0.185 0.522,0 0.993,-0.155 1.413,-0.468l0 0.683z"/>
  <path id="_6" class="fil1" d="M94.901 67.32l0 -3.27c0,-0.623 -0.111,-1.082 -0.335,-1.376 -0.224,-0.295 -0.572,-0.443 -1.045,-0.443 -0.222,0 -0.435,0.045 -0.637,0.135 -0.202,0.091 -0.379,0.222 -0.529,0.391 -0.152,0.17 -0.273,0.378 -0.363,0.622 -0.091,0.245 -0.136,0.521 -0.136,0.83l0 3.111 -0.699 0 0 -8.222 0.699 0 0 3.624 0.023 0c0.433,-0.728 1.053,-1.091 1.863,-1.091 0.618,0 1.083,0.191 1.392,0.57 0.311,0.38 0.467,0.941 0.467,1.682l0 3.437 -0.7 0z"/>
  <path id="_7" class="fil1" d="M97.616 60.364c-0.135,0 -0.25,-0.046 -0.348,-0.14 -0.1,-0.095 -0.149,-0.215 -0.149,-0.36 0,-0.14 0.049,-0.257 0.149,-0.35 0.098,-0.092 0.213,-0.139 0.348,-0.139 0.068,0 0.135,0.012 0.196,0.036 0.063,0.024 0.115,0.057 0.161,0.1 0.047,0.044 0.082,0.096 0.109,0.155 0.028,0.059 0.041,0.126 0.041,0.198 0,0.069 -0.013,0.134 -0.039,0.197 -0.024,0.061 -0.061,0.115 -0.109,0.159 -0.046,0.046 -0.1,0.081 -0.159,0.105 -0.061,0.026 -0.128,0.039 -0.2,0.039zm-0.345 6.956l0 -5.556 0.7 0 0 5.556 -0.7 0z"/>
  <path id="_8" class="fil1" d="M103.501 67.32l0 -3.204c0,-1.257 -0.454,-1.885 -1.363,-1.885 -0.241,0 -0.465,0.048 -0.67,0.144 -0.206,0.097 -0.384,0.228 -0.534,0.399 -0.148,0.17 -0.266,0.372 -0.35,0.605 -0.085,0.234 -0.128,0.487 -0.128,0.758l0 3.183 -0.699 0 0 -5.556 0.699 0 0 0.963 0.023 0c0.411,-0.731 1.031,-1.096 1.857,-1.096 0.608,0 1.071,0.196 1.389,0.591 0.317,0.394 0.476,0.965 0.476,1.711l0 3.387 -0.7 0z"/>
  <path id="_9" class="fil1" d="M110.46 66.892c0,1.032 -0.235,1.797 -0.705,2.293 -0.471,0.498 -1.195,0.746 -2.174,0.746 -0.61,0 -1.188,-0.135 -1.732,-0.405l0 -0.706c0.606,0.333 1.182,0.5 1.73,0.5 1.453,0 2.181,-0.767 2.181,-2.298l0 -0.665 -0.022 0c-0.426,0.732 -1.078,1.096 -1.954,1.096 -0.344,0 -0.657,-0.063 -0.942,-0.19 -0.284,-0.126 -0.528,-0.31 -0.73,-0.549 -0.202,-0.238 -0.361,-0.529 -0.472,-0.872 -0.113,-0.341 -0.169,-0.728 -0.169,-1.159 0,-0.456 0.06,-0.87 0.18,-1.246 0.119,-0.374 0.289,-0.697 0.509,-0.963 0.222,-0.269 0.489,-0.476 0.802,-0.623 0.313,-0.146 0.665,-0.22 1.056,-0.22 0.785,0 1.359,0.319 1.72,0.956l0.022 0 0 -0.823 0.7 0 0 5.128zm-0.7 -2.95c0,-0.231 -0.042,-0.452 -0.126,-0.657 -0.083,-0.206 -0.198,-0.387 -0.346,-0.543 -0.15,-0.155 -0.326,-0.279 -0.532,-0.372 -0.203,-0.093 -0.429,-0.139 -0.675,-0.139 -0.291,0 -0.552,0.056 -0.788,0.169 -0.233,0.113 -0.431,0.272 -0.596,0.477 -0.166,0.206 -0.292,0.458 -0.381,0.752 -0.089,0.296 -0.134,0.628 -0.134,0.997 0,0.34 0.043,0.648 0.126,0.924 0.084,0.276 0.2,0.509 0.352,0.7 0.154,0.192 0.337,0.34 0.552,0.446 0.217,0.105 0.457,0.157 0.72,0.157 0.276,0 0.526,-0.05 0.752,-0.15 0.224,-0.098 0.417,-0.237 0.576,-0.413 0.159,-0.174 0.284,-0.381 0.371,-0.618 0.087,-0.237 0.129,-0.493 0.129,-0.769l0 -0.961z"/>
  <path id="_10" class="fil1" d="M116.595 67.32l-1.17 -2.231c-0.117,-0.223 -0.228,-0.406 -0.337,-0.554 -0.107,-0.15 -0.22,-0.269 -0.335,-0.358 -0.115,-0.087 -0.239,-0.151 -0.371,-0.188 -0.133,-0.039 -0.279,-0.058 -0.442,-0.058l-0.856 0 0 3.389 -0.722 0 0 -7.778 2.239 0c0.293,0 0.576,0.043 0.85,0.13 0.272,0.087 0.515,0.215 0.728,0.385 0.213,0.17 0.385,0.383 0.513,0.639 0.128,0.257 0.192,0.555 0.192,0.894 0,0.274 -0.04,0.528 -0.124,0.76 -0.083,0.229 -0.202,0.435 -0.355,0.614 -0.154,0.178 -0.339,0.33 -0.558,0.454 -0.22,0.126 -0.466,0.219 -0.741,0.28l0 0.022c0.106,0.043 0.2,0.1 0.288,0.169 0.087,0.068 0.17,0.151 0.251,0.25 0.082,0.096 0.161,0.209 0.241,0.335 0.08,0.128 0.163,0.272 0.248,0.435l1.306 2.411 -0.845 0zm-3.511 -7.111l0 3.067 1.289 0c0.261,0 0.498,-0.038 0.715,-0.113 0.217,-0.076 0.402,-0.186 0.556,-0.326 0.153,-0.139 0.272,-0.31 0.357,-0.508 0.085,-0.198 0.128,-0.422 0.128,-0.67 0,-0.452 -0.145,-0.806 -0.435,-1.063 -0.291,-0.258 -0.712,-0.387 -1.262,-0.387l-1.348 0z"/>
  <path id="_11" class="fil1" d="M118.671 64.664c0.004,0.341 0.048,0.647 0.135,0.919 0.088,0.27 0.212,0.502 0.375,0.689 0.163,0.189 0.361,0.333 0.594,0.431 0.233,0.1 0.496,0.15 0.789,0.15 0.626,0 1.217,-0.218 1.774,-0.657l0 0.687c-0.532,0.38 -1.176,0.57 -1.931,0.57 -0.373,0 -0.712,-0.065 -1.015,-0.196 -0.304,-0.13 -0.561,-0.319 -0.776,-0.567 -0.213,-0.248 -0.378,-0.553 -0.493,-0.914 -0.116,-0.363 -0.174,-0.776 -0.174,-1.239 0,-0.417 0.063,-0.802 0.189,-1.158 0.128,-0.353 0.302,-0.661 0.526,-0.92 0.226,-0.259 0.491,-0.461 0.798,-0.608 0.307,-0.146 0.643,-0.22 1.007,-0.22 0.36,0 0.675,0.063 0.95,0.187 0.275,0.126 0.506,0.304 0.691,0.535 0.187,0.232 0.328,0.513 0.426,0.847 0.098,0.333 0.146,0.705 0.146,1.116l0 0.348 -4.011 0zm3.3 -0.611c-0.011,-0.577 -0.148,-1.026 -0.413,-1.344 -0.264,-0.319 -0.633,-0.478 -1.103,-0.478 -0.236,0 -0.454,0.041 -0.656,0.124 -0.2,0.084 -0.378,0.204 -0.53,0.361 -0.151,0.158 -0.277,0.35 -0.377,0.576 -0.1,0.226 -0.169,0.48 -0.21,0.761l3.289 0z"/>
  <path id="_12" class="fil1" d="M123.745 66.322c0.106,0.083 0.219,0.157 0.341,0.222 0.122,0.065 0.25,0.12 0.38,0.169 0.129,0.046 0.259,0.081 0.392,0.105 0.132,0.024 0.256,0.035 0.376,0.035 0.822,0 1.234,-0.309 1.234,-0.926 0,-0.14 -0.03,-0.263 -0.087,-0.366 -0.058,-0.104 -0.141,-0.198 -0.249,-0.284 -0.109,-0.085 -0.239,-0.163 -0.39,-0.235 -0.152,-0.072 -0.324,-0.148 -0.515,-0.228 -0.258,-0.105 -0.478,-0.212 -0.663,-0.32 -0.183,-0.109 -0.335,-0.228 -0.456,-0.355 -0.118,-0.13 -0.207,-0.271 -0.264,-0.425 -0.058,-0.153 -0.087,-0.329 -0.087,-0.524 0,-0.246 0.053,-0.466 0.159,-0.657 0.107,-0.193 0.25,-0.356 0.429,-0.489 0.182,-0.133 0.389,-0.237 0.624,-0.307 0.237,-0.071 0.486,-0.106 0.745,-0.106 0.48,0 0.896,0.091 1.254,0.27l0 0.732c-0.415,-0.269 -0.863,-0.402 -1.343,-0.402 -0.172,0 -0.33,0.022 -0.472,0.065 -0.143,0.044 -0.265,0.105 -0.367,0.185 -0.1,0.08 -0.18,0.176 -0.235,0.287 -0.056,0.111 -0.083,0.233 -0.083,0.367 0,0.139 0.022,0.259 0.064,0.361 0.045,0.104 0.112,0.198 0.204,0.281 0.093,0.082 0.211,0.161 0.358,0.239 0.146,0.076 0.324,0.158 0.535,0.245 0.266,0.107 0.498,0.215 0.692,0.322 0.197,0.107 0.358,0.222 0.484,0.348 0.126,0.124 0.22,0.263 0.281,0.419 0.061,0.153 0.093,0.331 0.093,0.533 0,0.25 -0.052,0.474 -0.154,0.668 -0.104,0.197 -0.246,0.362 -0.428,0.495 -0.181,0.133 -0.396,0.235 -0.641,0.304 -0.244,0.068 -0.511,0.103 -0.8,0.103 -0.559,0 -1.029,-0.118 -1.411,-0.353l0 -0.778z"/>
  <path id="_13" class="fil1" d="M128.894 64.664c0.003,0.341 0.048,0.647 0.135,0.919 0.087,0.27 0.211,0.502 0.374,0.689 0.163,0.189 0.361,0.333 0.594,0.431 0.234,0.1 0.497,0.15 0.789,0.15 0.626,0 1.217,-0.218 1.774,-0.657l0 0.687c-0.531,0.38 -1.176,0.57 -1.931,0.57 -0.372,0 -0.711,-0.065 -1.015,-0.196 -0.304,-0.13 -0.561,-0.319 -0.776,-0.567 -0.213,-0.248 -0.378,-0.553 -0.493,-0.914 -0.116,-0.363 -0.174,-0.776 -0.174,-1.239 0,-0.417 0.063,-0.802 0.189,-1.158 0.128,-0.353 0.302,-0.661 0.526,-0.92 0.226,-0.259 0.491,-0.461 0.798,-0.608 0.308,-0.146 0.643,-0.22 1.008,-0.22 0.359,0 0.674,0.063 0.95,0.187 0.274,0.126 0.505,0.304 0.69,0.535 0.188,0.232 0.328,0.513 0.426,0.847 0.099,0.333 0.147,0.705 0.147,1.116l0 0.348 -4.011 0zm3.3 -0.611c-0.011,-0.577 -0.149,-1.026 -0.413,-1.344 -0.265,-0.319 -0.634,-0.478 -1.104,-0.478 -0.235,0 -0.454,0.041 -0.656,0.124 -0.2,0.084 -0.377,0.204 -0.529,0.361 -0.152,0.158 -0.278,0.35 -0.378,0.576 -0.1,0.226 -0.169,0.48 -0.209,0.761l3.289 0z"/>
  <path id="_14" class="fil1" d="M137.479 67.32l0 -0.989 -0.022 0c-0.18,0.356 -0.428,0.632 -0.741,0.828 -0.313,0.196 -0.667,0.294 -1.061,0.294 -0.269,0 -0.51,-0.039 -0.724,-0.114 -0.217,-0.076 -0.398,-0.184 -0.549,-0.323 -0.151,-0.14 -0.266,-0.307 -0.348,-0.503 -0.081,-0.197 -0.122,-0.412 -0.122,-0.649 0,-0.503 0.156,-0.905 0.467,-1.203 0.311,-0.3 0.781,-0.495 1.411,-0.585l1.689 -0.245c0,-1.067 -0.415,-1.6 -1.246,-1.6 -0.651,0 -1.254,0.237 -1.81,0.711l0 -0.759c0.117,-0.081 0.248,-0.158 0.395,-0.224 0.148,-0.067 0.303,-0.124 0.466,-0.174 0.163,-0.048 0.332,-0.085 0.504,-0.113 0.174,-0.028 0.341,-0.041 0.506,-0.041 0.62,0 1.09,0.174 1.407,0.52 0.319,0.349 0.478,0.865 0.478,1.554l0 3.615 -0.7 0zm-1.435 -2.698c-0.252,0.035 -0.465,0.079 -0.643,0.135 -0.178,0.054 -0.324,0.128 -0.441,0.22 -0.116,0.093 -0.202,0.206 -0.255,0.341 -0.054,0.137 -0.082,0.304 -0.082,0.504 0,0.148 0.026,0.285 0.08,0.413 0.052,0.126 0.128,0.235 0.228,0.328 0.1,0.092 0.22,0.164 0.365,0.214 0.142,0.05 0.305,0.076 0.487,0.076 0.246,0 0.472,-0.046 0.679,-0.14 0.206,-0.095 0.385,-0.226 0.535,-0.391 0.15,-0.167 0.269,-0.367 0.354,-0.598 0.085,-0.232 0.128,-0.484 0.128,-0.756l0 -0.548 -1.435 0.202z"/>
  <path id="_15" class="fil1" d="M142.601 62.477c-0.163,-0.12 -0.372,-0.179 -0.63,-0.179 -0.183,0 -0.346,0.035 -0.487,0.105 -0.142,0.071 -0.264,0.165 -0.372,0.286 -0.107,0.118 -0.196,0.257 -0.27,0.414 -0.076,0.158 -0.135,0.321 -0.18,0.491 -0.046,0.17 -0.078,0.343 -0.098,0.515 -0.02,0.174 -0.03,0.339 -0.03,0.494l0 2.717 -0.688 0 0 -5.556 0.688 0 0 1.191 0.023 0c0.064,-0.202 0.146,-0.385 0.246,-0.544 0.1,-0.161 0.215,-0.298 0.344,-0.408 0.13,-0.111 0.273,-0.194 0.426,-0.252 0.154,-0.057 0.315,-0.087 0.485,-0.087 0.113,0 0.213,0.008 0.302,0.023 0.087,0.013 0.169,0.035 0.241,0.064l0 0.726z"/>
  <path id="_16" class="fil1" d="M147.158 67.068c-0.413,0.25 -0.911,0.378 -1.498,0.385 -0.398,0.004 -0.757,-0.065 -1.076,-0.205 -0.318,-0.143 -0.589,-0.339 -0.815,-0.589 -0.224,-0.252 -0.396,-0.548 -0.514,-0.891 -0.121,-0.341 -0.18,-0.713 -0.18,-1.115 0,-0.416 0.063,-0.807 0.191,-1.174 0.126,-0.368 0.311,-0.687 0.553,-0.961 0.243,-0.272 0.539,-0.489 0.891,-0.648 0.35,-0.159 0.752,-0.239 1.206,-0.239 0.459,0 0.879,0.089 1.259,0.267l0 0.737c-0.406,-0.269 -0.844,-0.404 -1.317,-0.404 -0.329,0 -0.624,0.063 -0.881,0.187 -0.258,0.126 -0.474,0.296 -0.65,0.511 -0.176,0.215 -0.309,0.467 -0.402,0.756 -0.093,0.287 -0.139,0.592 -0.139,0.915 0,0.296 0.039,0.581 0.117,0.852 0.078,0.272 0.198,0.511 0.359,0.72 0.161,0.207 0.365,0.374 0.611,0.496 0.248,0.124 0.537,0.185 0.872,0.185 0.523,0 0.993,-0.155 1.413,-0.468l0 0.683z"/>
  <path id="_17" class="fil1" d="M152.238 67.32l0 -3.27c0,-0.623 -0.111,-1.082 -0.335,-1.376 -0.224,-0.295 -0.572,-0.443 -1.045,-0.443 -0.222,0 -0.435,0.045 -0.637,0.135 -0.201,0.091 -0.379,0.222 -0.529,0.391 -0.152,0.17 -0.272,0.378 -0.363,0.622 -0.091,0.245 -0.135,0.521 -0.135,0.83l0 3.111 -0.7 0 0 -8.222 0.7 0 0 3.624 0.022 0c0.433,-0.728 1.054,-1.091 1.863,-1.091 0.618,0 1.083,0.191 1.392,0.57 0.312,0.38 0.467,0.941 0.467,1.682l0 3.437 -0.7 0z"/>
  <path id="_18" class="fil1" d="M160.442 66.779c-0.8,0.45 -1.648,0.674 -2.543,0.674 -0.565,0 -1.072,-0.096 -1.522,-0.29 -0.448,-0.193 -0.831,-0.463 -1.146,-0.808 -0.315,-0.346 -0.558,-0.757 -0.726,-1.237 -0.169,-0.48 -0.252,-1.005 -0.252,-1.581 0,-0.38 0.041,-0.745 0.122,-1.097 0.082,-0.35 0.202,-0.679 0.359,-0.987 0.158,-0.307 0.35,-0.585 0.578,-0.835 0.23,-0.25 0.491,-0.465 0.785,-0.644 0.297,-0.182 0.623,-0.321 0.976,-0.419 0.356,-0.098 0.739,-0.146 1.148,-0.146 0.771,0 1.46,0.137 2.065,0.411l0 0.796c-0.666,-0.368 -1.383,-0.552 -2.152,-0.552 -0.476,0 -0.903,0.087 -1.288,0.261 -0.384,0.173 -0.712,0.412 -0.982,0.715 -0.269,0.304 -0.478,0.663 -0.628,1.078 -0.148,0.415 -0.224,0.863 -0.228,1.348 -0.003,0.482 0.06,0.926 0.188,1.332 0.129,0.407 0.32,0.759 0.574,1.055 0.253,0.297 0.566,0.528 0.938,0.695 0.375,0.166 0.806,0.25 1.295,0.25 0.659,0 1.231,-0.137 1.717,-0.413l0 -2.376 -1.767 0 0 -0.656 2.489 0 0 3.426z"/>
  <path id="_19" class="fil1" d="M165.762 67.32l0 -0.941 -0.022 0c-0.376,0.717 -0.959,1.074 -1.752,1.074 -1.32,0 -1.981,-0.807 -1.981,-2.42l0 -3.269 0.7 0 0 3.136c0,0.666 0.118,1.157 0.355,1.476 0.235,0.318 0.598,0.477 1.085,0.477 0.239,0 0.456,-0.046 0.654,-0.139 0.196,-0.092 0.367,-0.222 0.509,-0.39 0.143,-0.167 0.254,-0.369 0.334,-0.604 0.079,-0.235 0.118,-0.496 0.118,-0.781l0 -3.175 0.7 0 0 5.556 -0.7 0z"/>
  <path id="_20" class="fil1" d="M168.594 60.364c-0.136,0 -0.25,-0.046 -0.348,-0.14 -0.1,-0.095 -0.149,-0.215 -0.149,-0.36 0,-0.14 0.049,-0.257 0.149,-0.35 0.098,-0.092 0.212,-0.139 0.348,-0.139 0.068,0 0.135,0.012 0.196,0.036 0.063,0.024 0.115,0.057 0.161,0.1 0.046,0.044 0.081,0.096 0.109,0.155 0.028,0.059 0.041,0.126 0.041,0.198 0,0.069 -0.013,0.134 -0.039,0.197 -0.024,0.061 -0.061,0.115 -0.109,0.159 -0.046,0.046 -0.1,0.081 -0.159,0.105 -0.061,0.026 -0.128,0.039 -0.2,0.039zm-0.345 6.956l0 -5.556 0.7 0 0 5.556 -0.7 0z"/>
  <path id="_21" class="fil1" d="M174.623 67.32l0 -0.974 -0.022 0c-0.183,0.35 -0.448,0.624 -0.789,0.817 -0.342,0.194 -0.731,0.29 -1.165,0.29 -0.348,0 -0.663,-0.065 -0.948,-0.192 -0.283,-0.13 -0.528,-0.315 -0.729,-0.558 -0.202,-0.242 -0.36,-0.535 -0.471,-0.879 -0.109,-0.345 -0.165,-0.734 -0.165,-1.167 0,-0.45 0.061,-0.859 0.182,-1.231 0.122,-0.371 0.294,-0.689 0.517,-0.956 0.222,-0.267 0.49,-0.472 0.803,-0.619 0.313,-0.146 0.661,-0.22 1.045,-0.22 0.8,0 1.374,0.32 1.72,0.961l0.022 0 0 -3.494 0.7 0 0 8.222 -0.7 0zm0 -3.356c0,-0.242 -0.042,-0.47 -0.126,-0.679 -0.083,-0.21 -0.198,-0.393 -0.346,-0.548 -0.15,-0.156 -0.328,-0.28 -0.537,-0.371 -0.207,-0.09 -0.437,-0.135 -0.687,-0.135 -0.276,0 -0.53,0.054 -0.761,0.163 -0.232,0.109 -0.432,0.265 -0.596,0.47 -0.165,0.204 -0.293,0.454 -0.386,0.747 -0.092,0.292 -0.138,0.626 -0.138,1 0,0.35 0.042,0.665 0.125,0.944 0.084,0.28 0.202,0.515 0.356,0.706 0.154,0.192 0.337,0.339 0.552,0.44 0.213,0.102 0.452,0.152 0.711,0.152 0.283,0 0.539,-0.05 0.765,-0.152 0.226,-0.101 0.418,-0.24 0.576,-0.418 0.157,-0.178 0.279,-0.385 0.365,-0.624 0.085,-0.239 0.127,-0.495 0.127,-0.767l0 -0.928z"/>
  <path id="_22" class="fil1" d="M177.436 64.664c0.004,0.341 0.048,0.647 0.135,0.919 0.087,0.27 0.212,0.502 0.375,0.689 0.163,0.189 0.361,0.333 0.594,0.431 0.233,0.1 0.496,0.15 0.789,0.15 0.626,0 1.216,-0.218 1.774,-0.657l0 0.687c-0.532,0.38 -1.176,0.57 -1.931,0.57 -0.373,0 -0.712,-0.065 -1.015,-0.196 -0.304,-0.13 -0.561,-0.319 -0.776,-0.567 -0.213,-0.248 -0.378,-0.553 -0.493,-0.914 -0.116,-0.363 -0.174,-0.776 -0.174,-1.239 0,-0.417 0.063,-0.802 0.189,-1.158 0.128,-0.353 0.302,-0.661 0.526,-0.92 0.226,-0.259 0.491,-0.461 0.798,-0.608 0.307,-0.146 0.643,-0.22 1.007,-0.22 0.36,0 0.674,0.063 0.95,0.187 0.274,0.126 0.506,0.304 0.691,0.535 0.187,0.232 0.328,0.513 0.426,0.847 0.098,0.333 0.146,0.705 0.146,1.116l0 0.348 -4.011 0zm3.3 -0.611c-0.011,-0.577 -0.148,-1.026 -0.413,-1.344 -0.265,-0.319 -0.633,-0.478 -1.103,-0.478 -0.236,0 -0.454,0.041 -0.656,0.124 -0.2,0.084 -0.378,0.204 -0.53,0.361 -0.151,0.158 -0.277,0.35 -0.377,0.576 -0.1,0.226 -0.169,0.48 -0.21,0.761l3.289 0z"/>
  <g>
   <path id="_23" class="fil2 str0" d="M65.749 67.32l-1.17 -2.231c-0.117,-0.223 -0.228,-0.406 -0.337,-0.554 -0.108,-0.15 -0.221,-0.269 -0.336,-0.358 -0.114,-0.087 -0.239,-0.151 -0.37,-0.188 -0.133,-0.039 -0.28,-0.058 -0.443,-0.058l-0.855 0 0 3.389 -0.722 0 0 -7.778 2.238 0c0.293,0 0.577,0.043 0.85,0.13 0.273,0.087 0.515,0.215 0.728,0.385 0.213,0.17 0.385,0.383 0.513,0.639 0.128,0.257 0.193,0.555 0.193,0.894 0,0.274 -0.041,0.528 -0.124,0.76 -0.084,0.229 -0.202,0.435 -0.356,0.614 -0.153,0.178 -0.339,0.33 -0.557,0.454 -0.221,0.126 -0.467,0.219 -0.741,0.28l0 0.022c0.106,0.043 0.2,0.1 0.287,0.169 0.087,0.068 0.17,0.151 0.252,0.25 0.081,0.096 0.161,0.209 0.241,0.335 0.079,0.128 0.163,0.272 0.248,0.435l1.305 2.411 -0.844 0zm-3.511 -7.111l0 3.067 1.289 0c0.261,0 0.498,-0.038 0.715,-0.113 0.216,-0.076 0.401,-0.186 0.555,-0.326 0.154,-0.139 0.272,-0.31 0.358,-0.508 0.085,-0.198 0.127,-0.422 0.127,-0.67 0,-0.452 -0.144,-0.806 -0.435,-1.063 -0.291,-0.258 -0.711,-0.387 -1.261,-0.387l-1.348 0z"/>
  </g>
  <g>
   <path id="_24" class="fil2 str0" d="M68.132 67.431c-0.144,0 -0.268,-0.05 -0.368,-0.152 -0.102,-0.1 -0.152,-0.224 -0.152,-0.368 0,-0.147 0.05,-0.272 0.148,-0.372 0.1,-0.102 0.224,-0.152 0.372,-0.152 0.073,0 0.139,0.013 0.202,0.04 0.063,0.028 0.119,0.063 0.165,0.108 0.048,0.046 0.085,0.1 0.115,0.165 0.028,0.066 0.042,0.137 0.042,0.211 0,0.072 -0.014,0.14 -0.042,0.203 -0.03,0.063 -0.067,0.119 -0.115,0.165 -0.046,0.047 -0.102,0.084 -0.165,0.111 -0.063,0.028 -0.129,0.041 -0.202,0.041z"/>
  </g>
  <g>
   <polygon id="_25" class="fil2 str0" points="72.58,60.209 72.58,67.32 71.858,67.32 71.858,60.209 69.614,60.209 69.614,59.542 74.825,59.542 74.825,60.209 "/>
  </g>
  <g>
   <path id="_26" class="fil2 str0" d="M75.175 64.664c0.004,0.341 0.048,0.647 0.135,0.919 0.087,0.27 0.211,0.502 0.374,0.689 0.163,0.189 0.361,0.333 0.595,0.431 0.233,0.1 0.496,0.15 0.789,0.15 0.626,0 1.216,-0.218 1.774,-0.657l0 0.687c-0.532,0.38 -1.176,0.57 -1.932,0.57 -0.372,0 -0.711,-0.065 -1.015,-0.196 -0.303,-0.13 -0.561,-0.319 -0.776,-0.567 -0.213,-0.248 -0.377,-0.553 -0.492,-0.914 -0.117,-0.363 -0.174,-0.776 -0.174,-1.239 0,-0.417 0.063,-0.802 0.189,-1.158 0.127,-0.353 0.301,-0.661 0.526,-0.92 0.225,-0.259 0.49,-0.461 0.798,-0.608 0.307,-0.146 0.642,-0.22 1.007,-0.22 0.359,0 0.674,0.063 0.95,0.187 0.274,0.126 0.506,0.304 0.691,0.535 0.187,0.232 0.328,0.513 0.426,0.847 0.098,0.333 0.146,0.705 0.146,1.116l0 0.348 -4.011 0zm3.3 -0.611c-0.011,-0.577 -0.148,-1.026 -0.413,-1.344 -0.265,-0.319 -0.633,-0.478 -1.104,-0.478 -0.235,0 -0.453,0.041 -0.655,0.124 -0.2,0.084 -0.378,0.204 -0.53,0.361 -0.152,0.158 -0.278,0.35 -0.378,0.576 -0.1,0.226 -0.168,0.48 -0.209,0.761l3.289 0z"/>
  </g>
  <g>
   <path id="_27" class="fil2 str0" d="M83.76 67.32l0 -0.989 -0.022 0c-0.18,0.356 -0.428,0.632 -0.741,0.828 -0.313,0.196 -0.666,0.294 -1.061,0.294 -0.268,0 -0.509,-0.039 -0.724,-0.114 -0.217,-0.076 -0.398,-0.184 -0.548,-0.323 -0.152,-0.14 -0.267,-0.307 -0.348,-0.503 -0.082,-0.197 -0.122,-0.412 -0.122,-0.649 0,-0.503 0.155,-0.905 0.466,-1.203 0.311,-0.3 0.782,-0.495 1.411,-0.585l1.689 -0.245c0,-1.067 -0.415,-1.6 -1.246,-1.6 -0.65,0 -1.254,0.237 -1.809,0.711l0 -0.759c0.116,-0.081 0.248,-0.158 0.394,-0.224 0.148,-0.067 0.304,-0.124 0.467,-0.174 0.163,-0.048 0.331,-0.085 0.504,-0.113 0.174,-0.028 0.34,-0.041 0.505,-0.041 0.62,0 1.091,0.174 1.408,0.52 0.318,0.349 0.477,0.865 0.477,1.554l0 3.615 -0.7 0zm-1.435 -2.698c-0.252,0.035 -0.465,0.079 -0.642,0.135 -0.178,0.054 -0.325,0.128 -0.441,0.22 -0.117,0.093 -0.202,0.206 -0.256,0.341 -0.054,0.137 -0.081,0.304 -0.081,0.504 0,0.148 0.026,0.285 0.079,0.413 0.052,0.126 0.128,0.235 0.228,0.328 0.1,0.092 0.22,0.164 0.365,0.214 0.142,0.05 0.305,0.076 0.487,0.076 0.246,0 0.472,-0.046 0.68,-0.14 0.205,-0.095 0.385,-0.226 0.535,-0.391 0.15,-0.167 0.268,-0.367 0.353,-0.598 0.086,-0.232 0.128,-0.484 0.128,-0.756l0 -0.548 -1.435 0.202z"/>
  </g>
  <g>
   <path id="_28" class="fil2 str0" d="M89.821 67.068c-0.413,0.25 -0.911,0.378 -1.498,0.385 -0.398,0.004 -0.757,-0.065 -1.076,-0.205 -0.318,-0.143 -0.589,-0.339 -0.815,-0.589 -0.224,-0.252 -0.396,-0.548 -0.514,-0.891 -0.121,-0.341 -0.18,-0.713 -0.18,-1.115 0,-0.416 0.063,-0.807 0.191,-1.174 0.126,-0.368 0.311,-0.687 0.553,-0.961 0.243,-0.272 0.539,-0.489 0.891,-0.648 0.35,-0.159 0.752,-0.239 1.206,-0.239 0.459,0 0.879,0.089 1.259,0.267l0 0.737c-0.406,-0.269 -0.845,-0.404 -1.317,-0.404 -0.329,0 -0.624,0.063 -0.881,0.187 -0.258,0.126 -0.474,0.296 -0.65,0.511 -0.176,0.215 -0.309,0.467 -0.402,0.756 -0.093,0.287 -0.139,0.592 -0.139,0.915 0,0.296 0.039,0.581 0.117,0.852 0.078,0.272 0.198,0.511 0.359,0.72 0.161,0.207 0.365,0.374 0.611,0.496 0.248,0.124 0.537,0.185 0.872,0.185 0.522,0 0.993,-0.155 1.413,-0.468l0 0.683z"/>
  </g>
  <g>
   <path id="_29" class="fil2 str0" d="M94.901 67.32l0 -3.27c0,-0.623 -0.111,-1.082 -0.335,-1.376 -0.224,-0.295 -0.572,-0.443 -1.045,-0.443 -0.222,0 -0.435,0.045 -0.637,0.135 -0.202,0.091 -0.379,0.222 -0.529,0.391 -0.152,0.17 -0.273,0.378 -0.363,0.622 -0.091,0.245 -0.136,0.521 -0.136,0.83l0 3.111 -0.699 0 0 -8.222 0.699 0 0 3.624 0.023 0c0.433,-0.728 1.053,-1.091 1.863,-1.091 0.618,0 1.083,0.191 1.392,0.57 0.311,0.38 0.467,0.941 0.467,1.682l0 3.437 -0.7 0z"/>
  </g>
  <g>
   <path id="_30" class="fil2 str0" d="M97.616 60.364c-0.135,0 -0.25,-0.046 -0.348,-0.14 -0.1,-0.095 -0.149,-0.215 -0.149,-0.36 0,-0.14 0.049,-0.257 0.149,-0.35 0.098,-0.092 0.213,-0.139 0.348,-0.139 0.068,0 0.135,0.012 0.196,0.036 0.063,0.024 0.115,0.057 0.161,0.1 0.047,0.044 0.082,0.096 0.109,0.155 0.028,0.059 0.041,0.126 0.041,0.198 0,0.069 -0.013,0.134 -0.039,0.197 -0.024,0.061 -0.061,0.115 -0.109,0.159 -0.046,0.046 -0.1,0.081 -0.159,0.105 -0.061,0.026 -0.128,0.039 -0.2,0.039zm-0.345 6.956l0 -5.556 0.7 0 0 5.556 -0.7 0z"/>
  </g>
  <g>
   <path id="_31" class="fil2 str0" d="M103.501 67.32l0 -3.204c0,-1.257 -0.454,-1.885 -1.363,-1.885 -0.241,0 -0.465,0.048 -0.67,0.144 -0.206,0.097 -0.384,0.228 -0.534,0.399 -0.148,0.17 -0.266,0.372 -0.35,0.605 -0.085,0.234 -0.128,0.487 -0.128,0.758l0 3.183 -0.699 0 0 -5.556 0.699 0 0 0.963 0.023 0c0.411,-0.731 1.031,-1.096 1.857,-1.096 0.608,0 1.071,0.196 1.389,0.591 0.317,0.394 0.476,0.965 0.476,1.711l0 3.387 -0.7 0z"/>
  </g>
  <g>
   <path id="_32" class="fil2 str0" d="M110.46 66.892c0,1.032 -0.235,1.797 -0.705,2.293 -0.471,0.498 -1.195,0.746 -2.174,0.746 -0.61,0 -1.188,-0.135 -1.732,-0.405l0 -0.706c0.606,0.333 1.182,0.5 1.73,0.5 1.453,0 2.181,-0.767 2.181,-2.298l0 -0.665 -0.022 0c-0.426,0.732 -1.078,1.096 -1.954,1.096 -0.344,0 -0.657,-0.063 -0.942,-0.19 -0.284,-0.126 -0.528,-0.31 -0.73,-0.549 -0.202,-0.238 -0.361,-0.529 -0.472,-0.872 -0.113,-0.341 -0.169,-0.728 -0.169,-1.159 0,-0.456 0.06,-0.87 0.18,-1.246 0.119,-0.374 0.289,-0.697 0.509,-0.963 0.222,-0.269 0.489,-0.476 0.802,-0.623 0.313,-0.146 0.665,-0.22 1.056,-0.22 0.785,0 1.359,0.319 1.72,0.956l0.022 0 0 -0.823 0.7 0 0 5.128zm-0.7 -2.95c0,-0.231 -0.042,-0.452 -0.126,-0.657 -0.083,-0.206 -0.198,-0.387 -0.346,-0.543 -0.15,-0.155 -0.326,-0.279 -0.532,-0.372 -0.203,-0.093 -0.429,-0.139 -0.675,-0.139 -0.291,0 -0.552,0.056 -0.788,0.169 -0.233,0.113 -0.431,0.272 -0.596,0.477 -0.166,0.206 -0.292,0.458 -0.381,0.752 -0.089,0.296 -0.134,0.628 -0.134,0.997 0,0.34 0.043,0.648 0.126,0.924 0.084,0.276 0.2,0.509 0.352,0.7 0.154,0.192 0.337,0.34 0.552,0.446 0.217,0.105 0.457,0.157 0.72,0.157 0.276,0 0.526,-0.05 0.752,-0.15 0.224,-0.098 0.417,-0.237 0.576,-0.413 0.159,-0.174 0.284,-0.381 0.371,-0.618 0.087,-0.237 0.129,-0.493 0.129,-0.769l0 -0.961z"/>
  </g>
  <g>
   <path id="_33" class="fil2 str0" d="M116.595 67.32l-1.17 -2.231c-0.117,-0.223 -0.228,-0.406 -0.337,-0.554 -0.107,-0.15 -0.22,-0.269 -0.335,-0.358 -0.115,-0.087 -0.239,-0.151 -0.371,-0.188 -0.133,-0.039 -0.279,-0.058 -0.442,-0.058l-0.856 0 0 3.389 -0.722 0 0 -7.778 2.239 0c0.293,0 0.576,0.043 0.85,0.13 0.272,0.087 0.515,0.215 0.728,0.385 0.213,0.17 0.385,0.383 0.513,0.639 0.128,0.257 0.192,0.555 0.192,0.894 0,0.274 -0.04,0.528 -0.124,0.76 -0.083,0.229 -0.202,0.435 -0.355,0.614 -0.154,0.178 -0.339,0.33 -0.558,0.454 -0.22,0.126 -0.466,0.219 -0.741,0.28l0 0.022c0.106,0.043 0.2,0.1 0.288,0.169 0.087,0.068 0.17,0.151 0.251,0.25 0.082,0.096 0.161,0.209 0.241,0.335 0.08,0.128 0.163,0.272 0.248,0.435l1.306 2.411 -0.845 0zm-3.511 -7.111l0 3.067 1.289 0c0.261,0 0.498,-0.038 0.715,-0.113 0.217,-0.076 0.402,-0.186 0.556,-0.326 0.153,-0.139 0.272,-0.31 0.357,-0.508 0.085,-0.198 0.128,-0.422 0.128,-0.67 0,-0.452 -0.145,-0.806 -0.435,-1.063 -0.291,-0.258 -0.712,-0.387 -1.262,-0.387l-1.348 0z"/>
  </g>
  <g>
   <path id="_34" class="fil2 str0" d="M118.671 64.664c0.004,0.341 0.048,0.647 0.135,0.919 0.088,0.27 0.212,0.502 0.375,0.689 0.163,0.189 0.361,0.333 0.594,0.431 0.233,0.1 0.496,0.15 0.789,0.15 0.626,0 1.217,-0.218 1.774,-0.657l0 0.687c-0.532,0.38 -1.176,0.57 -1.931,0.57 -0.373,0 -0.712,-0.065 -1.015,-0.196 -0.304,-0.13 -0.561,-0.319 -0.776,-0.567 -0.213,-0.248 -0.378,-0.553 -0.493,-0.914 -0.116,-0.363 -0.174,-0.776 -0.174,-1.239 0,-0.417 0.063,-0.802 0.189,-1.158 0.128,-0.353 0.302,-0.661 0.526,-0.92 0.226,-0.259 0.491,-0.461 0.798,-0.608 0.307,-0.146 0.643,-0.22 1.007,-0.22 0.36,0 0.675,0.063 0.95,0.187 0.275,0.126 0.506,0.304 0.691,0.535 0.187,0.232 0.328,0.513 0.426,0.847 0.098,0.333 0.146,0.705 0.146,1.116l0 0.348 -4.011 0zm3.3 -0.611c-0.011,-0.577 -0.148,-1.026 -0.413,-1.344 -0.264,-0.319 -0.633,-0.478 -1.103,-0.478 -0.236,0 -0.454,0.041 -0.656,0.124 -0.2,0.084 -0.378,0.204 -0.53,0.361 -0.151,0.158 -0.277,0.35 -0.377,0.576 -0.1,0.226 -0.169,0.48 -0.21,0.761l3.289 0z"/>
  </g>
  <g>
   <path id="_35" class="fil2 str0" d="M123.745 66.322c0.106,0.083 0.219,0.157 0.341,0.222 0.122,0.065 0.25,0.12 0.38,0.169 0.129,0.046 0.259,0.081 0.392,0.105 0.132,0.024 0.256,0.035 0.376,0.035 0.822,0 1.234,-0.309 1.234,-0.926 0,-0.14 -0.03,-0.263 -0.087,-0.366 -0.058,-0.104 -0.141,-0.198 -0.249,-0.284 -0.109,-0.085 -0.239,-0.163 -0.39,-0.235 -0.152,-0.072 -0.324,-0.148 -0.515,-0.228 -0.258,-0.105 -0.478,-0.212 -0.663,-0.32 -0.183,-0.109 -0.335,-0.228 -0.456,-0.355 -0.118,-0.13 -0.207,-0.271 -0.264,-0.425 -0.058,-0.153 -0.087,-0.329 -0.087,-0.524 0,-0.246 0.053,-0.466 0.159,-0.657 0.107,-0.193 0.25,-0.356 0.429,-0.489 0.182,-0.133 0.389,-0.237 0.624,-0.307 0.237,-0.071 0.486,-0.106 0.745,-0.106 0.48,0 0.896,0.091 1.254,0.27l0 0.732c-0.415,-0.269 -0.863,-0.402 -1.343,-0.402 -0.172,0 -0.33,0.022 -0.472,0.065 -0.143,0.044 -0.265,0.105 -0.367,0.185 -0.1,0.08 -0.18,0.176 -0.235,0.287 -0.056,0.111 -0.083,0.233 -0.083,0.367 0,0.139 0.022,0.259 0.064,0.361 0.045,0.104 0.112,0.198 0.204,0.281 0.093,0.082 0.211,0.161 0.358,0.239 0.146,0.076 0.324,0.158 0.535,0.245 0.266,0.107 0.498,0.215 0.692,0.322 0.197,0.107 0.358,0.222 0.484,0.348 0.126,0.124 0.22,0.263 0.281,0.419 0.061,0.153 0.093,0.331 0.093,0.533 0,0.25 -0.052,0.474 -0.154,0.668 -0.104,0.197 -0.246,0.362 -0.428,0.495 -0.181,0.133 -0.396,0.235 -0.641,0.304 -0.244,0.068 -0.511,0.103 -0.8,0.103 -0.559,0 -1.029,-0.118 -1.411,-0.353l0 -0.778z"/>
  </g>
  <g>
   <path id="_36" class="fil2 str0" d="M128.894 64.664c0.003,0.341 0.048,0.647 0.135,0.919 0.087,0.27 0.211,0.502 0.374,0.689 0.163,0.189 0.361,0.333 0.594,0.431 0.234,0.1 0.497,0.15 0.789,0.15 0.626,0 1.217,-0.218 1.774,-0.657l0 0.687c-0.531,0.38 -1.176,0.57 -1.931,0.57 -0.372,0 -0.711,-0.065 -1.015,-0.196 -0.304,-0.13 -0.561,-0.319 -0.776,-0.567 -0.213,-0.248 -0.378,-0.553 -0.493,-0.914 -0.116,-0.363 -0.174,-0.776 -0.174,-1.239 0,-0.417 0.063,-0.802 0.189,-1.158 0.128,-0.353 0.302,-0.661 0.526,-0.92 0.226,-0.259 0.491,-0.461 0.798,-0.608 0.308,-0.146 0.643,-0.22 1.008,-0.22 0.359,0 0.674,0.063 0.95,0.187 0.274,0.126 0.505,0.304 0.69,0.535 0.188,0.232 0.328,0.513 0.426,0.847 0.099,0.333 0.147,0.705 0.147,1.116l0 0.348 -4.011 0zm3.3 -0.611c-0.011,-0.577 -0.149,-1.026 -0.413,-1.344 -0.265,-0.319 -0.634,-0.478 -1.104,-0.478 -0.235,0 -0.454,0.041 -0.656,0.124 -0.2,0.084 -0.377,0.204 -0.529,0.361 -0.152,0.158 -0.278,0.35 -0.378,0.576 -0.1,0.226 -0.169,0.48 -0.209,0.761l3.289 0z"/>
  </g>
  <g>
   <path id="_37" class="fil2 str0" d="M137.479 67.32l0 -0.989 -0.022 0c-0.18,0.356 -0.428,0.632 -0.741,0.828 -0.313,0.196 -0.667,0.294 -1.061,0.294 -0.269,0 -0.51,-0.039 -0.724,-0.114 -0.217,-0.076 -0.398,-0.184 -0.549,-0.323 -0.151,-0.14 -0.266,-0.307 -0.348,-0.503 -0.081,-0.197 -0.122,-0.412 -0.122,-0.649 0,-0.503 0.156,-0.905 0.467,-1.203 0.311,-0.3 0.781,-0.495 1.411,-0.585l1.689 -0.245c0,-1.067 -0.415,-1.6 -1.246,-1.6 -0.651,0 -1.254,0.237 -1.81,0.711l0 -0.759c0.117,-0.081 0.248,-0.158 0.395,-0.224 0.148,-0.067 0.303,-0.124 0.466,-0.174 0.163,-0.048 0.332,-0.085 0.504,-0.113 0.174,-0.028 0.341,-0.041 0.506,-0.041 0.62,0 1.09,0.174 1.407,0.52 0.319,0.349 0.478,0.865 0.478,1.554l0 3.615 -0.7 0zm-1.435 -2.698c-0.252,0.035 -0.465,0.079 -0.643,0.135 -0.178,0.054 -0.324,0.128 -0.441,0.22 -0.116,0.093 -0.202,0.206 -0.255,0.341 -0.054,0.137 -0.082,0.304 -0.082,0.504 0,0.148 0.026,0.285 0.08,0.413 0.052,0.126 0.128,0.235 0.228,0.328 0.1,0.092 0.22,0.164 0.365,0.214 0.142,0.05 0.305,0.076 0.487,0.076 0.246,0 0.472,-0.046 0.679,-0.14 0.206,-0.095 0.385,-0.226 0.535,-0.391 0.15,-0.167 0.269,-0.367 0.354,-0.598 0.085,-0.232 0.128,-0.484 0.128,-0.756l0 -0.548 -1.435 0.202z"/>
  </g>
  <g>
   <path id="_38" class="fil2 str0" d="M142.601 62.477c-0.163,-0.12 -0.372,-0.179 -0.63,-0.179 -0.183,0 -0.346,0.035 -0.487,0.105 -0.142,0.071 -0.264,0.165 -0.372,0.286 -0.107,0.118 -0.196,0.257 -0.27,0.414 -0.076,0.158 -0.135,0.321 -0.18,0.491 -0.046,0.17 -0.078,0.343 -0.098,0.515 -0.02,0.174 -0.03,0.339 -0.03,0.494l0 2.717 -0.688 0 0 -5.556 0.688 0 0 1.191 0.023 0c0.064,-0.202 0.146,-0.385 0.246,-0.544 0.1,-0.161 0.215,-0.298 0.344,-0.408 0.13,-0.111 0.273,-0.194 0.426,-0.252 0.154,-0.057 0.315,-0.087 0.485,-0.087 0.113,0 0.213,0.008 0.302,0.023 0.087,0.013 0.169,0.035 0.241,0.064l0 0.726z"/>
  </g>
  <g>
   <path id="_39" class="fil2 str0" d="M147.158 67.068c-0.413,0.25 -0.911,0.378 -1.498,0.385 -0.398,0.004 -0.757,-0.065 -1.076,-0.205 -0.318,-0.143 -0.589,-0.339 -0.815,-0.589 -0.224,-0.252 -0.396,-0.548 -0.514,-0.891 -0.121,-0.341 -0.18,-0.713 -0.18,-1.115 0,-0.416 0.063,-0.807 0.191,-1.174 0.126,-0.368 0.311,-0.687 0.553,-0.961 0.243,-0.272 0.539,-0.489 0.891,-0.648 0.35,-0.159 0.752,-0.239 1.206,-0.239 0.459,0 0.879,0.089 1.259,0.267l0 0.737c-0.406,-0.269 -0.844,-0.404 -1.317,-0.404 -0.329,0 -0.624,0.063 -0.881,0.187 -0.258,0.126 -0.474,0.296 -0.65,0.511 -0.176,0.215 -0.309,0.467 -0.402,0.756 -0.093,0.287 -0.139,0.592 -0.139,0.915 0,0.296 0.039,0.581 0.117,0.852 0.078,0.272 0.198,0.511 0.359,0.72 0.161,0.207 0.365,0.374 0.611,0.496 0.248,0.124 0.537,0.185 0.872,0.185 0.523,0 0.993,-0.155 1.413,-0.468l0 0.683z"/>
  </g>
  <g>
   <path id="_40" class="fil2 str0" d="M152.238 67.32l0 -3.27c0,-0.623 -0.111,-1.082 -0.335,-1.376 -0.224,-0.295 -0.572,-0.443 -1.045,-0.443 -0.222,0 -0.435,0.045 -0.637,0.135 -0.201,0.091 -0.379,0.222 -0.529,0.391 -0.152,0.17 -0.272,0.378 -0.363,0.622 -0.091,0.245 -0.135,0.521 -0.135,0.83l0 3.111 -0.7 0 0 -8.222 0.7 0 0 3.624 0.022 0c0.433,-0.728 1.054,-1.091 1.863,-1.091 0.618,0 1.083,0.191 1.392,0.57 0.312,0.38 0.467,0.941 0.467,1.682l0 3.437 -0.7 0z"/>
  </g>
  <g>
   <path id="_41" class="fil2 str0" d="M160.442 66.779c-0.8,0.45 -1.648,0.674 -2.543,0.674 -0.565,0 -1.072,-0.096 -1.522,-0.29 -0.448,-0.193 -0.831,-0.463 -1.146,-0.808 -0.315,-0.346 -0.558,-0.757 -0.726,-1.237 -0.169,-0.48 -0.252,-1.005 -0.252,-1.581 0,-0.38 0.041,-0.745 0.122,-1.097 0.082,-0.35 0.202,-0.679 0.359,-0.987 0.158,-0.307 0.35,-0.585 0.578,-0.835 0.23,-0.25 0.491,-0.465 0.785,-0.644 0.297,-0.182 0.623,-0.321 0.976,-0.419 0.356,-0.098 0.739,-0.146 1.148,-0.146 0.771,0 1.46,0.137 2.065,0.411l0 0.796c-0.666,-0.368 -1.383,-0.552 -2.152,-0.552 -0.476,0 -0.903,0.087 -1.288,0.261 -0.384,0.173 -0.712,0.412 -0.982,0.715 -0.269,0.304 -0.478,0.663 -0.628,1.078 -0.148,0.415 -0.224,0.863 -0.228,1.348 -0.003,0.482 0.06,0.926 0.188,1.332 0.129,0.407 0.32,0.759 0.574,1.055 0.253,0.297 0.566,0.528 0.938,0.695 0.375,0.166 0.806,0.25 1.295,0.25 0.659,0 1.231,-0.137 1.717,-0.413l0 -2.376 -1.767 0 0 -0.656 2.489 0 0 3.426z"/>
  </g>
  <g>
   <path id="_42" class="fil2 str0" d="M165.762 67.32l0 -0.941 -0.022 0c-0.376,0.717 -0.959,1.074 -1.752,1.074 -1.32,0 -1.981,-0.807 -1.981,-2.42l0 -3.269 0.7 0 0 3.136c0,0.666 0.118,1.157 0.355,1.476 0.235,0.318 0.598,0.477 1.085,0.477 0.239,0 0.456,-0.046 0.654,-0.139 0.196,-0.092 0.367,-0.222 0.509,-0.39 0.143,-0.167 0.254,-0.369 0.334,-0.604 0.079,-0.235 0.118,-0.496 0.118,-0.781l0 -3.175 0.7 0 0 5.556 -0.7 0z"/>
  </g>
  <g>
   <path id="_43" class="fil2 str0" d="M168.594 60.364c-0.136,0 -0.25,-0.046 -0.348,-0.14 -0.1,-0.095 -0.149,-0.215 -0.149,-0.36 0,-0.14 0.049,-0.257 0.149,-0.35 0.098,-0.092 0.212,-0.139 0.348,-0.139 0.068,0 0.135,0.012 0.196,0.036 0.063,0.024 0.115,0.057 0.161,0.1 0.046,0.044 0.081,0.096 0.109,0.155 0.028,0.059 0.041,0.126 0.041,0.198 0,0.069 -0.013,0.134 -0.039,0.197 -0.024,0.061 -0.061,0.115 -0.109,0.159 -0.046,0.046 -0.1,0.081 -0.159,0.105 -0.061,0.026 -0.128,0.039 -0.2,0.039zm-0.345 6.956l0 -5.556 0.7 0 0 5.556 -0.7 0z"/>
  </g>
  <g>
   <path id="_44" class="fil2 str0" d="M174.623 67.32l0 -0.974 -0.022 0c-0.183,0.35 -0.448,0.624 -0.789,0.817 -0.342,0.194 -0.731,0.29 -1.165,0.29 -0.348,0 -0.663,-0.065 -0.948,-0.192 -0.283,-0.13 -0.528,-0.315 -0.729,-0.558 -0.202,-0.242 -0.36,-0.535 -0.471,-0.879 -0.109,-0.345 -0.165,-0.734 -0.165,-1.167 0,-0.45 0.061,-0.859 0.182,-1.231 0.122,-0.371 0.294,-0.689 0.517,-0.956 0.222,-0.267 0.49,-0.472 0.803,-0.619 0.313,-0.146 0.661,-0.22 1.045,-0.22 0.8,0 1.374,0.32 1.72,0.961l0.022 0 0 -3.494 0.7 0 0 8.222 -0.7 0zm0 -3.356c0,-0.242 -0.042,-0.47 -0.126,-0.679 -0.083,-0.21 -0.198,-0.393 -0.346,-0.548 -0.15,-0.156 -0.328,-0.28 -0.537,-0.371 -0.207,-0.09 -0.437,-0.135 -0.687,-0.135 -0.276,0 -0.53,0.054 -0.761,0.163 -0.232,0.109 -0.432,0.265 -0.596,0.47 -0.165,0.204 -0.293,0.454 -0.386,0.747 -0.092,0.292 -0.138,0.626 -0.138,1 0,0.35 0.042,0.665 0.125,0.944 0.084,0.28 0.202,0.515 0.356,0.706 0.154,0.192 0.337,0.339 0.552,0.44 0.213,0.102 0.452,0.152 0.711,0.152 0.283,0 0.539,-0.05 0.765,-0.152 0.226,-0.101 0.418,-0.24 0.576,-0.418 0.157,-0.178 0.279,-0.385 0.365,-0.624 0.085,-0.239 0.127,-0.495 0.127,-0.767l0 -0.928z"/>
  </g>
  <g>
   <path id="_45" class="fil2 str0" d="M177.436 64.664c0.004,0.341 0.048,0.647 0.135,0.919 0.087,0.27 0.212,0.502 0.375,0.689 0.163,0.189 0.361,0.333 0.594,0.431 0.233,0.1 0.496,0.15 0.789,0.15 0.626,0 1.216,-0.218 1.774,-0.657l0 0.687c-0.532,0.38 -1.176,0.57 -1.931,0.57 -0.373,0 -0.712,-0.065 -1.015,-0.196 -0.304,-0.13 -0.561,-0.319 -0.776,-0.567 -0.213,-0.248 -0.378,-0.553 -0.493,-0.914 -0.116,-0.363 -0.174,-0.776 -0.174,-1.239 0,-0.417 0.063,-0.802 0.189,-1.158 0.128,-0.353 0.302,-0.661 0.526,-0.92 0.226,-0.259 0.491,-0.461 0.798,-0.608 0.307,-0.146 0.643,-0.22 1.007,-0.22 0.36,0 0.674,0.063 0.95,0.187 0.274,0.126 0.506,0.304 0.691,0.535 0.187,0.232 0.328,0.513 0.426,0.847 0.098,0.333 0.146,0.705 0.146,1.116l0 0.348 -4.011 0zm3.3 -0.611c-0.011,-0.577 -0.148,-1.026 -0.413,-1.344 -0.265,-0.319 -0.633,-0.478 -1.103,-0.478 -0.236,0 -0.454,0.041 -0.656,0.124 -0.2,0.084 -0.378,0.204 -0.53,0.361 -0.151,0.158 -0.277,0.35 -0.377,0.576 -0.1,0.226 -0.169,0.48 -0.21,0.761l3.289 0z"/>
  </g>
  <path class="fil1" d="M127.067 78.827l0 -1.435c0,-0.273 -0.05,-0.475 -0.15,-0.604 -0.1,-0.129 -0.255,-0.194 -0.466,-0.194 -0.099,0 -0.194,0.02 -0.284,0.059 -0.09,0.04 -0.169,0.098 -0.236,0.172 -0.068,0.075 -0.122,0.166 -0.162,0.273 -0.041,0.107 -0.061,0.228 -0.061,0.364l0 1.365 -0.312 0 0 -3.608 0.312 0 0 1.59 0.01 0c0.194,-0.319 0.47,-0.478 0.831,-0.478 0.277,0 0.484,0.083 0.622,0.25 0.139,0.167 0.208,0.413 0.208,0.738l0 1.508 -0.312 0z"/>
  <path id="_1_0" class="fil1" d="M129.186 78.797c-0.107,0.053 -0.222,0.079 -0.348,0.079 -0.399,0 -0.599,-0.227 -0.599,-0.68l0 -1.539 -0.436 0 0 -0.268 0.436 0 0 -0.612 0.312 -0.1 0 0.712 0.635 0 0 0.268 -0.635 0 0 1.49c0,0.165 0.028,0.284 0.082,0.357 0.055,0.072 0.146,0.109 0.277,0.109 0.096,0 0.188,-0.029 0.276,-0.086l0 0.27z"/>
  <path id="_2_1" class="fil1" d="M130.762 78.797c-0.107,0.053 -0.222,0.079 -0.348,0.079 -0.399,0 -0.599,-0.227 -0.599,-0.68l0 -1.539 -0.436 0 0 -0.268 0.436 0 0 -0.612 0.312 -0.1 0 0.712 0.635 0 0 0.268 -0.635 0 0 1.49c0,0.165 0.028,0.284 0.082,0.357 0.055,0.072 0.146,0.109 0.277,0.109 0.096,0 0.188,-0.029 0.276,-0.086l0 0.27z"/>
  <path id="_3_2" class="fil1" d="M131.589 78.436l0 1.513 -0.312 0 0 -3.56 0.312 0 0 0.466 0.01 0c0.092,-0.17 0.214,-0.3 0.368,-0.389 0.154,-0.091 0.327,-0.135 0.52,-0.135 0.158,0 0.299,0.028 0.424,0.084 0.125,0.057 0.23,0.137 0.316,0.24 0.086,0.103 0.152,0.228 0.198,0.376 0.045,0.148 0.069,0.314 0.069,0.498 0,0.203 -0.026,0.386 -0.077,0.552 -0.052,0.166 -0.126,0.309 -0.223,0.428 -0.096,0.119 -0.214,0.212 -0.351,0.278 -0.137,0.065 -0.292,0.099 -0.464,0.099 -0.348,0 -0.608,-0.151 -0.78,-0.45l-0.01 0zm0 -0.624c0,0.112 0.019,0.216 0.057,0.313 0.038,0.098 0.09,0.184 0.158,0.258 0.068,0.074 0.15,0.132 0.246,0.175 0.096,0.043 0.201,0.064 0.317,0.064 0.124,0 0.236,-0.026 0.336,-0.077 0.1,-0.052 0.185,-0.125 0.255,-0.221 0.069,-0.095 0.124,-0.21 0.161,-0.345 0.038,-0.135 0.057,-0.286 0.057,-0.453 0,-0.143 -0.017,-0.272 -0.053,-0.388 -0.035,-0.115 -0.086,-0.212 -0.151,-0.294 -0.065,-0.081 -0.144,-0.143 -0.236,-0.186 -0.093,-0.043 -0.196,-0.064 -0.311,-0.064 -0.129,0 -0.245,0.024 -0.348,0.071 -0.102,0.046 -0.191,0.11 -0.263,0.191 -0.072,0.081 -0.128,0.176 -0.167,0.285 -0.039,0.109 -0.058,0.224 -0.058,0.347l0 0.324z"/>
  <path id="_4_3" class="fil1" d="M133.983 78.389c0.047,0.037 0.097,0.069 0.152,0.098 0.054,0.028 0.111,0.052 0.169,0.074 0.058,0.02 0.116,0.035 0.176,0.046 0.058,0.011 0.114,0.015 0.167,0.015 0.367,0 0.551,-0.135 0.551,-0.406 0,-0.062 -0.014,-0.115 -0.039,-0.161 -0.026,-0.045 -0.063,-0.087 -0.111,-0.124 -0.049,-0.038 -0.106,-0.072 -0.174,-0.103 -0.068,-0.032 -0.145,-0.065 -0.23,-0.1 -0.115,-0.047 -0.213,-0.094 -0.296,-0.141 -0.082,-0.048 -0.149,-0.1 -0.203,-0.156 -0.053,-0.057 -0.093,-0.119 -0.118,-0.186 -0.026,-0.067 -0.039,-0.145 -0.039,-0.23 0,-0.108 0.024,-0.205 0.071,-0.288 0.048,-0.085 0.111,-0.157 0.192,-0.215 0.081,-0.059 0.173,-0.104 0.278,-0.135 0.106,-0.031 0.217,-0.046 0.332,-0.046 0.214,0 0.4,0.04 0.56,0.118l0 0.321c-0.185,-0.117 -0.385,-0.176 -0.599,-0.176 -0.077,0 -0.147,0.01 -0.211,0.028 -0.064,0.02 -0.118,0.047 -0.164,0.082 -0.044,0.035 -0.08,0.077 -0.105,0.126 -0.025,0.048 -0.037,0.102 -0.037,0.161 0,0.061 0.01,0.113 0.029,0.158 0.02,0.046 0.05,0.087 0.091,0.124 0.041,0.035 0.094,0.07 0.159,0.104 0.066,0.034 0.145,0.069 0.239,0.108 0.119,0.047 0.223,0.094 0.309,0.141 0.088,0.047 0.16,0.098 0.216,0.153 0.056,0.054 0.098,0.115 0.126,0.183 0.027,0.068 0.041,0.146 0.041,0.235 0,0.109 -0.023,0.208 -0.069,0.293 -0.046,0.086 -0.109,0.158 -0.19,0.217 -0.082,0.058 -0.177,0.103 -0.287,0.133 -0.108,0.03 -0.227,0.046 -0.356,0.046 -0.25,0 -0.46,-0.052 -0.63,-0.155l0 -0.342z"/>
  <path id="_5_4" class="fil1" d="M136.28 76.799c-0.033,0 -0.063,-0.006 -0.091,-0.018 -0.029,-0.012 -0.053,-0.029 -0.074,-0.05 -0.021,-0.022 -0.037,-0.047 -0.049,-0.074 -0.013,-0.028 -0.019,-0.058 -0.019,-0.09 0,-0.063 0.023,-0.117 0.068,-0.161 0.045,-0.044 0.1,-0.065 0.165,-0.065 0.03,0 0.059,0.005 0.087,0.017 0.028,0.01 0.054,0.026 0.075,0.046 0.022,0.019 0.039,0.044 0.053,0.071 0.012,0.028 0.018,0.059 0.018,0.092 0,0.034 -0.006,0.064 -0.018,0.092 -0.014,0.028 -0.031,0.052 -0.053,0.073 -0.021,0.02 -0.047,0.037 -0.075,0.049 -0.028,0.012 -0.057,0.018 -0.087,0.018zm0 2.077c-0.065,0 -0.12,-0.022 -0.165,-0.067 -0.045,-0.044 -0.068,-0.098 -0.068,-0.161 0,-0.065 0.023,-0.12 0.066,-0.164 0.045,-0.044 0.101,-0.066 0.167,-0.066 0.032,0 0.062,0.005 0.09,0.018 0.028,0.012 0.053,0.027 0.073,0.047 0.022,0.02 0.038,0.044 0.052,0.072 0.012,0.029 0.018,0.06 0.018,0.093 0,0.031 -0.006,0.061 -0.018,0.089 -0.014,0.028 -0.03,0.052 -0.052,0.072 -0.02,0.021 -0.045,0.037 -0.073,0.049 -0.028,0.012 -0.058,0.018 -0.09,0.018z"/>
  <polygon id="_6_5" class="fil1" points="137.047,79.393 136.752,79.393 138.428,75.414 138.731,75.414 "/>
  <polygon id="_7_6" class="fil1" points="138.922,79.393 138.627,79.393 140.303,75.414 140.605,75.414 "/>
  <path id="_8_7" class="fil1" d="M143.02 78.64c0,0.452 -0.105,0.788 -0.315,1.006 -0.209,0.218 -0.533,0.327 -0.97,0.327 -0.272,0 -0.53,-0.059 -0.773,-0.178l0 -0.31c0.271,0.147 0.528,0.22 0.772,0.22 0.649,0 0.974,-0.337 0.974,-1.009l0 -0.291 -0.01 0c-0.19,0.321 -0.481,0.481 -0.872,0.481 -0.154,0 -0.293,-0.028 -0.421,-0.084 -0.126,-0.055 -0.235,-0.136 -0.325,-0.241 -0.09,-0.104 -0.162,-0.232 -0.211,-0.382 -0.05,-0.15 -0.075,-0.32 -0.075,-0.509 0,-0.2 0.026,-0.382 0.08,-0.547 0.053,-0.164 0.129,-0.305 0.227,-0.423 0.099,-0.117 0.218,-0.208 0.358,-0.273 0.14,-0.064 0.297,-0.096 0.471,-0.096 0.351,0 0.607,0.139 0.768,0.419l0.01 0 0 -0.361 0.312 0 0 2.251zm-0.312 -1.295c0,-0.102 -0.019,-0.198 -0.056,-0.289 -0.038,-0.09 -0.089,-0.169 -0.155,-0.238 -0.067,-0.068 -0.145,-0.122 -0.237,-0.163 -0.091,-0.041 -0.192,-0.061 -0.302,-0.061 -0.13,0 -0.246,0.024 -0.351,0.074 -0.104,0.049 -0.193,0.119 -0.266,0.21 -0.075,0.09 -0.131,0.2 -0.17,0.33 -0.04,0.13 -0.06,0.275 -0.06,0.437 0,0.149 0.019,0.284 0.056,0.405 0.037,0.121 0.09,0.224 0.157,0.307 0.069,0.085 0.151,0.15 0.247,0.196 0.096,0.047 0.204,0.069 0.321,0.069 0.123,0 0.235,-0.022 0.336,-0.065 0.1,-0.043 0.186,-0.104 0.257,-0.182 0.071,-0.076 0.126,-0.167 0.165,-0.271 0.039,-0.104 0.058,-0.216 0.058,-0.337l0 -0.422z"/>
  <path id="_9_8" class="fil1" d="M143.973 75.775c-0.06,0 -0.111,-0.021 -0.155,-0.062 -0.045,-0.041 -0.066,-0.094 -0.066,-0.158 0,-0.061 0.021,-0.113 0.066,-0.153 0.044,-0.041 0.095,-0.061 0.155,-0.061 0.031,0 0.06,0.005 0.088,0.015 0.028,0.011 0.051,0.025 0.072,0.044 0.02,0.02 0.036,0.042 0.048,0.069 0.013,0.025 0.019,0.055 0.019,0.086 0,0.03 -0.006,0.059 -0.018,0.087 -0.01,0.026 -0.027,0.05 -0.049,0.069 -0.02,0.021 -0.044,0.036 -0.071,0.047 -0.027,0.011 -0.057,0.017 -0.089,0.017zm-0.154 3.052l0 -2.438 0.313 0 0 2.438 -0.313 0z"/>
  <path id="_10_9" class="fil1" d="M145.99 78.797c-0.107,0.053 -0.223,0.079 -0.348,0.079 -0.399,0 -0.599,-0.227 -0.599,-0.68l0 -1.539 -0.437 0 0 -0.268 0.437 0 0 -0.612 0.312 -0.1 0 0.712 0.635 0 0 0.268 -0.635 0 0 1.49c0,0.165 0.027,0.284 0.082,0.357 0.054,0.072 0.146,0.109 0.277,0.109 0.095,0 0.187,-0.029 0.276,-0.086l0 0.27z"/>
  <path id="_11_10" class="fil1" d="M148.176 78.827l0 -1.435c0,-0.273 -0.05,-0.475 -0.15,-0.604 -0.1,-0.129 -0.255,-0.194 -0.466,-0.194 -0.099,0 -0.194,0.02 -0.284,0.059 -0.09,0.04 -0.17,0.098 -0.237,0.172 -0.068,0.075 -0.121,0.166 -0.162,0.273 -0.04,0.107 -0.06,0.228 -0.06,0.364l0 1.365 -0.313 0 0 -3.608 0.313 0 0 1.59 0.01 0c0.193,-0.319 0.47,-0.478 0.831,-0.478 0.276,0 0.484,0.083 0.622,0.25 0.139,0.167 0.208,0.413 0.208,0.738l0 1.508 -0.312 0z"/>
  <path id="_12_11" class="fil1" d="M150.855 78.827l0 -0.413 -0.01 0c-0.168,0.315 -0.428,0.472 -0.782,0.472 -0.589,0 -0.884,-0.355 -0.884,-1.062l0 -1.435 0.312 0 0 1.376c0,0.293 0.053,0.508 0.159,0.648 0.105,0.139 0.267,0.209 0.484,0.209 0.107,0 0.204,-0.02 0.292,-0.061 0.088,-0.04 0.164,-0.097 0.227,-0.171 0.064,-0.073 0.114,-0.162 0.149,-0.265 0.036,-0.103 0.053,-0.218 0.053,-0.343l0 -1.393 0.312 0 0 2.438 -0.312 0z"/>
  <path id="_13_12" class="fil1" d="M152.277 78.436l0 0.391 -0.312 0 0 -3.608 0.312 0 0 1.636 0.01 0c0.092,-0.17 0.214,-0.3 0.368,-0.389 0.154,-0.091 0.327,-0.135 0.52,-0.135 0.158,0 0.299,0.028 0.424,0.084 0.125,0.057 0.23,0.138 0.316,0.242 0.086,0.105 0.152,0.231 0.198,0.379 0.045,0.148 0.069,0.312 0.069,0.493 0,0.203 -0.027,0.386 -0.079,0.552 -0.052,0.166 -0.126,0.309 -0.223,0.428 -0.097,0.119 -0.213,0.212 -0.351,0.278 -0.138,0.065 -0.292,0.099 -0.462,0.099 -0.35,0 -0.609,-0.151 -0.78,-0.45l-0.01 0zm0 -0.624c0,0.112 0.019,0.216 0.057,0.313 0.038,0.098 0.09,0.184 0.158,0.258 0.068,0.074 0.15,0.132 0.246,0.175 0.096,0.043 0.201,0.064 0.317,0.064 0.124,0 0.236,-0.026 0.336,-0.077 0.1,-0.052 0.185,-0.125 0.255,-0.221 0.069,-0.095 0.124,-0.21 0.161,-0.345 0.038,-0.135 0.057,-0.286 0.057,-0.453 0,-0.143 -0.017,-0.272 -0.053,-0.388 -0.035,-0.115 -0.086,-0.212 -0.151,-0.294 -0.065,-0.081 -0.144,-0.143 -0.236,-0.186 -0.093,-0.043 -0.196,-0.064 -0.311,-0.064 -0.129,0 -0.245,0.024 -0.348,0.071 -0.102,0.046 -0.191,0.11 -0.263,0.191 -0.072,0.081 -0.128,0.176 -0.167,0.285 -0.039,0.109 -0.058,0.224 -0.058,0.347l0 0.324z"/>
  <path id="_14_13" class="fil1" d="M154.953 78.876c-0.065,0 -0.12,-0.022 -0.165,-0.067 -0.045,-0.044 -0.067,-0.098 -0.067,-0.161 0,-0.065 0.022,-0.12 0.066,-0.164 0.044,-0.044 0.1,-0.066 0.166,-0.066 0.032,0 0.062,0.005 0.09,0.018 0.028,0.012 0.053,0.027 0.073,0.047 0.022,0.02 0.038,0.044 0.052,0.072 0.012,0.029 0.019,0.06 0.019,0.093 0,0.031 -0.007,0.061 -0.019,0.089 -0.014,0.028 -0.03,0.052 -0.052,0.072 -0.02,0.021 -0.045,0.037 -0.073,0.049 -0.028,0.012 -0.058,0.018 -0.09,0.018z"/>
  <path id="_15_14" class="fil1" d="M157.545 78.717c-0.184,0.109 -0.406,0.165 -0.668,0.169 -0.178,0.001 -0.338,-0.029 -0.481,-0.09 -0.142,-0.063 -0.262,-0.149 -0.363,-0.259 -0.1,-0.11 -0.177,-0.24 -0.23,-0.391 -0.054,-0.149 -0.08,-0.313 -0.08,-0.489 0,-0.183 0.028,-0.354 0.085,-0.515 0.056,-0.162 0.139,-0.302 0.247,-0.422 0.108,-0.119 0.241,-0.215 0.398,-0.284 0.156,-0.07 0.335,-0.105 0.538,-0.105 0.205,0 0.392,0.039 0.562,0.117l0 0.323c-0.181,-0.118 -0.377,-0.177 -0.588,-0.177 -0.147,0 -0.279,0.028 -0.393,0.082 -0.115,0.055 -0.212,0.13 -0.29,0.224 -0.079,0.095 -0.138,0.205 -0.18,0.332 -0.041,0.126 -0.062,0.26 -0.062,0.401 0,0.13 0.018,0.256 0.052,0.374 0.035,0.12 0.089,0.225 0.161,0.316 0.071,0.091 0.162,0.164 0.272,0.218 0.111,0.055 0.24,0.081 0.39,0.081 0.233,0 0.443,-0.068 0.63,-0.205l0 0.3z"/>
  <path id="_16_15" class="fil1" d="M159.15 78.886c-0.183,0 -0.349,-0.03 -0.494,-0.09 -0.146,-0.061 -0.271,-0.147 -0.374,-0.257 -0.104,-0.111 -0.182,-0.242 -0.237,-0.397 -0.055,-0.154 -0.082,-0.325 -0.082,-0.513 0,-0.203 0.029,-0.385 0.086,-0.545 0.059,-0.161 0.142,-0.297 0.248,-0.409 0.108,-0.112 0.237,-0.197 0.389,-0.256 0.152,-0.059 0.321,-0.088 0.508,-0.088 0.179,0 0.34,0.029 0.484,0.087 0.143,0.057 0.265,0.142 0.365,0.251 0.1,0.109 0.177,0.244 0.229,0.4 0.054,0.158 0.081,0.337 0.081,0.537 0,0.191 -0.028,0.364 -0.084,0.521 -0.055,0.157 -0.135,0.291 -0.238,0.404 -0.103,0.113 -0.229,0.2 -0.378,0.262 -0.147,0.062 -0.315,0.093 -0.503,0.093zm0.025 -2.292c-0.136,0 -0.259,0.023 -0.369,0.069 -0.11,0.046 -0.204,0.113 -0.282,0.202 -0.079,0.087 -0.139,0.195 -0.181,0.324 -0.043,0.127 -0.063,0.273 -0.063,0.435 0,0.152 0.02,0.29 0.063,0.412 0.042,0.122 0.101,0.227 0.178,0.315 0.077,0.087 0.17,0.154 0.28,0.201 0.11,0.047 0.233,0.07 0.369,0.07 0.139,0 0.262,-0.022 0.369,-0.068 0.106,-0.045 0.196,-0.11 0.271,-0.197 0.074,-0.087 0.13,-0.193 0.168,-0.319 0.038,-0.125 0.057,-0.268 0.057,-0.429 0,-0.328 -0.074,-0.58 -0.223,-0.754 -0.149,-0.174 -0.361,-0.261 -0.637,-0.261z"/>
  <path id="_17_16" class="fil1" d="M164.097 78.827l0 -1.435c0,-0.145 -0.011,-0.269 -0.034,-0.371 -0.022,-0.1 -0.057,-0.182 -0.104,-0.246 -0.048,-0.063 -0.109,-0.109 -0.181,-0.138 -0.074,-0.028 -0.162,-0.043 -0.263,-0.043 -0.09,0 -0.176,0.021 -0.256,0.063 -0.081,0.043 -0.151,0.1 -0.212,0.174 -0.06,0.074 -0.107,0.161 -0.142,0.261 -0.035,0.1 -0.052,0.208 -0.052,0.324l0 1.411 -0.313 0 0 -1.466c0,-0.511 -0.198,-0.767 -0.596,-0.767 -0.091,0 -0.176,0.02 -0.255,0.061 -0.079,0.041 -0.148,0.097 -0.206,0.17 -0.059,0.073 -0.105,0.161 -0.138,0.264 -0.033,0.102 -0.049,0.215 -0.049,0.339l0 1.399 -0.313 0 0 -2.438 0.313 0 0 0.395 0.01 0c0.174,-0.302 0.428,-0.453 0.762,-0.453 0.086,0 0.169,0.013 0.247,0.039 0.077,0.027 0.146,0.063 0.207,0.109 0.062,0.048 0.114,0.104 0.159,0.169 0.044,0.066 0.078,0.137 0.101,0.215 0.086,-0.174 0.2,-0.306 0.339,-0.397 0.14,-0.09 0.298,-0.135 0.473,-0.135 0.544,0 0.816,0.33 0.816,0.99l0 1.506 -0.313 0z"/>
  <polygon id="_18_17" class="fil1" points="164.979,79.393 164.684,79.393 166.36,75.414 166.663,75.414 "/>
  <path id="_19_18" class="fil1" d="M168.26 76.702c-0.073,-0.053 -0.167,-0.079 -0.282,-0.079 -0.081,0 -0.154,0.016 -0.217,0.047 -0.064,0.03 -0.118,0.072 -0.166,0.125 -0.048,0.052 -0.087,0.113 -0.121,0.182 -0.033,0.069 -0.06,0.14 -0.08,0.215 -0.02,0.075 -0.034,0.15 -0.043,0.226 -0.01,0.076 -0.014,0.149 -0.014,0.217l0 1.192 -0.307 0 0 -2.438 0.307 0 0 0.523 0.01 0c0.029,-0.089 0.065,-0.169 0.11,-0.239 0.045,-0.071 0.096,-0.131 0.154,-0.179 0.058,-0.049 0.121,-0.085 0.19,-0.11 0.069,-0.026 0.14,-0.039 0.216,-0.039 0.051,0 0.096,0.004 0.135,0.01 0.039,0.006 0.075,0.016 0.108,0.029l0 0.318z"/>
  <path id="_20_19" class="fil1" d="M170.294 78.717c-0.185,0.109 -0.407,0.165 -0.669,0.169 -0.178,0.001 -0.338,-0.029 -0.48,-0.09 -0.142,-0.063 -0.263,-0.149 -0.364,-0.259 -0.1,-0.11 -0.177,-0.24 -0.23,-0.391 -0.053,-0.149 -0.08,-0.313 -0.08,-0.489 0,-0.183 0.028,-0.354 0.085,-0.515 0.056,-0.162 0.139,-0.302 0.247,-0.422 0.109,-0.119 0.241,-0.215 0.398,-0.284 0.156,-0.07 0.336,-0.105 0.538,-0.105 0.205,0 0.392,0.039 0.562,0.117l0 0.323c-0.181,-0.118 -0.377,-0.177 -0.588,-0.177 -0.147,0 -0.278,0.028 -0.393,0.082 -0.115,0.055 -0.212,0.13 -0.29,0.224 -0.079,0.095 -0.138,0.205 -0.18,0.332 -0.041,0.126 -0.061,0.26 -0.061,0.401 0,0.13 0.017,0.256 0.052,0.374 0.034,0.12 0.088,0.225 0.16,0.316 0.072,0.091 0.163,0.164 0.273,0.218 0.11,0.055 0.239,0.081 0.389,0.081 0.233,0 0.443,-0.068 0.631,-0.205l0 0.3z"/>
  <path id="_21_20" class="fil1" d="M172.04 75.505c-0.07,-0.045 -0.159,-0.067 -0.269,-0.067 -0.29,0 -0.435,0.187 -0.435,0.56l0 0.391 0.615 0 0 0.268 -0.615 0 0 2.17 -0.313 0 0 -2.17 -0.431 0 0 -0.268 0.431 0 0 -0.41c0,-0.123 0.016,-0.233 0.047,-0.333 0.032,-0.099 0.079,-0.184 0.14,-0.255 0.061,-0.071 0.139,-0.126 0.231,-0.164 0.094,-0.038 0.201,-0.057 0.322,-0.057 0.117,0 0.209,0.016 0.277,0.046l0 0.289z"/>
  <path id="_22_21" class="fil1" d="M174.085 78.827l0 -0.427 -0.01 0c-0.082,0.153 -0.2,0.274 -0.352,0.358 -0.153,0.085 -0.326,0.128 -0.52,0.128 -0.155,0 -0.295,-0.029 -0.423,-0.085 -0.126,-0.057 -0.235,-0.138 -0.325,-0.244 -0.09,-0.107 -0.161,-0.235 -0.21,-0.386 -0.049,-0.152 -0.074,-0.322 -0.074,-0.512 0,-0.198 0.028,-0.377 0.081,-0.541 0.055,-0.162 0.132,-0.302 0.231,-0.419 0.099,-0.117 0.219,-0.207 0.358,-0.272 0.14,-0.064 0.295,-0.096 0.467,-0.096 0.357,0 0.613,0.14 0.767,0.421l0.01 0 0 -1.533 0.313 0 0 3.608 -0.313 0zm0 -1.472c0,-0.107 -0.019,-0.207 -0.056,-0.299 -0.037,-0.091 -0.088,-0.172 -0.154,-0.24 -0.067,-0.068 -0.147,-0.123 -0.24,-0.163 -0.093,-0.039 -0.195,-0.059 -0.307,-0.059 -0.123,0 -0.236,0.024 -0.34,0.072 -0.103,0.048 -0.192,0.116 -0.266,0.206 -0.073,0.089 -0.13,0.199 -0.171,0.327 -0.042,0.129 -0.062,0.275 -0.062,0.439 0,0.154 0.018,0.292 0.056,0.415 0.037,0.122 0.09,0.226 0.158,0.309 0.069,0.085 0.151,0.149 0.247,0.194 0.095,0.044 0.201,0.066 0.317,0.066 0.126,0 0.241,-0.022 0.341,-0.066 0.101,-0.045 0.187,-0.106 0.257,-0.184 0.071,-0.078 0.125,-0.169 0.163,-0.274 0.038,-0.105 0.057,-0.217 0.057,-0.336l0 -0.407z"/>
  <path id="_23_22" class="fil1" d="M176.258 78.797c-0.107,0.053 -0.222,0.079 -0.348,0.079 -0.399,0 -0.599,-0.227 -0.599,-0.68l0 -1.539 -0.437 0 0 -0.268 0.437 0 0 -0.612 0.312 -0.1 0 0.712 0.635 0 0 0.268 -0.635 0 0 1.49c0,0.165 0.028,0.284 0.082,0.357 0.055,0.072 0.146,0.109 0.277,0.109 0.096,0 0.188,-0.029 0.276,-0.086l0 0.27z"/>
  <path id="_24_23" class="fil1" d="M177.743 78.886c-0.183,0 -0.349,-0.03 -0.494,-0.09 -0.146,-0.061 -0.271,-0.147 -0.374,-0.257 -0.104,-0.111 -0.182,-0.242 -0.237,-0.397 -0.055,-0.154 -0.082,-0.325 -0.082,-0.513 0,-0.203 0.028,-0.385 0.086,-0.545 0.059,-0.161 0.142,-0.297 0.248,-0.409 0.108,-0.112 0.237,-0.197 0.389,-0.256 0.152,-0.059 0.321,-0.088 0.508,-0.088 0.179,0 0.341,0.029 0.483,0.087 0.144,0.057 0.266,0.142 0.366,0.251 0.1,0.109 0.177,0.244 0.23,0.4 0.053,0.158 0.08,0.337 0.08,0.537 0,0.191 -0.028,0.364 -0.084,0.521 -0.055,0.157 -0.134,0.291 -0.238,0.404 -0.103,0.113 -0.229,0.2 -0.378,0.262 -0.147,0.062 -0.315,0.093 -0.503,0.093zm0.025 -2.292c-0.136,0 -0.259,0.023 -0.369,0.069 -0.109,0.046 -0.204,0.113 -0.282,0.202 -0.079,0.087 -0.139,0.195 -0.181,0.324 -0.042,0.127 -0.063,0.273 -0.063,0.435 0,0.152 0.021,0.29 0.063,0.412 0.042,0.122 0.101,0.227 0.178,0.315 0.077,0.087 0.17,0.154 0.28,0.201 0.11,0.047 0.233,0.07 0.369,0.07 0.139,0 0.262,-0.022 0.369,-0.068 0.106,-0.045 0.196,-0.11 0.271,-0.197 0.074,-0.087 0.13,-0.193 0.168,-0.319 0.038,-0.125 0.057,-0.268 0.057,-0.429 0,-0.328 -0.074,-0.58 -0.223,-0.754 -0.149,-0.174 -0.361,-0.261 -0.637,-0.261z"/>
  <path id="_25_24" class="fil1" d="M180.585 78.886c-0.183,0 -0.348,-0.03 -0.494,-0.09 -0.146,-0.061 -0.271,-0.147 -0.374,-0.257 -0.103,-0.111 -0.182,-0.242 -0.237,-0.397 -0.055,-0.154 -0.082,-0.325 -0.082,-0.513 0,-0.203 0.029,-0.385 0.087,-0.545 0.058,-0.161 0.141,-0.297 0.248,-0.409 0.107,-0.112 0.237,-0.197 0.388,-0.256 0.152,-0.059 0.321,-0.088 0.508,-0.088 0.18,0 0.341,0.029 0.484,0.087 0.143,0.057 0.265,0.142 0.365,0.251 0.1,0.109 0.177,0.244 0.23,0.4 0.053,0.158 0.08,0.337 0.08,0.537 0,0.191 -0.028,0.364 -0.084,0.521 -0.055,0.157 -0.134,0.291 -0.238,0.404 -0.103,0.113 -0.229,0.2 -0.377,0.262 -0.148,0.062 -0.316,0.093 -0.504,0.093zm0.025 -2.292c-0.136,0 -0.258,0.023 -0.368,0.069 -0.11,0.046 -0.205,0.113 -0.283,0.202 -0.079,0.087 -0.139,0.195 -0.181,0.324 -0.042,0.127 -0.063,0.273 -0.063,0.435 0,0.152 0.021,0.29 0.063,0.412 0.042,0.122 0.102,0.227 0.178,0.315 0.077,0.087 0.171,0.154 0.281,0.201 0.11,0.047 0.232,0.07 0.368,0.07 0.139,0 0.262,-0.022 0.369,-0.068 0.106,-0.045 0.197,-0.11 0.271,-0.197 0.074,-0.087 0.131,-0.193 0.169,-0.319 0.038,-0.125 0.057,-0.268 0.057,-0.429 0,-0.328 -0.075,-0.58 -0.224,-0.754 -0.148,-0.174 -0.361,-0.261 -0.637,-0.261z"/>
  <polygon id="_26_25" class="fil1" points="182.419,78.827 182.419,75.219 182.731,75.219 182.731,78.827 "/>
  <path id="_27_26" class="fil1" d="M183.389 78.389c0.047,0.037 0.097,0.069 0.152,0.098 0.054,0.028 0.112,0.052 0.169,0.074 0.058,0.02 0.116,0.035 0.176,0.046 0.058,0.011 0.114,0.015 0.167,0.015 0.367,0 0.551,-0.135 0.551,-0.406 0,-0.062 -0.014,-0.115 -0.039,-0.161 -0.026,-0.045 -0.063,-0.087 -0.111,-0.124 -0.049,-0.038 -0.106,-0.072 -0.174,-0.103 -0.068,-0.032 -0.145,-0.065 -0.23,-0.1 -0.115,-0.047 -0.213,-0.094 -0.296,-0.141 -0.082,-0.048 -0.149,-0.1 -0.203,-0.156 -0.053,-0.057 -0.093,-0.119 -0.118,-0.186 -0.026,-0.067 -0.039,-0.145 -0.039,-0.23 0,-0.108 0.024,-0.205 0.071,-0.288 0.048,-0.085 0.111,-0.157 0.192,-0.215 0.081,-0.059 0.173,-0.104 0.278,-0.135 0.106,-0.031 0.217,-0.046 0.332,-0.046 0.215,0 0.4,0.04 0.56,0.118l0 0.321c-0.185,-0.117 -0.385,-0.176 -0.599,-0.176 -0.077,0 -0.147,0.01 -0.211,0.028 -0.064,0.02 -0.118,0.047 -0.164,0.082 -0.044,0.035 -0.08,0.077 -0.105,0.126 -0.024,0.048 -0.037,0.102 -0.037,0.161 0,0.061 0.01,0.113 0.029,0.158 0.02,0.046 0.05,0.087 0.091,0.124 0.041,0.035 0.094,0.07 0.159,0.104 0.066,0.034 0.145,0.069 0.239,0.108 0.119,0.047 0.223,0.094 0.309,0.141 0.088,0.047 0.16,0.098 0.216,0.153 0.056,0.054 0.099,0.115 0.126,0.183 0.027,0.068 0.041,0.146 0.041,0.235 0,0.109 -0.023,0.208 -0.068,0.293 -0.047,0.086 -0.11,0.158 -0.191,0.217 -0.081,0.058 -0.177,0.103 -0.286,0.133 -0.109,0.03 -0.228,0.046 -0.357,0.046 -0.25,0 -0.46,-0.052 -0.63,-0.155l0 -0.342z"/>
  <g id="_2303618976496">
   <path class="fil1" d="M61.33 15.115c-0.961,0.543 -2.031,0.815 -3.209,0.815 -1.367,0 -2.474,-0.441 -3.318,-1.324 -0.847,-0.881 -1.269,-2.049 -1.269,-3.503 0,-1.483 0.47,-2.702 1.408,-3.654 0.938,-0.952 2.127,-1.429 3.567,-1.429 1.043,0 1.919,0.172 2.627,0.509l0 1.244c-0.774,-0.491 -1.694,-0.735 -2.755,-0.735 -1.072,0 -1.953,0.37 -2.64,1.109 -0.687,0.74 -1.03,1.698 -1.03,2.876 0,1.212 0.32,2.166 0.957,2.857 0.637,0.694 1.501,1.041 2.595,1.041 0.748,0 1.396,-0.151 1.944,-0.447l0 -2.689 -2.1 0 0 -1.015 3.223 0 0 4.345z"/>
   <path id="_1_27" class="fil1" d="M68.946 15.77l-1.096 0 0 -1.084 -0.027 0c-0.454,0.831 -1.16,1.244 -2.114,1.244 -1.631,0 -2.446,-0.97 -2.446,-2.915l0 -4.092 1.089 0 0 3.919c0,1.445 0.554,2.166 1.659,2.166 0.534,0 0.974,-0.197 1.321,-0.591 0.345,-0.395 0.518,-0.911 0.518,-1.55l0 -3.944 1.096 0 0 6.847z"/>
   <path id="_2_28" class="fil1" d="M72.257 15.77l-1.098 0 0 -6.847 1.098 0 0 6.847zm0.981 -10.336l-1.75 2.193 -0.849 0 1.49 -2.193 1.109 0z"/>
   <path id="_3_29" class="fil1" d="M79.377 15.77l-1.097 0 0 -1.07 -0.025 0c-0.477,0.821 -1.18,1.23 -2.107,1.23 -0.682,0 -1.216,-0.181 -1.602,-0.541 -0.386,-0.361 -0.577,-0.84 -0.577,-1.438 0,-1.278 0.753,-2.024 2.259,-2.232l2.052 -0.287c0,-1.164 -0.471,-1.746 -1.411,-1.746 -0.824,0 -1.568,0.28 -2.232,0.842l0 -1.123c0.674,-0.429 1.447,-0.641 2.326,-0.641 1.609,0 2.414,0.851 2.414,2.553l0 4.453zm-1.097 -3.464l-1.65 0.228c-0.509,0.071 -0.893,0.196 -1.151,0.379 -0.257,0.18 -0.388,0.5 -0.388,0.958 0,0.333 0.119,0.607 0.359,0.82 0.237,0.212 0.554,0.317 0.951,0.317 0.543,0 0.993,-0.192 1.347,-0.571 0.356,-0.381 0.532,-0.865 0.532,-1.449l0 -0.682z"/>
   <path id="_4_30" class="fil1" d="M86.32 14.78l-0.028 0 0 4.139 -1.097 0 0 -9.996 1.097 0 0 1.203 0.028 0c0.538,-0.908 1.328,-1.362 2.366,-1.362 0.881,0 1.571,0.305 2.066,0.919 0.495,0.612 0.741,1.434 0.741,2.463 0,1.145 -0.278,2.063 -0.835,2.752 -0.557,0.687 -1.319,1.032 -2.287,1.032 -0.887,0 -1.57,-0.384 -2.051,-1.15zm-0.028 -2.762l0 0.956c0,0.566 0.183,1.048 0.553,1.443 0.367,0.394 0.833,0.591 1.399,0.591 0.664,0 1.184,-0.254 1.561,-0.763 0.376,-0.508 0.566,-1.214 0.566,-2.12 0,-0.762 -0.176,-1.358 -0.53,-1.791 -0.351,-0.432 -0.828,-0.648 -1.428,-0.648 -0.639,0 -1.151,0.221 -1.539,0.664 -0.388,0.445 -0.582,0.999 -0.582,1.668z"/>
   <path id="_5_31" class="fil1" d="M98.146 15.77l-1.098 0 0 -1.07 -0.025 0c-0.477,0.821 -1.18,1.23 -2.106,1.23 -0.683,0 -1.217,-0.181 -1.602,-0.541 -0.386,-0.361 -0.578,-0.84 -0.578,-1.438 0,-1.278 0.753,-2.024 2.26,-2.232l2.051 -0.287c0,-1.164 -0.47,-1.746 -1.41,-1.746 -0.824,0 -1.568,0.28 -2.232,0.842l0 -1.123c0.673,-0.429 1.447,-0.641 2.326,-0.641 1.608,0 2.414,0.851 2.414,2.553l0 4.453zm-1.098 -3.464l-1.65 0.228c-0.509,0.071 -0.892,0.196 -1.15,0.379 -0.258,0.18 -0.388,0.5 -0.388,0.958 0,0.333 0.119,0.607 0.358,0.82 0.238,0.212 0.555,0.317 0.952,0.317 0.543,0 0.993,-0.192 1.347,-0.571 0.356,-0.381 0.531,-0.865 0.531,-1.449l0 -0.682z"/>
   <path id="_6_32" class="fil1" d="M103.783 10.033c-0.192,-0.147 -0.468,-0.219 -0.828,-0.219 -0.471,0 -0.861,0.219 -1.176,0.661 -0.312,0.441 -0.47,1.043 -0.47,1.806l0 3.489 -1.098 0 0 -6.847 1.098 0 0 1.411 0.028 0c0.155,-0.482 0.392,-0.856 0.714,-1.128 0.322,-0.269 0.68,-0.404 1.077,-0.404 0.285,0 0.502,0.032 0.655,0.094l0 1.137z"/>
   <path id="_7_33" class="fil1" d="M109.874 15.77l-1.097 0 0 -1.07 -0.026 0c-0.476,0.821 -1.179,1.23 -2.106,1.23 -0.682,0 -1.216,-0.181 -1.602,-0.541 -0.386,-0.361 -0.578,-0.84 -0.578,-1.438 0,-1.278 0.754,-2.024 2.26,-2.232l2.052 -0.287c0,-1.164 -0.471,-1.746 -1.411,-1.746 -0.824,0 -1.568,0.28 -2.232,0.842l0 -1.123c0.673,-0.429 1.447,-0.641 2.326,-0.641 1.609,0 2.414,0.851 2.414,2.553l0 4.453zm-1.097 -3.464l-1.65 0.228c-0.509,0.071 -0.893,0.196 -1.151,0.379 -0.258,0.18 -0.388,0.5 -0.388,0.958 0,0.333 0.119,0.607 0.359,0.82 0.237,0.212 0.554,0.317 0.951,0.317 0.543,0 0.993,-0.192 1.347,-0.571 0.356,-0.381 0.532,-0.865 0.532,-1.449l0 -0.682z"/>
   <path id="_8_34" class="fil1" d="M121.648 12.949l-4.466 0c0.071,0.993 0.698,1.49 1.878,1.49 0.753,0 1.415,-0.178 1.986,-0.534l0 1.525c-0.633,0.338 -1.454,0.507 -2.467,0.507 -1.105,0 -1.963,-0.306 -2.575,-0.92 -0.609,-0.612 -0.915,-1.468 -0.915,-2.563 0,-1.137 0.329,-2.038 0.991,-2.702 0.659,-0.664 1.469,-0.995 2.432,-0.995 0.998,0 1.771,0.297 2.317,0.888 0.545,0.593 0.819,1.399 0.819,2.414l0 0.89zm-1.958 -1.298c0,-0.979 -0.397,-1.47 -1.191,-1.47 -0.338,0 -0.632,0.139 -0.879,0.42 -0.249,0.28 -0.397,0.632 -0.452,1.05l2.522 0z"/>
   <path id="_9_35" class="fil1" d="M129.517 15.77l-2.106 0 0 -3.804c0,-1.062 -0.379,-1.591 -1.137,-1.591 -0.365,0 -0.666,0.139 -0.901,0.42 -0.238,0.28 -0.356,0.639 -0.356,1.07l0 3.905 -2.111 0 0 -6.847 2.111 0 0 1.084 0.027 0c0.504,-0.835 1.237,-1.25 2.2,-1.25 1.515,0 2.273,0.94 2.273,2.821l0 4.192z"/>
   <path id="_10_36" class="fil1" d="M130.74 15.59l0 -1.712c0.35,0.21 0.697,0.365 1.041,0.468 0.345,0.103 0.671,0.153 0.979,0.153 0.374,0 0.671,-0.05 0.886,-0.153 0.216,-0.103 0.324,-0.258 0.324,-0.468 0,-0.135 -0.048,-0.246 -0.146,-0.335 -0.099,-0.089 -0.224,-0.167 -0.379,-0.233 -0.153,-0.066 -0.322,-0.128 -0.505,-0.18 -0.182,-0.055 -0.358,-0.115 -0.527,-0.181 -0.271,-0.102 -0.511,-0.214 -0.719,-0.331 -0.207,-0.118 -0.381,-0.255 -0.522,-0.413 -0.14,-0.155 -0.247,-0.335 -0.32,-0.541 -0.073,-0.205 -0.112,-0.447 -0.112,-0.728 0,-0.383 0.085,-0.714 0.251,-0.99 0.167,-0.276 0.391,-0.502 0.669,-0.678 0.279,-0.176 0.598,-0.306 0.956,-0.388 0.359,-0.082 0.733,-0.123 1.121,-0.123 0.303,0 0.609,0.023 0.922,0.071 0.312,0.045 0.621,0.114 0.924,0.203l0 1.631c-0.269,-0.157 -0.555,-0.273 -0.86,-0.351 -0.306,-0.078 -0.605,-0.116 -0.899,-0.116 -0.14,0 -0.27,0.011 -0.391,0.036 -0.123,0.023 -0.232,0.059 -0.326,0.107 -0.094,0.046 -0.167,0.105 -0.219,0.181 -0.055,0.073 -0.08,0.157 -0.08,0.251 0,0.123 0.039,0.23 0.119,0.319 0.082,0.089 0.185,0.167 0.315,0.231 0.13,0.066 0.274,0.123 0.431,0.173 0.157,0.053 0.315,0.105 0.472,0.158 0.281,0.098 0.534,0.205 0.763,0.321 0.226,0.117 0.422,0.251 0.584,0.409 0.162,0.155 0.287,0.338 0.374,0.548 0.087,0.21 0.13,0.458 0.13,0.748 0,0.406 -0.087,0.753 -0.265,1.041 -0.175,0.287 -0.408,0.52 -0.7,0.7 -0.292,0.181 -0.63,0.313 -1.011,0.395 -0.381,0.082 -0.776,0.124 -1.187,0.124 -0.753,0 -1.449,-0.117 -2.093,-0.347z"/>
   <path id="_11_37" class="fil1" d="M143.365 12.949l-4.466 0c0.071,0.993 0.698,1.49 1.878,1.49 0.753,0 1.415,-0.178 1.986,-0.534l0 1.525c-0.632,0.338 -1.454,0.507 -2.467,0.507 -1.105,0 -1.963,-0.306 -2.575,-0.92 -0.609,-0.612 -0.915,-1.468 -0.915,-2.563 0,-1.137 0.329,-2.038 0.991,-2.702 0.659,-0.664 1.47,-0.995 2.433,-0.995 0.997,0 1.771,0.297 2.316,0.888 0.545,0.593 0.819,1.399 0.819,2.414l0 0.89zm-1.958 -1.298c0,-0.979 -0.397,-1.47 -1.191,-1.47 -0.338,0 -0.632,0.139 -0.879,0.42 -0.248,0.28 -0.397,0.632 -0.452,1.05l2.522 0z"/>
   <path id="_12_38" class="fil1" d="M151.234 15.77l-2.106 0 0 -3.804c0,-1.062 -0.379,-1.591 -1.137,-1.591 -0.365,0 -0.666,0.139 -0.901,0.42 -0.237,0.28 -0.356,0.639 -0.356,1.07l0 3.905 -2.111 0 0 -6.847 2.111 0 0 1.084 0.027 0c0.505,-0.835 1.237,-1.25 2.2,-1.25 1.516,0 2.273,0.94 2.273,2.821l0 4.192zm-0.94 -10.01c0,0.626 -0.123,1.107 -0.372,1.45 -0.246,0.34 -0.584,0.511 -1.011,0.511 -0.383,0 -0.758,-0.096 -1.125,-0.288 -0.395,-0.21 -0.671,-0.315 -0.822,-0.315 -0.356,0 -0.534,0.24 -0.534,0.721l-0.942 0c0,-0.618 0.121,-1.1 0.367,-1.442 0.244,-0.345 0.587,-0.516 1.029,-0.516 0.361,0 0.735,0.11 1.123,0.327 0.352,0.196 0.621,0.294 0.804,0.294 0.346,0 0.52,-0.246 0.52,-0.742l0.963 0z"/>
   <path id="_13_39" class="fil1" d="M158.604 15.77l-2 0 0 -0.984 -0.027 0c-0.459,0.767 -1.139,1.151 -2.04,1.151 -0.664,0 -1.187,-0.188 -1.568,-0.564 -0.381,-0.377 -0.571,-0.881 -0.571,-1.509 0,-1.328 0.788,-2.095 2.36,-2.3l1.86 -0.247c0,-0.748 -0.406,-1.122 -1.219,-1.122 -0.814,0 -1.59,0.242 -2.325,0.728l0 -1.591c0.294,-0.153 0.696,-0.285 1.207,-0.402 0.509,-0.116 0.975,-0.173 1.394,-0.173 1.952,0 2.929,0.974 2.929,2.921l0 4.092zm-1.986 -2.782l0 -0.461 -1.244 0.16c-0.687,0.089 -1.029,0.399 -1.029,0.931 0,0.239 0.082,0.438 0.249,0.591 0.169,0.153 0.395,0.23 0.68,0.23 0.397,0 0.719,-0.136 0.97,-0.41 0.248,-0.274 0.374,-0.621 0.374,-1.041z"/>
   <path id="_14_40" class="fil1" d="M166.888 15.77l-2.107 0 0 -3.804c0,-1.062 -0.378,-1.591 -1.136,-1.591 -0.365,0 -0.666,0.139 -0.902,0.42 -0.237,0.28 -0.356,0.639 -0.356,1.07l0 3.905 -2.111 0 0 -6.847 2.111 0 0 1.084 0.028 0c0.504,-0.835 1.237,-1.25 2.2,-1.25 1.515,0 2.273,0.94 2.273,2.821l0 4.192z"/>
   <polygon id="_15_41" class="fil1" points="173.983,15.77 167.837,15.77 167.837,14.894 171.274,10.482 168.18,10.482 168.18,8.923 173.956,8.923 173.956,9.966 170.699,14.211 173.983,14.211 "/>
   <path id="_16_42" class="fil1" d="M180.816 15.77l-1.999 0 0 -0.984 -0.027 0c-0.459,0.767 -1.139,1.151 -2.041,1.151 -0.664,0 -1.186,-0.188 -1.568,-0.564 -0.381,-0.377 -0.57,-0.881 -0.57,-1.509 0,-1.328 0.787,-2.095 2.36,-2.3l1.86 -0.247c0,-0.748 -0.406,-1.122 -1.219,-1.122 -0.815,0 -1.591,0.242 -2.325,0.728l0 -1.591c0.294,-0.153 0.696,-0.285 1.207,-0.402 0.509,-0.116 0.974,-0.173 1.394,-0.173 1.952,0 2.928,0.974 2.928,2.921l0 4.092zm-1.985 -2.782l0 -0.461 -1.244 0.16c-0.687,0.089 -1.029,0.399 -1.029,0.931 0,0.239 0.082,0.438 0.248,0.591 0.169,0.153 0.395,0.23 0.681,0.23 0.397,0 0.718,-0.136 0.969,-0.41 0.249,-0.274 0.375,-0.621 0.375,-1.041z"/>
   <path id="_17_43" class="fil1" d="M192.417 12.949l-4.467 0c0.071,0.993 0.699,1.49 1.879,1.49 0.753,0 1.415,-0.178 1.985,-0.534l0 1.525c-0.632,0.338 -1.454,0.507 -2.467,0.507 -1.104,0 -1.963,-0.306 -2.574,-0.92 -0.61,-0.612 -0.915,-1.468 -0.915,-2.563 0,-1.137 0.328,-2.038 0.99,-2.702 0.66,-0.664 1.47,-0.995 2.433,-0.995 0.997,0 1.771,0.297 2.316,0.888 0.546,0.593 0.82,1.399 0.82,2.414l0 0.89zm-1.958 -1.298c0,-0.979 -0.397,-1.47 -1.192,-1.47 -0.337,0 -0.632,0.139 -0.878,0.42 -0.249,0.28 -0.397,0.632 -0.452,1.05l2.522 0z"/>
   <path class="fil1" d="M54.966 21.147c-0.294,0 -0.536,-0.087 -0.723,-0.263 -0.189,-0.175 -0.283,-0.389 -0.283,-0.644 0,-0.262 0.094,-0.475 0.283,-0.642 0.187,-0.166 0.429,-0.249 0.723,-0.249 0.301,0 0.542,0.083 0.729,0.249 0.185,0.167 0.28,0.38 0.28,0.642 0,0.265 -0.095,0.484 -0.28,0.654 -0.187,0.168 -0.428,0.253 -0.729,0.253zm0.863 6.561l-1.746 0 0 -5.665 1.746 0 0 5.665z"/>
   <path id="_1_44" class="fil1" d="M62.772 27.708l-1.743 0 0 -3.148c0,-0.878 -0.313,-1.316 -0.94,-1.316 -0.302,0 -0.552,0.115 -0.746,0.348 -0.196,0.232 -0.295,0.528 -0.295,0.885l0 3.231 -1.746 0 0 -5.665 1.746 0 0 0.897 0.023 0c0.417,-0.691 1.023,-1.034 1.82,-1.034 1.254,0 1.881,0.777 1.881,2.333l0 3.469z"/>
   <path id="_2_45" class="fil1" d="M69.548 22.043l-2.107 5.665 -1.992 0 -2.007 -5.665 1.869 0 0.984 3.491c0.111,0.395 0.175,0.729 0.194,1.007l0.023 0c0.024,-0.263 0.094,-0.587 0.204,-0.975l1.006 -3.523 1.826 0z"/>
   <path id="_3_46" class="fil1" d="M75.272 25.374l-3.695 0c0.059,0.821 0.578,1.233 1.554,1.233 0.623,0 1.171,-0.147 1.643,-0.442l0 1.261c-0.523,0.28 -1.203,0.419 -2.041,0.419 -0.914,0 -1.624,-0.253 -2.13,-0.76 -0.504,-0.506 -0.757,-1.215 -0.757,-2.121 0,-0.94 0.272,-1.686 0.82,-2.235 0.545,-0.55 1.216,-0.823 2.012,-0.823 0.825,0 1.465,0.245 1.917,0.734 0.451,0.491 0.677,1.157 0.677,1.998l0 0.736zm-1.62 -1.074c0,-0.81 -0.328,-1.216 -0.985,-1.216 -0.28,0 -0.523,0.115 -0.727,0.347 -0.206,0.232 -0.329,0.523 -0.374,0.869l2.086 0z"/>
   <path id="_4_47" class="fil1" d="M75.941 27.558l0 -1.416c0.289,0.174 0.576,0.302 0.861,0.387 0.285,0.085 0.555,0.127 0.81,0.127 0.309,0 0.555,-0.042 0.732,-0.127 0.18,-0.085 0.268,-0.213 0.268,-0.387 0,-0.111 -0.039,-0.204 -0.12,-0.277 -0.082,-0.074 -0.186,-0.138 -0.314,-0.193 -0.126,-0.055 -0.266,-0.106 -0.417,-0.149 -0.151,-0.045 -0.297,-0.094 -0.436,-0.149 -0.225,-0.085 -0.423,-0.178 -0.595,-0.274 -0.172,-0.098 -0.315,-0.211 -0.432,-0.342 -0.116,-0.128 -0.204,-0.277 -0.265,-0.447 -0.06,-0.17 -0.092,-0.37 -0.092,-0.602 0,-0.318 0.07,-0.591 0.207,-0.82 0.138,-0.228 0.323,-0.415 0.554,-0.561 0.23,-0.145 0.494,-0.253 0.791,-0.321 0.296,-0.067 0.606,-0.101 0.927,-0.101 0.251,0 0.504,0.018 0.763,0.058 0.258,0.038 0.513,0.095 0.764,0.168l0 1.35c-0.223,-0.13 -0.459,-0.226 -0.712,-0.291 -0.253,-0.064 -0.5,-0.096 -0.743,-0.096 -0.116,0 -0.223,0.009 -0.323,0.03 -0.102,0.019 -0.193,0.049 -0.27,0.089 -0.078,0.038 -0.138,0.087 -0.182,0.149 -0.045,0.061 -0.066,0.13 -0.066,0.208 0,0.102 0.032,0.19 0.098,0.264 0.068,0.074 0.153,0.138 0.261,0.191 0.108,0.055 0.227,0.102 0.357,0.143 0.13,0.044 0.26,0.087 0.391,0.131 0.232,0.081 0.441,0.17 0.63,0.266 0.187,0.096 0.35,0.208 0.484,0.338 0.134,0.128 0.238,0.279 0.309,0.453 0.072,0.174 0.108,0.379 0.108,0.619 0,0.336 -0.072,0.623 -0.219,0.861 -0.146,0.238 -0.338,0.431 -0.58,0.58 -0.241,0.149 -0.521,0.258 -0.836,0.326 -0.315,0.068 -0.642,0.102 -0.982,0.102 -0.623,0 -1.199,-0.096 -1.731,-0.287z"/>
   <path id="_5_48" class="fil1" d="M84.72 27.642c-0.259,0.135 -0.647,0.203 -1.167,0.203 -1.231,0 -1.848,-0.64 -1.848,-1.918l0 -2.594 -0.918 0 0 -1.29 0.918 0 0 -1.221 1.743 -0.499 0 1.72 1.272 0 0 1.29 -1.272 0 0 2.29c0,0.589 0.234,0.884 0.702,0.884 0.185,0 0.376,-0.053 0.57,-0.161l0 1.296z"/>
   <path id="_6_49" class="fil1" d="M86.589 21.147c-0.294,0 -0.536,-0.087 -0.723,-0.263 -0.189,-0.175 -0.283,-0.389 -0.283,-0.644 0,-0.262 0.094,-0.475 0.283,-0.642 0.187,-0.166 0.429,-0.249 0.723,-0.249 0.301,0 0.542,0.083 0.729,0.249 0.185,0.167 0.279,0.38 0.279,0.642 0,0.265 -0.094,0.484 -0.279,0.654 -0.187,0.168 -0.428,0.253 -0.729,0.253zm0.863 6.561l-1.746 0 0 -5.665 1.746 0 0 5.665z"/>
   <path id="_7_50" class="fil1" d="M94.477 27.06c0,1.052 -0.303,1.865 -0.911,2.443 -0.61,0.576 -1.49,0.865 -2.646,0.865 -0.762,0 -1.367,-0.108 -1.814,-0.327l0 -1.471c0.583,0.34 1.171,0.51 1.765,0.51 0.589,0 1.048,-0.157 1.371,-0.468 0.325,-0.312 0.487,-0.735 0.487,-1.269l0 -0.449 -0.021 0c-0.398,0.634 -0.987,0.951 -1.765,0.951 -0.723,0 -1.295,-0.255 -1.72,-0.762 -0.425,-0.51 -0.636,-1.192 -0.636,-2.047 0,-0.959 0.236,-1.72 0.708,-2.285 0.472,-0.564 1.093,-0.845 1.863,-0.845 0.69,0 1.207,0.264 1.55,0.796l0.021 0 0 -0.659 1.748 0 0 5.017zm-1.725 -2.073l0 -0.449c0,-0.357 -0.106,-0.663 -0.317,-0.916 -0.214,-0.251 -0.489,-0.378 -0.827,-0.378 -0.389,0 -0.693,0.151 -0.914,0.453 -0.221,0.302 -0.332,0.729 -0.332,1.279 0,0.471 0.105,0.844 0.315,1.119 0.211,0.276 0.498,0.412 0.863,0.412 0.362,0 0.655,-0.138 0.878,-0.417 0.222,-0.278 0.334,-0.646 0.334,-1.103z"/>
   <path id="_8_51" class="fil1" d="M100.651 27.708l-1.654 0 0 -0.814 -0.022 0c-0.38,0.634 -0.942,0.951 -1.688,0.951 -0.55,0 -0.982,-0.154 -1.297,-0.466 -0.315,-0.312 -0.472,-0.729 -0.472,-1.248 0,-1.099 0.651,-1.733 1.952,-1.903l1.539 -0.204c0,-0.619 -0.336,-0.929 -1.008,-0.929 -0.674,0 -1.316,0.2 -1.924,0.602l0 -1.316c0.243,-0.126 0.575,-0.236 0.998,-0.332 0.421,-0.096 0.807,-0.143 1.154,-0.143 1.614,0 2.422,0.806 2.422,2.416l0 3.386zm-1.642 -2.302l0 -0.381 -1.029 0.132c-0.569,0.073 -0.852,0.33 -0.852,0.77 0,0.198 0.068,0.363 0.206,0.489 0.14,0.127 0.327,0.191 0.563,0.191 0.328,0 0.594,-0.113 0.802,-0.34 0.206,-0.227 0.31,-0.514 0.31,-0.861z"/>
   <path id="_9_52" class="fil1" d="M106.327 27.504c-0.395,0.228 -0.965,0.341 -1.709,0.341 -0.87,0 -1.574,-0.262 -2.113,-0.791 -0.538,-0.526 -0.808,-1.206 -0.808,-2.041 0,-0.963 0.289,-1.72 0.865,-2.275 0.578,-0.555 1.35,-0.832 2.317,-0.832 0.666,0 1.15,0.088 1.448,0.264l0 1.484c-0.364,-0.274 -0.772,-0.41 -1.222,-0.41 -0.502,0 -0.898,0.146 -1.193,0.44 -0.293,0.293 -0.44,0.697 -0.44,1.214 0,0.5 0.142,0.895 0.421,1.18 0.28,0.287 0.667,0.429 1.156,0.429 0.436,0 0.861,-0.136 1.278,-0.41l0 1.407z"/>
   <path id="_10_53" class="fil1" d="M108.357 21.147c-0.295,0 -0.537,-0.087 -0.724,-0.263 -0.188,-0.175 -0.283,-0.389 -0.283,-0.644 0,-0.262 0.095,-0.475 0.283,-0.642 0.187,-0.166 0.429,-0.249 0.724,-0.249 0.3,0 0.541,0.083 0.728,0.249 0.185,0.167 0.28,0.38 0.28,0.642 0,0.265 -0.095,0.484 -0.28,0.654 -0.187,0.168 -0.428,0.253 -0.728,0.253zm0.862 6.561l-1.746 0 0 -5.665 1.746 0 0 5.665z"/>
   <path id="_11_54" class="fil1" d="M113.39 27.845c-0.944,0 -1.686,-0.264 -2.226,-0.793 -0.54,-0.528 -0.81,-1.248 -0.81,-2.154 0,-0.936 0.279,-1.671 0.84,-2.199 0.561,-0.529 1.32,-0.793 2.273,-0.793 0.941,0 1.679,0.264 2.213,0.793 0.535,0.528 0.803,1.229 0.803,2.099 0,0.94 -0.276,1.684 -0.827,2.23 -0.552,0.546 -1.307,0.817 -2.266,0.817zm0.045 -4.601c-0.413,0 -0.734,0.142 -0.963,0.425 -0.228,0.285 -0.343,0.687 -0.343,1.206 0,1.088 0.44,1.632 1.318,1.632 0.836,0 1.255,-0.559 1.255,-1.675 0,-1.059 -0.423,-1.588 -1.267,-1.588zm1.879 -3.884l-1.731 1.787 -1.262 0 1.439 -1.787 1.554 0z"/>
   <path id="_12_55" class="fil1" d="M123.081 27.708l-1.742 0 0 -3.148c0,-0.878 -0.314,-1.316 -0.94,-1.316 -0.303,0 -0.552,0.115 -0.746,0.348 -0.197,0.232 -0.295,0.528 -0.295,0.885l0 3.231 -1.746 0 0 -5.665 1.746 0 0 0.897 0.023 0c0.417,-0.691 1.023,-1.034 1.82,-1.034 1.254,0 1.88,0.777 1.88,2.333l0 3.469z"/>
   <path id="_13_56" class="fil1" d="M131.882 27.504c-0.395,0.228 -0.965,0.341 -1.709,0.341 -0.87,0 -1.575,-0.262 -2.113,-0.791 -0.538,-0.526 -0.808,-1.206 -0.808,-2.041 0,-0.963 0.289,-1.72 0.865,-2.275 0.578,-0.555 1.35,-0.832 2.316,-0.832 0.667,0 1.15,0.088 1.449,0.264l0 1.484c-0.365,-0.274 -0.773,-0.41 -1.222,-0.41 -0.502,0 -0.899,0.146 -1.193,0.44 -0.293,0.293 -0.44,0.697 -0.44,1.214 0,0.5 0.141,0.895 0.421,1.18 0.279,0.287 0.666,0.429 1.155,0.429 0.437,0 0.861,-0.136 1.279,-0.41l0 1.407z"/>
   <path id="_14_57" class="fil1" d="M135.726 27.845c-0.944,0 -1.686,-0.264 -2.226,-0.793 -0.54,-0.528 -0.81,-1.248 -0.81,-2.154 0,-0.936 0.279,-1.671 0.84,-2.199 0.561,-0.529 1.32,-0.793 2.273,-0.793 0.94,0 1.679,0.264 2.213,0.793 0.534,0.528 0.802,1.229 0.802,2.099 0,0.94 -0.275,1.684 -0.827,2.23 -0.551,0.546 -1.306,0.817 -2.265,0.817zm0.045 -4.601c-0.413,0 -0.734,0.142 -0.963,0.425 -0.228,0.285 -0.343,0.687 -0.343,1.206 0,1.088 0.439,1.632 1.317,1.632 0.837,0 1.256,-0.559 1.256,-1.675 0,-1.059 -0.423,-1.588 -1.267,-1.588z"/>
   <polygon id="_15_58" class="fil1" points="141.7,27.708 139.953,27.708 139.953,19.323 141.7,19.323 "/>
   <path id="_16_59" class="fil1" d="M147.885 27.708l-1.654 0 0 -0.814 -0.023 0c-0.379,0.634 -0.942,0.951 -1.688,0.951 -0.549,0 -0.982,-0.154 -1.297,-0.466 -0.315,-0.312 -0.472,-0.729 -0.472,-1.248 0,-1.099 0.652,-1.733 1.953,-1.903l1.538 -0.204c0,-0.619 -0.336,-0.929 -1.008,-0.929 -0.674,0 -1.316,0.2 -1.924,0.602l0 -1.316c0.244,-0.126 0.576,-0.236 0.999,-0.332 0.421,-0.096 0.806,-0.143 1.153,-0.143 1.615,0 2.423,0.806 2.423,2.416l0 3.386zm-1.643 -2.302l0 -0.381 -1.029 0.132c-0.568,0.073 -0.851,0.33 -0.851,0.77 0,0.198 0.068,0.363 0.206,0.489 0.139,0.127 0.326,0.191 0.562,0.191 0.329,0 0.595,-0.113 0.803,-0.34 0.205,-0.227 0.309,-0.514 0.309,-0.861z"/>
   <path id="_17_60" class="fil1" d="M151.038 27.049l-0.023 0 0 0.659 -1.746 0 0 -8.385 1.746 0 0 3.572 0.023 0c0.432,-0.659 1.046,-0.989 1.843,-0.989 0.728,0 1.291,0.251 1.686,0.751 0.394,0.502 0.593,1.188 0.593,2.058 0,0.944 -0.231,1.701 -0.691,2.273 -0.463,0.572 -1.079,0.857 -1.849,0.857 -0.697,0 -1.223,-0.264 -1.582,-0.796zm-0.049 -2.389l0 0.58c0,0.366 0.104,0.668 0.315,0.908 0.21,0.24 0.48,0.359 0.808,0.359 0.397,0 0.706,-0.153 0.925,-0.461 0.219,-0.308 0.331,-0.744 0.331,-1.308 0,-0.469 -0.102,-0.835 -0.302,-1.099 -0.202,-0.263 -0.487,-0.395 -0.861,-0.395 -0.35,0 -0.64,0.131 -0.871,0.393 -0.23,0.26 -0.345,0.602 -0.345,1.023z"/>
   <path id="_18_61" class="fil1" d="M158.992 27.845c-0.944,0 -1.686,-0.264 -2.226,-0.793 -0.54,-0.528 -0.81,-1.248 -0.81,-2.154 0,-0.936 0.28,-1.671 0.84,-2.199 0.561,-0.529 1.32,-0.793 2.274,-0.793 0.94,0 1.678,0.264 2.212,0.793 0.535,0.528 0.803,1.229 0.803,2.099 0,0.94 -0.276,1.684 -0.827,2.23 -0.551,0.546 -1.307,0.817 -2.266,0.817zm0.046 -4.601c-0.414,0 -0.735,0.142 -0.963,0.425 -0.229,0.285 -0.344,0.687 -0.344,1.206 0,1.088 0.44,1.632 1.318,1.632 0.836,0 1.255,-0.559 1.255,-1.675 0,-1.059 -0.422,-1.588 -1.266,-1.588z"/>
   <path id="_19_62" class="fil1" d="M166.914 23.62c-0.211,-0.115 -0.456,-0.172 -0.736,-0.172 -0.379,0 -0.676,0.14 -0.891,0.417 -0.213,0.28 -0.321,0.657 -0.321,1.137l0 2.706 -1.746 0 0 -5.665 1.746 0 0 1.052 0.023 0c0.277,-0.768 0.774,-1.152 1.493,-1.152 0.185,0 0.329,0.023 0.432,0.066l0 1.611z"/>
   <path id="_20_63" class="fil1" d="M172.441 27.708l-1.654 0 0 -0.814 -0.023 0c-0.379,0.634 -0.942,0.951 -1.688,0.951 -0.549,0 -0.981,-0.154 -1.297,-0.466 -0.315,-0.312 -0.472,-0.729 -0.472,-1.248 0,-1.099 0.652,-1.733 1.953,-1.903l1.538 -0.204c0,-0.619 -0.336,-0.929 -1.008,-0.929 -0.674,0 -1.316,0.2 -1.924,0.602l0 -1.316c0.244,-0.126 0.576,-0.236 0.999,-0.332 0.421,-0.096 0.806,-0.143 1.154,-0.143 1.614,0 2.422,0.806 2.422,2.416l0 3.386zm-1.643 -2.302l0 -0.381 -1.029 0.132c-0.568,0.073 -0.851,0.33 -0.851,0.77 0,0.198 0.068,0.363 0.206,0.489 0.139,0.127 0.326,0.191 0.562,0.191 0.329,0 0.595,-0.113 0.803,-0.34 0.206,-0.227 0.309,-0.514 0.309,-0.861z"/>
   <path id="_21_64" class="fil1" d="M177.248 27.642c-0.259,0.135 -0.648,0.203 -1.167,0.203 -1.231,0 -1.848,-0.64 -1.848,-1.918l0 -2.594 -0.918 0 0 -1.29 0.918 0 0 -1.221 1.742 -0.499 0 1.72 1.273 0 0 1.29 -1.273 0 0 2.29c0,0.589 0.234,0.884 0.703,0.884 0.185,0 0.375,-0.053 0.57,-0.161l0 1.296z"/>
   <path id="_22_65" class="fil1" d="M179.117 21.147c-0.295,0 -0.536,-0.087 -0.723,-0.263 -0.189,-0.175 -0.283,-0.389 -0.283,-0.644 0,-0.262 0.094,-0.475 0.283,-0.642 0.187,-0.166 0.428,-0.249 0.723,-0.249 0.3,0 0.542,0.083 0.729,0.249 0.185,0.167 0.279,0.38 0.279,0.642 0,0.265 -0.094,0.484 -0.279,0.654 -0.187,0.168 -0.429,0.253 -0.729,0.253zm0.863 6.561l-1.746 0 0 -5.665 1.746 0 0 5.665z"/>
   <path id="_23_66" class="fil1" d="M186.845 22.043l-2.107 5.665 -1.992 0 -2.007 -5.665 1.869 0 0.984 3.491c0.111,0.395 0.175,0.729 0.194,1.007l0.023 0c0.024,-0.263 0.094,-0.587 0.204,-0.975l1.006 -3.523 1.826 0z"/>
   <path id="_24_67" class="fil1" d="M192.133 27.708l-1.654 0 0 -0.814 -0.022 0c-0.38,0.634 -0.943,0.951 -1.688,0.951 -0.55,0 -0.982,-0.154 -1.297,-0.466 -0.316,-0.312 -0.472,-0.729 -0.472,-1.248 0,-1.099 0.651,-1.733 1.952,-1.903l1.539 -0.204c0,-0.619 -0.337,-0.929 -1.009,-0.929 -0.674,0 -1.316,0.2 -1.923,0.602l0 -1.316c0.243,-0.126 0.575,-0.236 0.998,-0.332 0.421,-0.096 0.806,-0.143 1.154,-0.143 1.614,0 2.422,0.806 2.422,2.416l0 3.386zm-1.642 -2.302l0 -0.381 -1.029 0.132c-0.569,0.073 -0.852,0.33 -0.852,0.77 0,0.198 0.068,0.363 0.206,0.489 0.14,0.127 0.327,0.191 0.563,0.191 0.328,0 0.594,-0.113 0.802,-0.34 0.206,-0.227 0.31,-0.514 0.31,-0.861z"/>
   <path class="fil1" d="M109.883 45.112c-0.435,0.263 -0.953,0.393 -1.55,0.393 -0.809,0 -1.461,-0.263 -1.958,-0.788 -0.495,-0.525 -0.745,-1.208 -0.745,-2.047 0,-0.934 0.268,-1.684 0.803,-2.251 0.535,-0.565 1.25,-0.849 2.144,-0.849 0.499,0 0.937,0.091 1.317,0.276l0 0.93c-0.422,-0.295 -0.871,-0.442 -1.351,-0.442 -0.579,0 -1.055,0.208 -1.425,0.624 -0.371,0.414 -0.558,0.96 -0.558,1.635 0,0.665 0.176,1.188 0.523,1.572 0.35,0.384 0.817,0.576 1.405,0.576 0.495,0 0.96,-0.164 1.395,-0.493l0 0.864z"/>
   <path id="_1_68" class="fil1" d="M113.625 45.505c-0.838,0 -1.507,-0.265 -2.007,-0.794 -0.499,-0.529 -0.751,-1.232 -0.751,-2.107 0,-0.953 0.261,-1.695 0.781,-2.232 0.521,-0.535 1.224,-0.802 2.111,-0.802 0.845,0 1.504,0.259 1.979,0.781 0.474,0.52 0.71,1.242 0.71,2.164 0,0.905 -0.255,1.629 -0.765,2.174 -0.512,0.544 -1.198,0.816 -2.058,0.816zm0.066 -5.171c-0.582,0 -1.043,0.198 -1.384,0.595 -0.34,0.397 -0.51,0.943 -0.51,1.643 0,0.671 0.172,1.2 0.516,1.587 0.344,0.388 0.803,0.582 1.378,0.582 0.588,0 1.039,-0.19 1.355,-0.57 0.316,-0.38 0.473,-0.921 0.473,-1.622 0,-0.709 -0.157,-1.255 -0.473,-1.639 -0.316,-0.385 -0.767,-0.576 -1.355,-0.576z"/>
   <path id="_2_69" class="fil1" d="M122.608 45.373l-0.909 0 0 -3.234c0,-1.204 -0.439,-1.805 -1.318,-1.805 -0.453,0 -0.829,0.17 -1.126,0.512 -0.299,0.342 -0.446,0.773 -0.446,1.293l0 3.234 -0.909 0 0 -5.67 0.909 0 0 0.941 0.023 0c0.427,-0.716 1.047,-1.074 1.859,-1.074 0.62,0 1.095,0.201 1.424,0.601 0.328,0.399 0.493,0.979 0.493,1.736l0 3.466z"/>
   <path id="_3_70" class="fil1" d="M138.959 44.482c-1.299,0.748 -2.915,1.122 -4.849,1.122 -2.139,0 -3.828,-0.593 -5.064,-1.778 -1.233,-1.185 -1.851,-2.817 -1.851,-4.896 0,-2.092 0.675,-3.797 2.025,-5.116 1.347,-1.321 3.144,-1.981 5.385,-1.981 1.41,0 2.656,0.197 3.73,0.587l0 2.814c-1.027,-0.596 -2.282,-0.891 -3.768,-0.891 -1.246,0 -2.257,0.403 -3.04,1.211 -0.786,0.808 -1.176,1.886 -1.176,3.236 0,1.366 0.352,2.425 1.053,3.176 0.703,0.748 1.651,1.122 2.846,1.122 0.719,0 1.29,-0.102 1.708,-0.305l0 -2.602 -2.662 0 0 -2.396 5.663 0 0 6.697z"/>
   <path id="_4_71" class="fil1" d="M142.747 34.359c-0.495,0 -0.9,-0.146 -1.214,-0.44 -0.317,-0.295 -0.476,-0.653 -0.476,-1.081 0,-0.44 0.159,-0.799 0.476,-1.078 0.314,-0.279 0.719,-0.418 1.214,-0.418 0.504,0 0.909,0.139 1.223,0.418 0.311,0.279 0.469,0.638 0.469,1.078 0,0.444 -0.158,0.811 -0.469,1.097 -0.314,0.282 -0.719,0.424 -1.223,0.424zm1.448 11.014l-2.932 0 0 -9.508 2.932 0 0 9.508z"/>
   <path id="_5_72" class="fil1" d="M152.413 45.262c-0.434,0.228 -1.087,0.342 -1.959,0.342 -2.066,0 -3.102,-1.074 -3.102,-3.22l0 -4.355 -1.541 0 0 -2.164 1.541 0 0 -2.051 2.925 -0.837 0 2.888 2.136 0 0 2.164 -2.136 0 0 3.845c0,0.989 0.393,1.483 1.179,1.483 0.311,0 0.631,-0.089 0.957,-0.269l0 2.174z"/>
   <polygon id="_6_73" class="fil1" points="165.876,45.373 162.869,45.373 162.869,39.95 157.354,39.95 157.354,45.373 154.353,45.373 154.353,32.058 157.354,32.058 157.354,37.37 162.869,37.37 162.869,32.058 165.876,32.058 "/>
   <path id="_7_74" class="fil1" d="M177.67 45.373l-2.926 0 0 -1.449 -0.044 0c-0.726,1.119 -1.692,1.68 -2.906,1.68 -2.206,0 -3.306,-1.334 -3.306,-4.003l0 -5.736 2.925 0 0 5.476c0,1.344 0.533,2.016 1.598,2.016 0.526,0 0.944,-0.184 1.261,-0.551 0.317,-0.368 0.472,-0.869 0.472,-1.499l0 -5.442 2.926 0 0 9.508z"/>
   <path id="_8_75" class="fil1" d="M183.111 44.267l-0.038 0 0 1.106 -2.931 0 0 -14.075 2.931 0 0 5.996 0.038 0c0.726,-1.106 1.756,-1.661 3.094,-1.661 1.223,0 2.168,0.422 2.83,1.262 0.662,0.843 0.995,1.993 0.995,3.454 0,1.585 -0.387,2.856 -1.16,3.816 -0.776,0.96 -1.81,1.439 -3.103,1.439 -1.169,0 -2.053,-0.444 -2.656,-1.337zm-0.082 -4.01l0 0.973c0,0.615 0.174,1.122 0.529,1.525 0.352,0.402 0.805,0.602 1.357,0.602 0.665,0 1.185,-0.257 1.553,-0.773 0.367,-0.517 0.554,-1.249 0.554,-2.197 0,-0.786 -0.171,-1.401 -0.507,-1.844 -0.339,-0.441 -0.817,-0.663 -1.445,-0.663 -0.586,0 -1.074,0.219 -1.461,0.66 -0.387,0.437 -0.58,1.011 -0.58,1.717z"/>
  </g>
 </g>
</svg>
