<?xml version="1.0" encoding="UTF-8"?>
<!DOCTYPE svg PUBLIC "-//W3C//DTD SVG 1.1//EN" "http://www.w3.org/Graphics/SVG/1.1/DTD/svg11.dtd">
<!-- Creator: CorelDRAW -->
<svg xmlns="http://www.w3.org/2000/svg" xml:space="preserve" width="81.28mm" height="81.28mm" version="1.1" style="shape-rendering:geometricPrecision; text-rendering:geometricPrecision; image-rendering:optimizeQuality; fill-rule:evenodd; clip-rule:evenodd"
viewBox="0 0 3386.09 3386.09"
 xmlns:xlink="http://www.w3.org/1999/xlink"
 xmlns:xodm="http://www.corel.com/coreldraw/odm/2003">
 <defs>
  <style type="text/css">
   <![CDATA[
    .fil1 {fill:#101010}
    .fil3 {fill:#990000}
    .fil0 {fill:#F0F0F0}
    .fil2 {fill:#101010;fill-rule:nonzero}
   ]]>
  </style>
 </defs>
 <g id="Layer_x0020_1">
  <metadata id="CorelCorpID_0Corel-Layer"/>
  <g id="_2370453551232">
   <circle class="fil0" cx="1693.04" cy="1693.04" r="1693.04"/>
   <g>
    <path class="fil1" d="M1475.76 1123.88l0 -173.09 125.13 0 0 20.43 -102.24 0 0 52.99 95.75 0 0 20.31 -95.75 0 0 58.92 106.27 0 0 20.43 -129.16 0zm151.79 -49.37l19.18 -1.68c0.89,7.69 3,13.99 6.33,18.93 3.32,4.94 8.48,8.91 15.45,11.95 6.98,3.04 14.84,4.54 23.58,4.54 7.76,0 14.59,-1.14 20.53,-3.43 5.94,-2.32 10.38,-5.47 13.27,-9.48 2.9,-4.04 4.37,-8.4 4.37,-13.16 0,-4.83 -1.4,-9.01 -4.22,-12.63 -2.79,-3.61 -7.4,-6.62 -13.81,-9.05 -4.15,-1.61 -13.24,-4.12 -27.37,-7.51 -14.09,-3.4 -24,-6.58 -29.65,-9.59 -7.33,-3.83 -12.81,-8.62 -16.42,-14.31 -3.58,-5.69 -5.37,-12.06 -5.37,-19.14 0,-7.73 2.18,-14.99 6.59,-21.71 4.4,-6.76 10.84,-11.87 19.28,-15.38 8.48,-3.47 17.85,-5.22 28.19,-5.22 11.41,0 21.43,1.82 30.16,5.51 8.69,3.65 15.38,9.05 20.07,16.17 4.65,7.12 7.19,15.2 7.55,24.22l-19.5 1.47c-1.07,-9.69 -4.62,-17.06 -10.66,-22 -6.04,-4.97 -14.95,-7.44 -26.76,-7.44 -12.3,0 -21.25,2.25 -26.9,6.76 -5.62,4.51 -8.44,9.94 -8.44,16.28 0,5.54 2,10.09 5.98,13.63 3.93,3.58 14.13,7.23 30.65,10.95 16.53,3.76 27.87,7.01 34.02,9.8 8.94,4.15 15.56,9.37 19.82,15.66 4.26,6.33 6.37,13.63 6.37,21.86 0,8.19 -2.32,15.88 -7.02,23.11 -4.68,7.22 -11.41,12.84 -20.18,16.88 -8.76,4.01 -18.63,6.01 -29.58,6.01 -13.92,0 -25.58,-2 -34.95,-6.08 -9.41,-4.04 -16.78,-10.12 -22.14,-18.28 -5.33,-8.12 -8.15,-17.35 -8.41,-27.62zm259.67 -4.51l20.35 5.15c-4.26,16.67 -11.95,29.4 -23,38.2 -11.09,8.77 -24.61,13.13 -40.64,13.13 -16.56,0 -30.01,-3.36 -40.38,-10.09 -10.37,-6.76 -18.28,-16.53 -23.68,-29.29 -5.4,-12.81 -8.12,-26.55 -8.12,-41.21 0,-15.99 3.04,-29.94 9.16,-41.85 6.12,-11.91 14.81,-20.97 26.11,-27.15 11.27,-6.19 23.68,-9.27 37.24,-9.27 15.38,0 28.3,3.9 38.77,11.74 10.48,7.83 17.78,18.81 21.89,33.02l-20 4.72c-3.57,-11.19 -8.73,-19.31 -15.52,-24.43 -6.76,-5.12 -15.28,-7.66 -25.58,-7.66 -11.8,0 -21.64,2.82 -29.58,8.48 -7.94,5.69 -13.52,13.27 -16.71,22.83 -3.22,9.51 -4.83,19.35 -4.83,29.47 0,13.09 1.9,24.47 5.69,34.24 3.83,9.73 9.73,17.03 17.78,21.85 8.05,4.83 16.74,7.22 26.11,7.22 11.38,0 21,-3.29 28.9,-9.84 7.91,-6.58 13.24,-16.35 16.03,-29.26zm146.2 -99.77l20.35 0 0 88.78c0,15.42 -1.75,27.69 -5.26,36.77 -3.51,9.09 -9.8,16.46 -18.93,22.15 -9.12,5.72 -21.07,8.54 -35.88,8.54 -14.38,0 -26.18,-2.47 -35.3,-7.44 -9.16,-4.93 -15.71,-12.13 -19.6,-21.53 -3.94,-9.41 -5.87,-22.21 -5.87,-38.49l0 -88.78 20.32 0 0 88.68c0,13.34 1.25,23.18 3.72,29.48 2.47,6.33 6.76,11.2 12.77,14.63 6.04,3.43 13.45,5.15 22.18,5.15 14.95,0 25.61,-3.4 31.98,-10.19 6.33,-6.76 9.52,-19.78 9.52,-39.06l0 -88.68zm54.62 153.64l0 -153.64 111.07 0 0 18.13 -90.75 0 0 47.04 84.99 0 0 18.03 -84.99 0 0 52.3 94.33 0 0 18.14 -114.65 0zm141.87 0l0 -153.64 20.35 0 0 135.5 75.66 0 0 18.14 -96.01 0zm103.34 0l59.02 -153.64 21.89 0 62.89 153.64 -23.18 0 -17.92 -46.54 -64.24 0 -16.85 46.54 -21.6 0zm44.32 -63.1l52.12 0 -16.06 -42.53c-4.87,-12.91 -8.52,-23.54 -10.88,-31.87 -1.97,9.87 -4.72,19.64 -8.3,29.37l-16.88 45.04zm-778.83 272.54l22.93 5.8c-4.8,18.78 -13.46,33.13 -25.91,43.04 -12.5,9.87 -27.73,14.79 -45.78,14.79 -18.66,0 -33.81,-3.79 -45.5,-11.36 -11.69,-7.62 -20.59,-18.62 -26.68,-33.01 -6.08,-14.43 -9.15,-29.9 -9.15,-46.43 0,-18.01 3.43,-33.73 10.32,-47.15 6.89,-13.42 16.68,-23.62 29.42,-30.59 12.69,-6.97 26.68,-10.44 41.95,-10.44 17.33,0 31.88,4.39 43.68,13.22 11.81,8.82 20.03,21.2 24.66,37.2l-22.53 5.32c-4.03,-12.61 -9.83,-21.76 -17.49,-27.52 -7.62,-5.76 -17.21,-8.62 -28.82,-8.62 -13.3,0 -24.38,3.18 -33.33,9.55 -8.95,6.41 -15.23,14.95 -18.82,25.71 -3.62,10.72 -5.44,21.8 -5.44,33.21 0,14.75 2.14,27.57 6.41,38.56 4.31,10.96 10.96,19.19 20.03,24.62 9.07,5.44 18.86,8.14 29.42,8.14 12.81,0 23.66,-3.7 32.56,-11.08 8.91,-7.42 14.91,-18.42 18.06,-32.97zm42.86 -14.14c0,-25.5 6.83,-45.46 20.53,-59.88 13.7,-14.41 31.37,-21.64 53.05,-21.64 14.17,0 26.97,3.4 38.35,10.16 11.38,6.8 20.07,16.24 26.04,28.37 5.98,12.09 8.94,25.86 8.94,41.21 0,15.6 -3.11,29.55 -9.41,41.82 -6.29,12.31 -15.21,21.6 -26.72,27.94 -11.56,6.33 -23.97,9.48 -37.31,9.48 -14.49,0 -27.4,-3.47 -38.78,-10.48 -11.41,-6.98 -20.03,-16.53 -25.9,-28.62 -5.87,-12.06 -8.8,-24.87 -8.8,-38.35zm20.96 0.32c0,18.53 4.97,33.09 14.92,43.75 9.98,10.66 22.47,15.99 37.49,15.99 15.31,0 27.9,-5.37 37.78,-16.13 9.87,-10.77 14.84,-26.04 14.84,-45.82 0,-12.49 -2.15,-23.4 -6.37,-32.73 -4.22,-9.34 -10.41,-16.56 -18.53,-21.72 -8.15,-5.12 -17.28,-7.69 -27.4,-7.69 -14.42,0 -26.79,4.94 -37.16,14.85 -10.37,9.87 -15.56,26.4 -15.56,49.5zm151.32 74.52l0 -153.64 20.35 0 0 135.51 75.66 0 0 18.13 -96.01 0zm114.04 -74.84c0,-25.5 6.83,-45.46 20.53,-59.88 13.7,-14.41 31.37,-21.64 53.05,-21.64 14.17,0 26.97,3.4 38.35,10.16 11.37,6.8 20.07,16.24 26.04,28.37 5.97,12.09 8.94,25.86 8.94,41.21 0,15.6 -3.11,29.55 -9.41,41.82 -6.3,12.31 -15.21,21.6 -26.72,27.94 -11.56,6.33 -23.97,9.48 -37.31,9.48 -14.49,0 -27.4,-3.47 -38.78,-10.48 -11.41,-6.98 -20.03,-16.53 -25.9,-28.62 -5.87,-12.06 -8.8,-24.87 -8.8,-38.35zm20.96 0.32c0,18.53 4.97,33.09 14.92,43.75 9.98,10.66 22.47,15.99 37.49,15.99 15.31,0 27.9,-5.37 37.77,-16.13 9.87,-10.77 14.85,-26.04 14.85,-45.82 0,-12.49 -2.15,-23.4 -6.37,-32.73 -4.22,-9.34 -10.41,-16.56 -18.53,-21.72 -8.15,-5.12 -17.28,-7.69 -27.4,-7.69 -14.42,0 -26.79,4.94 -37.16,14.85 -10.37,9.87 -15.56,26.4 -15.56,49.5zm151.53 74.52l0 -153.64 30.62 0 36.34 108.78c3.36,10.12 5.83,17.71 7.33,22.75 1.75,-5.58 4.47,-13.81 8.19,-24.65l36.77 -106.89 27.37 0 0 153.64 -19.6 0 0 -128.6 -44.64 128.6 -18.35 0 -44.43 -130.78 0 130.78 -19.6 0zm178.57 0l0 -153.64 57.67 0c11.73,0 21.14,1.57 28.22,4.65 7.12,3.12 12.66,7.91 16.67,14.38 4.01,6.44 6.04,13.2 6.04,20.28 0,6.54 -1.79,12.73 -5.36,18.53 -3.55,5.8 -8.94,10.49 -16.14,14.06 9.3,2.72 16.42,7.37 21.43,13.91 5.01,6.59 7.51,14.35 7.51,23.29 0,7.19 -1.54,13.88 -4.58,20.06 -3.04,6.19 -6.79,10.95 -11.27,14.31 -4.47,3.36 -10.09,5.87 -16.81,7.59 -6.73,1.71 -14.99,2.57 -24.79,2.57l-58.59 0zm20.35 -89.07l33.23 0c8.98,0 15.45,-0.61 19.39,-1.79 5.15,-1.54 9.05,-4.08 11.66,-7.66 2.61,-3.57 3.94,-8.05 3.94,-13.41 0,-5.08 -1.22,-9.59 -3.65,-13.45 -2.47,-3.9 -5.97,-6.54 -10.48,-7.97 -4.54,-1.43 -12.34,-2.15 -23.4,-2.15l-30.69 0 0 46.43zm0 70.94l38.24 0c6.58,0 11.2,-0.25 13.84,-0.72 4.69,-0.85 8.59,-2.25 11.73,-4.22 3.15,-1.93 5.72,-4.8 7.77,-8.51 2,-3.76 3.04,-8.05 3.04,-12.95 0,-5.72 -1.47,-10.7 -4.4,-14.96 -2.94,-4.22 -7.02,-7.19 -12.24,-8.91 -5.19,-1.68 -12.7,-2.54 -22.47,-2.54l-35.52 0 0 52.8zm127.13 18.13l0 -153.64 20.32 0 0 153.64 -20.32 0zm39.28 0l59.02 -153.64 21.89 0 62.89 153.64 -23.18 0 -17.92 -46.54 -64.24 0 -16.85 46.54 -21.6 0zm44.32 -63.1l52.12 0 -16.06 -42.53c-4.86,-12.91 -8.52,-23.54 -10.87,-31.87 -1.97,9.87 -4.72,19.64 -8.3,29.37l-16.88 45.04zm115.51 63.1l0 -153.64 20.86 0 80.7 120.62 0 -120.62 19.5 0 0 153.64 -20.86 0 -80.7 -120.73 0 120.73 -19.5 0zm138.33 0l59.02 -153.64 21.89 0 62.89 153.64 -23.18 0 -17.92 -46.54 -64.24 0 -16.85 46.54 -21.6 0zm44.32 -63.1l52.12 0 -16.06 -42.53c-4.86,-12.91 -8.51,-23.54 -10.87,-31.87 -1.97,9.87 -4.72,19.64 -8.3,29.37l-16.88 45.04zm-1335.06 333.23l0 -153.64 52.91 0c11.95,0 21.07,0.75 27.37,2.22 8.8,2.01 16.31,5.69 22.54,10.99 8.08,6.87 14.16,15.59 18.17,26.25 4.05,10.66 6.05,22.82 6.05,36.52 0,11.66 -1.36,22 -4.12,31.02 -2.72,9.02 -6.19,16.49 -10.48,22.39 -4.26,5.9 -8.91,10.55 -13.99,13.91 -5.04,3.4 -11.16,5.97 -18.32,7.73 -7.19,1.75 -15.41,2.61 -24.68,2.61l-55.45 0zm20.32 -18.13l32.8 0c10.12,0 18.1,-0.93 23.86,-2.83 5.76,-1.9 10.34,-4.54 13.77,-7.98 4.83,-4.8 8.59,-11.3 11.27,-19.42 2.68,-8.16 4.04,-17.99 4.04,-29.62 0,-16.06 -2.65,-28.4 -7.9,-37.02 -5.3,-8.66 -11.7,-14.42 -19.25,-17.35 -5.44,-2.11 -14.24,-3.15 -26.29,-3.15l-32.3 0 0 117.37zm135.11 18.13l0 -153.64 111.07 0 0 18.14 -90.75 0 0 47.04 84.99 0 0 18.03 -84.99 0 0 52.3 94.33 0 0 18.13 -114.65 0zm215.91 0l0 -173.09 22.89 0 0 173.09 -22.89 0zm60.96 0l0 -153.64 20.85 0 80.7 120.62 0 -120.62 19.5 0 0 153.64 -20.85 0 -80.7 -120.73 0 120.73 -19.49 0zm227.12 -60.28l0 -17.99 65.07 -0.11 0 56.99c-9.98,7.98 -20.28,13.95 -30.91,17.99 -10.62,4.01 -21.53,6.01 -32.69,6.01 -15.09,0 -28.83,-3.22 -41.14,-9.69 -12.34,-6.44 -21.64,-15.81 -27.94,-28.01 -6.29,-12.23 -9.44,-25.9 -9.44,-40.99 0,-14.95 3.15,-28.9 9.41,-41.86 6.22,-12.98 15.23,-22.6 26.97,-28.9 11.73,-6.26 25.25,-9.41 40.56,-9.41 11.09,0 21.14,1.79 30.12,5.4 8.98,3.57 16.03,8.59 21.1,15.02 5.12,6.44 8.98,14.81 11.66,25.15l-18.35 5.04c-2.32,-7.84 -5.19,-13.99 -8.59,-18.46 -3.43,-4.47 -8.33,-8.05 -14.7,-10.73 -6.33,-2.68 -13.41,-4.05 -21.14,-4.05 -9.3,0 -17.35,1.43 -24.11,4.26 -6.79,2.82 -12.23,6.55 -16.42,11.16 -4.15,4.62 -7.37,9.66 -9.69,15.21 -3.9,9.48 -5.87,19.78 -5.87,30.91 0,13.7 2.36,25.15 7.08,34.37 4.72,9.23 11.59,16.06 20.6,20.53 9.02,4.47 18.56,6.72 28.69,6.72 8.83,0 17.42,-1.72 25.79,-5.12 8.41,-3.36 14.74,-6.97 19.07,-10.84l0 -28.62 -45.14 0zm95.48 60.28l0 -153.64 111.07 0 0 18.14 -90.75 0 0 47.04 84.99 0 0 18.03 -84.99 0 0 52.3 94.33 0 0 18.13 -114.65 0zm142.51 0l0 -153.64 20.85 0 80.7 120.62 0 -120.62 19.5 0 0 153.64 -20.85 0 -80.7 -120.73 0 120.73 -19.49 0zm158.68 0l0 -153.64 20.32 0 0 153.64 -20.32 0zm56.59 0l0 -153.64 111.07 0 0 18.14 -90.75 0 0 47.04 84.99 0 0 18.03 -84.99 0 0 52.3 94.33 0 0 18.13 -114.65 0zm143.05 0l0 -153.64 68.11 0c13.7,0 24.11,1.4 31.23,4.15 7.12,2.75 12.81,7.62 17.1,14.6 4.26,7.01 6.37,14.73 6.37,23.18 0,10.91 -3.51,20.07 -10.59,27.54 -7.05,7.48 -17.96,12.24 -32.69,14.28 5.4,2.57 9.48,5.12 12.27,7.65 5.94,5.44 11.56,12.27 16.88,20.43l26.72 41.82 -25.57 0 -20.32 -31.98c-5.94,-9.19 -10.84,-16.28 -14.71,-21.14 -3.82,-4.9 -7.26,-8.34 -10.3,-10.27 -3.04,-1.97 -6.12,-3.32 -9.27,-4.11 -2.32,-0.47 -6.08,-0.72 -11.34,-0.72l-23.58 0 0 68.22 -20.32 0zm20.32 -85.82l43.71 0c9.27,0 16.56,-0.97 21.79,-2.9 5.26,-1.93 9.23,-5.01 11.95,-9.23 2.72,-4.22 4.08,-8.8 4.08,-13.77 0,-7.27 -2.61,-13.24 -7.91,-17.92 -5.26,-4.69 -13.59,-7.01 -25,-7.01l-48.61 0 0 50.83zm137.83 85.82l0 -153.64 20.32 0 0 153.64 -20.32 0zm-5.26 -163.08l13.95 -29.33 24.72 0 -23.04 29.33 -15.63 0zm44.53 163.08l59.02 -153.64 21.89 0 62.89 153.64 -23.18 0 -17.92 -46.54 -64.25 0 -16.85 46.54 -21.61 0zm44.32 -63.1l52.12 0 -16.06 -42.53c-4.87,-12.91 -8.52,-23.54 -10.88,-31.87 -1.97,9.87 -4.72,19.64 -8.3,29.37l-16.88 45.04zm-1507.07 284.11l20.68 -2.82c0.52,13.21 3.02,22.28 7.42,27.16 4.43,4.87 10.52,7.29 18.3,7.29 5.76,0 10.72,-1.29 14.87,-3.95 4.19,-2.62 7.05,-6.2 8.62,-10.72 1.57,-4.55 2.38,-11.76 2.38,-21.68l0 -119.25 22.89 0 0 117.96c0,14.47 -1.73,25.71 -5.24,33.65 -3.51,7.94 -9.07,13.99 -16.65,18.17 -7.62,4.15 -16.52,6.25 -26.76,6.25 -15.19,0 -26.8,-4.35 -34.9,-13.1 -8.06,-8.74 -11.93,-21.72 -11.61,-38.97zm231.3 -104.52l20.35 0 0 88.78c0,15.42 -1.75,27.69 -5.26,36.78 -3.51,9.08 -9.8,16.45 -18.93,22.14 -9.12,5.72 -21.07,8.55 -35.88,8.55 -14.38,0 -26.19,-2.47 -35.31,-7.44 -9.16,-4.94 -15.71,-12.13 -19.6,-21.54 -3.94,-9.41 -5.87,-22.21 -5.87,-38.49l0 -88.78 20.32 0 0 88.68c0,13.35 1.25,23.18 3.72,29.48 2.47,6.33 6.76,11.2 12.77,14.63 6.04,3.43 13.45,5.15 22.18,5.15 14.95,0 25.61,-3.4 31.98,-10.19 6.33,-6.76 9.52,-19.78 9.52,-39.06l0 -88.68zm53.34 153.64l0 -153.64 20.35 0 0 135.51 75.65 0 0 18.13 -96.01 0zm123.7 0l0 -153.64 20.32 0 0 153.64 -20.32 0zm49.97 -74.84c0,-25.5 6.83,-45.46 20.53,-59.88 13.7,-14.41 31.37,-21.64 53.05,-21.64 14.16,0 26.97,3.4 38.35,10.16 11.37,6.8 20.06,16.24 26.04,28.37 5.97,12.09 8.94,25.86 8.94,41.21 0,15.6 -3.12,29.55 -9.41,41.82 -6.29,12.31 -15.2,21.6 -26.72,27.94 -11.55,6.33 -23.97,9.48 -37.31,9.48 -14.49,0 -27.4,-3.47 -38.78,-10.48 -11.41,-6.97 -20.03,-16.53 -25.9,-28.62 -5.87,-12.06 -8.8,-24.86 -8.8,-38.35zm20.96 0.32c0,18.53 4.97,33.09 14.92,43.75 9.98,10.66 22.46,15.99 37.49,15.99 15.31,0 27.9,-5.37 37.78,-16.13 9.87,-10.77 14.84,-26.04 14.84,-45.82 0,-12.49 -2.15,-23.4 -6.37,-32.73 -4.22,-9.34 -10.41,-16.56 -18.53,-21.72 -8.16,-5.12 -17.28,-7.69 -27.4,-7.69 -14.41,0 -26.79,4.94 -37.16,14.85 -10.37,9.87 -15.56,26.4 -15.56,49.51zm302.45 6.6l0 -20.27 73.31 -0.12 0 64.2c-11.25,8.99 -22.85,15.72 -34.82,20.27 -11.96,4.51 -24.26,6.77 -36.83,6.77 -17.01,0 -32.49,-3.62 -46.35,-10.92 -13.91,-7.25 -24.38,-17.81 -31.48,-31.55 -7.09,-13.79 -10.64,-29.18 -10.64,-46.18 0,-16.85 3.55,-32.57 10.6,-47.15 7.01,-14.63 17.17,-25.47 30.39,-32.56 13.22,-7.05 28.45,-10.6 45.7,-10.6 12.49,0 23.82,2.02 33.93,6.09 10.11,4.03 18.06,9.67 23.78,16.93 5.76,7.25 10.11,16.68 13.14,28.33l-20.67 5.68c-2.62,-8.82 -5.84,-15.76 -9.67,-20.79 -3.87,-5.04 -9.39,-9.07 -16.56,-12.09 -7.13,-3.02 -15.11,-4.56 -23.82,-4.56 -10.48,0 -19.55,1.61 -27.16,4.8 -7.66,3.18 -13.79,7.37 -18.5,12.57 -4.67,5.2 -8.3,10.88 -10.92,17.13 -4.39,10.68 -6.61,22.29 -6.61,34.82 0,15.43 2.66,28.33 7.98,38.73 5.32,10.39 13.06,18.09 23.21,23.13 10.16,5.04 20.92,7.58 32.32,7.58 9.96,0 19.63,-1.93 29.06,-5.76 9.47,-3.79 16.61,-7.86 21.48,-12.21l0 -32.24 -50.86 0zm88.1 67.91l59.02 -153.64 21.89 0 62.89 153.64 -23.18 0 -17.92 -46.54 -64.24 0 -16.85 46.54 -21.6 0zm44.32 -63.1l52.12 0 -16.06 -42.53c-4.87,-12.91 -8.52,-23.54 -10.87,-31.87 -1.97,9.87 -4.72,19.64 -8.3,29.37l-16.88 45.04zm116.04 63.1l0 -153.64 68.11 0c13.7,0 24.11,1.4 31.23,4.15 7.12,2.75 12.81,7.62 17.1,14.6 4.26,7.01 6.37,14.74 6.37,23.18 0,10.91 -3.51,20.07 -10.59,27.54 -7.05,7.48 -17.96,12.24 -32.69,14.28 5.4,2.57 9.48,5.12 12.27,7.65 5.94,5.44 11.56,12.27 16.88,20.43l26.72 41.82 -25.57 0 -20.32 -31.98c-5.94,-9.19 -10.84,-16.28 -14.71,-21.14 -3.82,-4.9 -7.26,-8.34 -10.3,-10.27 -3.04,-1.97 -6.12,-3.32 -9.27,-4.11 -2.32,-0.47 -6.08,-0.72 -11.34,-0.72l-23.58 0 0 68.22 -20.32 0zm20.32 -85.82l43.71 0c9.27,0 16.56,-0.97 21.78,-2.9 5.26,-1.93 9.23,-5.01 11.95,-9.23 2.72,-4.22 4.08,-8.8 4.08,-13.77 0,-7.26 -2.61,-13.24 -7.91,-17.92 -5.26,-4.69 -13.59,-7.01 -25,-7.01l-48.61 0 0 50.83zm117.48 85.82l59.02 -153.64 21.89 0 62.89 153.64 -23.18 0 -17.92 -46.54 -64.24 0 -16.85 46.54 -21.6 0zm44.32 -63.1l52.12 0 -16.06 -42.53c-4.87,-12.91 -8.52,-23.54 -10.87,-31.87 -1.97,9.87 -4.72,19.64 -8.3,29.37l-16.88 45.04zm143.7 63.1l-59.53 -153.64 22.03 0 39.92 111.61c3.22,8.94 5.9,17.35 8.05,25.15 2.4,-8.37 5.15,-16.74 8.3,-25.15l41.5 -111.61 20.75 0 -60.17 153.64 -20.85 0zm102.73 0l0 -153.64 20.32 0 0 153.64 -20.32 0zm95.26 0l0 -135.5 -50.62 0 0 -18.14 121.76 0 0 18.14 -50.83 0 0 135.5 -20.32 0zm81.95 -74.84c0,-25.5 6.83,-45.46 20.53,-59.88 13.7,-14.41 31.37,-21.64 53.05,-21.64 14.16,0 26.97,3.4 38.35,10.16 11.37,6.8 20.07,16.24 26.04,28.37 5.97,12.09 8.94,25.86 8.94,41.21 0,15.6 -3.11,29.55 -9.41,41.82 -6.3,12.31 -15.21,21.6 -26.72,27.94 -11.56,6.33 -23.97,9.48 -37.31,9.48 -14.49,0 -27.4,-3.47 -38.78,-10.48 -11.41,-6.97 -20.03,-16.53 -25.9,-28.62 -5.87,-12.06 -8.8,-24.86 -8.8,-38.35zm20.96 0.32c0,18.53 4.97,33.09 14.92,43.75 9.98,10.66 22.46,15.99 37.49,15.99 15.31,0 27.9,-5.37 37.78,-16.13 9.87,-10.77 14.85,-26.04 14.85,-45.82 0,-12.49 -2.15,-23.4 -6.37,-32.73 -4.22,-9.34 -10.41,-16.56 -18.53,-21.72 -8.16,-5.12 -17.28,-7.69 -27.4,-7.69 -14.42,0 -26.8,4.94 -37.17,14.85 -10.37,9.87 -15.56,26.4 -15.56,49.51z"/>
    <g>
     <g>
      <g>
       <path class="fil2" d="M656.85 2003.1c-2.47,2.48 -6.48,2.49 -8.96,0.02 -2.48,-2.47 -2.49,-6.48 -0.02,-8.96l8.98 8.94zm607.23 -610.2l-607.23 610.2 -8.98 -8.94 607.23 -610.2 8.98 8.94zm-8.98 -8.94c2.47,-2.48 6.48,-2.49 8.96,-0.02 2.48,2.47 2.49,6.48 0.02,8.96l-8.98 -8.94z"/>
      </g>
      <g>
       <path class="fil2" d="M1063.62 1999.87c-0.68,3.43 -4.02,5.66 -7.45,4.98 -3.43,-0.68 -5.66,-4.02 -4.98,-7.45l12.43 2.47zm201.91 -1018.26l-201.91 1018.26 -12.43 -2.47 201.91 -1018.26 12.43 2.47zm-12.43 -2.47c0.68,-3.43 4.02,-5.66 7.45,-4.98 3.43,0.68 5.66,4.02 4.98,7.45l-12.43 -2.47z"/>
      </g>
      <g>
       <path class="fil2" d="M862.76 1998.08c-1.55,3.13 -5.36,4.42 -8.49,2.87 -3.13,-1.55 -4.42,-5.36 -2.87,-8.49l11.36 5.62zm402.51 -813.29l-402.51 813.29 -11.36 -5.62 402.51 -813.29 11.36 5.62zm-11.36 -5.62c1.55,-3.13 5.36,-4.42 8.49,-2.87 3.13,1.55 4.42,5.36 2.87,8.49l-11.36 -5.62z"/>
      </g>
      <g>
       <path class="fil2" d="M450.84 2004.29c-3.12,1.57 -6.94,0.31 -8.51,-2.82 -1.57,-3.12 -0.31,-6.94 2.82,-8.51l5.69 11.32zm811.6 -408.18l-811.6 408.18 -5.69 -11.32 811.6 -408.18 5.69 11.32zm-5.69 -11.32c3.12,-1.57 6.94,-0.31 8.51,2.82 1.57,3.12 0.31,6.94 -2.82,8.51l-5.69 -11.32z"/>
      </g>
      <g>
       <path class="fil2" d="M246.82 2003.27c-3.43,0.68 -6.77,-1.55 -7.45,-4.98 -0.68,-3.43 1.55,-6.77 4.98,-7.45l2.47 12.43zm1014.01 -201.87l-1014.01 201.87 -2.47 -12.43 1014.01 -201.87 2.47 12.43zm-2.47 -12.43c3.43,-0.68 6.77,1.55 7.45,4.98 0.68,3.43 -1.55,6.77 -4.98,7.45l-2.47 -12.43z"/>
      </g>
     </g>
     <g>
      <path class="fil2" d="M652.35 2004.97c-3.5,0 -6.34,-2.84 -6.34,-6.34 0,-3.5 2.84,-6.34 6.34,-6.34l0 12.67zm100.3 -0l-100.3 0 0 -12.67 100.3 -0 5.16 10.01 -5.16 2.66zm0 -12.67c3.5,0 6.34,2.84 6.34,6.34 0,3.5 -2.84,6.34 -6.34,6.34l0 -12.67zm512.1 -701.75l-506.94 711.76 -10.32 -7.35 506.94 -711.76 11.5 3.67 -1.17 3.67zm-10.32 -7.35c2.03,-2.85 5.99,-3.52 8.84,-1.49 2.85,2.03 3.52,5.99 1.49,8.84l-10.32 -7.35zm11.5 -101.22l0 104.89 -12.67 0 0 -104.89 12.67 0zm-12.67 0c0,-3.5 2.84,-6.34 6.34,-6.34 3.5,0 6.34,2.84 6.34,6.34l-12.67 0z"/>
     </g>
     <g>
      <path class="fil2" d="M1253.25 1795.18c0,-3.5 2.84,-6.34 6.34,-6.34 3.5,0 6.34,2.84 6.34,6.34l-12.67 0zm0 101.86l0 -101.86 12.67 0 0 101.86 -5.7 6.3 -6.97 -6.3zm12.67 0c0,3.5 -2.84,6.34 -6.34,6.34 -3.5,0 -6.34,-2.84 -6.34,-6.34l12.67 0zm-1020.97 95.29l1014 -101.59 1.27 12.61 -1014 101.59 -0.63 0.03 -0.63 -12.64zm1.27 12.61c-3.48,0.35 -6.59,-2.19 -6.94,-5.67 -0.35,-3.48 2.19,-6.59 5.67,-6.94l1.27 12.61zm103.37 0.03l-104 0 0 -12.67 104 0 2.02 12.34 -2.02 0.33zm0 -12.67c3.5,0 6.34,2.84 6.34,6.34 0,3.5 -2.84,6.34 -6.34,6.34l0 -12.67zm912.02 -294.03l-910 306.37 -4.04 -12.01 910 -306.37 8.36 6.01 -4.32 6.01zm-4.04 -12.01c3.32,-1.11 6.92,0.67 8.03,3.99 1.11,3.32 -0.67,6.92 -3.99,8.03l-4.04 -12.01zm8.36 -95.8l0 101.81 -12.67 0 0 -101.81 12.67 0zm-12.67 0c0,-3.5 2.84,-6.34 6.34,-6.34 3.5,0 6.34,2.84 6.34,6.34l-12.67 0z"/>
     </g>
     <g>
      <path class="fil2" d="M1253.25 1388.44c0,-3.5 2.84,-6.34 6.34,-6.34 3.5,0 6.34,2.84 6.34,6.34l-12.67 0zm0 100.08l0 -100.08 12.67 0 0 100.08 -2.64 5.15 -10.03 -5.15zm12.67 0c0,3.5 -2.84,6.34 -6.34,6.34 -3.5,0 -6.34,-2.84 -6.34,-6.34l12.67 0zm-720.71 504.96l710.68 -510.11 7.39 10.3 -710.68 510.11 -3.7 1.19 -3.7 -11.49zm7.39 10.3c-2.84,2.04 -6.81,1.39 -8.84,-1.45 -2.04,-2.84 -1.39,-6.81 1.45,-8.84l7.39 10.3zm-104.61 -11.49l100.92 0 0 12.67 -100.92 0 0 -12.67zm0 12.67c-3.5,0 -6.34,-2.84 -6.34,-6.34 0,-3.5 2.84,-6.34 6.34,-6.34l0 12.67z"/>
     </g>
     <g>
      <path class="fil2" d="M1321.97 1898.1c0,3.5 -2.57,6.34 -5.72,6.34 -3.16,0 -5.72,-2.84 -5.72,-6.34l11.45 0zm0 -1023.37l0 1023.37 -11.45 0 0 -1023.37 11.45 0zm-11.45 0c0,-3.5 2.57,-6.34 5.72,-6.34 3.16,0 5.72,2.84 5.72,6.34l-11.45 0z"/>
     </g>
     <g>
      <path class="fil2" d="M1371.94 2039.35c3.5,0 6.34,2.65 6.34,5.9 0,3.26 -2.84,5.9 -6.34,5.9l0 -11.81zm-1231.4 0l1231.4 0 0 11.81 -1231.4 0 0 -11.81zm0 11.81c-3.5,0 -6.34,-2.65 -6.34,-5.9 0,-3.26 2.84,-5.9 6.34,-5.9l0 11.81z"/>
     </g>
     <g>
      <path class="fil2" d="M1057.41 2004.97c-3.5,0 -6.34,-2.84 -6.34,-6.34 0,-3.5 2.84,-6.34 6.34,-6.34l0 12.67zm102.2 0l-102.2 0 0 -12.67 102.2 0 6.31 6.95 -6.31 5.72zm0 -12.67c3.5,0 6.34,2.84 6.34,6.34 0,3.5 -2.84,6.34 -6.34,6.34l0 -12.67zm106.28 -1012.83l-99.97 1019.79 -12.61 -1.23 99.97 -1019.79 12.64 0.62 -0.03 0.62zm-12.61 -1.23c0.34,-3.48 3.44,-6.03 6.92,-5.69 3.48,0.34 6.03,3.44 5.69,6.92l-12.61 -1.23zm-0.03 105.77l0 -105.15 12.67 0 0 105.15 -0.32 1.98 -12.36 -1.98zm12.67 0c0,3.5 -2.84,6.34 -6.34,6.34 -3.5,0 -6.34,-2.84 -6.34,-6.34l12.67 0zm-313.8 912.65l301.44 -914.64 12.04 3.97 -301.44 914.64 -6.02 4.35 -6.02 -8.32zm12.04 3.97c-1.09,3.32 -4.68,5.13 -8,4.04 -3.32,-1.09 -5.13,-4.68 -4.04,-8l12.04 3.97zm-107.3 -8.32l101.28 -0 0 12.67 -101.28 0 0 -12.67zm0 12.67c-3.5,0 -6.34,-2.84 -6.34,-6.34 0,-3.5 2.84,-6.34 6.34,-6.34l0 12.67z"/>
     </g>
    </g>
    <path class="fil2" d="M939.09 2321.04l24.82 0 0 108.1c0,18.82 -2.12,33.76 -6.35,44.83 -4.28,11.02 -11.94,20.04 -23,26.98 -11.12,6.92 -25.62,10.41 -43.66,10.41 -17.47,0 -31.8,-3.02 -42.93,-9.06 -11.15,-6.06 -19.08,-14.78 -23.83,-26.23 -4.75,-11.47 -7.14,-27.1 -7.14,-46.93l0 -108.1 24.83 0 0 108.06c0,16.25 1.53,28.27 4.53,35.94 3.02,7.72 8.16,13.68 15.51,17.82 7.32,4.19 16.31,6.27 26.88,6.27 18.13,0 31.07,-4.14 38.78,-12.37 7.72,-8.29 11.55,-24.15 11.55,-47.66l0 -108.06zm65.91 187.18l0 -187.18 25.45 0 98.2 146.92 0 -146.92 23.78 0 0 187.18 -25.44 0 -98.2 -146.92 0 146.92 -23.8 0zm193.24 0l0 -187.18 24.84 0 0 187.18 -24.84 0zm121.78 0l-72.34 -187.18 26.84 0 48.62 136.03c3.88,10.9 7.2,21.08 9.81,30.64 2.88,-10.24 6.23,-20.43 10.06,-30.64l50.45 -136.03 25.27 0 -72.99 187.18 -25.74 0zm121.55 0l0 -187.18 135.15 0 0 21.96 -110.32 0 0 57.52 103.26 0 0 21.95 -103.26 0 0 63.79 114.77 0 0 21.96 -139.6 0zm174.36 0l0 -187.18 82.96 0c16.68,0 29.36,1.7 38.03,5.06 8.67,3.35 15.59,9.27 20.78,17.78 5.18,8.49 7.76,17.91 7.76,28.19 0,13.29 -4.31,24.47 -12.89,33.58 -8.59,9.1 -21.84,14.86 -39.78,17.35 6.57,3.14 11.54,6.27 14.94,9.33 7.23,6.62 14.07,14.94 20.48,24.92l32.37 50.97 -30.93 0 -24.75 -38.95c-7.19,-11.29 -13.15,-19.88 -17.82,-25.84 -4.7,-5.97 -8.88,-10.11 -12.59,-12.51 -3.65,-2.35 -7.45,-4 -11.29,-4.96 -2.78,-0.57 -7.35,-0.88 -13.76,-0.88l-28.67 0 0 83.14 -24.83 0zm24.83 -104.57l53.17 0c11.31,0 20.13,-1.17 26.48,-3.53 6.37,-2.31 11.2,-6.04 14.47,-11.23 3.31,-5.14 4.96,-10.71 4.96,-16.78 0,-8.84 -3.18,-16.17 -9.57,-21.88 -6.41,-5.7 -16.51,-8.54 -30.33,-8.54l-59.17 0 0 61.95zm155.33 44.44l23.27 -2.08c1.08,9.41 3.65,17.13 7.72,23.17 4.05,6.02 10.33,10.9 18.82,14.65 8.49,3.7 18.08,5.57 28.7,5.57 9.47,0 17.78,-1.39 25.02,-4.23 7.23,-2.83 12.59,-6.71 16.11,-11.63 3.53,-4.92 5.32,-10.29 5.32,-16.04 0,-5.84 -1.7,-10.92 -5.1,-15.33 -3.4,-4.35 -9.02,-8.02 -16.86,-11.02 -5,-1.92 -16.12,-4.96 -33.33,-9.1 -17.21,-4.15 -29.23,-8.02 -36.11,-11.68 -8.94,-4.71 -15.56,-10.55 -19.92,-17.47 -4.4,-6.92 -6.58,-14.72 -6.58,-23.31 0,-9.49 2.7,-18.35 8.07,-26.54 5.35,-8.23 13.15,-14.47 23.48,-18.74 10.29,-4.27 21.74,-6.39 34.33,-6.39 13.86,0 26.1,2.21 36.7,6.7 10.58,4.45 18.72,11.02 24.44,19.74 5.71,8.67 8.76,18.51 9.19,29.49l-23.78 1.83c-1.26,-11.81 -5.57,-20.74 -12.94,-26.76 -7.37,-6.04 -18.25,-9.06 -32.64,-9.06 -14.98,0 -25.92,2.75 -32.77,8.24 -6.84,5.49 -10.29,12.11 -10.29,19.86 0,6.72 2.45,12.25 7.29,16.6 4.8,4.32 17.21,8.8 37.34,13.33 20.13,4.59 33.94,8.55 41.43,11.94 10.84,5.02 18.91,11.33 24.09,19.04 5.19,7.67 7.76,16.51 7.76,26.54 0,9.98 -2.82,19.31 -8.54,28.1 -5.71,8.8 -13.86,15.64 -24.53,20.52 -10.67,4.88 -22.65,7.32 -36.03,7.32 -16.9,0 -31.07,-2.49 -42.48,-7.41 -11.46,-4.92 -20.39,-12.33 -26.88,-22.27 -6.54,-9.88 -9.94,-21.09 -10.29,-33.6zm186.65 60.13l0 -187.18 24.84 0 0 187.18 -24.84 0zm68.44 0l0 -187.18 64.48 0c14.56,0 25.66,0.87 33.33,2.66 10.72,2.49 19.86,6.98 27.45,13.43 9.88,8.37 17.25,18.98 22.13,31.98 4.92,12.98 7.37,27.83 7.37,44.52 0,14.21 -1.65,26.8 -4.96,37.78 -3.32,10.98 -7.59,20.08 -12.77,27.27 -5.23,7.19 -10.89,12.84 -17.08,16.94 -6.14,4.15 -13.59,7.29 -22.3,9.41 -8.76,2.14 -18.78,3.18 -30.11,3.18l-67.54 0zm24.84 -21.96l39.91 0c12.33,0 22,-1.13 29.02,-3.44 7.01,-2.32 12.58,-5.53 16.76,-9.72 5.84,-5.89 10.43,-13.81 13.69,-23.75 3.27,-9.92 4.92,-21.95 4.92,-36.11 0,-19.61 -3.22,-34.68 -9.63,-45.23 -6.41,-10.54 -14.21,-17.6 -23.4,-21.17 -6.63,-2.57 -17.31,-3.84 -32.02,-3.84l-39.26 0 0 143.25zm143.43 21.96l71.79 -187.18 27.25 0 76.2 187.18 -28.19 0 -21.66 -56.72 -78.81 0 -20.31 56.72 -26.27 0zm53.85 -76.85l63.78 0 -19.51 -51.89c-5.88,-15.78 -10.33,-28.8 -13.43,-39.08 -2.57,12.2 -6.01,24.18 -10.33,36.03l-20.52 54.95zm141.03 76.85l0 -187.18 64.48 0c14.55,0 25.66,0.87 33.33,2.66 10.71,2.49 19.86,6.98 27.45,13.43 9.88,8.37 17.25,18.98 22.13,31.98 4.92,12.98 7.37,27.83 7.37,44.52 0,14.21 -1.65,26.8 -4.96,37.78 -3.32,10.98 -7.59,20.08 -12.78,27.27 -5.22,7.19 -10.88,12.84 -17.08,16.94 -6.14,4.15 -13.59,7.29 -22.3,9.41 -8.76,2.14 -18.78,3.18 -30.11,3.18l-67.54 0zm24.84 -21.96l39.91 0c12.33,0 22,-1.13 29.02,-3.44 7.01,-2.32 12.58,-5.53 16.76,-9.72 5.84,-5.89 10.42,-13.81 13.69,-23.75 3.27,-9.92 4.92,-21.95 4.92,-36.11 0,-19.61 -3.23,-34.68 -9.64,-45.23 -6.41,-10.54 -14.21,-17.6 -23.39,-21.17 -6.63,-2.57 -17.31,-3.84 -32.02,-3.84l-39.26 0 0 143.25z"/>
    <rect class="fil3" x="132.26" y="2127.93" width="3121.55" height="100.15"/>
   </g>
  </g>
 </g>
</svg>
