<?xml version="1.0" encoding="UTF-8" standalone="no"?>
<!DOCTYPE svg PUBLIC "-//W3C//DTD SVG 1.1//EN" "http://www.w3.org/Graphics/SVG/1.1/DTD/svg11.dtd">
<!-- Generated by Microsoft Visio, SVG Export SingleOrCollabChart.svg Page-1 -->
<svg xmlns="http://www.w3.org/2000/svg" xmlns:xlink="http://www.w3.org/1999/xlink" xmlns:ev="http://www.w3.org/2001/xml-events"
		xmlns:v="http://schemas.microsoft.com/visio/2003/SVGExtensions/" width="5.19003in" height="2.54917in"
		viewBox="0 0 373.682 183.54" xml:space="preserve" color-interpolation-filters="sRGB" class="st12">
	<v:documentProperties v:langID="1033" v:metric="true" v:viewMarkup="false"/>

	<style type="text/css">
	<![CDATA[
		.st1 {fill:#f2f2f2;stroke:none;stroke-width:1.5}
		.st2 {fill:#990000;font-family:Segoe UI;font-size:0.666664em}
		.st3 {fill:#7f7f7f;stroke:none;stroke-width:1.5}
		.st4 {fill:#ffffff;font-family:Segoe UI;font-size:0.666664em}
		.st5 {font-size:1em}
		.st6 {marker-end:url(#mrkr6-13);stroke:#990000;stroke-linecap:round;stroke-linejoin:round;stroke-width:0.5}
		.st7 {fill:#990000;fill-opacity:1;stroke:#990000;stroke-opacity:1;stroke-width:0.25773195876289}
		.st8 {marker-end:url(#mrkr6-36);stroke:#990000;stroke-linecap:round;stroke-linejoin:round;stroke-width:0.5}
		.st9 {marker-end:url(#mrkr6-36);stroke:#990000;stroke-dasharray:1.5,1.5;stroke-linecap:round;stroke-linejoin:round;stroke-width:0.5}
		.st10 {marker-end:url(#mrkr6-13);stroke:#990000;stroke-dasharray:1.5,1.5;stroke-linecap:round;stroke-linejoin:round;stroke-width:0.5}
		.st11 {fill:#000000;stroke:none;stroke-linecap:butt;stroke-width:6.375}
		.st12 {fill:none;fill-rule:evenodd;font-size:12px;overflow:visible;stroke-linecap:square;stroke-miterlimit:3}
	]]>
	</style>

	<defs id="Markers">
		<g id="lend6">
			<path d="M 2 1 L 0 0 L 2.01237 -1.00641 C 2.32921 -0.372876 2.32921 0.372869 2.01238 1.0064 " style="stroke:none"/>
		</g>
		<marker id="mrkr6-13" class="st7" v:arrowType="6" v:arrowSize="0" v:setback="8.73" refX="-8.73" orient="auto"
				markerUnits="strokeWidth" overflow="visible">
			<use xlink:href="#lend6" transform="scale(-3.88,-3.88) "/>
		</marker>
		<marker id="mrkr6-36" class="st7" v:arrowType="6" v:arrowSize="0" v:setback="8.01" refX="-8.01" orient="auto"
				markerUnits="strokeWidth" overflow="visible">
			<use xlink:href="#lend6" transform="scale(-3.88,-3.88) "/>
		</marker>
	</defs>
	<g v:mID="0" v:index="1" v:groupContext="foregroundPage">
		<title>Page-1</title>
		<v:pageProperties v:drawingScale="0.0393701" v:pageScale="0.0393701" v:drawingUnits="24" v:shadowOffsetX="8.50394"
				v:shadowOffsetY="-8.50394"/>
		<v:layer v:name="Connector" v:index="0"/>
		<g id="shape404-1" v:mID="404" v:groupContext="shape" transform="translate(125.568,-159.363)">
			<title>Rounded Rectangle.404</title>
			<desc>e-book</desc>
			<v:userDefs>
				<v:ud v:nameU="CTypeTopLeftSnip" v:prompt="" v:val="VT0(0):5"/>
				<v:ud v:nameU="CTypeTopRightSnip" v:prompt="" v:val="VT0(0):5"/>
				<v:ud v:nameU="CTypeBotLeftSnip" v:prompt="" v:val="VT0(0):5"/>
				<v:ud v:nameU="CTypeBotRightSnip" v:prompt="" v:val="VT0(0):5"/>
				<v:ud v:nameU="CornerLockHoriz" v:prompt="" v:val="VT0(1):5"/>
				<v:ud v:nameU="CornerLockVert" v:prompt="" v:val="VT0(1):5"/>
				<v:ud v:nameU="CornerLockDiag" v:prompt="" v:val="VT0(0):5"/>
				<v:ud v:nameU="TopLeftOffset" v:prompt="" v:val="VT0(0.15748031496063):24"/>
				<v:ud v:nameU="TopRightOffset" v:prompt="" v:val="VT0(0.15748031496063):24"/>
				<v:ud v:nameU="BotLeftOffset" v:prompt="" v:val="VT0(0.15748031496063):24"/>
				<v:ud v:nameU="BotRightOffset" v:prompt="" v:val="VT0(0.15748031496063):24"/>
				<v:ud v:nameU="visVersion" v:prompt="" v:val="VT0(15):26"/>
			</v:userDefs>
			<v:textBlock v:margins="rect(2,2,2,2)" v:tabSpace="42.5197"/>
			<v:textRect cx="36.8504" cy="172.202" width="73.71" height="22.6772"/>
			<path d="M11.34 183.54 L62.36 183.54 A11.3384 11.3384 -180 0 0 73.7 172.2 A11.3384 11.3384 -180 0 0 62.36 160.86 L11.34
						 160.86 A11.3384 11.3384 -180 0 0 0 172.2 A11.3384 11.3384 -180 0 0 11.34 183.54 Z" class="st1"/>
			<text x="27.42" y="174.6" class="st2" v:langID="1033"><v:paragraph v:horizAlign="1"/><v:tabList/>e-book</text>		</g>
		<g id="shape405-4" v:mID="405" v:groupContext="shape" transform="translate(125.568,-118.274)">
			<title>Rounded Rectangle.405</title>
			<desc>Creador de contenido</desc>
			<v:userDefs>
				<v:ud v:nameU="CTypeTopLeftSnip" v:prompt="" v:val="VT0(0):5"/>
				<v:ud v:nameU="CTypeTopRightSnip" v:prompt="" v:val="VT0(0):5"/>
				<v:ud v:nameU="CTypeBotLeftSnip" v:prompt="" v:val="VT0(0):5"/>
				<v:ud v:nameU="CTypeBotRightSnip" v:prompt="" v:val="VT0(0):5"/>
				<v:ud v:nameU="CornerLockHoriz" v:prompt="" v:val="VT0(1):5"/>
				<v:ud v:nameU="CornerLockVert" v:prompt="" v:val="VT0(1):5"/>
				<v:ud v:nameU="CornerLockDiag" v:prompt="" v:val="VT0(0):5"/>
				<v:ud v:nameU="TopLeftOffset" v:prompt="" v:val="VT0(0.15748031496063):24"/>
				<v:ud v:nameU="TopRightOffset" v:prompt="" v:val="VT0(0.15748031496063):24"/>
				<v:ud v:nameU="BotLeftOffset" v:prompt="" v:val="VT0(0.15748031496063):24"/>
				<v:ud v:nameU="BotRightOffset" v:prompt="" v:val="VT0(0.15748031496063):24"/>
				<v:ud v:nameU="visVersion" v:prompt="" v:val="VT0(15):26"/>
			</v:userDefs>
			<v:textBlock v:margins="rect(2,2,2,2)" v:tabSpace="42.5197"/>
			<v:textRect cx="36.8504" cy="172.202" width="73.71" height="22.6772"/>
			<path d="M11.34 183.54 L62.36 183.54 A11.3384 11.3384 -180 0 0 73.7 172.2 A11.3384 11.3384 -180 0 0 62.36 160.86 L11.34
						 160.86 A11.3384 11.3384 -180 0 0 0 172.2 A11.3384 11.3384 -180 0 0 11.34 183.54 Z" class="st3"/>
			<text x="17.22" y="169.8" class="st4" v:langID="1033"><v:paragraph v:horizAlign="1"/><v:tabList/>Creador de <tspan
						x="19.02" dy="1.2em" class="st5">contenido</tspan></text>		</g>
		<g id="shape406-8" v:mID="406" v:groupContext="shape" v:layerMember="0" transform="translate(155.332,-140.951)">
			<title>Dynamic connector.406</title>
			<v:userDefs>
				<v:ud v:nameU="visVersion" v:val="VT0(15):26"/>
			</v:userDefs>
			<path d="M7.09 183.54 C7.09 180.13 7.09 174.21 7.09 169.49" class="st6"/>
		</g>
		<g id="shape407-14" v:mID="407" v:groupContext="shape" transform="translate(32.6811,-118.261)">
			<title>Rounded Rectangle.407</title>
			<desc>Software / App</desc>
			<v:userDefs>
				<v:ud v:nameU="CTypeTopLeftSnip" v:prompt="" v:val="VT0(0):5"/>
				<v:ud v:nameU="CTypeTopRightSnip" v:prompt="" v:val="VT0(0):5"/>
				<v:ud v:nameU="CTypeBotLeftSnip" v:prompt="" v:val="VT0(0):5"/>
				<v:ud v:nameU="CTypeBotRightSnip" v:prompt="" v:val="VT0(0):5"/>
				<v:ud v:nameU="CornerLockHoriz" v:prompt="" v:val="VT0(1):5"/>
				<v:ud v:nameU="CornerLockVert" v:prompt="" v:val="VT0(1):5"/>
				<v:ud v:nameU="CornerLockDiag" v:prompt="" v:val="VT0(0):5"/>
				<v:ud v:nameU="TopLeftOffset" v:prompt="" v:val="VT0(0.15748031496063):24"/>
				<v:ud v:nameU="TopRightOffset" v:prompt="" v:val="VT0(0.15748031496063):24"/>
				<v:ud v:nameU="BotLeftOffset" v:prompt="" v:val="VT0(0.15748031496063):24"/>
				<v:ud v:nameU="BotRightOffset" v:prompt="" v:val="VT0(0.15748031496063):24"/>
				<v:ud v:nameU="visVersion" v:prompt="" v:val="VT0(15):26"/>
			</v:userDefs>
			<v:textBlock v:margins="rect(2,2,2,2)" v:tabSpace="42.5197"/>
			<v:textRect cx="36.8504" cy="172.202" width="73.71" height="22.6772"/>
			<path d="M11.34 183.54 L62.36 183.54 A11.3384 11.3384 -180 0 0 73.7 172.2 A11.3384 11.3384 -180 0 0 62.36 160.86 L11.34
						 160.86 A11.3384 11.3384 -180 0 0 0 172.2 A11.3384 11.3384 -180 0 0 11.34 183.54 Z" class="st1"/>
			<text x="12.52" y="174.6" class="st2" v:langID="1033"><v:paragraph v:horizAlign="1"/><v:tabList/>Software / App</text>		</g>
		<g id="shape408-17" v:mID="408" v:groupContext="shape" transform="translate(88.4341,-72.9066)">
			<title>Rounded Rectangle.408</title>
			<desc>Investigación</desc>
			<v:userDefs>
				<v:ud v:nameU="CTypeTopLeftSnip" v:prompt="" v:val="VT0(0):5"/>
				<v:ud v:nameU="CTypeTopRightSnip" v:prompt="" v:val="VT0(0):5"/>
				<v:ud v:nameU="CTypeBotLeftSnip" v:prompt="" v:val="VT0(0):5"/>
				<v:ud v:nameU="CTypeBotRightSnip" v:prompt="" v:val="VT0(0):5"/>
				<v:ud v:nameU="CornerLockHoriz" v:prompt="" v:val="VT0(1):5"/>
				<v:ud v:nameU="CornerLockVert" v:prompt="" v:val="VT0(1):5"/>
				<v:ud v:nameU="CornerLockDiag" v:prompt="" v:val="VT0(0):5"/>
				<v:ud v:nameU="TopLeftOffset" v:prompt="" v:val="VT0(0.15748031496063):24"/>
				<v:ud v:nameU="TopRightOffset" v:prompt="" v:val="VT0(0.15748031496063):24"/>
				<v:ud v:nameU="BotLeftOffset" v:prompt="" v:val="VT0(0.15748031496063):24"/>
				<v:ud v:nameU="BotRightOffset" v:prompt="" v:val="VT0(0.15748031496063):24"/>
				<v:ud v:nameU="visVersion" v:prompt="" v:val="VT0(15):26"/>
			</v:userDefs>
			<v:textBlock v:margins="rect(2,2,2,2)" v:tabSpace="42.5197"/>
			<v:textRect cx="36.8504" cy="172.202" width="73.71" height="22.6772"/>
			<path d="M11.34 183.54 L62.36 183.54 A11.3384 11.3384 -180 0 0 73.7 172.2 A11.3384 11.3384 -180 0 0 62.36 160.86 L11.34
						 160.86 A11.3384 11.3384 -180 0 0 0 172.2 A11.3384 11.3384 -180 0 0 11.34 183.54 Z" class="st1"/>
			<text x="16.97" y="174.6" class="st2" v:langID="1033"><v:paragraph v:horizAlign="1"/><v:tabList/>Investigación</text>		</g>
		<g id="shape409-20" v:mID="409" v:groupContext="shape" transform="translate(1.5,-72.9066)">
			<title>Rounded Rectangle.409</title>
			<desc>Artículo</desc>
			<v:userDefs>
				<v:ud v:nameU="CTypeTopLeftSnip" v:prompt="" v:val="VT0(0):5"/>
				<v:ud v:nameU="CTypeTopRightSnip" v:prompt="" v:val="VT0(0):5"/>
				<v:ud v:nameU="CTypeBotLeftSnip" v:prompt="" v:val="VT0(0):5"/>
				<v:ud v:nameU="CTypeBotRightSnip" v:prompt="" v:val="VT0(0):5"/>
				<v:ud v:nameU="CornerLockHoriz" v:prompt="" v:val="VT0(1):5"/>
				<v:ud v:nameU="CornerLockVert" v:prompt="" v:val="VT0(1):5"/>
				<v:ud v:nameU="CornerLockDiag" v:prompt="" v:val="VT0(0):5"/>
				<v:ud v:nameU="TopLeftOffset" v:prompt="" v:val="VT0(0.15748031496063):24"/>
				<v:ud v:nameU="TopRightOffset" v:prompt="" v:val="VT0(0.15748031496063):24"/>
				<v:ud v:nameU="BotLeftOffset" v:prompt="" v:val="VT0(0.15748031496063):24"/>
				<v:ud v:nameU="BotRightOffset" v:prompt="" v:val="VT0(0.15748031496063):24"/>
				<v:ud v:nameU="visVersion" v:prompt="" v:val="VT0(15):26"/>
			</v:userDefs>
			<v:textBlock v:margins="rect(2,2,2,2)" v:tabSpace="42.5197"/>
			<v:textRect cx="36.8504" cy="172.202" width="73.71" height="22.6772"/>
			<path d="M11.34 183.54 L62.36 183.54 A11.3384 11.3384 -180 0 0 73.7 172.2 A11.3384 11.3384 -180 0 0 62.36 160.86 L11.34
						 160.86 A11.3384 11.3384 -180 0 0 0 172.2 A11.3384 11.3384 -180 0 0 11.34 183.54 Z" class="st1"/>
			<text x="23.13" y="174.6" class="st2" v:langID="1033"><v:paragraph v:horizAlign="1"/><v:tabList/>Artículo</text>		</g>
		<g id="shape410-23" v:mID="410" v:groupContext="shape" transform="translate(169.505,-72.9066)">
			<title>Rounded Rectangle.410</title>
			<desc>Curso virtual</desc>
			<v:userDefs>
				<v:ud v:nameU="CTypeTopLeftSnip" v:prompt="" v:val="VT0(0):5"/>
				<v:ud v:nameU="CTypeTopRightSnip" v:prompt="" v:val="VT0(0):5"/>
				<v:ud v:nameU="CTypeBotLeftSnip" v:prompt="" v:val="VT0(0):5"/>
				<v:ud v:nameU="CTypeBotRightSnip" v:prompt="" v:val="VT0(0):5"/>
				<v:ud v:nameU="CornerLockHoriz" v:prompt="" v:val="VT0(1):5"/>
				<v:ud v:nameU="CornerLockVert" v:prompt="" v:val="VT0(1):5"/>
				<v:ud v:nameU="CornerLockDiag" v:prompt="" v:val="VT0(0):5"/>
				<v:ud v:nameU="TopLeftOffset" v:prompt="" v:val="VT0(0.15748031496063):24"/>
				<v:ud v:nameU="TopRightOffset" v:prompt="" v:val="VT0(0.15748031496063):24"/>
				<v:ud v:nameU="BotLeftOffset" v:prompt="" v:val="VT0(0.15748031496063):24"/>
				<v:ud v:nameU="BotRightOffset" v:prompt="" v:val="VT0(0.15748031496063):24"/>
				<v:ud v:nameU="visVersion" v:prompt="" v:val="VT0(15):26"/>
			</v:userDefs>
			<v:textBlock v:margins="rect(2,2,2,2)" v:tabSpace="42.5197"/>
			<v:textRect cx="36.8504" cy="172.202" width="73.71" height="22.6772"/>
			<path d="M11.34 183.54 L62.36 183.54 A11.3384 11.3384 -180 0 0 73.7 172.2 A11.3384 11.3384 -180 0 0 62.36 160.86 L11.34
						 160.86 A11.3384 11.3384 -180 0 0 0 172.2 A11.3384 11.3384 -180 0 0 11.34 183.54 Z" class="st1"/>
			<text x="17.97" y="174.6" class="st2" v:langID="1033"><v:paragraph v:horizAlign="1"/><v:tabList/>Curso virtual</text>		</g>
		<g id="shape411-26" v:mID="411" v:groupContext="shape" v:layerMember="0" transform="translate(125.568,-136.693)">
			<title>Dynamic connector.411</title>
			<v:userDefs>
				<v:ud v:nameU="visVersion" v:val="VT0(15):26"/>
			</v:userDefs>
			<path d="M0 190.62 C-5.31 190.62 -7.09 190.62 -8.59 190.62 C-9.33 190.62 -10.02 190.62 -10.34 190.62 C-10.63 190.63 -10.63
						 190.63 -10.94 190.63 C-11.21 190.63 -11.73 190.63 -12.31 190.63 C-12.94 190.63 -13.64 190.63 -14.82 190.63"
					class="st6"/>
		</g>
		<g id="shape412-31" v:mID="412" v:groupContext="shape" v:layerMember="0" transform="translate(162.418,-118.274)">
			<title>Dynamic connector.412</title>
			<v:userDefs>
				<v:ud v:nameU="visVersion" v:val="VT0(15):26"/>
			</v:userDefs>
			<path d="M0 183.54 C-0 192.82 -28.33 194 -35.5 202.18 L-35.63 202.52" class="st8"/>
		</g>
		<g id="shape413-37" v:mID="413" v:groupContext="shape" v:layerMember="0" transform="translate(158.875,-118.274)">
			<title>Dynamic connector.413</title>
			<v:userDefs>
				<v:ud v:nameU="visVersion" v:val="VT0(15):26"/>
			</v:userDefs>
			<path d="M3.54 183.54 C3.54 192.05 3.54 206.47 5.24 212.75 C5.62 214.16 6.09 215.16 6.61 215.87 L6.94 216.01"
					class="st8"/>
		</g>
		<g id="shape414-42" v:mID="414" v:groupContext="shape" v:layerMember="0" transform="translate(88.9041,-77.1586)">
			<title>Dynamic connector.414</title>
			<v:userDefs>
				<v:ud v:nameU="visVersion" v:val="VT0(15):26"/>
			</v:userDefs>
			<path d="M-0.47 176.45 C-2.63 176.45 -6.2 176.45 -9.34 176.45" class="st6"/>
		</g>
		<g id="shape415-47" v:mID="415" v:groupContext="shape" transform="translate(212.025,-159.363)">
			<title>Rounded Rectangle.415</title>
			<desc>e-book</desc>
			<v:userDefs>
				<v:ud v:nameU="CTypeTopLeftSnip" v:prompt="" v:val="VT0(0):5"/>
				<v:ud v:nameU="CTypeTopRightSnip" v:prompt="" v:val="VT0(0):5"/>
				<v:ud v:nameU="CTypeBotLeftSnip" v:prompt="" v:val="VT0(0):5"/>
				<v:ud v:nameU="CTypeBotRightSnip" v:prompt="" v:val="VT0(0):5"/>
				<v:ud v:nameU="CornerLockHoriz" v:prompt="" v:val="VT0(1):5"/>
				<v:ud v:nameU="CornerLockVert" v:prompt="" v:val="VT0(1):5"/>
				<v:ud v:nameU="CornerLockDiag" v:prompt="" v:val="VT0(0):5"/>
				<v:ud v:nameU="TopLeftOffset" v:prompt="" v:val="VT0(0.15748031496063):24"/>
				<v:ud v:nameU="TopRightOffset" v:prompt="" v:val="VT0(0.15748031496063):24"/>
				<v:ud v:nameU="BotLeftOffset" v:prompt="" v:val="VT0(0.15748031496063):24"/>
				<v:ud v:nameU="BotRightOffset" v:prompt="" v:val="VT0(0.15748031496063):24"/>
				<v:ud v:nameU="visVersion" v:prompt="" v:val="VT0(15):26"/>
			</v:userDefs>
			<v:textBlock v:margins="rect(2,2,2,2)" v:tabSpace="42.5197"/>
			<v:textRect cx="36.8504" cy="172.202" width="73.71" height="22.6772"/>
			<path d="M11.34 183.54 L62.36 183.54 A11.3384 11.3384 -180 0 0 73.7 172.2 A11.3384 11.3384 -180 0 0 62.36 160.86 L11.34
						 160.86 A11.3384 11.3384 -180 0 0 0 172.2 A11.3384 11.3384 -180 0 0 11.34 183.54 Z" class="st1"/>
			<text x="27.42" y="174.6" class="st2" v:langID="1033"><v:paragraph v:horizAlign="1"/><v:tabList/>e-book</text>		</g>
		<g id="shape416-50" v:mID="416" v:groupContext="shape" transform="translate(212.025,-117.218)">
			<title>Rounded Rectangle.416</title>
			<desc>Creador de contenido</desc>
			<v:userDefs>
				<v:ud v:nameU="CTypeTopLeftSnip" v:prompt="" v:val="VT0(0):5"/>
				<v:ud v:nameU="CTypeTopRightSnip" v:prompt="" v:val="VT0(0):5"/>
				<v:ud v:nameU="CTypeBotLeftSnip" v:prompt="" v:val="VT0(0):5"/>
				<v:ud v:nameU="CTypeBotRightSnip" v:prompt="" v:val="VT0(0):5"/>
				<v:ud v:nameU="CornerLockHoriz" v:prompt="" v:val="VT0(1):5"/>
				<v:ud v:nameU="CornerLockVert" v:prompt="" v:val="VT0(1):5"/>
				<v:ud v:nameU="CornerLockDiag" v:prompt="" v:val="VT0(0):5"/>
				<v:ud v:nameU="TopLeftOffset" v:prompt="" v:val="VT0(0.15748031496063):24"/>
				<v:ud v:nameU="TopRightOffset" v:prompt="" v:val="VT0(0.15748031496063):24"/>
				<v:ud v:nameU="BotLeftOffset" v:prompt="" v:val="VT0(0.15748031496063):24"/>
				<v:ud v:nameU="BotRightOffset" v:prompt="" v:val="VT0(0.15748031496063):24"/>
				<v:ud v:nameU="visVersion" v:prompt="" v:val="VT0(15):26"/>
			</v:userDefs>
			<v:textBlock v:margins="rect(2,2,2,2)" v:tabSpace="42.5197"/>
			<v:textRect cx="36.8504" cy="172.202" width="73.71" height="22.6772"/>
			<path d="M11.34 183.54 L62.36 183.54 A11.3384 11.3384 -180 0 0 73.7 172.2 A11.3384 11.3384 -180 0 0 62.36 160.86 L11.34
						 160.86 A11.3384 11.3384 -180 0 0 0 172.2 A11.3384 11.3384 -180 0 0 11.34 183.54 Z" class="st3"/>
			<text x="17.22" y="169.8" class="st4" v:langID="1033"><v:paragraph v:horizAlign="1"/><v:tabList/>Creador de <tspan
						x="19.02" dy="1.2em" class="st5">contenido</tspan></text>		</g>
		<g id="shape417-54" v:mID="417" v:groupContext="shape" v:layerMember="0" transform="translate(241.788,-139.895)">
			<title>Dynamic connector.417</title>
			<v:userDefs>
				<v:ud v:nameU="visVersion" v:val="VT0(15):26"/>
			</v:userDefs>
			<path d="M7.09 183.54 C7.09 179.88 7.09 173.46 7.09 168.44" class="st6"/>
		</g>
		<g id="shape419-59" v:mID="419" v:groupContext="shape" transform="translate(259.453,-72.9066)">
			<title>Rounded Rectangle.419</title>
			<desc>Investigación</desc>
			<v:userDefs>
				<v:ud v:nameU="CTypeTopLeftSnip" v:prompt="" v:val="VT0(0):5"/>
				<v:ud v:nameU="CTypeTopRightSnip" v:prompt="" v:val="VT0(0):5"/>
				<v:ud v:nameU="CTypeBotLeftSnip" v:prompt="" v:val="VT0(0):5"/>
				<v:ud v:nameU="CTypeBotRightSnip" v:prompt="" v:val="VT0(0):5"/>
				<v:ud v:nameU="CornerLockHoriz" v:prompt="" v:val="VT0(1):5"/>
				<v:ud v:nameU="CornerLockVert" v:prompt="" v:val="VT0(1):5"/>
				<v:ud v:nameU="CornerLockDiag" v:prompt="" v:val="VT0(0):5"/>
				<v:ud v:nameU="TopLeftOffset" v:prompt="" v:val="VT0(0.15748031496063):24"/>
				<v:ud v:nameU="TopRightOffset" v:prompt="" v:val="VT0(0.15748031496063):24"/>
				<v:ud v:nameU="BotLeftOffset" v:prompt="" v:val="VT0(0.15748031496063):24"/>
				<v:ud v:nameU="BotRightOffset" v:prompt="" v:val="VT0(0.15748031496063):24"/>
				<v:ud v:nameU="visVersion" v:prompt="" v:val="VT0(15):26"/>
			</v:userDefs>
			<v:textBlock v:margins="rect(2,2,2,2)" v:tabSpace="42.5197"/>
			<v:textRect cx="36.8504" cy="172.202" width="73.71" height="22.6772"/>
			<path d="M11.34 183.54 L62.36 183.54 A11.3384 11.3384 -180 0 0 73.7 172.2 A11.3384 11.3384 -180 0 0 62.36 160.86 L11.34
						 160.86 A11.3384 11.3384 -180 0 0 0 172.2 A11.3384 11.3384 -180 0 0 11.34 183.54 Z" class="st1"/>
			<text x="16.97" y="174.6" class="st2" v:langID="1033"><v:paragraph v:horizAlign="1"/><v:tabList/>Investigación</text>		</g>
		<g id="shape423-62" v:mID="423" v:groupContext="shape" v:layerMember="0" transform="translate(248.875,-117.218)">
			<title>Dynamic connector.423</title>
			<v:userDefs>
				<v:ud v:nameU="visVersion" v:val="VT0(15):26"/>
			</v:userDefs>
			<path d="M0 183.54 C-0 192.79 35.91 193.99 45.24 201.4 L45.42 201.71" class="st8"/>
		</g>
		<g id="shape426-67" v:mID="426" v:groupContext="shape" v:layerMember="0" transform="translate(253.127,-117.218)">
			<title>Dynamic connector.426</title>
			<v:userDefs>
				<v:ud v:nameU="visVersion" v:val="VT0(15):26"/>
			</v:userDefs>
			<path d="M-4.25 183.54 C-4.25 191.78 -4.25 198.8 -4.25 205.07 C-4.25 209.53 -4.25 213.6 -5.71 215.36 L-6.06 215.45"
					class="st9"/>
		</g>
		<g id="shape427-72" v:mID="427" v:groupContext="shape" v:layerMember="0" transform="translate(212.733,-128.556)">
			<title>Dynamic connector.427</title>
			<v:userDefs>
				<v:ud v:nameU="visVersion" v:val="VT0(15):26"/>
			</v:userDefs>
			<path d="M-0.71 183.54 C-6.02 183.54 -6.02 173.04 -6.02 162.55 C-6.02 154.42 -6.02 146.3 -9.39 142.97 L-9.73 142.84"
					class="st9"/>
		</g>
		<g id="shape429-77" v:mID="429" v:groupContext="shape" transform="translate(169.505,-34.0984)">
			<title>Rounded Rectangle.429</title>
			<desc>Creador de contenido</desc>
			<v:userDefs>
				<v:ud v:nameU="CTypeTopLeftSnip" v:prompt="" v:val="VT0(0):5"/>
				<v:ud v:nameU="CTypeTopRightSnip" v:prompt="" v:val="VT0(0):5"/>
				<v:ud v:nameU="CTypeBotLeftSnip" v:prompt="" v:val="VT0(0):5"/>
				<v:ud v:nameU="CTypeBotRightSnip" v:prompt="" v:val="VT0(0):5"/>
				<v:ud v:nameU="CornerLockHoriz" v:prompt="" v:val="VT0(1):5"/>
				<v:ud v:nameU="CornerLockVert" v:prompt="" v:val="VT0(1):5"/>
				<v:ud v:nameU="CornerLockDiag" v:prompt="" v:val="VT0(0):5"/>
				<v:ud v:nameU="TopLeftOffset" v:prompt="" v:val="VT0(0.15748031496063):24"/>
				<v:ud v:nameU="TopRightOffset" v:prompt="" v:val="VT0(0.15748031496063):24"/>
				<v:ud v:nameU="BotLeftOffset" v:prompt="" v:val="VT0(0.15748031496063):24"/>
				<v:ud v:nameU="BotRightOffset" v:prompt="" v:val="VT0(0.15748031496063):24"/>
				<v:ud v:nameU="visVersion" v:prompt="" v:val="VT0(15):26"/>
			</v:userDefs>
			<v:textBlock v:margins="rect(2,2,2,2)" v:tabSpace="42.5197"/>
			<v:textRect cx="36.8504" cy="172.202" width="73.71" height="22.6772"/>
			<path d="M11.34 183.54 L62.36 183.54 A11.3384 11.3384 -180 0 0 73.7 172.2 A11.3384 11.3384 -180 0 0 62.36 160.86 L11.34
						 160.86 A11.3384 11.3384 -180 0 0 0 172.2 A11.3384 11.3384 -180 0 0 11.34 183.54 Z" class="st3"/>
			<text x="17.22" y="169.8" class="st4" v:langID="1033"><v:paragraph v:horizAlign="1"/><v:tabList/>Creador de <tspan
						x="19.02" dy="1.2em" class="st5">contenido</tspan></text>		</g>
		<g id="shape430-81" v:mID="430" v:groupContext="shape" v:layerMember="0" transform="translate(199.269,-56.7756)">
			<title>Dynamic connector.430</title>
			<v:userDefs>
				<v:ud v:nameU="visVersion" v:val="VT0(15):26"/>
			</v:userDefs>
			<path d="M7.09 183.54 C7.09 180.69 7.09 175.81 7.09 171.77" class="st10"/>
		</g>
		<g id="shape431-86" v:mID="431" v:groupContext="shape" transform="translate(259.453,-34.0984)">
			<title>Rounded Rectangle.431</title>
			<desc>Software / App</desc>
			<v:userDefs>
				<v:ud v:nameU="CTypeTopLeftSnip" v:prompt="" v:val="VT0(0):5"/>
				<v:ud v:nameU="CTypeTopRightSnip" v:prompt="" v:val="VT0(0):5"/>
				<v:ud v:nameU="CTypeBotLeftSnip" v:prompt="" v:val="VT0(0):5"/>
				<v:ud v:nameU="CTypeBotRightSnip" v:prompt="" v:val="VT0(0):5"/>
				<v:ud v:nameU="CornerLockHoriz" v:prompt="" v:val="VT0(1):5"/>
				<v:ud v:nameU="CornerLockVert" v:prompt="" v:val="VT0(1):5"/>
				<v:ud v:nameU="CornerLockDiag" v:prompt="" v:val="VT0(0):5"/>
				<v:ud v:nameU="TopLeftOffset" v:prompt="" v:val="VT0(0.15748031496063):24"/>
				<v:ud v:nameU="TopRightOffset" v:prompt="" v:val="VT0(0.15748031496063):24"/>
				<v:ud v:nameU="BotLeftOffset" v:prompt="" v:val="VT0(0.15748031496063):24"/>
				<v:ud v:nameU="BotRightOffset" v:prompt="" v:val="VT0(0.15748031496063):24"/>
				<v:ud v:nameU="visVersion" v:prompt="" v:val="VT0(15):26"/>
			</v:userDefs>
			<v:textBlock v:margins="rect(2,2,2,2)" v:tabSpace="42.5197"/>
			<v:textRect cx="36.8504" cy="172.202" width="73.71" height="22.6772"/>
			<path d="M11.34 183.54 L62.36 183.54 A11.3384 11.3384 -180 0 0 73.7 172.2 A11.3384 11.3384 -180 0 0 62.36 160.86 L11.34
						 160.86 A11.3384 11.3384 -180 0 0 0 172.2 A11.3384 11.3384 -180 0 0 11.34 183.54 Z" class="st1"/>
			<text x="13.62" y="174.6" class="st2" v:langID="1033"><v:paragraph v:horizAlign="1"/><v:tabList/>Software / App</text>		</g>
		<g id="shape432-89" v:mID="432" v:groupContext="shape" v:layerMember="0" transform="translate(243.206,-38.3504)">
			<title>Dynamic connector.432</title>
			<v:userDefs>
				<v:ud v:nameU="visVersion" v:val="VT0(15):26"/>
			</v:userDefs>
			<path d="M0 176.45 C2.88 176.45 7.81 176.45 11.88 176.45" class="st6"/>
		</g>
		<g id="shape433-94" v:mID="433" v:groupContext="shape" transform="translate(88.4341,-34.0984)">
			<title>Rounded Rectangle.433</title>
			<desc>Creador de contenido</desc>
			<v:userDefs>
				<v:ud v:nameU="CTypeTopLeftSnip" v:prompt="" v:val="VT0(0):5"/>
				<v:ud v:nameU="CTypeTopRightSnip" v:prompt="" v:val="VT0(0):5"/>
				<v:ud v:nameU="CTypeBotLeftSnip" v:prompt="" v:val="VT0(0):5"/>
				<v:ud v:nameU="CTypeBotRightSnip" v:prompt="" v:val="VT0(0):5"/>
				<v:ud v:nameU="CornerLockHoriz" v:prompt="" v:val="VT0(1):5"/>
				<v:ud v:nameU="CornerLockVert" v:prompt="" v:val="VT0(1):5"/>
				<v:ud v:nameU="CornerLockDiag" v:prompt="" v:val="VT0(0):5"/>
				<v:ud v:nameU="TopLeftOffset" v:prompt="" v:val="VT0(0.15748031496063):24"/>
				<v:ud v:nameU="TopRightOffset" v:prompt="" v:val="VT0(0.15748031496063):24"/>
				<v:ud v:nameU="BotLeftOffset" v:prompt="" v:val="VT0(0.15748031496063):24"/>
				<v:ud v:nameU="BotRightOffset" v:prompt="" v:val="VT0(0.15748031496063):24"/>
				<v:ud v:nameU="visVersion" v:prompt="" v:val="VT0(15):26"/>
			</v:userDefs>
			<v:textBlock v:margins="rect(2,2,2,2)" v:tabSpace="42.5197"/>
			<v:textRect cx="36.8504" cy="172.202" width="73.71" height="22.6772"/>
			<path d="M11.34 183.54 L62.36 183.54 A11.3384 11.3384 -180 0 0 73.7 172.2 A11.3384 11.3384 -180 0 0 62.36 160.86 L11.34
						 160.86 A11.3384 11.3384 -180 0 0 0 172.2 A11.3384 11.3384 -180 0 0 11.34 183.54 Z" class="st3"/>
			<text x="17.22" y="169.8" class="st4" v:langID="1033"><v:paragraph v:horizAlign="1"/><v:tabList/>Creador de <tspan
						x="19.02" dy="1.2em" class="st5">contenido</tspan></text>		</g>
		<g id="shape434-98" v:mID="434" v:groupContext="shape" v:layerMember="0" transform="translate(118.198,-56.7756)">
			<title>Dynamic connector.434</title>
			<v:userDefs>
				<v:ud v:nameU="visVersion" v:val="VT0(15):26"/>
			</v:userDefs>
			<path d="M7.09 183.54 C7.09 180.69 7.09 175.81 7.09 171.77" class="st6"/>
		</g>
		<g id="shape435-103" v:mID="435" v:groupContext="shape" transform="translate(169.505,-1.5)">
			<title>Rounded Rectangle.435</title>
			<desc>Curso virtual</desc>
			<v:userDefs>
				<v:ud v:nameU="CTypeTopLeftSnip" v:prompt="" v:val="VT0(0):5"/>
				<v:ud v:nameU="CTypeTopRightSnip" v:prompt="" v:val="VT0(0):5"/>
				<v:ud v:nameU="CTypeBotLeftSnip" v:prompt="" v:val="VT0(0):5"/>
				<v:ud v:nameU="CTypeBotRightSnip" v:prompt="" v:val="VT0(0):5"/>
				<v:ud v:nameU="CornerLockHoriz" v:prompt="" v:val="VT0(1):5"/>
				<v:ud v:nameU="CornerLockVert" v:prompt="" v:val="VT0(1):5"/>
				<v:ud v:nameU="CornerLockDiag" v:prompt="" v:val="VT0(0):5"/>
				<v:ud v:nameU="TopLeftOffset" v:prompt="" v:val="VT0(0.15748031496063):24"/>
				<v:ud v:nameU="TopRightOffset" v:prompt="" v:val="VT0(0.15748031496063):24"/>
				<v:ud v:nameU="BotLeftOffset" v:prompt="" v:val="VT0(0.15748031496063):24"/>
				<v:ud v:nameU="BotRightOffset" v:prompt="" v:val="VT0(0.15748031496063):24"/>
				<v:ud v:nameU="visVersion" v:prompt="" v:val="VT0(15):26"/>
			</v:userDefs>
			<v:textBlock v:margins="rect(2,2,2,2)" v:tabSpace="42.5197"/>
			<v:textRect cx="36.8504" cy="172.202" width="73.71" height="22.6772"/>
			<path d="M11.34 183.54 L62.36 183.54 A11.3384 11.3384 -180 0 0 73.7 172.2 A11.3384 11.3384 -180 0 0 62.36 160.86 L11.34
						 160.86 A11.3384 11.3384 -180 0 0 0 172.2 A11.3384 11.3384 -180 0 0 11.34 183.54 Z" class="st1"/>
			<text x="17.97" y="174.6" class="st2" v:langID="1033"><v:paragraph v:horizAlign="1"/><v:tabList/>Curso virtual</text>		</g>
		<g id="shape436-106" v:mID="436" v:groupContext="shape" v:layerMember="0" transform="translate(199.269,-36.2244)">
			<title>Dynamic connector.436</title>
			<v:userDefs>
				<v:ud v:nameU="visVersion" v:val="VT0(15):26"/>
			</v:userDefs>
			<path d="M7.09 185.67 C7.09 187.04 7.09 189.17 7.09 191.22" class="st6"/>
		</g>
		<g id="shape437-111" v:mID="437" v:groupContext="shape" transform="translate(298.481,-117.218)">
			<title>Rounded Rectangle.437</title>
			<desc>Curso virtual</desc>
			<v:userDefs>
				<v:ud v:nameU="CTypeTopLeftSnip" v:prompt="" v:val="VT0(0):5"/>
				<v:ud v:nameU="CTypeTopRightSnip" v:prompt="" v:val="VT0(0):5"/>
				<v:ud v:nameU="CTypeBotLeftSnip" v:prompt="" v:val="VT0(0):5"/>
				<v:ud v:nameU="CTypeBotRightSnip" v:prompt="" v:val="VT0(0):5"/>
				<v:ud v:nameU="CornerLockHoriz" v:prompt="" v:val="VT0(1):5"/>
				<v:ud v:nameU="CornerLockVert" v:prompt="" v:val="VT0(1):5"/>
				<v:ud v:nameU="CornerLockDiag" v:prompt="" v:val="VT0(0):5"/>
				<v:ud v:nameU="TopLeftOffset" v:prompt="" v:val="VT0(0.15748031496063):24"/>
				<v:ud v:nameU="TopRightOffset" v:prompt="" v:val="VT0(0.15748031496063):24"/>
				<v:ud v:nameU="BotLeftOffset" v:prompt="" v:val="VT0(0.15748031496063):24"/>
				<v:ud v:nameU="BotRightOffset" v:prompt="" v:val="VT0(0.15748031496063):24"/>
				<v:ud v:nameU="visVersion" v:prompt="" v:val="VT0(15):26"/>
			</v:userDefs>
			<v:textBlock v:margins="rect(2,2,2,2)" v:tabSpace="42.5197"/>
			<v:textRect cx="36.8504" cy="172.202" width="73.71" height="22.6772"/>
			<path d="M11.34 183.54 L62.36 183.54 A11.3384 11.3384 -180 0 0 73.7 172.2 A11.3384 11.3384 -180 0 0 62.36 160.86 L11.34
						 160.86 A11.3384 11.3384 -180 0 0 0 172.2 A11.3384 11.3384 -180 0 0 11.34 183.54 Z" class="st1"/>
			<text x="17.97" y="174.6" class="st2" v:langID="1033"><v:paragraph v:horizAlign="1"/><v:tabList/>Curso virtual</text>		</g>
		<g id="shape438-114" v:mID="438" v:groupContext="shape" v:layerMember="0" transform="translate(285.017,-121.47)">
			<title>Dynamic connector.438</title>
			<v:userDefs>
				<v:ud v:nameU="visVersion" v:val="VT0(15):26"/>
			</v:userDefs>
			<path d="M0.71 176.45 C2.75 176.45 6.11 176.45 9.1 176.45" class="st6"/>
		</g>
		<g id="group439-119" transform="translate(134.728,-165.263)" v:mID="439" v:groupContext="group">
			<title>Sheet.439</title>
			<g id="shape440-120" v:mID="440" v:groupContext="shape">
				<title>Sheet.440</title>
				<path d="M11.66 176.49 L10.95 176.23 L10.95 174.74 L11.66 174.44 L6.84 172.66 L0.99 174.72 C0.42 174.99 0.41 175.74
							 0.41 176.36 C0.41 176.56 0.44 176.77 0.48 176.96 C0.01 177.26 0 177.96 0 178.55 C0 179.03 0.11 179.46
							 0.41 179.74 C0.34 179.97 0.38 180.26 0.38 180.6 C0.38 181.21 0.55 181.78 1.09 181.97 L4.9 183.54 L11.63
							 180.75 L10.92 180.49 L10.92 178.98 L11.63 178.68 L10.53 178.27 L10.53 176.96 L11.66 176.49 ZM1.15 175.67
							 L4.95 177.16 L10.41 174.96 L10.41 176.14 L4.95 178.41 L1.15 176.9 L1.15 175.67 ZM10.38 180.39 L4.93
							 182.65 L1.11 181.15 L1.11 180.08 L4.51 181.47 L10.4 179.15 L10.38 180.39 ZM10 178.34 L4.54 180.6 L0.74
							 179.09 L0.74 177.86 L4.65 179.42 L10.01 177.18 L10.01 178.34 L10 178.34 Z" class="st11"/>
			</g>
		</g>
		<g id="group441-122" transform="translate(222.284,-165.263)" v:mID="441" v:groupContext="group">
			<title>Sheet.441</title>
			<g id="shape442-123" v:mID="442" v:groupContext="shape">
				<title>Sheet.442</title>
				<path d="M11.66 176.49 L10.95 176.23 L10.95 174.74 L11.66 174.44 L6.84 172.66 L0.99 174.72 C0.42 174.99 0.41 175.74
							 0.41 176.36 C0.41 176.56 0.44 176.77 0.48 176.96 C0.01 177.26 0 177.96 0 178.55 C0 179.03 0.11 179.46
							 0.41 179.74 C0.34 179.97 0.38 180.26 0.38 180.6 C0.38 181.21 0.55 181.78 1.09 181.97 L4.9 183.54 L11.63
							 180.75 L10.92 180.49 L10.92 178.98 L11.63 178.68 L10.53 178.27 L10.53 176.96 L11.66 176.49 ZM1.15 175.67
							 L4.95 177.16 L10.41 174.96 L10.41 176.14 L4.95 178.41 L1.15 176.9 L1.15 175.67 ZM10.38 180.39 L4.93
							 182.65 L1.11 181.15 L1.11 180.08 L4.51 181.47 L10.4 179.15 L10.38 180.39 ZM10 178.34 L4.54 180.6 L0.74
							 179.09 L0.74 177.86 L4.65 179.42 L10.01 177.18 L10.01 178.34 L10 178.34 Z" class="st11"/>
			</g>
		</g>
		<g id="group443-125" transform="translate(93.5026,-75.8559)" v:mID="443" v:groupContext="group">
			<title>Sheet.443</title>
			<g id="shape444-126" v:mID="444" v:groupContext="shape" transform="translate(4.00421,-17.0127)">
				<title>Sheet.444</title>
				<ellipse cx="0.622416" cy="182.918" rx="0.622416" ry="0.622416" class="st11"/>
			</g>
			<g id="shape445-128" v:mID="445" v:groupContext="shape" transform="translate(5.04157,-15.1454)">
				<title>Sheet.445</title>
				<ellipse cx="0.622416" cy="182.918" rx="0.622416" ry="0.622416" class="st11"/>
			</g>
			<g id="shape446-130" v:mID="446" v:groupContext="shape" transform="translate(2.75938,-15.5604)">
				<title>Sheet.446</title>
				<ellipse cx="0.622416" cy="182.918" rx="0.622416" ry="0.622416" class="st11"/>
			</g>
			<g id="shape447-132" v:mID="447" v:groupContext="shape" transform="translate(2.96685,-13.0707)">
				<title>Sheet.447</title>
				<ellipse cx="0.829888" cy="182.711" rx="0.829888" ry="0.829888" class="st11"/>
			</g>
			<g id="shape448-134" v:mID="448" v:groupContext="shape">
				<title>Sheet.448</title>
				<path d="M8.26 181.8 L5.87 176.4 L5.87 172.75 C5.87 172.01 6.47 171.69 6.49 171.67 C6.7 171.57 6.78 171.32 6.68 171.11
							 C6.6 170.97 6.45 170.88 6.29 170.88 L2.14 170.88 C1.97 170.88 1.83 170.97 1.74 171.11 C1.64 171.32 1.72
							 171.57 1.93 171.67 C1.93 171.67 2.55 172.01 2.55 172.75 L2.55 176.4 L0.17 181.8 C0 182.19 0.04 182.63
							 0.27 182.98 C0.5 183.33 0.89 183.54 1.31 183.54 L7.12 183.54 C7.53 183.54 7.93 183.33 8.15 182.98 C8.38
							 182.63 8.42 182.19 8.26 181.8 ZM5.04 172.75 L5.04 173.58 L3.38 173.58 L3.38 172.75 C3.38 172.32 3.26
							 171.98 3.11 171.71 L5.33 171.71 C5.17 171.98 5.04 172.32 5.04 172.75 Z" class="st11"/>
			</g>
		</g>
		<g id="group449-136" transform="translate(264.744,-75.9668)" v:mID="449" v:groupContext="group">
			<title>Sheet.449</title>
			<g id="shape450-137" v:mID="450" v:groupContext="shape" transform="translate(4.00421,-17.0127)">
				<title>Sheet.450</title>
				<ellipse cx="0.622416" cy="182.918" rx="0.622416" ry="0.622416" class="st11"/>
			</g>
			<g id="shape451-139" v:mID="451" v:groupContext="shape" transform="translate(5.04157,-15.1454)">
				<title>Sheet.451</title>
				<ellipse cx="0.622416" cy="182.918" rx="0.622416" ry="0.622416" class="st11"/>
			</g>
			<g id="shape452-141" v:mID="452" v:groupContext="shape" transform="translate(2.75938,-15.5604)">
				<title>Sheet.452</title>
				<ellipse cx="0.622416" cy="182.918" rx="0.622416" ry="0.622416" class="st11"/>
			</g>
			<g id="shape453-143" v:mID="453" v:groupContext="shape" transform="translate(2.96685,-13.0707)">
				<title>Sheet.453</title>
				<ellipse cx="0.829888" cy="182.711" rx="0.829888" ry="0.829888" class="st11"/>
			</g>
			<g id="shape454-145" v:mID="454" v:groupContext="shape">
				<title>Sheet.454</title>
				<path d="M8.26 181.8 L5.87 176.4 L5.87 172.75 C5.87 172.01 6.47 171.69 6.49 171.67 C6.7 171.57 6.78 171.32 6.68 171.11
							 C6.6 170.97 6.45 170.88 6.29 170.88 L2.14 170.88 C1.97 170.88 1.83 170.97 1.74 171.11 C1.64 171.32 1.72
							 171.57 1.93 171.67 C1.93 171.67 2.55 172.01 2.55 172.75 L2.55 176.4 L0.17 181.8 C0 182.19 0.04 182.63
							 0.27 182.98 C0.5 183.33 0.89 183.54 1.31 183.54 L7.12 183.54 C7.53 183.54 7.93 183.33 8.15 182.98 C8.38
							 182.63 8.42 182.19 8.26 181.8 ZM5.04 172.75 L5.04 173.58 L3.38 173.58 L3.38 172.75 C3.38 172.32 3.26
							 171.98 3.11 171.71 L5.33 171.71 C5.17 171.98 5.04 172.32 5.04 172.75 Z" class="st11"/>
			</g>
		</g>
		<g id="group455-147" transform="translate(174.413,-79.6206)" v:mID="455" v:groupContext="group">
			<title>Sheet.455</title>
			<g id="shape456-148" v:mID="456" v:groupContext="shape">
				<title>Sheet.456</title>
				<path d="M10.07 181.09 L0.82 181.09 L0.82 175.11 L10.07 175.11 L10.07 181.09 ZM10.34 174.29 L0.54 174.29 C0.24 174.29
							 0 174.54 0 174.84 L0 181.36 C0 181.66 0.24 181.91 0.54 181.91 L4.35 181.91 L4.35 182.72 L2.99 182.72
							 L2.99 183.54 L7.89 183.54 L7.89 182.72 L6.53 182.72 L6.53 181.91 L10.34 181.91 C10.64 181.91 10.88 181.66
							 10.88 181.36 L10.88 174.84 C10.88 174.54 10.64 174.29 10.34 174.29 Z" class="st11"/>
			</g>
		</g>
		<g id="group457-150" transform="translate(174.413,-8.21398)" v:mID="457" v:groupContext="group">
			<title>Sheet.457</title>
			<g id="shape458-151" v:mID="458" v:groupContext="shape">
				<title>Sheet.458</title>
				<path d="M10.07 181.09 L0.82 181.09 L0.82 175.11 L10.07 175.11 L10.07 181.09 ZM10.34 174.29 L0.54 174.29 C0.24 174.29
							 0 174.54 0 174.84 L0 181.36 C0 181.66 0.24 181.91 0.54 181.91 L4.35 181.91 L4.35 182.72 L2.99 182.72
							 L2.99 183.54 L7.89 183.54 L7.89 182.72 L6.53 182.72 L6.53 181.91 L10.34 181.91 C10.64 181.91 10.88 181.66
							 10.88 181.36 L10.88 174.84 C10.88 174.54 10.64 174.29 10.34 174.29 Z" class="st11"/>
			</g>
		</g>
		<g id="group459-153" transform="translate(264.413,-39.5906)" v:mID="459" v:groupContext="group">
			<title>Sheet.459</title>
			<g id="shape460-154" v:mID="460" v:groupContext="shape">
				<title>Sheet.460</title>
				<path d="M5.58 181.95 L0.8 181.95 L0.8 173.44 L5.58 173.44 L5.58 181.95 ZM2.66 172.38 L3.72 172.38 C3.87 172.38 3.99
							 172.5 3.99 172.64 C3.99 172.79 3.87 172.91 3.72 172.91 L2.66 172.91 C2.51 172.91 2.39 172.79 2.39 172.64
							 C2.39 172.5 2.51 172.38 2.66 172.38 ZM6.11 171.85 L0.27 171.85 C0.12 171.85 0 171.97 0 172.11 L0 183.27
							 C0 183.42 0.12 183.54 0.27 183.54 L6.11 183.54 C6.26 183.54 6.38 183.42 6.38 183.27 L6.38 172.11 C6.38
							 171.97 6.26 171.85 6.11 171.85 Z" class="st11"/>
			</g>
		</g>
		<g id="group461-156" transform="translate(36.5787,-123.753)" v:mID="461" v:groupContext="group">
			<title>Sheet.461</title>
			<g id="shape462-157" v:mID="462" v:groupContext="shape">
				<title>Sheet.462</title>
				<path d="M5.58 181.95 L0.8 181.95 L0.8 173.44 L5.58 173.44 L5.58 181.95 ZM2.66 172.38 L3.72 172.38 C3.87 172.38 3.99
							 172.5 3.99 172.64 C3.99 172.79 3.87 172.91 3.72 172.91 L2.66 172.91 C2.51 172.91 2.39 172.79 2.39 172.64
							 C2.39 172.5 2.51 172.38 2.66 172.38 ZM6.11 171.85 L0.27 171.85 C0.12 171.85 0 171.97 0 172.11 L0 183.27
							 C0 183.42 0.12 183.54 0.27 183.54 L6.11 183.54 C6.26 183.54 6.38 183.42 6.38 183.27 L6.38 172.11 C6.38
							 171.97 6.26 171.85 6.11 171.85 Z" class="st11"/>
			</g>
		</g>
		<g id="group463-159" transform="translate(8.6268,-78.8108)" v:mID="463" v:groupContext="group">
			<title>Sheet.463</title>
			<g id="shape464-160" v:mID="464" v:groupContext="shape">
				<title>Sheet.464</title>
				<path d="M0.82 182.73 L0.82 173.49 L4.21 173.49 L4.21 176.34 L7.61 176.34 L7.61 182.73 L0.82 182.73 ZM5.03 173.83
							 L6.73 175.52 L5.03 175.52 L5.03 173.83 ZM5.03 172.67 L0 172.67 L0 183.54 L8.42 183.54 L8.42 175.66 L5.03
							 172.67 Z" class="st11"/>
			</g>
			<g id="shape465-162" v:mID="465" v:groupContext="shape" transform="translate(1.63033,-5.29856)">
				<title>Sheet.465</title>
				<rect x="0" y="182.997" width="5.1627" height="0.543443" class="st11"/>
			</g>
			<g id="shape466-164" v:mID="466" v:groupContext="shape" transform="translate(1.63033,-6.38545)">
				<title>Sheet.466</title>
				<rect x="0" y="182.997" width="1.76619" height="0.543443" class="st11"/>
			</g>
			<g id="shape467-166" v:mID="467" v:groupContext="shape" transform="translate(1.63033,-4.21168)">
				<title>Sheet.467</title>
				<rect x="0" y="182.997" width="5.1627" height="0.543443" class="st11"/>
			</g>
			<g id="shape468-168" v:mID="468" v:groupContext="shape" transform="translate(1.63033,-3.12479)">
				<title>Sheet.468</title>
				<rect x="0" y="182.997" width="5.1627" height="0.543443" class="st11"/>
			</g>
			<g id="shape469-170" v:mID="469" v:groupContext="shape" transform="translate(1.63033,-2.03791)">
				<title>Sheet.469</title>
				<rect x="0" y="182.997" width="5.1627" height="0.543443" class="st11"/>
			</g>
		</g>
		<g id="group470-172" transform="translate(303.618,-123.932)" v:mID="470" v:groupContext="group">
			<title>Sheet.470</title>
			<g id="shape471-173" v:mID="471" v:groupContext="shape">
				<title>Sheet.471</title>
				<path d="M10.07 181.09 L0.82 181.09 L0.82 175.11 L10.07 175.11 L10.07 181.09 ZM10.34 174.29 L0.54 174.29 C0.24 174.29
							 0 174.54 0 174.84 L0 181.36 C0 181.66 0.24 181.91 0.54 181.91 L4.35 181.91 L4.35 182.72 L2.99 182.72
							 L2.99 183.54 L7.89 183.54 L7.89 182.72 L6.53 182.72 L6.53 181.91 L10.34 181.91 C10.64 181.91 10.88 181.66
							 10.88 181.36 L10.88 174.84 C10.88 174.54 10.64 174.29 10.34 174.29 Z" class="st11"/>
			</g>
		</g>
		<g id="group472-175" transform="translate(128.344,-122.168)" v:mID="472" v:groupContext="group">
			<title>Sheet.472</title>
			<g id="shape473-176" v:mID="473" v:groupContext="shape">
				<title>Sheet.473</title>
				<path d="M8.43 174.91 L6.8 174.91 C6.11 174.91 5.54 175.46 5.54 176.15 L5.54 177.5 L4.72 177.5 L4.72 176.43 C4.72
							 176.04 4.74 175.55 4.46 175.24 C4.3 175.05 4.12 174.91 3.91 174.76 C3.77 174.67 3.62 174.56 3.51 174.41
							 C3.46 174.34 3.42 174.25 3.38 174.16 C3.6 174.07 3.84 174.05 4.06 174.07 C4.17 174.07 4.26 173.99 4.26
							 173.88 C4.28 173.77 4.21 173.68 4.12 173.64 C3.84 173.61 3.55 173.64 3.27 173.74 C3.27 173.7 3.27 173.66
							 3.26 173.64 C3.24 173.48 3.27 173.32 3.31 173.15 C3.46 172.77 3.82 172.6 4.17 172.47 C4.23 172.46 4.3
							 172.44 4.39 172.42 L4.44 172.4 L4.46 172.4 C4.55 172.42 4.63 172.44 4.7 172.46 L4.79 172.47 L4.9 172.49
							 C5.09 172.71 5.18 172.99 5.16 173.26 C5.14 173.53 5.01 173.79 4.79 173.97 C4.72 174.05 4.7 174.18 4.77
							 174.27 C4.85 174.34 4.96 174.36 5.05 174.28 C5.18 174.18 5.29 174.05 5.36 173.9 L5.38 173.9 C5.69 173.86
							 6 173.77 6.27 173.63 C6.31 173.59 6.35 173.55 6.37 173.5 C6.38 173.44 6.37 173.39 6.33 173.35 C6.26
							 173.26 6.15 173.24 6.05 173.3 C5.89 173.39 5.73 173.46 5.52 173.48 C5.54 173.43 5.56 173.35 5.56 173.3
							 C5.58 173.06 5.54 172.82 5.45 172.62 C5.6 172.64 5.74 172.66 5.89 172.66 C6.02 172.66 6.15 172.64 6.27
							 172.62 C6.51 172.91 6.82 173.11 7.19 173.21 C7.66 173.44 8.1 173.75 8.1 174.27 C8.1 174.34 8.14 174.43
							 8.19 174.47 C8.27 174.5 8.34 174.5 8.41 174.47 C8.49 174.43 8.52 174.34 8.51 174.27 C8.51 173.86 8.32
							 173.5 8.01 173.26 C8.27 173.24 8.49 173.11 8.65 172.93 C8.73 172.84 8.71 172.71 8.63 172.64 C8.54 172.57
							 8.41 172.58 8.34 172.66 C8.25 172.77 8.01 172.86 7.66 172.84 C7.32 172.84 6.97 172.71 6.71 172.49 C7.01
							 172.36 7.26 172.14 7.43 171.87 C7.48 171.78 7.44 171.65 7.35 171.58 C7.26 171.52 7.13 171.56 7.08 171.65
							 C6.77 172.22 6.11 172.38 5.07 172.13 C5.3 171.93 5.41 171.61 5.38 171.3 C5.38 171.23 5.34 171.16 5.27
							 171.12 C5.19 171.08 5.12 171.08 5.05 171.14 C4.98 171.18 4.96 171.27 4.96 171.34 C4.98 171.82 4.72 171.91
							 4.3 172.04 C4.24 172.05 4.17 172.07 4.12 172.09 C4.01 171.83 3.77 171.63 3.49 171.56 C3.42 171.54 3.35
							 171.56 3.29 171.61 C3.24 171.67 3.22 171.74 3.24 171.83 C3.26 171.91 3.31 171.96 3.4 171.98 C3.55 172.02
							 3.66 172.13 3.73 172.25 L3.73 172.27 C3.38 172.42 3.11 172.69 2.98 173.04 C2.94 173.11 2.93 173.21 2.93
							 173.3 C2.89 173.26 2.85 173.22 2.84 173.17 C2.76 173.02 2.71 172.84 2.69 172.68 C2.67 172.6 2.62 172.53
							 2.56 172.51 C2.49 172.47 2.41 172.49 2.36 172.55 C2.3 172.6 2.27 172.68 2.3 172.75 C2.34 172.97 2.4
							 173.17 2.51 173.35 C2.62 173.53 2.76 173.68 2.96 173.77 C2.98 174.03 3.07 174.28 3.2 174.52 C3.07 174.69
							 2.91 174.82 2.73 174.93 C2.67 174.96 2.63 175.03 2.62 175.11 C2.62 175.18 2.65 175.25 2.73 175.29 C2.8
							 175.33 2.87 175.33 2.93 175.27 C3.11 175.14 3.27 175.02 3.42 174.85 C3.53 174.94 3.64 175.02 3.75 175.09
							 C3.93 175.2 4.08 175.33 4.23 175.49 C4.39 175.69 4.39 176.08 4.39 176.41 L4.39 177.5 L3.55 177.5 C3.55
							 176.15 2.89 176.08 2.82 176.04 C2.54 175.97 1.83 175.58 1.66 174.82 C1.65 174.78 1.65 174.72 1.65 174.69
							 C1.34 174.25 1.35 173.64 1.7 173.22 C1.66 173.1 1.65 172.97 1.65 172.84 C1.65 172.25 2.07 171.74 2.65
							 171.63 C2.84 171.12 3.31 170.77 3.84 170.79 C3.93 170.79 4.04 170.81 4.13 170.83 C4.35 170.57 4.66 170.43
							 5.01 170.39 C5.36 170.37 5.69 170.48 5.94 170.72 C6.27 170.5 6.68 170.44 7.04 170.55 C7.43 170.66 7.72
							 170.96 7.85 171.32 L7.92 171.32 C8.62 171.32 9.16 171.87 9.18 172.57 L9.18 172.62 C9.6 172.86 9.84 173.32
							 9.8 173.79 C9.66 174.43 9.09 174.93 8.43 174.91 ZM12.33 176.83 L11.07 174.65 L11.07 174.58 C11.14 172.57
							 10.12 170.68 8.38 169.68 C6.64 168.65 4.5 168.65 2.76 169.68 C1.02 170.68 0 172.57 0.07 174.58 C0.07
							 176.3 0.86 177.92 2.23 178.97 L2.23 183.54 L8.01 183.54 L8.01 181.36 L8.91 181.36 C9.49 181.36 10.04
							 181.14 10.44 180.72 C10.85 180.32 11.07 179.75 11.07 179.19 L11.07 178.09 L11.87 178.09 C12.35 178.05
							 12.77 177.5 12.33 176.83 Z" class="st11"/>
			</g>
		</g>
		<g id="group474-178" transform="translate(215.652,-121.112)" v:mID="474" v:groupContext="group">
			<title>Sheet.474</title>
			<g id="shape475-179" v:mID="475" v:groupContext="shape">
				<title>Sheet.475</title>
				<path d="M8.43 174.91 L6.8 174.91 C6.11 174.91 5.54 175.46 5.54 176.15 L5.54 177.5 L4.72 177.5 L4.72 176.43 C4.72
							 176.04 4.74 175.55 4.46 175.24 C4.3 175.05 4.12 174.91 3.91 174.76 C3.77 174.67 3.62 174.56 3.51 174.41
							 C3.46 174.34 3.42 174.25 3.38 174.16 C3.6 174.07 3.84 174.05 4.06 174.07 C4.17 174.07 4.26 173.99 4.26
							 173.88 C4.28 173.77 4.21 173.68 4.12 173.64 C3.84 173.61 3.55 173.64 3.27 173.74 C3.27 173.7 3.27 173.66
							 3.26 173.64 C3.24 173.48 3.27 173.32 3.31 173.15 C3.46 172.77 3.82 172.6 4.17 172.47 C4.23 172.46 4.3
							 172.44 4.39 172.42 L4.44 172.4 L4.46 172.4 C4.55 172.42 4.63 172.44 4.7 172.46 L4.79 172.47 L4.9 172.49
							 C5.09 172.71 5.18 172.99 5.16 173.26 C5.14 173.53 5.01 173.79 4.79 173.97 C4.72 174.05 4.7 174.18 4.77
							 174.27 C4.85 174.34 4.96 174.36 5.05 174.28 C5.18 174.18 5.29 174.05 5.36 173.9 L5.38 173.9 C5.69 173.86
							 6 173.77 6.27 173.63 C6.31 173.59 6.35 173.55 6.37 173.5 C6.38 173.44 6.37 173.39 6.33 173.35 C6.26
							 173.26 6.15 173.24 6.05 173.3 C5.89 173.39 5.73 173.46 5.52 173.48 C5.54 173.43 5.56 173.35 5.56 173.3
							 C5.58 173.06 5.54 172.82 5.45 172.62 C5.6 172.64 5.74 172.66 5.89 172.66 C6.02 172.66 6.15 172.64 6.27
							 172.62 C6.51 172.91 6.82 173.11 7.19 173.21 C7.66 173.44 8.1 173.75 8.1 174.27 C8.1 174.34 8.14 174.43
							 8.19 174.47 C8.27 174.5 8.34 174.5 8.41 174.47 C8.49 174.43 8.52 174.34 8.51 174.27 C8.51 173.86 8.32
							 173.5 8.01 173.26 C8.27 173.24 8.49 173.11 8.65 172.93 C8.73 172.84 8.71 172.71 8.63 172.64 C8.54 172.57
							 8.41 172.58 8.34 172.66 C8.25 172.77 8.01 172.86 7.66 172.84 C7.32 172.84 6.97 172.71 6.71 172.49 C7.01
							 172.36 7.26 172.14 7.43 171.87 C7.48 171.78 7.44 171.65 7.35 171.58 C7.26 171.52 7.13 171.56 7.08 171.65
							 C6.77 172.22 6.11 172.38 5.07 172.13 C5.3 171.93 5.41 171.61 5.38 171.3 C5.38 171.23 5.34 171.16 5.27
							 171.12 C5.19 171.08 5.12 171.08 5.05 171.14 C4.98 171.18 4.96 171.27 4.96 171.34 C4.98 171.82 4.72 171.91
							 4.3 172.04 C4.24 172.05 4.17 172.07 4.12 172.09 C4.01 171.83 3.77 171.63 3.49 171.56 C3.42 171.54 3.35
							 171.56 3.29 171.61 C3.24 171.67 3.22 171.74 3.24 171.83 C3.26 171.91 3.31 171.96 3.4 171.98 C3.55 172.02
							 3.66 172.13 3.73 172.25 L3.73 172.27 C3.38 172.42 3.11 172.69 2.98 173.04 C2.94 173.11 2.93 173.21 2.93
							 173.3 C2.89 173.26 2.85 173.22 2.84 173.17 C2.76 173.02 2.71 172.84 2.69 172.68 C2.67 172.6 2.62 172.53
							 2.56 172.51 C2.49 172.47 2.41 172.49 2.36 172.55 C2.3 172.6 2.27 172.68 2.3 172.75 C2.34 172.97 2.4
							 173.17 2.51 173.35 C2.62 173.53 2.76 173.68 2.96 173.77 C2.98 174.03 3.07 174.28 3.2 174.52 C3.07 174.69
							 2.91 174.82 2.73 174.93 C2.67 174.96 2.63 175.03 2.62 175.11 C2.62 175.18 2.65 175.25 2.73 175.29 C2.8
							 175.33 2.87 175.33 2.93 175.27 C3.11 175.14 3.27 175.02 3.42 174.85 C3.53 174.94 3.64 175.02 3.75 175.09
							 C3.93 175.2 4.08 175.33 4.23 175.49 C4.39 175.69 4.39 176.08 4.39 176.41 L4.39 177.5 L3.55 177.5 C3.55
							 176.15 2.89 176.08 2.82 176.04 C2.54 175.97 1.83 175.58 1.66 174.82 C1.65 174.78 1.65 174.72 1.65 174.69
							 C1.34 174.25 1.35 173.64 1.7 173.22 C1.66 173.1 1.65 172.97 1.65 172.84 C1.65 172.25 2.07 171.74 2.65
							 171.63 C2.84 171.12 3.31 170.77 3.84 170.79 C3.93 170.79 4.04 170.81 4.13 170.83 C4.35 170.57 4.66 170.43
							 5.01 170.39 C5.36 170.37 5.69 170.48 5.94 170.72 C6.27 170.5 6.68 170.44 7.04 170.55 C7.43 170.66 7.72
							 170.96 7.85 171.32 L7.92 171.32 C8.62 171.32 9.16 171.87 9.18 172.57 L9.18 172.62 C9.6 172.86 9.84 173.32
							 9.8 173.79 C9.66 174.43 9.09 174.93 8.43 174.91 ZM12.33 176.83 L11.07 174.65 L11.07 174.58 C11.14 172.57
							 10.12 170.68 8.38 169.68 C6.64 168.65 4.5 168.65 2.76 169.68 C1.02 170.68 0 172.57 0.07 174.58 C0.07
							 176.3 0.86 177.92 2.23 178.97 L2.23 183.54 L8.01 183.54 L8.01 181.36 L8.91 181.36 C9.49 181.36 10.04
							 181.14 10.44 180.72 C10.85 180.32 11.07 179.75 11.07 179.19 L11.07 178.09 L11.87 178.09 C12.35 178.05
							 12.77 177.5 12.33 176.83 Z" class="st11"/>
			</g>
		</g>
		<g id="group476-181" transform="translate(172.984,-37.9923)" v:mID="476" v:groupContext="group">
			<title>Sheet.476</title>
			<g id="shape477-182" v:mID="477" v:groupContext="shape">
				<title>Sheet.477</title>
				<path d="M8.43 174.91 L6.8 174.91 C6.11 174.91 5.54 175.46 5.54 176.15 L5.54 177.5 L4.72 177.5 L4.72 176.43 C4.72
							 176.04 4.74 175.55 4.46 175.24 C4.3 175.05 4.12 174.91 3.91 174.76 C3.77 174.67 3.62 174.56 3.51 174.41
							 C3.46 174.34 3.42 174.25 3.38 174.16 C3.6 174.07 3.84 174.05 4.06 174.07 C4.17 174.07 4.26 173.99 4.26
							 173.88 C4.28 173.77 4.21 173.68 4.12 173.64 C3.84 173.61 3.55 173.64 3.27 173.74 C3.27 173.7 3.27 173.66
							 3.26 173.64 C3.24 173.48 3.27 173.32 3.31 173.15 C3.46 172.77 3.82 172.6 4.17 172.47 C4.23 172.46 4.3
							 172.44 4.39 172.42 L4.44 172.4 L4.46 172.4 C4.55 172.42 4.63 172.44 4.7 172.46 L4.79 172.47 L4.9 172.49
							 C5.09 172.71 5.18 172.99 5.16 173.26 C5.14 173.53 5.01 173.79 4.79 173.97 C4.72 174.05 4.7 174.18 4.77
							 174.27 C4.85 174.34 4.96 174.36 5.05 174.28 C5.18 174.18 5.29 174.05 5.36 173.9 L5.38 173.9 C5.69 173.86
							 6 173.77 6.27 173.63 C6.31 173.59 6.35 173.55 6.37 173.5 C6.38 173.44 6.37 173.39 6.33 173.35 C6.26
							 173.26 6.15 173.24 6.05 173.3 C5.89 173.39 5.73 173.46 5.52 173.48 C5.54 173.43 5.56 173.35 5.56 173.3
							 C5.58 173.06 5.54 172.82 5.45 172.62 C5.6 172.64 5.74 172.66 5.89 172.66 C6.02 172.66 6.15 172.64 6.27
							 172.62 C6.51 172.91 6.82 173.11 7.19 173.21 C7.66 173.44 8.1 173.75 8.1 174.27 C8.1 174.34 8.14 174.43
							 8.19 174.47 C8.27 174.5 8.34 174.5 8.41 174.47 C8.49 174.43 8.52 174.34 8.51 174.27 C8.51 173.86 8.32
							 173.5 8.01 173.26 C8.27 173.24 8.49 173.11 8.65 172.93 C8.73 172.84 8.71 172.71 8.63 172.64 C8.54 172.57
							 8.41 172.58 8.34 172.66 C8.25 172.77 8.01 172.86 7.66 172.84 C7.32 172.84 6.97 172.71 6.71 172.49 C7.01
							 172.36 7.26 172.14 7.43 171.87 C7.48 171.78 7.44 171.65 7.35 171.58 C7.26 171.52 7.13 171.56 7.08 171.65
							 C6.77 172.22 6.11 172.38 5.07 172.13 C5.3 171.93 5.41 171.61 5.38 171.3 C5.38 171.23 5.34 171.16 5.27
							 171.12 C5.19 171.08 5.12 171.08 5.05 171.14 C4.98 171.18 4.96 171.27 4.96 171.34 C4.98 171.82 4.72 171.91
							 4.3 172.04 C4.24 172.05 4.17 172.07 4.12 172.09 C4.01 171.83 3.77 171.63 3.49 171.56 C3.42 171.54 3.35
							 171.56 3.29 171.61 C3.24 171.67 3.22 171.74 3.24 171.83 C3.26 171.91 3.31 171.96 3.4 171.98 C3.55 172.02
							 3.66 172.13 3.73 172.25 L3.73 172.27 C3.38 172.42 3.11 172.69 2.98 173.04 C2.94 173.11 2.93 173.21 2.93
							 173.3 C2.89 173.26 2.85 173.22 2.84 173.17 C2.76 173.02 2.71 172.84 2.69 172.68 C2.67 172.6 2.62 172.53
							 2.56 172.51 C2.49 172.47 2.41 172.49 2.36 172.55 C2.3 172.6 2.27 172.68 2.3 172.75 C2.34 172.97 2.4
							 173.17 2.51 173.35 C2.62 173.53 2.76 173.68 2.96 173.77 C2.98 174.03 3.07 174.28 3.2 174.52 C3.07 174.69
							 2.91 174.82 2.73 174.93 C2.67 174.96 2.63 175.03 2.62 175.11 C2.62 175.18 2.65 175.25 2.73 175.29 C2.8
							 175.33 2.87 175.33 2.93 175.27 C3.11 175.14 3.27 175.02 3.42 174.85 C3.53 174.94 3.64 175.02 3.75 175.09
							 C3.93 175.2 4.08 175.33 4.23 175.49 C4.39 175.69 4.39 176.08 4.39 176.41 L4.39 177.5 L3.55 177.5 C3.55
							 176.15 2.89 176.08 2.82 176.04 C2.54 175.97 1.83 175.58 1.66 174.82 C1.65 174.78 1.65 174.72 1.65 174.69
							 C1.34 174.25 1.35 173.64 1.7 173.22 C1.66 173.1 1.65 172.97 1.65 172.84 C1.65 172.25 2.07 171.74 2.65
							 171.63 C2.84 171.12 3.31 170.77 3.84 170.79 C3.93 170.79 4.04 170.81 4.13 170.83 C4.35 170.57 4.66 170.43
							 5.01 170.39 C5.36 170.37 5.69 170.48 5.94 170.72 C6.27 170.5 6.68 170.44 7.04 170.55 C7.43 170.66 7.72
							 170.96 7.85 171.32 L7.92 171.32 C8.62 171.32 9.16 171.87 9.18 172.57 L9.18 172.62 C9.6 172.86 9.84 173.32
							 9.8 173.79 C9.66 174.43 9.09 174.93 8.43 174.91 ZM12.33 176.83 L11.07 174.65 L11.07 174.58 C11.14 172.57
							 10.12 170.68 8.38 169.68 C6.64 168.65 4.5 168.65 2.76 169.68 C1.02 170.68 0 172.57 0.07 174.58 C0.07
							 176.3 0.86 177.92 2.23 178.97 L2.23 183.54 L8.01 183.54 L8.01 181.36 L8.91 181.36 C9.49 181.36 10.04
							 181.14 10.44 180.72 C10.85 180.32 11.07 179.75 11.07 179.19 L11.07 178.09 L11.87 178.09 C12.35 178.05
							 12.77 177.5 12.33 176.83 Z" class="st11"/>
			</g>
		</g>
		<g id="group478-184" transform="translate(91.3306,-37.9923)" v:mID="478" v:groupContext="group">
			<title>Sheet.478</title>
			<g id="shape479-185" v:mID="479" v:groupContext="shape">
				<title>Sheet.479</title>
				<path d="M8.43 174.91 L6.8 174.91 C6.11 174.91 5.54 175.46 5.54 176.15 L5.54 177.5 L4.72 177.5 L4.72 176.43 C4.72
							 176.04 4.74 175.55 4.46 175.24 C4.3 175.05 4.12 174.91 3.91 174.76 C3.77 174.67 3.62 174.56 3.51 174.41
							 C3.46 174.34 3.42 174.25 3.38 174.16 C3.6 174.07 3.84 174.05 4.06 174.07 C4.17 174.07 4.26 173.99 4.26
							 173.88 C4.28 173.77 4.21 173.68 4.12 173.64 C3.84 173.61 3.55 173.64 3.27 173.74 C3.27 173.7 3.27 173.66
							 3.26 173.64 C3.24 173.48 3.27 173.32 3.31 173.15 C3.46 172.77 3.82 172.6 4.17 172.47 C4.23 172.46 4.3
							 172.44 4.39 172.42 L4.44 172.4 L4.46 172.4 C4.55 172.42 4.63 172.44 4.7 172.46 L4.79 172.47 L4.9 172.49
							 C5.09 172.71 5.18 172.99 5.16 173.26 C5.14 173.53 5.01 173.79 4.79 173.97 C4.72 174.05 4.7 174.18 4.77
							 174.27 C4.85 174.34 4.96 174.36 5.05 174.28 C5.18 174.18 5.29 174.05 5.36 173.9 L5.38 173.9 C5.69 173.86
							 6 173.77 6.27 173.63 C6.31 173.59 6.35 173.55 6.37 173.5 C6.38 173.44 6.37 173.39 6.33 173.35 C6.26
							 173.26 6.15 173.24 6.05 173.3 C5.89 173.39 5.73 173.46 5.52 173.48 C5.54 173.43 5.56 173.35 5.56 173.3
							 C5.58 173.06 5.54 172.82 5.45 172.62 C5.6 172.64 5.74 172.66 5.89 172.66 C6.02 172.66 6.15 172.64 6.27
							 172.62 C6.51 172.91 6.82 173.11 7.19 173.21 C7.66 173.44 8.1 173.75 8.1 174.27 C8.1 174.34 8.14 174.43
							 8.19 174.47 C8.27 174.5 8.34 174.5 8.41 174.47 C8.49 174.43 8.52 174.34 8.51 174.27 C8.51 173.86 8.32
							 173.5 8.01 173.26 C8.27 173.24 8.49 173.11 8.65 172.93 C8.73 172.84 8.71 172.71 8.63 172.64 C8.54 172.57
							 8.41 172.58 8.34 172.66 C8.25 172.77 8.01 172.86 7.66 172.84 C7.32 172.84 6.97 172.71 6.71 172.49 C7.01
							 172.36 7.26 172.14 7.43 171.87 C7.48 171.78 7.44 171.65 7.35 171.58 C7.26 171.52 7.13 171.56 7.08 171.65
							 C6.77 172.22 6.11 172.38 5.07 172.13 C5.3 171.93 5.41 171.61 5.38 171.3 C5.38 171.23 5.34 171.16 5.27
							 171.12 C5.19 171.08 5.12 171.08 5.05 171.14 C4.98 171.18 4.96 171.27 4.96 171.34 C4.98 171.82 4.72 171.91
							 4.3 172.04 C4.24 172.05 4.17 172.07 4.12 172.09 C4.01 171.83 3.77 171.63 3.49 171.56 C3.42 171.54 3.35
							 171.56 3.29 171.61 C3.24 171.67 3.22 171.74 3.24 171.83 C3.26 171.91 3.31 171.96 3.4 171.98 C3.55 172.02
							 3.66 172.13 3.73 172.25 L3.73 172.27 C3.38 172.42 3.11 172.69 2.98 173.04 C2.94 173.11 2.93 173.21 2.93
							 173.3 C2.89 173.26 2.85 173.22 2.84 173.17 C2.76 173.02 2.71 172.84 2.69 172.68 C2.67 172.6 2.62 172.53
							 2.56 172.51 C2.49 172.47 2.41 172.49 2.36 172.55 C2.3 172.6 2.27 172.68 2.3 172.75 C2.34 172.97 2.4
							 173.17 2.51 173.35 C2.62 173.53 2.76 173.68 2.96 173.77 C2.98 174.03 3.07 174.28 3.2 174.52 C3.07 174.69
							 2.91 174.82 2.73 174.93 C2.67 174.96 2.63 175.03 2.62 175.11 C2.62 175.18 2.65 175.25 2.73 175.29 C2.8
							 175.33 2.87 175.33 2.93 175.27 C3.11 175.14 3.27 175.02 3.42 174.85 C3.53 174.94 3.64 175.02 3.75 175.09
							 C3.93 175.2 4.08 175.33 4.23 175.49 C4.39 175.69 4.39 176.08 4.39 176.41 L4.39 177.5 L3.55 177.5 C3.55
							 176.15 2.89 176.08 2.82 176.04 C2.54 175.97 1.83 175.58 1.66 174.82 C1.65 174.78 1.65 174.72 1.65 174.69
							 C1.34 174.25 1.35 173.64 1.7 173.22 C1.66 173.1 1.65 172.97 1.65 172.84 C1.65 172.25 2.07 171.74 2.65
							 171.63 C2.84 171.12 3.31 170.77 3.84 170.79 C3.93 170.79 4.04 170.81 4.13 170.83 C4.35 170.57 4.66 170.43
							 5.01 170.39 C5.36 170.37 5.69 170.48 5.94 170.72 C6.27 170.5 6.68 170.44 7.04 170.55 C7.43 170.66 7.72
							 170.96 7.85 171.32 L7.92 171.32 C8.62 171.32 9.16 171.87 9.18 172.57 L9.18 172.62 C9.6 172.86 9.84 173.32
							 9.8 173.79 C9.66 174.43 9.09 174.93 8.43 174.91 ZM12.33 176.83 L11.07 174.65 L11.07 174.58 C11.14 172.57
							 10.12 170.68 8.38 169.68 C6.64 168.65 4.5 168.65 2.76 169.68 C1.02 170.68 0 172.57 0.07 174.58 C0.07
							 176.3 0.86 177.92 2.23 178.97 L2.23 183.54 L8.01 183.54 L8.01 181.36 L8.91 181.36 C9.49 181.36 10.04
							 181.14 10.44 180.72 C10.85 180.32 11.07 179.75 11.07 179.19 L11.07 178.09 L11.87 178.09 C12.35 178.05
							 12.77 177.5 12.33 176.83 Z" class="st11"/>
			</g>
		</g>
	</g>
</svg>
