<?xml version="1.0" encoding="UTF-8" standalone="no"?>
<!DOCTYPE svg PUBLIC "-//W3C//DTD SVG 1.1//EN" "http://www.w3.org/Graphics/SVG/1.1/DTD/svg11.dtd">
<!-- Generated by Microsoft Visio, SVG Export SingleOrCollabChart.svg Page-1 -->
<svg xmlns="http://www.w3.org/2000/svg" xmlns:xlink="http://www.w3.org/1999/xlink" xmlns:ev="http://www.w3.org/2001/xml-events"
		xmlns:v="http://schemas.microsoft.com/visio/2003/SVGExtensions/" width="4.46562in" height="2.54917in"
		viewBox="0 0 321.525 183.54" xml:space="preserve" color-interpolation-filters="sRGB" class="st11">
	<v:documentProperties v:langID="1033" v:metric="true" v:viewMarkup="false"/>

	<style type="text/css">
	<![CDATA[
		.st1 {fill:#f2f2f2;stroke:none;stroke-width:1.5}
		.st2 {fill:#990000;font-family:Segoe UI;font-size:0.666664em}
		.st3 {fill:#7f7f7f;stroke:none;stroke-width:1.5}
		.st4 {fill:#ffffff;font-family:Segoe UI;font-size:0.666664em}
		.st5 {font-size:1em}
		.st6 {marker-end:url(#mrkr6-13);stroke:#990000;stroke-linecap:round;stroke-linejoin:round;stroke-width:0.5}
		.st7 {fill:#990000;fill-opacity:1;stroke:#990000;stroke-opacity:1;stroke-width:0.25773195876289}
		.st8 {marker-end:url(#mrkr6-37);stroke:#990000;stroke-linecap:round;stroke-linejoin:round;stroke-width:0.5}
		.st9 {marker-end:url(#mrkr6-37);stroke:#990000;stroke-dasharray:1.5,1.5;stroke-linecap:round;stroke-linejoin:round;stroke-width:0.5}
		.st10 {marker-end:url(#mrkr6-13);stroke:#990000;stroke-dasharray:1.5,1.5;stroke-linecap:round;stroke-linejoin:round;stroke-width:0.5}
		.st11 {fill:none;fill-rule:evenodd;font-size:12px;overflow:visible;stroke-linecap:square;stroke-miterlimit:3}
	]]>
	</style>

	<defs id="Markers">
		<g id="lend6">
			<path d="M 2 1 L 0 0 L 2.01237 -1.00641 C 2.32921 -0.372876 2.32921 0.372869 2.01238 1.0064 " style="stroke:none"/>
		</g>
		<marker id="mrkr6-13" class="st7" v:arrowType="6" v:arrowSize="0" v:setback="8.73" refX="-8.73" orient="auto"
				markerUnits="strokeWidth" overflow="visible">
			<use xlink:href="#lend6" transform="scale(-3.88,-3.88) "/>
		</marker>
		<marker id="mrkr6-37" class="st7" v:arrowType="6" v:arrowSize="0" v:setback="8.01" refX="-8.01" orient="auto"
				markerUnits="strokeWidth" overflow="visible">
			<use xlink:href="#lend6" transform="scale(-3.88,-3.88) "/>
		</marker>
	</defs>
	<g v:mID="0" v:index="1" v:groupContext="foregroundPage">
		<title>Page-1</title>
		<v:pageProperties v:drawingScale="0.0393701" v:pageScale="0.0393701" v:drawingUnits="24" v:shadowOffsetX="8.50394"
				v:shadowOffsetY="-8.50394"/>
		<v:layer v:name="Connector" v:index="0"/>
		<g id="shape404-1" v:mID="404" v:groupContext="shape" transform="translate(102.891,-159.363)">
			<title>Rounded Rectangle.404</title>
			<desc>e-book</desc>
			<v:userDefs>
				<v:ud v:nameU="CTypeTopLeftSnip" v:prompt="" v:val="VT0(0):5"/>
				<v:ud v:nameU="CTypeTopRightSnip" v:prompt="" v:val="VT0(0):5"/>
				<v:ud v:nameU="CTypeBotLeftSnip" v:prompt="" v:val="VT0(0):5"/>
				<v:ud v:nameU="CTypeBotRightSnip" v:prompt="" v:val="VT0(0):5"/>
				<v:ud v:nameU="CornerLockHoriz" v:prompt="" v:val="VT0(1):5"/>
				<v:ud v:nameU="CornerLockVert" v:prompt="" v:val="VT0(1):5"/>
				<v:ud v:nameU="CornerLockDiag" v:prompt="" v:val="VT0(0):5"/>
				<v:ud v:nameU="TopLeftOffset" v:prompt="" v:val="VT0(0.15748031496063):24"/>
				<v:ud v:nameU="TopRightOffset" v:prompt="" v:val="VT0(0.15748031496063):24"/>
				<v:ud v:nameU="BotLeftOffset" v:prompt="" v:val="VT0(0.15748031496063):24"/>
				<v:ud v:nameU="BotRightOffset" v:prompt="" v:val="VT0(0.15748031496063):24"/>
				<v:ud v:nameU="visVersion" v:prompt="" v:val="VT0(15):26"/>
			</v:userDefs>
			<v:textBlock v:margins="rect(2,2,2,2)" v:tabSpace="42.5197"/>
			<v:textRect cx="28.3465" cy="172.202" width="56.7" height="22.6772"/>
			<path d="M11.34 183.54 L45.35 183.54 A11.3384 11.3384 -180 0 0 56.69 172.2 A11.3384 11.3384 -180 0 0 45.35 160.86 L11.34
						 160.86 A11.3384 11.3384 -180 0 0 0 172.2 A11.3384 11.3384 -180 0 0 11.34 183.54 Z" class="st1"/>
			<text x="15.63" y="174.6" class="st2" v:langID="1033"><v:paragraph v:horizAlign="1"/><v:tabList/>e-book</text>		</g>
		<g id="shape405-4" v:mID="405" v:groupContext="shape" transform="translate(102.891,-118.274)">
			<title>Rounded Rectangle.405</title>
			<desc>Creador de contenido</desc>
			<v:userDefs>
				<v:ud v:nameU="CTypeTopLeftSnip" v:prompt="" v:val="VT0(0):5"/>
				<v:ud v:nameU="CTypeTopRightSnip" v:prompt="" v:val="VT0(0):5"/>
				<v:ud v:nameU="CTypeBotLeftSnip" v:prompt="" v:val="VT0(0):5"/>
				<v:ud v:nameU="CTypeBotRightSnip" v:prompt="" v:val="VT0(0):5"/>
				<v:ud v:nameU="CornerLockHoriz" v:prompt="" v:val="VT0(1):5"/>
				<v:ud v:nameU="CornerLockVert" v:prompt="" v:val="VT0(1):5"/>
				<v:ud v:nameU="CornerLockDiag" v:prompt="" v:val="VT0(0):5"/>
				<v:ud v:nameU="TopLeftOffset" v:prompt="" v:val="VT0(0.15748031496063):24"/>
				<v:ud v:nameU="TopRightOffset" v:prompt="" v:val="VT0(0.15748031496063):24"/>
				<v:ud v:nameU="BotLeftOffset" v:prompt="" v:val="VT0(0.15748031496063):24"/>
				<v:ud v:nameU="BotRightOffset" v:prompt="" v:val="VT0(0.15748031496063):24"/>
				<v:ud v:nameU="visVersion" v:prompt="" v:val="VT0(15):26"/>
			</v:userDefs>
			<v:textBlock v:margins="rect(2,2,2,2)" v:tabSpace="42.5197"/>
			<v:textRect cx="28.3465" cy="172.202" width="56.7" height="22.6772"/>
			<path d="M11.34 183.54 L45.35 183.54 A11.3384 11.3384 -180 0 0 56.69 172.2 A11.3384 11.3384 -180 0 0 45.35 160.86 L11.34
						 160.86 A11.3384 11.3384 -180 0 0 0 172.2 A11.3384 11.3384 -180 0 0 11.34 183.54 Z" class="st3"/>
			<text x="8.72" y="169.8" class="st4" v:langID="1033"><v:paragraph v:horizAlign="1"/><v:tabList/>Creador de <tspan
						x="10.51" dy="1.2em" class="st5">contenido</tspan></text>		</g>
		<g id="shape406-8" v:mID="406" v:groupContext="shape" v:layerMember="0" transform="translate(124.151,-140.951)">
			<title>Dynamic connector.406</title>
			<v:userDefs>
				<v:ud v:nameU="visVersion" v:val="VT0(15):26"/>
			</v:userDefs>
			<path d="M7.09 183.54 C7.09 180.13 7.09 174.21 7.09 169.49" class="st6"/>
		</g>
		<g id="shape407-14" v:mID="407" v:groupContext="shape" transform="translate(28.7275,-118.261)">
			<title>Rounded Rectangle.407</title>
			<desc>Software / App</desc>
			<v:userDefs>
				<v:ud v:nameU="CTypeTopLeftSnip" v:prompt="" v:val="VT0(0):5"/>
				<v:ud v:nameU="CTypeTopRightSnip" v:prompt="" v:val="VT0(0):5"/>
				<v:ud v:nameU="CTypeBotLeftSnip" v:prompt="" v:val="VT0(0):5"/>
				<v:ud v:nameU="CTypeBotRightSnip" v:prompt="" v:val="VT0(0):5"/>
				<v:ud v:nameU="CornerLockHoriz" v:prompt="" v:val="VT0(1):5"/>
				<v:ud v:nameU="CornerLockVert" v:prompt="" v:val="VT0(1):5"/>
				<v:ud v:nameU="CornerLockDiag" v:prompt="" v:val="VT0(0):5"/>
				<v:ud v:nameU="TopLeftOffset" v:prompt="" v:val="VT0(0.15748031496063):24"/>
				<v:ud v:nameU="TopRightOffset" v:prompt="" v:val="VT0(0.15748031496063):24"/>
				<v:ud v:nameU="BotLeftOffset" v:prompt="" v:val="VT0(0.15748031496063):24"/>
				<v:ud v:nameU="BotRightOffset" v:prompt="" v:val="VT0(0.15748031496063):24"/>
				<v:ud v:nameU="visVersion" v:prompt="" v:val="VT0(15):26"/>
			</v:userDefs>
			<v:textBlock v:margins="rect(2,2,2,2)" v:tabSpace="42.5197"/>
			<v:textRect cx="28.3465" cy="172.202" width="56.7" height="22.6772"/>
			<path d="M11.34 183.54 L45.35 183.54 A11.3384 11.3384 -180 0 0 56.69 172.2 A11.3384 11.3384 -180 0 0 45.35 160.86 L11.34
						 160.86 A11.3384 11.3384 -180 0 0 0 172.2 A11.3384 11.3384 -180 0 0 11.34 183.54 Z" class="st1"/>
			<text x="10.21" y="169.8" class="st2" v:langID="1033"><v:paragraph v:horizAlign="1"/><v:tabList/>Software / <tspan
						x="21.06" dy="1.2em" class="st5">App</tspan></text>		</g>
		<g id="shape408-18" v:mID="408" v:groupContext="shape" transform="translate(65.7571,-72.9066)">
			<title>Rounded Rectangle.408</title>
			<desc>Investigación</desc>
			<v:userDefs>
				<v:ud v:nameU="CTypeTopLeftSnip" v:prompt="" v:val="VT0(0):5"/>
				<v:ud v:nameU="CTypeTopRightSnip" v:prompt="" v:val="VT0(0):5"/>
				<v:ud v:nameU="CTypeBotLeftSnip" v:prompt="" v:val="VT0(0):5"/>
				<v:ud v:nameU="CTypeBotRightSnip" v:prompt="" v:val="VT0(0):5"/>
				<v:ud v:nameU="CornerLockHoriz" v:prompt="" v:val="VT0(1):5"/>
				<v:ud v:nameU="CornerLockVert" v:prompt="" v:val="VT0(1):5"/>
				<v:ud v:nameU="CornerLockDiag" v:prompt="" v:val="VT0(0):5"/>
				<v:ud v:nameU="TopLeftOffset" v:prompt="" v:val="VT0(0.15748031496063):24"/>
				<v:ud v:nameU="TopRightOffset" v:prompt="" v:val="VT0(0.15748031496063):24"/>
				<v:ud v:nameU="BotLeftOffset" v:prompt="" v:val="VT0(0.15748031496063):24"/>
				<v:ud v:nameU="BotRightOffset" v:prompt="" v:val="VT0(0.15748031496063):24"/>
				<v:ud v:nameU="visVersion" v:prompt="" v:val="VT0(15):26"/>
			</v:userDefs>
			<v:textBlock v:margins="rect(2,2,2,2)" v:tabSpace="42.5197"/>
			<v:textRect cx="28.3465" cy="172.202" width="56.7" height="22.6772"/>
			<path d="M11.34 183.54 L45.35 183.54 A11.3384 11.3384 -180 0 0 56.69 172.2 A11.3384 11.3384 -180 0 0 45.35 160.86 L11.34
						 160.86 A11.3384 11.3384 -180 0 0 0 172.2 A11.3384 11.3384 -180 0 0 11.34 183.54 Z" class="st1"/>
			<text x="5.17" y="174.6" class="st2" v:langID="1033"><v:paragraph v:horizAlign="1"/><v:tabList/>Investigación</text>		</g>
		<g id="shape409-21" v:mID="409" v:groupContext="shape" transform="translate(1.5,-72.9066)">
			<title>Rounded Rectangle.409</title>
			<desc>Artículo</desc>
			<v:userDefs>
				<v:ud v:nameU="CTypeTopLeftSnip" v:prompt="" v:val="VT0(0):5"/>
				<v:ud v:nameU="CTypeTopRightSnip" v:prompt="" v:val="VT0(0):5"/>
				<v:ud v:nameU="CTypeBotLeftSnip" v:prompt="" v:val="VT0(0):5"/>
				<v:ud v:nameU="CTypeBotRightSnip" v:prompt="" v:val="VT0(0):5"/>
				<v:ud v:nameU="CornerLockHoriz" v:prompt="" v:val="VT0(1):5"/>
				<v:ud v:nameU="CornerLockVert" v:prompt="" v:val="VT0(1):5"/>
				<v:ud v:nameU="CornerLockDiag" v:prompt="" v:val="VT0(0):5"/>
				<v:ud v:nameU="TopLeftOffset" v:prompt="" v:val="VT0(0.15748031496063):24"/>
				<v:ud v:nameU="TopRightOffset" v:prompt="" v:val="VT0(0.15748031496063):24"/>
				<v:ud v:nameU="BotLeftOffset" v:prompt="" v:val="VT0(0.15748031496063):24"/>
				<v:ud v:nameU="BotRightOffset" v:prompt="" v:val="VT0(0.15748031496063):24"/>
				<v:ud v:nameU="visVersion" v:prompt="" v:val="VT0(15):26"/>
			</v:userDefs>
			<v:textBlock v:margins="rect(2,2,2,2)" v:tabSpace="42.5197"/>
			<v:textRect cx="28.3465" cy="172.202" width="56.7" height="22.6772"/>
			<path d="M11.34 183.54 L45.35 183.54 A11.3384 11.3384 -180 0 0 56.69 172.2 A11.3384 11.3384 -180 0 0 45.35 160.86 L11.34
						 160.86 A11.3384 11.3384 -180 0 0 0 172.2 A11.3384 11.3384 -180 0 0 11.34 183.54 Z" class="st1"/>
			<text x="14.63" y="174.6" class="st2" v:langID="1033"><v:paragraph v:horizAlign="1"/><v:tabList/>Artículo</text>		</g>
		<g id="shape410-24" v:mID="410" v:groupContext="shape" transform="translate(146.828,-72.9066)">
			<title>Rounded Rectangle.410</title>
			<desc>Curso virtual</desc>
			<v:userDefs>
				<v:ud v:nameU="CTypeTopLeftSnip" v:prompt="" v:val="VT0(0):5"/>
				<v:ud v:nameU="CTypeTopRightSnip" v:prompt="" v:val="VT0(0):5"/>
				<v:ud v:nameU="CTypeBotLeftSnip" v:prompt="" v:val="VT0(0):5"/>
				<v:ud v:nameU="CTypeBotRightSnip" v:prompt="" v:val="VT0(0):5"/>
				<v:ud v:nameU="CornerLockHoriz" v:prompt="" v:val="VT0(1):5"/>
				<v:ud v:nameU="CornerLockVert" v:prompt="" v:val="VT0(1):5"/>
				<v:ud v:nameU="CornerLockDiag" v:prompt="" v:val="VT0(0):5"/>
				<v:ud v:nameU="TopLeftOffset" v:prompt="" v:val="VT0(0.15748031496063):24"/>
				<v:ud v:nameU="TopRightOffset" v:prompt="" v:val="VT0(0.15748031496063):24"/>
				<v:ud v:nameU="BotLeftOffset" v:prompt="" v:val="VT0(0.15748031496063):24"/>
				<v:ud v:nameU="BotRightOffset" v:prompt="" v:val="VT0(0.15748031496063):24"/>
				<v:ud v:nameU="visVersion" v:prompt="" v:val="VT0(15):26"/>
			</v:userDefs>
			<v:textBlock v:margins="rect(2,2,2,2)" v:tabSpace="42.5197"/>
			<v:textRect cx="28.3465" cy="172.202" width="56.7" height="22.6772"/>
			<path d="M11.34 183.54 L45.35 183.54 A11.3384 11.3384 -180 0 0 56.69 172.2 A11.3384 11.3384 -180 0 0 45.35 160.86 L11.34
						 160.86 A11.3384 11.3384 -180 0 0 0 172.2 A11.3384 11.3384 -180 0 0 11.34 183.54 Z" class="st1"/>
			<text x="6.18" y="174.6" class="st2" v:langID="1033"><v:paragraph v:horizAlign="1"/><v:tabList/>Curso virtual</text>		</g>
		<g id="shape411-27" v:mID="411" v:groupContext="shape" v:layerMember="0" transform="translate(102.891,-136.693)">
			<title>Dynamic connector.411</title>
			<v:userDefs>
				<v:ud v:nameU="visVersion" v:val="VT0(15):26"/>
			</v:userDefs>
			<path d="M0 190.62 C-2.66 190.62 -3.54 190.62 -4.22 190.62 C-4.56 190.62 -4.84 190.62 -5.02 190.62 C-5.31 190.62 -5.31
						 190.63 -5.56 190.63 C-5.9 190.63 -6.72 190.63 -7.6 190.63 C-8.85 190.63 -10.24 190.63 -13.11 190.63"
					class="st6"/>
		</g>
		<g id="shape412-32" v:mID="412" v:groupContext="shape" v:layerMember="0" transform="translate(131.237,-118.274)">
			<title>Dynamic connector.412</title>
			<v:userDefs>
				<v:ud v:nameU="visVersion" v:val="VT0(15):26"/>
			</v:userDefs>
			<path d="M0 183.54 C-0 192.82 -28.33 194 -35.5 202.18 L-35.63 202.52" class="st8"/>
		</g>
		<g id="shape413-38" v:mID="413" v:groupContext="shape" v:layerMember="0" transform="translate(131.237,-118.274)">
			<title>Dynamic connector.413</title>
			<v:userDefs>
				<v:ud v:nameU="visVersion" v:val="VT0(15):26"/>
			</v:userDefs>
			<path d="M0 183.54 C-0 192.05 0 205.99 3.49 212.31 C5.39 215.76 8.33 216.95 11.23 217.36 L11.59 217.37" class="st8"/>
		</g>
		<g id="shape414-43" v:mID="414" v:groupContext="shape" v:layerMember="0" transform="translate(69.0616,-77.1586)">
			<title>Dynamic connector.414</title>
			<v:userDefs>
				<v:ud v:nameU="visVersion" v:val="VT0(15):26"/>
			</v:userDefs>
			<path d="M-3.3 176.45 C-4.12 176.45 -5.29 176.45 -6.5 176.45" class="st6"/>
		</g>
		<g id="shape415-48" v:mID="415" v:groupContext="shape" transform="translate(189.348,-159.363)">
			<title>Rounded Rectangle.415</title>
			<desc>e-book</desc>
			<v:userDefs>
				<v:ud v:nameU="CTypeTopLeftSnip" v:prompt="" v:val="VT0(0):5"/>
				<v:ud v:nameU="CTypeTopRightSnip" v:prompt="" v:val="VT0(0):5"/>
				<v:ud v:nameU="CTypeBotLeftSnip" v:prompt="" v:val="VT0(0):5"/>
				<v:ud v:nameU="CTypeBotRightSnip" v:prompt="" v:val="VT0(0):5"/>
				<v:ud v:nameU="CornerLockHoriz" v:prompt="" v:val="VT0(1):5"/>
				<v:ud v:nameU="CornerLockVert" v:prompt="" v:val="VT0(1):5"/>
				<v:ud v:nameU="CornerLockDiag" v:prompt="" v:val="VT0(0):5"/>
				<v:ud v:nameU="TopLeftOffset" v:prompt="" v:val="VT0(0.15748031496063):24"/>
				<v:ud v:nameU="TopRightOffset" v:prompt="" v:val="VT0(0.15748031496063):24"/>
				<v:ud v:nameU="BotLeftOffset" v:prompt="" v:val="VT0(0.15748031496063):24"/>
				<v:ud v:nameU="BotRightOffset" v:prompt="" v:val="VT0(0.15748031496063):24"/>
				<v:ud v:nameU="visVersion" v:prompt="" v:val="VT0(15):26"/>
			</v:userDefs>
			<v:textBlock v:margins="rect(2,2,2,2)" v:tabSpace="42.5197"/>
			<v:textRect cx="28.3465" cy="172.202" width="56.7" height="22.6772"/>
			<path d="M11.34 183.54 L45.35 183.54 A11.3384 11.3384 -180 0 0 56.69 172.2 A11.3384 11.3384 -180 0 0 45.35 160.86 L11.34
						 160.86 A11.3384 11.3384 -180 0 0 0 172.2 A11.3384 11.3384 -180 0 0 11.34 183.54 Z" class="st1"/>
			<text x="15.63" y="174.6" class="st2" v:langID="1033"><v:paragraph v:horizAlign="1"/><v:tabList/>e-book</text>		</g>
		<g id="shape416-51" v:mID="416" v:groupContext="shape" transform="translate(189.348,-117.218)">
			<title>Rounded Rectangle.416</title>
			<desc>Creador de contenido</desc>
			<v:userDefs>
				<v:ud v:nameU="CTypeTopLeftSnip" v:prompt="" v:val="VT0(0):5"/>
				<v:ud v:nameU="CTypeTopRightSnip" v:prompt="" v:val="VT0(0):5"/>
				<v:ud v:nameU="CTypeBotLeftSnip" v:prompt="" v:val="VT0(0):5"/>
				<v:ud v:nameU="CTypeBotRightSnip" v:prompt="" v:val="VT0(0):5"/>
				<v:ud v:nameU="CornerLockHoriz" v:prompt="" v:val="VT0(1):5"/>
				<v:ud v:nameU="CornerLockVert" v:prompt="" v:val="VT0(1):5"/>
				<v:ud v:nameU="CornerLockDiag" v:prompt="" v:val="VT0(0):5"/>
				<v:ud v:nameU="TopLeftOffset" v:prompt="" v:val="VT0(0.15748031496063):24"/>
				<v:ud v:nameU="TopRightOffset" v:prompt="" v:val="VT0(0.15748031496063):24"/>
				<v:ud v:nameU="BotLeftOffset" v:prompt="" v:val="VT0(0.15748031496063):24"/>
				<v:ud v:nameU="BotRightOffset" v:prompt="" v:val="VT0(0.15748031496063):24"/>
				<v:ud v:nameU="visVersion" v:prompt="" v:val="VT0(15):26"/>
			</v:userDefs>
			<v:textBlock v:margins="rect(2,2,2,2)" v:tabSpace="42.5197"/>
			<v:textRect cx="28.3465" cy="172.202" width="56.7" height="22.6772"/>
			<path d="M11.34 183.54 L45.35 183.54 A11.3384 11.3384 -180 0 0 56.69 172.2 A11.3384 11.3384 -180 0 0 45.35 160.86 L11.34
						 160.86 A11.3384 11.3384 -180 0 0 0 172.2 A11.3384 11.3384 -180 0 0 11.34 183.54 Z" class="st3"/>
			<text x="8.72" y="169.8" class="st4" v:langID="1033"><v:paragraph v:horizAlign="1"/><v:tabList/>Creador de <tspan
						x="10.51" dy="1.2em" class="st5">contenido</tspan></text>		</g>
		<g id="shape417-55" v:mID="417" v:groupContext="shape" v:layerMember="0" transform="translate(210.607,-139.895)">
			<title>Dynamic connector.417</title>
			<v:userDefs>
				<v:ud v:nameU="visVersion" v:val="VT0(15):26"/>
			</v:userDefs>
			<path d="M7.09 183.54 C7.09 179.88 7.09 173.46 7.09 168.44" class="st6"/>
		</g>
		<g id="shape419-60" v:mID="419" v:groupContext="shape" transform="translate(227.899,-72.9066)">
			<title>Rounded Rectangle.419</title>
			<desc>Investigación</desc>
			<v:userDefs>
				<v:ud v:nameU="CTypeTopLeftSnip" v:prompt="" v:val="VT0(0):5"/>
				<v:ud v:nameU="CTypeTopRightSnip" v:prompt="" v:val="VT0(0):5"/>
				<v:ud v:nameU="CTypeBotLeftSnip" v:prompt="" v:val="VT0(0):5"/>
				<v:ud v:nameU="CTypeBotRightSnip" v:prompt="" v:val="VT0(0):5"/>
				<v:ud v:nameU="CornerLockHoriz" v:prompt="" v:val="VT0(1):5"/>
				<v:ud v:nameU="CornerLockVert" v:prompt="" v:val="VT0(1):5"/>
				<v:ud v:nameU="CornerLockDiag" v:prompt="" v:val="VT0(0):5"/>
				<v:ud v:nameU="TopLeftOffset" v:prompt="" v:val="VT0(0.15748031496063):24"/>
				<v:ud v:nameU="TopRightOffset" v:prompt="" v:val="VT0(0.15748031496063):24"/>
				<v:ud v:nameU="BotLeftOffset" v:prompt="" v:val="VT0(0.15748031496063):24"/>
				<v:ud v:nameU="BotRightOffset" v:prompt="" v:val="VT0(0.15748031496063):24"/>
				<v:ud v:nameU="visVersion" v:prompt="" v:val="VT0(15):26"/>
			</v:userDefs>
			<v:textBlock v:margins="rect(2,2,2,2)" v:tabSpace="42.5197"/>
			<v:textRect cx="28.3465" cy="172.202" width="56.7" height="22.6772"/>
			<path d="M11.34 183.54 L45.35 183.54 A11.3384 11.3384 -180 0 0 56.69 172.2 A11.3384 11.3384 -180 0 0 45.35 160.86 L11.34
						 160.86 A11.3384 11.3384 -180 0 0 0 172.2 A11.3384 11.3384 -180 0 0 11.34 183.54 Z" class="st1"/>
			<text x="5.17" y="174.6" class="st2" v:langID="1033"><v:paragraph v:horizAlign="1"/><v:tabList/>Investigación</text>		</g>
		<g id="shape423-63" v:mID="423" v:groupContext="shape" v:layerMember="0" transform="translate(217.694,-117.218)">
			<title>Dynamic connector.423</title>
			<v:userDefs>
				<v:ud v:nameU="visVersion" v:val="VT0(15):26"/>
			</v:userDefs>
			<path d="M0 183.54 C0 192.73 28.82 193.98 36.62 201.26 L36.78 201.58" class="st8"/>
		</g>
		<g id="shape426-68" v:mID="426" v:groupContext="shape" v:layerMember="0" transform="translate(217.694,-117.218)">
			<title>Dynamic connector.426</title>
			<v:userDefs>
				<v:ud v:nameU="visVersion" v:val="VT0(15):26"/>
			</v:userDefs>
			<path d="M0 183.54 C0 191.78 -0 205.35 -3.2 211.47 C-4.84 214.61 -7.32 215.8 -9.82 216.24 L-10.18 216.27" class="st9"/>
		</g>
		<g id="shape427-73" v:mID="427" v:groupContext="shape" v:layerMember="0" transform="translate(189.348,-128.556)">
			<title>Dynamic connector.427</title>
			<v:userDefs>
				<v:ud v:nameU="visVersion" v:val="VT0(15):26"/>
			</v:userDefs>
			<path d="M0 183.54 C-9.77 183.54 -10.56 147.95 -25.47 142.18 L-25.82 142.12" class="st9"/>
		</g>
		<g id="shape429-78" v:mID="429" v:groupContext="shape" transform="translate(146.828,-34.0984)">
			<title>Rounded Rectangle.429</title>
			<desc>Creador de contenido</desc>
			<v:userDefs>
				<v:ud v:nameU="CTypeTopLeftSnip" v:prompt="" v:val="VT0(0):5"/>
				<v:ud v:nameU="CTypeTopRightSnip" v:prompt="" v:val="VT0(0):5"/>
				<v:ud v:nameU="CTypeBotLeftSnip" v:prompt="" v:val="VT0(0):5"/>
				<v:ud v:nameU="CTypeBotRightSnip" v:prompt="" v:val="VT0(0):5"/>
				<v:ud v:nameU="CornerLockHoriz" v:prompt="" v:val="VT0(1):5"/>
				<v:ud v:nameU="CornerLockVert" v:prompt="" v:val="VT0(1):5"/>
				<v:ud v:nameU="CornerLockDiag" v:prompt="" v:val="VT0(0):5"/>
				<v:ud v:nameU="TopLeftOffset" v:prompt="" v:val="VT0(0.15748031496063):24"/>
				<v:ud v:nameU="TopRightOffset" v:prompt="" v:val="VT0(0.15748031496063):24"/>
				<v:ud v:nameU="BotLeftOffset" v:prompt="" v:val="VT0(0.15748031496063):24"/>
				<v:ud v:nameU="BotRightOffset" v:prompt="" v:val="VT0(0.15748031496063):24"/>
				<v:ud v:nameU="visVersion" v:prompt="" v:val="VT0(15):26"/>
			</v:userDefs>
			<v:textBlock v:margins="rect(2,2,2,2)" v:tabSpace="42.5197"/>
			<v:textRect cx="28.3465" cy="172.202" width="56.7" height="22.6772"/>
			<path d="M11.34 183.54 L45.35 183.54 A11.3384 11.3384 -180 0 0 56.69 172.2 A11.3384 11.3384 -180 0 0 45.35 160.86 L11.34
						 160.86 A11.3384 11.3384 -180 0 0 0 172.2 A11.3384 11.3384 -180 0 0 11.34 183.54 Z" class="st3"/>
			<text x="8.72" y="169.8" class="st4" v:langID="1033"><v:paragraph v:horizAlign="1"/><v:tabList/>Creador de <tspan
						x="10.51" dy="1.2em" class="st5">contenido</tspan></text>		</g>
		<g id="shape430-82" v:mID="430" v:groupContext="shape" v:layerMember="0" transform="translate(168.088,-56.7756)">
			<title>Dynamic connector.430</title>
			<v:userDefs>
				<v:ud v:nameU="visVersion" v:val="VT0(15):26"/>
			</v:userDefs>
			<path d="M7.09 183.54 C7.09 180.69 7.09 175.81 7.09 171.77" class="st10"/>
		</g>
		<g id="shape431-87" v:mID="431" v:groupContext="shape" transform="translate(224.781,-34.0984)">
			<title>Rounded Rectangle.431</title>
			<desc>Software / App</desc>
			<v:userDefs>
				<v:ud v:nameU="CTypeTopLeftSnip" v:prompt="" v:val="VT0(0):5"/>
				<v:ud v:nameU="CTypeTopRightSnip" v:prompt="" v:val="VT0(0):5"/>
				<v:ud v:nameU="CTypeBotLeftSnip" v:prompt="" v:val="VT0(0):5"/>
				<v:ud v:nameU="CTypeBotRightSnip" v:prompt="" v:val="VT0(0):5"/>
				<v:ud v:nameU="CornerLockHoriz" v:prompt="" v:val="VT0(1):5"/>
				<v:ud v:nameU="CornerLockVert" v:prompt="" v:val="VT0(1):5"/>
				<v:ud v:nameU="CornerLockDiag" v:prompt="" v:val="VT0(0):5"/>
				<v:ud v:nameU="TopLeftOffset" v:prompt="" v:val="VT0(0.15748031496063):24"/>
				<v:ud v:nameU="TopRightOffset" v:prompt="" v:val="VT0(0.15748031496063):24"/>
				<v:ud v:nameU="BotLeftOffset" v:prompt="" v:val="VT0(0.15748031496063):24"/>
				<v:ud v:nameU="BotRightOffset" v:prompt="" v:val="VT0(0.15748031496063):24"/>
				<v:ud v:nameU="visVersion" v:prompt="" v:val="VT0(15):26"/>
			</v:userDefs>
			<v:textBlock v:margins="rect(2,2,2,2)" v:tabSpace="42.5197"/>
			<v:textRect cx="28.3465" cy="172.202" width="56.7" height="22.6772"/>
			<path d="M11.34 183.54 L45.35 183.54 A11.3384 11.3384 -180 0 0 56.69 172.2 A11.3384 11.3384 -180 0 0 45.35 160.86 L11.34
						 160.86 A11.3384 11.3384 -180 0 0 0 172.2 A11.3384 11.3384 -180 0 0 11.34 183.54 Z" class="st1"/>
			<text x="10.21" y="169.8" class="st2" v:langID="1033"><v:paragraph v:horizAlign="1"/><v:tabList/>Software / <tspan
						x="21.06" dy="1.2em" class="st5">App</tspan></text>		</g>
		<g id="shape432-91" v:mID="432" v:groupContext="shape" v:layerMember="0" transform="translate(203.521,-38.3504)">
			<title>Dynamic connector.432</title>
			<v:userDefs>
				<v:ud v:nameU="visVersion" v:val="VT0(15):26"/>
			</v:userDefs>
			<path d="M0 176.45 C4.1 176.45 11.35 176.45 16.89 176.45" class="st6"/>
		</g>
		<g id="shape433-96" v:mID="433" v:groupContext="shape" transform="translate(65.7571,-34.0984)">
			<title>Rounded Rectangle.433</title>
			<desc>Creador de contenido</desc>
			<v:userDefs>
				<v:ud v:nameU="CTypeTopLeftSnip" v:prompt="" v:val="VT0(0):5"/>
				<v:ud v:nameU="CTypeTopRightSnip" v:prompt="" v:val="VT0(0):5"/>
				<v:ud v:nameU="CTypeBotLeftSnip" v:prompt="" v:val="VT0(0):5"/>
				<v:ud v:nameU="CTypeBotRightSnip" v:prompt="" v:val="VT0(0):5"/>
				<v:ud v:nameU="CornerLockHoriz" v:prompt="" v:val="VT0(1):5"/>
				<v:ud v:nameU="CornerLockVert" v:prompt="" v:val="VT0(1):5"/>
				<v:ud v:nameU="CornerLockDiag" v:prompt="" v:val="VT0(0):5"/>
				<v:ud v:nameU="TopLeftOffset" v:prompt="" v:val="VT0(0.15748031496063):24"/>
				<v:ud v:nameU="TopRightOffset" v:prompt="" v:val="VT0(0.15748031496063):24"/>
				<v:ud v:nameU="BotLeftOffset" v:prompt="" v:val="VT0(0.15748031496063):24"/>
				<v:ud v:nameU="BotRightOffset" v:prompt="" v:val="VT0(0.15748031496063):24"/>
				<v:ud v:nameU="visVersion" v:prompt="" v:val="VT0(15):26"/>
			</v:userDefs>
			<v:textBlock v:margins="rect(2,2,2,2)" v:tabSpace="42.5197"/>
			<v:textRect cx="28.3465" cy="172.202" width="56.7" height="22.6772"/>
			<path d="M11.34 183.54 L45.35 183.54 A11.3384 11.3384 -180 0 0 56.69 172.2 A11.3384 11.3384 -180 0 0 45.35 160.86 L11.34
						 160.86 A11.3384 11.3384 -180 0 0 0 172.2 A11.3384 11.3384 -180 0 0 11.34 183.54 Z" class="st3"/>
			<text x="8.72" y="169.8" class="st4" v:langID="1033"><v:paragraph v:horizAlign="1"/><v:tabList/>Creador de <tspan
						x="10.51" dy="1.2em" class="st5">contenido</tspan></text>		</g>
		<g id="shape434-100" v:mID="434" v:groupContext="shape" v:layerMember="0" transform="translate(87.0169,-56.7756)">
			<title>Dynamic connector.434</title>
			<v:userDefs>
				<v:ud v:nameU="visVersion" v:val="VT0(15):26"/>
			</v:userDefs>
			<path d="M7.09 183.54 C7.09 180.69 7.09 175.81 7.09 171.77" class="st6"/>
		</g>
		<g id="shape435-105" v:mID="435" v:groupContext="shape" transform="translate(146.828,-1.5)">
			<title>Rounded Rectangle.435</title>
			<desc>Curso virtual</desc>
			<v:userDefs>
				<v:ud v:nameU="CTypeTopLeftSnip" v:prompt="" v:val="VT0(0):5"/>
				<v:ud v:nameU="CTypeTopRightSnip" v:prompt="" v:val="VT0(0):5"/>
				<v:ud v:nameU="CTypeBotLeftSnip" v:prompt="" v:val="VT0(0):5"/>
				<v:ud v:nameU="CTypeBotRightSnip" v:prompt="" v:val="VT0(0):5"/>
				<v:ud v:nameU="CornerLockHoriz" v:prompt="" v:val="VT0(1):5"/>
				<v:ud v:nameU="CornerLockVert" v:prompt="" v:val="VT0(1):5"/>
				<v:ud v:nameU="CornerLockDiag" v:prompt="" v:val="VT0(0):5"/>
				<v:ud v:nameU="TopLeftOffset" v:prompt="" v:val="VT0(0.15748031496063):24"/>
				<v:ud v:nameU="TopRightOffset" v:prompt="" v:val="VT0(0.15748031496063):24"/>
				<v:ud v:nameU="BotLeftOffset" v:prompt="" v:val="VT0(0.15748031496063):24"/>
				<v:ud v:nameU="BotRightOffset" v:prompt="" v:val="VT0(0.15748031496063):24"/>
				<v:ud v:nameU="visVersion" v:prompt="" v:val="VT0(15):26"/>
			</v:userDefs>
			<v:textBlock v:margins="rect(2,2,2,2)" v:tabSpace="42.5197"/>
			<v:textRect cx="28.3465" cy="172.202" width="56.7" height="22.6772"/>
			<path d="M11.34 183.54 L45.35 183.54 A11.3384 11.3384 -180 0 0 56.69 172.2 A11.3384 11.3384 -180 0 0 45.35 160.86 L11.34
						 160.86 A11.3384 11.3384 -180 0 0 0 172.2 A11.3384 11.3384 -180 0 0 11.34 183.54 Z" class="st1"/>
			<text x="6.18" y="174.6" class="st2" v:langID="1033"><v:paragraph v:horizAlign="1"/><v:tabList/>Curso virtual</text>		</g>
		<g id="shape436-108" v:mID="436" v:groupContext="shape" v:layerMember="0" transform="translate(168.088,-36.2244)">
			<title>Dynamic connector.436</title>
			<v:userDefs>
				<v:ud v:nameU="visVersion" v:val="VT0(15):26"/>
			</v:userDefs>
			<path d="M7.09 185.67 C7.09 187.04 7.09 189.17 7.09 191.22" class="st6"/>
		</g>
		<g id="shape437-113" v:mID="437" v:groupContext="shape" transform="translate(263.332,-117.218)">
			<title>Rounded Rectangle.437</title>
			<desc>Curso virtual</desc>
			<v:userDefs>
				<v:ud v:nameU="CTypeTopLeftSnip" v:prompt="" v:val="VT0(0):5"/>
				<v:ud v:nameU="CTypeTopRightSnip" v:prompt="" v:val="VT0(0):5"/>
				<v:ud v:nameU="CTypeBotLeftSnip" v:prompt="" v:val="VT0(0):5"/>
				<v:ud v:nameU="CTypeBotRightSnip" v:prompt="" v:val="VT0(0):5"/>
				<v:ud v:nameU="CornerLockHoriz" v:prompt="" v:val="VT0(1):5"/>
				<v:ud v:nameU="CornerLockVert" v:prompt="" v:val="VT0(1):5"/>
				<v:ud v:nameU="CornerLockDiag" v:prompt="" v:val="VT0(0):5"/>
				<v:ud v:nameU="TopLeftOffset" v:prompt="" v:val="VT0(0.15748031496063):24"/>
				<v:ud v:nameU="TopRightOffset" v:prompt="" v:val="VT0(0.15748031496063):24"/>
				<v:ud v:nameU="BotLeftOffset" v:prompt="" v:val="VT0(0.15748031496063):24"/>
				<v:ud v:nameU="BotRightOffset" v:prompt="" v:val="VT0(0.15748031496063):24"/>
				<v:ud v:nameU="visVersion" v:prompt="" v:val="VT0(15):26"/>
			</v:userDefs>
			<v:textBlock v:margins="rect(2,2,2,2)" v:tabSpace="42.5197"/>
			<v:textRect cx="28.3465" cy="172.202" width="56.7" height="22.6772"/>
			<path d="M11.34 183.54 L45.35 183.54 A11.3384 11.3384 -180 0 0 56.69 172.2 A11.3384 11.3384 -180 0 0 45.35 160.86 L11.34
						 160.86 A11.3384 11.3384 -180 0 0 0 172.2 A11.3384 11.3384 -180 0 0 11.34 183.54 Z" class="st1"/>
			<text x="6.18" y="174.6" class="st2" v:langID="1033"><v:paragraph v:horizAlign="1"/><v:tabList/>Curso virtual</text>		</g>
		<g id="shape438-116" v:mID="438" v:groupContext="shape" v:layerMember="0" transform="translate(246.04,-121.47)">
			<title>Dynamic connector.438</title>
			<v:userDefs>
				<v:ud v:nameU="visVersion" v:val="VT0(15):26"/>
			</v:userDefs>
			<path d="M0 176.45 C3.13 176.45 8.54 176.45 12.93 176.45" class="st6"/>
		</g>
	</g>
</svg>
