<?xml version="1.0" encoding="UTF-8" standalone="no"?>
<!DOCTYPE svg PUBLIC "-//W3C//DTD SVG 1.1//EN" "http://www.w3.org/Graphics/SVG/1.1/DTD/svg11.dtd">
<!-- Generated by Microsoft Visio, SVG Export TopologyChart1.svg Page-1 -->
<svg xmlns="http://www.w3.org/2000/svg" xmlns:xlink="http://www.w3.org/1999/xlink" xmlns:ev="http://www.w3.org/2001/xml-events"
		xmlns:v="http://schemas.microsoft.com/visio/2003/SVGExtensions/" width="5.08596in" height="3.60466in"
		viewBox="0 0 366.189 259.535" xml:space="preserve" color-interpolation-filters="sRGB" class="st12">
	<v:documentProperties v:langID="1033" v:metric="true" v:viewMarkup="false"/>

	<style type="text/css">
	<![CDATA[
		.st1 {fill:#990000;stroke:none;stroke-width:1.5}
		.st2 {fill:#ffffff;font-family:Segoe UI;font-size:0.666664em}
		.st3 {font-size:1em}
		.st4 {fill:#f2f2f2;stroke:none;stroke-width:1.5}
		.st5 {fill:#990000;font-family:Segoe UI;font-size:0.666664em}
		.st6 {fill:#ffffff;font-family:Segoe UI;font-size:0.833336em}
		.st7 {marker-end:url(#mrkr6-37);stroke:#990000;stroke-linecap:round;stroke-linejoin:round;stroke-width:0.5}
		.st8 {fill:#990000;fill-opacity:1;stroke:#990000;stroke-opacity:1;stroke-width:0.25773195876289}
		.st9 {marker-end:url(#mrkr6-58);stroke:#990000;stroke-linecap:round;stroke-linejoin:round;stroke-width:0.5}
		.st10 {marker-end:url(#mrkr6-37);stroke:#990000;stroke-dasharray:3.5,2.5;stroke-linecap:round;stroke-linejoin:round;stroke-width:0.5}
		.st11 {marker-end:url(#mrkr6-58);stroke:#990000;stroke-dasharray:3.5,2.5;stroke-linecap:round;stroke-linejoin:round;stroke-width:0.5}
		.st12 {fill:none;fill-rule:evenodd;font-size:12px;overflow:visible;stroke-linecap:square;stroke-miterlimit:3}
	]]>
	</style>

	<defs id="Markers">
		<g id="lend6">
			<path d="M 2 1 L 0 0 L 2.01237 -1.00641 C 2.32921 -0.372876 2.32921 0.372869 2.01238 1.0064 " style="stroke:none"/>
		</g>
		<marker id="mrkr6-37" class="st8" v:arrowType="6" v:arrowSize="0" v:setback="8.01" refX="-8.01" orient="auto"
				markerUnits="strokeWidth" overflow="visible">
			<use xlink:href="#lend6" transform="scale(-3.88,-3.88) "/>
		</marker>
		<marker id="mrkr6-58" class="st8" v:arrowType="6" v:arrowSize="0" v:setback="8.73" refX="-8.73" orient="auto"
				markerUnits="strokeWidth" overflow="visible">
			<use xlink:href="#lend6" transform="scale(-3.88,-3.88) "/>
		</marker>
	</defs>
	<g v:mID="0" v:index="1" v:groupContext="foregroundPage">
		<title>Page-1</title>
		<v:pageProperties v:drawingScale="0.0393701" v:pageScale="0.0393701" v:drawingUnits="24" v:shadowOffsetX="8.50394"
				v:shadowOffsetY="-8.50394"/>
		<v:layer v:name="Connector" v:index="0"/>
		<g id="shape156-1" v:mID="156" v:groupContext="shape" transform="translate(65.7947,-138.98)">
			<title>Rounded Rectangle.156</title>
			<desc>Facultad / Programa</desc>
			<v:userDefs>
				<v:ud v:nameU="CTypeTopLeftSnip" v:prompt="" v:val="VT0(0):5"/>
				<v:ud v:nameU="CTypeTopRightSnip" v:prompt="" v:val="VT0(0):5"/>
				<v:ud v:nameU="CTypeBotLeftSnip" v:prompt="" v:val="VT0(0):5"/>
				<v:ud v:nameU="CTypeBotRightSnip" v:prompt="" v:val="VT0(0):5"/>
				<v:ud v:nameU="CornerLockHoriz" v:prompt="" v:val="VT0(1):5"/>
				<v:ud v:nameU="CornerLockVert" v:prompt="" v:val="VT0(1):5"/>
				<v:ud v:nameU="CornerLockDiag" v:prompt="" v:val="VT0(0):5"/>
				<v:ud v:nameU="TopLeftOffset" v:prompt="" v:val="VT0(0.15748031496063):24"/>
				<v:ud v:nameU="TopRightOffset" v:prompt="" v:val="VT0(0.15748031496063):24"/>
				<v:ud v:nameU="BotLeftOffset" v:prompt="" v:val="VT0(0.15748031496063):24"/>
				<v:ud v:nameU="BotRightOffset" v:prompt="" v:val="VT0(0.15748031496063):24"/>
				<v:ud v:nameU="visVersion" v:prompt="" v:val="VT0(15):26"/>
			</v:userDefs>
			<v:textBlock v:margins="rect(2,2,2,2)" v:tabSpace="42.5197"/>
			<v:textRect cx="28.3465" cy="248.197" width="56.7" height="22.6772"/>
			<path d="M11.34 259.54 L45.35 259.54 A11.3384 11.3384 -180 0 0 56.69 248.2 A11.3384 11.3384 -180 0 0 45.35 236.86 L11.34
						 236.86 A11.3384 11.3384 -180 0 0 0 248.2 A11.3384 11.3384 -180 0 0 11.34 259.54 Z" class="st1"/>
			<text x="10.88" y="245.8" class="st2" v:langID="1033"><v:paragraph v:horizAlign="1"/><v:tabList/>Facultad / <tspan
						x="11.11" dy="1.2em" class="st3">Programa</tspan></text>		</g>
		<g id="shape159-5" v:mID="159" v:groupContext="shape" transform="translate(1.5,-138.98)">
			<title>Rounded Rectangle.159</title>
			<desc>Centro de estudios</desc>
			<v:userDefs>
				<v:ud v:nameU="CTypeTopLeftSnip" v:prompt="" v:val="VT0(0):5"/>
				<v:ud v:nameU="CTypeTopRightSnip" v:prompt="" v:val="VT0(0):5"/>
				<v:ud v:nameU="CTypeBotLeftSnip" v:prompt="" v:val="VT0(0):5"/>
				<v:ud v:nameU="CTypeBotRightSnip" v:prompt="" v:val="VT0(0):5"/>
				<v:ud v:nameU="CornerLockHoriz" v:prompt="" v:val="VT0(1):5"/>
				<v:ud v:nameU="CornerLockVert" v:prompt="" v:val="VT0(1):5"/>
				<v:ud v:nameU="CornerLockDiag" v:prompt="" v:val="VT0(0):5"/>
				<v:ud v:nameU="TopLeftOffset" v:prompt="" v:val="VT0(0.15748031496063):24"/>
				<v:ud v:nameU="TopRightOffset" v:prompt="" v:val="VT0(0.15748031496063):24"/>
				<v:ud v:nameU="BotLeftOffset" v:prompt="" v:val="VT0(0.15748031496063):24"/>
				<v:ud v:nameU="BotRightOffset" v:prompt="" v:val="VT0(0.15748031496063):24"/>
				<v:ud v:nameU="visVersion" v:prompt="" v:val="VT0(15):26"/>
			</v:userDefs>
			<v:textBlock v:margins="rect(2,2,2,2)" v:tabSpace="42.5197"/>
			<v:textRect cx="28.3465" cy="248.197" width="56.7" height="22.6772"/>
			<path d="M11.34 259.54 L45.35 259.54 A11.3384 11.3384 -180 0 0 56.69 248.2 A11.3384 11.3384 -180 0 0 45.35 236.86 L11.34
						 236.86 A11.3384 11.3384 -180 0 0 0 248.2 A11.3384 11.3384 -180 0 0 11.34 259.54 Z" class="st4"/>
			<text x="10.88" y="245.8" class="st5" v:langID="1033"><v:paragraph v:horizAlign="1"/><v:tabList/>Centro de <tspan
						x="13.57" dy="1.2em" class="st3">estudios</tspan></text>		</g>
		<g id="shape164-9" v:mID="164" v:groupContext="shape" transform="translate(135.421,-93.626)">
			<title>Rounded Rectangle.164</title>
			<desc>Institución</desc>
			<v:userDefs>
				<v:ud v:nameU="CTypeTopLeftSnip" v:prompt="" v:val="VT0(0):5"/>
				<v:ud v:nameU="CTypeTopRightSnip" v:prompt="" v:val="VT0(0):5"/>
				<v:ud v:nameU="CTypeBotLeftSnip" v:prompt="" v:val="VT0(0):5"/>
				<v:ud v:nameU="CTypeBotRightSnip" v:prompt="" v:val="VT0(0):5"/>
				<v:ud v:nameU="CornerLockHoriz" v:prompt="" v:val="VT0(1):5"/>
				<v:ud v:nameU="CornerLockVert" v:prompt="" v:val="VT0(1):5"/>
				<v:ud v:nameU="CornerLockDiag" v:prompt="" v:val="VT0(0):5"/>
				<v:ud v:nameU="TopLeftOffset" v:prompt="" v:val="VT0(0.15748031496063):24"/>
				<v:ud v:nameU="TopRightOffset" v:prompt="" v:val="VT0(0.15748031496063):24"/>
				<v:ud v:nameU="BotLeftOffset" v:prompt="" v:val="VT0(0.15748031496063):24"/>
				<v:ud v:nameU="BotRightOffset" v:prompt="" v:val="VT0(0.15748031496063):24"/>
				<v:ud v:nameU="visVersion" v:prompt="" v:val="VT0(15):26"/>
				<v:ud v:nameU="TopLeftOffset" v:prompt="" v:val="VT0(0.25590551523422):1"/>
				<v:ud v:nameU="TopRightOffset" v:prompt="" v:val="VT0(0.25590551523422):1"/>
				<v:ud v:nameU="BotLeftOffset" v:prompt="" v:val="VT0(0.25590551523422):1"/>
				<v:ud v:nameU="BotRightOffset" v:prompt="" v:val="VT0(0.25590551523422):1"/>
			</v:userDefs>
			<v:textBlock v:margins="rect(2,2,2,2)" v:tabSpace="42.5197"/>
			<v:textRect cx="47.6575" cy="241.11" width="95.32" height="36.8504"/>
			<path d="M18.43 259.54 L76.89 259.54 A18.4249 18.4249 -180 0 0 95.31 241.11 A18.4249 18.4249 -180 0 0 76.89 222.69 L18.43
						 222.69 A18.4249 18.4249 -180 0 0 0 241.11 A18.4249 18.4249 -180 0 0 18.43 259.54 Z" class="st1"/>
			<text x="24.67" y="244.11" class="st6" v:langID="1033"><v:paragraph v:horizAlign="1"/><v:tabList/>Institución</text>		</g>
		<g id="shape165-12" v:mID="165" v:groupContext="shape" transform="translate(154.732,-164.492)">
			<title>Rounded Rectangle.165</title>
			<desc>Facultad / Programa</desc>
			<v:userDefs>
				<v:ud v:nameU="CTypeTopLeftSnip" v:prompt="" v:val="VT0(0):5"/>
				<v:ud v:nameU="CTypeTopRightSnip" v:prompt="" v:val="VT0(0):5"/>
				<v:ud v:nameU="CTypeBotLeftSnip" v:prompt="" v:val="VT0(0):5"/>
				<v:ud v:nameU="CTypeBotRightSnip" v:prompt="" v:val="VT0(0):5"/>
				<v:ud v:nameU="CornerLockHoriz" v:prompt="" v:val="VT0(1):5"/>
				<v:ud v:nameU="CornerLockVert" v:prompt="" v:val="VT0(1):5"/>
				<v:ud v:nameU="CornerLockDiag" v:prompt="" v:val="VT0(0):5"/>
				<v:ud v:nameU="TopLeftOffset" v:prompt="" v:val="VT0(0.15748031496063):24"/>
				<v:ud v:nameU="TopRightOffset" v:prompt="" v:val="VT0(0.15748031496063):24"/>
				<v:ud v:nameU="BotLeftOffset" v:prompt="" v:val="VT0(0.15748031496063):24"/>
				<v:ud v:nameU="BotRightOffset" v:prompt="" v:val="VT0(0.15748031496063):24"/>
				<v:ud v:nameU="visVersion" v:prompt="" v:val="VT0(15):26"/>
			</v:userDefs>
			<v:textBlock v:margins="rect(2,2,2,2)" v:tabSpace="42.5197"/>
			<v:textRect cx="28.3465" cy="248.197" width="56.7" height="22.6772"/>
			<path d="M11.34 259.54 L45.35 259.54 A11.3384 11.3384 -180 0 0 56.69 248.2 A11.3384 11.3384 -180 0 0 45.35 236.86 L11.34
						 236.86 A11.3384 11.3384 -180 0 0 0 248.2 A11.3384 11.3384 -180 0 0 11.34 259.54 Z" class="st1"/>
			<text x="10.88" y="245.8" class="st2" v:langID="1033"><v:paragraph v:horizAlign="1"/><v:tabList/>Facultad / <tspan
						x="11.11" dy="1.2em" class="st3">Programa</tspan></text>		</g>
		<g id="shape166-16" v:mID="166" v:groupContext="shape" transform="translate(243.669,-138.98)">
			<title>Rounded Rectangle.166</title>
			<desc>Facultad / Programa</desc>
			<v:userDefs>
				<v:ud v:nameU="CTypeTopLeftSnip" v:prompt="" v:val="VT0(0):5"/>
				<v:ud v:nameU="CTypeTopRightSnip" v:prompt="" v:val="VT0(0):5"/>
				<v:ud v:nameU="CTypeBotLeftSnip" v:prompt="" v:val="VT0(0):5"/>
				<v:ud v:nameU="CTypeBotRightSnip" v:prompt="" v:val="VT0(0):5"/>
				<v:ud v:nameU="CornerLockHoriz" v:prompt="" v:val="VT0(1):5"/>
				<v:ud v:nameU="CornerLockVert" v:prompt="" v:val="VT0(1):5"/>
				<v:ud v:nameU="CornerLockDiag" v:prompt="" v:val="VT0(0):5"/>
				<v:ud v:nameU="TopLeftOffset" v:prompt="" v:val="VT0(0.15748031496063):24"/>
				<v:ud v:nameU="TopRightOffset" v:prompt="" v:val="VT0(0.15748031496063):24"/>
				<v:ud v:nameU="BotLeftOffset" v:prompt="" v:val="VT0(0.15748031496063):24"/>
				<v:ud v:nameU="BotRightOffset" v:prompt="" v:val="VT0(0.15748031496063):24"/>
				<v:ud v:nameU="visVersion" v:prompt="" v:val="VT0(15):26"/>
			</v:userDefs>
			<v:textBlock v:margins="rect(2,2,2,2)" v:tabSpace="42.5197"/>
			<v:textRect cx="28.3465" cy="248.197" width="56.7" height="22.6772"/>
			<path d="M11.34 259.54 L45.35 259.54 A11.3384 11.3384 -180 0 0 56.69 248.2 A11.3384 11.3384 -180 0 0 45.35 236.86 L11.34
						 236.86 A11.3384 11.3384 -180 0 0 0 248.2 A11.3384 11.3384 -180 0 0 11.34 259.54 Z" class="st1"/>
			<text x="10.88" y="245.8" class="st2" v:langID="1033"><v:paragraph v:horizAlign="1"/><v:tabList/>Facultad / <tspan
						x="11.11" dy="1.2em" class="st3">Programa</tspan></text>		</g>
		<g id="shape167-20" v:mID="167" v:groupContext="shape" transform="translate(243.669,-62.4449)">
			<title>Rounded Rectangle.167</title>
			<desc>Facultad / Programa</desc>
			<v:userDefs>
				<v:ud v:nameU="CTypeTopLeftSnip" v:prompt="" v:val="VT0(0):5"/>
				<v:ud v:nameU="CTypeTopRightSnip" v:prompt="" v:val="VT0(0):5"/>
				<v:ud v:nameU="CTypeBotLeftSnip" v:prompt="" v:val="VT0(0):5"/>
				<v:ud v:nameU="CTypeBotRightSnip" v:prompt="" v:val="VT0(0):5"/>
				<v:ud v:nameU="CornerLockHoriz" v:prompt="" v:val="VT0(1):5"/>
				<v:ud v:nameU="CornerLockVert" v:prompt="" v:val="VT0(1):5"/>
				<v:ud v:nameU="CornerLockDiag" v:prompt="" v:val="VT0(0):5"/>
				<v:ud v:nameU="TopLeftOffset" v:prompt="" v:val="VT0(0.15748031496063):24"/>
				<v:ud v:nameU="TopRightOffset" v:prompt="" v:val="VT0(0.15748031496063):24"/>
				<v:ud v:nameU="BotLeftOffset" v:prompt="" v:val="VT0(0.15748031496063):24"/>
				<v:ud v:nameU="BotRightOffset" v:prompt="" v:val="VT0(0.15748031496063):24"/>
				<v:ud v:nameU="visVersion" v:prompt="" v:val="VT0(15):26"/>
			</v:userDefs>
			<v:textBlock v:margins="rect(2,2,2,2)" v:tabSpace="42.5197"/>
			<v:textRect cx="28.3465" cy="248.197" width="56.7" height="22.6772"/>
			<path d="M11.34 259.54 L45.35 259.54 A11.3384 11.3384 -180 0 0 56.69 248.2 A11.3384 11.3384 -180 0 0 45.35 236.86 L11.34
						 236.86 A11.3384 11.3384 -180 0 0 0 248.2 A11.3384 11.3384 -180 0 0 11.34 259.54 Z" class="st1"/>
			<text x="10.88" y="245.8" class="st2" v:langID="1033"><v:paragraph v:horizAlign="1"/><v:tabList/>Facultad / <tspan
						x="11.11" dy="1.2em" class="st3">Programa</tspan></text>		</g>
		<g id="shape168-24" v:mID="168" v:groupContext="shape" transform="translate(154.732,-36.9331)">
			<title>Rounded Rectangle.168</title>
			<desc>Facultad / Programa</desc>
			<v:userDefs>
				<v:ud v:nameU="CTypeTopLeftSnip" v:prompt="" v:val="VT0(0):5"/>
				<v:ud v:nameU="CTypeTopRightSnip" v:prompt="" v:val="VT0(0):5"/>
				<v:ud v:nameU="CTypeBotLeftSnip" v:prompt="" v:val="VT0(0):5"/>
				<v:ud v:nameU="CTypeBotRightSnip" v:prompt="" v:val="VT0(0):5"/>
				<v:ud v:nameU="CornerLockHoriz" v:prompt="" v:val="VT0(1):5"/>
				<v:ud v:nameU="CornerLockVert" v:prompt="" v:val="VT0(1):5"/>
				<v:ud v:nameU="CornerLockDiag" v:prompt="" v:val="VT0(0):5"/>
				<v:ud v:nameU="TopLeftOffset" v:prompt="" v:val="VT0(0.15748031496063):24"/>
				<v:ud v:nameU="TopRightOffset" v:prompt="" v:val="VT0(0.15748031496063):24"/>
				<v:ud v:nameU="BotLeftOffset" v:prompt="" v:val="VT0(0.15748031496063):24"/>
				<v:ud v:nameU="BotRightOffset" v:prompt="" v:val="VT0(0.15748031496063):24"/>
				<v:ud v:nameU="visVersion" v:prompt="" v:val="VT0(15):26"/>
			</v:userDefs>
			<v:textBlock v:margins="rect(2,2,2,2)" v:tabSpace="42.5197"/>
			<v:textRect cx="28.3465" cy="248.197" width="56.7" height="22.6772"/>
			<path d="M11.34 259.54 L45.35 259.54 A11.3384 11.3384 -180 0 0 56.69 248.2 A11.3384 11.3384 -180 0 0 45.35 236.86 L11.34
						 236.86 A11.3384 11.3384 -180 0 0 0 248.2 A11.3384 11.3384 -180 0 0 11.34 259.54 Z" class="st1"/>
			<text x="10.88" y="245.8" class="st2" v:langID="1033"><v:paragraph v:horizAlign="1"/><v:tabList/>Facultad / <tspan
						x="11.11" dy="1.2em" class="st3">Programa</tspan></text>		</g>
		<g id="shape169-28" v:mID="169" v:groupContext="shape" transform="translate(65.7947,-62.4449)">
			<title>Rounded Rectangle.169</title>
			<desc>Facultad / Programa</desc>
			<v:userDefs>
				<v:ud v:nameU="CTypeTopLeftSnip" v:prompt="" v:val="VT0(0):5"/>
				<v:ud v:nameU="CTypeTopRightSnip" v:prompt="" v:val="VT0(0):5"/>
				<v:ud v:nameU="CTypeBotLeftSnip" v:prompt="" v:val="VT0(0):5"/>
				<v:ud v:nameU="CTypeBotRightSnip" v:prompt="" v:val="VT0(0):5"/>
				<v:ud v:nameU="CornerLockHoriz" v:prompt="" v:val="VT0(1):5"/>
				<v:ud v:nameU="CornerLockVert" v:prompt="" v:val="VT0(1):5"/>
				<v:ud v:nameU="CornerLockDiag" v:prompt="" v:val="VT0(0):5"/>
				<v:ud v:nameU="TopLeftOffset" v:prompt="" v:val="VT0(0.15748031496063):24"/>
				<v:ud v:nameU="TopRightOffset" v:prompt="" v:val="VT0(0.15748031496063):24"/>
				<v:ud v:nameU="BotLeftOffset" v:prompt="" v:val="VT0(0.15748031496063):24"/>
				<v:ud v:nameU="BotRightOffset" v:prompt="" v:val="VT0(0.15748031496063):24"/>
				<v:ud v:nameU="visVersion" v:prompt="" v:val="VT0(15):26"/>
			</v:userDefs>
			<v:textBlock v:margins="rect(2,2,2,2)" v:tabSpace="42.5197"/>
			<v:textRect cx="28.3465" cy="248.197" width="56.7" height="22.6772"/>
			<path d="M11.34 259.54 L45.35 259.54 A11.3384 11.3384 -180 0 0 56.69 248.2 A11.3384 11.3384 -180 0 0 45.35 236.86 L11.34
						 236.86 A11.3384 11.3384 -180 0 0 0 248.2 A11.3384 11.3384 -180 0 0 11.34 259.54 Z" class="st1"/>
			<text x="10.88" y="245.8" class="st2" v:langID="1033"><v:paragraph v:horizAlign="1"/><v:tabList/>Facultad / <tspan
						x="11.11" dy="1.2em" class="st3">Programa</tspan></text>		</g>
		<g id="shape170-32" v:mID="170" v:groupContext="shape" v:layerMember="0" transform="translate(135.421,-112.051)">
			<title>Dynamic connector.170</title>
			<v:userDefs>
				<v:ud v:nameU="visVersion" v:val="VT0(15):26"/>
			</v:userDefs>
			<path d="M0 259.54 C-10.32 259.54 -26.68 259.54 -34.39 253.9 C-39.89 249.88 -41 243.01 -41.22 236.97 L-41.23 236.61"
					class="st7"/>
		</g>
		<g id="shape171-38" v:mID="171" v:groupContext="shape" v:layerMember="0" transform="translate(135.421,-112.051)">
			<title>Dynamic connector.171</title>
			<v:userDefs>
				<v:ud v:nameU="visVersion" v:val="VT0(15):26"/>
			</v:userDefs>
			<path d="M0 259.54 C-10.32 259.54 -26.68 259.54 -34.39 265.17 C-39.89 269.19 -41 276.06 -41.22 282.1 L-41.23 282.46"
					class="st7"/>
		</g>
		<g id="shape172-43" v:mID="172" v:groupContext="shape" v:layerMember="0" transform="translate(230.736,-112.051)">
			<title>Dynamic connector.172</title>
			<v:userDefs>
				<v:ud v:nameU="visVersion" v:val="VT0(15):26"/>
			</v:userDefs>
			<path d="M0 259.54 C10.32 259.54 26.68 259.54 34.39 253.9 C39.89 249.88 41 243.01 41.22 236.97 L41.23 236.61"
					class="st7"/>
		</g>
		<g id="shape173-48" v:mID="173" v:groupContext="shape" v:layerMember="0" transform="translate(230.736,-112.051)">
			<title>Dynamic connector.173</title>
			<v:userDefs>
				<v:ud v:nameU="visVersion" v:val="VT0(15):26"/>
			</v:userDefs>
			<path d="M0 259.54 C10.32 259.54 26.68 259.54 34.39 265.17 C39.89 269.19 41 276.06 41.22 282.1 L41.23 282.46"
					class="st7"/>
		</g>
		<g id="shape174-53" v:mID="174" v:groupContext="shape" v:layerMember="0" transform="translate(175.992,-130.476)">
			<title>Dynamic connector.174</title>
			<v:userDefs>
				<v:ud v:nameU="visVersion" v:val="VT0(15):26"/>
			</v:userDefs>
			<path d="M7.09 259.54 C7.09 252.31 7.09 238.96 7.09 229.88" class="st9"/>
		</g>
		<g id="shape175-59" v:mID="175" v:groupContext="shape" v:layerMember="0" transform="translate(175.992,-93.626)">
			<title>Dynamic connector.175</title>
			<v:userDefs>
				<v:ud v:nameU="visVersion" v:val="VT0(15):26"/>
			</v:userDefs>
			<path d="M7.09 259.54 C7.09 266.76 7.09 280.11 7.09 289.19" class="st9"/>
		</g>
		<g id="shape176-64" v:mID="176" v:groupContext="shape" v:layerMember="0" transform="translate(69.0804,-143.232)">
			<title>Dynamic connector.176</title>
			<v:userDefs>
				<v:ud v:nameU="visVersion" v:val="VT0(15):26"/>
			</v:userDefs>
			<path d="M-3.29 252.45 C-4.11 252.45 -5.29 252.45 -6.52 252.45" class="st9"/>
		</g>
		<g id="shape177-69" v:mID="177" v:groupContext="shape" transform="translate(65.7947,-171.579)">
			<title>Rounded Rectangle.177</title>
			<desc>Centro de estudios</desc>
			<v:userDefs>
				<v:ud v:nameU="CTypeTopLeftSnip" v:prompt="" v:val="VT0(0):5"/>
				<v:ud v:nameU="CTypeTopRightSnip" v:prompt="" v:val="VT0(0):5"/>
				<v:ud v:nameU="CTypeBotLeftSnip" v:prompt="" v:val="VT0(0):5"/>
				<v:ud v:nameU="CTypeBotRightSnip" v:prompt="" v:val="VT0(0):5"/>
				<v:ud v:nameU="CornerLockHoriz" v:prompt="" v:val="VT0(1):5"/>
				<v:ud v:nameU="CornerLockVert" v:prompt="" v:val="VT0(1):5"/>
				<v:ud v:nameU="CornerLockDiag" v:prompt="" v:val="VT0(0):5"/>
				<v:ud v:nameU="TopLeftOffset" v:prompt="" v:val="VT0(0.15748031496063):24"/>
				<v:ud v:nameU="TopRightOffset" v:prompt="" v:val="VT0(0.15748031496063):24"/>
				<v:ud v:nameU="BotLeftOffset" v:prompt="" v:val="VT0(0.15748031496063):24"/>
				<v:ud v:nameU="BotRightOffset" v:prompt="" v:val="VT0(0.15748031496063):24"/>
				<v:ud v:nameU="visVersion" v:prompt="" v:val="VT0(15):26"/>
			</v:userDefs>
			<v:textBlock v:margins="rect(2,2,2,2)" v:tabSpace="42.5197"/>
			<v:textRect cx="28.3465" cy="248.197" width="56.7" height="22.6772"/>
			<path d="M11.34 259.54 L45.35 259.54 A11.3384 11.3384 -180 0 0 56.69 248.2 A11.3384 11.3384 -180 0 0 45.35 236.86 L11.34
						 236.86 A11.3384 11.3384 -180 0 0 0 248.2 A11.3384 11.3384 -180 0 0 11.34 259.54 Z" class="st4"/>
			<text x="10.88" y="245.8" class="st5" v:langID="1033"><v:paragraph v:horizAlign="1"/><v:tabList/>Centro de <tspan
						x="13.57" dy="1.2em" class="st3">estudios</tspan></text>		</g>
		<g id="shape178-73" v:mID="178" v:groupContext="shape" v:layerMember="0" transform="translate(87.0545,-159.532)">
			<title>Dynamic connector.178</title>
			<v:userDefs>
				<v:ud v:nameU="visVersion" v:val="VT0(15):26"/>
			</v:userDefs>
			<path d="M7.09 257.41 C7.09 256.04 7.09 253.9 7.09 251.85" class="st9"/>
		</g>
		<g id="shape179-78" v:mID="179" v:groupContext="shape" transform="translate(154.732,-199.925)">
			<title>Rounded Rectangle.179</title>
			<desc>Centro de estudios</desc>
			<v:userDefs>
				<v:ud v:nameU="CTypeTopLeftSnip" v:prompt="" v:val="VT0(0):5"/>
				<v:ud v:nameU="CTypeTopRightSnip" v:prompt="" v:val="VT0(0):5"/>
				<v:ud v:nameU="CTypeBotLeftSnip" v:prompt="" v:val="VT0(0):5"/>
				<v:ud v:nameU="CTypeBotRightSnip" v:prompt="" v:val="VT0(0):5"/>
				<v:ud v:nameU="CornerLockHoriz" v:prompt="" v:val="VT0(1):5"/>
				<v:ud v:nameU="CornerLockVert" v:prompt="" v:val="VT0(1):5"/>
				<v:ud v:nameU="CornerLockDiag" v:prompt="" v:val="VT0(0):5"/>
				<v:ud v:nameU="TopLeftOffset" v:prompt="" v:val="VT0(0.15748031496063):24"/>
				<v:ud v:nameU="TopRightOffset" v:prompt="" v:val="VT0(0.15748031496063):24"/>
				<v:ud v:nameU="BotLeftOffset" v:prompt="" v:val="VT0(0.15748031496063):24"/>
				<v:ud v:nameU="BotRightOffset" v:prompt="" v:val="VT0(0.15748031496063):24"/>
				<v:ud v:nameU="visVersion" v:prompt="" v:val="VT0(15):26"/>
			</v:userDefs>
			<v:textBlock v:margins="rect(2,2,2,2)" v:tabSpace="42.5197"/>
			<v:textRect cx="28.3465" cy="248.197" width="56.7" height="22.6772"/>
			<path d="M11.34 259.54 L45.35 259.54 A11.3384 11.3384 -180 0 0 56.69 248.2 A11.3384 11.3384 -180 0 0 45.35 236.86 L11.34
						 236.86 A11.3384 11.3384 -180 0 0 0 248.2 A11.3384 11.3384 -180 0 0 11.34 259.54 Z" class="st4"/>
			<text x="10.88" y="245.8" class="st5" v:langID="1033"><v:paragraph v:horizAlign="1"/><v:tabList/>Centro de <tspan
						x="13.57" dy="1.2em" class="st3">estudios</tspan></text>		</g>
		<g id="shape180-82" v:mID="180" v:groupContext="shape" transform="translate(243.669,-171.579)">
			<title>Rounded Rectangle.180</title>
			<desc>Centro de estudios</desc>
			<v:userDefs>
				<v:ud v:nameU="CTypeTopLeftSnip" v:prompt="" v:val="VT0(0):5"/>
				<v:ud v:nameU="CTypeTopRightSnip" v:prompt="" v:val="VT0(0):5"/>
				<v:ud v:nameU="CTypeBotLeftSnip" v:prompt="" v:val="VT0(0):5"/>
				<v:ud v:nameU="CTypeBotRightSnip" v:prompt="" v:val="VT0(0):5"/>
				<v:ud v:nameU="CornerLockHoriz" v:prompt="" v:val="VT0(1):5"/>
				<v:ud v:nameU="CornerLockVert" v:prompt="" v:val="VT0(1):5"/>
				<v:ud v:nameU="CornerLockDiag" v:prompt="" v:val="VT0(0):5"/>
				<v:ud v:nameU="TopLeftOffset" v:prompt="" v:val="VT0(0.15748031496063):24"/>
				<v:ud v:nameU="TopRightOffset" v:prompt="" v:val="VT0(0.15748031496063):24"/>
				<v:ud v:nameU="BotLeftOffset" v:prompt="" v:val="VT0(0.15748031496063):24"/>
				<v:ud v:nameU="BotRightOffset" v:prompt="" v:val="VT0(0.15748031496063):24"/>
				<v:ud v:nameU="visVersion" v:prompt="" v:val="VT0(15):26"/>
			</v:userDefs>
			<v:textBlock v:margins="rect(2,2,2,2)" v:tabSpace="42.5197"/>
			<v:textRect cx="28.3465" cy="248.197" width="56.7" height="22.6772"/>
			<path d="M11.34 259.54 L45.35 259.54 A11.3384 11.3384 -180 0 0 56.69 248.2 A11.3384 11.3384 -180 0 0 45.35 236.86 L11.34
						 236.86 A11.3384 11.3384 -180 0 0 0 248.2 A11.3384 11.3384 -180 0 0 11.34 259.54 Z" class="st4"/>
			<text x="10.88" y="245.8" class="st5" v:langID="1033"><v:paragraph v:horizAlign="1"/><v:tabList/>Centro de <tspan
						x="13.57" dy="1.2em" class="st3">estudios</tspan></text>		</g>
		<g id="shape181-86" v:mID="181" v:groupContext="shape" transform="translate(307.996,-138.98)">
			<title>Rounded Rectangle.181</title>
			<desc>Centro de estudios</desc>
			<v:userDefs>
				<v:ud v:nameU="CTypeTopLeftSnip" v:prompt="" v:val="VT0(0):5"/>
				<v:ud v:nameU="CTypeTopRightSnip" v:prompt="" v:val="VT0(0):5"/>
				<v:ud v:nameU="CTypeBotLeftSnip" v:prompt="" v:val="VT0(0):5"/>
				<v:ud v:nameU="CTypeBotRightSnip" v:prompt="" v:val="VT0(0):5"/>
				<v:ud v:nameU="CornerLockHoriz" v:prompt="" v:val="VT0(1):5"/>
				<v:ud v:nameU="CornerLockVert" v:prompt="" v:val="VT0(1):5"/>
				<v:ud v:nameU="CornerLockDiag" v:prompt="" v:val="VT0(0):5"/>
				<v:ud v:nameU="TopLeftOffset" v:prompt="" v:val="VT0(0.15748031496063):24"/>
				<v:ud v:nameU="TopRightOffset" v:prompt="" v:val="VT0(0.15748031496063):24"/>
				<v:ud v:nameU="BotLeftOffset" v:prompt="" v:val="VT0(0.15748031496063):24"/>
				<v:ud v:nameU="BotRightOffset" v:prompt="" v:val="VT0(0.15748031496063):24"/>
				<v:ud v:nameU="visVersion" v:prompt="" v:val="VT0(15):26"/>
			</v:userDefs>
			<v:textBlock v:margins="rect(2,2,2,2)" v:tabSpace="42.5197"/>
			<v:textRect cx="28.3465" cy="248.197" width="56.7" height="22.6772"/>
			<path d="M11.34 259.54 L45.35 259.54 A11.3384 11.3384 -180 0 0 56.69 248.2 A11.3384 11.3384 -180 0 0 45.35 236.86 L11.34
						 236.86 A11.3384 11.3384 -180 0 0 0 248.2 A11.3384 11.3384 -180 0 0 11.34 259.54 Z" class="st4"/>
			<text x="10.88" y="245.8" class="st5" v:langID="1033"><v:paragraph v:horizAlign="1"/><v:tabList/>Centro de <tspan
						x="13.57" dy="1.2em" class="st3">estudios</tspan></text>		</g>
		<g id="shape182-90" v:mID="182" v:groupContext="shape" transform="translate(65.7947,-29.8465)">
			<title>Rounded Rectangle.182</title>
			<desc>Centro de estudios</desc>
			<v:userDefs>
				<v:ud v:nameU="CTypeTopLeftSnip" v:prompt="" v:val="VT0(0):5"/>
				<v:ud v:nameU="CTypeTopRightSnip" v:prompt="" v:val="VT0(0):5"/>
				<v:ud v:nameU="CTypeBotLeftSnip" v:prompt="" v:val="VT0(0):5"/>
				<v:ud v:nameU="CTypeBotRightSnip" v:prompt="" v:val="VT0(0):5"/>
				<v:ud v:nameU="CornerLockHoriz" v:prompt="" v:val="VT0(1):5"/>
				<v:ud v:nameU="CornerLockVert" v:prompt="" v:val="VT0(1):5"/>
				<v:ud v:nameU="CornerLockDiag" v:prompt="" v:val="VT0(0):5"/>
				<v:ud v:nameU="TopLeftOffset" v:prompt="" v:val="VT0(0.15748031496063):24"/>
				<v:ud v:nameU="TopRightOffset" v:prompt="" v:val="VT0(0.15748031496063):24"/>
				<v:ud v:nameU="BotLeftOffset" v:prompt="" v:val="VT0(0.15748031496063):24"/>
				<v:ud v:nameU="BotRightOffset" v:prompt="" v:val="VT0(0.15748031496063):24"/>
				<v:ud v:nameU="visVersion" v:prompt="" v:val="VT0(15):26"/>
			</v:userDefs>
			<v:textBlock v:margins="rect(2,2,2,2)" v:tabSpace="42.5197"/>
			<v:textRect cx="28.3465" cy="248.197" width="56.7" height="22.6772"/>
			<path d="M11.34 259.54 L45.35 259.54 A11.3384 11.3384 -180 0 0 56.69 248.2 A11.3384 11.3384 -180 0 0 45.35 236.86 L11.34
						 236.86 A11.3384 11.3384 -180 0 0 0 248.2 A11.3384 11.3384 -180 0 0 11.34 259.54 Z" class="st4"/>
			<text x="10.88" y="245.8" class="st5" v:langID="1033"><v:paragraph v:horizAlign="1"/><v:tabList/>Centro de <tspan
						x="13.57" dy="1.2em" class="st3">estudios</tspan></text>		</g>
		<g id="shape184-94" v:mID="184" v:groupContext="shape" transform="translate(243.669,-27.0118)">
			<title>Rounded Rectangle.184</title>
			<desc>Centro de estudios</desc>
			<v:userDefs>
				<v:ud v:nameU="CTypeTopLeftSnip" v:prompt="" v:val="VT0(0):5"/>
				<v:ud v:nameU="CTypeTopRightSnip" v:prompt="" v:val="VT0(0):5"/>
				<v:ud v:nameU="CTypeBotLeftSnip" v:prompt="" v:val="VT0(0):5"/>
				<v:ud v:nameU="CTypeBotRightSnip" v:prompt="" v:val="VT0(0):5"/>
				<v:ud v:nameU="CornerLockHoriz" v:prompt="" v:val="VT0(1):5"/>
				<v:ud v:nameU="CornerLockVert" v:prompt="" v:val="VT0(1):5"/>
				<v:ud v:nameU="CornerLockDiag" v:prompt="" v:val="VT0(0):5"/>
				<v:ud v:nameU="TopLeftOffset" v:prompt="" v:val="VT0(0.15748031496063):24"/>
				<v:ud v:nameU="TopRightOffset" v:prompt="" v:val="VT0(0.15748031496063):24"/>
				<v:ud v:nameU="BotLeftOffset" v:prompt="" v:val="VT0(0.15748031496063):24"/>
				<v:ud v:nameU="BotRightOffset" v:prompt="" v:val="VT0(0.15748031496063):24"/>
				<v:ud v:nameU="visVersion" v:prompt="" v:val="VT0(15):26"/>
			</v:userDefs>
			<v:textBlock v:margins="rect(2,2,2,2)" v:tabSpace="42.5197"/>
			<v:textRect cx="28.3465" cy="248.197" width="56.7" height="22.6772"/>
			<path d="M11.34 259.54 L45.35 259.54 A11.3384 11.3384 -180 0 0 56.69 248.2 A11.3384 11.3384 -180 0 0 45.35 236.86 L11.34
						 236.86 A11.3384 11.3384 -180 0 0 0 248.2 A11.3384 11.3384 -180 0 0 11.34 259.54 Z" class="st4"/>
			<text x="10.88" y="245.8" class="st5" v:langID="1033"><v:paragraph v:horizAlign="1"/><v:tabList/>Centro de <tspan
						x="13.57" dy="1.2em" class="st3">estudios</tspan></text>		</g>
		<g id="shape185-98" v:mID="185" v:groupContext="shape" transform="translate(1.5,-106.382)">
			<title>Rounded Rectangle.185</title>
			<desc>Semillero</desc>
			<v:userDefs>
				<v:ud v:nameU="CTypeTopLeftSnip" v:prompt="" v:val="VT0(0):5"/>
				<v:ud v:nameU="CTypeTopRightSnip" v:prompt="" v:val="VT0(0):5"/>
				<v:ud v:nameU="CTypeBotLeftSnip" v:prompt="" v:val="VT0(0):5"/>
				<v:ud v:nameU="CTypeBotRightSnip" v:prompt="" v:val="VT0(0):5"/>
				<v:ud v:nameU="CornerLockHoriz" v:prompt="" v:val="VT0(1):5"/>
				<v:ud v:nameU="CornerLockVert" v:prompt="" v:val="VT0(1):5"/>
				<v:ud v:nameU="CornerLockDiag" v:prompt="" v:val="VT0(0):5"/>
				<v:ud v:nameU="TopLeftOffset" v:prompt="" v:val="VT0(0.15748031496063):24"/>
				<v:ud v:nameU="TopRightOffset" v:prompt="" v:val="VT0(0.15748031496063):24"/>
				<v:ud v:nameU="BotLeftOffset" v:prompt="" v:val="VT0(0.15748031496063):24"/>
				<v:ud v:nameU="BotRightOffset" v:prompt="" v:val="VT0(0.15748031496063):24"/>
				<v:ud v:nameU="visVersion" v:prompt="" v:val="VT0(15):26"/>
			</v:userDefs>
			<v:textBlock v:margins="rect(2,2,2,2)" v:tabSpace="42.5197"/>
			<v:textRect cx="28.3465" cy="248.197" width="56.7" height="22.6772"/>
			<path d="M11.34 259.54 L45.35 259.54 A11.3384 11.3384 -180 0 0 56.69 248.2 A11.3384 11.3384 -180 0 0 45.35 236.86 L11.34
						 236.86 A11.3384 11.3384 -180 0 0 0 248.2 A11.3384 11.3384 -180 0 0 11.34 259.54 Z" class="st4"/>
			<text x="11.95" y="250.6" class="st5" v:langID="1033"><v:paragraph v:horizAlign="1"/><v:tabList/>Semillero</text>		</g>
		<g id="shape186-101" v:mID="186" v:groupContext="shape" transform="translate(83.8656,-218.35)">
			<title>Rounded Rectangle.186</title>
			<desc>Semillero</desc>
			<v:userDefs>
				<v:ud v:nameU="CTypeTopLeftSnip" v:prompt="" v:val="VT0(0):5"/>
				<v:ud v:nameU="CTypeTopRightSnip" v:prompt="" v:val="VT0(0):5"/>
				<v:ud v:nameU="CTypeBotLeftSnip" v:prompt="" v:val="VT0(0):5"/>
				<v:ud v:nameU="CTypeBotRightSnip" v:prompt="" v:val="VT0(0):5"/>
				<v:ud v:nameU="CornerLockHoriz" v:prompt="" v:val="VT0(1):5"/>
				<v:ud v:nameU="CornerLockVert" v:prompt="" v:val="VT0(1):5"/>
				<v:ud v:nameU="CornerLockDiag" v:prompt="" v:val="VT0(0):5"/>
				<v:ud v:nameU="TopLeftOffset" v:prompt="" v:val="VT0(0.15748031496063):24"/>
				<v:ud v:nameU="TopRightOffset" v:prompt="" v:val="VT0(0.15748031496063):24"/>
				<v:ud v:nameU="BotLeftOffset" v:prompt="" v:val="VT0(0.15748031496063):24"/>
				<v:ud v:nameU="BotRightOffset" v:prompt="" v:val="VT0(0.15748031496063):24"/>
				<v:ud v:nameU="visVersion" v:prompt="" v:val="VT0(15):26"/>
			</v:userDefs>
			<v:textBlock v:margins="rect(2,2,2,2)" v:tabSpace="42.5197"/>
			<v:textRect cx="28.3465" cy="248.197" width="56.7" height="22.6772"/>
			<path d="M11.34 259.54 L45.35 259.54 A11.3384 11.3384 -180 0 0 56.69 248.2 A11.3384 11.3384 -180 0 0 45.35 236.86 L11.34
						 236.86 A11.3384 11.3384 -180 0 0 0 248.2 A11.3384 11.3384 -180 0 0 11.34 259.54 Z" class="st4"/>
			<text x="11.95" y="250.6" class="st5" v:langID="1033"><v:paragraph v:horizAlign="1"/><v:tabList/>Semillero</text>		</g>
		<g id="shape187-104" v:mID="187" v:groupContext="shape" v:layerMember="0" transform="translate(175.992,-186.461)">
			<title>Dynamic connector.187</title>
			<v:userDefs>
				<v:ud v:nameU="visVersion" v:val="VT0(15):26"/>
			</v:userDefs>
			<path d="M7.09 258.83 C7.09 256.78 7.09 253.42 7.09 250.44" class="st9"/>
		</g>
		<g id="shape188-109" v:mID="188" v:groupContext="shape" v:layerMember="0" transform="translate(22.7598,-141.106)">
			<title>Dynamic connector.188</title>
			<v:userDefs>
				<v:ud v:nameU="visVersion" v:val="VT0(15):26"/>
			</v:userDefs>
			<path d="M7.09 261.66 C7.09 263.03 7.09 265.17 7.09 267.22" class="st9"/>
		</g>
		<g id="shape189-114" v:mID="189" v:groupContext="shape" transform="translate(1.5,-171.579)">
			<title>Rounded Rectangle.189</title>
			<desc>Semillero</desc>
			<v:userDefs>
				<v:ud v:nameU="CTypeTopLeftSnip" v:prompt="" v:val="VT0(0):5"/>
				<v:ud v:nameU="CTypeTopRightSnip" v:prompt="" v:val="VT0(0):5"/>
				<v:ud v:nameU="CTypeBotLeftSnip" v:prompt="" v:val="VT0(0):5"/>
				<v:ud v:nameU="CTypeBotRightSnip" v:prompt="" v:val="VT0(0):5"/>
				<v:ud v:nameU="CornerLockHoriz" v:prompt="" v:val="VT0(1):5"/>
				<v:ud v:nameU="CornerLockVert" v:prompt="" v:val="VT0(1):5"/>
				<v:ud v:nameU="CornerLockDiag" v:prompt="" v:val="VT0(0):5"/>
				<v:ud v:nameU="TopLeftOffset" v:prompt="" v:val="VT0(0.15748031496063):24"/>
				<v:ud v:nameU="TopRightOffset" v:prompt="" v:val="VT0(0.15748031496063):24"/>
				<v:ud v:nameU="BotLeftOffset" v:prompt="" v:val="VT0(0.15748031496063):24"/>
				<v:ud v:nameU="BotRightOffset" v:prompt="" v:val="VT0(0.15748031496063):24"/>
				<v:ud v:nameU="visVersion" v:prompt="" v:val="VT0(15):26"/>
			</v:userDefs>
			<v:textBlock v:margins="rect(2,2,2,2)" v:tabSpace="42.5197"/>
			<v:textRect cx="28.3465" cy="248.197" width="56.7" height="22.6772"/>
			<path d="M11.34 259.54 L45.35 259.54 A11.3384 11.3384 -180 0 0 56.69 248.2 A11.3384 11.3384 -180 0 0 45.35 236.86 L11.34
						 236.86 A11.3384 11.3384 -180 0 0 0 248.2 A11.3384 11.3384 -180 0 0 11.34 259.54 Z" class="st4"/>
			<text x="11.95" y="250.6" class="st5" v:langID="1033"><v:paragraph v:horizAlign="1"/><v:tabList/>Semillero</text>		</g>
		<g id="shape190-117" v:mID="190" v:groupContext="shape" v:layerMember="0" transform="translate(69.0804,-175.831)">
			<title>Dynamic connector.190</title>
			<v:userDefs>
				<v:ud v:nameU="visVersion" v:val="VT0(15):26"/>
			</v:userDefs>
			<path d="M-3.29 252.45 C-4.11 252.45 -5.29 252.45 -6.52 252.45" class="st9"/>
		</g>
		<g id="shape191-122" v:mID="191" v:groupContext="shape" transform="translate(154.732,-235.358)">
			<title>Rounded Rectangle.191</title>
			<desc>Semillero</desc>
			<v:userDefs>
				<v:ud v:nameU="CTypeTopLeftSnip" v:prompt="" v:val="VT0(0):5"/>
				<v:ud v:nameU="CTypeTopRightSnip" v:prompt="" v:val="VT0(0):5"/>
				<v:ud v:nameU="CTypeBotLeftSnip" v:prompt="" v:val="VT0(0):5"/>
				<v:ud v:nameU="CTypeBotRightSnip" v:prompt="" v:val="VT0(0):5"/>
				<v:ud v:nameU="CornerLockHoriz" v:prompt="" v:val="VT0(1):5"/>
				<v:ud v:nameU="CornerLockVert" v:prompt="" v:val="VT0(1):5"/>
				<v:ud v:nameU="CornerLockDiag" v:prompt="" v:val="VT0(0):5"/>
				<v:ud v:nameU="TopLeftOffset" v:prompt="" v:val="VT0(0.15748031496063):24"/>
				<v:ud v:nameU="TopRightOffset" v:prompt="" v:val="VT0(0.15748031496063):24"/>
				<v:ud v:nameU="BotLeftOffset" v:prompt="" v:val="VT0(0.15748031496063):24"/>
				<v:ud v:nameU="BotRightOffset" v:prompt="" v:val="VT0(0.15748031496063):24"/>
				<v:ud v:nameU="visVersion" v:prompt="" v:val="VT0(15):26"/>
			</v:userDefs>
			<v:textBlock v:margins="rect(2,2,2,2)" v:tabSpace="42.5197"/>
			<v:textRect cx="28.3465" cy="248.197" width="56.7" height="22.6772"/>
			<path d="M11.34 259.54 L45.35 259.54 A11.3384 11.3384 -180 0 0 56.69 248.2 A11.3384 11.3384 -180 0 0 45.35 236.86 L11.34
						 236.86 A11.3384 11.3384 -180 0 0 0 248.2 A11.3384 11.3384 -180 0 0 11.34 259.54 Z" class="st4"/>
			<text x="11.95" y="250.6" class="st5" v:langID="1033"><v:paragraph v:horizAlign="1"/><v:tabList/>Semillero</text>		</g>
		<g id="shape192-125" v:mID="192" v:groupContext="shape" v:layerMember="0" transform="translate(175.992,-221.894)">
			<title>Dynamic connector.192</title>
			<v:userDefs>
				<v:ud v:nameU="visVersion" v:val="VT0(15):26"/>
			</v:userDefs>
			<path d="M7.09 258.83 C7.09 256.78 7.09 253.42 7.09 250.44" class="st9"/>
		</g>
		<g id="shape194-130" v:mID="194" v:groupContext="shape" v:layerMember="0" transform="translate(154.732,-211.264)">
			<title>Dynamic connector.194</title>
			<v:userDefs>
				<v:ud v:nameU="visVersion" v:val="VT0(15):26"/>
			</v:userDefs>
			<path d="M-0 259.54 C-4.34 259.54 -5.14 247.23 -10.12 242.73 L-10.45 242.6" class="st10"/>
		</g>
		<g id="shape195-135" v:mID="195" v:groupContext="shape" v:layerMember="0" transform="translate(94.1411,-194.256)">
			<title>Dynamic connector.195</title>
			<v:userDefs>
				<v:ud v:nameU="visVersion" v:val="VT0(15):26"/>
			</v:userDefs>
			<path d="M0 259.54 C0 250.18 14 249.06 17.35 239.75 L17.41 239.39" class="st10"/>
		</g>
		<g id="shape199-140" v:mID="199" v:groupContext="shape" v:layerMember="0" transform="translate(264.929,-159.532)">
			<title>Dynamic connector.199</title>
			<v:userDefs>
				<v:ud v:nameU="visVersion" v:val="VT0(15):26"/>
			</v:userDefs>
			<path d="M7.09 257.41 C7.09 256.04 7.09 253.9 7.09 251.85" class="st9"/>
		</g>
		<g id="shape200-145" v:mID="200" v:groupContext="shape" v:layerMember="0" transform="translate(87.0545,-64.5709)">
			<title>Dynamic connector.200</title>
			<v:userDefs>
				<v:ud v:nameU="visVersion" v:val="VT0(15):26"/>
			</v:userDefs>
			<path d="M7.09 261.66 C7.09 263.03 7.09 265.17 7.09 267.22" class="st9"/>
		</g>
		<g id="shape201-150" v:mID="201" v:groupContext="shape" transform="translate(307.996,-192.839)">
			<title>Rounded Rectangle.201</title>
			<desc>Semillero</desc>
			<v:userDefs>
				<v:ud v:nameU="CTypeTopLeftSnip" v:prompt="" v:val="VT0(0):5"/>
				<v:ud v:nameU="CTypeTopRightSnip" v:prompt="" v:val="VT0(0):5"/>
				<v:ud v:nameU="CTypeBotLeftSnip" v:prompt="" v:val="VT0(0):5"/>
				<v:ud v:nameU="CTypeBotRightSnip" v:prompt="" v:val="VT0(0):5"/>
				<v:ud v:nameU="CornerLockHoriz" v:prompt="" v:val="VT0(1):5"/>
				<v:ud v:nameU="CornerLockVert" v:prompt="" v:val="VT0(1):5"/>
				<v:ud v:nameU="CornerLockDiag" v:prompt="" v:val="VT0(0):5"/>
				<v:ud v:nameU="TopLeftOffset" v:prompt="" v:val="VT0(0.15748031496063):24"/>
				<v:ud v:nameU="TopRightOffset" v:prompt="" v:val="VT0(0.15748031496063):24"/>
				<v:ud v:nameU="BotLeftOffset" v:prompt="" v:val="VT0(0.15748031496063):24"/>
				<v:ud v:nameU="BotRightOffset" v:prompt="" v:val="VT0(0.15748031496063):24"/>
				<v:ud v:nameU="visVersion" v:prompt="" v:val="VT0(15):26"/>
			</v:userDefs>
			<v:textBlock v:margins="rect(2,2,2,2)" v:tabSpace="42.5197"/>
			<v:textRect cx="28.3465" cy="248.197" width="56.7" height="22.6772"/>
			<path d="M11.34 259.54 L45.35 259.54 A11.3384 11.3384 -180 0 0 56.69 248.2 A11.3384 11.3384 -180 0 0 45.35 236.86 L11.34
						 236.86 A11.3384 11.3384 -180 0 0 0 248.2 A11.3384 11.3384 -180 0 0 11.34 259.54 Z" class="st4"/>
			<text x="11.95" y="250.6" class="st5" v:langID="1033"><v:paragraph v:horizAlign="1"/><v:tabList/>Semillero</text>		</g>
		<g id="shape202-153" v:mID="202" v:groupContext="shape" v:layerMember="0" transform="translate(300.362,-180.791)">
			<title>Dynamic connector.202</title>
			<v:userDefs>
				<v:ud v:nameU="visVersion" v:val="VT0(15):26"/>
			</v:userDefs>
			<path d="M0 257.41 C9 257.41 24.13 257.41 30.78 255.07 C33.21 254.21 34.51 253.04 35.2 251.78 L35.26 251.43"
					class="st10"/>
		</g>
		<g id="shape203-158" v:mID="203" v:groupContext="shape" v:layerMember="0" transform="translate(297.092,-143.232)">
			<title>Dynamic connector.203</title>
			<v:userDefs>
				<v:ud v:nameU="visVersion" v:val="VT0(15):26"/>
			</v:userDefs>
			<path d="M3.27 252.45 C4.1 252.45 5.3 252.45 6.54 252.45" class="st9"/>
		</g>
		<g id="shape204-163" v:mID="204" v:groupContext="shape" v:layerMember="0" transform="translate(264.929,-63.1535)">
			<title>Dynamic connector.204</title>
			<v:userDefs>
				<v:ud v:nameU="visVersion" v:val="VT0(15):26"/>
			</v:userDefs>
			<path d="M7.09 260.24 C7.09 262.29 7.09 265.65 7.09 268.64" class="st9"/>
		</g>
		<g id="shape205-168" v:mID="205" v:groupContext="shape" transform="translate(154.732,-1.5)">
			<title>Rounded Rectangle.205</title>
			<desc>Semillero</desc>
			<v:userDefs>
				<v:ud v:nameU="CTypeTopLeftSnip" v:prompt="" v:val="VT0(0):5"/>
				<v:ud v:nameU="CTypeTopRightSnip" v:prompt="" v:val="VT0(0):5"/>
				<v:ud v:nameU="CTypeBotLeftSnip" v:prompt="" v:val="VT0(0):5"/>
				<v:ud v:nameU="CTypeBotRightSnip" v:prompt="" v:val="VT0(0):5"/>
				<v:ud v:nameU="CornerLockHoriz" v:prompt="" v:val="VT0(1):5"/>
				<v:ud v:nameU="CornerLockVert" v:prompt="" v:val="VT0(1):5"/>
				<v:ud v:nameU="CornerLockDiag" v:prompt="" v:val="VT0(0):5"/>
				<v:ud v:nameU="TopLeftOffset" v:prompt="" v:val="VT0(0.15748031496063):24"/>
				<v:ud v:nameU="TopRightOffset" v:prompt="" v:val="VT0(0.15748031496063):24"/>
				<v:ud v:nameU="BotLeftOffset" v:prompt="" v:val="VT0(0.15748031496063):24"/>
				<v:ud v:nameU="BotRightOffset" v:prompt="" v:val="VT0(0.15748031496063):24"/>
				<v:ud v:nameU="visVersion" v:prompt="" v:val="VT0(15):26"/>
			</v:userDefs>
			<v:textBlock v:margins="rect(2,2,2,2)" v:tabSpace="42.5197"/>
			<v:textRect cx="28.3465" cy="248.197" width="56.7" height="22.6772"/>
			<path d="M11.34 259.54 L45.35 259.54 A11.3384 11.3384 -180 0 0 56.69 248.2 A11.3384 11.3384 -180 0 0 45.35 236.86 L11.34
						 236.86 A11.3384 11.3384 -180 0 0 0 248.2 A11.3384 11.3384 -180 0 0 11.34 259.54 Z" class="st4"/>
			<text x="11.95" y="250.6" class="st5" v:langID="1033"><v:paragraph v:horizAlign="1"/><v:tabList/>Semillero</text>		</g>
		<g id="shape206-171" v:mID="206" v:groupContext="shape" transform="translate(307.996,-62.4449)">
			<title>Rounded Rectangle.206</title>
			<desc>Semillero</desc>
			<v:userDefs>
				<v:ud v:nameU="CTypeTopLeftSnip" v:prompt="" v:val="VT0(0):5"/>
				<v:ud v:nameU="CTypeTopRightSnip" v:prompt="" v:val="VT0(0):5"/>
				<v:ud v:nameU="CTypeBotLeftSnip" v:prompt="" v:val="VT0(0):5"/>
				<v:ud v:nameU="CTypeBotRightSnip" v:prompt="" v:val="VT0(0):5"/>
				<v:ud v:nameU="CornerLockHoriz" v:prompt="" v:val="VT0(1):5"/>
				<v:ud v:nameU="CornerLockVert" v:prompt="" v:val="VT0(1):5"/>
				<v:ud v:nameU="CornerLockDiag" v:prompt="" v:val="VT0(0):5"/>
				<v:ud v:nameU="TopLeftOffset" v:prompt="" v:val="VT0(0.15748031496063):24"/>
				<v:ud v:nameU="TopRightOffset" v:prompt="" v:val="VT0(0.15748031496063):24"/>
				<v:ud v:nameU="BotLeftOffset" v:prompt="" v:val="VT0(0.15748031496063):24"/>
				<v:ud v:nameU="BotRightOffset" v:prompt="" v:val="VT0(0.15748031496063):24"/>
				<v:ud v:nameU="visVersion" v:prompt="" v:val="VT0(15):26"/>
			</v:userDefs>
			<v:textBlock v:margins="rect(2,2,2,2)" v:tabSpace="42.5197"/>
			<v:textRect cx="28.3465" cy="248.197" width="56.7" height="22.6772"/>
			<path d="M11.34 259.54 L45.35 259.54 A11.3384 11.3384 -180 0 0 56.69 248.2 A11.3384 11.3384 -180 0 0 45.35 236.86 L11.34
						 236.86 A11.3384 11.3384 -180 0 0 0 248.2 A11.3384 11.3384 -180 0 0 11.34 259.54 Z" class="st4"/>
			<text x="11.95" y="250.6" class="st5" v:langID="1033"><v:paragraph v:horizAlign="1"/><v:tabList/>Semillero</text>		</g>
		<g id="shape207-174" v:mID="207" v:groupContext="shape" v:layerMember="0" transform="translate(329.256,-161.657)">
			<title>Dynamic connector.207</title>
			<v:userDefs>
				<v:ud v:nameU="visVersion" v:val="VT0(15):26"/>
			</v:userDefs>
			<path d="M7.09 259.54 C7.09 253.01 7.09 241.02 7.09 232.72" class="st11"/>
		</g>
		<g id="shape208-179" v:mID="208" v:groupContext="shape" v:layerMember="0" transform="translate(297.092,-66.6969)">
			<title>Dynamic connector.208</title>
			<v:userDefs>
				<v:ud v:nameU="visVersion" v:val="VT0(15):26"/>
			</v:userDefs>
			<path d="M3.27 252.45 C4.1 252.45 5.3 252.45 6.54 252.45" class="st11"/>
		</g>
		<g id="shape209-184" v:mID="209" v:groupContext="shape" v:layerMember="0" transform="translate(175.992,-37.6417)">
			<title>Dynamic connector.209</title>
			<v:userDefs>
				<v:ud v:nameU="visVersion" v:val="VT0(15):26"/>
			</v:userDefs>
			<path d="M7.09 260.24 C7.09 262.29 7.09 265.65 7.09 268.64" class="st9"/>
		</g>
		<g id="shape221-189" v:mID="221" v:groupContext="shape" v:layerMember="0" transform="translate(183.078,-130.476)">
			<title>Dynamic connector.221</title>
			<v:userDefs>
				<v:ud v:nameU="visVersion" v:val="VT0(15):26"/>
			</v:userDefs>
			<path d="M0 259.54 C0 236.15 -19.22 236.15 -28.96 229.09 C-38.25 222.35 -38.92 209.18 -56.23 207.32 L-56.59 207.3"
					class="st10"/>
		</g>
		<g id="shape222-194" v:mID="222" v:groupContext="shape" v:layerMember="0" transform="translate(183.078,-130.476)">
			<title>Dynamic connector.222</title>
			<v:userDefs>
				<v:ud v:nameU="visVersion" v:val="VT0(15):26"/>
			</v:userDefs>
			<path d="M0 259.54 C0 236.15 19.22 236.15 28.96 229.09 C38.25 222.35 38.92 209.18 56.23 207.32 L56.59 207.3"
					class="st10"/>
		</g>
		<g id="shape223-199" v:mID="223" v:groupContext="shape" v:layerMember="0" transform="translate(183.078,-93.626)">
			<title>Dynamic connector.223</title>
			<v:userDefs>
				<v:ud v:nameU="visVersion" v:val="VT0(15):26"/>
			</v:userDefs>
			<path d="M0 259.54 C0 282.92 19.37 282.92 29.11 290.8 C38.26 298.19 38.92 312.53 56.23 314.57 L56.59 314.59"
					class="st10"/>
		</g>
		<g id="shape224-204" v:mID="224" v:groupContext="shape" v:layerMember="0" transform="translate(183.078,-93.626)">
			<title>Dynamic connector.224</title>
			<v:userDefs>
				<v:ud v:nameU="visVersion" v:val="VT0(15):26"/>
			</v:userDefs>
			<path d="M0 259.54 C-0 282.92 -19.22 282.92 -28.96 289.98 C-38.25 296.72 -38.92 309.89 -56.23 311.75 L-56.59 311.77"
					class="st10"/>
		</g>
	</g>
</svg>
