<?xml version="1.0" encoding="UTF-8"?>
<!DOCTYPE svg PUBLIC "-//W3C//DTD SVG 1.1//EN" "http://www.w3.org/Graphics/SVG/1.1/DTD/svg11.dtd">
<!-- Creator: CorelDRAW -->
<svg xmlns="http://www.w3.org/2000/svg" xml:space="preserve" width="75.4171mm" height="77.1073mm" version="1.1" style="shape-rendering:geometricPrecision; text-rendering:geometricPrecision; image-rendering:optimizeQuality; fill-rule:evenodd; clip-rule:evenodd"
viewBox="0 0 448.9 458.96"
 xmlns:xlink="http://www.w3.org/1999/xlink"
 xmlns:xodm="http://www.corel.com/coreldraw/odm/2003">
 <defs>
  <style type="text/css">
   <![CDATA[
    .fil5 {fill:#1A1A1A}
    .fil4 {fill:black;fill-rule:nonzero}
    .fil3 {fill:white;fill-rule:nonzero}
    .fil6 {fill:white;fill-rule:nonzero}
    .fil1 {fill:black;fill-rule:nonzero;fill-opacity:0.050980}
    .fil2 {fill:black;fill-rule:nonzero;fill-opacity:0.070588}
    .fil0 {fill:url(#id0);fill-rule:nonzero}
   ]]>
  </style>
  <linearGradient id="id0" gradientUnits="userSpaceOnUse" x1="71.3" y1="149.61" x2="386.27" y2="149.61">
   <stop offset="0" style="stop-opacity:1; stop-color:#4C4C4C"/>
   <stop offset="1" style="stop-opacity:1; stop-color:#343434"/>
  </linearGradient>
 </defs>
 <g id="Layer_x0020_1">
  <metadata id="CorelCorpID_0Corel-Layer"/>
  <g id="_3045933754576">
   <g>
    <path class="fil0" d="M228.78 0c-86.98,0 -157.49,70.51 -157.49,157.49 0,69.98 45.68,129.23 108.82,149.74l97.33 0c63.14,-20.51 108.82,-79.76 108.82,-149.74 0,-86.98 -70.51,-157.49 -157.49,-157.49z"/>
    <path class="fil1" d="M276.11 299.19l-0.08 -45.66c0,-7.39 -1.73,-14.61 -5.06,-21.16 44.42,-8.92 66.03,-35.18 66.03,-80.14 0,-17.76 -5.24,-33.43 -15.56,-46.62 0.79,-2.5 1.37,-5.08 1.73,-7.72 1.48,-10.78 -0.18,-17.83 -1.52,-23.5l-0.21 -0.91c-1.46,-6.27 -3.22,-10.74 -3.29,-10.93l-0.87 -2.22 -0.87 -2.22 -2.38 -0.25 -2.39 -0.25c0,0 -1.57,-0.17 -3.95,-0.17 -3.3,0 -8.19,0.33 -12.81,1.9l-1.54 0.52c-5.83,1.96 -11.33,3.82 -19.03,8.42 -2.25,1.35 -4.72,2.88 -7.35,4.6 -11.92,-2.95 -24.75,-4.46 -38.18,-4.46 -13.56,0 -26.5,1.51 -38.5,4.5 -2.67,-1.73 -5.15,-3.28 -7.42,-4.64 -7.7,-4.6 -13.21,-6.45 -19.03,-8.42l-1.54 -0.52c-4.61,-1.57 -9.5,-1.9 -12.8,-1.9 -2.38,0 -3.95,0.17 -3.95,0.17l-2.38 0.25 -2.36 0.24 -0.88 2.21 -0.89 2.23c-0.08,0.2 -1.83,4.68 -3.3,10.95l-0.21 0.91c-1.34,5.66 -3,12.72 -1.52,23.49 0.38,2.72 0.98,5.39 1.81,7.96 -10.12,13.12 -15.24,28.71 -15.24,46.38 0,44.84 21.64,71.09 66.12,80.08 -1.53,3.06 -2.72,6.28 -3.56,9.64 -1.55,0.53 -2.98,0.88 -4.24,1.08 -1.87,0.28 -3.84,0.42 -5.82,0.42 -5.4,0 -9.65,-1.06 -11.3,-2.04 -2.46,-1.46 -6.87,-5.72 -11.13,-11.95 -3.65,-5.32 -9.33,-12.27 -15.69,-15.17 -5.5,-2.51 -11.32,-3.95 -15.98,-3.95 -1.09,0 -2.09,0.08 -2.96,0.22 -4.07,0.65 -7.47,2.88 -9.32,6.14 -1.6,2.81 -1.85,6.09 -0.69,8.98 1.72,4.32 6.7,7.76 10.58,9.88 1.91,1.05 6.02,4.87 8.43,8.73 1.8,2.9 2.64,4.96 3.8,7.81 0.69,1.69 1.44,3.54 2.46,5.76 3.7,8.05 15.25,15.15 16.56,15.93 6.35,3.8 17.02,5.02 24.86,5.38l0.97 0.02c0,0 0.01,0 0.01,0 1.89,0 4.49,-0.18 7.91,-0.56l0 20.58c0.02,4.17 -4.23,5.11 -9.84,5.02l4.31 1.45c16.5,5.9 34.21,9.27 52.76,9.27 18.54,0 36.26,-3.37 52.78,-9.26l5.54 -2.06c-5.6,-0.19 -10.95,-1.1 -10.99,-4.46z"/>
    <path class="fil2" d="M282.18 305.5c-3.2,0.37 -10.09,-0.86 -10.09,-6.26l0 -45.7c0,-8.61 -2.58,-16.94 -7.37,-24.03 46.58,-7.54 68.34,-32.23 68.34,-77.26 0,-17.62 -5.4,-33.02 -16.06,-45.84 1.08,-2.87 1.83,-5.91 2.27,-9.03 1.38,-10.05 -0.13,-16.43 -1.45,-22.06l-0.21 -0.91c-1.4,-5.99 -3.06,-10.21 -3.13,-10.39l-0.87 -2.22 -2.39 -0.25c0,0 -1.4,-0.15 -3.54,-0.15 -3,0 -7.43,0.29 -11.54,1.69l-1.54 0.52c-5.62,1.9 -10.94,3.69 -18.28,8.06 -2.61,1.56 -5.53,3.39 -8.67,5.46 -12.07,-3.16 -25.14,-4.76 -38.88,-4.76 -13.87,0 -27.05,1.61 -39.21,4.8 -3.17,-2.09 -6.1,-3.93 -8.73,-5.5 -7.34,-4.38 -12.65,-6.17 -18.28,-8.06l-1.54 -0.52c-4.1,-1.39 -8.54,-1.69 -11.54,-1.69 -2.13,0 -3.54,0.15 -3.54,0.15l-2.38 0.25 -0.89 2.23c-0.07,0.17 -1.72,4.39 -3.13,10.39l-0.21 0.91c-1.33,5.63 -2.84,12 -1.45,22.05 0.44,3.2 1.23,6.31 2.35,9.24 -10.45,12.76 -15.74,28.09 -15.74,45.63 0,44.91 21.78,69.59 68.4,77.22 -3.11,4.65 -5.28,9.88 -6.4,15.47 -2.6,1.02 -4.95,1.7 -7.02,2.02 -2.07,0.31 -4.23,0.47 -6.41,0.47 -5.43,0 -10.65,-1.02 -13.31,-2.59 -3.46,-2.06 -8.32,-7.2 -12.38,-13.11 -2.76,-4.02 -8.24,-11.16 -14.08,-13.82 -5,-2.28 -10.22,-3.6 -14.34,-3.6 -0.87,0 -1.65,0.06 -2.35,0.17 -2.88,0.46 -5.26,1.98 -6.52,4.2 -1.01,1.76 -1.17,3.8 -0.46,5.57 1.41,3.53 6.63,6.69 8.81,7.89 2.64,1.45 7.24,5.86 9.87,10.11 1.98,3.18 2.91,5.49 4.1,8.4 0.67,1.65 1.4,3.44 2.39,5.61 2.61,5.66 10.65,11.59 15,14.2 5.94,3.56 16.96,4.55 23.01,4.82l0.87 0.02c2.35,0 6.3,-0.35 11.77,-1.06l0 25.02c0,6.13 -7.8,6.38 -9.72,6.38 -0.24,0 3.96,1.45 3.96,1.45 15.46,5.07 31.92,7.91 49.07,7.91 17.15,0 33.62,-2.84 49.07,-7.9 0,0 4.57,-1.61 4.33,-1.57z"/>
    <path class="fil3" d="M329.14 152.24c0,-18.19 -6.16,-33.28 -16.67,-45.1 1.14,-2.56 2.33,-5.99 2.92,-10.31 1.35,-9.84 -0.24,-15.75 -1.6,-21.53 -1.35,-5.78 -2.95,-9.84 -2.95,-9.84 0,0 -7.26,-0.74 -13.41,1.35 -6.15,2.09 -11.44,3.69 -19.07,8.24 -3.57,2.13 -7.16,4.46 -10,6.35 -12.15,-3.37 -25.51,-5.1 -39.57,-5.1 -14.18,0 -27.66,1.74 -39.9,5.13 -2.85,-1.9 -6.46,-4.24 -10.06,-6.39 -7.63,-4.55 -12.92,-6.15 -19.07,-8.24 -6.15,-2.09 -13.41,-1.35 -13.41,-1.35 0,0 -1.6,4.06 -2.95,9.84 -1.35,5.78 -2.95,11.69 -1.6,21.53 0.61,4.43 1.83,7.92 3.01,10.5 -10.32,11.76 -16.36,26.75 -16.36,44.92 0,47.11 25.45,68.62 71.82,74.29 -5.41,5.72 -9.04,13.04 -10.26,21.19 -3.05,1.34 -6.56,2.6 -9.94,3.1 -8.69,1.31 -17.88,0 -22.31,-2.62 -4.43,-2.62 -9.68,-8.53 -13.61,-14.28 -3.32,-4.85 -8.12,-10.48 -12.47,-12.47 -5.74,-2.62 -11.32,-3.61 -14.43,-3.12 -3.12,0.5 -4.59,2.79 -3.94,4.43 0.65,1.64 3.77,4.1 7.06,5.91 3.28,1.8 8.37,6.72 11.32,11.48 3.29,5.31 3.94,8.37 6.72,14.43 1.96,4.27 8.67,9.6 13.45,12.47 4.1,2.46 12.3,3.87 21.17,4.27 3.06,0.14 10.3,-0.76 16.4,-1.62l0 29.53c0,5.03 -4.61,8.86 -9.38,7.98 15.32,5.15 31.67,7.76 48.73,7.76 17.06,0 33.41,-2.61 48.74,-7.75 -4.76,0.87 -9.37,-2.95 -9.37,-7.98l0 -45.7c0,-10.47 -4.15,-19.92 -10.81,-26.97 46.03,-5.53 71.79,-26.52 71.79,-74.33zm-200.84 73.96c-1.21,-0.62 -1.87,-1.77 -1.46,-2.58 0.41,-0.81 1.73,-0.96 2.95,-0.34 1.21,0.62 1.87,1.77 1.46,2.58 -0.41,0.81 -1.73,0.96 -2.95,0.34zm9.54 5.95c-0.64,0.69 -2.01,0.47 -3.06,-0.49 -1.06,-0.96 -1.39,-2.31 -0.76,-3 0.64,-0.69 2.01,-0.47 3.06,0.49 1.06,0.96 1.39,2.31 0.76,3zm5.94 9.84c-0.8,0.57 -2.17,0.04 -3.04,-1.18 -0.87,-1.22 -0.93,-2.68 -0.13,-3.24 0.8,-0.57 2.17,-0.04 3.04,1.18 0.87,1.22 0.93,2.68 0.13,3.24zm8.53 7.41c-0.54,0.88 -2.09,0.92 -3.44,0.09 -1.35,-0.83 -2.02,-2.21 -1.47,-3.09 0.54,-0.88 2.09,-0.92 3.44,-0.09 1.35,0.83 2.02,2.21 1.47,3.09zm8.06 7.25c-1.68,-0.2 -2.92,-1.25 -2.78,-2.34 0.13,-1.09 1.61,-1.8 3.28,-1.59 1.68,0.2 2.92,1.25 2.78,2.34 -0.13,1.08 -1.6,1.8 -3.28,1.59zm13 1.88c-1.79,-0.1 -3.18,-1.13 -3.11,-2.28 0.07,-1.15 1.57,-2.01 3.36,-1.91 1.79,0.1 3.18,1.13 3.11,2.28 -0.07,1.16 -1.57,2.01 -3.36,1.91zm12.27 -1.23c-1.91,0 -3.45,-0.99 -3.45,-2.21 0,-1.22 1.54,-2.21 3.45,-2.21 1.91,0 3.45,0.99 3.45,2.21 0,1.22 -1.55,2.21 -3.45,2.21z"/>
   </g>
   <path class="fil4" d="M200.86 355.6c-2.06,1.17 -4.36,1.75 -6.89,1.75 -2.94,0 -5.31,-0.95 -7.12,-2.84 -1.82,-1.89 -2.72,-4.4 -2.72,-7.52 0,-3.19 1.01,-5.8 3.02,-7.84 2.01,-2.04 4.57,-3.07 7.66,-3.07 2.24,0 4.12,0.37 5.64,1.09l0 2.67c-1.66,-1.05 -3.64,-1.58 -5.91,-1.58 -2.3,0 -4.19,0.79 -5.67,2.38 -1.47,1.59 -2.21,3.65 -2.21,6.17 0,2.6 0.69,4.65 2.05,6.13 1.37,1.49 3.22,2.23 5.57,2.23 1.61,0 3,-0.32 4.17,-0.96l0 -5.77 -4.51 0 0 -2.18 6.92 0 0 9.33z"/>
   <path id="_1" class="fil4" d="M206.53 338.57c-0.42,0 -0.78,-0.14 -1.07,-0.43 -0.3,-0.28 -0.45,-0.65 -0.45,-1.09 0,-0.44 0.15,-0.81 0.45,-1.1 0.29,-0.29 0.66,-0.44 1.07,-0.44 0.43,0 0.8,0.15 1.1,0.44 0.3,0.29 0.45,0.66 0.45,1.1 0,0.42 -0.15,0.78 -0.45,1.07 -0.3,0.3 -0.67,0.45 -1.1,0.45zm1.15 18.43l-2.36 0 0 -14.7 2.36 0 0 14.7z"/>
   <path id="_2" class="fil4" d="M219.27 356.86c-0.55,0.3 -1.29,0.46 -2.2,0.46 -2.58,0 -3.86,-1.44 -3.86,-4.31l0 -8.7 -2.53 0 0 -2.01 2.53 0 0 -3.59 2.35 -0.76 0 4.35 3.7 0 0 2.01 -3.7 0 0 8.29c0,0.98 0.17,1.69 0.5,2.11 0.33,0.42 0.89,0.63 1.67,0.63 0.59,0 1.1,-0.16 1.53,-0.49l0 2.01z"/>
   <polygon id="_3" class="fil4" points="238.2,357 235.79,357 235.79,347.62 225.14,347.62 225.14,357 222.73,357 222.73,336.42 225.14,336.42 225.14,345.45 235.79,345.45 235.79,336.42 238.2,336.42 "/>
   <path id="_4" class="fil4" d="M255.17 357l-2.35 0 0 -2.33 -0.06 0c-0.97,1.78 -2.49,2.67 -4.54,2.67 -3.5,0 -5.25,-2.08 -5.25,-6.26l0 -8.79 2.34 0 0 8.41c0,3.1 1.19,4.65 3.56,4.65 1.15,0 2.09,-0.42 2.84,-1.27 0.74,-0.85 1.11,-1.96 1.11,-3.33l0 -8.47 2.35 0 0 14.7z"/>
   <path id="_5" class="fil4" d="M262.33 354.88l-0.06 0 0 2.13 -2.36 0 0 -21.76 2.36 0 0 9.64 0.06 0c1.16,-1.95 2.85,-2.93 5.08,-2.93 1.88,0 3.36,0.66 4.42,1.97 1.07,1.31 1.6,3.08 1.6,5.29 0,2.46 -0.6,4.43 -1.79,5.91 -1.2,1.47 -2.83,2.21 -4.91,2.21 -1.95,0 -3.41,-0.82 -4.4,-2.47zm-0.06 -5.93l0 2.05c0,1.22 0.39,2.25 1.19,3.1 0.79,0.85 1.79,1.27 3,1.27 1.43,0 2.54,-0.54 3.35,-1.64 0.81,-1.09 1.22,-2.61 1.22,-4.55 0,-1.64 -0.38,-2.91 -1.14,-3.85 -0.75,-0.93 -1.78,-1.39 -3.07,-1.39 -1.37,0 -2.47,0.47 -3.3,1.43 -0.83,0.96 -1.25,2.15 -1.25,3.58z"/>
  </g>
  <g id="_3045933755776">
   <g>
    <polygon class="fil5" points="438.89,249.4 444.73,318.25 425.83,434.11 415.27,394.23 "/>
    <path id="_1_0" class="fil6" d="M440.55 318.56l-5.84 -68.85 8.35 -0.63 5.84 68.85 -0.04 1.02 -8.31 -0.38zm-18.85 114.85l18.89 -115.87 8.27 1.4 -18.89 115.87 -8.19 0.33 -0.09 -1.73zm-2.37 -40.22l10.56 39.88 -8.1 2.06 -10.56 -39.88 -0.09 -1.73 8.19 -0.33zm23.7 -143.1l-23.62 144.83 -8.27 -1.4 23.62 -144.83 8.31 0.38 -0.04 1.02z"/>
   </g>
   <g>
    <polygon class="fil5" points="415.27,394.23 425.83,434.11 97.61,454.81 4.99,420.09 "/>
    <path id="_1_1" class="fil6" d="M421.78 435.14l-10.56 -39.88 8.1 -2.06 10.56 39.88 -3.75 5.19 -4.35 -3.13zm-324.47 15.5l328.23 -20.69 0.6 8.32 -328.23 20.69 -1.75 -0.26 1.15 -8.05zm-90.87 -34.45l92.62 34.71 -2.9 7.79 -92.62 -34.71 1.15 -8.05 1.75 0.26zm409.13 -17.81l-410.28 25.86 -0.6 -8.32 410.28 -25.86 4.35 3.13 -3.75 5.19z"/>
   </g>
  </g>
  <g>
   <polygon class="fil5" points="28.6,275.26 438.89,249.4 415.27,394.23 4.99,420.09 "/>
   <path id="_1_2" class="fil6" d="M439.17 253.57l-410.28 25.86 -0.57 -8.34 410.28 -25.86 4.43 4.86 -3.86 3.48zm-0.57 -8.34l5.27 -0.33 -0.85 5.19 -4.43 -4.86zm-27.47 148.31l23.62 -144.83 8.28 1.38 -23.62 144.83 -3.86 3.48 -4.43 -4.86zm8.28 1.38l-0.53 3.27 -3.32 0.21 3.86 -3.48zm-414.71 21l410.28 -25.86 0.57 8.34 -410.28 25.86 -4.43 -4.86 3.86 -3.48zm0.57 8.34l-5.27 0.33 0.85 -5.19 4.43 4.86zm27.47 -148.31l-23.62 144.83 -8.28 -1.38 23.62 -144.83 3.86 -3.48 4.43 4.86zm-8.28 -1.38l0.53 -3.27 3.32 -0.21 -3.86 3.48z"/>
  </g>
  <polygon class="fil6" points="110.97,391.11 52.78,304.09 74.71,302.71 113.34,362.57 109.62,300.51 134.98,298.91 176.72,359.63 169.42,296.74 190.84,295.39 198.86,385.57 176.07,387.01 130.31,322.08 134.37,389.63 "/>
  <path id="_1_3" class="fil6" d="M206.48 310.48l-5.93 -15.71 20.16 -1.27 5.93 15.71 -20.16 1.27zm27.48 72.87l-24.21 -64.21 20.16 -1.27 24.22 64.21 -20.16 1.27z"/>
  <polygon id="_2_4" class="fil6" points="274.11,380.82 240.71,292.24 260.87,290.97 278.59,337.96 293.69,313.85 318.56,312.29 301.36,337.39 344.69,376.38 322.91,377.75 292.7,349.99 286.53,359 294.28,379.55 "/>
  <path id="_3_5" class="fil6" d="M329.23 302.75l-5.93 -15.71 20.16 -1.27 5.93 15.71 -20.16 1.27zm27.48 72.87l-24.21 -64.21 20.16 -1.27 24.22 64.21 -20.16 1.27z"/>
 </g>
</svg>
