<?xml version="1.0" encoding="UTF-8"?>
<!DOCTYPE svg PUBLIC "-//W3C//DTD SVG 1.1//EN" "http://www.w3.org/Graphics/SVG/1.1/DTD/svg11.dtd">
<!-- Creator: CorelDRAW -->
<svg xmlns="http://www.w3.org/2000/svg" xml:space="preserve" width="96.3958mm" height="68.5489mm" version="1.1" style="shape-rendering:geometricPrecision; text-rendering:geometricPrecision; image-rendering:optimizeQuality; fill-rule:evenodd; clip-rule:evenodd"
viewBox="0 0 722.15 513.54"
 xmlns:xlink="http://www.w3.org/1999/xlink"
 xmlns:xodm="http://www.corel.com/coreldraw/odm/2003">
 <defs>
  <style type="text/css">
   <![CDATA[
    .fil5 {fill:#1A1A1A}
    .fil4 {fill:black;fill-rule:nonzero}
    .fil3 {fill:white;fill-rule:nonzero}
    .fil6 {fill:white;fill-rule:nonzero}
    .fil1 {fill:black;fill-rule:nonzero;fill-opacity:0.050980}
    .fil2 {fill:black;fill-rule:nonzero;fill-opacity:0.070588}
    .fil0 {fill:url(#id0);fill-rule:nonzero}
   ]]>
  </style>
  <linearGradient id="id0" gradientUnits="userSpaceOnUse" x1="163.51" y1="188.3" x2="559.94" y2="188.3">
   <stop offset="0" style="stop-opacity:1; stop-color:#4C4C4C"/>
   <stop offset="1" style="stop-opacity:1; stop-color:#343434"/>
  </linearGradient>
 </defs>
 <g id="Layer_x0020_1">
  <metadata id="CorelCorpID_0Corel-Layer"/>
  <g id="_2557635265136">
   <g>
    <path class="fil0" d="M361.73 0c-109.47,0 -198.21,88.74 -198.21,198.21 0,88.08 57.49,162.64 136.97,188.46l122.5 0c79.47,-25.82 136.97,-100.39 136.97,-188.46 0,-109.47 -88.74,-198.21 -198.21,-198.21z"/>
    <path class="fil1" d="M421.29 376.57l-0.1 -57.46c0,-9.31 -2.18,-18.39 -6.36,-26.63 55.91,-11.23 83.11,-44.28 83.11,-100.86 0,-22.35 -6.59,-42.08 -19.58,-58.67 0.99,-3.14 1.72,-6.39 2.18,-9.72 1.86,-13.57 -0.23,-22.44 -1.91,-29.57l-0.27 -1.15c-1.84,-7.89 -4.05,-13.52 -4.14,-13.76l-1.1 -2.8 -1.1 -2.8 -2.99 -0.32 -3 -0.32c0,0 -1.97,-0.21 -4.97,-0.21 -4.15,0 -10.31,0.42 -16.12,2.39l-1.94 0.65c-7.33,2.47 -14.26,4.81 -23.95,10.59 -2.83,1.69 -5.94,3.63 -9.26,5.79 -15.01,-3.72 -31.15,-5.61 -48.05,-5.61 -17.07,0 -33.35,1.9 -48.45,5.66 -3.36,-2.18 -6.48,-4.13 -9.34,-5.84 -9.69,-5.79 -16.62,-8.12 -23.95,-10.59l-1.94 -0.65c-5.8,-1.97 -11.96,-2.39 -16.12,-2.39 -2.99,0 -4.97,0.21 -4.97,0.21l-2.99 0.32 -2.97 0.31 -1.11 2.78 -1.12 2.8c-0.1,0.26 -2.31,5.89 -4.15,13.79l-0.27 1.14c-1.68,7.13 -3.78,16.01 -1.91,29.56 0.48,3.43 1.24,6.79 2.28,10.02 -12.73,16.51 -19.19,36.13 -19.19,58.37 0,56.44 27.23,89.47 83.22,100.79 -1.92,3.85 -3.42,7.91 -4.48,12.13 -1.95,0.66 -3.75,1.11 -5.33,1.36 -2.36,0.36 -4.83,0.53 -7.32,0.53 -6.8,0 -12.14,-1.33 -14.22,-2.57 -3.1,-1.84 -8.64,-7.21 -14.01,-15.04 -4.59,-6.69 -11.74,-15.44 -19.74,-19.1 -6.92,-3.16 -14.24,-4.98 -20.11,-4.98 -1.37,0 -2.63,0.1 -3.73,0.28 -5.12,0.81 -9.4,3.63 -11.73,7.73 -2.01,3.54 -2.33,7.66 -0.87,11.31 2.17,5.43 8.43,9.76 13.31,12.44 2.4,1.32 7.58,6.13 10.6,10.99 2.27,3.65 3.32,6.24 4.78,9.83 0.86,2.13 1.81,4.45 3.1,7.25 4.66,10.13 19.2,19.07 20.84,20.05 7.99,4.79 21.42,6.32 31.29,6.77l1.22 0.03c0,0 0.01,0 0.01,0 2.38,0 5.65,-0.23 9.95,-0.7l0 25.9c0.02,5.24 -5.32,6.43 -12.39,6.32l5.42 1.82c20.76,7.42 43.06,11.66 66.4,11.66 23.34,0 45.64,-4.24 66.43,-11.66l6.97 -2.6c-7.05,-0.24 -13.78,-1.39 -13.84,-5.61z"/>
    <path class="fil2" d="M428.93 384.5c-4.02,0.47 -12.7,-1.08 -12.7,-7.88l0 -57.52c0,-10.84 -3.25,-21.32 -9.28,-30.25 58.62,-9.48 86.01,-40.56 86.01,-97.24 0,-22.17 -6.8,-41.57 -20.21,-57.7 1.36,-3.62 2.31,-7.43 2.85,-11.37 1.73,-12.65 -0.16,-20.67 -1.82,-27.76l-0.27 -1.15c-1.76,-7.54 -3.85,-12.85 -3.93,-13.07l-1.1 -2.8 -3 -0.32c0,0 -1.76,-0.19 -4.45,-0.19 -3.78,0 -9.36,0.37 -14.53,2.13l-1.94 0.65c-7.08,2.39 -13.77,4.64 -23,10.15 -3.29,1.96 -6.96,4.27 -10.91,6.88 -15.19,-3.98 -31.64,-6 -48.93,-6 -17.46,0 -34.04,2.03 -49.35,6.05 -3.99,-2.63 -7.68,-4.95 -10.99,-6.93 -9.24,-5.51 -15.93,-7.77 -23,-10.15l-1.94 -0.65c-5.16,-1.75 -10.75,-2.13 -14.53,-2.13 -2.69,0 -4.45,0.19 -4.45,0.19l-2.99 0.32 -1.12 2.8c-0.09,0.22 -2.17,5.53 -3.93,13.07l-0.27 1.15c-1.68,7.09 -3.57,15.1 -1.82,27.75 0.56,4.03 1.55,7.94 2.95,11.64 -13.15,16.06 -19.81,35.35 -19.81,57.43 0,56.52 27.41,87.59 86.08,97.18 -3.92,5.85 -6.65,12.44 -8.06,19.46 -3.27,1.29 -6.23,2.14 -8.83,2.54 -2.61,0.4 -5.32,0.59 -8.07,0.59 -6.84,0 -13.41,-1.28 -16.75,-3.26 -4.36,-2.59 -10.48,-9.06 -15.58,-16.5 -3.47,-5.05 -10.38,-14.04 -17.72,-17.39 -6.29,-2.87 -12.86,-4.53 -18.05,-4.53 -1.09,0 -2.08,0.08 -2.95,0.22 -3.63,0.57 -6.62,2.5 -8.21,5.29 -1.27,2.22 -1.48,4.79 -0.59,7.02 1.77,4.44 8.34,8.42 11.09,9.93 3.32,1.82 9.11,7.37 12.43,12.73 2.49,4 3.67,6.91 5.16,10.58 0.84,2.07 1.76,4.33 3.01,7.06 3.28,7.13 13.41,14.59 18.88,17.87 7.47,4.48 21.35,5.73 28.96,6.07l1.1 0.02c2.96,0 7.93,-0.45 14.82,-1.34l0 31.49c0,7.72 -9.82,8.03 -12.23,8.03 -0.31,0 4.98,1.82 4.98,1.82 19.45,6.38 40.18,9.95 61.76,9.95 21.59,0 42.31,-3.57 61.75,-9.94 0,0 5.76,-2.02 5.45,-1.98z"/>
    <path class="fil3" d="M488.03 191.61c0,-22.89 -7.75,-41.88 -20.98,-56.77 1.44,-3.22 2.93,-7.54 3.68,-12.97 1.7,-12.39 -0.31,-19.82 -2.01,-27.1 -1.71,-7.28 -3.72,-12.39 -3.72,-12.39 0,0 -9.14,-0.93 -16.88,1.7 -7.74,2.64 -14.4,4.65 -24,10.38 -4.49,2.68 -9.01,5.61 -12.59,7.99 -15.29,-4.24 -32.11,-6.42 -49.8,-6.42 -17.85,0 -34.82,2.19 -50.22,6.46 -3.59,-2.39 -8.14,-5.34 -12.66,-8.04 -9.6,-5.73 -16.26,-7.74 -24,-10.38 -7.74,-2.64 -16.88,-1.7 -16.88,-1.7 0,0 -2.01,5.11 -3.72,12.39 -1.7,7.27 -3.72,14.71 -2.01,27.1 0.76,5.57 2.31,9.97 3.79,13.21 -12.98,14.8 -20.59,33.67 -20.59,56.53 0,59.3 32.03,86.36 90.4,93.51 -6.81,7.19 -11.38,16.41 -12.91,26.67 -3.84,1.68 -8.26,3.27 -12.51,3.9 -10.94,1.65 -22.51,0 -28.08,-3.3 -5.57,-3.3 -12.18,-10.73 -17.14,-17.97 -4.18,-6.1 -10.22,-13.19 -15.69,-15.69 -7.22,-3.3 -14.25,-4.54 -18.17,-3.92 -3.92,0.62 -5.78,3.51 -4.96,5.58 0.82,2.06 4.75,5.16 8.88,7.43 4.13,2.27 10.54,8.46 14.25,14.45 4.14,6.68 4.96,10.54 8.46,18.17 2.47,5.37 10.91,12.08 16.93,15.69 5.16,3.1 15.48,4.87 26.64,5.37 3.86,0.18 12.96,-0.95 20.64,-2.04l0 37.16c0,6.33 -5.8,11.15 -11.8,10.04 19.28,6.48 39.86,9.77 61.34,9.77 21.47,0 42.05,-3.29 61.35,-9.75 -6,1.1 -11.79,-3.72 -11.79,-10.05l0 -57.52c0,-13.17 -5.22,-25.07 -13.61,-33.94 57.94,-6.96 90.36,-33.38 90.36,-93.55zm-252.77 93.09c-1.53,-0.78 -2.35,-2.23 -1.83,-3.25 0.52,-1.02 2.18,-1.21 3.71,-0.43 1.53,0.78 2.35,2.23 1.83,3.25 -0.52,1.02 -2.18,1.21 -3.71,0.43zm12.01 7.48c-0.8,0.87 -2.53,0.59 -3.86,-0.61 -1.33,-1.21 -1.75,-2.9 -0.95,-3.78 0.8,-0.87 2.53,-0.59 3.86,0.61 1.33,1.21 1.75,2.9 0.95,3.78zm7.47 12.39c-1.01,0.71 -2.73,0.05 -3.83,-1.49 -1.1,-1.54 -1.17,-3.37 -0.16,-4.08 1.01,-0.71 2.73,-0.05 3.83,1.49 1.09,1.54 1.17,3.37 0.16,4.08zm10.73 9.33c-0.68,1.11 -2.63,1.16 -4.33,0.12 -1.7,-1.04 -2.54,-2.78 -1.85,-3.89 0.68,-1.11 2.63,-1.16 4.33,-0.12 1.7,1.04 2.54,2.78 1.85,3.89zm10.15 9.13c-2.11,-0.26 -3.68,-1.58 -3.5,-2.94 0.17,-1.37 2.02,-2.26 4.12,-2 2.11,0.26 3.68,1.58 3.5,2.94 -0.17,1.36 -2.01,2.26 -4.12,2zm16.36 2.37c-2.25,-0.13 -4,-1.42 -3.92,-2.86 0.09,-1.45 1.98,-2.53 4.23,-2.4 2.25,0.13 4,1.42 3.92,2.86 -0.09,1.46 -1.98,2.53 -4.23,2.4zm15.44 -1.55c-2.4,0 -4.34,-1.25 -4.34,-2.78 0,-1.54 1.94,-2.78 4.34,-2.78 2.4,0 4.34,1.25 4.34,2.78 0,1.54 -1.95,2.78 -4.34,2.78z"/>
   </g>
   <path class="fil4" d="M326.59 447.56c-2.6,1.47 -5.49,2.2 -8.67,2.2 -3.69,0 -6.68,-1.19 -8.97,-3.58 -2.29,-2.38 -3.43,-5.54 -3.43,-9.47 0,-4.01 1.27,-7.3 3.8,-9.87 2.54,-2.57 5.75,-3.86 9.64,-3.86 2.82,0 5.19,0.46 7.1,1.38l0 3.36c-2.09,-1.33 -4.58,-1.99 -7.44,-1.99 -2.9,0 -5.28,1 -7.13,3 -1.86,2 -2.78,4.59 -2.78,7.77 0,3.27 0.86,5.85 2.58,7.72 1.72,1.88 4.06,2.81 7.01,2.81 2.02,0 3.77,-0.41 5.25,-1.21l0 -7.26 -5.67 0 0 -2.74 8.71 0 0 11.74z"/>
   <path id="_1" class="fil4" d="M333.72 426.13c-0.52,0 -0.98,-0.18 -1.35,-0.54 -0.38,-0.36 -0.56,-0.81 -0.56,-1.37 0,-0.56 0.19,-1.02 0.56,-1.38 0.37,-0.37 0.83,-0.55 1.35,-0.55 0.54,0 1.01,0.19 1.39,0.55 0.38,0.36 0.57,0.83 0.57,1.38 0,0.53 -0.19,0.98 -0.57,1.35 -0.38,0.38 -0.85,0.56 -1.39,0.56zm1.45 23.2l-2.97 0 0 -18.5 2.97 0 0 18.5z"/>
   <path id="_2" class="fil4" d="M349.75 449.15c-0.7,0.38 -1.62,0.57 -2.76,0.57 -3.24,0 -4.86,-1.81 -4.86,-5.42l0 -10.95 -3.18 0 0 -2.53 3.18 0 0 -4.51 2.96 -0.96 0 5.48 4.66 0 0 2.53 -4.66 0 0 10.43c0,1.24 0.21,2.12 0.64,2.65 0.42,0.53 1.12,0.8 2.1,0.8 0.75,0 1.39,-0.2 1.93,-0.62l0 2.53z"/>
   <polygon id="_3" class="fil4" points="373.58,449.33 370.54,449.33 370.54,437.51 357.14,437.51 357.14,449.33 354.1,449.33 354.1,423.42 357.14,423.42 357.14,434.79 370.54,434.79 370.54,423.42 373.58,423.42 "/>
   <path id="_4" class="fil4" d="M394.93 449.33l-2.96 0 0 -2.93 -0.07 0c-1.23,2.24 -3.13,3.36 -5.71,3.36 -4.41,0 -6.61,-2.62 -6.61,-7.87l0 -11.06 2.94 0 0 10.59c0,3.9 1.5,5.85 4.48,5.85 1.44,0 2.63,-0.53 3.57,-1.6 0.93,-1.07 1.4,-2.46 1.4,-4.19l0 -10.66 2.96 0 0 18.5z"/>
   <path id="_5" class="fil4" d="M403.95 446.65l-0.07 0 0 2.68 -2.97 0 0 -27.39 2.97 0 0 12.14 0.07 0c1.45,-2.45 3.59,-3.68 6.39,-3.68 2.37,0 4.23,0.83 5.57,2.49 1.34,1.65 2.02,3.87 2.02,6.65 0,3.1 -0.75,5.58 -2.26,7.44 -1.51,1.86 -3.56,2.79 -6.18,2.79 -2.45,0 -4.29,-1.04 -5.54,-3.11zm-0.07 -7.46l0 2.58c0,1.53 0.49,2.83 1.49,3.9 0.99,1.07 2.25,1.6 3.78,1.6 1.79,0 3.2,-0.68 4.22,-2.06 1.02,-1.37 1.53,-3.28 1.53,-5.73 0,-2.06 -0.47,-3.67 -1.43,-4.84 -0.95,-1.17 -2.24,-1.75 -3.86,-1.75 -1.73,0 -3.11,0.6 -4.16,1.79 -1.05,1.2 -1.57,2.7 -1.57,4.51z"/>
  </g>
  <g id="_2557635245456">
   <g>
    <g>
     <polygon class="fil5" points="706.04,355.44 715.43,407.38 685.04,494.79 668.04,464.71 "/>
     <path id="_1_0" class="fil6" d="M708.71 407.63l-9.39 -51.94 13.44 -0.49 9.39 51.94 -0.06 0.76 -13.38 -0.28zm-30.33 86.65l30.39 -87.41 13.32 1.04 -30.39 87.41 -13.18 0.26 -0.14 -1.3zm-3.81 -30.35l16.99 30.09 -13.05 1.56 -16.99 -30.09 -0.14 -1.3 13.18 -0.26zm38.13 -107.96l-37.99 109.26 -13.32 -1.04 37.99 -109.26 13.38 0.28 -0.06 0.76z"/>
    </g>
    <g>
     <polygon class="fil5" points="668.04,464.71 685.04,494.79 157.02,510.4 8.02,484.22 "/>
     <path id="_1_1" class="fil6" d="M678.51 495.57l-16.99 -30.09 13.05 -1.56 16.99 30.09 -6.05 3.91 -7 -2.35zm-521.97 11.7l528.02 -15.61 0.94 6.27 -528.02 15.61 -2.82 -0.2 1.87 -6.07zm-146.18 -25.99l149 26.19 -4.69 5.87 -149 -26.19 1.87 -6.07 2.82 0.2zm658.15 -13.44l-660.02 19.51 -0.94 -6.27 660.02 -19.51 7 2.35 -6.05 3.91z"/>
    </g>
   </g>
   <g>
    <polygon class="fil5" points="46.01,374.96 706.04,355.44 668.04,464.71 8.02,484.22 "/>
    <path id="_1_2" class="fil6" d="M706.49 358.59l-660.02 19.51 -0.91 -6.29 660.02 -19.51 7.12 3.66 -6.21 2.63zm-0.91 -6.29l8.48 -0.25 -1.36 3.91 -7.12 -3.66zm-44.2 111.89l37.99 -109.26 13.32 1.03 -37.99 109.26 -6.21 2.63 -7.12 -3.66zm13.32 1.03l-0.86 2.47 -5.35 0.16 6.21 -2.63zm-667.14 15.85l660.02 -19.51 0.91 6.29 -660.02 19.51 -7.12 -3.66 6.21 -2.63zm0.91 6.29l-8.48 0.25 1.36 -3.91 7.12 3.66zm44.2 -111.89l-37.99 109.26 -13.32 -1.03 37.99 -109.26 6.21 -2.63 7.12 3.66zm-13.32 -1.03l0.86 -2.47 5.35 -0.16 -6.21 2.63z"/>
   </g>
   <path class="fil6" d="M45.8 463.01l26.48 -64.56 28.35 -0.89c28.41,-0.9 38.31,9.14 29.7,30.13 -4.12,10.05 -11.3,18.19 -21.51,24.45 -10.21,6.25 -21.76,9.57 -34.67,9.98l-28.35 0.89zm39.65 -53.3l-16.78 40.92 8.93 -0.28c7.81,-0.25 14.69,-2.33 20.7,-6.25 5.99,-3.92 10.33,-9.14 13,-15.66 2.52,-6.15 2.3,-10.92 -0.66,-14.3 -2.97,-3.4 -8.41,-4.97 -16.37,-4.72l-8.82 0.28z"/>
   <path id="_1_3" class="fil6" d="M159.13 406.73c-2.97,0.09 -5.12,-0.54 -6.42,-1.91 -1.32,-1.37 -1.56,-3.08 -0.71,-5.15 0.88,-2.14 2.54,-3.9 5,-5.32 2.44,-1.41 5.15,-2.17 8.12,-2.26 3.03,-0.1 5.19,0.5 6.52,1.8 1.31,1.29 1.55,3 0.68,5.14 -0.88,2.15 -2.57,3.96 -5,5.41 -2.45,1.43 -5.17,2.2 -8.19,2.29zm-13.2 53.13l-17.61 0.56 18.91 -46.1 17.61 -0.56 -18.91 46.1z"/>
   <path id="_2_4" class="fil6" d="M157.53 458.29l4.73 -11.53c2.33,1.32 4.8,2.28 7.39,2.88 2.59,0.6 5.18,0.85 7.75,0.77 3.12,-0.1 5.74,-0.52 7.81,-1.26 2.09,-0.75 3.42,-1.82 4,-3.24 0.37,-0.91 0.28,-1.65 -0.29,-2.22 -0.57,-0.57 -1.41,-1.06 -2.52,-1.47 -1.09,-0.41 -2.33,-0.78 -3.71,-1.08 -1.37,-0.32 -2.67,-0.67 -3.9,-1.08 -1.98,-0.62 -3.67,-1.31 -5.08,-2.04 -1.41,-0.74 -2.47,-1.62 -3.22,-2.64 -0.73,-1.01 -1.13,-2.2 -1.17,-3.56 -0.04,-1.36 0.3,-2.98 1.08,-4.87 1.06,-2.58 2.68,-4.83 4.83,-6.73 2.15,-1.9 4.64,-3.48 7.45,-4.74 2.81,-1.26 5.83,-2.22 9.05,-2.86 3.22,-0.65 6.45,-1.02 9.69,-1.13 2.53,-0.08 5.02,-0.01 7.5,0.23 2.48,0.23 4.86,0.61 7.15,1.12l-4.51 10.99c-1.81,-0.99 -3.87,-1.7 -6.21,-2.14 -2.34,-0.44 -4.72,-0.62 -7.18,-0.55 -1.16,0.04 -2.28,0.15 -3.36,0.35 -1.09,0.19 -2.11,0.46 -3.02,0.81 -0.91,0.33 -1.68,0.75 -2.32,1.27 -0.66,0.51 -1.1,1.08 -1.36,1.71 -0.34,0.83 -0.31,1.54 0.11,2.12 0.44,0.58 1.08,1.07 1.99,1.47 0.9,0.41 1.94,0.76 3.12,1.05 1.17,0.31 2.34,0.62 3.51,0.94 2.07,0.59 3.89,1.24 5.47,1.97 1.56,0.72 2.83,1.58 3.75,2.6 0.92,1 1.47,2.2 1.61,3.59 0.14,1.39 -0.18,3.06 -0.98,5.01 -1.12,2.74 -2.8,5.09 -5.08,7.08 -2.26,1.98 -4.84,3.61 -7.78,4.9 -2.94,1.29 -6.12,2.27 -9.52,2.92 -3.41,0.65 -6.81,1.03 -10.24,1.14 -6.28,0.2 -11.77,-0.4 -16.5,-1.79z"/>
   <path id="_3_5" class="fil6" d="M255.01 454.78c-4.74,1.99 -10.87,3.09 -18.37,3.33 -8.78,0.28 -15,-1.64 -18.66,-5.77 -3.67,-4.12 -4.12,-9.56 -1.34,-16.36 3.21,-7.84 8.65,-14.09 16.31,-18.79 7.68,-4.7 16.39,-7.21 26.14,-7.51 6.72,-0.21 11.3,0.36 13.72,1.69l-4.95 12.08c-2.76,-2.11 -6.42,-3.09 -10.95,-2.95 -5.07,0.16 -9.55,1.47 -13.5,3.96 -3.93,2.48 -6.76,5.81 -8.49,10.02 -1.67,4.07 -1.56,7.24 0.31,9.47 1.86,2.25 5.29,3.28 10.22,3.12 4.4,-0.14 9.14,-1.38 14.26,-3.74l-4.69 11.45z"/>
   <path id="_4_6" class="fil6" d="M320.15 454.36l-17.57 0.55 2.88 -7.02 -0.27 0.01c-6.59,5.56 -13.51,8.47 -20.8,8.7 -13.25,0.42 -17.21,-5.84 -11.9,-18.78l11.41 -27.82 17.57 -0.55 -10.89 26.56c-2.67,6.52 -0.81,9.67 5.59,9.47 3.16,-0.1 6.04,-1.07 8.67,-2.91 2.63,-1.84 4.56,-4.3 5.82,-7.36l10.82 -26.39 17.57 -0.55 -18.91 46.1z"/>
   <path id="_5_7" class="fil6" d="M331.74 452.8l4.73 -11.53c2.33,1.32 4.8,2.28 7.39,2.88 2.59,0.6 5.17,0.85 7.74,0.77 3.12,-0.1 5.74,-0.51 7.81,-1.26 2.09,-0.75 3.42,-1.82 4,-3.24 0.37,-0.91 0.28,-1.65 -0.29,-2.22 -0.57,-0.57 -1.41,-1.06 -2.52,-1.47 -1.09,-0.41 -2.33,-0.78 -3.71,-1.08 -1.37,-0.32 -2.67,-0.67 -3.9,-1.08 -1.98,-0.62 -3.67,-1.31 -5.08,-2.04 -1.4,-0.74 -2.47,-1.62 -3.22,-2.64 -0.73,-1.01 -1.13,-2.19 -1.17,-3.56 -0.04,-1.36 0.3,-2.98 1.08,-4.87 1.06,-2.58 2.68,-4.83 4.83,-6.74 2.15,-1.9 4.64,-3.48 7.45,-4.74 2.81,-1.26 5.83,-2.22 9.05,-2.86 3.22,-0.65 6.45,-1.02 9.69,-1.12 2.53,-0.08 5.02,-0.01 7.5,0.23 2.48,0.22 4.86,0.61 7.15,1.12l-4.51 10.99c-1.81,-0.99 -3.87,-1.7 -6.21,-2.14 -2.34,-0.44 -4.72,-0.62 -7.18,-0.55 -1.16,0.04 -2.28,0.15 -3.36,0.35 -1.09,0.19 -2.11,0.46 -3.02,0.81 -0.91,0.33 -1.68,0.75 -2.32,1.27 -0.66,0.51 -1.1,1.08 -1.36,1.71 -0.34,0.83 -0.31,1.54 0.11,2.12 0.44,0.58 1.08,1.07 1.99,1.47 0.9,0.41 1.94,0.76 3.12,1.05 1.17,0.31 2.34,0.62 3.51,0.94 2.07,0.59 3.89,1.24 5.47,1.97 1.56,0.72 2.83,1.58 3.75,2.6 0.92,1 1.47,2.2 1.61,3.59 0.14,1.39 -0.18,3.06 -0.98,5.01 -1.12,2.74 -2.8,5.09 -5.08,7.08 -2.26,1.98 -4.84,3.61 -7.78,4.9 -2.94,1.29 -6.12,2.27 -9.52,2.92 -3.41,0.65 -6.81,1.03 -10.24,1.14 -6.28,0.2 -11.77,-0.4 -16.5,-1.79z"/>
   <path id="_6" class="fil6" d="M382.01 451.21l4.73 -11.53c2.33,1.32 4.8,2.28 7.39,2.88 2.59,0.6 5.18,0.85 7.75,0.77 3.12,-0.1 5.74,-0.52 7.81,-1.26 2.09,-0.75 3.42,-1.82 4,-3.24 0.37,-0.91 0.28,-1.65 -0.29,-2.22 -0.57,-0.57 -1.41,-1.06 -2.52,-1.47 -1.09,-0.41 -2.33,-0.78 -3.71,-1.08 -1.37,-0.32 -2.67,-0.67 -3.9,-1.08 -1.98,-0.62 -3.67,-1.31 -5.08,-2.04 -1.41,-0.74 -2.47,-1.62 -3.22,-2.64 -0.73,-1.01 -1.13,-2.2 -1.17,-3.56 -0.04,-1.36 0.3,-2.98 1.08,-4.87 1.06,-2.58 2.68,-4.83 4.83,-6.73 2.15,-1.9 4.64,-3.48 7.45,-4.74 2.81,-1.26 5.83,-2.22 9.05,-2.86 3.22,-0.65 6.45,-1.02 9.69,-1.13 2.53,-0.08 5.02,-0.01 7.5,0.23 2.48,0.23 4.86,0.61 7.15,1.12l-4.51 10.99c-1.81,-0.99 -3.87,-1.7 -6.21,-2.14 -2.34,-0.44 -4.72,-0.62 -7.18,-0.55 -1.16,0.04 -2.28,0.15 -3.36,0.35 -1.09,0.19 -2.11,0.46 -3.02,0.81 -0.91,0.33 -1.68,0.75 -2.32,1.27 -0.66,0.51 -1.1,1.08 -1.36,1.71 -0.34,0.83 -0.31,1.54 0.11,2.12 0.44,0.58 1.08,1.07 1.99,1.47 0.9,0.41 1.94,0.76 3.12,1.05 1.17,0.31 2.34,0.62 3.51,0.94 2.07,0.59 3.89,1.24 5.47,1.97 1.56,0.72 2.83,1.58 3.75,2.6 0.92,1 1.47,2.2 1.61,3.59 0.14,1.39 -0.18,3.06 -0.98,5.01 -1.12,2.74 -2.8,5.09 -5.08,7.08 -2.26,1.98 -4.84,3.61 -7.78,4.9 -2.94,1.29 -6.12,2.27 -9.52,2.92 -3.41,0.65 -6.82,1.03 -10.24,1.14 -6.28,0.2 -11.77,-0.4 -16.5,-1.79z"/>
   <path id="_7" class="fil6" d="M466.34 397.04c-2.97,0.09 -5.12,-0.54 -6.42,-1.91 -1.32,-1.37 -1.56,-3.08 -0.71,-5.15 0.88,-2.14 2.54,-3.9 5,-5.32 2.44,-1.41 5.15,-2.17 8.12,-2.26 3.03,-0.1 5.19,0.5 6.52,1.8 1.31,1.29 1.55,3 0.67,5.14 -0.88,2.15 -2.57,3.96 -5,5.41 -2.45,1.43 -5.17,2.2 -8.19,2.29zm-13.2 53.13l-17.61 0.56 18.91 -46.1 17.61 -0.56 -18.91 46.1z"/>
   <path id="_8" class="fil6" d="M494.74 449.97c-9.52,0.3 -16.12,-1.62 -19.8,-5.75 -3.68,-4.13 -4,-9.9 -0.98,-17.28 3.13,-7.62 8.39,-13.69 15.81,-18.17 7.42,-4.48 15.96,-6.87 25.57,-7.18 9.48,-0.3 16.04,1.62 19.67,5.75 3.62,4.13 3.99,9.75 1.08,16.83 -3.14,7.65 -8.4,13.8 -15.78,18.41 -7.38,4.62 -15.9,7.07 -25.58,7.38zm15.82 -37.47c-4.17,0.13 -7.88,1.39 -11.13,3.76 -3.26,2.39 -5.76,5.7 -7.49,9.93 -3.63,8.85 -1.01,13.14 7.85,12.86 8.43,-0.27 14.53,-4.95 18.25,-14.03 3.54,-8.62 1.04,-12.79 -7.48,-12.52z"/>
   <path id="_9" class="fil6" d="M592.98 445.76l-17.57 0.55 10.51 -25.62c2.93,-7.15 1.23,-10.61 -5.09,-10.41 -3.05,0.1 -5.94,1.11 -8.68,3.06 -2.75,1.95 -4.73,4.4 -5.93,7.3l-10.78 26.3 -17.61 0.56 18.91 -46.1 17.61 -0.56 -2.99 7.3 0.23 -0.01c6.51,-5.76 13.77,-8.75 21.81,-9 12.64,-0.4 16.37,5.73 11.17,18.4l-11.58 28.23z"/>
   <path id="_10" class="fil6" d="M603.69 444.22l4.73 -11.53c2.33,1.32 4.8,2.28 7.39,2.88 2.59,0.6 5.18,0.85 7.75,0.77 3.12,-0.1 5.74,-0.51 7.81,-1.26 2.09,-0.75 3.42,-1.82 4,-3.24 0.37,-0.91 0.28,-1.65 -0.29,-2.22 -0.57,-0.57 -1.41,-1.06 -2.52,-1.47 -1.09,-0.41 -2.33,-0.78 -3.71,-1.08 -1.37,-0.32 -2.67,-0.67 -3.9,-1.08 -1.98,-0.62 -3.67,-1.31 -5.08,-2.04 -1.41,-0.74 -2.47,-1.62 -3.22,-2.64 -0.73,-1.01 -1.13,-2.19 -1.17,-3.56 -0.04,-1.36 0.3,-2.98 1.08,-4.87 1.06,-2.58 2.68,-4.83 4.83,-6.74 2.15,-1.9 4.64,-3.48 7.45,-4.74 2.81,-1.26 5.83,-2.22 9.05,-2.86 3.22,-0.65 6.45,-1.02 9.69,-1.12 2.53,-0.08 5.02,-0.01 7.5,0.23 2.48,0.22 4.86,0.61 7.15,1.12l-4.51 10.99c-1.81,-0.99 -3.87,-1.7 -6.21,-2.14 -2.34,-0.44 -4.72,-0.62 -7.18,-0.55 -1.16,0.04 -2.28,0.15 -3.36,0.35 -1.09,0.19 -2.11,0.46 -3.02,0.81 -0.91,0.33 -1.68,0.75 -2.32,1.27 -0.66,0.51 -1.1,1.08 -1.36,1.71 -0.34,0.83 -0.31,1.54 0.11,2.12 0.44,0.58 1.08,1.07 1.99,1.47 0.9,0.41 1.94,0.76 3.12,1.05 1.17,0.31 2.34,0.62 3.51,0.94 2.07,0.59 3.89,1.24 5.47,1.97 1.56,0.72 2.83,1.58 3.75,2.6 0.92,1 1.47,2.2 1.61,3.59 0.14,1.39 -0.18,3.06 -0.98,5.01 -1.12,2.74 -2.8,5.09 -5.08,7.08 -2.26,1.98 -4.84,3.61 -7.78,4.9 -2.94,1.29 -6.12,2.27 -9.52,2.92 -3.41,0.65 -6.82,1.03 -10.24,1.14 -6.28,0.2 -11.77,-0.4 -16.5,-1.79z"/>
  </g>
 </g>
</svg>
