<?xml version="1.0" encoding="UTF-8"?>
<!DOCTYPE svg PUBLIC "-//W3C//DTD SVG 1.1//EN" "http://www.w3.org/Graphics/SVG/1.1/DTD/svg11.dtd">
<!-- Creator: CorelDRAW -->
<svg xmlns="http://www.w3.org/2000/svg" xml:space="preserve" width="1865px" height="246px" version="1.1" style="shape-rendering:geometricPrecision; text-rendering:geometricPrecision; image-rendering:optimizeQuality; fill-rule:evenodd; clip-rule:evenodd"
viewBox="0 0 55939.44 7371.2"
 xmlns:xlink="http://www.w3.org/1999/xlink"
 xmlns:xodm="http://www.corel.com/coreldraw/odm/2003">
 <defs>
  <style type="text/css">
   <![CDATA[
    .str0 {stroke:black;stroke-width:26.99;stroke-miterlimit:22.9256}
    .fil0 {fill:white}
    .fil2 {fill:black;fill-rule:nonzero}
    .fil1 {fill:black;fill-rule:nonzero}
   ]]>
  </style>
 </defs>
 <g id="Capa_x0020_1">
  <metadata id="CorelCorpID_0Corel-Layer"/>
  <g>
   <path class="fil0" d="M3234.26 272.44l51172.52 0c890.03,0 1436.63,728.11 1214.78,1618.03l-894.95 3590.19c-221.85,889.99 -1131.43,1618.1 -2021.43,1618.1l-51172.55 0c-889.99,0 -1436.6,-728.11 -1214.75,-1618.1l894.92 -3590.19c221.85,-889.92 1131.43,-1618.03 2021.46,-1618.03z"/>
   <path id="_1" class="fil1" d="M54406.99 544.87l-51172.52 0 -0.42 -544.87 51172.52 0 0 0 0.42 544.87zm1474.93 1412.58l-520.71 -133.97 0 0 15.65 -69.88 11.8 -68.33 8.07 -66.81 4.54 -65.29 1.1 -63.44 -2.24 -61.74 -5.49 -60.04 -8.53 -58.2 -11.55 -56.36 -14.42 -54.48 -17.18 -52.49 -19.94 -50.66 -22.6 -48.77 -25.11 -46.73 -27.63 -44.77 -30.15 -42.79 -32.59 -40.77 -34.99 -38.72 -37.38 -36.56 -39.81 -34.46 -42.22 -32.34 -44.57 -30.01 -47.04 -27.73 -49.41 -25.29 -51.75 -22.78 -54.24 -20.12 -56.81 -17.46 -59.12 -14.6 -61.5 -11.58 -63.97 -8.47 -66.35 -5.17 -68.79 -1.77 -0.42 -544.87 96.06 2.48 94.33 7.37 92.31 12.22 90.33 16.97 88.1 21.75 85.58 26.31 83.21 30.89 80.51 35.39 77.61 39.74 74.6 43.96 71.49 48.14 68.08 52.11 64.61 55.93 60.96 59.72 57.17 63.23 53.21 66.56 49.13 69.79 44.99 72.75 40.63 75.63 36.2 78.18 31.77 80.69 27.17 82.96 22.49 85.01 17.79 86.9 13 88.59 8.18 90.08 3.36 91.57 -1.59 92.77 -6.52 93.69 -11.47 94.65 -16.48 95.46 -21.46 95.96 0 0zm-1415.67 3456.22l894.96 -3590.19 520.71 133.97 -894.95 3590.19 -520.72 -133.97zm-1760.85 1957.53l-0.43 -544.87 0 0 70.17 -1.81 70.56 -5.28 70.78 -8.82 70.92 -12.19 70.95 -15.58 70.95 -18.92 70.56 -22.1 70.17 -25.33 69.71 -28.44 69.01 -31.42 68.15 -34.36 67.23 -37.27 66.07 -39.95 64.71 -42.58 63.34 -45.16 61.74 -47.58 60.04 -49.91 58.2 -52.14 56.15 -54.2 54.01 -56.18 51.83 -58.05 49.34 -59.76 46.83 -61.35 44.21 -62.88 41.44 -64.22 38.58 -65.43 35.56 -66.52 32.56 -67.59 29.36 -68.33 26.07 -69.18 22.78 -69.74 19.3 -70.39 520.72 133.97 -26.25 95.53 -30.64 93.98 -34.86 92.35 -38.86 90.57 -42.68 88.7 -46.41 86.72 -49.91 84.76 -53.34 82.57 -56.47 80.38 -59.65 78.14 -62.59 75.77 -65.35 73.29 -68.05 70.77 -70.67 68.15 -73 65.39 -75.35 62.67 -77.54 59.75 -79.63 56.79 -81.65 53.7 -83.42 50.44 -85.15 47.18 -86.86 43.78 -88.34 40.28 -89.77 36.59 -91.07 32.84 -92.31 28.9 -93.27 24.87 -94.33 20.76 -95.14 16.36 -95.85 11.87 -96.42 7.26 -96.74 2.45 0 0zm-51172.98 -544.87l51172.55 0 0.43 544.87 -51172.56 0 0 0 -0.42 -544.87zm-1474.89 -1412.66l520.71 133.97 0 0 -15.66 69.92 -11.79 68.3 -8.08 66.84 -4.53 65.25 -1.1 63.48 2.23 61.7 5.49 60.08 8.54 58.2 11.54 56.36 14.42 54.51 17.22 52.57 19.9 50.65 22.53 48.67 25.15 46.73 27.67 44.81 30.14 42.79 32.59 40.77 35 38.72 37.37 36.55 39.81 34.47 42.23 32.34 44.6 30.04 46.97 27.7 49.41 25.29 51.75 22.78 54.31 20.12 56.74 17.46 59.12 14.59 61.5 11.59 64.01 8.46 66.31 5.17 68.79 1.78 0.42 544.87 -96.06 -2.48 -94.3 -7.37 -92.35 -12.22 -90.32 -16.97 -88.1 -21.75 -85.58 -26.32 -83.14 -30.89 -80.58 -35.38 -77.61 -39.75 -74.6 -43.99 -71.45 -48.11 -68.08 -52.1 -64.61 -55.94 -60.97 -59.72 -57.17 -63.23 -53.2 -66.56 -49.14 -69.78 -44.95 -72.72 -40.66 -75.63 -36.27 -78.28 -31.74 -80.7 -27.14 -82.96 -22.49 -84.97 -17.78 -86.9 -13 -88.59 -8.18 -90.11 -3.37 -91.54 1.59 -92.8 6.52 -93.66 11.48 -94.68 16.47 -95.43 21.47 -96 0 0zm1415.63 -3456.22l-894.92 3590.19 -520.71 -133.97 894.91 -3590.19 0 0 520.72 133.97zm1760.89 -1957.45l0.42 544.87 0 0 -70.2 1.81 -70.53 5.27 -70.78 8.83 -70.91 12.18 -70.95 15.59 -70.95 18.91 -70.6 22.14 -70.17 25.29 -69.72 28.45 -69 31.42 -68.15 34.36 -67.23 37.26 -66.07 39.96 -64.71 42.58 -63.34 45.16 -61.74 47.57 -60.04 49.91 -58.2 52.15 -56.15 54.19 -54.02 56.18 -51.82 58.1 -49.38 59.72 -46.79 61.31 -44.21 62.88 -41.48 64.22 -38.54 65.39 -35.56 66.56 -32.56 67.55 -29.36 68.37 -26.07 69.14 -22.78 69.78 -19.3 70.35 -520.72 -133.97 26.25 -95.49 30.64 -94.02 34.86 -92.31 38.86 -90.61 42.68 -88.66 46.4 -86.75 49.95 -84.73 53.31 -82.57 56.46 -80.38 59.69 -78.17 62.56 -75.74 65.35 -73.25 68.05 -70.78 70.67 -68.15 73 -65.39 75.35 -62.66 77.54 -59.76 79.63 -56.78 81.65 -53.7 83.42 -50.44 85.15 -47.19 86.86 -43.78 88.34 -40.27 89.76 -36.6 91.15 -32.87 92.27 -28.87 93.27 -24.86 94.33 -20.76 95.15 -16.37 95.85 -11.86 96.38 -7.27 96.78 -2.44 0 0z"/>
  </g>
  <path class="fil2 str0" d="M5778.38 5252.64l-466.02 -888.54c-46.44,-88.49 -90.68,-161.46 -134.21,-220.47 -42.76,-59.72 -87.74,-106.91 -133.44,-142.29 -45.73,-34.68 -95.15,-60.47 -147.5,-75.24 -53.06,-15.48 -111.33,-22.85 -176.23,-22.85l-340.66 0 0 1349.39 -287.56 0 0 -3096.96 891.48 0c116.51,0 229.33,16.97 338.43,51.64 108.39,34.65 204.99,85.51 289.79,153.35 84.81,67.83 153.38,152.63 204.25,254.4 50.9,102.48 76.69,221.22 76.69,356.14 0,109.14 -16.22,210.16 -49.38,302.33 -33.19,91.43 -80.37,173.29 -141.58,244.81 -61.21,70.77 -134.96,131.24 -221.96,180.66 -87.74,50.12 -185.83,86.99 -294.93,111.33l0 8.85c42.01,16.97 79.63,39.82 114.27,67.09 34.65,27.32 67.84,60.47 100.28,99.58 32.45,38.32 64.16,83.31 95.86,133.43 31.7,50.91 64.89,108.4 98.83,173.29l519.82 960.06 -336.23 0zm-1398.06 -2831.51l0 1221.09 513.21 0c103.96,0 198.36,-14.73 284.62,-44.98 86.29,-30.22 160.04,-73.72 221.21,-129.76 61.21,-55.33 108.39,-123.16 142.33,-202.05 33.9,-78.88 50.87,-168.11 50.87,-266.94 0,-179.91 -57.53,-320.75 -173.29,-423.23 -115.76,-102.51 -283.13,-154.13 -502.15,-154.13l-536.8 0zm2347.07 2875.75c-57.53,0 -106.91,-19.9 -146.72,-60.46 -40.56,-39.82 -60.47,-89.23 -60.47,-146.72 0,-58.27 19.91,-108.4 58.98,-148.21 39.82,-40.56 89.23,-60.47 148.21,-60.47 28.76,0 55.29,5.14 80.37,16.23 25.08,11.05 47.19,25.04 65.64,42.75 19.17,18.42 33.9,39.82 45.7,65.64 11.05,26.53 16.96,54.55 16.96,84.06 0,28.72 -5.91,56.04 -16.96,81.08 -11.8,25.08 -26.53,47.22 -45.7,65.64 -18.45,18.42 -40.56,33.19 -65.64,44.24 -25.08,11.05 -51.61,16.22 -80.37,16.22zm1771.09 -2875.75l0 2831.51 -287.56 0 0 -2831.51 -893.64 0 0 -265.45 2074.92 0 0 265.45 -893.72 0zm1033.07 1774.11c1.45,135.7 19.16,257.35 53.81,365.74 34.67,107.65 84.05,199.85 148.95,274.31 64.89,75.2 143.78,132.73 236.69,171.8 92.92,39.82 197.62,59.72 314.13,59.72 249.23,0 484.44,-86.99 706.4,-261.77l0 273.57c-211.62,151.18 -468.22,227.13 -769.06,227.13 -148.21,0 -283.17,-25.82 -404.1,-78.18 -120.94,-51.61 -223.41,-126.81 -308.96,-225.64 -84.8,-98.79 -150.4,-220.47 -196.13,-364.25 -46.44,-144.53 -69.33,-308.96 -69.33,-493.3 0,-165.92 25.08,-319.26 75.24,-460.84 50.87,-140.84 120.19,-263.27 209.42,-366.49 89.94,-103.22 195.39,-183.59 317.78,-241.86 122.42,-58.24 255.89,-87.74 401.12,-87.74 143.07,0 268.43,25.08 378.28,74.49 109.14,50.12 201.31,120.93 275.06,213.1 74.45,92.17 130.49,204.25 169.56,336.98 39.11,132.73 58.27,280.93 58.27,444.62l0 138.61 -1597.13 0zm1313.97 -243.32c-4.4,-230.07 -58.98,-408.49 -164.44,-535.34 -105.41,-126.81 -252.17,-190.22 -439.45,-190.22 -93.66,0 -180.65,16.22 -261.03,49.38 -79.63,33.19 -150.44,81.12 -210.9,143.82 -60.44,62.66 -110.59,139.35 -150.41,229.29 -39.81,89.97 -67.09,191 -83.31,303.07l1309.54 0zm2104.42 1300.72l0 -393.76 -8.82 0c-71.56,141.59 -170.35,251.43 -294.93,329.61 -124.62,78.18 -265.46,117.25 -422.52,117.25 -106.91,0 -202.76,-15.48 -288.31,-45.73 -86.25,-30.22 -158.51,-73.01 -218.27,-128.3 -60.43,-56.04 -106.16,-122.39 -138.61,-200.56 -32.45,-78.15 -48.67,-163.69 -48.67,-258.09 0,-200.57 61.95,-360.57 185.83,-479.27 123.87,-119.45 311.15,-196.88 561.87,-233.01l672.43 -97.34c0,-424.72 -165.14,-637.08 -496.2,-637.08 -258.84,0 -499.21,94.37 -720.43,283.13l0 -302.33c46.48,-32.41 98.83,-62.66 157.07,-89.19 59.01,-26.57 120.93,-49.42 185.82,-69.32 64.9,-19.17 131.99,-33.94 200.57,-44.99 69.32,-11.05 135.66,-16.22 201.3,-16.22 247,0 434.28,69.32 560.35,207.22 126.85,138.61 190.26,344.34 190.26,618.65l0 1439.33 -278.74 0zm-571.41 -1074.33c-100.28,13.99 -185.08,31.7 -255.89,53.81 -70.77,21.39 -129.01,50.9 -175.48,87.74 -46.44,36.87 -80.38,81.86 -101.77,135.7 -21.36,54.55 -32.41,120.9 -32.41,200.56 0,58.98 10.31,113.53 31.7,164.44 20.65,50.12 50.87,93.62 90.68,130.49 39.82,36.88 87.74,65.64 145.27,85.55 56.78,19.91 121.68,30.21 193.94,30.21 98.05,0 188.02,-18.42 270.59,-56.03 81.86,-37.59 153.38,-89.94 213.1,-155.58 59.69,-66.35 106.87,-146.01 140.81,-238.18 33.93,-92.17 50.87,-192.45 50.87,-300.85l0 -218.24 -571.41 80.38zm2984.82 974.05c-164.43,99.54 -362.76,150.44 -596.52,153.38 -158.55,1.45 -301.59,-25.82 -428.4,-81.86 -126.85,-56.79 -234.5,-134.93 -324.47,-234.46 -89.19,-100.29 -157.77,-218.28 -204.99,-354.69 -47.93,-135.67 -71.52,-283.88 -71.52,-443.92 0,-165.88 25.08,-321.46 75.95,-467.47 50.16,-146.76 123.91,-273.57 220.47,-382.71 96.6,-108.39 214.59,-194.64 354.68,-258.05 139.36,-63.44 299.4,-95.14 480.05,-95.14 182.85,0 350.23,35.38 501.41,106.19l0 293.48c-161.49,-106.94 -336.27,-160.75 -524.29,-160.75 -131.24,0 -248.49,25.05 -350.97,74.46 -102.51,50.16 -188.77,117.99 -258.83,203.5 -70.03,85.55 -123.13,185.83 -160.01,300.88 -36.87,114.28 -55.29,235.95 -55.29,364.25 0,117.96 15.48,231.52 46.44,339.17 30.96,108.4 78.92,203.54 143.07,286.86 64.15,82.57 145.23,148.95 243.32,197.62 98.79,49.38 213.85,73.71 347.28,73.71 207.97,0 395.25,-61.92 562.62,-186.53l0 272.08zm2022.59 100.28l0 -1302.21c0,-247.74 -44.24,-430.59 -133.43,-547.84 -89.23,-117.25 -227.88,-176.23 -415.9,-176.23 -88.48,0 -173.29,17.68 -253.66,53.81 -80.37,36.13 -151.15,88.48 -210.87,155.61 -60.47,67.83 -108.39,150.4 -144.53,247.75 -36.13,97.34 -53.84,207.18 -53.84,330.35l0 1238.76 -278.7 0 0 -3273.93 278.7 0 0 1443.04 8.86 0c172.54,-289.79 419.58,-434.31 741.78,-434.31 246.3,0 431.38,75.94 554.51,227.13 123.87,151.14 185.82,374.55 185.82,669.52l0 1368.55 -278.74 0zm1081 -2769.55c-53.85,0 -99.58,-18.46 -138.65,-56.04 -39.81,-37.62 -58.98,-85.55 -58.98,-143.07 0,-56.04 19.17,-102.48 58.98,-139.35 39.07,-36.88 84.8,-55.3 138.65,-55.3 27.27,0 53.8,4.43 78.14,13.99 25.08,9.6 45.73,22.89 64.15,39.85 18.45,17.68 32.45,38.33 43.5,61.92 11.08,23.59 16.22,50.16 16.22,78.89 0,27.31 -5.14,53.1 -15.48,78.18 -9.6,24.33 -24.33,45.73 -43.5,63.4 -18.42,18.46 -39.81,32.45 -63.4,42.05 -24.34,10.31 -50.91,15.48 -79.63,15.48zm-137.16 2769.55l0 -2212.11 278.7 0 0 2212.11 -278.7 0zm2480.5 0l0 -1275.64c0,-500.7 -180.65,-750.64 -542.67,-750.64 -95.89,0 -185.08,19.17 -266.95,57.49 -81.86,38.37 -152.63,90.72 -212.35,158.55 -58.98,67.84 -106.2,148.21 -139.36,241.13 -33.93,92.91 -50.9,193.93 -50.9,301.58l0 1267.53 -278.7 0 0 -2212.11 278.7 0 0 383.42 8.86 0c163.68,-291.25 410.72,-436.51 739.58,-436.51 241.87,0 426.21,78.17 553.02,235.24 126.11,157.06 189.51,384.16 189.51,681.32l0 1348.64 -278.74 0zm2771.04 -170.35c0,410.73 -93.66,715.26 -280.9,912.88 -187.31,198.37 -475.62,297.16 -865.69,297.16 -242.58,0 -472.65,-53.84 -689.43,-161.49l0 -280.94c241.12,132.73 470.45,199.11 688.68,199.11 578.84,0 868.64,-305.27 868.64,-915.07l0 -264.71 -8.86 0c-169.6,291.24 -429.14,436.51 -777.91,436.51 -137.16,0 -261.78,-25.08 -375.34,-75.95 -112.79,-50.16 -210.13,-123.16 -290.5,-218.27 -80.38,-95.11 -143.78,-210.87 -188.03,-347.28 -44.98,-135.71 -67.12,-289.8 -67.12,-461.6 0,-181.4 23.62,-346.57 71.55,-496.27 47.18,-148.95 115.02,-277.25 202.76,-383.41 88.49,-106.94 194.68,-189.51 319.3,-247.78 124.62,-58.24 264.71,-87.74 420.29,-87.74 312.64,0 541.22,126.84 685,380.47l8.86 0 0 -327.38 278.7 0 0 2041.76zm-278.7 -1174.61c0,-92.17 -16.97,-179.91 -50.13,-261.77 -33.19,-81.83 -78.92,-154.09 -137.9,-216.05 -59.72,-61.95 -129.78,-111.33 -211.61,-148.2 -81.12,-36.88 -171.09,-55.3 -269.14,-55.3 -115.8,0 -219.76,22.11 -313.39,67.09 -92.91,44.99 -171.83,108.4 -237.43,190.26 -66.39,81.82 -116.51,182.1 -151.9,299.35 -35.42,118 -53.09,249.98 -53.09,396.7 0,135.67 16.96,258.09 50.12,367.97 33.19,109.85 79.66,202.76 140.1,278.71 61.21,76.69 134.21,135.66 219.76,177.71 86.25,42.01 182.11,62.66 286.81,62.66 109.89,0 209.42,-19.9 299.4,-59.72 89.23,-39.07 165.88,-94.36 229.32,-164.43 63.41,-69.32 112.82,-151.89 147.47,-246.29 34.64,-94.37 51.61,-196.14 51.61,-305.98l0 -382.71zm2721.59 1344.96l-466.02 -888.54c-46.44,-88.49 -90.69,-161.46 -134.22,-220.47 -42.75,-59.72 -87.74,-106.91 -133.44,-142.29 -45.73,-34.68 -95.14,-60.47 -147.5,-75.24 -53.06,-15.48 -111.33,-22.85 -176.22,-22.85l-340.66 0 0 1349.39 -287.56 0 0 -3096.96 891.48 0c116.5,0 229.32,16.97 338.42,51.64 108.4,34.65 205,85.51 289.8,153.35 84.8,67.83 153.38,152.63 204.24,254.4 50.91,102.48 76.69,221.22 76.69,356.14 0,109.14 -16.22,210.16 -49.38,302.33 -33.19,91.43 -80.37,173.29 -141.58,244.81 -61.21,70.77 -134.96,131.24 -221.96,180.66 -87.74,50.12 -185.82,86.99 -294.93,111.33l0 8.85c42.01,16.97 79.63,39.82 114.28,67.09 34.64,27.32 67.83,60.47 100.28,99.58 32.45,38.32 64.15,83.31 95.85,133.43 31.71,50.91 64.9,108.4 98.83,173.29l519.83 960.06 -336.23 0zm-1398.06 -2831.51l0 1221.09 513.2 0c103.97,0 198.37,-14.73 284.62,-44.98 86.29,-30.22 160.04,-73.72 221.21,-129.76 61.21,-55.33 108.4,-123.16 142.33,-202.05 33.9,-78.88 50.87,-168.11 50.87,-266.94 0,-179.91 -57.53,-320.75 -173.29,-423.23 -115.76,-102.51 -283.13,-154.13 -502.15,-154.13l-536.79 0zm2224.64 1774.11c1.46,135.7 19.17,257.35 53.81,365.74 34.68,107.65 84.06,199.85 148.95,274.31 64.9,75.2 143.78,132.73 236.7,171.8 92.91,39.82 197.62,59.72 314.12,59.72 249.24,0 484.44,-86.99 706.4,-261.77l0 273.57c-211.61,151.18 -468.22,227.13 -769.06,227.13 -148.21,0 -283.17,-25.82 -404.1,-78.18 -120.93,-51.61 -223.41,-126.81 -308.96,-225.64 -84.8,-98.79 -150.4,-220.47 -196.13,-364.25 -46.44,-144.53 -69.32,-308.96 -69.32,-493.3 0,-165.92 25.08,-319.26 75.23,-460.84 50.87,-140.84 120.19,-263.27 209.42,-366.49 89.94,-103.22 195.39,-183.59 317.78,-241.86 122.42,-58.24 255.89,-87.74 401.12,-87.74 143.08,0 268.44,25.08 378.28,74.49 109.14,50.12 201.31,120.93 275.06,213.1 74.46,92.17 130.5,204.25 169.57,336.98 39.1,132.73 58.27,280.93 58.27,444.62l0 138.61 -1597.14 0zm1313.97 -243.32c-4.39,-230.07 -58.98,-408.49 -164.43,-535.34 -105.42,-126.81 -252.18,-190.22 -439.46,-190.22 -93.65,0 -180.65,16.22 -261.02,49.38 -79.63,33.19 -150.44,81.12 -210.91,143.82 -60.43,62.66 -110.59,139.35 -150.41,229.29 -39.81,89.97 -67.09,191 -83.31,303.07l1309.54 0zm706.4 903.28c42.01,33.19 86.99,62.66 135.66,88.48 48.68,25.83 99.54,47.93 151.15,67.1 51.61,18.45 103.22,32.44 156.32,42.04 52.36,9.57 101.77,13.99 149.7,13.99 327.37,0 491.1,-123.13 491.1,-368.67 0,-56.04 -11.8,-104.71 -34.68,-146.02 -22.85,-41.26 -56.04,-78.88 -98.79,-112.78 -43.5,-33.94 -95.11,-64.9 -155.58,-93.66 -60.47,-28.76 -129.04,-58.98 -204.99,-90.68 -102.51,-42.05 -190.26,-84.8 -264.01,-127.59 -72.97,-43.5 -133.43,-90.69 -181.36,-141.55 -47.22,-51.65 -82.6,-107.69 -105.45,-168.86 -22.85,-61.21 -34.68,-131.28 -34.68,-208.68 0,-98.08 21.39,-185.82 63.44,-261.77 42.76,-76.69 99.54,-141.58 171.06,-194.68 72.26,-53.1 154.86,-94.37 248.49,-122.39 94.4,-28.02 193.19,-42.04 296.41,-42.04 191,0 356.89,36.13 499.21,107.65l0 291.28c-165.17,-106.95 -343.6,-160.01 -534.59,-160.01 -68.58,0 -131.25,8.86 -188.03,25.79 -56.78,17.71 -105.45,42.05 -146.01,73.75 -39.81,31.7 -71.52,70.03 -93.62,114.27 -22.14,44.25 -33.19,92.92 -33.19,146.01 0,55.3 8.85,103.23 25.82,143.78 17.68,41.31 44.24,78.93 81.08,112.08 36.88,32.45 84.06,64.15 142.33,95.15 58.24,30.21 129.05,62.66 213.1,97.3 106.16,42.79 198.33,85.55 275.77,128.3 78.18,42.79 142.33,88.49 192.45,138.65 50.16,49.41 87.74,104.71 112.08,166.63 24.33,61.21 36.87,132.02 36.87,212.39 0,99.54 -20.65,188.77 -61.21,266.16 -41.27,78.18 -98.05,143.79 -170.31,196.88 -72.26,53.1 -157.81,93.66 -255.15,120.94 -97.31,27.27 -203.5,41.3 -318.52,41.3 -222.7,0 -409.98,-47.18 -561.87,-140.84l0 -309.7zm2049.87 -659.96c1.45,135.7 19.16,257.35 53.8,365.74 34.68,107.65 84.06,199.85 148.96,274.31 64.89,75.2 143.78,132.73 236.69,171.8 92.91,39.82 197.62,59.72 314.13,59.72 249.23,0 484.44,-86.99 706.39,-261.77l0 273.57c-211.61,151.18 -468.21,227.13 -769.06,227.13 -148.2,0 -283.16,-25.82 -404.1,-78.18 -120.93,-51.61 -223.41,-126.81 -308.95,-225.64 -84.8,-98.79 -150.41,-220.47 -196.14,-364.25 -46.44,-144.53 -69.32,-308.96 -69.32,-493.3 0,-165.92 25.08,-319.26 75.24,-460.84 50.87,-140.84 120.19,-263.27 209.42,-366.49 89.93,-103.22 195.39,-183.59 317.77,-241.86 122.42,-58.24 255.9,-87.74 401.13,-87.74 143.07,0 268.43,25.08 378.28,74.49 109.13,50.12 201.3,120.93 275.05,213.1 74.46,92.17 130.5,204.25 169.57,336.98 39.11,132.73 58.27,280.93 58.27,444.62l0 138.61 -1597.13 0zm1313.96 -243.32c-4.39,-230.07 -58.98,-408.49 -164.43,-535.34 -105.42,-126.81 -252.17,-190.22 -439.45,-190.22 -93.66,0 -180.66,16.22 -261.03,49.38 -79.63,33.19 -150.44,81.12 -210.91,143.82 -60.43,62.66 -110.59,139.35 -150.4,229.29 -39.82,89.97 -67.09,191 -83.32,303.07l1309.54 0zm2104.42 1300.72l0 -393.76 -8.82 0c-71.55,141.59 -170.34,251.43 -294.96,329.61 -124.58,78.18 -265.42,117.25 -422.49,117.25 -106.9,0 -202.75,-15.48 -288.3,-45.73 -86.25,-30.22 -158.52,-73.01 -218.27,-128.3 -60.43,-56.04 -106.17,-122.39 -138.61,-200.56 -32.45,-78.15 -48.67,-163.69 -48.67,-258.09 0,-200.57 61.95,-360.57 185.82,-479.27 123.88,-119.45 311.16,-196.88 561.88,-233.01l672.42 -97.34c0,-424.72 -165.14,-637.08 -496.2,-637.08 -258.83,0 -499.21,94.37 -720.42,283.13l0 -302.33c46.47,-32.41 98.83,-62.66 157.06,-89.19 59.02,-26.57 120.94,-49.42 185.83,-69.32 64.89,-19.17 131.99,-33.94 200.56,-44.99 69.33,-11.05 135.67,-16.22 201.31,-16.22 246.97,0 434.28,69.32 560.35,207.22 126.85,138.61 190.25,344.34 190.25,618.65l0 1439.33 -278.74 0zm-571.4 -1074.33c-100.28,13.99 -185.08,31.7 -255.89,53.81 -70.77,21.39 -129.01,50.9 -175.48,87.74 -46.44,36.87 -80.38,81.86 -101.77,135.7 -21.36,54.55 -32.41,120.9 -32.41,200.56 0,58.98 10.3,113.53 31.7,164.44 20.65,50.12 50.87,93.62 90.68,130.49 39.82,36.88 87.74,65.64 145.27,85.55 56.78,19.91 121.67,30.21 193.94,30.21 98.05,0 188.02,-18.42 270.55,-56.03 81.87,-37.59 153.38,-89.94 213.11,-155.58 59.72,-66.35 106.9,-146.01 140.84,-238.18 33.93,-92.17 50.86,-192.45 50.86,-300.85l0 -218.24 -571.4 80.38zm2610.97 -853.9c-64.86,-47.93 -148.21,-71.52 -250.69,-71.52 -73,0 -137.9,14.03 -193.94,42.05 -56.78,28.02 -105.45,65.6 -148.21,113.53 -42.75,47.22 -78.14,102.51 -107.65,165.17 -30.25,62.7 -53.84,127.56 -71.51,195.43 -18.46,67.84 -31,136.41 -39.11,204.96 -8.11,69.32 -11.8,134.96 -11.8,196.88l0 1081.73 -274.27 0 0 -2212.11 274.27 0 0 474.14 8.86 0c25.82,-80.38 58.27,-153.38 98.09,-216.79 39.81,-64.15 85.51,-118.74 137.15,-162.24 51.61,-44.24 108.39,-77.39 169.57,-100.28 61.21,-22.84 125.36,-34.64 193.19,-34.64 44.99,0 84.81,2.94 120.19,8.86 34.68,5.13 67.13,13.99 95.86,25.78l0 289.05zm1814.66 1827.95c-164.43,99.54 -362.76,150.44 -596.52,153.38 -158.55,1.45 -301.58,-25.82 -428.4,-81.86 -126.84,-56.79 -234.49,-134.93 -324.47,-234.46 -89.19,-100.29 -157.77,-218.28 -204.99,-354.69 -47.92,-135.67 -71.52,-283.88 -71.52,-443.92 0,-165.88 25.08,-321.46 75.95,-467.47 50.16,-146.76 123.91,-273.57 220.47,-382.71 96.6,-108.39 214.59,-194.64 354.69,-258.05 139.35,-63.44 299.39,-95.14 480.04,-95.14 182.86,0 350.23,35.38 501.41,106.19l0 293.48c-161.49,-106.94 -336.27,-160.75 -524.29,-160.75 -131.24,0 -248.49,25.05 -350.97,74.46 -102.51,50.16 -188.76,117.99 -258.83,203.5 -70.03,85.55 -123.13,185.83 -160,300.88 -36.88,114.28 -55.3,235.95 -55.3,364.25 0,117.96 15.48,231.52 46.44,339.17 30.96,108.4 78.92,203.54 143.07,286.86 64.15,82.57 145.24,148.95 243.32,197.62 98.79,49.38 213.85,73.71 347.28,73.71 207.97,0 395.25,-61.92 562.62,-186.53l0 272.08zm2022.56 100.28l0 -1302.21c0,-247.74 -44.24,-430.59 -133.44,-547.84 -89.23,-117.25 -227.87,-176.23 -415.89,-176.23 -88.49,0 -173.29,17.68 -253.66,53.81 -80.38,36.13 -151.15,88.48 -210.84,155.61 -60.47,67.83 -108.39,150.4 -144.52,247.75 -36.13,97.34 -53.85,207.18 -53.85,330.35l0 1238.76 -278.7 0 0 -3273.93 278.7 0 0 1443.04 8.86 0c172.54,-289.79 419.55,-434.31 741.75,-434.31 246.29,0 431.38,75.94 554.5,227.13 123.88,151.14 185.83,374.55 185.83,669.52l0 1368.55 -278.74 0zm3266.57 -215.3c-318.52,179.17 -656.24,268.4 -1012.42,268.4 -224.89,0 -426.91,-38.36 -606.11,-115.76 -178.43,-76.69 -331.06,-184.34 -456.42,-321.5 -125.36,-137.9 -221.96,-301.59 -289.05,-492.58 -67.09,-190.97 -100.28,-400.39 -100.28,-629.71 0,-151.15 16.22,-296.42 48.67,-436.51 32.45,-139.36 80.37,-270.63 143.03,-393.02 62.7,-122.42 139.39,-233.01 230.07,-332.55 91.43,-99.57 195.4,-185.08 312.64,-256.6 118,-72.26 247.75,-127.59 388.59,-166.66 141.58,-39.07 294.22,-58.24 457.16,-58.24 306.76,0 581.08,54.56 822.2,163.69l0 317.07c-265.46,-146.76 -550.82,-219.73 -856.84,-219.73 -189.51,0 -359.82,34.65 -513.2,103.97 -152.64,68.58 -283.17,163.69 -390.82,284.62 -106.9,120.93 -190.22,263.97 -249.98,429.14 -58.97,165.18 -89.19,343.6 -90.68,536.8 -1.49,191.71 23.59,368.68 74.5,530.17 51.61,162.23 127.55,302.33 228.58,420.29 100.99,117.99 225.6,210.16 373.81,276.54 148.95,66.35 320.79,99.54 515.44,99.54 262.51,0 490.35,-54.59 683.55,-164.43l0 -946.07 -703.46 0 0 -261.03 991.02 0 0 1364.16zm2118.41 215.3l0 -374.59 -8.82 0c-149.7,285.36 -381.96,427.69 -697.58,427.69 -525.7,0 -788.93,-321.5 -788.93,-963.74l0 -1301.47 278.71 0 0 1248.37c0,265.45 47.21,460.85 141.54,587.69 93.66,126.82 238.19,190.22 432.12,190.22 95.11,0 181.37,-18.42 260.29,-55.29 78.14,-36.88 145.98,-88.49 202.76,-155.58 56.78,-66.38 101.02,-146.75 132.73,-240.37 31.7,-93.66 47.18,-197.63 47.18,-311.19l0 -1263.85 278.74 0 0 2212.11 -278.74 0zm1127.47 -2769.55c-53.85,0 -99.58,-18.46 -138.65,-56.04 -39.81,-37.62 -58.98,-85.55 -58.98,-143.07 0,-56.04 19.17,-102.48 58.98,-139.35 39.07,-36.88 84.8,-55.3 138.65,-55.3 27.27,0 53.8,4.43 78.14,13.99 25.08,9.6 45.73,22.89 64.15,39.85 18.45,17.68 32.45,38.33 43.5,61.92 11.09,23.59 16.22,50.16 16.22,78.89 0,27.31 -5.13,53.1 -15.48,78.18 -9.6,24.33 -24.33,45.73 -43.5,63.4 -18.42,18.46 -39.81,32.45 -63.4,42.05 -24.34,10.31 -50.91,15.48 -79.63,15.48zm-137.16 2769.55l0 -2212.11 278.71 0 0 2212.11 -278.71 0zm2538.03 0l0 -387.84 -8.86 0c-73,139.35 -178.42,248.49 -314.12,325.18 -136.42,77.4 -291.25,115.76 -463.79,115.76 -138.61,0 -263.97,-25.82 -377.54,-76.69 -112.82,-51.61 -210.16,-125.36 -290.53,-221.96 -80.38,-96.6 -143.04,-213.1 -187.28,-350.26 -43.5,-137.12 -65.64,-291.99 -65.64,-464.53 0,-179.17 24.34,-342.15 72.26,-490.35 48.67,-147.47 117.25,-274.28 205.74,-380.48 88.48,-106.2 195.39,-188.02 320,-246.29 124.62,-58.24 263.27,-87.74 415.9,-87.74 318.56,0 547.14,127.55 685,382.7l8.86 0 0 -1391.43 278.74 0 0 3273.93 -278.74 0zm0 -1336.1c0,-96.6 -16.97,-187.32 -50.12,-270.63 -33.19,-83.32 -78.92,-156.32 -137.9,-218.24 -59.73,-61.96 -130.54,-111.37 -213.85,-147.5 -82.57,-36.13 -174.03,-53.81 -273.57,-53.81 -109.84,0 -210.87,21.36 -303.04,64.9 -92.17,43.49 -171.8,105.41 -237.44,187.27 -65.63,81.12 -116.5,180.66 -153.38,297.17 -36.87,116.5 -55.29,249.23 -55.29,398.18 0,139.35 16.97,264.71 50.12,376.05 33.19,111.33 80.38,204.99 141.59,280.93 61.21,76.69 134.21,134.93 219.72,175.49 84.8,40.56 179.95,60.46 283.17,60.46 112.82,0 214.56,-19.9 304.53,-60.46 89.97,-40.56 166.66,-95.86 229.32,-166.63 62.67,-70.81 111.34,-153.38 145.27,-248.49 33.9,-95.15 50.87,-196.88 50.87,-305.27l0 -369.42zm1120.03 278.7c1.45,135.7 19.16,257.35 53.8,365.74 34.68,107.65 84.06,199.85 148.96,274.31 64.89,75.2 143.78,132.73 236.69,171.8 92.91,39.82 197.62,59.72 314.13,59.72 249.23,0 484.44,-86.99 706.39,-261.77l0 273.57c-211.61,151.18 -468.21,227.13 -769.06,227.13 -148.2,0 -283.16,-25.82 -404.1,-78.18 -120.93,-51.61 -223.41,-126.81 -308.95,-225.64 -84.8,-98.79 -150.41,-220.47 -196.14,-364.25 -46.44,-144.53 -69.32,-308.96 -69.32,-493.3 0,-165.92 25.08,-319.26 75.24,-460.84 50.87,-140.84 120.19,-263.27 209.42,-366.49 89.93,-103.22 195.39,-183.59 317.77,-241.86 122.42,-58.24 255.9,-87.74 401.13,-87.74 143.07,0 268.43,25.08 378.28,74.49 109.13,50.12 201.3,120.93 275.05,213.1 74.46,92.17 130.5,204.25 169.57,336.98 39.11,132.73 58.27,280.93 58.27,444.62l0 138.61 -1597.13 0zm1313.96 -243.32c-4.39,-230.07 -58.98,-408.49 -164.43,-535.34 -105.42,-126.81 -252.17,-190.22 -439.45,-190.22 -93.66,0 -180.66,16.22 -261.03,49.38 -79.63,33.19 -150.44,81.12 -210.91,143.82 -60.43,62.66 -110.59,139.35 -150.4,229.29 -39.82,89.97 -67.09,191 -83.32,303.07l1309.54 0z"/>
 </g>
</svg>
