<?xml version="1.0" encoding="UTF-8"?>
<!DOCTYPE svg PUBLIC "-//W3C//DTD SVG 1.1//EN" "http://www.w3.org/Graphics/SVG/1.1/DTD/svg11.dtd">
<!-- Creator: CorelDRAW -->
<svg xmlns="http://www.w3.org/2000/svg" xml:space="preserve" width="1209px" height="162px" version="1.1" style="shape-rendering:geometricPrecision; text-rendering:geometricPrecision; image-rendering:optimizeQuality; fill-rule:evenodd; clip-rule:evenodd"
viewBox="0 0 149.324 19.981"
 xmlns:xlink="http://www.w3.org/1999/xlink"
 xmlns:xodm="http://www.corel.com/coreldraw/odm/2003">
 <defs>
  <style type="text/css">
   <![CDATA[
    .str0 {stroke:black;stroke-width:1.459;stroke-miterlimit:22.9256}
    .str1 {stroke:black;stroke-width:0.074;stroke-miterlimit:22.9256}
    .fil2 {fill:none;fill-rule:nonzero}
    .fil0 {fill:white}
    .fil1 {fill:black;fill-rule:nonzero}
   ]]>
  </style>
 </defs>
 <g id="Capa_x0020_1">
  <metadata id="CorelCorpID_0Corel-Layer"/>
  <rect class="fil0 str0" transform="matrix(0.944138 -0 -0.262799 0.85299 5.21068 0.729251)" width="153.166" height="21.715" rx="5.486" ry="5.486"/>
  <path class="fil1" d="M13.315 13.68l-1.28 -2.439c-0.127,-0.243 -0.249,-0.443 -0.368,-0.605 -0.117,-0.164 -0.241,-0.294 -0.366,-0.391 -0.126,-0.095 -0.261,-0.166 -0.405,-0.206 -0.146,-0.043 -0.306,-0.063 -0.484,-0.063l-0.935 0 0 3.704 -0.789 0 0 -8.501 2.447 0c0.319,0 0.629,0.047 0.929,0.142 0.297,0.095 0.562,0.234 0.795,0.421 0.233,0.186 0.421,0.419 0.561,0.698 0.14,0.281 0.21,0.607 0.21,0.978 0,0.299 -0.044,0.576 -0.135,0.829 -0.091,0.251 -0.221,0.476 -0.389,0.672 -0.168,0.195 -0.37,0.361 -0.609,0.496 -0.241,0.138 -0.51,0.239 -0.81,0.306l0 0.024c0.116,0.047 0.219,0.11 0.314,0.184 0.095,0.075 0.186,0.166 0.275,0.274 0.089,0.105 0.176,0.228 0.263,0.366 0.087,0.14 0.178,0.298 0.272,0.476l1.427 2.635 -0.923 0zm-3.838 -7.772l0 3.351 1.409 0c0.285,0 0.544,-0.04 0.781,-0.123 0.237,-0.083 0.439,-0.202 0.607,-0.356 0.168,-0.152 0.298,-0.338 0.391,-0.555 0.093,-0.216 0.139,-0.461 0.139,-0.733 0,-0.493 -0.157,-0.88 -0.475,-1.161 -0.318,-0.282 -0.777,-0.423 -1.379,-0.423l-1.473 0z"/>
  <path id="_1" class="fil1" d="M15.92 13.801c-0.158,0 -0.294,-0.054 -0.403,-0.166 -0.112,-0.109 -0.166,-0.244 -0.166,-0.402 0,-0.16 0.054,-0.298 0.162,-0.407 0.109,-0.111 0.245,-0.166 0.407,-0.166 0.079,0 0.151,0.014 0.22,0.044 0.069,0.031 0.13,0.069 0.18,0.118 0.053,0.05 0.093,0.109 0.126,0.18 0.03,0.073 0.046,0.15 0.046,0.231 0,0.079 -0.016,0.154 -0.046,0.222 -0.033,0.069 -0.073,0.13 -0.126,0.18 -0.05,0.051 -0.111,0.092 -0.18,0.122 -0.069,0.03 -0.141,0.044 -0.22,0.044z"/>
  <polygon id="_2" class="fil1" points="20.781,5.908 20.781,13.68 19.992,13.68 19.992,5.908 17.539,5.908 17.539,5.179 23.234,5.179 23.234,5.908 "/>
  <path id="_3" class="fil1" d="M23.617 10.777c0.004,0.373 0.052,0.707 0.148,1.004 0.095,0.296 0.23,0.549 0.408,0.753 0.179,0.207 0.395,0.365 0.65,0.472 0.255,0.109 0.543,0.164 0.862,0.164 0.685,0 1.33,-0.239 1.939,-0.719l0 0.751c-0.58,0.415 -1.285,0.624 -2.111,0.624 -0.406,0 -0.777,-0.071 -1.109,-0.215 -0.332,-0.142 -0.613,-0.348 -0.848,-0.619 -0.233,-0.271 -0.413,-0.605 -0.538,-1 -0.128,-0.397 -0.191,-0.848 -0.191,-1.354 0,-0.456 0.069,-0.877 0.207,-1.265 0.14,-0.387 0.33,-0.723 0.575,-1.006 0.247,-0.283 0.536,-0.504 0.872,-0.664 0.336,-0.16 0.702,-0.241 1.101,-0.241 0.393,0 0.737,0.069 1.038,0.205 0.3,0.137 0.553,0.332 0.756,0.585 0.204,0.253 0.358,0.56 0.465,0.925 0.107,0.364 0.16,0.771 0.16,1.22l0 0.38 -4.384 0zm3.607 -0.667c-0.012,-0.632 -0.162,-1.122 -0.452,-1.47 -0.289,-0.348 -0.692,-0.522 -1.206,-0.522 -0.257,0 -0.496,0.044 -0.717,0.135 -0.218,0.092 -0.412,0.223 -0.578,0.395 -0.166,0.172 -0.304,0.383 -0.413,0.63 -0.11,0.247 -0.184,0.524 -0.229,0.832l3.595 0z"/>
  <path id="_4" class="fil1" d="M33 13.68l0 -1.081 -0.024 0c-0.196,0.389 -0.468,0.69 -0.81,0.905 -0.342,0.214 -0.728,0.322 -1.159,0.322 -0.294,0 -0.557,-0.043 -0.792,-0.126 -0.237,-0.083 -0.435,-0.2 -0.599,-0.352 -0.166,-0.154 -0.291,-0.336 -0.38,-0.551 -0.089,-0.214 -0.134,-0.449 -0.134,-0.708 0,-0.55 0.17,-0.99 0.51,-1.316 0.34,-0.327 0.854,-0.54 1.542,-0.639l1.846 -0.267c0,-1.166 -0.453,-1.749 -1.362,-1.749 -0.71,0 -1.37,0.259 -1.977,0.777l0 -0.83c0.127,-0.089 0.271,-0.172 0.431,-0.245 0.162,-0.073 0.332,-0.135 0.51,-0.19 0.178,-0.052 0.362,-0.093 0.55,-0.123 0.191,-0.031 0.373,-0.045 0.553,-0.045 0.678,0 1.192,0.19 1.538,0.569 0.348,0.38 0.522,0.945 0.522,1.698l0 3.951 -0.765 0zm-1.568 -2.949c-0.276,0.038 -0.508,0.087 -0.703,0.148 -0.194,0.058 -0.354,0.139 -0.481,0.241 -0.128,0.101 -0.221,0.224 -0.28,0.372 -0.058,0.15 -0.089,0.332 -0.089,0.551 0,0.161 0.029,0.311 0.087,0.451 0.057,0.138 0.14,0.257 0.249,0.358 0.11,0.101 0.241,0.18 0.399,0.235 0.156,0.055 0.334,0.083 0.532,0.083 0.269,0 0.516,-0.051 0.743,-0.154 0.225,-0.103 0.421,-0.247 0.585,-0.427 0.164,-0.182 0.293,-0.401 0.387,-0.654 0.093,-0.253 0.139,-0.528 0.139,-0.826l0 -0.599 -1.568 0.221z"/>
  <path id="_5" class="fil1" d="M39.625 13.405c-0.451,0.273 -0.996,0.413 -1.638,0.421 -0.435,0.004 -0.827,-0.071 -1.175,-0.225 -0.349,-0.156 -0.644,-0.37 -0.891,-0.644 -0.245,-0.275 -0.433,-0.599 -0.563,-0.973 -0.131,-0.373 -0.196,-0.779 -0.196,-1.219 0,-0.455 0.069,-0.882 0.208,-1.283 0.138,-0.403 0.34,-0.751 0.606,-1.05 0.265,-0.298 0.589,-0.535 0.973,-0.709 0.383,-0.174 0.822,-0.261 1.318,-0.261 0.502,0 0.961,0.097 1.376,0.292l0 0.805c-0.443,-0.293 -0.923,-0.441 -1.439,-0.441 -0.36,0 -0.682,0.069 -0.963,0.204 -0.282,0.138 -0.519,0.324 -0.711,0.559 -0.192,0.235 -0.338,0.51 -0.439,0.826 -0.101,0.313 -0.152,0.647 -0.152,1 0,0.323 0.043,0.635 0.128,0.931 0.085,0.297 0.216,0.558 0.392,0.787 0.176,0.227 0.399,0.409 0.668,0.543 0.271,0.135 0.587,0.202 0.954,0.202 0.57,0 1.084,-0.17 1.544,-0.512l0 0.747z"/>
  <path id="_6" class="fil1" d="M45.177 13.68l0 -3.575c0,-0.68 -0.122,-1.181 -0.366,-1.503 -0.245,-0.322 -0.626,-0.484 -1.142,-0.484 -0.243,0 -0.476,0.048 -0.696,0.148 -0.221,0.099 -0.415,0.243 -0.579,0.427 -0.166,0.186 -0.298,0.413 -0.397,0.68 -0.099,0.267 -0.148,0.569 -0.148,0.907l0 3.4 -0.765 0 0 -8.987 0.765 0 0 3.961 0.025 0c0.473,-0.795 1.151,-1.192 2.036,-1.192 0.676,0 1.184,0.209 1.522,0.624 0.34,0.414 0.51,1.028 0.51,1.837l0 3.757 -0.765 0z"/>
  <path id="_7" class="fil1" d="M48.144 6.078c-0.148,0 -0.273,-0.051 -0.38,-0.154 -0.11,-0.103 -0.162,-0.235 -0.162,-0.393 0,-0.154 0.052,-0.281 0.162,-0.382 0.107,-0.102 0.232,-0.152 0.38,-0.152 0.075,0 0.148,0.012 0.215,0.038 0.068,0.027 0.125,0.063 0.176,0.11 0.05,0.048 0.089,0.105 0.119,0.17 0.031,0.064 0.045,0.137 0.045,0.216 0,0.075 -0.014,0.146 -0.043,0.215 -0.026,0.067 -0.067,0.125 -0.119,0.174 -0.051,0.05 -0.11,0.089 -0.174,0.115 -0.067,0.028 -0.14,0.043 -0.219,0.043zm-0.376 7.602l0 -6.072 0.765 0 0 6.072 -0.765 0z"/>
  <path id="_8" class="fil1" d="M54.577 13.68l0 -3.502c0,-1.374 -0.496,-2.06 -1.49,-2.06 -0.263,0 -0.508,0.053 -0.733,0.158 -0.225,0.105 -0.419,0.249 -0.583,0.435 -0.162,0.186 -0.291,0.407 -0.382,0.662 -0.093,0.255 -0.14,0.532 -0.14,0.828l0 3.479 -0.765 0 0 -6.072 0.765 0 0 1.052 0.024 0c0.45,-0.799 1.128,-1.198 2.03,-1.198 0.664,0 1.17,0.215 1.518,0.646 0.347,0.431 0.521,1.054 0.521,1.87l0 3.702 -0.765 0z"/>
  <path id="_9" class="fil1" d="M62.183 13.212c0,1.128 -0.257,1.964 -0.771,2.506 -0.514,0.545 -1.306,0.816 -2.376,0.816 -0.666,0 -1.298,-0.148 -1.893,-0.443l0 -0.772c0.662,0.365 1.291,0.547 1.89,0.547 1.589,0 2.385,-0.838 2.385,-2.512l0 -0.726 -0.024 0c-0.466,0.799 -1.178,1.198 -2.136,1.198 -0.376,0 -0.718,-0.069 -1.03,-0.209 -0.31,-0.137 -0.577,-0.338 -0.797,-0.599 -0.221,-0.261 -0.395,-0.579 -0.517,-0.953 -0.123,-0.373 -0.184,-0.796 -0.184,-1.267 0,-0.498 0.065,-0.952 0.197,-1.362 0.129,-0.409 0.315,-0.762 0.556,-1.053 0.243,-0.293 0.534,-0.52 0.877,-0.68 0.342,-0.16 0.726,-0.241 1.153,-0.241 0.858,0 1.486,0.348 1.881,1.044l0.024 0 0 -0.898 0.765 0 0 5.604zm-0.765 -3.224c0,-0.253 -0.047,-0.494 -0.138,-0.718 -0.091,-0.225 -0.216,-0.423 -0.378,-0.593 -0.164,-0.171 -0.357,-0.306 -0.581,-0.407 -0.223,-0.102 -0.47,-0.152 -0.739,-0.152 -0.318,0 -0.603,0.061 -0.86,0.184 -0.255,0.124 -0.472,0.298 -0.652,0.522 -0.182,0.225 -0.32,0.5 -0.417,0.822 -0.097,0.324 -0.146,0.686 -0.146,1.089 0,0.372 0.047,0.708 0.138,1.01 0.091,0.302 0.219,0.557 0.385,0.765 0.168,0.211 0.368,0.372 0.603,0.488 0.237,0.115 0.5,0.172 0.787,0.172 0.302,0 0.575,-0.055 0.822,-0.164 0.245,-0.107 0.455,-0.259 0.629,-0.451 0.174,-0.191 0.31,-0.417 0.405,-0.676 0.095,-0.259 0.142,-0.539 0.142,-0.84l0 -1.051z"/>
  <path id="_10" class="fil1" d="M68.888 13.68l-1.279 -2.439c-0.127,-0.243 -0.249,-0.443 -0.368,-0.605 -0.117,-0.164 -0.241,-0.294 -0.366,-0.391 -0.126,-0.095 -0.262,-0.166 -0.405,-0.206 -0.146,-0.043 -0.306,-0.063 -0.484,-0.063l-0.935 0 0 3.704 -0.789 0 0 -8.501 2.447 0c0.319,0 0.629,0.047 0.929,0.142 0.297,0.095 0.562,0.234 0.795,0.421 0.233,0.186 0.421,0.419 0.561,0.698 0.139,0.281 0.21,0.607 0.21,0.978 0,0.299 -0.044,0.576 -0.135,0.829 -0.091,0.251 -0.221,0.476 -0.389,0.672 -0.168,0.195 -0.37,0.361 -0.609,0.496 -0.241,0.138 -0.51,0.239 -0.81,0.306l0 0.024c0.116,0.047 0.219,0.11 0.314,0.184 0.095,0.075 0.186,0.166 0.275,0.274 0.089,0.105 0.176,0.228 0.263,0.366 0.087,0.14 0.178,0.298 0.272,0.476l1.426 2.635 -0.923 0zm-3.837 -7.772l0 3.351 1.409 0c0.285,0 0.544,-0.04 0.781,-0.123 0.237,-0.083 0.439,-0.202 0.607,-0.356 0.168,-0.152 0.298,-0.338 0.391,-0.555 0.093,-0.216 0.139,-0.461 0.139,-0.733 0,-0.493 -0.157,-0.88 -0.475,-1.161 -0.318,-0.282 -0.777,-0.423 -1.379,-0.423l-1.473 0z"/>
  <path id="_11" class="fil1" d="M71.157 10.777c0.004,0.373 0.053,0.707 0.148,1.004 0.095,0.296 0.231,0.549 0.409,0.753 0.178,0.207 0.395,0.365 0.65,0.472 0.255,0.109 0.542,0.164 0.862,0.164 0.684,0 1.33,-0.239 1.939,-0.719l0 0.751c-0.581,0.415 -1.285,0.624 -2.111,0.624 -0.407,0 -0.777,-0.071 -1.109,-0.215 -0.332,-0.142 -0.614,-0.348 -0.848,-0.619 -0.233,-0.271 -0.413,-0.605 -0.539,-1 -0.127,-0.397 -0.19,-0.848 -0.19,-1.354 0,-0.456 0.069,-0.877 0.207,-1.265 0.139,-0.387 0.329,-0.723 0.574,-1.006 0.247,-0.283 0.537,-0.504 0.873,-0.664 0.336,-0.16 0.702,-0.241 1.101,-0.241 0.392,0 0.737,0.069 1.038,0.205 0.3,0.137 0.553,0.332 0.755,0.585 0.204,0.253 0.358,0.56 0.466,0.925 0.107,0.364 0.16,0.771 0.16,1.22l0 0.38 -4.385 0zm3.607 -0.667c-0.012,-0.632 -0.162,-1.122 -0.451,-1.47 -0.29,-0.348 -0.692,-0.522 -1.206,-0.522 -0.257,0 -0.496,0.044 -0.717,0.135 -0.219,0.092 -0.413,0.223 -0.579,0.395 -0.166,0.172 -0.303,0.383 -0.413,0.63 -0.109,0.247 -0.184,0.524 -0.228,0.832l3.594 0z"/>
  <path id="_12" class="fil1" d="M76.703 12.589c0.116,0.091 0.239,0.172 0.373,0.243 0.133,0.071 0.273,0.131 0.415,0.184 0.141,0.051 0.283,0.089 0.429,0.115 0.143,0.027 0.279,0.039 0.411,0.039 0.898,0 1.348,-0.338 1.348,-1.012 0,-0.154 -0.033,-0.288 -0.096,-0.401 -0.062,-0.113 -0.153,-0.216 -0.271,-0.31 -0.119,-0.093 -0.261,-0.178 -0.427,-0.257 -0.166,-0.079 -0.354,-0.161 -0.563,-0.249 -0.281,-0.115 -0.522,-0.232 -0.724,-0.35 -0.2,-0.119 -0.366,-0.249 -0.498,-0.388 -0.13,-0.142 -0.227,-0.296 -0.289,-0.464 -0.063,-0.168 -0.096,-0.36 -0.096,-0.573 0,-0.269 0.059,-0.51 0.174,-0.718 0.118,-0.211 0.274,-0.389 0.47,-0.535 0.198,-0.145 0.425,-0.259 0.682,-0.335 0.259,-0.077 0.53,-0.116 0.814,-0.116 0.524,0 0.979,0.099 1.37,0.296l0 0.799c-0.453,-0.293 -0.943,-0.439 -1.467,-0.439 -0.189,0 -0.361,0.024 -0.517,0.071 -0.155,0.048 -0.289,0.115 -0.4,0.202 -0.11,0.087 -0.197,0.192 -0.257,0.314 -0.061,0.121 -0.091,0.255 -0.091,0.401 0,0.151 0.024,0.283 0.07,0.394 0.049,0.114 0.122,0.217 0.223,0.308 0.101,0.089 0.231,0.176 0.391,0.261 0.16,0.083 0.354,0.172 0.585,0.267 0.291,0.118 0.544,0.235 0.757,0.352 0.214,0.118 0.39,0.243 0.528,0.381 0.138,0.136 0.241,0.287 0.308,0.457 0.066,0.168 0.101,0.363 0.101,0.583 0,0.274 -0.057,0.519 -0.168,0.731 -0.114,0.215 -0.269,0.395 -0.468,0.54 -0.198,0.146 -0.433,0.257 -0.7,0.332 -0.267,0.075 -0.559,0.114 -0.874,0.114 -0.612,0 -1.126,-0.13 -1.543,-0.387l0 -0.85z"/>
  <path id="_13" class="fil1" d="M82.33 10.777c0.004,0.373 0.053,0.707 0.148,1.004 0.095,0.296 0.23,0.549 0.409,0.753 0.178,0.207 0.394,0.365 0.649,0.472 0.255,0.109 0.543,0.164 0.863,0.164 0.684,0 1.329,-0.239 1.939,-0.719l0 0.751c-0.581,0.415 -1.286,0.624 -2.111,0.624 -0.407,0 -0.778,-0.071 -1.11,-0.215 -0.332,-0.142 -0.613,-0.348 -0.848,-0.619 -0.232,-0.271 -0.413,-0.605 -0.538,-1 -0.128,-0.397 -0.19,-0.848 -0.19,-1.354 0,-0.456 0.068,-0.877 0.206,-1.265 0.14,-0.387 0.33,-0.723 0.575,-1.006 0.247,-0.283 0.536,-0.504 0.872,-0.664 0.336,-0.16 0.703,-0.241 1.101,-0.241 0.393,0 0.737,0.069 1.039,0.205 0.299,0.137 0.552,0.332 0.755,0.585 0.204,0.253 0.358,0.56 0.465,0.925 0.108,0.364 0.16,0.771 0.16,1.22l0 0.38 -4.384 0zm3.607 -0.667c-0.012,-0.632 -0.162,-1.122 -0.452,-1.47 -0.289,-0.348 -0.692,-0.522 -1.206,-0.522 -0.257,0 -0.496,0.044 -0.716,0.135 -0.219,0.092 -0.413,0.223 -0.579,0.395 -0.166,0.172 -0.304,0.383 -0.413,0.63 -0.109,0.247 -0.184,0.524 -0.229,0.832l3.595 0z"/>
  <path id="_14" class="fil1" d="M91.713 13.68l0 -1.081 -0.024 0c-0.196,0.389 -0.467,0.69 -0.809,0.905 -0.342,0.214 -0.729,0.322 -1.16,0.322 -0.294,0 -0.557,-0.043 -0.792,-0.126 -0.236,-0.083 -0.435,-0.2 -0.599,-0.352 -0.166,-0.154 -0.291,-0.336 -0.38,-0.551 -0.089,-0.214 -0.134,-0.449 -0.134,-0.708 0,-0.55 0.17,-0.99 0.51,-1.316 0.34,-0.327 0.854,-0.54 1.543,-0.639l1.845 -0.267c0,-1.166 -0.453,-1.749 -1.362,-1.749 -0.71,0 -1.37,0.259 -1.977,0.777l0 -0.83c0.127,-0.089 0.271,-0.172 0.431,-0.245 0.162,-0.073 0.332,-0.135 0.51,-0.19 0.178,-0.052 0.362,-0.093 0.551,-0.123 0.19,-0.031 0.372,-0.045 0.552,-0.045 0.678,0 1.192,0.19 1.538,0.569 0.348,0.38 0.523,0.945 0.523,1.698l0 3.951 -0.766 0zm-1.568 -2.949c-0.275,0.038 -0.508,0.087 -0.702,0.148 -0.195,0.058 -0.355,0.139 -0.482,0.241 -0.128,0.101 -0.221,0.224 -0.28,0.372 -0.058,0.15 -0.089,0.332 -0.089,0.551 0,0.161 0.029,0.311 0.088,0.451 0.056,0.138 0.139,0.257 0.248,0.358 0.11,0.101 0.241,0.18 0.399,0.235 0.156,0.055 0.334,0.083 0.533,0.083 0.269,0 0.516,-0.051 0.742,-0.154 0.225,-0.103 0.421,-0.247 0.585,-0.427 0.164,-0.182 0.294,-0.401 0.387,-0.654 0.093,-0.253 0.139,-0.528 0.139,-0.826l0 -0.599 -1.568 0.221z"/>
  <path id="_15" class="fil1" d="M97.312 8.387c-0.178,-0.131 -0.407,-0.196 -0.688,-0.196 -0.201,0 -0.379,0.038 -0.533,0.115 -0.155,0.077 -0.289,0.18 -0.406,0.312 -0.118,0.129 -0.215,0.281 -0.296,0.453 -0.083,0.172 -0.148,0.35 -0.196,0.537 -0.051,0.186 -0.085,0.374 -0.108,0.562 -0.022,0.191 -0.032,0.371 -0.032,0.541l0 2.969 -0.753 0 0 -6.072 0.753 0 0 1.301 0.024 0c0.071,-0.22 0.16,-0.421 0.27,-0.595 0.109,-0.176 0.234,-0.326 0.376,-0.445 0.142,-0.122 0.298,-0.213 0.466,-0.275 0.168,-0.063 0.344,-0.095 0.53,-0.095 0.123,0 0.233,0.008 0.33,0.024 0.095,0.014 0.184,0.038 0.263,0.071l0 0.793z"/>
  <path id="_16" class="fil1" d="M102.293 13.405c-0.451,0.273 -0.996,0.413 -1.637,0.421 -0.436,0.004 -0.828,-0.071 -1.176,-0.225 -0.348,-0.156 -0.644,-0.37 -0.891,-0.644 -0.245,-0.275 -0.433,-0.599 -0.563,-0.973 -0.131,-0.373 -0.196,-0.779 -0.196,-1.219 0,-0.455 0.069,-0.882 0.209,-1.283 0.137,-0.403 0.34,-0.751 0.605,-1.05 0.265,-0.298 0.589,-0.535 0.973,-0.709 0.383,-0.174 0.822,-0.261 1.318,-0.261 0.502,0 0.961,0.097 1.376,0.292l0 0.805c-0.443,-0.293 -0.923,-0.441 -1.439,-0.441 -0.36,0 -0.682,0.069 -0.963,0.204 -0.282,0.138 -0.518,0.324 -0.711,0.559 -0.192,0.235 -0.338,0.51 -0.439,0.826 -0.101,0.313 -0.152,0.647 -0.152,1 0,0.323 0.043,0.635 0.128,0.931 0.085,0.297 0.216,0.558 0.393,0.787 0.176,0.227 0.398,0.409 0.667,0.543 0.272,0.135 0.587,0.202 0.954,0.202 0.571,0 1.085,-0.17 1.544,-0.512l0 0.747z"/>
  <path id="_17" class="fil1" d="M107.845 13.68l0 -3.575c0,-0.68 -0.122,-1.181 -0.366,-1.503 -0.245,-0.322 -0.626,-0.484 -1.142,-0.484 -0.243,0 -0.476,0.048 -0.696,0.148 -0.221,0.099 -0.415,0.243 -0.579,0.427 -0.166,0.186 -0.298,0.413 -0.397,0.68 -0.099,0.267 -0.148,0.569 -0.148,0.907l0 3.4 -0.765 0 0 -8.987 0.765 0 0 3.961 0.025 0c0.473,-0.795 1.151,-1.192 2.036,-1.192 0.676,0 1.184,0.209 1.522,0.624 0.34,0.414 0.51,1.028 0.51,1.837l0 3.757 -0.765 0z"/>
  <path id="_18" class="fil1" d="M116.812 13.089c-0.875,0.492 -1.802,0.737 -2.78,0.737 -0.617,0 -1.171,-0.106 -1.663,-0.318 -0.49,-0.211 -0.909,-0.506 -1.253,-0.883 -0.344,-0.378 -0.609,-0.827 -0.794,-1.352 -0.184,-0.524 -0.275,-1.099 -0.275,-1.728 0,-0.415 0.045,-0.814 0.134,-1.198 0.089,-0.383 0.22,-0.743 0.392,-1.079 0.172,-0.336 0.383,-0.64 0.632,-0.913 0.251,-0.273 0.536,-0.508 0.858,-0.704 0.324,-0.199 0.68,-0.351 1.067,-0.458 0.388,-0.107 0.807,-0.16 1.255,-0.16 0.842,0 1.595,0.15 2.257,0.45l0 0.87c-0.729,-0.403 -1.512,-0.603 -2.352,-0.603 -0.521,0 -0.988,0.095 -1.409,0.285 -0.419,0.188 -0.777,0.45 -1.073,0.781 -0.293,0.332 -0.522,0.725 -0.686,1.178 -0.162,0.454 -0.245,0.944 -0.249,1.474 -0.004,0.526 0.065,1.012 0.204,1.455 0.142,0.446 0.351,0.83 0.628,1.154 0.277,0.324 0.619,0.577 1.026,0.759 0.409,0.182 0.881,0.273 1.415,0.273 0.72,0 1.346,-0.15 1.876,-0.451l0 -2.597 -1.931 0 0 -0.717 2.721 0 0 3.745z"/>
  <path id="_19" class="fil1" d="M122.626 13.68l0 -1.028 -0.024 0c-0.411,0.783 -1.048,1.174 -1.915,1.174 -1.443,0 -2.165,-0.883 -2.165,-2.646l0 -3.572 0.765 0 0 3.427c0,0.728 0.129,1.265 0.388,1.613 0.258,0.348 0.654,0.522 1.187,0.522 0.261,0 0.497,-0.051 0.714,-0.152 0.215,-0.101 0.401,-0.243 0.557,-0.427 0.155,-0.182 0.277,-0.403 0.364,-0.66 0.087,-0.257 0.129,-0.542 0.129,-0.854l0 -3.469 0.766 0 0 6.072 -0.766 0z"/>
  <path id="_20" class="fil1" d="M125.721 6.078c-0.147,0 -0.273,-0.051 -0.38,-0.154 -0.11,-0.103 -0.162,-0.235 -0.162,-0.393 0,-0.154 0.052,-0.281 0.162,-0.382 0.107,-0.102 0.233,-0.152 0.38,-0.152 0.075,0 0.148,0.012 0.215,0.038 0.069,0.027 0.125,0.063 0.176,0.11 0.051,0.048 0.089,0.105 0.119,0.17 0.031,0.064 0.045,0.137 0.045,0.216 0,0.075 -0.014,0.146 -0.043,0.215 -0.026,0.067 -0.066,0.125 -0.119,0.174 -0.051,0.05 -0.109,0.089 -0.174,0.115 -0.067,0.028 -0.14,0.043 -0.219,0.043zm-0.376 7.602l0 -6.072 0.765 0 0 6.072 -0.765 0z"/>
  <path id="_21" class="fil1" d="M132.312 13.68l0 -1.065 -0.025 0c-0.2,0.383 -0.489,0.682 -0.862,0.893 -0.374,0.212 -0.799,0.318 -1.273,0.318 -0.381,0 -0.725,-0.071 -1.036,-0.211 -0.31,-0.141 -0.577,-0.344 -0.798,-0.609 -0.221,-0.265 -0.393,-0.585 -0.514,-0.961 -0.119,-0.377 -0.18,-0.802 -0.18,-1.276 0,-0.491 0.067,-0.939 0.198,-1.346 0.134,-0.404 0.322,-0.752 0.565,-1.044 0.243,-0.292 0.536,-0.516 0.878,-0.676 0.342,-0.16 0.723,-0.241 1.142,-0.241 0.874,0 1.502,0.35 1.88,1.051l0.025 0 0 -3.82 0.765 0 0 8.987 -0.765 0zm0 -3.668c0,-0.265 -0.047,-0.514 -0.138,-0.742 -0.091,-0.229 -0.217,-0.43 -0.379,-0.599 -0.163,-0.171 -0.358,-0.306 -0.587,-0.405 -0.226,-0.1 -0.477,-0.148 -0.75,-0.148 -0.302,0 -0.579,0.059 -0.832,0.178 -0.253,0.119 -0.472,0.289 -0.652,0.514 -0.18,0.223 -0.32,0.496 -0.421,0.816 -0.101,0.32 -0.152,0.684 -0.152,1.093 0,0.382 0.047,0.726 0.138,1.032 0.091,0.306 0.22,0.563 0.388,0.771 0.168,0.211 0.369,0.371 0.604,0.482 0.232,0.111 0.493,0.166 0.777,0.166 0.309,0 0.589,-0.055 0.836,-0.166 0.247,-0.111 0.457,-0.263 0.629,-0.457 0.172,-0.195 0.306,-0.421 0.399,-0.683 0.093,-0.261 0.14,-0.54 0.14,-0.838l0 -1.014z"/>
  <path id="_22" class="fil1" d="M135.386 10.777c0.004,0.373 0.053,0.707 0.148,1.004 0.095,0.296 0.23,0.549 0.409,0.753 0.178,0.207 0.394,0.365 0.649,0.472 0.255,0.109 0.543,0.164 0.863,0.164 0.684,0 1.329,-0.239 1.939,-0.719l0 0.751c-0.581,0.415 -1.286,0.624 -2.111,0.624 -0.407,0 -0.778,-0.071 -1.11,-0.215 -0.332,-0.142 -0.613,-0.348 -0.848,-0.619 -0.233,-0.271 -0.413,-0.605 -0.538,-1 -0.128,-0.397 -0.19,-0.848 -0.19,-1.354 0,-0.456 0.068,-0.877 0.206,-1.265 0.14,-0.387 0.33,-0.723 0.575,-1.006 0.247,-0.283 0.536,-0.504 0.872,-0.664 0.336,-0.16 0.703,-0.241 1.101,-0.241 0.393,0 0.737,0.069 1.039,0.205 0.299,0.137 0.552,0.332 0.755,0.585 0.204,0.253 0.358,0.56 0.465,0.925 0.107,0.364 0.16,0.771 0.16,1.22l0 0.38 -4.384 0zm3.607 -0.667c-0.012,-0.632 -0.162,-1.122 -0.452,-1.47 -0.289,-0.348 -0.692,-0.522 -1.206,-0.522 -0.257,0 -0.496,0.044 -0.716,0.135 -0.219,0.092 -0.413,0.223 -0.579,0.395 -0.166,0.172 -0.304,0.383 -0.413,0.63 -0.109,0.247 -0.184,0.524 -0.229,0.832l3.595 0z"/>
  <g>
   <path id="_23" class="fil2 str1" d="M13.315 13.68l-1.28 -2.439c-0.127,-0.243 -0.249,-0.443 -0.368,-0.605 -0.117,-0.164 -0.241,-0.294 -0.366,-0.391 -0.126,-0.095 -0.261,-0.166 -0.405,-0.206 -0.146,-0.043 -0.306,-0.063 -0.484,-0.063l-0.935 0 0 3.704 -0.789 0 0 -8.501 2.447 0c0.319,0 0.629,0.047 0.929,0.142 0.297,0.095 0.562,0.234 0.795,0.421 0.233,0.186 0.421,0.419 0.561,0.698 0.14,0.281 0.21,0.607 0.21,0.978 0,0.299 -0.044,0.576 -0.135,0.829 -0.091,0.251 -0.221,0.476 -0.389,0.672 -0.168,0.195 -0.37,0.361 -0.609,0.496 -0.241,0.138 -0.51,0.239 -0.81,0.306l0 0.024c0.116,0.047 0.219,0.11 0.314,0.184 0.095,0.075 0.186,0.166 0.275,0.274 0.089,0.105 0.176,0.228 0.263,0.366 0.087,0.14 0.178,0.298 0.272,0.476l1.427 2.635 -0.923 0zm-3.838 -7.772l0 3.351 1.409 0c0.285,0 0.544,-0.04 0.781,-0.123 0.237,-0.083 0.439,-0.202 0.607,-0.356 0.168,-0.152 0.298,-0.338 0.391,-0.555 0.093,-0.216 0.139,-0.461 0.139,-0.733 0,-0.493 -0.157,-0.88 -0.475,-1.161 -0.318,-0.282 -0.777,-0.423 -1.379,-0.423l-1.473 0z"/>
  </g>
  <g>
   <path id="_24" class="fil2 str1" d="M15.92 13.801c-0.158,0 -0.294,-0.054 -0.403,-0.166 -0.112,-0.109 -0.166,-0.244 -0.166,-0.402 0,-0.16 0.054,-0.298 0.162,-0.407 0.109,-0.111 0.245,-0.166 0.407,-0.166 0.079,0 0.151,0.014 0.22,0.044 0.069,0.031 0.13,0.069 0.18,0.118 0.053,0.05 0.093,0.109 0.126,0.18 0.03,0.073 0.046,0.15 0.046,0.231 0,0.079 -0.016,0.154 -0.046,0.222 -0.033,0.069 -0.073,0.13 -0.126,0.18 -0.05,0.051 -0.111,0.092 -0.18,0.122 -0.069,0.03 -0.141,0.044 -0.22,0.044z"/>
  </g>
  <g>
   <polygon id="_25" class="fil2 str1" points="20.781,5.908 20.781,13.68 19.992,13.68 19.992,5.908 17.539,5.908 17.539,5.179 23.234,5.179 23.234,5.908 "/>
  </g>
  <g>
   <path id="_26" class="fil2 str1" d="M23.617 10.777c0.004,0.373 0.052,0.707 0.148,1.004 0.095,0.296 0.23,0.549 0.408,0.753 0.179,0.207 0.395,0.365 0.65,0.472 0.255,0.109 0.543,0.164 0.862,0.164 0.685,0 1.33,-0.239 1.939,-0.719l0 0.751c-0.58,0.415 -1.285,0.624 -2.111,0.624 -0.406,0 -0.777,-0.071 -1.109,-0.215 -0.332,-0.142 -0.613,-0.348 -0.848,-0.619 -0.233,-0.271 -0.413,-0.605 -0.538,-1 -0.128,-0.397 -0.191,-0.848 -0.191,-1.354 0,-0.456 0.069,-0.877 0.207,-1.265 0.14,-0.387 0.33,-0.723 0.575,-1.006 0.247,-0.283 0.536,-0.504 0.872,-0.664 0.336,-0.16 0.702,-0.241 1.101,-0.241 0.393,0 0.737,0.069 1.038,0.205 0.3,0.137 0.553,0.332 0.756,0.585 0.204,0.253 0.358,0.56 0.465,0.925 0.107,0.364 0.16,0.771 0.16,1.22l0 0.38 -4.384 0zm3.607 -0.667c-0.012,-0.632 -0.162,-1.122 -0.452,-1.47 -0.289,-0.348 -0.692,-0.522 -1.206,-0.522 -0.257,0 -0.496,0.044 -0.717,0.135 -0.218,0.092 -0.412,0.223 -0.578,0.395 -0.166,0.172 -0.304,0.383 -0.413,0.63 -0.11,0.247 -0.184,0.524 -0.229,0.832l3.595 0z"/>
  </g>
  <g>
   <path id="_27" class="fil2 str1" d="M33 13.68l0 -1.081 -0.024 0c-0.196,0.389 -0.468,0.69 -0.81,0.905 -0.342,0.214 -0.728,0.322 -1.159,0.322 -0.294,0 -0.557,-0.043 -0.792,-0.126 -0.237,-0.083 -0.435,-0.2 -0.599,-0.352 -0.166,-0.154 -0.291,-0.336 -0.38,-0.551 -0.089,-0.214 -0.134,-0.449 -0.134,-0.708 0,-0.55 0.17,-0.99 0.51,-1.316 0.34,-0.327 0.854,-0.54 1.542,-0.639l1.846 -0.267c0,-1.166 -0.453,-1.749 -1.362,-1.749 -0.71,0 -1.37,0.259 -1.977,0.777l0 -0.83c0.127,-0.089 0.271,-0.172 0.431,-0.245 0.162,-0.073 0.332,-0.135 0.51,-0.19 0.178,-0.052 0.362,-0.093 0.55,-0.123 0.191,-0.031 0.373,-0.045 0.553,-0.045 0.678,0 1.192,0.19 1.538,0.569 0.348,0.38 0.522,0.945 0.522,1.698l0 3.951 -0.765 0zm-1.568 -2.949c-0.276,0.038 -0.508,0.087 -0.703,0.148 -0.194,0.058 -0.354,0.139 -0.481,0.241 -0.128,0.101 -0.221,0.224 -0.28,0.372 -0.058,0.15 -0.089,0.332 -0.089,0.551 0,0.161 0.029,0.311 0.087,0.451 0.057,0.138 0.14,0.257 0.249,0.358 0.11,0.101 0.241,0.18 0.399,0.235 0.156,0.055 0.334,0.083 0.532,0.083 0.269,0 0.516,-0.051 0.743,-0.154 0.225,-0.103 0.421,-0.247 0.585,-0.427 0.164,-0.182 0.293,-0.401 0.387,-0.654 0.093,-0.253 0.139,-0.528 0.139,-0.826l0 -0.599 -1.568 0.221z"/>
  </g>
  <g>
   <path id="_28" class="fil2 str1" d="M39.625 13.405c-0.451,0.273 -0.996,0.413 -1.638,0.421 -0.435,0.004 -0.827,-0.071 -1.175,-0.225 -0.349,-0.156 -0.644,-0.37 -0.891,-0.644 -0.245,-0.275 -0.433,-0.599 -0.563,-0.973 -0.131,-0.373 -0.196,-0.779 -0.196,-1.219 0,-0.455 0.069,-0.882 0.208,-1.283 0.138,-0.403 0.34,-0.751 0.606,-1.05 0.265,-0.298 0.589,-0.535 0.973,-0.709 0.383,-0.174 0.822,-0.261 1.318,-0.261 0.502,0 0.961,0.097 1.376,0.292l0 0.805c-0.443,-0.293 -0.923,-0.441 -1.439,-0.441 -0.36,0 -0.682,0.069 -0.963,0.204 -0.282,0.138 -0.519,0.324 -0.711,0.559 -0.192,0.235 -0.338,0.51 -0.439,0.826 -0.101,0.313 -0.152,0.647 -0.152,1 0,0.323 0.043,0.635 0.128,0.931 0.085,0.297 0.216,0.558 0.392,0.787 0.176,0.227 0.399,0.409 0.668,0.543 0.271,0.135 0.587,0.202 0.954,0.202 0.57,0 1.084,-0.17 1.544,-0.512l0 0.747z"/>
  </g>
  <g>
   <path id="_29" class="fil2 str1" d="M45.177 13.68l0 -3.575c0,-0.68 -0.122,-1.181 -0.366,-1.503 -0.245,-0.322 -0.626,-0.484 -1.142,-0.484 -0.243,0 -0.476,0.048 -0.696,0.148 -0.221,0.099 -0.415,0.243 -0.579,0.427 -0.166,0.186 -0.298,0.413 -0.397,0.68 -0.099,0.267 -0.148,0.569 -0.148,0.907l0 3.4 -0.765 0 0 -8.987 0.765 0 0 3.961 0.025 0c0.473,-0.795 1.151,-1.192 2.036,-1.192 0.676,0 1.184,0.209 1.522,0.624 0.34,0.414 0.51,1.028 0.51,1.837l0 3.757 -0.765 0z"/>
  </g>
  <g>
   <path id="_30" class="fil2 str1" d="M48.144 6.078c-0.148,0 -0.273,-0.051 -0.38,-0.154 -0.11,-0.103 -0.162,-0.235 -0.162,-0.393 0,-0.154 0.052,-0.281 0.162,-0.382 0.107,-0.102 0.232,-0.152 0.38,-0.152 0.075,0 0.148,0.012 0.215,0.038 0.068,0.027 0.125,0.063 0.176,0.11 0.05,0.048 0.089,0.105 0.119,0.17 0.031,0.064 0.045,0.137 0.045,0.216 0,0.075 -0.014,0.146 -0.043,0.215 -0.026,0.067 -0.067,0.125 -0.119,0.174 -0.051,0.05 -0.11,0.089 -0.174,0.115 -0.067,0.028 -0.14,0.043 -0.219,0.043zm-0.376 7.602l0 -6.072 0.765 0 0 6.072 -0.765 0z"/>
  </g>
  <g>
   <path id="_31" class="fil2 str1" d="M54.577 13.68l0 -3.502c0,-1.374 -0.496,-2.06 -1.49,-2.06 -0.263,0 -0.508,0.053 -0.733,0.158 -0.225,0.105 -0.419,0.249 -0.583,0.435 -0.162,0.186 -0.291,0.407 -0.382,0.662 -0.093,0.255 -0.14,0.532 -0.14,0.828l0 3.479 -0.765 0 0 -6.072 0.765 0 0 1.052 0.024 0c0.45,-0.799 1.128,-1.198 2.03,-1.198 0.664,0 1.17,0.215 1.518,0.646 0.347,0.431 0.521,1.054 0.521,1.87l0 3.702 -0.765 0z"/>
  </g>
  <g>
   <path id="_32" class="fil2 str1" d="M62.183 13.212c0,1.128 -0.257,1.964 -0.771,2.506 -0.514,0.545 -1.306,0.816 -2.376,0.816 -0.666,0 -1.298,-0.148 -1.893,-0.443l0 -0.772c0.662,0.365 1.291,0.547 1.89,0.547 1.589,0 2.385,-0.838 2.385,-2.512l0 -0.726 -0.024 0c-0.466,0.799 -1.178,1.198 -2.136,1.198 -0.376,0 -0.718,-0.069 -1.03,-0.209 -0.31,-0.137 -0.577,-0.338 -0.797,-0.599 -0.221,-0.261 -0.395,-0.579 -0.517,-0.953 -0.123,-0.373 -0.184,-0.796 -0.184,-1.267 0,-0.498 0.065,-0.952 0.197,-1.362 0.129,-0.409 0.315,-0.762 0.556,-1.053 0.243,-0.293 0.534,-0.52 0.877,-0.68 0.342,-0.16 0.726,-0.241 1.153,-0.241 0.858,0 1.486,0.348 1.881,1.044l0.024 0 0 -0.898 0.765 0 0 5.604zm-0.765 -3.224c0,-0.253 -0.047,-0.494 -0.138,-0.718 -0.091,-0.225 -0.216,-0.423 -0.378,-0.593 -0.164,-0.171 -0.357,-0.306 -0.581,-0.407 -0.223,-0.102 -0.47,-0.152 -0.739,-0.152 -0.318,0 -0.603,0.061 -0.86,0.184 -0.255,0.124 -0.472,0.298 -0.652,0.522 -0.182,0.225 -0.32,0.5 -0.417,0.822 -0.097,0.324 -0.146,0.686 -0.146,1.089 0,0.372 0.047,0.708 0.138,1.01 0.091,0.302 0.219,0.557 0.385,0.765 0.168,0.211 0.368,0.372 0.603,0.488 0.237,0.115 0.5,0.172 0.787,0.172 0.302,0 0.575,-0.055 0.822,-0.164 0.245,-0.107 0.455,-0.259 0.629,-0.451 0.174,-0.191 0.31,-0.417 0.405,-0.676 0.095,-0.259 0.142,-0.539 0.142,-0.84l0 -1.051z"/>
  </g>
  <g>
   <path id="_33" class="fil2 str1" d="M68.888 13.68l-1.279 -2.439c-0.127,-0.243 -0.249,-0.443 -0.368,-0.605 -0.117,-0.164 -0.241,-0.294 -0.366,-0.391 -0.126,-0.095 -0.262,-0.166 -0.405,-0.206 -0.146,-0.043 -0.306,-0.063 -0.484,-0.063l-0.935 0 0 3.704 -0.789 0 0 -8.501 2.447 0c0.319,0 0.629,0.047 0.929,0.142 0.297,0.095 0.562,0.234 0.795,0.421 0.233,0.186 0.421,0.419 0.561,0.698 0.139,0.281 0.21,0.607 0.21,0.978 0,0.299 -0.044,0.576 -0.135,0.829 -0.091,0.251 -0.221,0.476 -0.389,0.672 -0.168,0.195 -0.37,0.361 -0.609,0.496 -0.241,0.138 -0.51,0.239 -0.81,0.306l0 0.024c0.116,0.047 0.219,0.11 0.314,0.184 0.095,0.075 0.186,0.166 0.275,0.274 0.089,0.105 0.176,0.228 0.263,0.366 0.087,0.14 0.178,0.298 0.272,0.476l1.426 2.635 -0.923 0zm-3.837 -7.772l0 3.351 1.409 0c0.285,0 0.544,-0.04 0.781,-0.123 0.237,-0.083 0.439,-0.202 0.607,-0.356 0.168,-0.152 0.298,-0.338 0.391,-0.555 0.093,-0.216 0.139,-0.461 0.139,-0.733 0,-0.493 -0.157,-0.88 -0.475,-1.161 -0.318,-0.282 -0.777,-0.423 -1.379,-0.423l-1.473 0z"/>
  </g>
  <g>
   <path id="_34" class="fil2 str1" d="M71.157 10.777c0.004,0.373 0.053,0.707 0.148,1.004 0.095,0.296 0.231,0.549 0.409,0.753 0.178,0.207 0.395,0.365 0.65,0.472 0.255,0.109 0.542,0.164 0.862,0.164 0.684,0 1.33,-0.239 1.939,-0.719l0 0.751c-0.581,0.415 -1.285,0.624 -2.111,0.624 -0.407,0 -0.777,-0.071 -1.109,-0.215 -0.332,-0.142 -0.614,-0.348 -0.848,-0.619 -0.233,-0.271 -0.413,-0.605 -0.539,-1 -0.127,-0.397 -0.19,-0.848 -0.19,-1.354 0,-0.456 0.069,-0.877 0.207,-1.265 0.139,-0.387 0.329,-0.723 0.574,-1.006 0.247,-0.283 0.537,-0.504 0.873,-0.664 0.336,-0.16 0.702,-0.241 1.101,-0.241 0.392,0 0.737,0.069 1.038,0.205 0.3,0.137 0.553,0.332 0.755,0.585 0.204,0.253 0.358,0.56 0.466,0.925 0.107,0.364 0.16,0.771 0.16,1.22l0 0.38 -4.385 0zm3.607 -0.667c-0.012,-0.632 -0.162,-1.122 -0.451,-1.47 -0.29,-0.348 -0.692,-0.522 -1.206,-0.522 -0.257,0 -0.496,0.044 -0.717,0.135 -0.219,0.092 -0.413,0.223 -0.579,0.395 -0.166,0.172 -0.303,0.383 -0.413,0.63 -0.109,0.247 -0.184,0.524 -0.228,0.832l3.594 0z"/>
  </g>
  <g>
   <path id="_35" class="fil2 str1" d="M76.703 12.589c0.116,0.091 0.239,0.172 0.373,0.243 0.133,0.071 0.273,0.131 0.415,0.184 0.141,0.051 0.283,0.089 0.429,0.115 0.143,0.027 0.279,0.039 0.411,0.039 0.898,0 1.348,-0.338 1.348,-1.012 0,-0.154 -0.033,-0.288 -0.096,-0.401 -0.062,-0.113 -0.153,-0.216 -0.271,-0.31 -0.119,-0.093 -0.261,-0.178 -0.427,-0.257 -0.166,-0.079 -0.354,-0.161 -0.563,-0.249 -0.281,-0.115 -0.522,-0.232 -0.724,-0.35 -0.2,-0.119 -0.366,-0.249 -0.498,-0.388 -0.13,-0.142 -0.227,-0.296 -0.289,-0.464 -0.063,-0.168 -0.096,-0.36 -0.096,-0.573 0,-0.269 0.059,-0.51 0.174,-0.718 0.118,-0.211 0.274,-0.389 0.47,-0.535 0.198,-0.145 0.425,-0.259 0.682,-0.335 0.259,-0.077 0.53,-0.116 0.814,-0.116 0.524,0 0.979,0.099 1.37,0.296l0 0.799c-0.453,-0.293 -0.943,-0.439 -1.467,-0.439 -0.189,0 -0.361,0.024 -0.517,0.071 -0.155,0.048 -0.289,0.115 -0.4,0.202 -0.11,0.087 -0.197,0.192 -0.257,0.314 -0.061,0.121 -0.091,0.255 -0.091,0.401 0,0.151 0.024,0.283 0.07,0.394 0.049,0.114 0.122,0.217 0.223,0.308 0.101,0.089 0.231,0.176 0.391,0.261 0.16,0.083 0.354,0.172 0.585,0.267 0.291,0.118 0.544,0.235 0.757,0.352 0.214,0.118 0.39,0.243 0.528,0.381 0.138,0.136 0.241,0.287 0.308,0.457 0.066,0.168 0.101,0.363 0.101,0.583 0,0.274 -0.057,0.519 -0.168,0.731 -0.114,0.215 -0.269,0.395 -0.468,0.54 -0.198,0.146 -0.433,0.257 -0.7,0.332 -0.267,0.075 -0.559,0.114 -0.874,0.114 -0.612,0 -1.126,-0.13 -1.543,-0.387l0 -0.85z"/>
  </g>
  <g>
   <path id="_36" class="fil2 str1" d="M82.33 10.777c0.004,0.373 0.053,0.707 0.148,1.004 0.095,0.296 0.23,0.549 0.409,0.753 0.178,0.207 0.394,0.365 0.649,0.472 0.255,0.109 0.543,0.164 0.863,0.164 0.684,0 1.329,-0.239 1.939,-0.719l0 0.751c-0.581,0.415 -1.286,0.624 -2.111,0.624 -0.407,0 -0.778,-0.071 -1.11,-0.215 -0.332,-0.142 -0.613,-0.348 -0.848,-0.619 -0.232,-0.271 -0.413,-0.605 -0.538,-1 -0.128,-0.397 -0.19,-0.848 -0.19,-1.354 0,-0.456 0.068,-0.877 0.206,-1.265 0.14,-0.387 0.33,-0.723 0.575,-1.006 0.247,-0.283 0.536,-0.504 0.872,-0.664 0.336,-0.16 0.703,-0.241 1.101,-0.241 0.393,0 0.737,0.069 1.039,0.205 0.299,0.137 0.552,0.332 0.755,0.585 0.204,0.253 0.358,0.56 0.465,0.925 0.108,0.364 0.16,0.771 0.16,1.22l0 0.38 -4.384 0zm3.607 -0.667c-0.012,-0.632 -0.162,-1.122 -0.452,-1.47 -0.289,-0.348 -0.692,-0.522 -1.206,-0.522 -0.257,0 -0.496,0.044 -0.716,0.135 -0.219,0.092 -0.413,0.223 -0.579,0.395 -0.166,0.172 -0.304,0.383 -0.413,0.63 -0.109,0.247 -0.184,0.524 -0.229,0.832l3.595 0z"/>
  </g>
  <g>
   <path id="_37" class="fil2 str1" d="M91.713 13.68l0 -1.081 -0.024 0c-0.196,0.389 -0.467,0.69 -0.809,0.905 -0.342,0.214 -0.729,0.322 -1.16,0.322 -0.294,0 -0.557,-0.043 -0.792,-0.126 -0.236,-0.083 -0.435,-0.2 -0.599,-0.352 -0.166,-0.154 -0.291,-0.336 -0.38,-0.551 -0.089,-0.214 -0.134,-0.449 -0.134,-0.708 0,-0.55 0.17,-0.99 0.51,-1.316 0.34,-0.327 0.854,-0.54 1.543,-0.639l1.845 -0.267c0,-1.166 -0.453,-1.749 -1.362,-1.749 -0.71,0 -1.37,0.259 -1.977,0.777l0 -0.83c0.127,-0.089 0.271,-0.172 0.431,-0.245 0.162,-0.073 0.332,-0.135 0.51,-0.19 0.178,-0.052 0.362,-0.093 0.551,-0.123 0.19,-0.031 0.372,-0.045 0.552,-0.045 0.678,0 1.192,0.19 1.538,0.569 0.348,0.38 0.523,0.945 0.523,1.698l0 3.951 -0.766 0zm-1.568 -2.949c-0.275,0.038 -0.508,0.087 -0.702,0.148 -0.195,0.058 -0.355,0.139 -0.482,0.241 -0.128,0.101 -0.221,0.224 -0.28,0.372 -0.058,0.15 -0.089,0.332 -0.089,0.551 0,0.161 0.029,0.311 0.088,0.451 0.056,0.138 0.139,0.257 0.248,0.358 0.11,0.101 0.241,0.18 0.399,0.235 0.156,0.055 0.334,0.083 0.533,0.083 0.269,0 0.516,-0.051 0.742,-0.154 0.225,-0.103 0.421,-0.247 0.585,-0.427 0.164,-0.182 0.294,-0.401 0.387,-0.654 0.093,-0.253 0.139,-0.528 0.139,-0.826l0 -0.599 -1.568 0.221z"/>
  </g>
  <g>
   <path id="_38" class="fil2 str1" d="M97.312 8.387c-0.178,-0.131 -0.407,-0.196 -0.688,-0.196 -0.201,0 -0.379,0.038 -0.533,0.115 -0.155,0.077 -0.289,0.18 -0.406,0.312 -0.118,0.129 -0.215,0.281 -0.296,0.453 -0.083,0.172 -0.148,0.35 -0.196,0.537 -0.051,0.186 -0.085,0.374 -0.108,0.562 -0.022,0.191 -0.032,0.371 -0.032,0.541l0 2.969 -0.753 0 0 -6.072 0.753 0 0 1.301 0.024 0c0.071,-0.22 0.16,-0.421 0.27,-0.595 0.109,-0.176 0.234,-0.326 0.376,-0.445 0.142,-0.122 0.298,-0.213 0.466,-0.275 0.168,-0.063 0.344,-0.095 0.53,-0.095 0.123,0 0.233,0.008 0.33,0.024 0.095,0.014 0.184,0.038 0.263,0.071l0 0.793z"/>
  </g>
  <g>
   <path id="_39" class="fil2 str1" d="M102.293 13.405c-0.451,0.273 -0.996,0.413 -1.637,0.421 -0.436,0.004 -0.828,-0.071 -1.176,-0.225 -0.348,-0.156 -0.644,-0.37 -0.891,-0.644 -0.245,-0.275 -0.433,-0.599 -0.563,-0.973 -0.131,-0.373 -0.196,-0.779 -0.196,-1.219 0,-0.455 0.069,-0.882 0.209,-1.283 0.137,-0.403 0.34,-0.751 0.605,-1.05 0.265,-0.298 0.589,-0.535 0.973,-0.709 0.383,-0.174 0.822,-0.261 1.318,-0.261 0.502,0 0.961,0.097 1.376,0.292l0 0.805c-0.443,-0.293 -0.923,-0.441 -1.439,-0.441 -0.36,0 -0.682,0.069 -0.963,0.204 -0.282,0.138 -0.518,0.324 -0.711,0.559 -0.192,0.235 -0.338,0.51 -0.439,0.826 -0.101,0.313 -0.152,0.647 -0.152,1 0,0.323 0.043,0.635 0.128,0.931 0.085,0.297 0.216,0.558 0.393,0.787 0.176,0.227 0.398,0.409 0.667,0.543 0.272,0.135 0.587,0.202 0.954,0.202 0.571,0 1.085,-0.17 1.544,-0.512l0 0.747z"/>
  </g>
  <g>
   <path id="_40" class="fil2 str1" d="M107.845 13.68l0 -3.575c0,-0.68 -0.122,-1.181 -0.366,-1.503 -0.245,-0.322 -0.626,-0.484 -1.142,-0.484 -0.243,0 -0.476,0.048 -0.696,0.148 -0.221,0.099 -0.415,0.243 -0.579,0.427 -0.166,0.186 -0.298,0.413 -0.397,0.68 -0.099,0.267 -0.148,0.569 -0.148,0.907l0 3.4 -0.765 0 0 -8.987 0.765 0 0 3.961 0.025 0c0.473,-0.795 1.151,-1.192 2.036,-1.192 0.676,0 1.184,0.209 1.522,0.624 0.34,0.414 0.51,1.028 0.51,1.837l0 3.757 -0.765 0z"/>
  </g>
  <g>
   <path id="_41" class="fil2 str1" d="M116.812 13.089c-0.875,0.492 -1.802,0.737 -2.78,0.737 -0.617,0 -1.171,-0.106 -1.663,-0.318 -0.49,-0.211 -0.909,-0.506 -1.253,-0.883 -0.344,-0.378 -0.609,-0.827 -0.794,-1.352 -0.184,-0.524 -0.275,-1.099 -0.275,-1.728 0,-0.415 0.045,-0.814 0.134,-1.198 0.089,-0.383 0.22,-0.743 0.392,-1.079 0.172,-0.336 0.383,-0.64 0.632,-0.913 0.251,-0.273 0.536,-0.508 0.858,-0.704 0.324,-0.199 0.68,-0.351 1.067,-0.458 0.388,-0.107 0.807,-0.16 1.255,-0.16 0.842,0 1.595,0.15 2.257,0.45l0 0.87c-0.729,-0.403 -1.512,-0.603 -2.352,-0.603 -0.521,0 -0.988,0.095 -1.409,0.285 -0.419,0.188 -0.777,0.45 -1.073,0.781 -0.293,0.332 -0.522,0.725 -0.686,1.178 -0.162,0.454 -0.245,0.944 -0.249,1.474 -0.004,0.526 0.065,1.012 0.204,1.455 0.142,0.446 0.351,0.83 0.628,1.154 0.277,0.324 0.619,0.577 1.026,0.759 0.409,0.182 0.881,0.273 1.415,0.273 0.72,0 1.346,-0.15 1.876,-0.451l0 -2.597 -1.931 0 0 -0.717 2.721 0 0 3.745z"/>
  </g>
  <g>
   <path id="_42" class="fil2 str1" d="M122.626 13.68l0 -1.028 -0.024 0c-0.411,0.783 -1.048,1.174 -1.915,1.174 -1.443,0 -2.165,-0.883 -2.165,-2.646l0 -3.572 0.765 0 0 3.427c0,0.728 0.129,1.265 0.388,1.613 0.258,0.348 0.654,0.522 1.187,0.522 0.261,0 0.497,-0.051 0.714,-0.152 0.215,-0.101 0.401,-0.243 0.557,-0.427 0.155,-0.182 0.277,-0.403 0.364,-0.66 0.087,-0.257 0.129,-0.542 0.129,-0.854l0 -3.469 0.766 0 0 6.072 -0.766 0z"/>
  </g>
  <g>
   <path id="_43" class="fil2 str1" d="M125.721 6.078c-0.147,0 -0.273,-0.051 -0.38,-0.154 -0.11,-0.103 -0.162,-0.235 -0.162,-0.393 0,-0.154 0.052,-0.281 0.162,-0.382 0.107,-0.102 0.233,-0.152 0.38,-0.152 0.075,0 0.148,0.012 0.215,0.038 0.069,0.027 0.125,0.063 0.176,0.11 0.051,0.048 0.089,0.105 0.119,0.17 0.031,0.064 0.045,0.137 0.045,0.216 0,0.075 -0.014,0.146 -0.043,0.215 -0.026,0.067 -0.066,0.125 -0.119,0.174 -0.051,0.05 -0.109,0.089 -0.174,0.115 -0.067,0.028 -0.14,0.043 -0.219,0.043zm-0.376 7.602l0 -6.072 0.765 0 0 6.072 -0.765 0z"/>
  </g>
  <g>
   <path id="_44" class="fil2 str1" d="M132.312 13.68l0 -1.065 -0.025 0c-0.2,0.383 -0.489,0.682 -0.862,0.893 -0.374,0.212 -0.799,0.318 -1.273,0.318 -0.381,0 -0.725,-0.071 -1.036,-0.211 -0.31,-0.141 -0.577,-0.344 -0.798,-0.609 -0.221,-0.265 -0.393,-0.585 -0.514,-0.961 -0.119,-0.377 -0.18,-0.802 -0.18,-1.276 0,-0.491 0.067,-0.939 0.198,-1.346 0.134,-0.404 0.322,-0.752 0.565,-1.044 0.243,-0.292 0.536,-0.516 0.878,-0.676 0.342,-0.16 0.723,-0.241 1.142,-0.241 0.874,0 1.502,0.35 1.88,1.051l0.025 0 0 -3.82 0.765 0 0 8.987 -0.765 0zm0 -3.668c0,-0.265 -0.047,-0.514 -0.138,-0.742 -0.091,-0.229 -0.217,-0.43 -0.379,-0.599 -0.163,-0.171 -0.358,-0.306 -0.587,-0.405 -0.226,-0.1 -0.477,-0.148 -0.75,-0.148 -0.302,0 -0.579,0.059 -0.832,0.178 -0.253,0.119 -0.472,0.289 -0.652,0.514 -0.18,0.223 -0.32,0.496 -0.421,0.816 -0.101,0.32 -0.152,0.684 -0.152,1.093 0,0.382 0.047,0.726 0.138,1.032 0.091,0.306 0.22,0.563 0.388,0.771 0.168,0.211 0.369,0.371 0.604,0.482 0.232,0.111 0.493,0.166 0.777,0.166 0.309,0 0.589,-0.055 0.836,-0.166 0.247,-0.111 0.457,-0.263 0.629,-0.457 0.172,-0.195 0.306,-0.421 0.399,-0.683 0.093,-0.261 0.14,-0.54 0.14,-0.838l0 -1.014z"/>
  </g>
  <g>
   <path id="_45" class="fil2 str1" d="M135.386 10.777c0.004,0.373 0.053,0.707 0.148,1.004 0.095,0.296 0.23,0.549 0.409,0.753 0.178,0.207 0.394,0.365 0.649,0.472 0.255,0.109 0.543,0.164 0.863,0.164 0.684,0 1.329,-0.239 1.939,-0.719l0 0.751c-0.581,0.415 -1.286,0.624 -2.111,0.624 -0.407,0 -0.778,-0.071 -1.11,-0.215 -0.332,-0.142 -0.613,-0.348 -0.848,-0.619 -0.233,-0.271 -0.413,-0.605 -0.538,-1 -0.128,-0.397 -0.19,-0.848 -0.19,-1.354 0,-0.456 0.068,-0.877 0.206,-1.265 0.14,-0.387 0.33,-0.723 0.575,-1.006 0.247,-0.283 0.536,-0.504 0.872,-0.664 0.336,-0.16 0.703,-0.241 1.101,-0.241 0.393,0 0.737,0.069 1.039,0.205 0.299,0.137 0.552,0.332 0.755,0.585 0.204,0.253 0.358,0.56 0.465,0.925 0.107,0.364 0.16,0.771 0.16,1.22l0 0.38 -4.384 0zm3.607 -0.667c-0.012,-0.632 -0.162,-1.122 -0.452,-1.47 -0.289,-0.348 -0.692,-0.522 -1.206,-0.522 -0.257,0 -0.496,0.044 -0.716,0.135 -0.219,0.092 -0.413,0.223 -0.579,0.395 -0.166,0.172 -0.304,0.383 -0.413,0.63 -0.109,0.247 -0.184,0.524 -0.229,0.832l3.595 0z"/>
  </g>
 </g>
</svg>
