<?xml version="1.0" encoding="utf-8"?>
<!-- Generator: Adobe Illustrator 19.0.0, SVG Export Plug-In . SVG Version: 6.00 Build 0)  -->
<svg version="1.1" id="layer" xmlns="http://www.w3.org/2000/svg" xmlns:xlink="http://www.w3.org/1999/xlink" x="0px" y="0px"
	 viewBox="-153 -46 652 652" style="enable-background:new -153 -46 652 652;" xml:space="preserve">
<style type="text/css">
	.st0{fill:#FF6600;}
</style>
<path class="st0" d="M-65,282.2c0-17.6-6.2-25.5-9.6-28.6c-0.6-0.6-1.7-0.1-1.6,0.8c0.6,9.9-11.9,12.4-11.9,27.9l0,0v0.1
	c0,9.5,7.2,17.2,16,17.2s16-7.7,16-17.2v-0.1l0,0c0-4.4-1.7-8.6-3.3-11.8c-0.4-0.6-1.3-0.4-1.2,0.2C-57.5,284.3-65,292.5-65,282.2z
	 M-84.1,319.3c-0.4,0-0.8-0.2-1.1-0.5l-40.9-40.9c-0.6-0.6-0.6-1.6,0-2.2l43.2-43.2c0.3-0.2,0.6-0.4,1-0.4h12.4
	c0.7,0,1.2,0.5,1.4,0.9c0.2,0.5,0.2,1.1-0.4,1.7l-40.5,40.6c-0.8,0.8-0.8,2.1,0,2.9l32.1,32.2c0.6,0.6,0.6,1.6,0,2.2l-6.2,6.2
	C-83.3,319.1-83.7,319.3-84.1,319.3z M-75.9,326.4c-0.7,0-1.2-0.5-1.4-0.9c-0.2-0.5-0.2-1.1,0.4-1.7l40.6-40.6
	c0.4-0.4,0.6-0.9,0.6-1.5c0-0.6-0.2-1.1-0.6-1.5l-32.2-32.2c-0.6-0.6-0.6-1.6,0-2.2l6.2-6.2c0.3-0.3,0.6-0.5,1.1-0.5s0.7,0.3,1,0.6
	l40.8,40.9c0.3,0.3,0.5,0.6,0.5,1.1c0,0.5-0.2,0.8-0.5,1.1l-43.2,43.2c-0.3,0.3-0.6,0.5-1.1,0.5L-75.9,326.4L-75.9,326.4z"/>
<path d="M27.1,261.6c-0.2,0.4-0.5,0.6-0.9,0.6c-0.3,0-0.6-0.2-1.1-0.6s-1.1-0.9-1.8-1.4c-0.8-0.6-1.7-1-2.9-1.4
	c-1.2-0.5-2.7-0.6-4.4-0.6c-1.7,0-3.2,0.3-4.6,0.7c-1.3,0.5-2.4,1.2-3.3,2c-0.9,0.8-1.6,1.8-2,2.9c-0.5,1.1-0.7,2.3-0.7,3.5
	c0,1.7,0.4,2.9,1,4c0.6,1,1.6,1.9,2.8,2.7c1.1,0.7,2.4,1.4,3.9,1.8c1.5,0.6,2.9,1,4.4,1.5c1.5,0.5,2.9,1,4.4,1.7
	c1.5,0.6,2.7,1.4,3.9,2.2c1.2,0.8,2,2,2.8,3.3c0.6,1.3,1,2.9,1,4.9c0,2-0.4,3.9-1,5.6c-0.6,1.7-1.7,3.3-2.9,4.6s-2.9,2.3-4.8,3.1
	c-1.9,0.7-4,1.1-6.4,1.1c-3.1,0-5.9-0.6-8.1-1.7c-2.3-1.1-4.2-2.7-6-4.6L1,296c0.3-0.4,0.6-0.5,0.9-0.5c0.2,0,0.5,0.1,0.7,0.4
	c0.3,0.3,0.7,0.6,1.1,1c0.5,0.4,1,0.8,1.7,1.3s1.4,0.9,2.2,1.3s1.7,0.7,2.8,1c1.1,0.3,2.3,0.4,3.7,0.4c1.9,0,3.6-0.3,5.1-0.8
	c1.5-0.6,2.8-1.4,3.8-2.3c1-0.9,1.8-2.2,2.4-3.5c0.6-1.4,0.8-2.8,0.8-4.3c0-1.7-0.4-3-1-4.1c-0.6-1.1-1.6-2-2.8-2.8
	c-1.1-0.7-2.4-1.4-3.9-1.8c-1.5-0.5-2.9-1-4.4-1.5c-1.5-0.5-2.9-1-4.4-1.6c-1.5-0.6-2.7-1.3-3.9-2.2c-1.1-0.9-2-2-2.8-3.4
	c-0.6-1.4-1-3-1-5.1c0-1.6,0.3-3.1,0.9-4.6s1.5-2.8,2.7-4c1.2-1.1,2.6-2,4.3-2.8c1.7-0.6,3.7-1,5.9-1c2.5,0,4.7,0.4,6.7,1.2
	c1.9,0.8,3.8,2,5.4,3.6L27.1,261.6z M14,304.6c-3.2,0-6.1-0.6-8.4-1.7c-2.3-1.1-4.4-2.8-6.2-4.7l-0.3-0.3l1.2-1.8
	c0.6-0.6,1-0.7,1.4-0.7s0.7,0.2,1.1,0.6c0.3,0.3,0.7,0.6,1.2,1s1,0.8,1.6,1.3c0.6,0.5,1.3,0.8,2.1,1.2c0.8,0.4,1.7,0.7,2.8,0.9
	c1,0.3,2.2,0.4,3.6,0.4c1.8,0,3.5-0.3,4.9-0.8c1.4-0.6,2.6-1.3,3.6-2.2c0.9-0.9,1.7-2,2.2-3.3c0.6-1.3,0.7-2.7,0.7-4.1
	c0-1.6-0.3-2.8-0.9-3.9s-1.5-1.8-2.6-2.6c-1.1-0.7-2.3-1.3-3.7-1.7c-1.4-0.5-2.8-1-4.4-1.5c-1.6-0.5-3-1-4.4-1.6
	c-1.5-0.6-2.8-1.4-4-2.3c-1.2-0.9-2.1-2.2-2.8-3.6c-0.7-1.5-1.1-3.2-1.1-5.3c0-1.7,0.3-3.3,0.9-4.9s1.6-2.9,2.8-4.1s2.8-2.1,4.5-2.8
	s3.9-1.1,6.1-1.1c2.6,0,4.9,0.4,6.9,1.2s3.9,2.1,5.6,3.8l0.3,0.3l-1,1.9c-0.6,1-1.6,1.3-2.8,0.1c-0.5-0.4-1-0.8-1.8-1.3
	c-0.7-0.5-1.7-0.9-2.8-1.4c-1.1-0.4-2.5-0.6-4.2-0.6c-1.7,0-3.1,0.3-4.4,0.7c-1.2,0.5-2.3,1.1-3.1,1.9s-1.5,1.7-1.9,2.8
	s-0.6,2.2-0.6,3.3c0,1.5,0.3,2.8,0.9,3.7c0.6,1,1.5,1.8,2.6,2.6c1.1,0.7,2.3,1.3,3.7,1.8c1.4,0.5,2.8,1,4.4,1.5c1.5,0.5,3,1,4.4,1.7
	c1.5,0.6,2.8,1.4,4,2.3c1.2,0.9,2.1,2.1,2.8,3.5s1.1,3.1,1.1,5.1c0,2-0.4,4-1.1,5.9c-0.7,1.8-1.7,3.4-3.1,4.8c-1.4,1.4-3,2.4-5,3.2
	C18.8,304.1,16.5,304.6,14,304.6z M0.7,297.7c1.6,1.7,3.4,3.1,5.5,4.1c2.2,1.1,4.9,1.7,7.9,1.7c2.3,0,4.4-0.4,6.2-1.1
	c1.8-0.7,3.3-1.7,4.6-2.9c1.2-1.2,2.2-2.8,2.8-4.4c0.6-1.7,1-3.5,1-5.4c0-1.8-0.4-3.4-0.9-4.7c-0.6-1.2-1.5-2.3-2.6-3.1
	c-1.1-0.8-2.3-1.6-3.7-2.2c-1.4-0.6-2.8-1.1-4.3-1.7c-1.5-0.5-2.9-1-4.4-1.5c-1.5-0.6-2.8-1.2-4-1.9c-1.2-0.7-2.1-1.7-2.8-2.8
	c-0.7-1.1-1.1-2.6-1.1-4.3c0-1.3,0.3-2.6,0.7-3.8s1.2-2.3,2.1-3.1c0.9-0.9,2.1-1.7,3.5-2.1c1.4-0.6,3-0.7,4.8-0.7s3.3,0.2,4.6,0.6
	c1.2,0.5,2.3,0.9,3,1.5c0.8,0.6,1.5,1,1.9,1.5c0.6,0.5,0.7,0.5,0.7,0.5c0.1,0,0.3,0,0.4-0.3l0.6-1.2c-1.5-1.4-3.1-2.5-4.9-3.2
	c-1.9-0.7-4-1.1-6.4-1.1c-2.1,0-4,0.4-5.7,1c-1.7,0.6-3,1.6-4.1,2.6c-1.1,1.1-1.9,2.3-2.6,3.8c-0.6,1.4-0.8,2.8-0.8,4.4
	c0,1.9,0.4,3.6,1,4.9c0.6,1.3,1.5,2.4,2.6,3.2s2.3,1.6,3.7,2.1c1.4,0.6,2.8,1.1,4.3,1.6c1.5,0.5,2.9,0.9,4.4,1.5
	c1.5,0.6,2.8,1.1,4,1.9c1.2,0.7,2.2,1.7,2.8,2.9c0.7,1.2,1.1,2.7,1.1,4.5c0,1.7-0.3,3.1-0.8,4.6c-0.6,1.5-1.4,2.7-2.5,3.7
	c-1.1,1-2.4,1.8-4,2.5c-1.6,0.6-3.3,0.9-5.2,0.9c-1.4,0-2.7-0.2-3.9-0.5c-1.1-0.3-2.1-0.6-2.9-1c-0.8-0.4-1.7-0.8-2.3-1.4
	c-0.6-0.5-1.2-0.9-1.7-1.3c-0.5-0.4-0.8-0.7-1.1-1s-0.5-0.3-0.5-0.3c-0.1,0-0.3,0-0.5,0.3L0.7,297.7z M81.8,279.6
	c0,3.7-0.6,7-1.7,10c-1.1,3-2.7,5.6-4.7,7.7c-2,2.1-4.4,3.8-7.2,5c-2.8,1.2-5.9,1.7-9.3,1.7c-3.3,0-6.4-0.6-9.2-1.7
	c-2.8-1.2-5.1-2.8-7.2-5c-2-2.1-3.6-4.7-4.7-7.7c-1.1-3-1.7-6.3-1.7-10c0-3.7,0.6-7,1.7-10c1.1-3,2.7-5.6,4.7-7.7
	c2-2.1,4.4-3.8,7.2-5c2.8-1.2,5.9-1.7,9.2-1.7c3.4,0,6.5,0.6,9.3,1.7c2.8,1.2,5.1,2.8,7.2,5c2,2.1,3.6,4.7,4.7,7.7
	C81.2,272.6,81.8,275.9,81.8,279.6z M78.2,279.6c0-3.3-0.5-6.3-1.4-9s-2.2-4.9-3.9-6.7c-1.7-1.8-3.7-3.2-6.1-4.2
	c-2.4-1-5-1.5-7.8-1.5c-2.8,0-5.4,0.5-7.8,1.5c-2.4,1-4.4,2.4-6.1,4.2c-1.7,1.8-3,4-4,6.7s-1.4,5.6-1.4,9c0,3.3,0.5,6.3,1.4,9
	s2.2,4.9,4,6.7c1.7,1.8,3.7,3.2,6.1,4.2c2.4,1,5,1.5,7.8,1.5c2.8,0,5.5-0.5,7.8-1.5c2.4-0.9,4.4-2.4,6.1-4.2c1.7-1.8,2.9-4,3.9-6.7
	S78.2,283,78.2,279.6z M59.1,304.5c-3.4,0-6.6-0.6-9.4-1.7c-2.8-1.2-5.3-2.8-7.4-5.1c-2-2.2-3.7-4.8-4.8-7.9
	c-1.1-3-1.7-6.5-1.7-10.2c0-3.7,0.6-7.2,1.7-10.2c1.1-3,2.8-5.7,4.8-7.9s4.5-3.9,7.4-5.1c2.8-1.2,6-1.8,9.4-1.8
	c3.5,0,6.6,0.6,9.5,1.7c2.8,1.2,5.3,2.8,7.4,5.1s3.7,4.9,4.8,7.9c1.1,3,1.7,6.4,1.7,10.2s-0.6,7.2-1.7,10.2c-1.1,3-2.8,5.7-4.8,7.9
	c-2,2.2-4.5,3.9-7.4,5.1C65.7,303.9,62.5,304.5,59.1,304.5z M59.1,255.8c-3.2,0-6.2,0.6-9,1.7c-2.7,1.1-5.1,2.8-7,4.8
	c-1.9,2-3.5,4.6-4.5,7.5c-1.1,2.9-1.7,6.2-1.7,9.8c0,3.6,0.6,6.9,1.7,9.8c1.1,2.9,2.6,5.4,4.5,7.5c1.9,2,4.3,3.7,7,4.8
	c2.7,1.1,5.7,1.7,9,1.7c3.3,0,6.3-0.6,9-1.7c2.7-1.1,5.1-2.8,7-4.8c1.9-2,3.5-4.6,4.5-7.4c1.1-2.9,1.7-6.2,1.7-9.8
	c0-3.6-0.6-6.9-1.7-9.8c-1.1-2.9-2.6-5.4-4.5-7.5c-1.9-2-4.3-3.7-7-4.8C65.4,256.3,62.4,255.8,59.1,255.8z M109.1,301
	c2.3,0,4.3-0.4,6.2-1.2c1.8-0.8,3.3-1.9,4.6-3.3c1.3-1.4,2.2-3.1,2.8-5c0.6-1.9,1-4,1-6.2v-29.5h3.4v29.5c0,2.7-0.5,5.1-1.3,7.4
	s-2,4.2-3.6,6c-1.6,1.7-3.5,3-5.7,4c-2.2,0.9-4.8,1.5-7.5,1.5c-2.8,0-5.3-0.5-7.5-1.5s-4.1-2.3-5.7-4c-1.6-1.7-2.8-3.7-3.6-6
	c-0.8-2.3-1.3-4.8-1.3-7.4v-29.5h3.5v29.4c0,2.2,0.4,4.3,1,6.2c0.6,1.9,1.7,3.6,2.8,5c1.3,1.4,2.8,2.5,4.6,3.3
	C104.7,300.6,106.8,301,109.1,301z M109.1,304.6c-2.8,0-5.4-0.5-7.7-1.5c-2.3-1-4.3-2.4-5.9-4.1c-1.6-1.7-2.8-3.9-3.7-6.2
	c-0.8-2.3-1.3-4.9-1.3-7.5v-30h4.6v30c0,2.1,0.4,4.1,0.9,6.1c0.6,1.8,1.6,3.5,2.8,4.8c1.2,1.4,2.7,2.4,4.4,3.2
	c1.7,0.7,3.7,1.2,5.9,1.2c2.2,0,4.2-0.4,5.9-1.1c1.7-0.7,3.2-1.8,4.4-3.2s2.1-2.9,2.8-4.8c0.6-1.8,0.9-3.9,0.9-6.1v-30.1h4.6v30
	c0,2.7-0.5,5.2-1.3,7.5s-2.1,4.4-3.7,6.2c-1.6,1.7-3.6,3.1-5.9,4.1C114.5,304.1,111.9,304.6,109.1,304.6z M91.5,256.3v28.9
	c0,2.6,0.4,5,1.2,7.2c0.8,2.2,1.9,4.1,3.5,5.8c1.5,1.7,3.3,2.9,5.5,3.9c2.1,0.9,4.6,1.4,7.4,1.4c2.7,0,5.1-0.5,7.4-1.4
	c2.1-0.9,4-2.2,5.5-3.9c1.5-1.7,2.7-3.6,3.5-5.8c0.8-2.2,1.2-4.6,1.2-7.2v-28.9h-2.3v28.9c0,2.3-0.4,4.4-1,6.4c-0.6,2-1.7,3.8-3,5.2
	c-1.3,1.5-2.9,2.7-4.8,3.5s-4,1.3-6.3,1.3c-2.4,0-4.5-0.5-6.3-1.3c-1.8-0.8-3.5-2-4.8-3.5c-1.3-1.5-2.3-3.2-2.9-5.2
	c-0.6-1.9-1-4.1-1-6.4v-28.9H91.5z M146.9,279.3c0.9,0,0.8,0,0.8,0h2c2.1,0,4-0.3,5.7-0.7c1.7-0.6,3.1-1.2,4.2-2.2
	c1.2-0.9,2-2.1,2.7-3.4c0.6-1.3,0.9-2.8,0.9-4.5c0-3.4-1.1-5.9-3.3-7.5c-2.2-1.7-5.4-2.5-9.7-2.5h-8.7v20.9v2.6v21.6H138v-47.7h12.1
	c5.5,0,9.6,1.1,12.3,3.2c2.8,2.1,4,5.2,4,9.4c0,1.8-0.3,3.5-0.9,5c-0.6,1.5-1.6,2.8-2.8,4c-1.2,1.1-2.6,2.1-4.2,2.8
	c-1.7,0.7-3.6,1.2-5.6,1.5c0.6,0.4,1,0.8,1.5,1.4l16.4,20.6h-3c-0.4,0-0.6-0.1-0.9-0.2s-0.6-0.4-0.7-0.6L151,283.3
	c-0.4-0.5-0.8-0.8-1.2-1c-0.5-0.2-3.1-0.3-4-0.3C145.8,279.6,146.1,279.3,146.9,279.3z M172.1,304H168c-0.5,0-0.8-0.1-1.2-0.3
	c-0.4-0.2-0.6-0.5-0.9-0.8l-15.3-19.3c-0.4-0.5-0.6-0.7-1-0.9c-0.4-0.1-2.6-0.3-3.8-0.3h-0.6V280c0-0.8,0.2-1.3,1.7-1.3
	c0.8,0,0.9,0,0.9,0h2c2,0,3.9-0.3,5.5-0.7c1.6-0.5,2.9-1.2,4-2.1c1.1-0.9,1.9-1.9,2.5-3.2s0.8-2.7,0.8-4.2c0-3.2-1-5.5-3.1-7.1
	c-2.1-1.6-5.2-2.4-9.4-2.4h-8.2v44.9h-4.6v-48.7h12.8c5.6,0,9.8,1.1,12.7,3.3c2.8,2.2,4.3,5.5,4.3,9.8c0,1.9-0.4,3.7-1,5.2
	s-1.7,2.9-2.8,4.1c-1.2,1.2-2.8,2.1-4.4,2.9c-1.4,0.6-2.8,1-4.5,1.3c0.2,0.2,0.4,0.4,0.6,0.6L172.1,304z M146.3,281.3
	c1,0,3.1,0.1,3.7,0.4s1,0.6,1.5,1.2l15.3,19.3c0.2,0.3,0.4,0.5,0.6,0.6s0.4,0.2,0.6,0.2h1.8L154,283.3c-0.4-0.6-0.8-0.9-1.3-1.2
	l-1.4-0.8l1.7-0.2c2-0.2,3.9-0.6,5.4-1.4c1.6-0.7,2.9-1.6,4.1-2.7c1.1-1.1,2-2.3,2.6-3.8c0.6-1.5,0.9-3,0.9-4.8c0-4-1.3-6.9-3.9-8.9
	c-2.6-2-6.6-3-11.9-3h-11.6v46.4h2.3v-45h9.3c4.3,0,7.7,0.8,10,2.6c2.4,1.7,3.6,4.4,3.6,8c0,1.7-0.4,3.3-0.9,4.7
	c-0.6,1.4-1.6,2.6-2.8,3.6c-1.2,1-2.7,1.7-4.4,2.3c-1.7,0.6-3.7,0.8-5.9,0.8h-2c-0.1,0-0.2,0-0.8,0
	C146.7,279.9,146.4,279.9,146.3,281.3z M211.3,295.4c0.2,0,0.5,0.1,0.6,0.3l1.4,1.5c-1,1-2,2-3.2,2.8c-1.2,0.8-2.5,1.6-3.9,2.1
	c-1.4,0.6-2.9,1-4.5,1.4c-1.7,0.4-3.5,0.5-5.4,0.5c-3.3,0-6.3-0.6-9.1-1.7c-2.8-1.2-5.1-2.8-7.1-5c-1.9-2.1-3.5-4.7-4.6-7.7
	c-1.1-3-1.7-6.3-1.7-10c0-3.6,0.6-6.9,1.7-9.9c1.1-3,2.8-5.5,4.8-7.7c2-2.1,4.5-3.8,7.4-5c2.8-1.2,6.1-1.7,9.5-1.7
	c1.7,0,3.3,0.1,4.8,0.4c1.5,0.3,2.8,0.6,4,1.1c1.3,0.5,2.4,1.1,3.5,1.8c1.1,0.7,2.2,1.6,3.2,2.5l-1,1.5c-0.2,0.3-0.5,0.4-0.8,0.4
	c-0.2,0-0.5-0.1-0.7-0.4s-0.7-0.6-1.2-0.9c-0.5-0.4-1.1-0.7-1.7-1.1c-0.6-0.5-1.5-0.8-2.5-1.1c-0.9-0.4-2-0.6-3.3-0.9
	c-1.2-0.3-2.7-0.4-4.2-0.4c-2.9,0-5.6,0.5-8,1.5c-2.4,1-4.5,2.4-6.2,4.3c-1.7,1.8-3.1,4.1-4.1,6.7s-1.5,5.6-1.5,8.9
	c0,3.4,0.5,6.3,1.5,9s2.3,4.9,4,6.7s3.8,3.2,6.1,4.2c2.3,1,4.9,1.5,7.5,1.5c1.7,0,3.2-0.1,4.6-0.4c1.4-0.2,2.6-0.6,3.7-1
	c1.1-0.5,2.2-1,3.1-1.7c1-0.6,1.9-1.4,2.8-2.3c0.1-0.1,0.2-0.2,0.3-0.2C211,295.5,211.2,295.4,211.3,295.4z M196.1,304.6
	c-3.4,0-6.5-0.6-9.3-1.7c-2.8-1.2-5.2-2.8-7.3-5.1c-2-2.2-3.6-4.8-4.7-7.9c-1.1-3-1.7-6.5-1.7-10.2s0.6-7.1,1.7-10.1
	c1.2-3,2.8-5.7,4.9-7.9c2.1-2.2,4.7-4,7.5-5.1c2.9-1.2,6.2-1.8,9.7-1.8c1.7,0,3.4,0.1,4.9,0.4c1.5,0.3,2.8,0.6,4.1,1.1
	c1.3,0.5,2.5,1.1,3.6,1.8c1.1,0.7,2.2,1.6,3.3,2.6l0.4,0.4l-1.3,1.9c-0.2,0.3-0.6,0.6-1.3,0.6c-0.4,0-0.6-0.2-1.1-0.5
	c-0.3-0.3-0.7-0.6-1.2-0.8c-0.5-0.4-1-0.7-1.7-1.1c-0.6-0.4-1.5-0.7-2.4-1.1c-0.9-0.4-2-0.6-3.2-0.8c-1.2-0.2-2.6-0.4-4.1-0.4
	c-2.8,0-5.4,0.5-7.8,1.5c-2.3,1-4.4,2.4-6.1,4.1c-1.7,1.7-3,4-4,6.5c-0.9,2.6-1.5,5.5-1.5,8.6c0,3.3,0.5,6.2,1.4,8.8
	c0.9,2.6,2.2,4.8,3.9,6.5c1.7,1.7,3.6,3.1,5.9,4c2.2,0.9,4.7,1.4,7.4,1.4c1.7,0,3.2-0.1,4.5-0.4c1.3-0.2,2.5-0.6,3.6-1
	c1.1-0.5,2.1-1,3-1.6c0.9-0.6,1.8-1.4,2.8-2.2c0.2-0.2,0.3-0.2,0.5-0.3c0.5-0.3,1.2-0.2,1.6,0.3l1.7,1.8l-0.4,0.4
	c-1,1.1-2.1,2-3.3,2.9c-1.2,0.8-2.5,1.7-4,2.2c-1.4,0.6-2.9,1.1-4.7,1.4C200,304.4,198.1,304.6,196.1,304.6z M197.1,255.8
	c-3.4,0-6.5,0.6-9.3,1.7c-2.8,1.1-5.2,2.8-7.2,4.9c-2,2.1-3.6,4.6-4.7,7.5c-1.1,2.9-1.7,6.2-1.7,9.7s0.6,6.9,1.7,9.8
	c1.1,2.9,2.6,5.4,4.5,7.5c1.9,2,4.2,3.7,6.9,4.8s5.6,1.7,8.8,1.7c1.9,0,3.7-0.2,5.3-0.5c1.6-0.3,3.1-0.7,4.4-1.4
	c1.4-0.6,2.6-1.3,3.7-2.1c1-0.7,1.9-1.6,2.8-2.4l-1-1.1c-0.1-0.1-0.2-0.1-0.3,0c-0.1,0-0.2,0.1-0.3,0.2c-0.9,0.8-1.9,1.7-2.9,2.3
	c-1,0.6-2.1,1.3-3.2,1.7c-1.2,0.5-2.5,0.8-3.8,1c-1.4,0.2-2.9,0.4-4.7,0.4c-2.8,0-5.4-0.6-7.8-1.5c-2.4-1-4.5-2.5-6.2-4.3
	c-1.7-1.8-3.1-4.2-4.1-6.9s-1.5-5.8-1.5-9.2c0-3.3,0.5-6.3,1.5-9.1c1-2.7,2.4-5.1,4.2-6.9c1.8-1.9,4-3.4,6.4-4.4s5.2-1.6,8.2-1.6
	c1.6,0,3,0.1,4.3,0.4c1.3,0.3,2.4,0.6,3.4,0.9c1,0.4,1.8,0.7,2.6,1.2c0.7,0.5,1.3,0.8,1.7,1.2c0.5,0.4,0.9,0.6,1.2,0.9
	s0.5,0.3,0.5,0.3c0.3,0,0.4-0.1,0.4-0.2l0.7-1.1c-0.9-0.8-1.8-1.5-2.8-2.1c-1.1-0.7-2.2-1.3-3.4-1.7c-1.2-0.5-2.6-0.8-4-1.1
	C200.3,256,198.8,255.8,197.1,255.8z M250.5,255.8v2.8h-25.1v19.3h20.9v2.8h-20.9v19.8h25.1v2.8h-28.6v-47.6H250.5z M251.1,304
	h-29.7v-48.8h29.7v4H226v18.1h20.9v4H226V300h25.1V304z M222.5,302.9H250v-1.7h-25.1v-21h20.9v-1.7h-20.9v-20.4H250v-1.7h-27.5
	V302.9z"/>
<path d="M293.2,255.2v7.3h-21.6v14.4h18.2v7.3h-18.2V304h-9.1v-48.7L293.2,255.2L293.2,255.2z M346.1,279.6c0,3.6-0.6,6.9-1.7,9.9
	c-1.2,3-2.8,5.7-5.1,7.9c-2.1,2.2-4.8,4-7.8,5.2c-3,1.3-6.4,1.8-10.1,1.8c-3.7,0-7.1-0.6-10.1-1.8c-3-1.3-5.6-2.9-7.8-5.2
	c-2.2-2.2-3.9-4.9-5.1-7.9c-1.2-3-1.7-6.3-1.7-9.9c0-3.6,0.6-6.9,1.7-9.9c1.2-3,2.8-5.7,5.1-7.9c2.2-2.2,4.8-4,7.8-5.2
	c3-1.3,6.4-1.8,10.1-1.8c3.7,0,7.1,0.6,10.1,1.9c3,1.3,5.6,3,7.8,5.2c2.1,2.2,3.9,4.9,5.1,7.9C345.4,272.7,346.1,276,346.1,279.6z
	 M336.8,279.6c0-2.7-0.4-5.1-1.1-7.2c-0.7-2.1-1.7-4-3-5.4c-1.3-1.5-2.9-2.6-4.9-3.4c-1.9-0.8-4-1.2-6.4-1.2s-4.5,0.4-6.4,1.2
	c-1.9,0.8-3.5,1.9-4.9,3.4c-1.4,1.5-2.4,3.3-3.1,5.4c-0.7,2.1-1.1,4.5-1.1,7.2s0.4,5.1,1.1,7.2s1.7,4,3.1,5.4s2.9,2.6,4.9,3.4
	c1.9,0.8,4,1.2,6.4,1.2s4.5-0.4,6.4-1.2c1.9-0.8,3.5-1.9,4.9-3.4c1.3-1.5,2.3-3.3,3-5.4S336.8,282.2,336.8,279.6z M365,278.5h2.1
	c1.7,0,3.2-0.2,4.5-0.6c1.3-0.5,2.3-1,3.1-1.7c0.8-0.7,1.5-1.7,1.8-2.7c0.4-1,0.6-2.2,0.6-3.4c0-2.5-0.8-4.4-2.5-5.7s-4.1-2-7.4-2
	h-5.9v16.2v6.5v19h-9.1v-48.7h14.9c3.3,0,6.2,0.4,8.5,1c2.4,0.6,4.3,1.7,5.8,2.8c1.5,1.2,2.7,2.8,3.3,4.4c0.7,1.7,1.1,3.6,1.1,5.7
	c0,1.7-0.3,3.2-0.7,4.7s-1.2,2.8-2.1,4s-2,2.2-3.4,3.1c-1.4,0.9-2.8,1.7-4.6,2.1c1.1,0.6,2.1,1.6,2.9,2.8l12.2,18h-8.2
	c-0.8,0-1.5-0.2-2-0.5c-0.6-0.3-1-0.7-1.4-1.4l-10.2-15.6c-0.3-0.4-0.8-1.2-1.4-1.3c-1.1,0-2.2,0-3.2,0c0,0,0-5.5,0-5.9
	C364,278.5,365,278.5,365,278.5z M416.9,297.3c2,0,3.9-0.2,5.3-0.6c1.5-0.4,2.9-0.9,4.3-1.6v-11h-6.1c-0.6,0-1-0.2-1.4-0.5
	c-0.4-0.4-0.6-0.7-0.6-1.2v-5.1h16.2v21.9c-1.2,0.9-2.5,1.7-3.9,2.3c-1.4,0.6-2.8,1.2-4.3,1.7c-1.6,0.5-3.1,0.7-4.9,0.9
	c-1.7,0.2-3.6,0.3-5.6,0.3c-3.6,0-6.8-0.6-9.8-1.8s-5.6-2.9-7.7-5.1c-2.2-2.2-3.9-4.9-5.1-7.9c-1.2-3-1.8-6.4-1.8-10
	c0-3.7,0.6-7,1.7-10.1c1.2-3,2.8-5.7,5.1-7.9c2.2-2.2,4.9-4,8-5.1c3.1-1.2,6.6-1.8,10.5-1.8c4,0,7.4,0.6,10.3,1.7
	c2.9,1.2,5.3,2.8,7.4,4.6l-2.7,4.1c-0.6,0.8-1.2,1.3-2,1.3c-0.6,0-1.1-0.2-1.7-0.6c-0.7-0.5-1.5-0.8-2.2-1.3
	c-0.7-0.5-1.6-0.8-2.5-1.1c-0.9-0.3-1.9-0.6-3-0.7c-1.1-0.2-2.5-0.3-4-0.3c-2.4,0-4.6,0.4-6.5,1.2s-3.6,1.9-5,3.5
	c-1.4,1.5-2.4,3.3-3.1,5.4c-0.7,2.1-1.1,4.5-1.1,7.1c0,2.8,0.4,5.3,1.2,7.5c0.8,2.2,1.9,4,3.3,5.5c1.4,1.5,3.1,2.7,5.1,3.5
	C412.2,296.9,414.6,297.3,416.9,297.3z M466.8,284.4H452v12.3h21.5v7.3h-30.7v-48.7h30.7v7.3h-21.6v15h17v5.3
	C468.9,282.8,468.8,284.4,466.8,284.4z"/>
</svg>
