<?xml version="1.0" encoding="UTF-8"?>
<!DOCTYPE svg PUBLIC "-//W3C//DTD SVG 1.1//EN" "http://www.w3.org/Graphics/SVG/1.1/DTD/svg11.dtd">
<!-- Creator: CorelDRAW -->
<svg xmlns="http://www.w3.org/2000/svg" xml:space="preserve" width="81.28mm" height="81.28mm" version="1.1" style="shape-rendering:geometricPrecision; text-rendering:geometricPrecision; image-rendering:optimizeQuality; fill-rule:evenodd; clip-rule:evenodd"
viewBox="0 0 16329.93 16329.93"
 xmlns:xlink="http://www.w3.org/1999/xlink"
 xmlns:xodm="http://www.corel.com/coreldraw/odm/2003">
 <defs>
  <style type="text/css">
   <![CDATA[
    .fil1 {fill:#101010}
    .fil3 {fill:#990000}
    .fil0 {fill:#F0F0F0}
    .fil2 {fill:#101010;fill-rule:nonzero}
   ]]>
  </style>
 </defs>
 <g id="Layer_x0020_1">
  <metadata id="CorelCorpID_0Corel-Layer"/>
  <g id="_2370466402528">
   <rect class="fil0" width="16329.93" height="16329.93"/>
   <g>
    <path class="fil1" d="M7117.08 5420.08l0 -834.74 603.49 0 0 98.53 -493.09 0 0 255.58 461.79 0 0 97.94 -461.79 0 0 284.17 512.52 0 0 98.53 -622.92 0zm732.07 -238.06l92.48 -8.12c4.3,37.09 14.49,67.47 30.52,91.25 16.05,23.83 40.89,42.97 74.52,57.62 33.65,14.67 71.6,21.92 113.71,21.92 37.43,0 70.38,-5.53 99.01,-16.55 28.63,-11.21 50.03,-26.4 64.01,-45.73 13.96,-19.49 21.04,-40.54 21.04,-63.49 0,-23.29 -6.73,-43.48 -20.35,-60.9 -13.46,-17.42 -35.7,-31.9 -66.6,-43.64 -20.01,-7.78 -63.83,-19.85 -131.96,-36.22 -67.99,-16.39 -115.76,-31.76 -143.03,-46.25 -35.36,-18.44 -61.76,-41.57 -79.18,-69.01 -17.24,-27.42 -25.88,-58.12 -25.88,-92.28 0,-37.27 10.53,-72.29 31.74,-104.73 21.22,-32.61 52.28,-57.26 92.98,-74.16 40.89,-16.74 86.09,-25.21 135.94,-25.21 55.05,0 103.35,8.82 145.44,26.58 41.93,17.6 74.2,43.66 96.78,77.97 22.44,34.34 34.68,73.33 36.4,116.79l-94.03 7.09c-5.16,-46.77 -22.24,-82.29 -51.41,-106.12 -29.15,-23.97 -72.11,-35.86 -129.02,-35.86 -59.35,0 -102.48,10.87 -129.75,32.59 -27.08,21.74 -40.7,47.98 -40.7,78.52 0,26.72 9.66,48.64 28.81,65.72 18.99,17.26 68.15,34.86 147.85,52.78 79.7,18.12 134.37,33.83 164.06,47.29 43.12,19.99 75.04,45.18 95.57,75.54 20.51,30.54 30.7,65.74 30.7,105.42 0,39.5 -11.21,76.59 -33.81,111.44 -22.58,34.84 -55.03,61.92 -97.3,81.41 -42.27,19.33 -89.87,28.99 -142.67,28.99 -67.1,0 -123.34,-9.66 -168.54,-29.33 -45.37,-19.49 -80.91,-48.8 -106.78,-88.16 -25.7,-39.16 -39.34,-83.66 -40.54,-133.16zm1252.29 -21.74l98.14 24.83c-20.51,80.38 -57.62,141.82 -110.92,184.25 -53.48,42.27 -118.7,63.31 -195.97,63.31 -79.88,0 -144.76,-16.21 -194.78,-48.64 -50.03,-32.61 -88.16,-79.72 -114.2,-141.3 -26.04,-61.76 -39.16,-128 -39.16,-198.72 0,-77.13 14.67,-144.39 44.16,-201.85 29.51,-57.44 71.42,-101.1 125.93,-130.93 54.35,-29.86 114.2,-44.7 179.59,-44.7 74.18,0 136.46,18.83 187.01,56.6 50.55,37.77 85.73,90.73 105.58,159.22l-96.44 22.78c-17.26,-54 -42.09,-93.16 -74.86,-117.83 -32.61,-24.67 -73.67,-36.91 -123.36,-36.91 -56.92,0 -104.37,13.62 -142.67,40.89 -38.29,27.42 -65.22,63.99 -80.56,110.06 -15.53,45.89 -23.31,93.34 -23.31,142.14 0,63.15 9.16,118.01 27.44,165.11 18.46,46.93 46.91,82.13 85.73,105.42 38.82,23.29 80.75,34.84 125.93,34.84 54.87,0 101.28,-15.87 139.41,-47.43 38.13,-31.74 63.83,-78.84 77.29,-141.12zm705.07 -481.14l98.14 0 0 428.16c0,74.36 -8.44,133.52 -25.35,177.36 -16.9,43.82 -47.27,79.36 -91.25,106.78 -44,27.6 -101.62,41.23 -173.04,41.23 -69.33,0 -126.27,-11.91 -170.27,-35.88 -44.16,-23.81 -75.72,-58.48 -94.53,-103.85 -18.99,-45.37 -28.31,-107.13 -28.31,-185.64l0 -428.16 98 0 0 427.66c0,64.35 6.05,111.79 17.94,142.14 11.89,30.54 32.61,54 61.58,70.56 29.17,16.58 64.87,24.85 106.96,24.85 72.11,0 123.52,-16.39 154.22,-49.16 30.54,-32.61 45.91,-95.41 45.91,-188.39l0 -427.66zm263.43 740.93l0 -740.93 535.65 0 0 87.46 -437.66 0 0 226.85 409.9 0 0 86.95 -409.9 0 0 252.22 454.92 0 0 87.46 -552.9 0zm684.18 0l0 -740.93 98.16 0 0 653.48 364.87 0 0 87.46 -463.04 0zm498.4 0l284.65 -740.93 105.58 0 303.29 740.93 -111.79 0 -86.43 -224.44 -309.84 0 -81.25 224.44 -104.21 0zm213.75 -304.32l251.36 0 -77.45 -205.11c-23.47,-62.28 -41.07,-113.51 -52.46,-153.72 -9.48,47.62 -22.76,94.71 -40.02,141.64l-81.43 217.18zm-3756.01 1314.39l110.58 27.99c-23.12,90.57 -64.91,159.76 -124.97,207.56 -60.25,47.64 -133.73,71.34 -220.78,71.34 -90.01,0 -163.08,-18.28 -219.43,-54.81 -56.38,-36.73 -99.31,-89.79 -128.66,-159.18 -29.35,-69.58 -44.12,-144.21 -44.12,-223.89 0,-86.87 16.51,-162.68 49.75,-227.39 33.25,-64.73 80.46,-113.9 141.88,-147.53 61.22,-33.63 128.66,-50.33 202.34,-50.33 83.56,0 153.72,21.18 210.67,63.73 56.94,42.57 96.6,102.24 118.94,179.39l-108.63 25.66c-19.45,-60.84 -47.43,-104.94 -84.36,-132.74 -36.73,-27.79 -82.98,-41.59 -138.97,-41.59 -64.13,0 -117.57,15.35 -160.73,46.07 -43.14,30.9 -73.45,72.11 -90.75,124 -17.5,51.67 -26.26,105.14 -26.26,160.12 0,71.14 10.31,132.94 30.92,186 20.79,52.88 52.86,92.52 96.58,118.76 43.74,26.24 90.97,39.26 141.9,39.26 61.8,0 114.08,-17.88 157.03,-53.44 42.95,-35.76 71.91,-88.82 87.07,-158.98zm206.68 -68.21c0,-123 32.95,-219.27 99.03,-288.79 66.08,-69.51 151.31,-104.37 255.84,-104.37 68.31,0 130.07,16.39 184.94,49 54.85,32.77 96.78,78.31 125.59,136.8 28.81,58.3 43.14,124.72 43.14,198.74 0,75.2 -15.03,142.51 -45.37,201.67 -30.38,59.33 -73.33,104.19 -128.88,134.73 -55.71,30.54 -115.58,45.71 -179.93,45.71 -69.86,0 -132.14,-16.74 -187.01,-50.53 -55.03,-33.65 -96.6,-79.72 -124.89,-138.02 -28.31,-58.14 -42.45,-119.9 -42.45,-184.94zm101.1 1.55c0,89.36 23.99,159.58 71.95,211 48.12,51.41 108.33,77.11 180.78,77.11 73.85,0 134.57,-25.88 182.18,-77.79 47.62,-51.94 71.6,-125.59 71.6,-221 0,-60.19 -10.37,-112.81 -30.72,-157.85 -20.35,-45.02 -50.21,-79.88 -89.36,-104.71 -39.34,-24.67 -83.32,-37.09 -132.14,-37.09 -69.53,0 -129.23,23.81 -179.25,71.6 -50.03,47.6 -75.04,127.32 -75.04,238.74zm729.74 359.37l0 -740.95 98.14 0 0 653.48 364.87 0 0 87.48 -463.02 0zm549.97 -360.91c0,-123 32.95,-219.27 99.03,-288.79 66.08,-69.51 151.31,-104.37 255.84,-104.37 68.31,0 130.07,16.39 184.94,49 54.85,32.77 96.78,78.31 125.59,136.8 28.81,58.3 43.14,124.72 43.14,198.74 0,75.2 -15.03,142.51 -45.39,201.67 -30.36,59.33 -73.31,104.19 -128.86,134.73 -55.71,30.54 -115.58,45.71 -179.93,45.71 -69.86,0 -132.16,-16.74 -187.01,-50.53 -55.03,-33.65 -96.6,-79.72 -124.89,-138.02 -28.31,-58.14 -42.45,-119.9 -42.45,-184.94zm101.1 1.55c0,89.36 23.97,159.58 71.95,211 48.12,51.41 108.33,77.11 180.78,77.11 73.83,0 134.57,-25.88 182.18,-77.79 47.62,-51.94 71.58,-125.59 71.58,-221 0,-60.19 -10.35,-112.81 -30.7,-157.85 -20.35,-45.02 -50.21,-79.88 -89.36,-104.71 -39.34,-24.67 -83.32,-37.09 -132.16,-37.09 -69.51,0 -129.2,23.81 -179.23,71.6 -50.03,47.6 -75.04,127.32 -75.04,238.74zm730.77 359.37l0 -740.95 147.67 0 175.29 524.62c16.19,48.82 28.11,85.39 35.34,109.72 8.46,-26.92 21.58,-66.6 39.52,-118.86l177.34 -515.47 131.98 0 0 740.95 -94.55 0 0 -620.21 -215.29 620.21 -88.5 0 -214.27 -630.72 0 630.72 -94.53 0zm861.2 0l0 -740.95 278.1 0c56.58,0 101.96,7.57 136.12,22.42 34.32,15.01 61.06,38.13 80.38,69.35 19.33,31.06 29.15,63.67 29.15,97.82 0,31.56 -8.62,61.4 -25.88,89.34 -17.08,27.95 -43.12,50.55 -77.81,67.81 44.86,13.1 79.2,35.54 103.35,67.1 24.15,31.74 36.22,69.19 36.22,112.31 0,34.68 -7.41,66.94 -22.08,96.78 -14.67,29.86 -32.77,52.8 -54.35,69.01 -21.56,16.21 -48.64,28.29 -81.07,36.57 -32.45,8.28 -72.31,12.44 -119.56,12.44l-282.58 0zm98.16 -429.56l160.27 0c43.3,0 74.52,-2.93 93.5,-8.62 24.83,-7.43 43.64,-19.67 56.23,-36.93 12.6,-17.26 18.99,-38.82 18.99,-64.69 0,-24.51 -5.89,-46.25 -17.6,-64.87 -11.91,-18.81 -28.81,-31.56 -50.55,-38.45 -21.92,-6.91 -59.51,-10.37 -112.83,-10.37l-148.01 0 0 223.93zm0 342.09l184.41 0c31.74,0 54,-1.21 66.76,-3.46 22.6,-4.14 41.41,-10.87 56.58,-20.35 15.19,-9.32 27.6,-23.12 37.45,-41.05 9.66,-18.12 14.67,-38.82 14.67,-62.46 0,-27.6 -7.09,-51.57 -21.24,-72.11 -14.14,-20.35 -33.81,-34.68 -58.99,-42.95 -25.01,-8.12 -61.24,-12.26 -108.35,-12.26l-171.3 0 0 254.63zm613.12 87.48l0 -740.95 97.98 0 0 740.95 -97.98 0zm189.42 0l284.65 -740.95 105.58 0 303.27 740.95 -111.79 0 -86.43 -224.46 -309.82 0 -81.27 224.46 -104.19 0zm213.75 -304.32l251.36 0 -77.47 -205.13c-23.45,-62.26 -41.07,-113.51 -52.44,-153.7 -9.48,47.6 -22.78,94.71 -40.02,141.62l-81.43 217.2zm557.04 304.32l0 -740.95 100.58 0 389.18 581.71 0 -581.71 94.03 0 0 740.95 -100.58 0 -389.18 -582.24 0 582.24 -94.03 0zm667.12 0l284.65 -740.95 105.58 0 303.27 740.95 -111.79 0 -86.43 -224.46 -309.82 0 -81.27 224.46 -104.19 0zm213.75 -304.32l251.36 0 -77.47 -205.13c-23.45,-62.26 -41.07,-113.51 -52.44,-153.7 -9.48,47.6 -22.78,94.71 -40.02,141.62l-81.43 217.2zm-6438.53 1607.08l0 -740.95 255.16 0c57.62,0 101.6,3.62 131.98,10.69 42.43,9.66 78.66,27.44 108.67,52.98 39,33.11 68.31,75.2 87.64,126.61 19.49,51.41 29.15,110.06 29.15,176.14 0,56.23 -6.55,106.1 -19.83,149.58 -13.12,43.48 -29.86,79.52 -50.55,107.99 -20.53,28.47 -42.95,50.89 -67.47,67.1 -24.31,16.39 -53.8,28.81 -88.32,37.27 -34.68,8.46 -74.34,12.6 -119.04,12.6l-267.39 0zm97.98 -87.46l158.2 0c48.82,0 87.3,-4.5 115.08,-13.64 27.77,-9.14 49.85,-21.9 66.42,-38.47 23.29,-23.12 41.39,-54.51 54.33,-93.66 12.94,-39.34 19.49,-86.77 19.49,-142.85 0,-77.45 -12.76,-136.98 -38.11,-178.55 -25.54,-41.75 -56.42,-69.53 -92.82,-83.68 -26.22,-10.19 -68.67,-15.17 -126.79,-15.17l-155.79 0 0 566.02zm651.59 87.46l0 -740.95 535.67 0 0 87.48 -437.66 0 0 226.85 409.88 0 0 86.95 -409.88 0 0 252.22 454.92 0 0 87.46 -552.92 0zm1041.29 0l0 -834.76 110.4 0 0 834.76 -110.4 0zm293.99 0l0 -740.95 100.58 0 389.18 581.71 0 -581.71 94.03 0 0 740.95 -100.58 0 -389.2 -582.24 0 582.24 -94.01 0zm1095.28 -290.7l0 -86.77 313.82 -0.52 0 274.82c-48.14,38.47 -97.82,67.28 -149.05,86.77 -51.25,19.33 -103.87,28.99 -157.69,28.99 -72.79,0 -139.03,-15.53 -198.38,-46.75 -59.53,-31.06 -104.37,-76.27 -134.73,-135.09 -30.38,-58.99 -45.57,-124.91 -45.57,-197.7 0,-72.11 15.19,-139.39 45.39,-201.85 30.02,-62.62 73.49,-109.01 130.09,-139.37 56.58,-30.2 121.79,-45.39 195.63,-45.39 53.48,0 101.94,8.64 145.26,26.06 43.3,17.24 77.27,41.41 101.78,72.45 24.67,31.06 43.3,71.42 56.23,121.29l-88.5 24.33c-11.21,-37.79 -25.01,-67.47 -41.41,-89.04 -16.55,-21.56 -40.2,-38.82 -70.9,-51.73 -30.54,-12.94 -64.69,-19.51 -101.96,-19.51 -44.84,0 -83.66,6.91 -116.27,20.53 -32.77,13.62 -59.01,31.56 -79.18,53.82 -20.01,22.26 -35.54,46.57 -46.75,73.33 -18.81,45.71 -28.29,95.39 -28.29,149.05 0,66.06 11.37,121.27 34.15,165.77 22.76,44.5 55.89,77.45 99.37,99.03 43.48,21.56 89.53,32.43 138.35,32.43 42.61,0 84.02,-8.28 124.38,-24.67 40.54,-16.21 71.08,-33.63 91.96,-52.26l0 -138.02 -217.73 0zm460.44 290.7l0 -740.95 535.67 0 0 87.48 -437.66 0 0 226.85 409.88 0 0 86.95 -409.88 0 0 252.22 454.92 0 0 87.46 -552.92 0zm687.31 0l0 -740.95 100.58 0 389.18 581.71 0 -581.71 94.03 0 0 740.95 -100.58 0 -389.2 -582.24 0 582.24 -94.01 0zm765.26 0l0 -740.95 97.98 0 0 740.95 -97.98 0zm272.92 0l0 -740.95 535.67 0 0 87.48 -437.66 0 0 226.85 409.88 0 0 86.95 -409.88 0 0 252.22 454.92 0 0 87.46 -552.92 0zm689.88 0l0 -740.95 328.47 0c66.08,0 116.29,6.73 150.62,20.01 34.32,13.28 61.76,36.75 82.45,70.4 20.53,33.81 30.7,71.06 30.7,111.79 0,52.62 -16.9,96.78 -51.05,132.82 -33.99,36.06 -86.61,59.01 -157.67,68.85 26.04,12.42 45.71,24.67 59.17,36.91 28.63,26.22 55.73,59.17 81.43,98.51l128.86 201.67 -123.34 0 -97.98 -154.22c-28.65,-44.34 -52.28,-78.52 -70.92,-101.96 -18.46,-23.65 -35.02,-40.2 -49.68,-49.52 -14.67,-9.48 -29.49,-16.03 -44.68,-19.83 -11.21,-2.25 -29.33,-3.46 -54.69,-3.46l-113.67 0 0 328.99 -98 0zm98 -413.87l210.79 0c44.68,0 79.88,-4.66 105.08,-13.96 25.35,-9.32 44.5,-24.15 57.62,-44.5 13.12,-20.35 19.67,-42.45 19.67,-66.42 0,-35.04 -12.6,-63.83 -38.13,-86.43 -25.35,-22.6 -65.56,-33.83 -120.59,-33.83l-234.44 0 0 245.15zm664.69 413.87l0 -740.95 97.98 0 0 740.95 -97.98 0zm-25.35 -786.5l67.28 -141.46 119.2 0 -111.1 141.46 -75.38 0zm214.77 786.5l284.65 -740.95 105.58 0 303.29 740.95 -111.79 0 -86.43 -224.46 -309.84 0 -81.25 224.46 -104.21 0zm213.75 -304.32l251.36 0 -77.45 -205.11c-23.47,-62.28 -41.07,-113.51 -52.46,-153.72 -9.48,47.6 -22.76,94.71 -40.02,141.62l-81.43 217.2zm-7268.07 1370.16l99.71 -13.6c2.51,63.73 14.57,107.47 35.76,130.99 21.38,23.51 50.71,35.16 88.24,35.16 27.79,0 51.67,-6.21 71.7,-19.05 20.21,-12.62 34.01,-29.92 41.59,-51.67 7.59,-21.98 11.47,-56.76 11.47,-104.57l0 -575.1 110.4 0 0 568.88c0,69.78 -8.36,124 -25.27,162.29 -16.9,38.27 -43.74,67.45 -80.26,87.66 -36.73,20.01 -79.7,30.14 -129.06,30.14 -73.25,0 -129.25,-21 -168.3,-63.19 -38.88,-42.17 -57.54,-104.75 -55.97,-187.93zm1115.47 -504.02l98.14 0 0 428.16c0,74.36 -8.44,133.52 -25.35,177.36 -16.9,43.82 -47.27,79.34 -91.25,106.78 -44,27.58 -101.62,41.23 -173.04,41.23 -69.33,0 -126.27,-11.91 -170.25,-35.88 -44.18,-23.81 -75.74,-58.48 -94.55,-103.85 -18.99,-45.39 -28.31,-107.15 -28.31,-185.64l0 -428.16 98 0 0 427.66c0,64.35 6.05,111.79 17.94,142.14 11.89,30.54 32.61,54 61.58,70.56 29.17,16.55 64.87,24.83 106.96,24.83 72.11,0 123.52,-16.37 154.22,-49.14 30.54,-32.61 45.91,-95.41 45.91,-188.39l0 -427.66zm257.22 740.93l0 -740.93 98.14 0 0 653.48 364.87 0 0 87.46 -463.02 0zm596.54 0l0 -740.93 97.98 0 0 740.93 -97.98 0zm240.99 -360.91c0,-123 32.95,-219.25 99.03,-288.79 66.08,-69.51 151.31,-104.35 255.84,-104.35 68.33,0 130.09,16.39 184.94,48.98 54.87,32.79 96.78,78.33 125.59,136.82 28.83,58.3 43.14,124.72 43.14,198.72 0,75.22 -15.01,142.51 -45.37,201.67 -30.38,59.35 -73.33,104.21 -128.86,134.75 -55.73,30.52 -115.6,45.71 -179.93,45.71 -69.88,0 -132.16,-16.74 -187.01,-50.55 -55.03,-33.63 -96.62,-79.7 -124.91,-138 -28.31,-58.14 -42.45,-119.9 -42.45,-184.96zm101.1 1.57c0,89.36 23.99,159.58 71.95,210.98 48.14,51.43 108.35,77.13 180.8,77.13 73.83,0 134.55,-25.9 182.18,-77.81 47.6,-51.94 71.58,-125.59 71.58,-220.98 0,-60.21 -10.35,-112.83 -30.72,-157.85 -20.35,-45.02 -50.19,-79.88 -89.36,-104.73 -39.32,-24.65 -83.32,-37.09 -132.14,-37.09 -69.53,0 -129.2,23.83 -179.23,71.6 -50.03,47.62 -75.06,127.32 -75.06,238.76zm1458.64 31.84l0 -97.74 353.52 -0.58 0 309.6c-54.23,43.34 -110.2,75.8 -167.92,97.76 -57.72,21.76 -116.99,32.67 -177.64,32.67 -82.01,0 -156.65,-17.5 -223.51,-52.7 -67.04,-34.96 -117.57,-85.89 -151.79,-152.17 -34.21,-66.48 -51.31,-140.72 -51.31,-222.73 0,-81.25 17.1,-157.05 51.11,-227.41 33.83,-70.54 82.81,-122.82 146.54,-157.03 63.77,-34.01 137.22,-51.11 220.4,-51.11 60.27,0 114.88,9.72 163.66,29.35 48.78,19.43 87.07,46.63 114.68,81.63 27.79,34.98 48.78,80.46 63.35,136.64l-99.69 27.38c-12.66,-42.55 -28.19,-75.98 -46.65,-100.27 -18.66,-24.29 -45.29,-43.74 -79.88,-58.3 -34.4,-14.59 -72.89,-21.98 -114.86,-21.98 -50.53,0 -94.27,7.78 -130.99,23.14 -36.95,15.35 -66.48,35.56 -89.22,60.63 -22.54,25.07 -40.02,52.48 -52.66,82.59 -21.2,51.51 -31.88,107.49 -31.88,167.92 0,74.44 12.84,136.64 38.49,186.79 25.66,50.13 62.97,87.26 111.95,111.55 48.96,24.31 100.86,36.55 155.87,36.55 48.02,0 94.65,-9.32 140.13,-27.79 45.67,-18.28 80.06,-37.89 103.59,-58.89l0 -155.5 -245.27 0zm424.84 327.5l284.65 -740.93 105.58 0 303.29 740.93 -111.79 0 -86.43 -224.44 -309.84 0 -81.25 224.44 -104.21 0zm213.75 -304.32l251.36 0 -77.45 -205.11c-23.47,-62.28 -41.07,-113.51 -52.46,-153.72 -9.48,47.62 -22.76,94.71 -40.02,141.64l-81.43 217.18zm559.63 304.32l0 -740.93 328.47 0c66.08,0 116.29,6.71 150.62,19.99 34.32,13.28 61.76,36.75 82.45,70.4 20.53,33.81 30.7,71.08 30.7,111.79 0,52.62 -16.9,96.78 -51.05,132.82 -33.99,36.06 -86.61,59.01 -157.67,68.85 26.04,12.42 45.71,24.67 59.17,36.91 28.63,26.22 55.73,59.19 81.43,98.51l128.86 201.67 -123.34 0 -97.98 -154.22c-28.65,-44.34 -52.28,-78.5 -70.92,-101.96 -18.46,-23.63 -35.02,-40.2 -49.68,-49.52 -14.67,-9.48 -29.49,-16.03 -44.68,-19.83 -11.21,-2.25 -29.33,-3.46 -54.69,-3.46l-113.67 0 0 328.99 -98 0zm98 -413.87l210.79 0c44.68,0 79.88,-4.64 105.08,-13.96 25.35,-9.32 44.5,-24.15 57.62,-44.5 13.12,-20.35 19.67,-42.45 19.67,-66.42 0,-35.02 -12.6,-63.83 -38.13,-86.43 -25.35,-22.6 -65.56,-33.81 -120.59,-33.81l-234.44 0 0 245.13zm566.55 413.87l284.63 -740.93 105.58 0 303.29 740.93 -111.79 0 -86.43 -224.44 -309.84 0 -81.25 224.44 -104.19 0zm213.75 -304.32l251.34 0 -77.45 -205.11c-23.47,-62.28 -41.07,-113.51 -52.46,-153.72 -9.48,47.62 -22.76,94.71 -40.02,141.64l-81.41 217.18zm692.98 304.32l-287.06 -740.93 106.26 0 192.53 538.22c15.53,43.14 28.47,83.68 38.82,121.29 11.57,-40.36 24.85,-80.73 40.02,-121.29l200.13 -538.22 100.05 0 -290.15 740.93 -100.6 0zm495.46 0l0 -740.93 97.98 0 0 740.93 -97.98 0zm459.42 0l0 -653.48 -244.11 0 0 -87.46 587.22 0 0 87.46 -245.13 0 0 653.48 -97.98 0zm395.21 -360.91c0,-123 32.95,-219.25 99.03,-288.79 66.08,-69.51 151.31,-104.35 255.84,-104.35 68.31,0 130.09,16.39 184.94,48.98 54.85,32.79 96.78,78.33 125.59,136.82 28.81,58.3 43.14,124.72 43.14,198.72 0,75.22 -15.01,142.51 -45.37,201.67 -30.38,59.35 -73.33,104.21 -128.86,134.75 -55.73,30.52 -115.6,45.71 -179.93,45.71 -69.88,0 -132.16,-16.74 -187.03,-50.55 -55.03,-33.63 -96.6,-79.7 -124.89,-138 -28.31,-58.14 -42.45,-119.9 -42.45,-184.96zm101.1 1.57c0,89.36 23.99,159.58 71.95,210.98 48.14,51.43 108.33,77.13 180.78,77.13 73.85,0 134.57,-25.9 182.18,-77.81 47.62,-51.94 71.6,-125.59 71.6,-220.98 0,-60.21 -10.37,-112.83 -30.72,-157.85 -20.35,-45.02 -50.19,-79.88 -89.36,-104.73 -39.34,-24.65 -83.32,-37.09 -132.14,-37.09 -69.53,0 -129.23,23.83 -179.25,71.6 -50.03,47.62 -75.04,127.32 -75.04,238.76z"/>
    <g>
     <g>
      <g>
       <path class="fil2" d="M3167.76 9660.28c-11.89,11.95 -31.26,11.99 -43.22,0.1 -11.95,-11.89 -11.99,-31.26 -0.1,-43.22l43.32 43.12zm2928.48 -2942.76l-2928.48 2942.76 -43.32 -43.12 2928.48 -2942.76 43.32 43.12zm-43.32 -43.12c11.89,-11.95 31.26,-11.99 43.22,-0.1 11.95,11.89 11.99,31.26 0.1,43.22l-43.32 -43.12z"/>
      </g>
      <g>
       <path class="fil2" d="M5129.52 9644.69c-3.27,16.55 -19.37,27.3 -35.92,24.03 -16.55,-3.27 -27.3,-19.37 -24.03,-35.92l59.95 11.89zm973.71 -4910.73l-973.71 4910.73 -59.95 -11.89 973.71 -4910.73 59.95 11.89zm-59.95 -11.89c3.27,-16.55 19.37,-27.3 35.92,-24.03 16.55,3.27 27.3,19.37 24.03,35.92l-59.95 -11.89z"/>
      </g>
      <g>
       <path class="fil2" d="M4160.82 9636.05c-7.47,15.11 -25.84,21.3 -40.95,13.82 -15.11,-7.47 -21.3,-25.84 -13.82,-40.95l54.77 27.12zm1941.15 -3922.2l-1941.15 3922.2 -54.77 -27.12 1941.15 -3922.2 54.77 27.12zm-54.77 -27.12c7.47,-15.11 25.84,-21.3 40.95,-13.82 15.11,7.47 21.3,25.84 13.82,40.95l-54.77 -27.12z"/>
      </g>
      <g>
       <path class="fil2" d="M2174.24 9666.02c-15.07,7.57 -33.45,1.49 -41.03,-13.58 -7.57,-15.07 -1.49,-33.45 13.58,-41.03l27.44 54.61zm3914.06 -1968.51l-3914.06 1968.51 -27.44 -54.61 3914.06 -1968.51 27.44 54.61zm-27.44 -54.61c15.07,-7.57 33.45,-1.49 41.03,13.58 7.57,15.07 1.49,33.45 -13.58,41.03l-27.44 -54.61z"/>
      </g>
      <g>
       <path class="fil2" d="M1190.35 9661.12c-16.55,3.29 -32.65,-7.45 -35.94,-24.01 -3.29,-16.55 7.45,-32.65 24.01,-35.94l11.93 59.95zm4890.2 -973.59l-4890.2 973.59 -11.93 -59.95 4890.2 -973.59 11.93 59.95zm-11.93 -59.95c16.55,-3.29 32.65,7.45 35.94,24.01 3.29,16.55 -7.45,32.65 -24.01,35.94l-11.93 -59.95z"/>
      </g>
     </g>
     <g>
      <path class="fil2" d="M3146.1 9669.3c-16.88,0 -30.56,-13.68 -30.56,-30.56 0,-16.88 13.68,-30.56 30.56,-30.56l0 61.12zm483.69 -0.02l-483.69 0.02 0 -61.12 483.69 -0.02 24.89 48.28 -24.89 12.84zm0 -61.12c16.88,0 30.56,13.68 30.56,30.56 0,16.88 -13.68,30.56 -30.56,30.56l0 -61.12zm2469.68 -3384.3l-2444.79 3432.58 -49.79 -35.44 2444.79 -3432.58 55.45 17.72 -5.67 17.72zm-49.79 -35.44c9.78,-13.74 28.87,-16.96 42.61,-7.17 13.74,9.78 16.96,28.87 7.17,42.61l-49.79 -35.44zm55.45 -488.13l0 505.85 -61.12 0 0 -505.85 61.12 0zm-61.12 0c0,-16.88 13.68,-30.56 30.56,-30.56 16.88,0 30.56,13.68 30.56,30.56l-61.12 0z"/>
     </g>
     <g>
      <path class="fil2" d="M6044.02 8657.56c0,-16.88 13.68,-30.56 30.56,-30.56 16.88,0 30.56,13.68 30.56,30.56l-61.12 0zm0 491.22l0 -491.22 61.12 0 0 491.22 -27.5 30.42 -33.61 -30.42zm61.12 0c0,16.88 -13.68,30.56 -30.56,30.56 -16.88,0 -30.56,-13.68 -30.56,-30.56l61.12 0zm-4923.79 459.52l4890.18 -489.94 6.11 60.84 -4890.18 489.94 -3.05 0.14 -3.05 -60.98zm6.11 60.84c-16.8,1.67 -31.8,-10.57 -33.47,-27.36 -1.67,-16.8 10.57,-31.8 27.36,-33.47l6.11 60.84zm498.5 0.14l-501.55 0 0 -61.12 501.55 0 9.74 59.53 -9.74 1.59zm0 -61.12c16.88,0 30.56,13.68 30.56,30.56 0,16.88 -13.68,30.56 -30.56,30.56l0 -61.12zm4398.37 -1418l-4388.63 1477.53 -19.49 -57.94 4388.63 -1477.53 40.3 28.97 -20.81 28.97zm-19.49 -57.94c15.99,-5.36 33.35,3.23 38.72,19.23 5.36,15.99 -3.23,33.35 -19.23,38.72l-19.49 -57.94zm40.3 -462.01l0 490.98 -61.12 0 0 -490.98 61.12 0zm-61.12 0c0,-16.88 13.68,-30.56 30.56,-30.56 16.88,0 30.56,13.68 30.56,30.56l-61.12 0z"/>
     </g>
     <g>
      <path class="fil2" d="M6044.02 6695.96c0,-16.88 13.68,-30.56 30.56,-30.56 16.88,0 30.56,13.68 30.56,30.56l-61.12 0zm0 482.69l0 -482.69 61.12 0 0 482.69 -12.74 24.83 -48.38 -24.83zm61.12 0c0,16.88 -13.68,30.56 -30.56,30.56 -16.88,0 -30.56,-13.68 -30.56,-30.56l61.12 0zm-3475.76 2435.25l3427.38 -2460.08 35.64 49.66 -3427.38 2460.08 -17.82 5.73 -17.82 -55.39zm35.64 49.66c-13.7,9.82 -32.83,6.69 -42.65,-7.01 -9.82,-13.7 -6.69,-32.83 7.01,-42.65l35.64 49.66zm-504.5 -55.39l486.68 0 0 61.12 -486.68 0 0 -61.12zm0 61.12c-16.88,0 -30.56,-13.68 -30.56,-30.56 0,-16.88 13.68,-30.56 30.56,-30.56l0 61.12z"/>
     </g>
     <g>
      <path class="fil2" d="M6375.45 9153.86c0,16.88 -12.38,30.56 -27.6,30.56 -15.23,0 -27.6,-13.68 -27.6,-30.56l55.21 0zm0 -4935.37l0 4935.37 -55.21 0 0 -4935.37 55.21 0zm-55.21 0c0,-16.88 12.38,-30.56 27.6,-30.56 15.23,0 27.6,13.68 27.6,30.56l-55.21 0z"/>
     </g>
     <g>
      <path class="fil2" d="M6616.44 9835.07c16.88,0 30.56,12.76 30.56,28.47 0,15.71 -13.68,28.47 -30.56,28.47l0 -56.94zm-5938.65 0l5938.65 0 0 56.94 -5938.65 0 0 -56.94zm0 56.94c-16.88,0 -30.56,-12.76 -30.56,-28.47 0,-15.71 13.68,-28.47 30.56,-28.47l0 56.94z"/>
     </g>
     <g>
      <path class="fil2" d="M5099.55 9669.28c-16.88,0 -30.56,-13.68 -30.56,-30.56 0,-16.88 13.68,-30.56 30.56,-30.56l0 61.12zm492.91 0l-492.91 0 0 -61.12 492.91 0 30.42 33.53 -30.42 27.58zm0 -61.12c16.88,0 30.56,13.68 30.56,30.56 0,16.88 -13.68,30.56 -30.56,30.56l0 -61.12zm512.54 -4884.56l-482.12 4918.09 -60.84 -5.95 482.12 -4918.09 60.98 2.97 -0.14 2.97zm-60.84 -5.95c1.63,-16.8 16.6,-29.07 33.39,-27.44 16.8,1.63 29.07,16.6 27.44,33.39l-60.84 -5.95zm-0.14 510.09l0 -507.12 61.12 0 0 507.12 -1.53 9.56 -59.59 -9.56zm61.12 0c0,16.88 -13.68,30.56 -30.56,30.56 -16.88,0 -30.56,-13.68 -30.56,-30.56l61.12 0zm-1513.35 4401.41l1453.76 -4410.97 58.06 19.13 -1453.76 4410.97 -29.03 21 -29.03 -40.12zm58.06 19.13c-5.26,16.03 -22.56,24.73 -38.59,19.47 -16.03,-5.26 -24.73,-22.56 -19.47,-38.59l58.06 19.13zm-517.46 -40.1l488.43 -0.02 0 61.12 -488.43 0.02 0 -61.12zm0 61.12c-16.88,0 -30.56,-13.68 -30.56,-30.56 0,-16.88 13.68,-30.56 30.56,-30.56l0 61.12z"/>
     </g>
    </g>
    <path class="fil2" d="M4528.92 11193.62l119.72 0 0 521.32c0,90.77 -10.27,162.84 -30.64,216.2 -20.65,53.14 -57.58,96.66 -110.94,130.11 -53.62,33.37 -123.54,50.21 -210.55,50.21 -84.26,0 -153.37,-14.55 -207,-43.72 -53.76,-29.21 -92.06,-71.24 -114.9,-126.49 -22.92,-55.29 -34.46,-130.71 -34.46,-226.3l0 -521.32 119.72 0 0 521.12c0,78.37 7.37,136.36 21.86,173.34 14.55,37.21 39.34,65.98 74.8,85.95 35.32,20.17 78.64,30.24 129.65,30.24 87.42,0 149.82,-19.99 187.03,-59.67 37.21,-39.94 55.71,-116.43 55.71,-229.86l0 -521.12zm317.88 902.69l0 -902.69 122.74 0 473.6 708.55 0 -708.55 114.68 0 0 902.69 -122.66 0 -473.6 -708.57 0 708.57 -114.76 0zm931.9 0l0 -902.69 119.8 0 0 902.69 -119.8 0zm587.3 0l-348.84 -902.69 129.43 0 234.5 655.99c18.7,52.56 34.72,101.7 47.31,147.75 13.88,-49.4 30.04,-98.55 48.54,-147.75l243.34 -655.99 121.87 0 -352.01 902.69 -124.14 0zm586.21 0l0 -902.69 651.79 0 0 105.9 -532.07 0 0 277.4 498.01 0 0 105.86 -498.01 0 0 307.61 553.51 0 0 105.92 -673.23 0zm840.89 0l0 -902.69 400.07 0c80.42,0 141.56,8.18 183.39,24.39 41.83,16.15 75.22,44.72 100.21,85.75 25.01,40.95 37.41,86.33 37.41,135.94 0,64.09 -20.77,118.05 -62.14,161.95 -41.43,43.92 -105.3,71.66 -191.85,83.66 31.7,15.15 55.63,30.24 72.07,44.98 34.86,31.9 67.83,72.07 98.75,120.2l156.11 245.81 -149.14 0 -119.4 -187.83c-34.66,-54.45 -63.41,-95.87 -85.93,-124.62 -22.66,-28.75 -42.83,-48.74 -60.73,-60.33 -17.64,-11.33 -35.94,-19.31 -54.43,-23.93 -13.42,-2.75 -35.46,-4.22 -66.38,-4.22l-138.29 0 0 400.94 -119.72 0zm119.72 -504.3l256.4 0c54.57,0 97.08,-5.63 127.72,-17.04 30.7,-11.13 54.02,-29.15 69.78,-54.17 15.95,-24.79 23.93,-51.67 23.93,-80.91 0,-42.63 -15.35,-77.95 -46.19,-105.52 -30.9,-27.48 -79.64,-41.15 -146.26,-41.15l-285.37 0 0 298.77zm749.11 214.31l112.21 -10.07c5.24,45.39 17.64,82.59 37.21,111.75 19.51,29.03 49.81,52.56 90.77,70.66 40.97,17.84 87.21,26.88 138.43,26.88 45.65,0 85.73,-6.71 120.67,-20.37 34.86,-13.68 60.73,-32.39 77.69,-56.11 17.02,-23.73 25.68,-49.6 25.68,-77.35 0,-28.17 -8.18,-52.7 -24.61,-73.95 -16.35,-20.97 -43.5,-38.68 -81.31,-53.14 -24.13,-9.26 -77.75,-23.95 -160.75,-43.92 -83,-19.97 -140.98,-38.68 -174.15,-56.31 -43.12,-22.72 -75.02,-50.87 -96.07,-84.26 -21.18,-33.37 -31.7,-70.98 -31.7,-112.41 0,-45.79 13,-88.48 38.88,-127.98 25.82,-39.68 63.43,-69.78 113.23,-90.35 49.6,-20.59 104.83,-30.84 165.57,-30.84 66.84,0 125.89,10.65 176.96,32.31 51.03,21.46 90.31,53.16 117.85,95.19 27.54,41.83 42.23,89.28 44.32,142.24l-114.7 8.86c-6.11,-56.98 -26.88,-100.01 -62.42,-129.04 -35.52,-29.17 -88,-43.72 -157.39,-43.72 -72.27,0 -125.01,13.28 -158,39.76 -32.99,26.48 -49.6,58.38 -49.6,95.79 0,32.37 11.79,59.05 35.12,80.04 23.12,20.83 83,42.43 180.06,64.29 97.08,22.12 163.7,41.23 199.82,57.58 52.3,24.19 91.17,54.63 116.19,91.84 24.99,36.99 37.41,79.64 37.41,127.96 0,48.14 -13.62,93.12 -41.17,135.55 -27.54,42.43 -66.84,75.4 -118.32,98.93 -51.49,23.55 -109.27,35.34 -173.75,35.34 -81.53,0 -149.84,-11.99 -204.87,-35.74 -55.31,-23.73 -98.35,-59.45 -129.65,-107.39 -31.5,-47.66 -47.94,-101.68 -49.6,-162.01zm900.14 289.99l0 -902.69 119.8 0 0 902.69 -119.8 0zm330.09 0l0 -902.69 310.97 0c70.18,0 123.74,4.22 160.75,12.8 51.67,11.99 95.79,33.65 132.4,64.75 47.66,40.36 83.18,91.57 106.7,154.26 23.75,62.6 35.54,134.19 35.54,214.71 0,68.49 -7.98,129.23 -23.93,182.18 -16.03,52.96 -36.61,96.88 -61.62,131.54 -25.19,34.66 -52.48,61.94 -82.37,81.71 -29.63,19.97 -65.56,35.12 -107.53,45.39 -42.23,10.33 -90.57,15.35 -145.2,15.35l-325.71 0zm119.78 -105.92l192.45 0c59.47,0 106.12,-5.42 139.97,-16.55 33.79,-11.19 60.67,-26.68 80.85,-46.85 28.15,-28.43 50.27,-66.64 66.02,-114.58 15.75,-47.86 23.73,-105.84 23.73,-174.15 0,-94.59 -15.55,-167.26 -46.45,-218.13 -30.9,-50.81 -68.51,-84.86 -112.81,-102.1 -31.98,-12.4 -83.46,-18.5 -154.46,-18.5l-189.3 0 0 690.87zm691.73 105.92l346.23 -902.69 131.39 0 367.48 902.69 -135.96 0 -104.43 -273.58 -380.08 0 -97.94 273.58 -126.69 0zm259.7 -370.64l307.61 0 -94.11 -250.23c-28.37,-76.08 -49.81,-138.91 -64.75,-188.51 -12.42,58.87 -28.97,116.65 -49.83,173.77l-98.93 264.98zm680.12 370.64l0 -902.69 310.99 0c70.18,0 123.74,4.22 160.75,12.8 51.67,11.99 95.79,33.65 132.38,64.75 47.68,40.36 83.2,91.57 106.72,154.26 23.73,62.6 35.54,134.19 35.54,214.71 0,68.49 -7.98,129.23 -23.95,182.18 -16.01,52.96 -36.59,96.88 -61.6,131.54 -25.19,34.66 -52.48,61.94 -82.37,81.71 -29.63,19.97 -65.58,35.12 -107.53,45.39 -42.23,10.33 -90.57,15.35 -145.2,15.35l-325.73 0zm119.8 -105.92l192.45 0c59.47,0 106.12,-5.42 139.97,-16.55 33.77,-11.19 60.65,-26.68 80.85,-46.85 28.15,-28.43 50.27,-66.64 66.02,-114.58 15.75,-47.86 23.73,-105.84 23.73,-174.15 0,-94.59 -15.55,-167.26 -46.45,-218.13 -30.9,-50.81 -68.51,-84.86 -112.81,-102.1 -31.98,-12.4 -83.46,-18.5 -154.46,-18.5l-189.3 0 0 690.87z"/>
    <rect class="fil3" x="637.86" y="10262.3" width="15054.17" height="482.98"/>
   </g>
  </g>
 </g>
</svg>
