<?xml version="1.0" encoding="UTF-8"?>
<!DOCTYPE svg PUBLIC "-//W3C//DTD SVG 1.1//EN" "http://www.w3.org/Graphics/SVG/1.1/DTD/svg11.dtd">
<!-- Creator: CorelDRAW -->
<svg xmlns="http://www.w3.org/2000/svg" xml:space="preserve" width="81.28mm" height="81.28mm" version="1.1" style="shape-rendering:geometricPrecision; text-rendering:geometricPrecision; image-rendering:optimizeQuality; fill-rule:evenodd; clip-rule:evenodd"
viewBox="0 0 16329.93 16329.93"
 xmlns:xlink="http://www.w3.org/1999/xlink"
 xmlns:xodm="http://www.corel.com/coreldraw/odm/2003">
 <defs>
  <style type="text/css">
   <![CDATA[
    .fil0 {fill:#101010}
    .fil3 {fill:#990000}
    .fil1 {fill:white}
    .fil2 {fill:white;fill-rule:nonzero}
   ]]>
  </style>
 </defs>
 <g id="Layer_x0020_1">
  <metadata id="CorelCorpID_0Corel-Layer"/>
  <g id="_2370451502320">
   <rect class="fil0" width="16329.93" height="16329.93"/>
   <g>
    <path class="fil1" d="M7117.06 5420.08l0 -834.76 603.49 0 0 98.55 -493.09 0 0 255.56 461.79 0 0 97.96 -461.79 0 0 284.15 512.52 0 0 98.55 -622.92 0zm732.07 -238.08l92.48 -8.12c4.3,37.09 14.49,67.47 30.52,91.27 16.05,23.81 40.91,42.95 74.54,57.62 33.63,14.67 71.58,21.9 113.69,21.9 37.43,0 70.38,-5.5 99.01,-16.55 28.65,-11.21 50.05,-26.4 64.01,-45.73 13.98,-19.49 21.04,-40.52 21.04,-63.49 0,-23.29 -6.71,-43.46 -20.35,-60.9 -13.46,-17.42 -35.7,-31.9 -66.58,-43.64 -20.01,-7.76 -63.83,-19.83 -131.98,-36.22 -67.97,-16.39 -115.74,-31.74 -143.01,-46.23 -35.38,-18.46 -61.78,-41.59 -79.2,-69.01 -17.24,-27.42 -25.88,-58.14 -25.88,-92.3 0,-37.25 10.53,-72.29 31.74,-104.71 21.22,-32.61 52.28,-57.26 93,-74.18 40.89,-16.74 86.07,-25.19 135.94,-25.19 55.03,0 103.33,8.8 145.42,26.58 41.93,17.58 74.2,43.64 96.78,77.97 22.44,34.32 34.7,73.31 36.4,116.79l-94.03 7.07c-5.16,-46.75 -22.24,-82.29 -51.39,-106.1 -29.17,-23.97 -72.11,-35.88 -129.04,-35.88 -59.35,0 -102.48,10.87 -129.75,32.61 -27.06,21.74 -40.7,47.96 -40.7,78.5 0,26.74 9.66,48.64 28.81,65.72 18.99,17.26 68.15,34.86 147.85,52.8 79.7,18.12 134.39,33.81 164.06,47.27 43.12,19.99 75.04,45.2 95.57,75.54 20.51,30.56 30.7,65.74 30.7,105.42 0,39.52 -11.21,76.61 -33.81,111.44 -22.58,34.84 -55.03,61.94 -97.3,81.43 -42.25,19.33 -89.87,28.97 -142.65,28.97 -67.12,0 -123.36,-9.64 -168.56,-29.31 -45.37,-19.49 -80.91,-48.82 -106.78,-88.16 -25.7,-39.16 -39.34,-83.68 -40.54,-133.18zm1252.29 -21.74l98.14 24.85c-20.51,80.38 -57.6,141.8 -110.92,184.23 -53.48,42.27 -118.68,63.31 -195.97,63.31 -79.88,0 -144.74,-16.19 -194.76,-48.64 -50.03,-32.61 -88.16,-79.7 -114.22,-141.28 -26.04,-61.76 -39.16,-128.02 -39.16,-198.74 0,-77.11 14.67,-144.39 44.16,-201.83 29.51,-57.46 71.42,-101.12 125.95,-130.95 54.33,-29.84 114.2,-44.68 179.57,-44.68 74.18,0 136.48,18.81 187.01,56.6 50.55,37.77 85.75,90.73 105.58,159.22l-96.44 22.76c-17.24,-53.98 -42.09,-93.14 -74.86,-117.81 -32.61,-24.67 -73.67,-36.93 -123.36,-36.93 -56.92,0 -104.37,13.62 -142.67,40.89 -38.29,27.42 -65.22,64.01 -80.56,110.08 -15.53,45.87 -23.29,93.32 -23.29,142.14 0,63.15 9.14,117.99 27.42,165.11 18.46,46.91 46.91,82.11 85.73,105.4 38.82,23.29 80.75,34.84 125.95,34.84 54.87,0 101.26,-15.87 139.39,-47.43 38.13,-31.74 63.83,-78.84 77.29,-141.12zm705.07 -481.14l98.16 0 0 428.18c0,74.36 -8.46,133.52 -25.35,177.34 -16.92,43.82 -47.29,79.36 -91.27,106.8 -44,27.58 -101.62,41.21 -173.04,41.21 -69.33,0 -126.27,-11.89 -170.25,-35.88 -44.18,-23.79 -75.74,-58.48 -94.55,-103.85 -18.99,-45.37 -28.31,-107.13 -28.31,-185.62l0 -428.18 98 0 0 427.66c0,64.35 6.05,111.79 17.94,142.16 11.91,30.52 32.61,54 61.6,70.56 29.15,16.55 64.85,24.83 106.94,24.83 72.11,0 123.52,-16.37 154.24,-49.16 30.54,-32.61 45.89,-95.41 45.89,-188.39l0 -427.66zm263.43 740.95l0 -740.95 535.65 0 0 87.46 -437.66 0 0 226.87 409.9 0 0 86.93 -409.9 0 0 252.22 454.92 0 0 87.48 -552.9 0zm684.2 0l0 -740.95 98.14 0 0 653.48 364.87 0 0 87.48 -463.02 0zm498.38 0l284.65 -740.95 105.58 0 303.29 740.95 -111.79 0 -86.43 -224.46 -309.84 0 -81.25 224.46 -104.21 0zm213.77 -304.32l251.34 0 -77.45 -205.13c-23.47,-62.26 -41.07,-113.49 -52.46,-153.7 -9.48,47.6 -22.76,94.71 -40.02,141.62l-81.41 217.2zm-3756.03 1314.37l110.58 27.99c-23.12,90.57 -64.91,159.76 -124.97,207.58 -60.25,47.62 -133.73,71.32 -220.78,71.32 -89.99,0 -163.06,-18.28 -219.43,-54.81 -56.36,-36.73 -99.31,-89.79 -128.66,-159.18 -29.35,-69.58 -44.12,-144.21 -44.12,-223.89 0,-86.87 16.51,-162.68 49.75,-227.39 33.25,-64.73 80.48,-113.9 141.9,-147.53 61.2,-33.61 128.66,-50.33 202.32,-50.33 83.56,0 153.74,21.18 210.67,63.75 56.94,42.55 96.6,102.22 118.94,179.39l-108.63 25.64c-19.43,-60.84 -47.41,-104.94 -84.36,-132.74 -36.73,-27.79 -82.98,-41.59 -138.95,-41.59 -64.15,0 -117.59,15.35 -160.73,46.07 -43.16,30.9 -73.47,72.11 -90.77,124 -17.5,51.69 -26.24,105.14 -26.24,160.15 0,71.14 10.31,132.94 30.9,185.98 20.79,52.88 52.86,92.54 96.6,118.76 43.72,26.24 90.95,39.26 141.88,39.26 61.8,0 114.08,-17.86 157.03,-53.44 42.95,-35.76 71.91,-88.82 87.07,-158.98zm206.68 -68.21c0,-123 32.95,-219.25 99.03,-288.79 66.08,-69.51 151.31,-104.37 255.84,-104.37 68.33,0 130.09,16.39 184.94,49 54.85,32.79 96.78,78.31 125.59,136.8 28.81,58.3 43.14,124.72 43.14,198.74 0,75.22 -15.01,142.51 -45.37,201.67 -30.38,59.35 -73.33,104.19 -128.86,134.73 -55.73,30.54 -115.6,45.71 -179.93,45.71 -69.88,0 -132.16,-16.74 -187.03,-50.53 -55.01,-33.65 -96.6,-79.7 -124.89,-138 -28.31,-58.14 -42.45,-119.92 -42.45,-184.96zm101.1 1.55c0,89.38 23.99,159.58 71.95,211 48.14,51.41 108.33,77.11 180.78,77.11 73.85,0 134.57,-25.88 182.18,-77.79 47.62,-51.94 71.6,-125.59 71.6,-220.98 0,-60.21 -10.37,-112.83 -30.72,-157.85 -20.35,-45.02 -50.19,-79.88 -89.36,-104.73 -39.32,-24.67 -83.32,-37.09 -132.14,-37.09 -69.53,0 -129.23,23.81 -179.23,71.6 -50.03,47.62 -75.06,127.32 -75.06,238.74zm729.74 359.37l0 -740.95 98.16 0 0 653.5 364.85 0 0 87.46 -463.02 0zm549.97 -360.91c0,-123 32.95,-219.25 99.03,-288.79 66.08,-69.51 151.31,-104.37 255.84,-104.37 68.31,0 130.09,16.39 184.94,49 54.85,32.79 96.78,78.31 125.59,136.8 28.81,58.3 43.14,124.72 43.14,198.74 0,75.22 -15.01,142.51 -45.37,201.67 -30.38,59.35 -73.33,104.19 -128.88,134.73 -55.71,30.54 -115.58,45.71 -179.93,45.71 -69.86,0 -132.14,-16.74 -187.01,-50.53 -55.03,-33.65 -96.6,-79.7 -124.89,-138 -28.31,-58.14 -42.45,-119.92 -42.45,-184.96zm101.1 1.55c0,89.38 23.99,159.58 71.95,211 48.12,51.41 108.33,77.11 180.78,77.11 73.85,0 134.57,-25.88 182.18,-77.79 47.62,-51.94 71.6,-125.59 71.6,-220.98 0,-60.21 -10.37,-112.83 -30.72,-157.85 -20.35,-45.02 -50.19,-79.88 -89.36,-104.73 -39.34,-24.67 -83.32,-37.09 -132.14,-37.09 -69.53,0 -129.23,23.81 -179.25,71.6 -50.03,47.62 -75.04,127.32 -75.04,238.74zm730.77 359.37l0 -740.95 147.69 0 175.27 524.62c16.21,48.82 28.11,85.41 35.36,109.72 8.46,-26.9 21.56,-66.6 39.5,-118.86l177.34 -515.47 131.98 0 0 740.95 -94.55 0 0 -620.21 -215.29 620.21 -88.5 0 -214.25 -630.72 0 630.72 -94.55 0zm861.2 0l0 -740.95 278.1 0c56.58,0 101.96,7.59 136.12,22.42 34.34,15.03 61.06,38.13 80.38,69.35 19.33,31.06 29.15,63.67 29.15,97.82 0,31.56 -8.62,61.4 -25.86,89.34 -17.1,27.97 -43.14,50.57 -77.83,67.81 44.86,13.12 79.2,35.54 103.35,67.1 24.15,31.76 36.22,69.19 36.22,112.33 0,34.66 -7.41,66.92 -22.08,96.76 -14.65,29.86 -32.77,52.8 -54.35,69.01 -21.56,16.21 -48.64,28.31 -81.07,36.57 -32.45,8.28 -72.29,12.44 -119.56,12.44l-282.58 0zm98.16 -429.56l160.27 0c43.3,0 74.52,-2.93 93.5,-8.62 24.85,-7.43 43.66,-19.67 56.23,-36.93 12.6,-17.24 18.99,-38.82 18.99,-64.69 0,-24.49 -5.87,-46.23 -17.6,-64.87 -11.91,-18.81 -28.81,-31.56 -50.55,-38.45 -21.92,-6.91 -59.51,-10.35 -112.83,-10.35l-148.01 0 0 223.91zm0 342.11l184.41 0c31.74,0 54,-1.23 66.76,-3.48 22.6,-4.12 41.41,-10.87 56.58,-20.35 15.19,-9.32 27.6,-23.12 37.45,-41.05 9.66,-18.12 14.67,-38.82 14.67,-62.44 0,-27.6 -7.09,-51.59 -21.24,-72.13 -14.14,-20.35 -33.81,-34.68 -58.99,-42.95 -25.01,-8.12 -61.24,-12.24 -108.35,-12.24l-171.3 0 0 254.63zm613.12 87.46l0 -740.95 97.98 0 0 740.95 -97.98 0zm189.42 0l284.65 -740.95 105.58 0 303.29 740.95 -111.81 0 -86.43 -224.46 -309.82 0 -81.27 224.46 -104.19 0zm213.75 -304.32l251.36 0 -77.47 -205.11c-23.45,-62.28 -41.07,-113.51 -52.44,-153.72 -9.48,47.6 -22.78,94.71 -40.02,141.62l-81.43 217.2zm557.04 304.32l0 -740.95 100.6 0 389.18 581.71 0 -581.71 94.03 0 0 740.95 -100.58 0 -389.2 -582.24 0 582.24 -94.03 0zm667.12 0l284.65 -740.95 105.58 0 303.29 740.95 -111.79 0 -86.45 -224.46 -309.82 0 -81.27 224.46 -104.19 0zm213.75 -304.32l251.36 0 -77.45 -205.11c-23.47,-62.28 -41.07,-113.51 -52.46,-153.72 -9.48,47.6 -22.78,94.71 -40.02,141.62l-81.43 217.2zm-6438.53 1607.08l0 -740.95 255.16 0c57.62,0 101.6,3.64 131.98,10.69 42.43,9.68 78.66,27.44 108.67,52.98 39,33.11 68.33,75.2 87.64,126.61 19.51,51.41 29.15,110.06 29.15,176.14 0,56.23 -6.55,106.1 -19.83,149.58 -13.12,43.48 -29.86,79.52 -50.55,107.99 -20.51,28.47 -42.95,50.89 -67.47,67.1 -24.31,16.39 -53.8,28.81 -88.32,37.27 -34.68,8.46 -74.34,12.6 -119.02,12.6l-267.41 0zm98 -87.46l158.2 0c48.8,0 87.28,-4.5 115.06,-13.64 27.77,-9.14 49.85,-21.9 66.42,-38.47 23.29,-23.12 41.39,-54.51 54.35,-93.66 12.92,-39.34 19.49,-86.77 19.49,-142.85 0,-77.45 -12.78,-136.98 -38.13,-178.55 -25.54,-41.75 -56.42,-69.53 -92.8,-83.68 -26.24,-10.19 -68.67,-15.17 -126.81,-15.17l-155.77 0 0 566.02zm651.59 87.46l0 -740.95 535.65 0 0 87.48 -437.66 0 0 226.85 409.9 0 0 86.95 -409.9 0 0 252.22 454.92 0 0 87.46 -552.9 0zm1041.27 0l0 -834.76 110.4 0 0 834.76 -110.4 0zm293.99 0l0 -740.95 100.58 0 389.18 581.71 0 -581.71 94.03 0 0 740.95 -100.58 0 -389.2 -582.24 0 582.24 -94.01 0zm1095.3 -290.7l0 -86.77 313.8 -0.52 0 274.82c-48.14,38.47 -97.82,67.28 -149.05,86.77 -51.23,19.33 -103.85,28.99 -157.69,28.99 -72.79,0 -139.03,-15.53 -198.38,-46.75 -59.53,-31.06 -104.37,-76.27 -134.73,-135.09 -30.38,-58.99 -45.55,-124.91 -45.55,-197.7 0,-72.11 15.17,-139.39 45.37,-201.85 30.02,-62.6 73.49,-109.01 130.09,-139.37 56.58,-30.2 121.79,-45.39 195.63,-45.39 53.48,0 101.94,8.64 145.26,26.06 43.3,17.24 77.29,41.41 101.78,72.45 24.67,31.06 43.3,71.42 56.23,121.29l-88.5 24.33c-11.21,-37.79 -25.01,-67.47 -41.41,-89.04 -16.55,-21.56 -40.18,-38.82 -70.88,-51.73 -30.54,-12.94 -64.71,-19.51 -101.96,-19.51 -44.86,0 -83.68,6.91 -116.29,20.53 -32.77,13.62 -58.99,31.58 -79.18,53.82 -20.01,22.26 -35.54,46.57 -46.75,73.33 -18.81,45.71 -28.29,95.39 -28.29,149.05 0,66.06 11.37,121.27 34.15,165.77 22.76,44.5 55.89,77.45 99.37,99.03 43.48,21.56 89.53,32.43 138.35,32.43 42.61,0 84.02,-8.28 124.38,-24.67 40.54,-16.21 71.08,-33.63 91.96,-52.26l0 -138.02 -217.71 0zm460.44 290.7l0 -740.95 535.65 0 0 87.48 -437.66 0 0 226.85 409.9 0 0 86.95 -409.9 0 0 252.22 454.92 0 0 87.46 -552.9 0zm687.29 0l0 -740.95 100.58 0 389.18 581.71 0 -581.71 94.03 0 0 740.95 -100.58 0 -389.2 -582.24 0 582.24 -94.01 0zm765.26 0l0 -740.95 98 0 0 740.95 -98 0zm272.94 0l0 -740.95 535.65 0 0 87.48 -437.66 0 0 226.85 409.9 0 0 86.95 -409.9 0 0 252.22 454.92 0 0 87.46 -552.9 0zm689.86 0l0 -740.95 328.49 0c66.08,0 116.27,6.73 150.6,20.01 34.32,13.28 61.76,36.75 82.45,70.4 20.53,33.81 30.72,71.06 30.72,111.79 0,52.62 -16.92,96.78 -51.07,132.82 -33.99,36.06 -86.61,59.01 -157.67,68.85 26.04,12.42 45.71,24.67 59.17,36.91 28.63,26.22 55.73,59.17 81.43,98.51l128.86 201.67 -123.34 0 -97.98 -154.22c-28.65,-44.34 -52.28,-78.52 -70.92,-101.96 -18.44,-23.65 -35.02,-40.2 -49.66,-49.52 -14.69,-9.48 -29.51,-16.03 -44.7,-19.83 -11.21,-2.25 -29.31,-3.46 -54.67,-3.46l-113.69 0 0 328.99 -98 0zm98 -413.87l210.81 0c44.68,0 79.88,-4.66 105.06,-13.96 25.37,-9.32 44.52,-24.15 57.62,-44.5 13.12,-20.35 19.67,-42.45 19.67,-66.42 0,-35.04 -12.6,-63.83 -38.13,-86.43 -25.35,-22.6 -65.56,-33.81 -120.59,-33.81l-234.44 0 0 245.13zm664.69 413.87l0 -740.95 98 0 0 740.95 -98 0zm-25.35 -786.5l67.28 -141.46 119.2 0 -111.1 141.46 -75.38 0zm214.79 786.5l284.63 -740.95 105.58 0 303.29 740.95 -111.79 0 -86.43 -224.46 -309.82 0 -81.27 224.46 -104.19 0zm213.75 -304.32l251.34 0 -77.45 -205.11c-23.47,-62.28 -41.07,-113.51 -52.46,-153.72 -9.48,47.6 -22.76,94.71 -40.02,141.62l-81.41 217.2zm-7268.09 1370.16l99.71 -13.62c2.51,63.75 14.57,107.49 35.76,131.01 21.38,23.51 50.71,35.16 88.24,35.16 27.79,0 51.69,-6.21 71.7,-19.05 20.21,-12.62 34.01,-29.92 41.61,-51.69 7.57,-21.96 11.45,-56.74 11.45,-104.55l0 -575.1 110.4 0 0 568.88c0,69.78 -8.36,124 -25.27,162.29 -16.9,38.27 -43.72,67.45 -80.26,87.64 -36.73,20.03 -79.68,30.14 -129.04,30.14 -73.27,0 -129.27,-20.97 -168.32,-63.17 -38.88,-42.17 -57.52,-104.75 -55.97,-187.93zm1115.47 -504.04l98.16 0 0 428.18c0,74.36 -8.46,133.52 -25.35,177.34 -16.92,43.82 -47.29,79.36 -91.27,106.8 -44,27.58 -101.62,41.23 -173.04,41.23 -69.33,0 -126.27,-11.91 -170.25,-35.88 -44.18,-23.81 -75.74,-58.48 -94.55,-103.87 -18.99,-45.37 -28.31,-107.13 -28.31,-185.62l0 -428.18 98 0 0 427.66c0,64.37 6.05,111.81 17.94,142.16 11.91,30.52 32.61,54 61.6,70.56 29.15,16.55 64.85,24.83 106.94,24.83 72.11,0 123.52,-16.37 154.24,-49.16 30.54,-32.59 45.89,-95.39 45.89,-188.39l0 -427.66zm257.22 740.95l0 -740.95 98.14 0 0 653.5 364.87 0 0 87.46 -463.02 0zm596.54 0l0 -740.95 97.98 0 0 740.95 -97.98 0zm241.01 -360.91c0,-123 32.95,-219.25 99.01,-288.79 66.08,-69.51 151.31,-104.35 255.86,-104.35 68.31,0 130.07,16.39 184.92,48.98 54.87,32.79 96.78,78.31 125.61,136.82 28.81,58.28 43.12,124.7 43.12,198.72 0,75.22 -15.01,142.51 -45.37,201.67 -30.36,59.35 -73.33,104.19 -128.86,134.73 -55.73,30.54 -115.58,45.73 -179.93,45.73 -69.88,0 -132.16,-16.74 -187.01,-50.55 -55.03,-33.65 -96.62,-79.7 -124.91,-138 -28.29,-58.14 -42.43,-119.9 -42.43,-184.96zm101.08 1.57c0,89.36 23.99,159.56 71.95,210.98 48.14,51.41 108.35,77.13 180.8,77.13 73.83,0 134.57,-25.9 182.18,-77.81 47.6,-51.94 71.58,-125.59 71.58,-220.98 0,-60.21 -10.35,-112.83 -30.7,-157.85 -20.37,-45.02 -50.21,-79.88 -89.38,-104.73 -39.32,-24.67 -83.3,-37.09 -132.14,-37.09 -69.51,0 -129.2,23.83 -179.23,71.6 -50.03,47.62 -75.06,127.32 -75.06,238.76zm1458.64 31.84l0 -97.74 353.54 -0.58 0 309.6c-54.25,43.34 -110.2,75.8 -167.94,97.76 -57.72,21.76 -116.99,32.65 -177.62,32.65 -82.03,0 -156.67,-17.48 -223.53,-52.68 -67.04,-34.98 -117.57,-85.91 -151.79,-152.17 -34.19,-66.48 -51.31,-140.72 -51.31,-222.73 0,-81.25 17.12,-157.05 51.13,-227.41 33.81,-70.54 82.79,-122.82 146.54,-157.03 63.75,-34.01 137.2,-51.11 220.4,-51.11 60.25,0 114.86,9.72 163.64,29.35 48.78,19.43 87.07,46.63 114.68,81.63 27.79,34.98 48.78,80.44 63.35,136.64l-99.69 27.38c-12.64,-42.55 -28.19,-75.98 -46.65,-100.27 -18.66,-24.29 -45.29,-43.74 -79.88,-58.3 -34.4,-14.59 -72.89,-21.98 -114.86,-21.98 -50.53,0 -94.27,7.78 -130.99,23.14 -36.93,15.35 -66.48,35.56 -89.2,60.63 -22.56,25.07 -40.04,52.48 -52.68,82.59 -21.18,51.51 -31.88,107.49 -31.88,167.92 0,74.44 12.84,136.64 38.49,186.79 25.66,50.13 62.97,87.26 111.95,111.55 48.96,24.29 100.88,36.55 155.87,36.55 48.02,0 94.65,-9.32 140.13,-27.79 45.67,-18.28 80.08,-37.89 103.59,-58.89l0 -155.5 -245.27 0zm424.86 327.5l284.63 -740.95 105.58 0 303.29 740.95 -111.79 0 -86.43 -224.46 -309.82 0 -81.27 224.46 -104.19 0zm213.75 -304.32l251.34 0 -77.45 -205.11c-23.47,-62.28 -41.07,-113.51 -52.46,-153.72 -9.48,47.6 -22.76,94.71 -40.02,141.62l-81.41 217.2zm559.61 304.32l0 -740.95 328.49 0c66.08,0 116.27,6.73 150.6,20.01 34.32,13.28 61.76,36.75 82.45,70.4 20.53,33.81 30.72,71.08 30.72,111.79 0,52.62 -16.92,96.78 -51.07,132.82 -33.99,36.06 -86.61,59.01 -157.67,68.85 26.04,12.42 45.71,24.67 59.17,36.91 28.63,26.22 55.73,59.17 81.43,98.51l128.86 201.67 -123.34 0 -97.98 -154.22c-28.65,-44.34 -52.28,-78.52 -70.92,-101.96 -18.44,-23.65 -35.02,-40.2 -49.68,-49.52 -14.67,-9.48 -29.49,-16.03 -44.68,-19.83 -11.21,-2.25 -29.31,-3.46 -54.67,-3.46l-113.69 0 0 328.99 -98 0zm98 -413.87l210.81 0c44.68,0 79.86,-4.66 105.06,-13.96 25.37,-9.32 44.52,-24.15 57.62,-44.5 13.12,-20.35 19.67,-42.45 19.67,-66.42 0,-35.04 -12.6,-63.83 -38.13,-86.43 -25.35,-22.6 -65.56,-33.81 -120.59,-33.81l-234.44 0 0 245.13zm566.55 413.87l284.63 -740.95 105.58 0 303.29 740.95 -111.79 0 -86.43 -224.46 -309.82 0 -81.27 224.46 -104.19 0zm213.75 -304.32l251.36 0 -77.47 -205.11c-23.47,-62.28 -41.07,-113.51 -52.44,-153.72 -9.5,47.6 -22.78,94.71 -40.04,141.62l-81.41 217.2zm693 304.32l-287.08 -740.95 106.28 0 192.51 538.24c15.53,43.14 28.47,83.68 38.82,121.29 11.57,-40.36 24.85,-80.73 40.02,-121.29l200.13 -538.24 100.07 0 -290.17 740.95 -100.58 0zm495.44 0l0 -740.95 98 0 0 740.95 -98 0zm459.42 0l0 -653.48 -244.11 0 0 -87.48 587.24 0 0 87.48 -245.15 0 0 653.48 -97.98 0zm395.21 -360.91c0,-123 32.95,-219.25 99.03,-288.79 66.08,-69.51 151.31,-104.35 255.84,-104.35 68.33,0 130.09,16.39 184.94,48.98 54.87,32.79 96.78,78.31 125.59,136.82 28.83,58.28 43.14,124.7 43.14,198.72 0,75.22 -15.01,142.51 -45.37,201.67 -30.38,59.35 -73.33,104.19 -128.86,134.73 -55.73,30.54 -115.6,45.73 -179.93,45.73 -69.88,0 -132.16,-16.74 -187.01,-50.55 -55.03,-33.65 -96.62,-79.7 -124.91,-138 -28.31,-58.14 -42.45,-119.9 -42.45,-184.96zm101.1 1.57c0,89.36 23.99,159.56 71.95,210.98 48.14,51.41 108.35,77.13 180.8,77.13 73.83,0 134.55,-25.9 182.18,-77.81 47.6,-51.94 71.58,-125.59 71.58,-220.98 0,-60.21 -10.35,-112.83 -30.72,-157.85 -20.35,-45.02 -50.19,-79.88 -89.36,-104.73 -39.32,-24.67 -83.32,-37.09 -132.14,-37.09 -69.53,0 -129.2,23.83 -179.23,71.6 -50.03,47.62 -75.06,127.32 -75.06,238.76z"/>
    <g>
     <g>
      <g>
       <path class="fil2" d="M3167.74 9660.26c-11.89,11.95 -31.26,11.99 -43.22,0.1 -11.95,-11.89 -11.99,-31.26 -0.1,-43.22l43.32 43.12zm2928.48 -2942.76l-2928.48 2942.76 -43.32 -43.12 2928.48 -2942.76 43.32 43.12zm-43.32 -43.12c11.89,-11.95 31.26,-11.99 43.22,-0.1 11.95,11.89 11.99,31.26 0.1,43.22l-43.32 -43.12z"/>
      </g>
      <g>
       <path class="fil2" d="M5129.5 9644.67c-3.27,16.55 -19.37,27.3 -35.92,24.03 -16.55,-3.27 -27.3,-19.37 -24.03,-35.92l59.95 11.89zm973.71 -4910.73l-973.71 4910.73 -59.95 -11.89 973.71 -4910.73 59.95 11.89zm-59.95 -11.89c3.27,-16.55 19.37,-27.3 35.92,-24.03 16.55,3.27 27.3,19.37 24.03,35.92l-59.95 -11.89z"/>
      </g>
      <g>
       <path class="fil2" d="M4160.8 9636.03c-7.47,15.11 -25.84,21.3 -40.95,13.82 -15.11,-7.47 -21.3,-25.84 -13.82,-40.95l54.77 27.12zm1941.15 -3922.2l-1941.15 3922.2 -54.77 -27.12 1941.15 -3922.2 54.77 27.12zm-54.77 -27.12c7.47,-15.11 25.84,-21.3 40.95,-13.82 15.11,7.47 21.3,25.84 13.82,40.95l-54.77 -27.12z"/>
      </g>
      <g>
       <path class="fil2" d="M2174.22 9666c-15.07,7.57 -33.45,1.49 -41.03,-13.58 -7.57,-15.07 -1.49,-33.45 13.58,-41.03l27.44 54.61zm3914.06 -1968.51l-3914.06 1968.51 -27.44 -54.61 3914.06 -1968.51 27.44 54.61zm-27.44 -54.61c15.07,-7.57 33.45,-1.49 41.03,13.58 7.57,15.07 1.49,33.45 -13.58,41.03l-27.44 -54.61z"/>
      </g>
      <g>
       <path class="fil2" d="M1190.35 9661.08c-16.55,3.29 -32.65,-7.45 -35.94,-24.01 -3.29,-16.55 7.45,-32.65 24.01,-35.94l11.93 59.95zm4890.18 -973.59l-4890.18 973.59 -11.93 -59.95 4890.18 -973.59 11.93 59.95zm-11.93 -59.95c16.55,-3.29 32.65,7.45 35.94,24.01 3.29,16.55 -7.45,32.65 -24.01,35.94l-11.93 -59.95z"/>
      </g>
     </g>
     <g>
      <path class="fil2" d="M3146.08 9669.28c-16.88,0 -30.56,-13.68 -30.56,-30.56 0,-16.88 13.68,-30.56 30.56,-30.56l0 61.12zm483.69 -0.02l-483.69 0.02 0 -61.12 483.69 -0.02 24.89 48.28 -24.89 12.84zm0 -61.12c16.88,0 30.56,13.68 30.56,30.56 0,16.88 -13.68,30.56 -30.56,30.56l0 -61.12zm2469.68 -3384.3l-2444.79 3432.58 -49.79 -35.44 2444.79 -3432.58 55.45 17.72 -5.67 17.72zm-49.79 -35.44c9.78,-13.74 28.87,-16.96 42.61,-7.17 13.74,9.78 16.96,28.87 7.17,42.61l-49.79 -35.44zm55.45 -488.13l0 505.85 -61.12 0 0 -505.85 61.12 0zm-61.12 0c0,-16.88 13.68,-30.56 30.56,-30.56 16.88,0 30.56,13.68 30.56,30.56l-61.12 0z"/>
     </g>
     <g>
      <path class="fil2" d="M6044 8657.52c0,-16.88 13.68,-30.56 30.56,-30.56 16.88,0 30.56,13.68 30.56,30.56l-61.12 0zm0 491.24l0 -491.24 61.12 0 0 491.24 -27.5 30.4 -33.61 -30.4zm61.12 0c0,16.88 -13.68,30.56 -30.56,30.56 -16.88,0 -30.56,-13.68 -30.56,-30.56l61.12 0zm-4923.79 459.54l4890.18 -489.94 6.11 60.8 -4890.18 489.94 -3.05 0.16 -3.05 -60.96zm6.11 60.8c-16.78,1.67 -31.78,-10.57 -33.45,-27.34 -1.67,-16.78 10.57,-31.78 27.34,-33.45l6.11 60.8zm498.5 0.16l-501.55 0 0 -61.12 501.55 0 9.74 59.51 -9.74 1.61zm0 -61.12c16.88,0 30.56,13.68 30.56,30.56 0,16.88 -13.68,30.56 -30.56,30.56l0 -61.12zm4398.37 -1418.04l-4388.63 1477.55 -19.49 -57.9 4388.63 -1477.55 40.3 28.95 -20.81 28.95zm-19.49 -57.9c15.97,-5.36 33.33,3.23 38.7,19.21 5.36,15.97 -3.23,33.33 -19.21,38.7l-19.49 -57.9zm40.3 -462.01l0 490.96 -61.12 0 0 -490.96 61.12 0zm-61.12 0c0,-16.88 13.68,-30.56 30.56,-30.56 16.88,0 30.56,13.68 30.56,30.56l-61.12 0z"/>
     </g>
     <g>
      <path class="fil2" d="M6044 6695.96c0,-16.88 13.68,-30.56 30.56,-30.56 16.88,0 30.56,13.68 30.56,30.56l-61.12 0zm0 482.67l0 -482.67 61.12 0 0 482.67 -12.74 24.83 -48.38 -24.83zm61.12 0c0,16.88 -13.68,30.56 -30.56,30.56 -16.88,0 -30.56,-13.68 -30.56,-30.56l61.12 0zm-3475.76 2435.25l3427.38 -2460.08 35.64 49.66 -3427.38 2460.08 -17.82 5.73 -17.82 -55.39zm35.64 49.66c-13.7,9.82 -32.83,6.69 -42.65,-7.01 -9.82,-13.7 -6.69,-32.83 7.01,-42.65l35.64 49.66zm-504.5 -55.39l486.68 0 0 61.12 -486.68 0 0 -61.12zm0 61.12c-16.88,0 -30.56,-13.68 -30.56,-30.56 0,-16.88 13.68,-30.56 30.56,-30.56l0 61.12z"/>
     </g>
     <g>
      <path class="fil2" d="M6375.43 9153.84c0,16.88 -12.36,30.56 -27.58,30.56 -15.23,0 -27.58,-13.68 -27.58,-30.56l55.17 0zm0 -4935.37l0 4935.37 -55.17 0 0 -4935.37 55.17 0zm-55.17 0c0,-16.88 12.36,-30.56 27.58,-30.56 15.23,0 27.58,13.68 27.58,30.56l-55.17 0z"/>
     </g>
     <g>
      <path class="fil2" d="M6616.42 9835.07c16.88,0 30.56,12.74 30.56,28.45 0,15.71 -13.68,28.45 -30.56,28.45l0 -56.9zm-5938.65 0l5938.65 0 0 56.9 -5938.65 0 0 -56.9zm0 56.9c-16.88,0 -30.56,-12.74 -30.56,-28.45 0,-15.71 13.68,-28.45 30.56,-28.45l0 56.9z"/>
     </g>
     <g>
      <path class="fil2" d="M5099.53 9669.26c-16.88,0 -30.56,-13.68 -30.56,-30.56 0,-16.88 13.68,-30.56 30.56,-30.56l0 61.12zm492.91 0l-492.91 0 0 -61.12 492.91 0 30.42 33.53 -30.42 27.58zm0 -61.12c16.88,0 30.56,13.68 30.56,30.56 0,16.88 -13.68,30.56 -30.56,30.56l0 -61.12zm512.54 -4884.54l-482.12 4918.07 -60.84 -5.95 482.12 -4918.07 60.98 2.97 -0.14 2.97zm-60.84 -5.95c1.63,-16.8 16.6,-29.07 33.39,-27.44 16.8,1.63 29.07,16.6 27.44,33.39l-60.84 -5.95zm-0.14 510.07l0 -507.1 61.12 0 0 507.1 -1.55 9.56 -59.57 -9.56zm61.12 0c0,16.88 -13.68,30.56 -30.56,30.56 -16.88,0 -30.56,-13.68 -30.56,-30.56l61.12 0zm-1513.33 4401.41l1453.76 -4410.97 58.02 19.13 -1453.76 4410.97 -29.01 21 -29.01 -40.12zm58.02 19.13c-5.26,16.01 -22.56,24.71 -38.57,19.45 -16.01,-5.26 -24.71,-22.56 -19.45,-38.57l58.02 19.13zm-517.44 -40.1l488.43 -0.02 0 61.12 -488.43 0.02 0 -61.12zm0 61.12c-16.88,0 -30.56,-13.68 -30.56,-30.56 0,-16.88 13.68,-30.56 30.56,-30.56l0 61.12z"/>
     </g>
    </g>
    <path class="fil2" d="M4528.9 11193.58l119.72 0 0 521.34c0,90.75 -10.27,162.82 -30.64,216.18 -20.63,53.16 -57.58,96.66 -110.94,130.11 -53.62,33.39 -123.54,50.21 -210.55,50.21 -84.26,0 -153.37,-14.55 -207,-43.7 -53.76,-29.23 -92.04,-71.26 -114.9,-126.49 -22.92,-55.31 -34.46,-130.73 -34.46,-226.3l0 -521.34 119.72 0 0 521.14c0,78.35 7.37,136.34 21.86,173.34 14.55,37.21 39.34,65.96 74.8,85.93 35.34,20.19 78.64,30.24 129.65,30.24 87.42,0 149.82,-19.97 187.03,-59.65 37.21,-39.96 55.71,-116.45 55.71,-229.86l0 -521.14zm317.88 902.69l0 -902.69 122.74 0 473.6 708.57 0 -708.57 114.7 0 0 902.69 -122.68 0 -473.6 -708.55 0 708.55 -114.76 0zm931.92 0l0 -902.69 119.78 0 0 902.69 -119.78 0zm587.28 0l-348.84 -902.69 129.45 0 234.48 656.01c18.7,52.56 34.72,101.68 47.33,147.73 13.86,-49.4 30.02,-98.53 48.52,-147.73l243.34 -656.01 121.87 0 -351.99 902.69 -124.16 0zm586.21 0l0 -902.69 651.79 0 0 105.92 -532.07 0 0 277.4 498.01 0 0 105.84 -498.01 0 0 307.61 553.51 0 0 105.92 -673.23 0zm840.89 0l0 -902.69 400.07 0c80.44,0 141.58,8.18 183.41,24.41 41.83,16.15 75.2,44.7 100.21,85.73 24.99,40.97 37.39,86.35 37.39,135.96 0,64.07 -20.77,118.03 -62.12,161.95 -41.43,43.9 -105.32,71.66 -191.87,83.66 31.7,15.15 55.65,30.24 72.07,44.98 34.86,31.9 67.85,72.05 98.75,120.18l156.13 245.81 -149.16 0 -119.4 -187.83c-34.66,-54.43 -63.41,-95.85 -85.93,-124.6 -22.66,-28.77 -42.83,-48.74 -60.73,-60.33 -17.62,-11.33 -35.92,-19.31 -54.43,-23.95 -13.42,-2.73 -35.46,-4.22 -66.36,-4.22l-138.31 0 0 400.94 -119.72 0zm119.72 -504.3l256.42 0c54.57,0 97.06,-5.63 127.7,-17.02 30.7,-11.13 54.02,-29.17 69.78,-54.17 15.95,-24.81 23.93,-51.69 23.93,-80.91 0,-42.63 -15.35,-77.97 -46.19,-105.52 -30.9,-27.48 -79.62,-41.17 -146.26,-41.17l-285.37 0 0 298.77zm749.11 214.31l112.23 -10.05c5.22,45.39 17.62,82.57 37.19,111.75 19.51,29.03 49.83,52.56 90.77,70.66 40.97,17.82 87.21,26.86 138.43,26.86 45.65,0 85.75,-6.69 120.67,-20.37 34.86,-13.66 60.73,-32.37 77.69,-56.11 17.02,-23.73 25.68,-49.6 25.68,-77.35 0,-28.15 -8.18,-52.68 -24.61,-73.93 -16.35,-20.97 -43.5,-38.68 -81.31,-53.16 -24.13,-9.24 -77.75,-23.93 -160.75,-43.9 -83,-19.99 -140.98,-38.7 -174.15,-56.31 -43.12,-22.72 -75.02,-50.89 -96.07,-84.26 -21.18,-33.39 -31.7,-71 -31.7,-112.43 0,-45.77 13.02,-88.48 38.88,-127.96 25.82,-39.68 63.43,-69.78 113.23,-90.37 49.6,-20.57 104.83,-30.84 165.57,-30.84 66.84,0 125.89,10.67 176.98,32.33 51.01,21.44 90.29,53.16 117.83,95.19 27.56,41.83 42.23,89.28 44.32,142.24l-114.7 8.84c-6.11,-56.98 -26.88,-100.01 -62.4,-129.04 -35.54,-29.15 -88.02,-43.7 -157.41,-43.7 -72.25,0 -125.01,13.28 -158,39.74 -32.97,26.48 -49.6,58.4 -49.6,95.79 0,32.39 11.79,59.07 35.12,80.04 23.14,20.85 83,42.43 180.06,64.29 97.08,22.12 163.7,41.23 199.84,57.58 52.28,24.21 91.15,54.63 116.17,91.84 24.99,37.01 37.41,79.64 37.41,127.98 0,48.12 -13.62,93.1 -41.17,135.53 -27.54,42.43 -66.82,75.42 -118.32,98.95 -51.47,23.53 -109.27,35.32 -173.75,35.32 -81.53,0 -149.82,-11.99 -204.87,-35.72 -55.29,-23.73 -98.35,-59.47 -129.65,-107.39 -31.5,-47.68 -47.92,-101.7 -49.6,-162.03zm900.16 289.99l0 -902.69 119.78 0 0 902.69 -119.78 0zm330.07 0l0 -902.69 310.97 0c70.18,0 123.74,4.22 160.75,12.8 51.69,12.01 95.79,33.65 132.4,64.77 47.66,40.34 83.18,91.55 106.72,154.24 23.73,62.6 35.52,134.21 35.52,214.71 0,68.51 -7.98,129.25 -23.93,182.2 -16.03,52.96 -36.61,96.86 -61.6,131.52 -25.21,34.66 -52.5,61.94 -82.39,81.71 -29.63,19.99 -65.56,35.14 -107.53,45.39 -42.23,10.33 -90.57,15.35 -145.2,15.35l-325.71 0zm119.78 -105.92l192.45 0c59.47,0 106.12,-5.42 139.97,-16.55 33.79,-11.19 60.67,-26.68 80.85,-46.85 28.15,-28.43 50.27,-66.62 66.04,-114.56 15.75,-47.86 23.73,-105.86 23.73,-174.15 0,-94.59 -15.55,-167.26 -46.47,-218.15 -30.9,-50.81 -68.51,-84.86 -112.81,-102.08 -31.98,-12.4 -83.46,-18.5 -154.44,-18.5l-189.32 0 0 690.85zm691.73 105.92l346.23 -902.69 131.39 0 367.48 902.69 -135.94 0 -104.45 -273.56 -380.08 0 -97.94 273.56 -126.69 0zm259.7 -370.64l307.61 0 -94.11 -250.23c-28.37,-76.08 -49.81,-138.89 -64.75,-188.49 -12.42,58.85 -28.97,116.63 -49.81,173.75l-98.95 264.98zm680.14 370.64l0 -902.69 310.97 0c70.18,0 123.74,4.22 160.75,12.8 51.67,12.01 95.79,33.65 132.4,64.77 47.66,40.34 83.18,91.55 106.7,154.24 23.75,62.6 35.54,134.21 35.54,214.71 0,68.51 -7.98,129.25 -23.93,182.2 -16.03,52.96 -36.61,96.86 -61.62,131.52 -25.19,34.66 -52.48,61.94 -82.37,81.71 -29.63,19.99 -65.56,35.14 -107.53,45.39 -42.23,10.33 -90.57,15.35 -145.2,15.35l-325.71 0zm119.78 -105.92l192.45 0c59.47,0 106.12,-5.42 139.97,-16.55 33.79,-11.19 60.67,-26.68 80.85,-46.85 28.15,-28.43 50.27,-66.62 66.02,-114.56 15.77,-47.86 23.75,-105.86 23.75,-174.15 0,-94.59 -15.57,-167.26 -46.47,-218.15 -30.9,-50.81 -68.51,-84.86 -112.81,-102.08 -31.98,-12.4 -83.46,-18.5 -154.46,-18.5l-189.3 0 0 690.85z"/>
    <rect class="fil3" x="637.84" y="10262.27" width="15054.17" height="482.98"/>
   </g>
  </g>
 </g>
</svg>
