<?xml version="1.0" encoding="UTF-8" standalone="no"?>
<!DOCTYPE svg PUBLIC "-//W3C//DTD SVG 1.1//EN" "http://www.w3.org/Graphics/SVG/1.1/DTD/svg11.dtd">
<!-- Generated by Microsoft Visio, SVG Export ClassificationChartSample.svg Page-1 -->
<svg xmlns="http://www.w3.org/2000/svg" xmlns:xlink="http://www.w3.org/1999/xlink" xmlns:ev="http://www.w3.org/2001/xml-events"
		xmlns:v="http://schemas.microsoft.com/visio/2003/SVGExtensions/" width="6.86138in" height="3.38812in"
		viewBox="0 0 494.02 243.945" xml:space="preserve" color-interpolation-filters="sRGB" class="st7">
	<v:documentProperties v:langID="1033" v:metric="true" v:viewMarkup="false"/>

	<style type="text/css">
	<![CDATA[
		.st1 {fill:#f2f2f2;stroke:#990000;stroke-width:1.5}
		.st2 {fill:#000000;font-family:Segoe UI Light;font-size:0.666664em}
		.st3 {font-size:1em}
		.st4 {marker-end:url(#mrkr6-50);stroke:#7f7f7f;stroke-linecap:round;stroke-linejoin:round;stroke-width:0.5}
		.st5 {fill:#7f7f7f;fill-opacity:1;stroke:#7f7f7f;stroke-opacity:1;stroke-width:0.25773195876289}
		.st6 {marker-end:url(#mrkr6-86);stroke:#7f7f7f;stroke-linecap:round;stroke-linejoin:round;stroke-width:0.5}
		.st7 {fill:none;fill-rule:evenodd;font-size:12px;overflow:visible;stroke-linecap:square;stroke-miterlimit:3}
	]]>
	</style>

	<defs id="Markers">
		<g id="lend6">
			<path d="M 2 1 L 0 0 L 2.01237 -1.00641 C 2.32921 -0.372876 2.32921 0.372869 2.01238 1.0064 " style="stroke:none"/>
		</g>
		<marker id="mrkr6-50" class="st5" v:arrowType="6" v:arrowSize="0" v:setback="8.01" refX="-8.01" orient="auto"
				markerUnits="strokeWidth" overflow="visible">
			<use xlink:href="#lend6" transform="scale(-3.88,-3.88) "/>
		</marker>
		<marker id="mrkr6-86" class="st5" v:arrowType="6" v:arrowSize="0" v:setback="8.73" refX="-8.73" orient="auto"
				markerUnits="strokeWidth" overflow="visible">
			<use xlink:href="#lend6" transform="scale(-3.88,-3.88) "/>
		</marker>
	</defs>
	<g v:mID="0" v:index="1" v:groupContext="foregroundPage">
		<title>Page-1</title>
		<v:pageProperties v:drawingScale="0.0393701" v:pageScale="0.0393701" v:drawingUnits="24" v:shadowOffsetX="8.50394"
				v:shadowOffsetY="-8.50394"/>
		<v:layer v:name="Connector" v:index="0"/>
		<g id="shape236-1" v:mID="236" v:groupContext="shape" transform="translate(1.5,-72.3661)">
			<title>Rounded Rectangle.236</title>
			<desc>Clasificación flujo en canales a superficie libre</desc>
			<v:userDefs>
				<v:ud v:nameU="CTypeTopLeftSnip" v:prompt="" v:val="VT0(0):5"/>
				<v:ud v:nameU="CTypeTopRightSnip" v:prompt="" v:val="VT0(0):5"/>
				<v:ud v:nameU="CTypeBotLeftSnip" v:prompt="" v:val="VT0(0):5"/>
				<v:ud v:nameU="CTypeBotRightSnip" v:prompt="" v:val="VT0(0):5"/>
				<v:ud v:nameU="CornerLockHoriz" v:prompt="" v:val="VT0(1):5"/>
				<v:ud v:nameU="CornerLockVert" v:prompt="" v:val="VT0(1):5"/>
				<v:ud v:nameU="CornerLockDiag" v:prompt="" v:val="VT0(0):5"/>
				<v:ud v:nameU="TopLeftOffset" v:prompt="" v:val="VT0(0.15748031496063):24"/>
				<v:ud v:nameU="TopRightOffset" v:prompt="" v:val="VT0(0.15748031496063):24"/>
				<v:ud v:nameU="BotLeftOffset" v:prompt="" v:val="VT0(0.15748031496063):24"/>
				<v:ud v:nameU="BotRightOffset" v:prompt="" v:val="VT0(0.15748031496063):24"/>
				<v:ud v:nameU="visVersion" v:prompt="" v:val="VT0(15):26"/>
			</v:userDefs>
			<v:textBlock v:margins="rect(2,2,2,2)" v:tabSpace="42.5197"/>
			<v:textRect cx="47.9196" cy="232.606" width="95.84" height="22.6772"/>
			<path d="M11.34 243.94 L84.5 243.94 A11.3384 11.3384 -180 0 0 95.84 232.61 A11.3384 11.3384 -180 0 0 84.5 221.27 L11.34
						 221.27 A11.3384 11.3384 -180 0 0 0 232.61 A11.3384 11.3384 -180 0 0 11.34 243.94 Z" class="st1"/>
			<text x="14.13" y="230.21" class="st2" v:langID="1033"><v:paragraph v:horizAlign="1"/><v:tabList/>Clasificación flujo en <tspan
						x="7.36" dy="1.2em" class="st3">canales a superficie libre</tspan></text>		</g>
		<g id="shape238-5" v:mID="238" v:groupContext="shape" transform="translate(124.554,-126.224)">
			<title>Rounded Rectangle.238</title>
			<desc>Flujo permanente</desc>
			<v:userDefs>
				<v:ud v:nameU="CTypeTopLeftSnip" v:prompt="" v:val="VT0(0):5"/>
				<v:ud v:nameU="CTypeTopRightSnip" v:prompt="" v:val="VT0(0):5"/>
				<v:ud v:nameU="CTypeBotLeftSnip" v:prompt="" v:val="VT0(0):5"/>
				<v:ud v:nameU="CTypeBotRightSnip" v:prompt="" v:val="VT0(0):5"/>
				<v:ud v:nameU="CornerLockHoriz" v:prompt="" v:val="VT0(1):5"/>
				<v:ud v:nameU="CornerLockVert" v:prompt="" v:val="VT0(1):5"/>
				<v:ud v:nameU="CornerLockDiag" v:prompt="" v:val="VT0(0):5"/>
				<v:ud v:nameU="TopLeftOffset" v:prompt="" v:val="VT0(0.15748031496063):24"/>
				<v:ud v:nameU="TopRightOffset" v:prompt="" v:val="VT0(0.15748031496063):24"/>
				<v:ud v:nameU="BotLeftOffset" v:prompt="" v:val="VT0(0.15748031496063):24"/>
				<v:ud v:nameU="BotRightOffset" v:prompt="" v:val="VT0(0.15748031496063):24"/>
				<v:ud v:nameU="visVersion" v:prompt="" v:val="VT0(15):26"/>
			</v:userDefs>
			<v:textBlock v:margins="rect(2,2,2,2)" v:tabSpace="42.5197"/>
			<v:textRect cx="47.9196" cy="232.606" width="95.84" height="22.6772"/>
			<path d="M11.34 243.94 L84.5 243.94 A11.3384 11.3384 -180 0 0 95.84 232.61 A11.3384 11.3384 -180 0 0 84.5 221.27 L11.34
						 221.27 A11.3384 11.3384 -180 0 0 0 232.61 A11.3384 11.3384 -180 0 0 11.34 243.94 Z" class="st1"/>
			<text x="18.59" y="235.01" class="st2" v:langID="1033"><v:paragraph v:horizAlign="1"/><v:tabList/>Flujo permanente</text>		</g>
		<g id="shape240-8" v:mID="240" v:groupContext="shape" transform="translate(124.554,-27.0118)">
			<title>Rounded Rectangle.240</title>
			<desc>Flujo No permanente</desc>
			<v:userDefs>
				<v:ud v:nameU="CTypeTopLeftSnip" v:prompt="" v:val="VT0(0):5"/>
				<v:ud v:nameU="CTypeTopRightSnip" v:prompt="" v:val="VT0(0):5"/>
				<v:ud v:nameU="CTypeBotLeftSnip" v:prompt="" v:val="VT0(0):5"/>
				<v:ud v:nameU="CTypeBotRightSnip" v:prompt="" v:val="VT0(0):5"/>
				<v:ud v:nameU="CornerLockHoriz" v:prompt="" v:val="VT0(1):5"/>
				<v:ud v:nameU="CornerLockVert" v:prompt="" v:val="VT0(1):5"/>
				<v:ud v:nameU="CornerLockDiag" v:prompt="" v:val="VT0(0):5"/>
				<v:ud v:nameU="TopLeftOffset" v:prompt="" v:val="VT0(0.15748031496063):24"/>
				<v:ud v:nameU="TopRightOffset" v:prompt="" v:val="VT0(0.15748031496063):24"/>
				<v:ud v:nameU="BotLeftOffset" v:prompt="" v:val="VT0(0.15748031496063):24"/>
				<v:ud v:nameU="BotRightOffset" v:prompt="" v:val="VT0(0.15748031496063):24"/>
				<v:ud v:nameU="visVersion" v:prompt="" v:val="VT0(15):26"/>
			</v:userDefs>
			<v:textBlock v:margins="rect(2,2,2,2)" v:tabSpace="42.5197"/>
			<v:textRect cx="47.9196" cy="232.606" width="95.84" height="22.6772"/>
			<path d="M11.34 243.94 L84.5 243.94 A11.3384 11.3384 -180 0 0 95.84 232.61 A11.3384 11.3384 -180 0 0 84.5 221.27 L11.34
						 221.27 A11.3384 11.3384 -180 0 0 0 232.61 A11.3384 11.3384 -180 0 0 11.34 243.94 Z" class="st1"/>
			<text x="12.41" y="235.01" class="st2" v:langID="1033"><v:paragraph v:horizAlign="1"/><v:tabList/>Flujo No permanente</text>		</g>
		<g id="shape242-11" v:mID="242" v:groupContext="shape" transform="translate(241.654,-180.673)">
			<title>Rounded Rectangle.242</title>
			<desc>Flujo variado</desc>
			<v:userDefs>
				<v:ud v:nameU="CTypeTopLeftSnip" v:prompt="" v:val="VT0(0):5"/>
				<v:ud v:nameU="CTypeTopRightSnip" v:prompt="" v:val="VT0(0):5"/>
				<v:ud v:nameU="CTypeBotLeftSnip" v:prompt="" v:val="VT0(0):5"/>
				<v:ud v:nameU="CTypeBotRightSnip" v:prompt="" v:val="VT0(0):5"/>
				<v:ud v:nameU="CornerLockHoriz" v:prompt="" v:val="VT0(1):5"/>
				<v:ud v:nameU="CornerLockVert" v:prompt="" v:val="VT0(1):5"/>
				<v:ud v:nameU="CornerLockDiag" v:prompt="" v:val="VT0(0):5"/>
				<v:ud v:nameU="TopLeftOffset" v:prompt="" v:val="VT0(0.15748031496063):24"/>
				<v:ud v:nameU="TopRightOffset" v:prompt="" v:val="VT0(0.15748031496063):24"/>
				<v:ud v:nameU="BotLeftOffset" v:prompt="" v:val="VT0(0.15748031496063):24"/>
				<v:ud v:nameU="BotRightOffset" v:prompt="" v:val="VT0(0.15748031496063):24"/>
				<v:ud v:nameU="visVersion" v:prompt="" v:val="VT0(15):26"/>
			</v:userDefs>
			<v:textBlock v:margins="rect(2,2,2,2)" v:tabSpace="42.5197"/>
			<v:textRect cx="47.9196" cy="232.606" width="95.84" height="22.6772"/>
			<path d="M11.34 243.94 L84.5 243.94 A11.3384 11.3384 -180 0 0 95.84 232.61 A11.3384 11.3384 -180 0 0 84.5 221.27 L11.34
						 221.27 A11.3384 11.3384 -180 0 0 0 232.61 A11.3384 11.3384 -180 0 0 11.34 243.94 Z" class="st1"/>
			<text x="26.55" y="235.01" class="st2" v:langID="1033"><v:paragraph v:horizAlign="1"/><v:tabList/>Flujo variado</text>		</g>
		<g id="shape243-14" v:mID="243" v:groupContext="shape" transform="translate(241.654,-100.713)">
			<title>Rounded Rectangle.243</title>
			<desc>Flujo uniforme</desc>
			<v:userDefs>
				<v:ud v:nameU="CTypeTopLeftSnip" v:prompt="" v:val="VT0(0):5"/>
				<v:ud v:nameU="CTypeTopRightSnip" v:prompt="" v:val="VT0(0):5"/>
				<v:ud v:nameU="CTypeBotLeftSnip" v:prompt="" v:val="VT0(0):5"/>
				<v:ud v:nameU="CTypeBotRightSnip" v:prompt="" v:val="VT0(0):5"/>
				<v:ud v:nameU="CornerLockHoriz" v:prompt="" v:val="VT0(1):5"/>
				<v:ud v:nameU="CornerLockVert" v:prompt="" v:val="VT0(1):5"/>
				<v:ud v:nameU="CornerLockDiag" v:prompt="" v:val="VT0(0):5"/>
				<v:ud v:nameU="TopLeftOffset" v:prompt="" v:val="VT0(0.15748031496063):24"/>
				<v:ud v:nameU="TopRightOffset" v:prompt="" v:val="VT0(0.15748031496063):24"/>
				<v:ud v:nameU="BotLeftOffset" v:prompt="" v:val="VT0(0.15748031496063):24"/>
				<v:ud v:nameU="BotRightOffset" v:prompt="" v:val="VT0(0.15748031496063):24"/>
				<v:ud v:nameU="visVersion" v:prompt="" v:val="VT0(15):26"/>
			</v:userDefs>
			<v:textBlock v:margins="rect(2,2,2,2)" v:tabSpace="42.5197"/>
			<v:textRect cx="47.9196" cy="232.606" width="95.84" height="22.6772"/>
			<path d="M11.34 243.94 L84.5 243.94 A11.3384 11.3384 -180 0 0 95.84 232.61 A11.3384 11.3384 -180 0 0 84.5 221.27 L11.34
						 221.27 A11.3384 11.3384 -180 0 0 0 232.61 A11.3384 11.3384 -180 0 0 11.34 243.94 Z" class="st1"/>
			<text x="23.86" y="235.01" class="st2" v:langID="1033"><v:paragraph v:horizAlign="1"/><v:tabList/>Flujo uniforme</text>		</g>
		<g id="shape244-17" v:mID="244" v:groupContext="shape" transform="translate(244.059,-61.7433)">
			<title>Rounded Rectangle.244</title>
			<desc>Flujo variado</desc>
			<v:userDefs>
				<v:ud v:nameU="CTypeTopLeftSnip" v:prompt="" v:val="VT0(0):5"/>
				<v:ud v:nameU="CTypeTopRightSnip" v:prompt="" v:val="VT0(0):5"/>
				<v:ud v:nameU="CTypeBotLeftSnip" v:prompt="" v:val="VT0(0):5"/>
				<v:ud v:nameU="CTypeBotRightSnip" v:prompt="" v:val="VT0(0):5"/>
				<v:ud v:nameU="CornerLockHoriz" v:prompt="" v:val="VT0(1):5"/>
				<v:ud v:nameU="CornerLockVert" v:prompt="" v:val="VT0(1):5"/>
				<v:ud v:nameU="CornerLockDiag" v:prompt="" v:val="VT0(0):5"/>
				<v:ud v:nameU="TopLeftOffset" v:prompt="" v:val="VT0(0.15748031496063):24"/>
				<v:ud v:nameU="TopRightOffset" v:prompt="" v:val="VT0(0.15748031496063):24"/>
				<v:ud v:nameU="BotLeftOffset" v:prompt="" v:val="VT0(0.15748031496063):24"/>
				<v:ud v:nameU="BotRightOffset" v:prompt="" v:val="VT0(0.15748031496063):24"/>
				<v:ud v:nameU="visVersion" v:prompt="" v:val="VT0(15):26"/>
			</v:userDefs>
			<v:textBlock v:margins="rect(2,2,2,2)" v:tabSpace="42.5197"/>
			<v:textRect cx="47.9196" cy="232.606" width="95.84" height="22.6772"/>
			<path d="M11.34 243.94 L84.5 243.94 A11.3384 11.3384 -180 0 0 95.84 232.61 A11.3384 11.3384 -180 0 0 84.5 221.27 L11.34
						 221.27 A11.3384 11.3384 -180 0 0 0 232.61 A11.3384 11.3384 -180 0 0 11.34 243.94 Z" class="st1"/>
			<text x="26.55" y="235.01" class="st2" v:langID="1033"><v:paragraph v:horizAlign="1"/><v:tabList/>Flujo variado</text>		</g>
		<g id="shape245-20" v:mID="245" v:groupContext="shape" transform="translate(244.059,-1.5)">
			<title>Rounded Rectangle.245</title>
			<desc>Flujo uniforme no permanente (no común)</desc>
			<v:userDefs>
				<v:ud v:nameU="CTypeTopLeftSnip" v:prompt="" v:val="VT0(0):5"/>
				<v:ud v:nameU="CTypeTopRightSnip" v:prompt="" v:val="VT0(0):5"/>
				<v:ud v:nameU="CTypeBotLeftSnip" v:prompt="" v:val="VT0(0):5"/>
				<v:ud v:nameU="CTypeBotRightSnip" v:prompt="" v:val="VT0(0):5"/>
				<v:ud v:nameU="CornerLockHoriz" v:prompt="" v:val="VT0(1):5"/>
				<v:ud v:nameU="CornerLockVert" v:prompt="" v:val="VT0(1):5"/>
				<v:ud v:nameU="CornerLockDiag" v:prompt="" v:val="VT0(0):5"/>
				<v:ud v:nameU="TopLeftOffset" v:prompt="" v:val="VT0(0.15748031496063):24"/>
				<v:ud v:nameU="TopRightOffset" v:prompt="" v:val="VT0(0.15748031496063):24"/>
				<v:ud v:nameU="BotLeftOffset" v:prompt="" v:val="VT0(0.15748031496063):24"/>
				<v:ud v:nameU="BotRightOffset" v:prompt="" v:val="VT0(0.15748031496063):24"/>
				<v:ud v:nameU="visVersion" v:prompt="" v:val="VT0(15):26"/>
			</v:userDefs>
			<v:textBlock v:margins="rect(2,2,2,2)" v:tabSpace="42.5197"/>
			<v:textRect cx="47.9196" cy="232.606" width="95.84" height="22.6772"/>
			<path d="M11.34 243.94 L84.5 243.94 A11.3384 11.3384 -180 0 0 95.84 232.61 A11.3384 11.3384 -180 0 0 84.5 221.27 L11.34
						 221.27 A11.3384 11.3384 -180 0 0 0 232.61 A11.3384 11.3384 -180 0 0 11.34 243.94 Z" class="st1"/>
			<text x="18.38" y="230.21" class="st2" v:langID="1033"><v:paragraph v:horizAlign="1"/><v:tabList/>Flujo uniforme no <tspan
						x="7.15" dy="1.2em" class="st3">permanente (no común)</tspan></text>		</g>
		<g id="shape246-24" v:mID="246" v:groupContext="shape" transform="translate(368.449,-219.768)">
			<title>Rounded Rectangle.246</title>
			<desc>Flujo gradualmente variado (FGV)</desc>
			<v:userDefs>
				<v:ud v:nameU="CTypeTopLeftSnip" v:prompt="" v:val="VT0(0):5"/>
				<v:ud v:nameU="CTypeTopRightSnip" v:prompt="" v:val="VT0(0):5"/>
				<v:ud v:nameU="CTypeBotLeftSnip" v:prompt="" v:val="VT0(0):5"/>
				<v:ud v:nameU="CTypeBotRightSnip" v:prompt="" v:val="VT0(0):5"/>
				<v:ud v:nameU="CornerLockHoriz" v:prompt="" v:val="VT0(1):5"/>
				<v:ud v:nameU="CornerLockVert" v:prompt="" v:val="VT0(1):5"/>
				<v:ud v:nameU="CornerLockDiag" v:prompt="" v:val="VT0(0):5"/>
				<v:ud v:nameU="TopLeftOffset" v:prompt="" v:val="VT0(0.15748031496063):24"/>
				<v:ud v:nameU="TopRightOffset" v:prompt="" v:val="VT0(0.15748031496063):24"/>
				<v:ud v:nameU="BotLeftOffset" v:prompt="" v:val="VT0(0.15748031496063):24"/>
				<v:ud v:nameU="BotRightOffset" v:prompt="" v:val="VT0(0.15748031496063):24"/>
				<v:ud v:nameU="visVersion" v:prompt="" v:val="VT0(15):26"/>
			</v:userDefs>
			<v:textBlock v:margins="rect(2,2,2,2)" v:tabSpace="42.5197"/>
			<v:textRect cx="62.0353" cy="232.606" width="124.08" height="22.6772"/>
			<path d="M11.34 243.94 L112.73 243.94 A11.3384 11.3384 -180 0 0 124.07 232.61 A11.3384 11.3384 -180 0 0 112.73 221.27
						 L11.34 221.27 A11.3384 11.3384 -180 0 0 0 232.61 A11.3384 11.3384 -180 0 0 11.34 243.94 Z" class="st1"/>
			<text x="5.9" y="235.01" class="st2" v:langID="1033"><v:paragraph v:horizAlign="1"/><v:tabList/>Flujo gradualmente variado (FGV)</text>		</g>
		<g id="shape247-27" v:mID="247" v:groupContext="shape" transform="translate(368.449,-180.798)">
			<title>Rounded Rectangle.247</title>
			<desc>Flujo rápidamente variado (FRV)</desc>
			<v:userDefs>
				<v:ud v:nameU="CTypeTopLeftSnip" v:prompt="" v:val="VT0(0):5"/>
				<v:ud v:nameU="CTypeTopRightSnip" v:prompt="" v:val="VT0(0):5"/>
				<v:ud v:nameU="CTypeBotLeftSnip" v:prompt="" v:val="VT0(0):5"/>
				<v:ud v:nameU="CTypeBotRightSnip" v:prompt="" v:val="VT0(0):5"/>
				<v:ud v:nameU="CornerLockHoriz" v:prompt="" v:val="VT0(1):5"/>
				<v:ud v:nameU="CornerLockVert" v:prompt="" v:val="VT0(1):5"/>
				<v:ud v:nameU="CornerLockDiag" v:prompt="" v:val="VT0(0):5"/>
				<v:ud v:nameU="TopLeftOffset" v:prompt="" v:val="VT0(0.15748031496063):24"/>
				<v:ud v:nameU="TopRightOffset" v:prompt="" v:val="VT0(0.15748031496063):24"/>
				<v:ud v:nameU="BotLeftOffset" v:prompt="" v:val="VT0(0.15748031496063):24"/>
				<v:ud v:nameU="BotRightOffset" v:prompt="" v:val="VT0(0.15748031496063):24"/>
				<v:ud v:nameU="visVersion" v:prompt="" v:val="VT0(15):26"/>
			</v:userDefs>
			<v:textBlock v:margins="rect(2,2,2,2)" v:tabSpace="42.5197"/>
			<v:textRect cx="62.0353" cy="232.606" width="124.08" height="22.6772"/>
			<path d="M11.34 243.94 L112.73 243.94 A11.3384 11.3384 -180 0 0 124.07 232.61 A11.3384 11.3384 -180 0 0 112.73 221.27
						 L11.34 221.27 A11.3384 11.3384 -180 0 0 0 232.61 A11.3384 11.3384 -180 0 0 11.34 243.94 Z" class="st1"/>
			<text x="8.49" y="235.01" class="st2" v:langID="1033"><v:paragraph v:horizAlign="1"/><v:tabList/>Flujo rápidamente variado (FRV)</text>		</g>
		<g id="shape248-30" v:mID="248" v:groupContext="shape" transform="translate(368.449,-141.829)">
			<title>Rounded Rectangle.248</title>
			<desc>Flujo espacialmente variado (FEV)</desc>
			<v:userDefs>
				<v:ud v:nameU="CTypeTopLeftSnip" v:prompt="" v:val="VT0(0):5"/>
				<v:ud v:nameU="CTypeTopRightSnip" v:prompt="" v:val="VT0(0):5"/>
				<v:ud v:nameU="CTypeBotLeftSnip" v:prompt="" v:val="VT0(0):5"/>
				<v:ud v:nameU="CTypeBotRightSnip" v:prompt="" v:val="VT0(0):5"/>
				<v:ud v:nameU="CornerLockHoriz" v:prompt="" v:val="VT0(1):5"/>
				<v:ud v:nameU="CornerLockVert" v:prompt="" v:val="VT0(1):5"/>
				<v:ud v:nameU="CornerLockDiag" v:prompt="" v:val="VT0(0):5"/>
				<v:ud v:nameU="TopLeftOffset" v:prompt="" v:val="VT0(0.15748031496063):24"/>
				<v:ud v:nameU="TopRightOffset" v:prompt="" v:val="VT0(0.15748031496063):24"/>
				<v:ud v:nameU="BotLeftOffset" v:prompt="" v:val="VT0(0.15748031496063):24"/>
				<v:ud v:nameU="BotRightOffset" v:prompt="" v:val="VT0(0.15748031496063):24"/>
				<v:ud v:nameU="visVersion" v:prompt="" v:val="VT0(15):26"/>
			</v:userDefs>
			<v:textBlock v:margins="rect(2,2,2,2)" v:tabSpace="42.5197"/>
			<v:textRect cx="62.0353" cy="232.606" width="124.08" height="22.6772"/>
			<path d="M11.34 243.94 L112.73 243.94 A11.3384 11.3384 -180 0 0 124.07 232.61 A11.3384 11.3384 -180 0 0 112.73 221.27
						 L11.34 221.27 A11.3384 11.3384 -180 0 0 0 232.61 A11.3384 11.3384 -180 0 0 11.34 243.94 Z" class="st1"/>
			<text x="6.1" y="235.01" class="st2" v:langID="1033"><v:paragraph v:horizAlign="1"/><v:tabList/>Flujo espacialmente variado (FEV)</text>		</g>
		<g id="shape249-33" v:mID="249" v:groupContext="shape" transform="translate(368.449,-100.713)">
			<title>Rounded Rectangle.249</title>
			<desc>Flujo gradualmente variado no permanente.</desc>
			<v:userDefs>
				<v:ud v:nameU="CTypeTopLeftSnip" v:prompt="" v:val="VT0(0):5"/>
				<v:ud v:nameU="CTypeTopRightSnip" v:prompt="" v:val="VT0(0):5"/>
				<v:ud v:nameU="CTypeBotLeftSnip" v:prompt="" v:val="VT0(0):5"/>
				<v:ud v:nameU="CTypeBotRightSnip" v:prompt="" v:val="VT0(0):5"/>
				<v:ud v:nameU="CornerLockHoriz" v:prompt="" v:val="VT0(1):5"/>
				<v:ud v:nameU="CornerLockVert" v:prompt="" v:val="VT0(1):5"/>
				<v:ud v:nameU="CornerLockDiag" v:prompt="" v:val="VT0(0):5"/>
				<v:ud v:nameU="TopLeftOffset" v:prompt="" v:val="VT0(0.15748031496063):24"/>
				<v:ud v:nameU="TopRightOffset" v:prompt="" v:val="VT0(0.15748031496063):24"/>
				<v:ud v:nameU="BotLeftOffset" v:prompt="" v:val="VT0(0.15748031496063):24"/>
				<v:ud v:nameU="BotRightOffset" v:prompt="" v:val="VT0(0.15748031496063):24"/>
				<v:ud v:nameU="visVersion" v:prompt="" v:val="VT0(15):26"/>
			</v:userDefs>
			<v:textBlock v:margins="rect(2,2,2,2)" v:tabSpace="42.5197"/>
			<v:textRect cx="62.0353" cy="232.606" width="124.08" height="22.6772"/>
			<path d="M11.34 243.94 L112.73 243.94 A11.3384 11.3384 -180 0 0 124.07 232.61 A11.3384 11.3384 -180 0 0 112.73 221.27
						 L11.34 221.27 A11.3384 11.3384 -180 0 0 0 232.61 A11.3384 11.3384 -180 0 0 11.34 243.94 Z" class="st1"/>
			<text x="10.72" y="230.21" class="st2" v:langID="1033"><v:paragraph v:horizAlign="1"/><v:tabList/>Flujo gradualmente variado no <tspan
						x="40.8" dy="1.2em" class="st3">permanente.</tspan></text>		</g>
		<g id="shape250-37" v:mID="250" v:groupContext="shape" transform="translate(368.449,-61.7433)">
			<title>Rounded Rectangle.250</title>
			<desc>Flujo rápidamente variado no permanente.</desc>
			<v:userDefs>
				<v:ud v:nameU="CTypeTopLeftSnip" v:prompt="" v:val="VT0(0):5"/>
				<v:ud v:nameU="CTypeTopRightSnip" v:prompt="" v:val="VT0(0):5"/>
				<v:ud v:nameU="CTypeBotLeftSnip" v:prompt="" v:val="VT0(0):5"/>
				<v:ud v:nameU="CTypeBotRightSnip" v:prompt="" v:val="VT0(0):5"/>
				<v:ud v:nameU="CornerLockHoriz" v:prompt="" v:val="VT0(1):5"/>
				<v:ud v:nameU="CornerLockVert" v:prompt="" v:val="VT0(1):5"/>
				<v:ud v:nameU="CornerLockDiag" v:prompt="" v:val="VT0(0):5"/>
				<v:ud v:nameU="TopLeftOffset" v:prompt="" v:val="VT0(0.15748031496063):24"/>
				<v:ud v:nameU="TopRightOffset" v:prompt="" v:val="VT0(0.15748031496063):24"/>
				<v:ud v:nameU="BotLeftOffset" v:prompt="" v:val="VT0(0.15748031496063):24"/>
				<v:ud v:nameU="BotRightOffset" v:prompt="" v:val="VT0(0.15748031496063):24"/>
				<v:ud v:nameU="visVersion" v:prompt="" v:val="VT0(15):26"/>
			</v:userDefs>
			<v:textBlock v:margins="rect(2,2,2,2)" v:tabSpace="42.5197"/>
			<v:textRect cx="62.0353" cy="232.606" width="124.08" height="22.6772"/>
			<path d="M11.34 243.94 L112.73 243.94 A11.3384 11.3384 -180 0 0 124.07 232.61 A11.3384 11.3384 -180 0 0 112.73 221.27
						 L11.34 221.27 A11.3384 11.3384 -180 0 0 0 232.61 A11.3384 11.3384 -180 0 0 11.34 243.94 Z" class="st1"/>
			<text x="12.86" y="230.21" class="st2" v:langID="1033"><v:paragraph v:horizAlign="1"/><v:tabList/>Flujo rápidamente variado no <tspan
						x="40.8" dy="1.2em" class="st3">permanente.</tspan></text>		</g>
		<g id="shape251-41" v:mID="251" v:groupContext="shape" transform="translate(368.449,-22.774)">
			<title>Rounded Rectangle.251</title>
			<desc>Flujo espacialmente variado no permanente.</desc>
			<v:userDefs>
				<v:ud v:nameU="CTypeTopLeftSnip" v:prompt="" v:val="VT0(0):5"/>
				<v:ud v:nameU="CTypeTopRightSnip" v:prompt="" v:val="VT0(0):5"/>
				<v:ud v:nameU="CTypeBotLeftSnip" v:prompt="" v:val="VT0(0):5"/>
				<v:ud v:nameU="CTypeBotRightSnip" v:prompt="" v:val="VT0(0):5"/>
				<v:ud v:nameU="CornerLockHoriz" v:prompt="" v:val="VT0(1):5"/>
				<v:ud v:nameU="CornerLockVert" v:prompt="" v:val="VT0(1):5"/>
				<v:ud v:nameU="CornerLockDiag" v:prompt="" v:val="VT0(0):5"/>
				<v:ud v:nameU="TopLeftOffset" v:prompt="" v:val="VT0(0.15748031496063):24"/>
				<v:ud v:nameU="TopRightOffset" v:prompt="" v:val="VT0(0.15748031496063):24"/>
				<v:ud v:nameU="BotLeftOffset" v:prompt="" v:val="VT0(0.15748031496063):24"/>
				<v:ud v:nameU="BotRightOffset" v:prompt="" v:val="VT0(0.15748031496063):24"/>
				<v:ud v:nameU="visVersion" v:prompt="" v:val="VT0(15):26"/>
			</v:userDefs>
			<v:textBlock v:margins="rect(2,2,2,2)" v:tabSpace="42.5197"/>
			<v:textRect cx="62.0353" cy="232.606" width="124.08" height="22.6772"/>
			<path d="M11.34 243.94 L112.73 243.94 A11.3384 11.3384 -180 0 0 124.07 232.61 A11.3384 11.3384 -180 0 0 112.73 221.27
						 L11.34 221.27 A11.3384 11.3384 -180 0 0 0 232.61 A11.3384 11.3384 -180 0 0 11.34 243.94 Z" class="st1"/>
			<text x="10.25" y="230.21" class="st2" v:langID="1033"><v:paragraph v:horizAlign="1"/><v:tabList/>Flujo espacialmente variado no <tspan
						x="40.8" dy="1.2em" class="st3">permanente.</tspan></text>		</g>
		<g id="shape252-45" v:mID="252" v:groupContext="shape" v:layerMember="0" transform="translate(97.3392,-83.7047)">
			<title>Dynamic connector.252</title>
			<v:userDefs>
				<v:ud v:nameU="visVersion" v:val="VT0(15):26"/>
			</v:userDefs>
			<path d="M0 243.94 C10.63 243.94 10.63 230.66 10.63 217.37 C10.63 205.04 10.63 192.72 22.87 190.45 L23.22 190.42"
					class="st4"/>
		</g>
		<g id="shape263-51" v:mID="263" v:groupContext="shape" v:layerMember="0" transform="translate(97.3392,-83.7047)">
			<title>Dynamic connector.263</title>
			<v:userDefs>
				<v:ud v:nameU="visVersion" v:val="VT0(15):26"/>
			</v:userDefs>
			<path d="M0 243.94 C9.64 243.94 10.54 281.25 22.99 288.19 L23.34 288.28" class="st4"/>
		</g>
		<g id="shape264-56" v:mID="264" v:groupContext="shape" v:layerMember="0" transform="translate(220.394,-137.563)">
			<title>Dynamic connector.264</title>
			<v:userDefs>
				<v:ud v:nameU="visVersion" v:val="VT0(15):26"/>
			</v:userDefs>
			<path d="M0 243.94 C10.63 243.94 10.63 230.33 10.63 216.72 C10.63 205.24 10.63 193.77 17 190.45 L17.35 190.37"
					class="st4"/>
		</g>
		<g id="shape265-61" v:mID="265" v:groupContext="shape" v:layerMember="0" transform="translate(220.394,-137.563)">
			<title>Dynamic connector.265</title>
			<v:userDefs>
				<v:ud v:nameU="visVersion" v:val="VT0(15):26"/>
			</v:userDefs>
			<path d="M0 243.94 C9.05 243.94 10.4 262.46 17.17 267.94 L17.5 268.07" class="st4"/>
		</g>
		<g id="shape266-66" v:mID="266" v:groupContext="shape" v:layerMember="0" transform="translate(220.394,-38.3504)">
			<title>Dynamic connector.266</title>
			<v:userDefs>
				<v:ud v:nameU="visVersion" v:val="VT0(15):26"/>
			</v:userDefs>
			<path d="M0 243.94 C9.36 243.94 10.48 217 19.52 210.58 L19.86 210.46" class="st4"/>
		</g>
		<g id="shape267-71" v:mID="267" v:groupContext="shape" v:layerMember="0" transform="translate(220.394,-38.3504)">
			<title>Dynamic connector.267</title>
			<v:userDefs>
				<v:ud v:nameU="visVersion" v:val="VT0(15):26"/>
			</v:userDefs>
			<path d="M0 243.94 C9.33 243.94 10.47 263.6 19.43 268.41 L19.78 268.49" class="st4"/>
		</g>
		<g id="shape268-76" v:mID="268" v:groupContext="shape" v:layerMember="0" transform="translate(337.493,-192.012)">
			<title>Dynamic connector.268</title>
			<v:userDefs>
				<v:ud v:nameU="visVersion" v:val="VT0(15):26"/>
			</v:userDefs>
			<path d="M0 243.94 C9.82 243.94 10.57 210.6 26.64 205.5 L27 205.45" class="st4"/>
		</g>
		<g id="shape269-81" v:mID="269" v:groupContext="shape" v:layerMember="0" transform="translate(337.493,-184.988)">
			<title>Dynamic connector.269</title>
			<v:userDefs>
				<v:ud v:nameU="visVersion" v:val="VT0(15):26"/>
			</v:userDefs>
			<path d="M0 236.92 C5.31 236.92 7.09 236.92 8.47 236.92 C9.17 236.92 9.76 236.92 10.12 236.91 C10.63 236.89 10.63 236.85
						 11.07 236.83 C11.66 236.8 13.01 236.8 14.48 236.8 C16.94 236.8 19.73 236.8 26.59 236.8" class="st6"/>
		</g>
		<g id="shape270-87" v:mID="270" v:groupContext="shape" v:layerMember="0" transform="translate(337.493,-192.012)">
			<title>Dynamic connector.270</title>
			<v:userDefs>
				<v:ud v:nameU="visVersion" v:val="VT0(15):26"/>
			</v:userDefs>
			<path d="M0 243.94 C9.82 243.94 10.57 277.08 26.64 282.14 L27 282.2" class="st4"/>
		</g>
		<g id="shape272-92" v:mID="272" v:groupContext="shape" v:layerMember="0" transform="translate(339.898,-73.0819)">
			<title>Dynamic connector.272</title>
			<v:userDefs>
				<v:ud v:nameU="visVersion" v:val="VT0(15):26"/>
			</v:userDefs>
			<path d="M0 243.94 C9.71 243.94 10.55 211.45 24.27 205.81 L24.62 205.74" class="st4"/>
		</g>
		<g id="shape273-97" v:mID="273" v:groupContext="shape" v:layerMember="0" transform="translate(339.898,-65.9953)">
			<title>Dynamic connector.273</title>
			<v:userDefs>
				<v:ud v:nameU="visVersion" v:val="VT0(15):26"/>
			</v:userDefs>
			<path d="M0 236.86 C5.88 236.86 16.6 236.86 24.19 236.86" class="st6"/>
		</g>
		<g id="shape274-102" v:mID="274" v:groupContext="shape" v:layerMember="0" transform="translate(339.898,-73.0819)">
			<title>Dynamic connector.274</title>
			<v:userDefs>
				<v:ud v:nameU="visVersion" v:val="VT0(15):26"/>
			</v:userDefs>
			<path d="M0 243.94 C9.71 243.94 10.55 276.44 24.27 282.08 L24.62 282.15" class="st4"/>
		</g>
	</g>
</svg>
