<?xml version="1.0" encoding="UTF-8"?>
<!DOCTYPE svg PUBLIC "-//W3C//DTD SVG 1.1//EN" "http://www.w3.org/Graphics/SVG/1.1/DTD/svg11.dtd">
<!-- Creator: CorelDRAW -->
<svg xmlns="http://www.w3.org/2000/svg" xml:space="preserve" width="174.462mm" height="77.1073mm" version="1.1" style="shape-rendering:geometricPrecision; text-rendering:geometricPrecision; image-rendering:optimizeQuality; fill-rule:evenodd; clip-rule:evenodd"
viewBox="0 0 2229.92 985.56"
 xmlns:xlink="http://www.w3.org/1999/xlink"
 xmlns:xodm="http://www.corel.com/coreldraw/odm/2003">
 <defs>
  <style type="text/css">
   <![CDATA[
    .fil5 {fill:#1A1A1A}
    .fil4 {fill:black;fill-rule:nonzero}
    .fil3 {fill:white;fill-rule:nonzero}
    .fil6 {fill:white;fill-rule:nonzero}
    .fil1 {fill:black;fill-rule:nonzero;fill-opacity:0.050980}
    .fil2 {fill:black;fill-rule:nonzero;fill-opacity:0.070588}
    .fil0 {fill:url(#id0);fill-rule:nonzero}
   ]]>
  </style>
  <linearGradient id="id0" gradientUnits="userSpaceOnUse" x1="778.79" y1="321.27" x2="1455.15" y2="321.27">
   <stop offset="0" style="stop-opacity:1; stop-color:#4C4C4C"/>
   <stop offset="1" style="stop-opacity:1; stop-color:#343434"/>
  </linearGradient>
 </defs>
 <g id="Layer_x0020_1">
  <metadata id="CorelCorpID_0Corel-Layer"/>
  <g id="_2265326267136">
   <g>
    <path class="fil0" d="M1116.97 0c-186.78,0 -338.18,151.4 -338.18,338.18 0,150.27 98.09,277.5 233.68,321.54l209 0c135.59,-44.05 233.68,-171.27 233.68,-321.54 0,-186.78 -151.4,-338.18 -338.18,-338.18z"/>
    <path class="fil1" d="M1218.59 642.48l-0.17 -98.04c0,-15.88 -3.72,-31.38 -10.86,-45.44 95.38,-19.16 141.8,-75.55 141.8,-172.08 0,-38.13 -11.24,-71.8 -33.41,-100.1 1.69,-5.36 2.94,-10.91 3.72,-16.59 3.18,-23.15 -0.39,-38.28 -3.26,-50.46l-0.46 -1.96c-3.15,-13.46 -6.92,-23.06 -7.07,-23.47l-1.88 -4.77 -1.88 -4.77 -5.11 -0.54 -5.12 -0.54c0,0 -3.37,-0.36 -8.47,-0.36 -7.08,0 -17.59,0.71 -27.51,4.07l-3.31 1.12c-12.51,4.21 -24.33,8.2 -40.87,18.08 -4.84,2.89 -10.13,6.19 -15.79,9.88 -25.6,-6.34 -53.15,-9.57 -81.98,-9.57 -29.12,0 -56.9,3.25 -82.67,9.66 -5.73,-3.72 -11.06,-7.05 -15.93,-9.96 -16.54,-9.88 -28.36,-13.85 -40.87,-18.08l-3.31 -1.12c-9.89,-3.37 -20.41,-4.07 -27.49,-4.07 -5.11,0 -8.47,0.36 -8.47,0.36l-5.11 0.54 -5.07 0.52 -1.89 4.75 -1.91 4.79c-0.17,0.44 -3.94,10.04 -7.08,23.52l-0.46 1.94c-2.87,12.16 -6.44,27.31 -3.26,50.44 0.81,5.85 2.11,11.58 3.89,17.1 -21.73,28.17 -32.74,61.65 -32.74,99.59 0,96.3 46.47,152.66 141.99,171.97 -3.28,6.56 -5.83,13.49 -7.64,20.7 -3.33,1.13 -6.39,1.89 -9.1,2.32 -4.02,0.61 -8.24,0.91 -12.5,0.91 -11.6,0 -20.71,-2.27 -24.26,-4.38 -5.29,-3.15 -14.74,-12.29 -23.91,-25.67 -7.83,-11.41 -20.04,-26.34 -33.68,-32.58 -11.8,-5.39 -24.3,-8.49 -34.31,-8.49 -2.33,0 -4.48,0.17 -6.36,0.47 -8.74,1.39 -16.05,6.19 -20.02,13.19 -3.43,6.04 -3.97,13.07 -1.49,19.29 3.7,9.27 14.39,16.66 22.71,21.22 4.09,2.25 12.94,10.47 18.09,18.75 3.87,6.22 5.66,10.65 8.15,16.77 1.47,3.64 3.09,7.59 5.29,12.38 7.95,17.28 32.75,32.53 35.56,34.21 13.63,8.17 36.54,10.79 53.38,11.55l2.08 0.05c0,0 0.02,0 0.02,0 4.06,0 9.64,-0.39 16.98,-1.2l0 44.18c0.03,8.94 -9.08,10.97 -21.14,10.79l9.25 3.11c35.43,12.66 73.47,19.9 113.29,19.9 39.82,0 77.87,-7.24 113.34,-19.89l11.89 -4.43c-12.02,-0.41 -23.5,-2.37 -23.61,-9.57z"/>
    <path class="fil2" d="M1231.63 656.02c-6.87,0.8 -21.66,-1.84 -21.66,-13.44l0 -98.14c0,-18.5 -5.55,-36.37 -15.83,-51.61 100.02,-16.18 146.75,-69.21 146.75,-165.91 0,-37.83 -11.6,-70.92 -34.48,-98.44 2.32,-6.17 3.94,-12.68 4.87,-19.39 2.96,-21.58 -0.27,-35.27 -3.11,-47.36l-0.46 -1.96c-3.01,-12.87 -6.56,-21.93 -6.71,-22.3l-1.88 -4.77 -5.12 -0.54c0,0 -3.01,-0.32 -7.59,-0.32 -6.44,0 -15.96,0.63 -24.79,3.64l-3.31 1.12c-12.07,4.07 -23.49,7.91 -39.25,17.32 -5.61,3.35 -11.87,7.29 -18.62,11.73 -25.92,-6.78 -53.97,-10.23 -83.48,-10.23 -29.79,0 -58.08,3.47 -84.19,10.31 -6.81,-4.48 -13.11,-8.44 -18.75,-11.82 -15.76,-9.4 -27.17,-13.26 -39.25,-17.32l-3.31 -1.12c-8.81,-2.99 -18.35,-3.64 -24.79,-3.64 -4.58,0 -7.59,0.32 -7.59,0.32l-5.11 0.54 -1.91 4.79c-0.15,0.37 -3.7,9.44 -6.71,22.3l-0.46 1.96c-2.86,12.09 -6.09,25.77 -3.11,47.35 0.95,6.88 2.64,13.54 5.04,19.85 -22.44,27.39 -33.8,60.31 -33.8,97.99 0,96.43 46.77,149.44 146.87,165.81 -6.68,9.98 -11.35,21.22 -13.75,33.21 -5.58,2.2 -10.64,3.65 -15.07,4.33 -4.45,0.68 -9.08,1.01 -13.76,1.01 -11.67,0 -22.88,-2.18 -28.58,-5.56 -7.44,-4.41 -17.87,-15.45 -26.58,-28.15 -5.92,-8.62 -17.7,-23.96 -30.23,-29.68 -10.74,-4.9 -21.95,-7.73 -30.79,-7.73 -1.86,0 -3.55,0.14 -5.04,0.37 -6.19,0.98 -11.3,4.26 -14,9.03 -2.16,3.79 -2.52,8.17 -1,11.97 3.03,7.58 14.24,14.37 18.92,16.94 5.66,3.11 15.54,12.58 21.2,21.71 4.24,6.83 6.26,11.79 8.81,18.04 1.44,3.53 3.01,7.39 5.14,12.04 5.6,12.16 22.88,24.89 32.21,30.49 12.75,7.64 36.42,9.77 49.41,10.35l1.88 0.03c5.06,0 13.53,-0.76 25.28,-2.28l0 53.72c0,13.17 -16.76,13.7 -20.87,13.7 -0.52,0 8.5,3.11 8.5,3.11 33.19,10.89 68.55,16.98 105.38,16.98 36.83,0 72.18,-6.09 105.36,-16.96 0,0 9.82,-3.45 9.3,-3.38z"/>
    <path class="fil3" d="M1332.46 326.92c0,-39.06 -13.22,-71.46 -35.8,-96.86 2.45,-5.49 5.01,-12.87 6.27,-22.13 2.91,-21.14 -0.52,-33.82 -3.43,-46.23 -2.91,-12.41 -6.34,-21.14 -6.34,-21.14 0,0 -15.59,-1.59 -28.8,2.91 -13.21,4.5 -24.57,7.93 -40.95,17.7 -7.66,4.57 -15.37,9.57 -21.47,13.63 -26.09,-7.24 -54.79,-10.96 -84.97,-10.96 -30.45,0 -59.4,3.74 -85.68,11.02 -6.12,-4.07 -13.88,-9.11 -21.59,-13.71 -16.38,-9.77 -27.75,-13.21 -40.95,-17.7 -13.21,-4.5 -28.8,-2.91 -28.8,-2.91 0,0 -3.43,8.72 -6.34,21.14 -2.91,12.41 -6.34,25.09 -3.43,46.23 1.3,9.5 3.94,17.01 6.46,22.54 -22.15,25.25 -35.14,57.44 -35.14,96.45 0,101.17 54.65,147.35 154.23,159.54 -11.62,12.28 -19.41,28 -22.03,45.5 -6.54,2.87 -14.09,5.58 -21.34,6.66 -18.67,2.82 -38.4,0 -47.9,-5.63 -9.5,-5.63 -20.78,-18.31 -29.24,-30.66 -7.14,-10.42 -17.43,-22.51 -26.77,-26.77 -12.33,-5.63 -24.32,-7.74 -30.99,-6.7 -6.7,1.06 -9.86,5.99 -8.46,9.52 1.4,3.52 8.1,8.81 15.15,12.68 7.05,3.87 17.97,14.44 24.32,24.65 7.07,11.4 8.46,17.97 14.44,30.99 4.21,9.16 18.62,20.61 28.88,26.77 8.81,5.29 26.41,8.3 45.45,9.16 6.58,0.3 22.12,-1.62 35.22,-3.48l0 63.41c0,10.8 -9.89,19.02 -20.14,17.13 32.89,11.06 68.01,16.67 104.65,16.67 36.62,0 71.74,-5.61 104.67,-16.64 -10.23,1.88 -20.12,-6.34 -20.12,-17.15l0 -98.14c0,-22.47 -8.91,-42.78 -23.22,-57.91 98.85,-11.87 154.16,-56.95 154.16,-159.6zm-431.27 158.83c-2.6,-1.34 -4.01,-3.81 -3.13,-5.55 0.88,-1.74 3.72,-2.06 6.32,-0.73 2.6,1.34 4.01,3.81 3.13,5.55 -0.88,1.74 -3.72,2.06 -6.32,0.73zm20.49 12.77c-1.37,1.49 -4.31,1.01 -6.58,-1.05 -2.27,-2.06 -2.99,-4.95 -1.62,-6.44 1.37,-1.49 4.31,-1.01 6.58,1.05 2.27,2.06 2.99,4.95 1.62,6.44zm12.75 21.14c-1.72,1.22 -4.65,0.08 -6.53,-2.54 -1.88,-2.62 -2,-5.75 -0.27,-6.97 1.72,-1.22 4.65,-0.08 6.53,2.54 1.86,2.62 2,5.75 0.27,6.97zm18.31 15.91c-1.17,1.89 -4.48,1.98 -7.39,0.2 -2.91,-1.78 -4.33,-4.75 -3.16,-6.65 1.17,-1.89 4.48,-1.98 7.39,-0.2 2.91,1.78 4.33,4.75 3.16,6.65zm17.32 15.57c-3.6,-0.44 -6.27,-2.69 -5.97,-5.02 0.29,-2.33 3.45,-3.85 7.03,-3.42 3.6,0.44 6.27,2.69 5.97,5.02 -0.29,2.32 -3.43,3.85 -7.03,3.42zm27.92 4.04c-3.84,-0.22 -6.83,-2.42 -6.68,-4.89 0.15,-2.47 3.38,-4.31 7.22,-4.09 3.84,0.22 6.83,2.42 6.68,4.89 -0.15,2.48 -3.38,4.31 -7.22,4.09zm26.34 -2.64c-4.09,0 -7.41,-2.13 -7.41,-4.75 0,-2.62 3.31,-4.75 7.41,-4.75 4.09,0 7.41,2.13 7.41,4.75 0,2.62 -3.33,4.75 -7.41,4.75z"/>
   </g>
   <path class="fil4" d="M1057.01 763.6c-4.43,2.5 -9.36,3.76 -14.79,3.76 -6.3,0 -11.41,-2.03 -15.3,-6.1 -3.9,-4.06 -5.85,-9.45 -5.85,-16.15 0,-6.84 2.17,-12.46 6.49,-16.84 4.33,-4.39 9.81,-6.59 16.44,-6.59 4.81,0 8.85,0.79 12.11,2.35l0 5.73c-3.57,-2.26 -7.81,-3.39 -12.7,-3.39 -4.94,0 -9.01,1.71 -12.17,5.11 -3.17,3.41 -4.75,7.83 -4.75,13.26 0,5.59 1.47,9.99 4.41,13.17 2.94,3.2 6.92,4.8 11.96,4.8 3.45,0 6.44,-0.69 8.97,-2.06l0 -12.39 -9.68 0 0 -4.68 14.85 0 0 20.03z"/>
   <path id="_1" class="fil4" d="M1069.19 727.04c-0.89,0 -1.67,-0.31 -2.3,-0.93 -0.64,-0.61 -0.96,-1.39 -0.96,-2.34 0,-0.95 0.32,-1.74 0.96,-2.36 0.63,-0.63 1.41,-0.95 2.3,-0.95 0.93,0 1.72,0.32 2.37,0.95 0.64,0.62 0.97,1.41 0.97,2.36 0,0.9 -0.33,1.67 -0.97,2.3 -0.65,0.64 -1.44,0.96 -2.37,0.96zm2.47 39.58l-5.06 0 0 -31.56 5.06 0 0 31.56z"/>
   <path id="_2" class="fil4" d="M1096.53 766.31c-1.19,0.65 -2.77,0.98 -4.71,0.98 -5.53,0 -8.29,-3.08 -8.29,-9.25l0 -18.68 -5.43 0 0 -4.31 5.43 0 0 -7.7 5.05 -1.64 0 9.34 7.95 0 0 4.31 -7.95 0 0 17.79c0,2.11 0.36,3.62 1.08,4.52 0.71,0.9 1.9,1.36 3.58,1.36 1.27,0 2.37,-0.35 3.29,-1.05l0 4.32z"/>
   <polygon id="_3" class="fil4" points="1137.19,766.62 1132.01,766.62 1132.01,746.46 1109.14,746.46 1109.14,766.62 1103.96,766.62 1103.96,722.42 1109.14,722.42 1109.14,741.81 1132.01,741.81 1132.01,722.42 1137.19,722.42 "/>
   <path id="_4" class="fil4" d="M1173.62 766.62l-5.05 0 0 -5 -0.13 0c-2.09,3.83 -5.34,5.73 -9.74,5.73 -7.52,0 -11.28,-4.47 -11.28,-13.43l0 -18.87 5.02 0 0 18.07c0,6.66 2.56,9.99 7.65,9.99 2.46,0 4.49,-0.9 6.09,-2.73 1.59,-1.82 2.39,-4.2 2.39,-7.14l0 -18.18 5.05 0 0 31.56z"/>
   <path id="_5" class="fil4" d="M1189.01 762.05l-0.13 0 0 4.57 -5.06 0 0 -46.72 5.06 0 0 20.71 0.13 0c2.48,-4.19 6.12,-6.28 10.91,-6.28 4.04,0 7.22,1.41 9.5,4.24 2.29,2.82 3.44,6.61 3.44,11.35 0,5.28 -1.28,9.51 -3.85,12.69 -2.57,3.17 -6.08,4.75 -10.54,4.75 -4.18,0 -7.32,-1.77 -9.46,-5.3zm-0.13 -12.73l0 4.41c0,2.61 0.84,4.83 2.55,6.65 1.69,1.82 3.84,2.73 6.45,2.73 3.06,0 5.46,-1.17 7.2,-3.51 1.74,-2.35 2.61,-5.6 2.61,-9.77 0,-3.51 -0.81,-6.26 -2.44,-8.26 -1.62,-1.99 -3.82,-2.99 -6.59,-2.99 -2.95,0 -5.3,1.02 -7.09,3.06 -1.79,2.05 -2.68,4.61 -2.68,7.69z"/>
  </g>
  <g id="_2265326276832">
   <g>
    <polygon class="fil5" points="2180.16,535.54 2209.17,683.39 2115.32,932.2 2062.84,846.56 "/>
    <path id="_1_0" class="fil6" d="M2188.42 684.07l-29.01 -147.85 41.49 -1.36 29.01 147.85 -0.19 2.18 -41.3 -0.82zm-93.66 246.63l93.85 -248.81 41.1 3 -93.85 248.81 -40.68 0.71 -0.42 -3.71zm-11.79 -86.36l52.48 85.65 -40.26 4.43 -52.48 -85.65 -0.42 -3.71 40.68 -0.71zm117.74 -307.3l-117.31 311.01 -41.1 -3 117.31 -311.01 41.3 0.82 -0.19 2.18z"/>
   </g>
   <g>
    <polygon class="fil5" points="2062.84,846.56 2115.32,932.2 484.86,976.63 24.77,902.09 "/>
    <path id="_1_1" class="fil6" d="M2095.19 934.41l-52.48 -85.65 40.26 -4.43 52.48 85.65 -18.64 11.14 -21.62 -6.72zm-1611.81 33.29l1630.46 -44.43 2.97 17.86 -1630.46 44.43 -8.69 -0.56 5.72 -17.3zm-451.4 -73.98l460.09 74.54 -14.41 16.74 -460.09 -74.54 5.72 -17.3 8.69 0.56zm2032.35 -38.24l-2038.07 55.54 -2.97 -17.86 2038.07 -55.54 21.62 6.72 -18.64 11.14z"/>
   </g>
  </g>
  <g>
   <polygon class="fil5" points="142.08,591.09 2180.16,535.54 2062.84,846.56 24.77,902.09 "/>
   <path id="_1_2" class="fil6" d="M2181.56 544.49l-2038.07 55.54 -2.8 -17.9 2038.07 -55.54 21.97 10.42 -19.17 7.48zm-2.8 -17.9l26.17 -0.71 -4.2 11.13 -21.97 -10.42zm-136.48 318.49l117.31 -311.01 41.14 2.94 -117.31 311.01 -19.17 7.48 -21.97 -10.42zm41.14 2.94l-2.65 7.03 -16.52 0.45 19.17 -7.48zm-2060.05 45.12l2038.07 -55.54 2.8 17.9 -2038.07 55.54 -21.97 -10.42 19.17 -7.48zm2.8 17.9l-26.17 0.71 4.2 -11.13 21.97 10.42zm136.48 -318.49l-117.31 311.01 -41.14 -2.94 117.31 -311.01 19.17 -7.48 21.97 10.42zm-41.14 -2.94l2.65 -7.03 16.52 -0.45 -19.17 7.48z"/>
  </g>
  <path class="fil6" d="M207.1 652.93l85.74 -3.77c19.35,-0.85 33.61,-0.31 42.75,1.66 12.28,2.66 21.61,7.95 27.91,15.87 6.36,7.88 9.57,17.76 9.73,29.62 0.12,11.83 -3.41,26.62 -10.62,44.29 -6.35,15.56 -14.19,29.04 -23.55,40.5 -11.41,14.02 -24.24,25.51 -38.49,34.47 -10.77,6.82 -23.81,12.32 -39.11,16.53 -11.44,3.14 -25.8,5.07 -43.15,5.83l-88.28 3.88 77.07 -188.89zm34.13 29.85l-51.02 125.05 34.96 -1.54c13.06,-0.57 22.74,-1.61 29.03,-3.05 8.27,-1.88 15.63,-4.79 22.13,-8.7 6.55,-3.92 13.09,-10.16 19.67,-18.74 6.64,-8.58 12.93,-20.22 18.89,-34.81 5.95,-14.6 8.94,-25.7 8.94,-33.38 0.05,-7.69 -1.92,-13.56 -5.81,-17.71 -3.92,-4.1 -9.9,-6.77 -18.06,-7.93 -6.02,-0.9 -18.61,-0.95 -37.69,-0.11l-21.03 0.92z"/>
  <path id="_1_3" class="fil6" d="M427.94 676.11l13.67 -33.5 44.55 -1.96 -13.67 33.5 -44.55 1.96zm-63.4 155.38l55.86 -136.92 44.55 -1.96 -55.86 136.92 -44.55 1.96z"/>
  <path id="_2_4" class="fil6" d="M454.67 789.71l47.13 -7.51c-0.96,6.91 0.72,12.06 5.1,15.41 4.31,3.39 11.76,4.84 22.22,4.38 11.54,-0.51 20.91,-2.6 28.17,-6.29 4.89,-2.59 8.17,-5.93 9.82,-9.97 1.11,-2.73 0.96,-4.96 -0.42,-6.67 -1.52,-1.62 -5.85,-3.02 -12.95,-4.14 -33.4,-4.88 -53.82,-9.77 -61.29,-14.66 -10.35,-6.84 -12.82,-16.84 -7.46,-29.98 4.86,-11.92 14.73,-22.15 29.58,-30.75 14.84,-8.6 34.38,-13.43 58.61,-14.49 23.09,-1.02 39.01,1.31 47.74,6.93 8.71,5.66 12.76,14.38 12.09,26.2l-44.53 8.18c0.4,-5.29 -1.38,-9.27 -5.26,-11.9 -3.87,-2.64 -10.51,-3.73 -19.88,-3.31 -11.82,0.52 -20.81,2.21 -27.05,5.12 -4.19,2.04 -6.87,4.58 -8.09,7.57 -1.06,2.6 -0.49,4.73 1.75,6.4 3.08,2.24 15.63,5.01 37.68,8.36 22.05,3.35 36.5,7.98 43.33,13.94 6.76,6.01 7.74,14.81 3.04,26.33 -5.11,12.53 -15.97,23.63 -32.6,33.21 -16.58,9.58 -37.56,14.95 -62.92,16.07 -22.98,1.01 -39.65,-1.97 -50.02,-8.9 -10.32,-6.93 -14.94,-16.74 -13.78,-29.49z"/>
  <path id="_3_5" class="fil6" d="M822 716.81l-46.48 8.26c1.42,-7.02 0.24,-12.19 -3.55,-15.56 -3.8,-3.33 -9.84,-4.83 -18.19,-4.47 -11.11,0.49 -21.27,4 -30.43,10.54 -9.16,6.53 -16.72,17.1 -22.69,31.74 -6.64,16.27 -7.96,27.6 -3.98,34.03 3.98,6.43 11.61,9.38 22.88,8.88 8.45,-0.37 16.2,-2.66 23.16,-6.8 7.02,-4.15 13.55,-11.05 19.69,-20.73l41.42 4.14c-11.22,16.56 -24.99,29.29 -41.3,38.22 -16.31,8.92 -35.3,13.86 -57.03,14.82 -24.6,1.08 -41.7,-4.38 -51.18,-16.36 -9.52,-12.02 -9.7,-29.19 -0.57,-51.57 9.24,-22.64 23.78,-40.55 43.62,-53.82 19.83,-13.26 42.29,-20.43 67.38,-21.53 20.49,-0.9 35.33,1.99 44.54,8.62 9.16,6.63 13.38,17.16 12.7,31.61z"/>
  <path id="_4_6" class="fil6" d="M928.13 806.71l8.36 -20.49c-9.16,7.57 -19.6,13.73 -31.4,18.52 -11.79,4.75 -23.23,7.37 -34.34,7.86 -11.38,0.5 -20.74,-1.07 -28.09,-4.72 -7.4,-3.65 -11.57,-9.08 -12.61,-16.2 -1.07,-7.16 1.05,-17.19 6.33,-30.11l35.43 -86.84 44.55 -1.96 -25.72 63.05c-7.88,19.3 -11.87,31.05 -11.97,35.33 -0.15,4.28 1.41,7.62 4.78,9.94 3.3,2.36 8.3,3.39 15.02,3.1 7.64,-0.34 15.17,-2.35 22.62,-6 7.45,-3.65 13.29,-8.06 17.58,-13.21 4.28,-5.15 10.45,-17.51 18.46,-37.17l23.61 -57.86 44.55 -1.96 -55.86 136.92 -41.3 1.82z"/>
  <path id="_5_7" class="fil6" d="M1015 765.06l47.13 -7.51c-0.95,6.91 0.72,12.06 5.11,15.41 4.31,3.39 11.76,4.84 22.22,4.38 11.54,-0.51 20.92,-2.6 28.17,-6.29 4.89,-2.59 8.17,-5.93 9.82,-9.97 1.11,-2.73 0.96,-4.96 -0.42,-6.67 -1.52,-1.62 -5.85,-3.02 -12.95,-4.14 -33.4,-4.88 -53.82,-9.77 -61.29,-14.66 -10.36,-6.84 -12.82,-16.84 -7.46,-29.98 4.86,-11.92 14.73,-22.15 29.58,-30.75 14.84,-8.6 34.38,-13.43 58.61,-14.49 23.09,-1.02 39.01,1.31 47.73,6.93 8.71,5.66 12.76,14.38 12.09,26.2l-44.53 8.18c0.4,-5.29 -1.38,-9.27 -5.26,-11.9 -3.88,-2.64 -10.51,-3.73 -19.88,-3.31 -11.82,0.52 -20.81,2.21 -27.05,5.12 -4.19,2.04 -6.87,4.58 -8.09,7.57 -1.06,2.59 -0.49,4.73 1.75,6.4 3.08,2.24 15.63,5.01 37.68,8.36 22.05,3.35 36.5,7.98 43.33,13.94 6.76,6.01 7.74,14.81 3.04,26.33 -5.11,12.53 -15.97,23.63 -32.6,33.21 -16.58,9.58 -37.56,14.95 -62.92,16.07 -22.98,1.01 -39.65,-1.97 -50.02,-8.9 -10.32,-6.93 -14.94,-16.74 -13.78,-29.49z"/>
  <path id="_6" class="fil6" d="M1195.85 757.11l47.13 -7.51c-0.96,6.91 0.72,12.06 5.1,15.41 4.31,3.39 11.76,4.84 22.22,4.38 11.54,-0.51 20.91,-2.6 28.17,-6.29 4.89,-2.59 8.17,-5.93 9.82,-9.97 1.11,-2.73 0.96,-4.96 -0.42,-6.67 -1.52,-1.62 -5.85,-3.02 -12.95,-4.14 -33.4,-4.88 -53.82,-9.77 -61.29,-14.66 -10.36,-6.84 -12.82,-16.84 -7.46,-29.98 4.86,-11.92 14.73,-22.15 29.58,-30.75 14.84,-8.6 34.38,-13.43 58.61,-14.49 23.09,-1.02 39.01,1.31 47.74,6.93 8.71,5.66 12.76,14.38 12.09,26.2l-44.53 8.18c0.4,-5.29 -1.38,-9.27 -5.26,-11.9 -3.87,-2.64 -10.51,-3.73 -19.88,-3.31 -11.82,0.52 -20.81,2.21 -27.05,5.12 -4.19,2.04 -6.87,4.58 -8.09,7.57 -1.06,2.6 -0.49,4.73 1.75,6.4 3.08,2.24 15.63,5.01 37.68,8.36 22.05,3.35 36.5,7.98 43.33,13.94 6.76,6.01 7.74,14.81 3.04,26.33 -5.11,12.53 -15.97,23.63 -32.6,33.21 -16.58,9.58 -37.56,14.95 -62.92,16.07 -22.98,1.01 -39.65,-1.97 -50.02,-8.9 -10.32,-6.93 -14.94,-16.74 -13.78,-29.49z"/>
  <path id="_7" class="fil6" d="M1440.32 631.58l13.67 -33.5 44.55 -1.96 -13.67 33.5 -44.55 1.96zm-63.4 155.39l55.86 -136.92 44.55 -1.96 -55.86 136.92 -44.55 1.96z"/>
  <path id="_8" class="fil6" d="M1485.48 713.32c4.92,-12.05 13.3,-23.86 25.21,-35.44 11.93,-11.62 25.78,-20.65 41.58,-27.18 15.81,-6.53 31.93,-10.17 48.46,-10.9 25.53,-1.12 43.65,4.69 54.47,17.42 10.81,12.78 12.01,29.39 3.61,49.97 -8.47,20.75 -23.72,38.31 -45.7,52.66 -22.04,14.36 -45.52,22.08 -70.51,23.18 -15.45,0.68 -29.02,-1.53 -40.74,-6.59 -11.67,-5.06 -18.95,-12.9 -21.79,-23.57 -2.85,-10.63 -1.03,-23.83 5.39,-39.57zm45.06 -0.08c-5.54,13.59 -5.84,23.83 -0.87,30.7 5.01,6.9 13.29,10.08 24.94,9.57 11.6,-0.51 22.82,-4.54 33.64,-12.15 10.8,-7.56 19.04,-18.24 24.66,-32 5.47,-13.41 5.73,-23.57 0.81,-30.43 -4.9,-6.91 -13.18,-10.09 -24.78,-9.58 -11.65,0.51 -22.88,4.55 -33.8,12.15 -10.86,7.56 -19.06,18.15 -24.61,31.74z"/>
  <path id="_9" class="fil6" d="M1819.38 767.51l-44.55 1.96 28.47 -69.78c6.03,-14.77 8.94,-24.27 8.81,-28.5 -0.17,-4.27 -1.9,-7.47 -5.25,-9.7 -3.35,-2.23 -8.07,-3.19 -14.14,-2.92 -7.8,0.34 -15.5,2.37 -23.07,6.07 -7.63,3.7 -13.72,8.46 -18.3,14.19 -4.64,5.77 -10.05,16.29 -16.3,31.59l-25.26 61.91 -44.55 1.96 55.86 -136.92 41.3 -1.82 -8.2 20.09c21.06,-15.99 42.77,-24.46 65.26,-25.45 9.86,-0.43 18.32,0.62 25.34,3.12 7.05,2.54 11.74,5.92 14.1,10.17 2.4,4.3 3.26,9.23 2.57,14.83 -0.64,5.6 -3.12,13.65 -7.43,24.2l-34.68 84.99z"/>
  <path id="_10" class="fil6" d="M1864.31 727.7l47.13 -7.51c-0.96,6.91 0.72,12.06 5.11,15.41 4.31,3.39 11.76,4.84 22.22,4.38 11.54,-0.51 20.92,-2.6 28.17,-6.29 4.89,-2.59 8.17,-5.93 9.82,-9.97 1.11,-2.73 0.96,-4.96 -0.42,-6.67 -1.52,-1.62 -5.85,-3.02 -12.95,-4.14 -33.4,-4.88 -53.82,-9.77 -61.29,-14.66 -10.35,-6.84 -12.82,-16.84 -7.46,-29.98 4.86,-11.92 14.73,-22.15 29.58,-30.75 14.84,-8.6 34.38,-13.43 58.61,-14.49 23.09,-1.02 39.01,1.31 47.74,6.93 8.71,5.66 12.76,14.38 12.09,26.2l-44.53 8.18c0.4,-5.29 -1.38,-9.27 -5.26,-11.9 -3.87,-2.64 -10.51,-3.73 -19.88,-3.31 -11.82,0.52 -20.81,2.21 -27.05,5.12 -4.19,2.04 -6.87,4.58 -8.09,7.57 -1.06,2.6 -0.49,4.73 1.75,6.4 3.08,2.24 15.63,5.01 37.68,8.36 22.05,3.35 36.5,7.98 43.33,13.94 6.76,6.01 7.74,14.81 3.04,26.33 -5.11,12.53 -15.98,23.63 -32.6,33.21 -16.58,9.58 -37.56,14.95 -62.92,16.07 -22.98,1.01 -39.65,-1.97 -50.02,-8.9 -10.32,-6.93 -14.94,-16.74 -13.78,-29.49z"/>
 </g>
</svg>
