<?xml version="1.0" encoding="UTF-8"?>
<!DOCTYPE svg PUBLIC "-//W3C//DTD SVG 1.1//EN" "http://www.w3.org/Graphics/SVG/1.1/DTD/svg11.dtd">
<!-- Creator: CorelDRAW -->
<svg xmlns="http://www.w3.org/2000/svg" xml:space="preserve" width="127.5mm" height="69.637mm" version="1.1" style="shape-rendering:geometricPrecision; text-rendering:geometricPrecision; image-rendering:optimizeQuality; fill-rule:evenodd; clip-rule:evenodd"
viewBox="0 0 1233.51 673.71"
 xmlns:xlink="http://www.w3.org/1999/xlink"
 xmlns:xodm="http://www.corel.com/coreldraw/odm/2003">
 <defs>
  <style type="text/css">
   <![CDATA[
    .fil5 {fill:#1A1A1A}
    .fil4 {fill:black;fill-rule:nonzero}
    .fil3 {fill:white;fill-rule:nonzero}
    .fil6 {fill:white;fill-rule:nonzero}
    .fil1 {fill:black;fill-rule:nonzero;fill-opacity:0.050980}
    .fil2 {fill:black;fill-rule:nonzero;fill-opacity:0.070588}
    .fil0 {fill:url(#id0);fill-rule:nonzero}
   ]]>
  </style>
  <linearGradient id="id0" gradientUnits="userSpaceOnUse" x1="361.89" y1="243.17" x2="873.84" y2="243.17">
   <stop offset="0" style="stop-opacity:1; stop-color:#4C4C4C"/>
   <stop offset="1" style="stop-opacity:1; stop-color:#343434"/>
  </linearGradient>
 </defs>
 <g id="Layer_x0020_1">
  <metadata id="CorelCorpID_0Corel-Layer"/>
  <g id="_1641720229440">
   <g>
    <path class="fil0" d="M617.86 0c-141.37,0 -255.97,114.6 -255.97,255.97 0,113.74 74.24,210.04 176.88,243.38l158.19 0c102.63,-33.34 176.88,-129.64 176.88,-243.38 0,-141.37 -114.6,-255.97 -255.97,-255.97z"/>
    <path class="fil1" d="M694.78 486.3l-0.13 -74.21c0,-12.02 -2.82,-23.75 -8.22,-34.39 72.2,-14.5 107.33,-57.18 107.33,-130.25 0,-28.86 -8.51,-54.34 -25.29,-75.77 1.28,-4.06 2.23,-8.26 2.82,-12.56 2.41,-17.52 -0.29,-28.98 -2.47,-38.19l-0.35 -1.49c-2.38,-10.19 -5.23,-17.46 -5.35,-17.76l-1.42 -3.61 -1.42 -3.61 -3.86 -0.41 -3.88 -0.41c0,0 -2.55,-0.27 -6.41,-0.27 -5.36,0 -13.31,0.54 -20.82,3.08l-2.51 0.84c-9.47,3.19 -18.42,6.21 -30.93,13.68 -3.66,2.19 -7.67,4.68 -11.95,7.47 -19.38,-4.8 -40.23,-7.24 -62.05,-7.24 -22.04,0 -43.07,2.46 -62.57,7.31 -4.34,-2.82 -8.37,-5.34 -12.06,-7.54 -12.52,-7.47 -21.46,-10.48 -30.93,-13.68l-2.51 -0.84c-7.49,-2.55 -15.45,-3.08 -20.81,-3.08 -3.86,0 -6.41,0.27 -6.41,0.27l-3.86 0.41 -3.84 0.4 -1.43 3.6 -1.45 3.62c-0.13,0.33 -2.98,7.6 -5.36,17.8l-0.35 1.47c-2.18,9.2 -4.88,20.67 -2.47,38.18 0.61,4.43 1.6,8.77 2.94,12.94 -16.45,21.32 -24.78,46.66 -24.78,75.38 0,72.89 35.17,115.55 107.47,130.16 -2.48,4.97 -4.42,10.21 -5.79,15.67 -2.52,0.86 -4.84,1.43 -6.89,1.75 -3.05,0.46 -6.23,0.69 -9.46,0.69 -8.78,0 -15.68,-1.72 -18.37,-3.31 -4.01,-2.38 -11.16,-9.3 -18.1,-19.43 -5.93,-8.64 -15.17,-19.94 -25.5,-24.66 -8.93,-4.08 -18.39,-6.42 -25.97,-6.42 -1.77,0 -3.39,0.13 -4.81,0.36 -6.62,1.05 -12.15,4.68 -15.15,9.98 -2.6,4.57 -3.01,9.89 -1.13,14.6 2.8,7.01 10.89,12.61 17.19,16.06 3.1,1.7 9.79,7.92 13.69,14.19 2.93,4.71 4.29,8.06 6.17,12.7 1.11,2.75 2.34,5.75 4.01,9.37 6.02,13.08 24.79,24.62 26.92,25.89 10.32,6.18 27.66,8.17 40.4,8.74l1.57 0.04c0,0 0.01,0 0.01,0 3.07,0 7.3,-0.29 12.85,-0.91l0 33.44c0.03,6.77 -6.87,8.31 -16,8.17l7 2.35c26.81,9.58 55.61,15.06 85.75,15.06 30.14,0 58.94,-5.48 85.79,-15.05l9 -3.35c-9.1,-0.31 -17.79,-1.79 -17.87,-7.24z"/>
    <path class="fil2" d="M704.65 496.55c-5.2,0.6 -16.4,-1.4 -16.4,-10.17l0 -74.28c0,-14 -4.2,-27.53 -11.98,-39.06 75.7,-12.25 111.08,-52.38 111.08,-125.58 0,-28.63 -8.78,-53.68 -26.1,-74.51 1.75,-4.67 2.98,-9.6 3.69,-14.68 2.24,-16.33 -0.21,-26.7 -2.35,-35.85l-0.35 -1.49c-2.28,-9.74 -4.97,-16.6 -5.08,-16.88l-1.42 -3.61 -3.88 -0.41c0,0 -2.28,-0.24 -5.75,-0.24 -4.88,0 -12.08,0.47 -18.76,2.75l-2.51 0.84c-9.14,3.08 -17.78,5.99 -29.71,13.11 -4.25,2.53 -8.98,5.52 -14.09,8.88 -19.62,-5.13 -40.85,-7.74 -63.19,-7.74 -22.55,0 -43.96,2.62 -63.72,7.81 -5.16,-3.39 -9.92,-6.39 -14.19,-8.95 -11.93,-7.12 -20.57,-10.03 -29.71,-13.11l-2.51 -0.84c-6.67,-2.27 -13.89,-2.75 -18.76,-2.75 -3.47,0 -5.75,0.24 -5.75,0.24l-3.86 0.41 -1.45 3.62c-0.12,0.28 -2.8,7.14 -5.08,16.88l-0.35 1.49c-2.16,9.15 -4.61,19.5 -2.35,35.84 0.72,5.21 2,10.25 3.81,15.03 -16.98,20.73 -25.58,45.65 -25.58,74.17 0,72.99 35.4,113.11 111.17,125.5 -5.06,7.55 -8.59,16.06 -10.4,25.14 -4.22,1.66 -8.05,2.76 -11.4,3.28 -3.37,0.51 -6.87,0.77 -10.42,0.77 -8.83,0 -17.32,-1.65 -21.63,-4.21 -5.63,-3.34 -13.53,-11.7 -20.12,-21.31 -4.48,-6.53 -13.4,-18.14 -22.88,-22.46 -8.13,-3.71 -16.61,-5.85 -23.31,-5.85 -1.41,0 -2.69,0.1 -3.81,0.28 -4.68,0.74 -8.55,3.23 -10.6,6.83 -1.64,2.87 -1.91,6.18 -0.76,9.06 2.29,5.73 10.78,10.88 14.32,12.82 4.29,2.35 11.76,9.52 16.05,16.43 3.21,5.17 4.74,8.92 6.67,13.66 1.09,2.68 2.28,5.59 3.89,9.11 4.24,9.2 17.32,18.84 24.38,23.08 9.65,5.79 27.57,7.4 37.4,7.83l1.42 0.03c3.83,0 10.24,-0.58 19.13,-1.73l0 40.66c0,9.97 -12.68,10.37 -15.79,10.37 -0.4,0 6.44,2.35 6.44,2.35 25.12,8.24 51.89,12.85 79.76,12.85 27.88,0 54.64,-4.61 79.75,-12.84 0,0 7.44,-2.61 7.04,-2.56z"/>
    <path class="fil3" d="M780.97 247.45c0,-29.56 -10.01,-54.09 -27.09,-73.31 1.86,-4.16 3.79,-9.74 4.75,-16.75 2.2,-16 -0.4,-25.6 -2.6,-34.99 -2.2,-9.39 -4.8,-16 -4.8,-16 0,0 -11.8,-1.2 -21.8,2.2 -10,3.4 -18.6,6 -31,13.4 -5.8,3.46 -11.63,7.24 -16.25,10.32 -19.75,-5.48 -41.47,-8.29 -64.31,-8.29 -23.05,0 -44.96,2.83 -64.85,8.34 -4.63,-3.08 -10.51,-6.9 -16.34,-10.38 -12.4,-7.4 -21,-10 -31,-13.4 -10,-3.4 -21.8,-2.2 -21.8,-2.2 0,0 -2.6,6.6 -4.8,16 -2.2,9.39 -4.8,18.99 -2.6,34.99 0.99,7.19 2.98,12.88 4.89,17.06 -16.77,19.11 -26.6,43.48 -26.6,73 0,76.57 41.37,111.53 116.74,120.75 -8.79,9.29 -14.69,21.2 -16.68,34.44 -4.95,2.18 -10.66,4.22 -16.15,5.04 -14.13,2.14 -29.07,0 -36.26,-4.26 -7.19,-4.26 -15.73,-13.86 -22.13,-23.2 -5.4,-7.88 -13.2,-17.03 -20.26,-20.26 -9.33,-4.26 -18.4,-5.86 -23.46,-5.07 -5.07,0.81 -7.46,4.53 -6.4,7.21 1.06,2.66 6.13,6.67 11.47,9.6 5.34,2.93 13.61,10.93 18.4,18.66 5.35,8.63 6.4,13.61 10.93,23.46 3.19,6.94 14.09,15.6 21.86,20.26 6.67,4.01 19.99,6.28 34.4,6.94 4.98,0.23 16.74,-1.23 26.66,-2.64l0 47.99c0,8.18 -7.49,14.4 -15.24,12.96 24.89,8.37 51.48,12.62 79.21,12.62 27.72,0 54.3,-4.25 79.22,-12.59 -7.74,1.42 -15.23,-4.8 -15.23,-12.98l0 -74.28c0,-17.01 -6.75,-32.38 -17.57,-43.84 74.82,-8.98 116.69,-43.11 116.69,-120.81zm-326.43 120.22c-1.97,-1.01 -3.03,-2.88 -2.37,-4.2 0.67,-1.32 2.82,-1.56 4.79,-0.55 1.97,1.01 3.03,2.88 2.37,4.2 -0.67,1.32 -2.82,1.56 -4.79,0.55zm15.51 9.66c-1.04,1.13 -3.26,0.77 -4.98,-0.79 -1.72,-1.56 -2.27,-3.75 -1.23,-4.88 1.04,-1.13 3.26,-0.77 4.98,0.79 1.72,1.56 2.27,3.75 1.23,4.88zm9.65 16c-1.31,0.92 -3.52,0.06 -4.94,-1.92 -1.42,-1.98 -1.51,-4.35 -0.21,-5.27 1.31,-0.92 3.52,-0.06 4.94,1.92 1.41,1.98 1.51,4.35 0.21,5.27zm13.86 12.04c-0.88,1.43 -3.39,1.5 -5.59,0.15 -2.2,-1.34 -3.28,-3.6 -2.39,-5.03 0.88,-1.43 3.39,-1.5 5.59,-0.15 2.2,1.34 3.28,3.6 2.39,5.03zm13.11 11.79c-2.73,-0.33 -4.75,-2.03 -4.52,-3.8 0.22,-1.77 2.61,-2.92 5.32,-2.59 2.73,0.33 4.75,2.03 4.52,3.8 -0.22,1.75 -2.6,2.92 -5.32,2.59zm21.13 3.06c-2.91,-0.17 -5.17,-1.83 -5.06,-3.7 0.12,-1.87 2.56,-3.26 5.47,-3.1 2.91,0.17 5.17,1.83 5.06,3.7 -0.12,1.88 -2.56,3.26 -5.47,3.1zm19.94 -2c-3.1,0 -5.61,-1.61 -5.61,-3.6 0,-1.98 2.51,-3.6 5.61,-3.6 3.1,0 5.61,1.61 5.61,3.6 0,1.98 -2.52,3.6 -5.61,3.6z"/>
   </g>
   <path class="fil4" d="M572.48 577.97c-3.35,1.9 -7.09,2.84 -11.2,2.84 -4.77,0 -8.63,-1.54 -11.58,-4.62 -2.95,-3.07 -4.43,-7.15 -4.43,-12.22 0,-5.18 1.64,-9.43 4.91,-12.75 3.27,-3.32 7.42,-4.99 12.45,-4.99 3.64,0 6.7,0.6 9.17,1.78l0 4.34c-2.7,-1.71 -5.91,-2.56 -9.61,-2.56 -3.74,0 -6.82,1.29 -9.21,3.87 -2.4,2.58 -3.59,5.92 -3.59,10.03 0,4.23 1.12,7.56 3.34,9.97 2.22,2.42 5.24,3.63 9.05,3.63 2.61,0 4.87,-0.53 6.79,-1.56l0 -9.38 -7.33 0 0 -3.54 11.24 0 0 15.16z"/>
   <path id="_1" class="fil4" d="M581.7 550.3c-0.68,0 -1.27,-0.23 -1.74,-0.7 -0.49,-0.46 -0.72,-1.05 -0.72,-1.77 0,-0.72 0.24,-1.31 0.72,-1.78 0.48,-0.48 1.07,-0.72 1.74,-0.72 0.7,0 1.3,0.24 1.79,0.72 0.49,0.47 0.73,1.07 0.73,1.78 0,0.68 -0.25,1.27 -0.73,1.74 -0.49,0.49 -1.09,0.72 -1.79,0.72zm1.87 29.96l-3.83 0 0 -23.89 3.83 0 0 23.89z"/>
   <path id="_2" class="fil4" d="M602.39 580.03c-0.9,0.49 -2.09,0.74 -3.57,0.74 -4.19,0 -6.27,-2.33 -6.27,-7l0 -14.14 -4.11 0 0 -3.27 4.11 0 0 -5.83 3.82 -1.24 0 7.07 6.02 0 0 3.27 -6.02 0 0 13.47c0,1.6 0.27,2.74 0.82,3.42 0.54,0.68 1.44,1.03 2.71,1.03 0.96,0 1.79,-0.26 2.49,-0.8l0 3.27z"/>
   <polygon id="_3" class="fil4" points="633.17,580.26 629.25,580.26 629.25,565 611.93,565 611.93,580.26 608.02,580.26 608.02,546.8 611.93,546.8 611.93,561.48 629.25,561.48 629.25,546.8 633.17,546.8 "/>
   <path id="_4" class="fil4" d="M660.74 580.26l-3.82 0 0 -3.78 -0.1 0c-1.58,2.9 -4.04,4.34 -7.37,4.34 -5.69,0 -8.54,-3.38 -8.54,-10.17l0 -14.28 3.8 0 0 13.67c0,5.04 1.93,7.56 5.79,7.56 1.86,0 3.4,-0.68 4.61,-2.06 1.2,-1.38 1.81,-3.18 1.81,-5.41l0 -13.76 3.82 0 0 23.89z"/>
   <path id="_5" class="fil4" d="M672.39 576.8l-0.1 0 0 3.46 -3.83 0 0 -35.37 3.83 0 0 15.67 0.1 0c1.88,-3.17 4.63,-4.76 8.26,-4.76 3.06,0 5.46,1.07 7.19,3.21 1.74,2.13 2.6,5 2.6,8.59 0,4 -0.97,7.2 -2.91,9.6 -1.94,2.4 -4.6,3.6 -7.98,3.6 -3.16,0 -5.54,-1.34 -7.16,-4.01zm-0.1 -9.64l0 3.34c0,1.98 0.64,3.66 1.93,5.03 1.28,1.38 2.91,2.06 4.88,2.06 2.32,0 4.13,-0.88 5.45,-2.66 1.31,-1.78 1.98,-4.24 1.98,-7.4 0,-2.66 -0.61,-4.74 -1.85,-6.25 -1.23,-1.51 -2.89,-2.26 -4.99,-2.26 -2.23,0 -4.01,0.77 -5.37,2.32 -1.35,1.55 -2.03,3.49 -2.03,5.82z"/>
  </g>
  <g id="_1641720229488">
   <g>
    <g>
     <polygon class="fil5" points="1205.98,424.78 1222.02,506.57 1170.11,644.2 1141.08,596.82 "/>
     <path id="_1_0" class="fil6" d="M1210.54 506.95l-16.05 -81.78 22.96 -0.76 16.05 81.78 -0.11 1.2 -22.86 -0.44zm-51.81 136.43l51.91 -137.63 22.75 1.64 -51.91 137.63 -22.52 0.41 -0.23 -2.05zm-6.51 -47.78l29.03 47.38 -22.29 2.45 -29.03 -47.38 -0.23 -2.05 22.52 -0.41zm65.13 -169.99l-64.89 172.04 -22.75 -1.64 64.89 -172.04 22.86 0.44 -0.11 1.2z"/>
    </g>
    <g>
     <polygon class="fil5" points="1141.08,596.82 1170.11,644.2 268.21,668.77 13.7,627.54 "/>
     <path id="_1_1" class="fil6" d="M1158.97 645.42l-29.03 -47.38 22.29 -2.45 29.03 47.38 -10.34 6.16 -11.95 -3.71zm-891.57 18.42l901.91 -24.58 1.61 9.87 -901.91 24.58 -4.81 -0.31 3.2 -9.56zm-249.69 -40.92l254.5 41.23 -8.02 9.25 -254.5 -41.23 3.2 -9.56 4.81 0.31zm1124.18 -21.17l-1127.38 30.72 -1.61 -9.87 1127.38 -30.72 11.95 3.71 -10.34 6.16z"/>
    </g>
   </g>
   <g>
    <polygon class="fil5" points="78.6,455.5 1205.98,424.78 1141.08,596.82 13.7,627.54 "/>
    <path id="_1_2" class="fil6" d="M1206.75 429.73l-1127.38 30.72 -1.55 -9.9 1127.38 -30.72 12.15 5.76 -10.6 4.14zm-1.55 -9.9l14.48 -0.39 -2.32 6.16 -12.15 -5.76zm-75.5 176.18l64.89 -172.04 22.76 1.63 -64.89 172.04 -10.6 4.14 -12.15 -5.76zm22.76 1.63l-1.47 3.89 -9.14 0.25 10.6 -4.14zm-1139.54 24.96l1127.38 -30.72 1.55 9.9 -1127.38 30.72 -12.15 -5.76 10.6 -4.14zm1.55 9.9l-14.48 0.39 2.32 -6.16 12.15 5.76zm75.5 -176.17l-64.89 172.04 -22.76 -1.63 64.89 -172.04 10.6 -4.14 12.15 5.76zm-22.76 -1.63l1.47 -3.89 9.14 -0.25 -10.6 4.14z"/>
   </g>
   <path class="fil6" d="M114.56 490.24l47.43 -1.5c10.7,-0.34 18.59,0.06 23.65,1.21 6.79,1.55 11.96,4.54 15.44,8.97 3.52,4.4 5.3,9.89 5.38,16.45 0.07,6.54 -1.88,14.7 -5.87,24.43 -3.51,8.57 -7.85,15.96 -13.03,22.24 -6.31,7.67 -13.41,13.94 -21.29,18.8 -5.95,3.7 -13.17,6.65 -21.63,8.87 -6.33,1.66 -14.27,2.62 -23.87,2.93l-48.84 1.54 42.63 -103.96zm18.88 16.75l-28.22 68.82 19.34 -0.61c7.22,-0.23 12.58,-0.73 16.06,-1.49 4.57,-0.98 8.65,-2.54 12.24,-4.66 3.62,-2.12 7.24,-5.53 10.88,-10.23 3.67,-4.7 7.15,-11.09 10.45,-19.13 3.29,-8.03 4.95,-14.15 4.94,-18.4 0.03,-4.25 -1.06,-7.51 -3.22,-9.84 -2.17,-2.3 -5.48,-3.82 -9.99,-4.51 -3.33,-0.54 -10.29,-0.65 -20.85,-0.32l-11.63 0.37z"/>
   <path id="_1_3" class="fil6" d="M236.72 504.59l7.56 -18.44 24.64 -0.78 -7.56 18.44 -24.64 0.78zm-35.07 85.52l30.9 -75.35 24.64 -0.78 -30.9 75.35 -24.64 0.78z"/>
   <path id="_2_4" class="fil6" d="M251.5 567.61l26.07 -3.83c-0.53,3.81 0.4,6.68 2.82,8.56 2.38,1.91 6.5,2.76 12.29,2.57 6.39,-0.2 11.57,-1.3 15.58,-3.29 2.71,-1.4 4.52,-3.22 5.43,-5.45 0.62,-1.5 0.53,-2.74 -0.23,-3.69 -0.84,-0.9 -3.23,-1.71 -7.16,-2.38 -18.48,-2.93 -29.77,-5.77 -33.9,-8.53 -5.73,-3.86 -7.09,-9.4 -4.13,-16.64 2.69,-6.56 8.15,-12.15 16.36,-16.81 8.21,-4.65 19.02,-7.19 32.42,-7.61 12.77,-0.4 21.58,0.99 26.41,4.16 4.82,3.19 7.06,8.04 6.69,14.57l-24.63 4.22c0.22,-2.92 -0.76,-5.14 -2.91,-6.62 -2.14,-1.49 -5.81,-2.13 -11,-1.97 -6.54,0.21 -11.51,1.08 -14.96,2.65 -2.32,1.1 -3.8,2.48 -4.47,4.13 -0.59,1.43 -0.27,2.61 0.97,3.55 1.7,1.26 8.64,2.88 20.84,4.88 12.2,2 20.19,4.67 23.97,8.01 3.74,3.37 4.28,8.25 1.68,14.59 -2.83,6.9 -8.84,12.96 -18.04,18.15 -9.17,5.19 -20.78,8.01 -34.81,8.45 -12.71,0.4 -21.93,-1.36 -27.67,-5.27 -5.71,-3.9 -8.26,-9.36 -7.62,-16.41z"/>
   <path id="_3_5" class="fil6" d="M454.7 529.82l-25.71 4.25c0.79,-3.87 0.13,-6.74 -1.96,-8.63 -2.1,-1.87 -5.44,-2.74 -10.06,-2.6 -6.15,0.19 -11.77,2.07 -16.83,5.62 -5.07,3.55 -9.25,9.34 -12.55,17.4 -3.67,8.95 -4.4,15.21 -2.2,18.79 2.2,3.59 6.42,5.27 12.66,5.07 4.68,-0.15 8.96,-1.36 12.81,-3.61 3.88,-2.25 7.5,-6.02 10.89,-11.33l22.91 2.57c-6.21,9.08 -13.83,16.03 -22.84,20.86 -9.02,4.82 -19.53,7.42 -31.55,7.8 -13.61,0.43 -23.06,-2.71 -28.31,-9.4 -5.27,-6.71 -5.36,-16.22 -0.31,-28.53 5.11,-12.46 13.16,-22.27 24.13,-29.47 10.97,-7.2 23.39,-11.01 37.27,-11.45 11.33,-0.36 19.54,1.34 24.64,5.08 5.07,3.73 7.4,9.58 7.03,17.57z"/>
   <path id="_4_6" class="fil6" d="M513.4 580.28l4.62 -11.28c-5.06,4.12 -10.84,7.46 -17.37,10.03 -6.52,2.55 -12.85,3.92 -19,4.11 -6.3,0.2 -11.47,-0.74 -15.54,-2.81 -4.09,-2.07 -6.4,-5.1 -6.97,-9.05 -0.59,-3.97 0.58,-9.5 3.5,-16.62l19.6 -47.79 24.64 -0.78 -14.23 34.7c-4.36,10.62 -6.57,17.09 -6.62,19.46 -0.08,2.37 0.78,4.23 2.65,5.53 1.82,1.33 4.59,1.93 8.31,1.82 4.23,-0.13 8.39,-1.2 12.51,-3.17 4.12,-1.97 7.35,-4.36 9.72,-7.19 2.37,-2.82 5.78,-9.62 10.21,-20.43l13.06 -31.84 24.64 -0.78 -30.9 75.35 -22.84 0.72z"/>
   <path id="_5_7" class="fil6" d="M561.46 557.84l26.07 -3.83c-0.53,3.81 0.4,6.68 2.82,8.56 2.38,1.91 6.5,2.76 12.29,2.57 6.39,-0.2 11.57,-1.3 15.58,-3.29 2.71,-1.4 4.52,-3.22 5.43,-5.45 0.62,-1.5 0.53,-2.74 -0.23,-3.69 -0.84,-0.9 -3.23,-1.71 -7.16,-2.38 -18.48,-2.93 -29.77,-5.77 -33.9,-8.53 -5.73,-3.86 -7.09,-9.4 -4.13,-16.64 2.69,-6.56 8.15,-12.15 16.36,-16.81 8.21,-4.65 19.02,-7.19 32.42,-7.61 12.77,-0.4 21.58,0.99 26.41,4.16 4.82,3.19 7.06,8.04 6.69,14.57l-24.63 4.22c0.22,-2.92 -0.76,-5.14 -2.91,-6.62 -2.14,-1.49 -5.81,-2.13 -11,-1.97 -6.54,0.21 -11.51,1.08 -14.96,2.65 -2.31,1.1 -3.8,2.48 -4.47,4.13 -0.59,1.43 -0.27,2.61 0.97,3.55 1.7,1.26 8.64,2.88 20.84,4.88 12.2,2 20.19,4.67 23.97,8.01 3.74,3.37 4.28,8.25 1.68,14.59 -2.83,6.9 -8.84,12.96 -18.04,18.15 -9.17,5.19 -20.77,8.01 -34.8,8.45 -12.71,0.4 -21.93,-1.36 -27.67,-5.27 -5.71,-3.9 -8.26,-9.36 -7.62,-16.41z"/>
   <path id="_6" class="fil6" d="M661.5 554.68l26.07 -3.83c-0.53,3.81 0.4,6.68 2.82,8.56 2.38,1.91 6.5,2.76 12.29,2.57 6.39,-0.2 11.57,-1.3 15.58,-3.29 2.71,-1.4 4.52,-3.22 5.43,-5.45 0.62,-1.5 0.53,-2.74 -0.23,-3.69 -0.84,-0.91 -3.23,-1.71 -7.16,-2.38 -18.48,-2.93 -29.77,-5.77 -33.9,-8.53 -5.73,-3.86 -7.09,-9.4 -4.13,-16.64 2.69,-6.56 8.15,-12.15 16.36,-16.8 8.21,-4.65 19.02,-7.19 32.42,-7.62 12.77,-0.4 21.58,0.99 26.41,4.16 4.82,3.19 7.06,8.04 6.69,14.57l-24.63 4.22c0.22,-2.92 -0.76,-5.14 -2.91,-6.62 -2.14,-1.49 -5.81,-2.13 -11,-1.97 -6.54,0.21 -11.51,1.08 -14.96,2.65 -2.32,1.1 -3.8,2.48 -4.47,4.13 -0.59,1.43 -0.27,2.61 0.97,3.55 1.7,1.26 8.64,2.88 20.84,4.88 12.2,2 20.19,4.67 23.97,8.01 3.74,3.37 4.28,8.25 1.68,14.59 -2.83,6.9 -8.84,12.96 -18.03,18.15 -9.17,5.19 -20.78,8.01 -34.81,8.45 -12.71,0.4 -21.93,-1.36 -27.67,-5.27 -5.71,-3.9 -8.26,-9.36 -7.62,-16.41z"/>
   <path id="_7" class="fil6" d="M796.73 486.93l7.56 -18.44 24.64 -0.78 -7.56 18.44 -24.64 0.78zm-35.07 85.52l30.9 -75.35 24.64 -0.78 -30.9 75.35 -24.64 0.78z"/>
   <path id="_8" class="fil6" d="M821.7 532.46c2.72,-6.63 7.36,-13.11 13.94,-19.43 6.6,-6.35 14.26,-11.25 23,-14.75 8.74,-3.5 17.66,-5.41 26.81,-5.69 14.12,-0.45 24.14,2.89 30.13,10.01 5.98,7.14 6.64,16.34 2,27.67 -4.68,11.42 -13.12,21.03 -25.28,28.81 -12.19,7.79 -25.18,11.9 -39,12.34 -8.54,0.27 -16.05,-1.05 -22.54,-3.92 -6.45,-2.88 -10.48,-7.26 -12.05,-13.19 -1.58,-5.9 -0.57,-13.19 2.98,-21.85zm24.93 0.27c-3.07,7.48 -3.23,13.14 -0.48,16.97 2.77,3.85 7.35,5.67 13.8,5.47 6.42,-0.2 12.63,-2.36 18.61,-6.49 5.98,-4.1 10.53,-9.96 13.64,-17.53 3.03,-7.38 3.17,-13 0.45,-16.83 -2.71,-3.86 -7.29,-5.67 -13.71,-5.47 -6.45,0.2 -12.65,2.36 -18.7,6.49 -6.01,4.11 -10.54,9.91 -13.61,17.39z"/>
   <path id="_9" class="fil6" d="M1006.4 564.73l-24.64 0.78 15.75 -38.4c3.33,-8.13 4.95,-13.36 4.87,-15.7 -0.1,-2.36 -1.05,-4.15 -2.9,-5.4 -1.85,-1.26 -4.46,-1.82 -7.82,-1.71 -4.32,0.14 -8.57,1.2 -12.76,3.2 -4.22,2 -7.59,4.59 -10.12,7.72 -2.57,3.16 -5.56,8.94 -9.01,17.36l-13.97 34.07 -24.64 0.78 30.9 -75.35 22.84 -0.72 -4.53 11.06c11.65,-8.7 23.66,-13.24 36.1,-13.63 5.46,-0.17 10.14,0.47 14.02,1.9 3.9,1.45 6.49,3.35 7.8,5.73 1.33,2.39 1.81,5.13 1.42,8.22 -0.35,3.09 -1.73,7.53 -4.11,13.34l-19.18 46.77z"/>
   <path id="_10" class="fil6" d="M1031.26 543.02l26.07 -3.83c-0.53,3.81 0.4,6.68 2.82,8.56 2.38,1.91 6.5,2.76 12.29,2.57 6.39,-0.2 11.57,-1.3 15.58,-3.29 2.71,-1.4 4.52,-3.22 5.43,-5.45 0.62,-1.5 0.53,-2.74 -0.23,-3.69 -0.84,-0.9 -3.23,-1.71 -7.16,-2.38 -18.48,-2.93 -29.77,-5.77 -33.9,-8.53 -5.73,-3.86 -7.09,-9.4 -4.13,-16.64 2.69,-6.56 8.15,-12.15 16.36,-16.8 8.21,-4.65 19.02,-7.19 32.42,-7.61 12.77,-0.4 21.58,0.99 26.41,4.16 4.82,3.19 7.06,8.04 6.69,14.57l-24.63 4.22c0.22,-2.92 -0.76,-5.14 -2.91,-6.62 -2.14,-1.49 -5.81,-2.13 -11,-1.97 -6.54,0.21 -11.51,1.08 -14.96,2.65 -2.31,1.1 -3.8,2.48 -4.47,4.13 -0.59,1.43 -0.27,2.61 0.97,3.55 1.7,1.26 8.64,2.88 20.84,4.88 12.2,2 20.19,4.67 23.97,8.01 3.74,3.37 4.28,8.25 1.68,14.59 -2.83,6.9 -8.84,12.96 -18.04,18.15 -9.17,5.19 -20.77,8.01 -34.8,8.45 -12.71,0.4 -21.93,-1.36 -27.67,-5.27 -5.71,-3.9 -8.26,-9.37 -7.62,-16.41z"/>
  </g>
 </g>
</svg>
